G04 #@! TF.GenerationSoftware,KiCad,Pcbnew,5.0.2-bee76a0~70~ubuntu18.04.1*
G04 #@! TF.CreationDate,2019-03-11T17:22:41+01:00*
G04 #@! TF.ProjectId,FilPilote,46696c50-696c-46f7-9465-2e6b69636164,rev?*
G04 #@! TF.SameCoordinates,Original*
G04 #@! TF.FileFunction,Legend,Bot*
G04 #@! TF.FilePolarity,Positive*
%FSLAX46Y46*%
G04 Gerber Fmt 4.6, Leading zero omitted, Abs format (unit mm)*
G04 Created by KiCad (PCBNEW 5.0.2-bee76a0~70~ubuntu18.04.1) date lun. 11 mars 2019 17:22:41 CET*
%MOMM*%
%LPD*%
G01*
G04 APERTURE LIST*
%ADD10C,0.120000*%
%ADD11C,0.150000*%
G04 APERTURE END LIST*
D10*
G04 #@! TO.C,C3*
X143096064Y-98023000D02*
X141891936Y-98023000D01*
X143096064Y-99843000D02*
X141891936Y-99843000D01*
G04 #@! TO.C,R7*
X149858252Y-99516000D02*
X149335748Y-99516000D01*
X149858252Y-98096000D02*
X149335748Y-98096000D01*
G04 #@! TO.C,R8*
X142374252Y-102414000D02*
X141851748Y-102414000D01*
X142374252Y-103834000D02*
X141851748Y-103834000D01*
G04 #@! TO.C,R3*
X145543748Y-109739500D02*
X146066252Y-109739500D01*
X145543748Y-108319500D02*
X146066252Y-108319500D01*
G04 #@! TO.C,C3*
D11*
X142660666Y-97470142D02*
X142708285Y-97517761D01*
X142851142Y-97565380D01*
X142946380Y-97565380D01*
X143089238Y-97517761D01*
X143184476Y-97422523D01*
X143232095Y-97327285D01*
X143279714Y-97136809D01*
X143279714Y-96993952D01*
X143232095Y-96803476D01*
X143184476Y-96708238D01*
X143089238Y-96613000D01*
X142946380Y-96565380D01*
X142851142Y-96565380D01*
X142708285Y-96613000D01*
X142660666Y-96660619D01*
X142327333Y-96565380D02*
X141708285Y-96565380D01*
X142041619Y-96946333D01*
X141898761Y-96946333D01*
X141803523Y-96993952D01*
X141755904Y-97041571D01*
X141708285Y-97136809D01*
X141708285Y-97374904D01*
X141755904Y-97470142D01*
X141803523Y-97517761D01*
X141898761Y-97565380D01*
X142184476Y-97565380D01*
X142279714Y-97517761D01*
X142327333Y-97470142D01*
G04 #@! TO.C,R7*
X149763666Y-97608380D02*
X150097000Y-97132190D01*
X150335095Y-97608380D02*
X150335095Y-96608380D01*
X149954142Y-96608380D01*
X149858904Y-96656000D01*
X149811285Y-96703619D01*
X149763666Y-96798857D01*
X149763666Y-96941714D01*
X149811285Y-97036952D01*
X149858904Y-97084571D01*
X149954142Y-97132190D01*
X150335095Y-97132190D01*
X149430333Y-96608380D02*
X148763666Y-96608380D01*
X149192238Y-97608380D01*
G04 #@! TO.C,R8*
X142279666Y-101926380D02*
X142613000Y-101450190D01*
X142851095Y-101926380D02*
X142851095Y-100926380D01*
X142470142Y-100926380D01*
X142374904Y-100974000D01*
X142327285Y-101021619D01*
X142279666Y-101116857D01*
X142279666Y-101259714D01*
X142327285Y-101354952D01*
X142374904Y-101402571D01*
X142470142Y-101450190D01*
X142851095Y-101450190D01*
X141708238Y-101354952D02*
X141803476Y-101307333D01*
X141851095Y-101259714D01*
X141898714Y-101164476D01*
X141898714Y-101116857D01*
X141851095Y-101021619D01*
X141803476Y-100974000D01*
X141708238Y-100926380D01*
X141517761Y-100926380D01*
X141422523Y-100974000D01*
X141374904Y-101021619D01*
X141327285Y-101116857D01*
X141327285Y-101164476D01*
X141374904Y-101259714D01*
X141422523Y-101307333D01*
X141517761Y-101354952D01*
X141708238Y-101354952D01*
X141803476Y-101402571D01*
X141851095Y-101450190D01*
X141898714Y-101545428D01*
X141898714Y-101735904D01*
X141851095Y-101831142D01*
X141803476Y-101878761D01*
X141708238Y-101926380D01*
X141517761Y-101926380D01*
X141422523Y-101878761D01*
X141374904Y-101831142D01*
X141327285Y-101735904D01*
X141327285Y-101545428D01*
X141374904Y-101450190D01*
X141422523Y-101402571D01*
X141517761Y-101354952D01*
G04 #@! TO.C,R3*
X145971666Y-111131880D02*
X146305000Y-110655690D01*
X146543095Y-111131880D02*
X146543095Y-110131880D01*
X146162142Y-110131880D01*
X146066904Y-110179500D01*
X146019285Y-110227119D01*
X145971666Y-110322357D01*
X145971666Y-110465214D01*
X146019285Y-110560452D01*
X146066904Y-110608071D01*
X146162142Y-110655690D01*
X146543095Y-110655690D01*
X145638333Y-110131880D02*
X145019285Y-110131880D01*
X145352619Y-110512833D01*
X145209761Y-110512833D01*
X145114523Y-110560452D01*
X145066904Y-110608071D01*
X145019285Y-110703309D01*
X145019285Y-110941404D01*
X145066904Y-111036642D01*
X145114523Y-111084261D01*
X145209761Y-111131880D01*
X145495476Y-111131880D01*
X145590714Y-111084261D01*
X145638333Y-111036642D01*
G04 #@! TD*
M02*
