G04 #@! TF.GenerationSoftware,KiCad,Pcbnew,5.0.2-bee76a0~70~ubuntu18.04.1*
G04 #@! TF.CreationDate,2019-03-11T17:22:41+01:00*
G04 #@! TF.ProjectId,FilPilote,46696c50-696c-46f7-9465-2e6b69636164,rev?*
G04 #@! TF.SameCoordinates,Original*
G04 #@! TF.FileFunction,Copper,L2,Bot*
G04 #@! TF.FilePolarity,Positive*
%FSLAX46Y46*%
G04 Gerber Fmt 4.6, Leading zero omitted, Abs format (unit mm)*
G04 Created by KiCad (PCBNEW 5.0.2-bee76a0~70~ubuntu18.04.1) date lun. 11 mars 2019 17:22:41 CET*
%MOMM*%
%LPD*%
G01*
G04 APERTURE LIST*
G04 #@! TA.AperFunction,ComponentPad*
%ADD10C,2.000000*%
G04 #@! TD*
G04 #@! TA.AperFunction,Conductor*
%ADD11C,0.100000*%
G04 #@! TD*
G04 #@! TA.AperFunction,SMDPad,CuDef*
%ADD12C,1.425000*%
G04 #@! TD*
G04 #@! TA.AperFunction,ComponentPad*
%ADD13R,1.700000X1.700000*%
G04 #@! TD*
G04 #@! TA.AperFunction,ComponentPad*
%ADD14O,1.700000X1.700000*%
G04 #@! TD*
G04 #@! TA.AperFunction,ComponentPad*
%ADD15R,3.000000X3.000000*%
G04 #@! TD*
G04 #@! TA.AperFunction,ComponentPad*
%ADD16C,3.000000*%
G04 #@! TD*
G04 #@! TA.AperFunction,SMDPad,CuDef*
%ADD17C,1.150000*%
G04 #@! TD*
G04 #@! TA.AperFunction,ComponentPad*
%ADD18O,1.600000X2.400000*%
G04 #@! TD*
G04 #@! TA.AperFunction,ComponentPad*
%ADD19R,1.600000X2.400000*%
G04 #@! TD*
G04 #@! TA.AperFunction,ViaPad*
%ADD20C,0.600000*%
G04 #@! TD*
G04 #@! TA.AperFunction,Conductor*
%ADD21C,0.250000*%
G04 #@! TD*
G04 #@! TA.AperFunction,Conductor*
%ADD22C,1.000000*%
G04 #@! TD*
G04 #@! TA.AperFunction,Conductor*
%ADD23C,0.254000*%
G04 #@! TD*
G04 APERTURE END LIST*
D10*
G04 #@! TO.P,U5,1*
G04 #@! TO.N,/PH_IN*
X122009001Y-80152001D03*
G04 #@! TO.P,U5,2*
G04 #@! TO.N,/NEUTRE*
X122009001Y-85232001D03*
G04 #@! TO.P,U5,3*
G04 #@! TO.N,/GND*
X151473001Y-75072001D03*
G04 #@! TO.P,U5,4*
G04 #@! TO.N,/3V3*
X151473001Y-90312001D03*
G04 #@! TD*
D11*
G04 #@! TO.N,/GND*
G04 #@! TO.C,C3*
G36*
X144468504Y-98059204D02*
X144492773Y-98062804D01*
X144516571Y-98068765D01*
X144539671Y-98077030D01*
X144561849Y-98087520D01*
X144582893Y-98100133D01*
X144602598Y-98114747D01*
X144620777Y-98131223D01*
X144637253Y-98149402D01*
X144651867Y-98169107D01*
X144664480Y-98190151D01*
X144674970Y-98212329D01*
X144683235Y-98235429D01*
X144689196Y-98259227D01*
X144692796Y-98283496D01*
X144694000Y-98308000D01*
X144694000Y-99558000D01*
X144692796Y-99582504D01*
X144689196Y-99606773D01*
X144683235Y-99630571D01*
X144674970Y-99653671D01*
X144664480Y-99675849D01*
X144651867Y-99696893D01*
X144637253Y-99716598D01*
X144620777Y-99734777D01*
X144602598Y-99751253D01*
X144582893Y-99765867D01*
X144561849Y-99778480D01*
X144539671Y-99788970D01*
X144516571Y-99797235D01*
X144492773Y-99803196D01*
X144468504Y-99806796D01*
X144444000Y-99808000D01*
X143519000Y-99808000D01*
X143494496Y-99806796D01*
X143470227Y-99803196D01*
X143446429Y-99797235D01*
X143423329Y-99788970D01*
X143401151Y-99778480D01*
X143380107Y-99765867D01*
X143360402Y-99751253D01*
X143342223Y-99734777D01*
X143325747Y-99716598D01*
X143311133Y-99696893D01*
X143298520Y-99675849D01*
X143288030Y-99653671D01*
X143279765Y-99630571D01*
X143273804Y-99606773D01*
X143270204Y-99582504D01*
X143269000Y-99558000D01*
X143269000Y-98308000D01*
X143270204Y-98283496D01*
X143273804Y-98259227D01*
X143279765Y-98235429D01*
X143288030Y-98212329D01*
X143298520Y-98190151D01*
X143311133Y-98169107D01*
X143325747Y-98149402D01*
X143342223Y-98131223D01*
X143360402Y-98114747D01*
X143380107Y-98100133D01*
X143401151Y-98087520D01*
X143423329Y-98077030D01*
X143446429Y-98068765D01*
X143470227Y-98062804D01*
X143494496Y-98059204D01*
X143519000Y-98058000D01*
X144444000Y-98058000D01*
X144468504Y-98059204D01*
X144468504Y-98059204D01*
G37*
D12*
G04 #@! TD*
G04 #@! TO.P,C3,1*
G04 #@! TO.N,/GND*
X143981500Y-98933000D03*
D11*
G04 #@! TO.N,/3V3*
G04 #@! TO.C,C3*
G36*
X141493504Y-98059204D02*
X141517773Y-98062804D01*
X141541571Y-98068765D01*
X141564671Y-98077030D01*
X141586849Y-98087520D01*
X141607893Y-98100133D01*
X141627598Y-98114747D01*
X141645777Y-98131223D01*
X141662253Y-98149402D01*
X141676867Y-98169107D01*
X141689480Y-98190151D01*
X141699970Y-98212329D01*
X141708235Y-98235429D01*
X141714196Y-98259227D01*
X141717796Y-98283496D01*
X141719000Y-98308000D01*
X141719000Y-99558000D01*
X141717796Y-99582504D01*
X141714196Y-99606773D01*
X141708235Y-99630571D01*
X141699970Y-99653671D01*
X141689480Y-99675849D01*
X141676867Y-99696893D01*
X141662253Y-99716598D01*
X141645777Y-99734777D01*
X141627598Y-99751253D01*
X141607893Y-99765867D01*
X141586849Y-99778480D01*
X141564671Y-99788970D01*
X141541571Y-99797235D01*
X141517773Y-99803196D01*
X141493504Y-99806796D01*
X141469000Y-99808000D01*
X140544000Y-99808000D01*
X140519496Y-99806796D01*
X140495227Y-99803196D01*
X140471429Y-99797235D01*
X140448329Y-99788970D01*
X140426151Y-99778480D01*
X140405107Y-99765867D01*
X140385402Y-99751253D01*
X140367223Y-99734777D01*
X140350747Y-99716598D01*
X140336133Y-99696893D01*
X140323520Y-99675849D01*
X140313030Y-99653671D01*
X140304765Y-99630571D01*
X140298804Y-99606773D01*
X140295204Y-99582504D01*
X140294000Y-99558000D01*
X140294000Y-98308000D01*
X140295204Y-98283496D01*
X140298804Y-98259227D01*
X140304765Y-98235429D01*
X140313030Y-98212329D01*
X140323520Y-98190151D01*
X140336133Y-98169107D01*
X140350747Y-98149402D01*
X140367223Y-98131223D01*
X140385402Y-98114747D01*
X140405107Y-98100133D01*
X140426151Y-98087520D01*
X140448329Y-98077030D01*
X140471429Y-98068765D01*
X140495227Y-98062804D01*
X140519496Y-98059204D01*
X140544000Y-98058000D01*
X141469000Y-98058000D01*
X141493504Y-98059204D01*
X141493504Y-98059204D01*
G37*
D12*
G04 #@! TD*
G04 #@! TO.P,C3,2*
G04 #@! TO.N,/3V3*
X141006500Y-98933000D03*
D13*
G04 #@! TO.P,J1,1*
G04 #@! TO.N,/3V3*
X133858000Y-101219000D03*
D14*
G04 #@! TO.P,J1,2*
G04 #@! TO.N,/TXD*
X133858000Y-103759000D03*
G04 #@! TO.P,J1,3*
G04 #@! TO.N,/RXD*
X133858000Y-106299000D03*
G04 #@! TO.P,J1,4*
G04 #@! TO.N,/GND*
X133858000Y-108839000D03*
G04 #@! TD*
D15*
G04 #@! TO.P,P1,1*
G04 #@! TO.N,/PH_IN*
X114935000Y-80137000D03*
D16*
G04 #@! TO.P,P1,2*
G04 #@! TO.N,/NEUTRE*
X114935000Y-85217000D03*
G04 #@! TO.P,P1,3*
G04 #@! TO.N,/FP_OUT*
X114935000Y-90297000D03*
G04 #@! TD*
D11*
G04 #@! TO.N,/3V3*
G04 #@! TO.C,R7*
G36*
X148921505Y-98107204D02*
X148945773Y-98110804D01*
X148969572Y-98116765D01*
X148992671Y-98125030D01*
X149014850Y-98135520D01*
X149035893Y-98148132D01*
X149055599Y-98162747D01*
X149073777Y-98179223D01*
X149090253Y-98197401D01*
X149104868Y-98217107D01*
X149117480Y-98238150D01*
X149127970Y-98260329D01*
X149136235Y-98283428D01*
X149142196Y-98307227D01*
X149145796Y-98331495D01*
X149147000Y-98355999D01*
X149147000Y-99256001D01*
X149145796Y-99280505D01*
X149142196Y-99304773D01*
X149136235Y-99328572D01*
X149127970Y-99351671D01*
X149117480Y-99373850D01*
X149104868Y-99394893D01*
X149090253Y-99414599D01*
X149073777Y-99432777D01*
X149055599Y-99449253D01*
X149035893Y-99463868D01*
X149014850Y-99476480D01*
X148992671Y-99486970D01*
X148969572Y-99495235D01*
X148945773Y-99501196D01*
X148921505Y-99504796D01*
X148897001Y-99506000D01*
X148246999Y-99506000D01*
X148222495Y-99504796D01*
X148198227Y-99501196D01*
X148174428Y-99495235D01*
X148151329Y-99486970D01*
X148129150Y-99476480D01*
X148108107Y-99463868D01*
X148088401Y-99449253D01*
X148070223Y-99432777D01*
X148053747Y-99414599D01*
X148039132Y-99394893D01*
X148026520Y-99373850D01*
X148016030Y-99351671D01*
X148007765Y-99328572D01*
X148001804Y-99304773D01*
X147998204Y-99280505D01*
X147997000Y-99256001D01*
X147997000Y-98355999D01*
X147998204Y-98331495D01*
X148001804Y-98307227D01*
X148007765Y-98283428D01*
X148016030Y-98260329D01*
X148026520Y-98238150D01*
X148039132Y-98217107D01*
X148053747Y-98197401D01*
X148070223Y-98179223D01*
X148088401Y-98162747D01*
X148108107Y-98148132D01*
X148129150Y-98135520D01*
X148151329Y-98125030D01*
X148174428Y-98116765D01*
X148198227Y-98110804D01*
X148222495Y-98107204D01*
X148246999Y-98106000D01*
X148897001Y-98106000D01*
X148921505Y-98107204D01*
X148921505Y-98107204D01*
G37*
D17*
G04 #@! TD*
G04 #@! TO.P,R7,2*
G04 #@! TO.N,/3V3*
X148572000Y-98806000D03*
D11*
G04 #@! TO.N,Net-(R7-Pad1)*
G04 #@! TO.C,R7*
G36*
X150971505Y-98107204D02*
X150995773Y-98110804D01*
X151019572Y-98116765D01*
X151042671Y-98125030D01*
X151064850Y-98135520D01*
X151085893Y-98148132D01*
X151105599Y-98162747D01*
X151123777Y-98179223D01*
X151140253Y-98197401D01*
X151154868Y-98217107D01*
X151167480Y-98238150D01*
X151177970Y-98260329D01*
X151186235Y-98283428D01*
X151192196Y-98307227D01*
X151195796Y-98331495D01*
X151197000Y-98355999D01*
X151197000Y-99256001D01*
X151195796Y-99280505D01*
X151192196Y-99304773D01*
X151186235Y-99328572D01*
X151177970Y-99351671D01*
X151167480Y-99373850D01*
X151154868Y-99394893D01*
X151140253Y-99414599D01*
X151123777Y-99432777D01*
X151105599Y-99449253D01*
X151085893Y-99463868D01*
X151064850Y-99476480D01*
X151042671Y-99486970D01*
X151019572Y-99495235D01*
X150995773Y-99501196D01*
X150971505Y-99504796D01*
X150947001Y-99506000D01*
X150296999Y-99506000D01*
X150272495Y-99504796D01*
X150248227Y-99501196D01*
X150224428Y-99495235D01*
X150201329Y-99486970D01*
X150179150Y-99476480D01*
X150158107Y-99463868D01*
X150138401Y-99449253D01*
X150120223Y-99432777D01*
X150103747Y-99414599D01*
X150089132Y-99394893D01*
X150076520Y-99373850D01*
X150066030Y-99351671D01*
X150057765Y-99328572D01*
X150051804Y-99304773D01*
X150048204Y-99280505D01*
X150047000Y-99256001D01*
X150047000Y-98355999D01*
X150048204Y-98331495D01*
X150051804Y-98307227D01*
X150057765Y-98283428D01*
X150066030Y-98260329D01*
X150076520Y-98238150D01*
X150089132Y-98217107D01*
X150103747Y-98197401D01*
X150120223Y-98179223D01*
X150138401Y-98162747D01*
X150158107Y-98148132D01*
X150179150Y-98135520D01*
X150201329Y-98125030D01*
X150224428Y-98116765D01*
X150248227Y-98110804D01*
X150272495Y-98107204D01*
X150296999Y-98106000D01*
X150947001Y-98106000D01*
X150971505Y-98107204D01*
X150971505Y-98107204D01*
G37*
D17*
G04 #@! TD*
G04 #@! TO.P,R7,1*
G04 #@! TO.N,Net-(R7-Pad1)*
X150622000Y-98806000D03*
D11*
G04 #@! TO.N,Net-(R8-Pad1)*
G04 #@! TO.C,R8*
G36*
X143487505Y-102425204D02*
X143511773Y-102428804D01*
X143535572Y-102434765D01*
X143558671Y-102443030D01*
X143580850Y-102453520D01*
X143601893Y-102466132D01*
X143621599Y-102480747D01*
X143639777Y-102497223D01*
X143656253Y-102515401D01*
X143670868Y-102535107D01*
X143683480Y-102556150D01*
X143693970Y-102578329D01*
X143702235Y-102601428D01*
X143708196Y-102625227D01*
X143711796Y-102649495D01*
X143713000Y-102673999D01*
X143713000Y-103574001D01*
X143711796Y-103598505D01*
X143708196Y-103622773D01*
X143702235Y-103646572D01*
X143693970Y-103669671D01*
X143683480Y-103691850D01*
X143670868Y-103712893D01*
X143656253Y-103732599D01*
X143639777Y-103750777D01*
X143621599Y-103767253D01*
X143601893Y-103781868D01*
X143580850Y-103794480D01*
X143558671Y-103804970D01*
X143535572Y-103813235D01*
X143511773Y-103819196D01*
X143487505Y-103822796D01*
X143463001Y-103824000D01*
X142812999Y-103824000D01*
X142788495Y-103822796D01*
X142764227Y-103819196D01*
X142740428Y-103813235D01*
X142717329Y-103804970D01*
X142695150Y-103794480D01*
X142674107Y-103781868D01*
X142654401Y-103767253D01*
X142636223Y-103750777D01*
X142619747Y-103732599D01*
X142605132Y-103712893D01*
X142592520Y-103691850D01*
X142582030Y-103669671D01*
X142573765Y-103646572D01*
X142567804Y-103622773D01*
X142564204Y-103598505D01*
X142563000Y-103574001D01*
X142563000Y-102673999D01*
X142564204Y-102649495D01*
X142567804Y-102625227D01*
X142573765Y-102601428D01*
X142582030Y-102578329D01*
X142592520Y-102556150D01*
X142605132Y-102535107D01*
X142619747Y-102515401D01*
X142636223Y-102497223D01*
X142654401Y-102480747D01*
X142674107Y-102466132D01*
X142695150Y-102453520D01*
X142717329Y-102443030D01*
X142740428Y-102434765D01*
X142764227Y-102428804D01*
X142788495Y-102425204D01*
X142812999Y-102424000D01*
X143463001Y-102424000D01*
X143487505Y-102425204D01*
X143487505Y-102425204D01*
G37*
D17*
G04 #@! TD*
G04 #@! TO.P,R8,1*
G04 #@! TO.N,Net-(R8-Pad1)*
X143138000Y-103124000D03*
D11*
G04 #@! TO.N,/3V3*
G04 #@! TO.C,R8*
G36*
X141437505Y-102425204D02*
X141461773Y-102428804D01*
X141485572Y-102434765D01*
X141508671Y-102443030D01*
X141530850Y-102453520D01*
X141551893Y-102466132D01*
X141571599Y-102480747D01*
X141589777Y-102497223D01*
X141606253Y-102515401D01*
X141620868Y-102535107D01*
X141633480Y-102556150D01*
X141643970Y-102578329D01*
X141652235Y-102601428D01*
X141658196Y-102625227D01*
X141661796Y-102649495D01*
X141663000Y-102673999D01*
X141663000Y-103574001D01*
X141661796Y-103598505D01*
X141658196Y-103622773D01*
X141652235Y-103646572D01*
X141643970Y-103669671D01*
X141633480Y-103691850D01*
X141620868Y-103712893D01*
X141606253Y-103732599D01*
X141589777Y-103750777D01*
X141571599Y-103767253D01*
X141551893Y-103781868D01*
X141530850Y-103794480D01*
X141508671Y-103804970D01*
X141485572Y-103813235D01*
X141461773Y-103819196D01*
X141437505Y-103822796D01*
X141413001Y-103824000D01*
X140762999Y-103824000D01*
X140738495Y-103822796D01*
X140714227Y-103819196D01*
X140690428Y-103813235D01*
X140667329Y-103804970D01*
X140645150Y-103794480D01*
X140624107Y-103781868D01*
X140604401Y-103767253D01*
X140586223Y-103750777D01*
X140569747Y-103732599D01*
X140555132Y-103712893D01*
X140542520Y-103691850D01*
X140532030Y-103669671D01*
X140523765Y-103646572D01*
X140517804Y-103622773D01*
X140514204Y-103598505D01*
X140513000Y-103574001D01*
X140513000Y-102673999D01*
X140514204Y-102649495D01*
X140517804Y-102625227D01*
X140523765Y-102601428D01*
X140532030Y-102578329D01*
X140542520Y-102556150D01*
X140555132Y-102535107D01*
X140569747Y-102515401D01*
X140586223Y-102497223D01*
X140604401Y-102480747D01*
X140624107Y-102466132D01*
X140645150Y-102453520D01*
X140667329Y-102443030D01*
X140690428Y-102434765D01*
X140714227Y-102428804D01*
X140738495Y-102425204D01*
X140762999Y-102424000D01*
X141413001Y-102424000D01*
X141437505Y-102425204D01*
X141437505Y-102425204D01*
G37*
D17*
G04 #@! TD*
G04 #@! TO.P,R8,2*
G04 #@! TO.N,/3V3*
X141088000Y-103124000D03*
D18*
G04 #@! TO.P,U1,6*
G04 #@! TO.N,/PH_IN*
X123571000Y-98044000D03*
G04 #@! TO.P,U1,3*
G04 #@! TO.N,N/C*
X128651000Y-105664000D03*
G04 #@! TO.P,U1,5*
X126111000Y-98044000D03*
G04 #@! TO.P,U1,2*
G04 #@! TO.N,/GND*
X126111000Y-105664000D03*
G04 #@! TO.P,U1,4*
G04 #@! TO.N,Net-(D1-Pad2)*
X128651000Y-98044000D03*
D19*
G04 #@! TO.P,U1,1*
G04 #@! TO.N,Net-(R1-Pad1)*
X123571000Y-105664000D03*
G04 #@! TD*
G04 #@! TO.P,U2,1*
G04 #@! TO.N,Net-(R2-Pad1)*
X113919000Y-105791000D03*
D18*
G04 #@! TO.P,U2,4*
G04 #@! TO.N,Net-(D2-Pad1)*
X118999000Y-98171000D03*
G04 #@! TO.P,U2,2*
G04 #@! TO.N,/GND*
X116459000Y-105791000D03*
G04 #@! TO.P,U2,5*
G04 #@! TO.N,N/C*
X116459000Y-98171000D03*
G04 #@! TO.P,U2,3*
X118999000Y-105791000D03*
G04 #@! TO.P,U2,6*
G04 #@! TO.N,/PH_IN*
X113919000Y-98171000D03*
G04 #@! TD*
D11*
G04 #@! TO.N,Net-(R3-Pad1)*
G04 #@! TO.C,R3*
G36*
X145129505Y-108330704D02*
X145153773Y-108334304D01*
X145177572Y-108340265D01*
X145200671Y-108348530D01*
X145222850Y-108359020D01*
X145243893Y-108371632D01*
X145263599Y-108386247D01*
X145281777Y-108402723D01*
X145298253Y-108420901D01*
X145312868Y-108440607D01*
X145325480Y-108461650D01*
X145335970Y-108483829D01*
X145344235Y-108506928D01*
X145350196Y-108530727D01*
X145353796Y-108554995D01*
X145355000Y-108579499D01*
X145355000Y-109479501D01*
X145353796Y-109504005D01*
X145350196Y-109528273D01*
X145344235Y-109552072D01*
X145335970Y-109575171D01*
X145325480Y-109597350D01*
X145312868Y-109618393D01*
X145298253Y-109638099D01*
X145281777Y-109656277D01*
X145263599Y-109672753D01*
X145243893Y-109687368D01*
X145222850Y-109699980D01*
X145200671Y-109710470D01*
X145177572Y-109718735D01*
X145153773Y-109724696D01*
X145129505Y-109728296D01*
X145105001Y-109729500D01*
X144454999Y-109729500D01*
X144430495Y-109728296D01*
X144406227Y-109724696D01*
X144382428Y-109718735D01*
X144359329Y-109710470D01*
X144337150Y-109699980D01*
X144316107Y-109687368D01*
X144296401Y-109672753D01*
X144278223Y-109656277D01*
X144261747Y-109638099D01*
X144247132Y-109618393D01*
X144234520Y-109597350D01*
X144224030Y-109575171D01*
X144215765Y-109552072D01*
X144209804Y-109528273D01*
X144206204Y-109504005D01*
X144205000Y-109479501D01*
X144205000Y-108579499D01*
X144206204Y-108554995D01*
X144209804Y-108530727D01*
X144215765Y-108506928D01*
X144224030Y-108483829D01*
X144234520Y-108461650D01*
X144247132Y-108440607D01*
X144261747Y-108420901D01*
X144278223Y-108402723D01*
X144296401Y-108386247D01*
X144316107Y-108371632D01*
X144337150Y-108359020D01*
X144359329Y-108348530D01*
X144382428Y-108340265D01*
X144406227Y-108334304D01*
X144430495Y-108330704D01*
X144454999Y-108329500D01*
X145105001Y-108329500D01*
X145129505Y-108330704D01*
X145129505Y-108330704D01*
G37*
D17*
G04 #@! TD*
G04 #@! TO.P,R3,1*
G04 #@! TO.N,Net-(R3-Pad1)*
X144780000Y-109029500D03*
D11*
G04 #@! TO.N,/3V3*
G04 #@! TO.C,R3*
G36*
X147179505Y-108330704D02*
X147203773Y-108334304D01*
X147227572Y-108340265D01*
X147250671Y-108348530D01*
X147272850Y-108359020D01*
X147293893Y-108371632D01*
X147313599Y-108386247D01*
X147331777Y-108402723D01*
X147348253Y-108420901D01*
X147362868Y-108440607D01*
X147375480Y-108461650D01*
X147385970Y-108483829D01*
X147394235Y-108506928D01*
X147400196Y-108530727D01*
X147403796Y-108554995D01*
X147405000Y-108579499D01*
X147405000Y-109479501D01*
X147403796Y-109504005D01*
X147400196Y-109528273D01*
X147394235Y-109552072D01*
X147385970Y-109575171D01*
X147375480Y-109597350D01*
X147362868Y-109618393D01*
X147348253Y-109638099D01*
X147331777Y-109656277D01*
X147313599Y-109672753D01*
X147293893Y-109687368D01*
X147272850Y-109699980D01*
X147250671Y-109710470D01*
X147227572Y-109718735D01*
X147203773Y-109724696D01*
X147179505Y-109728296D01*
X147155001Y-109729500D01*
X146504999Y-109729500D01*
X146480495Y-109728296D01*
X146456227Y-109724696D01*
X146432428Y-109718735D01*
X146409329Y-109710470D01*
X146387150Y-109699980D01*
X146366107Y-109687368D01*
X146346401Y-109672753D01*
X146328223Y-109656277D01*
X146311747Y-109638099D01*
X146297132Y-109618393D01*
X146284520Y-109597350D01*
X146274030Y-109575171D01*
X146265765Y-109552072D01*
X146259804Y-109528273D01*
X146256204Y-109504005D01*
X146255000Y-109479501D01*
X146255000Y-108579499D01*
X146256204Y-108554995D01*
X146259804Y-108530727D01*
X146265765Y-108506928D01*
X146274030Y-108483829D01*
X146284520Y-108461650D01*
X146297132Y-108440607D01*
X146311747Y-108420901D01*
X146328223Y-108402723D01*
X146346401Y-108386247D01*
X146366107Y-108371632D01*
X146387150Y-108359020D01*
X146409329Y-108348530D01*
X146432428Y-108340265D01*
X146456227Y-108334304D01*
X146480495Y-108330704D01*
X146504999Y-108329500D01*
X147155001Y-108329500D01*
X147179505Y-108330704D01*
X147179505Y-108330704D01*
G37*
D17*
G04 #@! TD*
G04 #@! TO.P,R3,2*
G04 #@! TO.N,/3V3*
X146830000Y-109029500D03*
D20*
G04 #@! TO.N,/3V3*
X139319000Y-96901000D03*
G04 #@! TO.N,/TXD*
X145978876Y-105499025D03*
G04 #@! TO.N,/RXD*
X145986500Y-106426006D03*
G04 #@! TO.N,/O1*
X141605000Y-107315000D03*
X127889000Y-111506000D03*
G04 #@! TO.N,/O2*
X125603000Y-110998000D03*
X140081000Y-107315000D03*
G04 #@! TO.N,Net-(R7-Pad1)*
X151003000Y-97155000D03*
G04 #@! TO.N,Net-(R8-Pad1)*
X146558000Y-103124000D03*
X158496000Y-92710000D03*
G04 #@! TO.N,Net-(R3-Pad1)*
X142621000Y-107569000D03*
G04 #@! TD*
D21*
G04 #@! TO.N,/3V3*
X141088000Y-99014500D02*
X141006500Y-98933000D01*
X138720500Y-101219000D02*
X141006500Y-98933000D01*
X133858000Y-101219000D02*
X138720500Y-101219000D01*
X141006500Y-98588500D02*
X141006500Y-98933000D01*
X139319000Y-96901000D02*
X141006500Y-98588500D01*
X141088000Y-100330000D02*
X141088000Y-99014500D01*
X141088000Y-103124000D02*
X141088000Y-100965000D01*
X141088000Y-100965000D02*
X141088000Y-100330000D01*
X146812000Y-100965000D02*
X141088000Y-100965000D01*
X148590000Y-99187000D02*
X146812000Y-100965000D01*
X148572000Y-98806000D02*
X148590000Y-98824000D01*
X148590000Y-98824000D02*
X148590000Y-99187000D01*
X141711372Y-103747372D02*
X141088000Y-103124000D01*
X146830000Y-108884500D02*
X146939000Y-108775500D01*
X146830000Y-109029500D02*
X146830000Y-108884500D01*
X146939000Y-108775500D02*
X146939000Y-105283000D01*
X146304000Y-104648000D02*
X142612000Y-104648000D01*
X146939000Y-105283000D02*
X146304000Y-104648000D01*
X142612000Y-104648000D02*
X141711372Y-103747372D01*
D22*
G04 #@! TO.N,/PH_IN*
X113919000Y-95971000D02*
X115783000Y-94107000D01*
X113919000Y-98171000D02*
X113919000Y-95971000D01*
X115783000Y-94107000D02*
X123317000Y-94107000D01*
X123571000Y-94361000D02*
X123571000Y-98044000D01*
X123317000Y-94107000D02*
X123571000Y-94361000D01*
X124079000Y-80137000D02*
X122024002Y-80137000D01*
X125984000Y-82042000D02*
X124079000Y-80137000D01*
X125984000Y-88138000D02*
X125984000Y-82042000D01*
X122024002Y-80137000D02*
X122009001Y-80152001D01*
X123571000Y-98044000D02*
X123571000Y-90551000D01*
X123571000Y-90551000D02*
X125984000Y-88138000D01*
X114950001Y-80152001D02*
X114935000Y-80137000D01*
X122009001Y-80152001D02*
X114950001Y-80152001D01*
G04 #@! TO.N,/NEUTRE*
X121994000Y-85217000D02*
X122009001Y-85232001D01*
X114935000Y-85217000D02*
X121994000Y-85217000D01*
D21*
G04 #@! TO.N,/TXD*
X135598025Y-105499025D02*
X145554612Y-105499025D01*
X145554612Y-105499025D02*
X145978876Y-105499025D01*
X133858000Y-103759000D02*
X135598025Y-105499025D01*
G04 #@! TO.N,/RXD*
X133858000Y-106299000D02*
X133985000Y-106426000D01*
X145986494Y-106426000D02*
X145986500Y-106426006D01*
X133985000Y-106426000D02*
X145986494Y-106426000D01*
G04 #@! TO.N,/O1*
X141605000Y-107315000D02*
X137287000Y-111633000D01*
X137287000Y-111633000D02*
X128016000Y-111633000D01*
X128016000Y-111633000D02*
X127889000Y-111506000D01*
G04 #@! TO.N,/O2*
X136697999Y-110698001D02*
X140081000Y-107315000D01*
X125603000Y-110998000D02*
X125902999Y-110698001D01*
X125902999Y-110698001D02*
X136697999Y-110698001D01*
G04 #@! TO.N,Net-(R7-Pad1)*
X150703001Y-97454999D02*
X151003000Y-97155000D01*
X150622000Y-98806000D02*
X150622000Y-97536000D01*
X150622000Y-97536000D02*
X150703001Y-97454999D01*
G04 #@! TO.N,Net-(R8-Pad1)*
X143138000Y-103124000D02*
X146558000Y-103124000D01*
X152781000Y-98806000D02*
X148463000Y-103124000D01*
X148463000Y-103124000D02*
X146558000Y-103124000D01*
X152781000Y-94488000D02*
X152781000Y-98806000D01*
X153797000Y-93472000D02*
X152781000Y-94488000D01*
X158496000Y-92710000D02*
X157734000Y-93472000D01*
X157734000Y-93472000D02*
X153797000Y-93472000D01*
G04 #@! TO.N,Net-(R3-Pad1)*
X144780000Y-109029500D02*
X144081500Y-109029500D01*
X144081500Y-109029500D02*
X142621000Y-107569000D01*
G04 #@! TD*
D23*
G04 #@! TO.N,/GND*
G36*
X132343908Y-103759000D02*
X132459161Y-104338418D01*
X132787375Y-104829625D01*
X133085761Y-105029000D01*
X132787375Y-105228375D01*
X132459161Y-105719582D01*
X132343908Y-106299000D01*
X132459161Y-106878418D01*
X132787375Y-107369625D01*
X133106478Y-107582843D01*
X132976642Y-107643817D01*
X132586355Y-108072076D01*
X132416524Y-108482110D01*
X132537845Y-108712000D01*
X133731000Y-108712000D01*
X133731000Y-108692000D01*
X133985000Y-108692000D01*
X133985000Y-108712000D01*
X135178155Y-108712000D01*
X135299476Y-108482110D01*
X135129645Y-108072076D01*
X134739358Y-107643817D01*
X134609522Y-107582843D01*
X134928625Y-107369625D01*
X135051319Y-107186000D01*
X139135198Y-107186000D01*
X136383198Y-109938001D01*
X134827012Y-109938001D01*
X135129645Y-109605924D01*
X135299476Y-109195890D01*
X135178155Y-108966000D01*
X133985000Y-108966000D01*
X133985000Y-108986000D01*
X133731000Y-108986000D01*
X133731000Y-108966000D01*
X132537845Y-108966000D01*
X132416524Y-109195890D01*
X132586355Y-109605924D01*
X132888988Y-109938001D01*
X125977847Y-109938001D01*
X125902999Y-109923113D01*
X125828151Y-109938001D01*
X125828147Y-109938001D01*
X125654604Y-109972521D01*
X125606461Y-109982097D01*
X125528510Y-110034183D01*
X125485382Y-110063000D01*
X125417017Y-110063000D01*
X125073365Y-110205345D01*
X124810345Y-110468365D01*
X124668000Y-110812017D01*
X124668000Y-111183983D01*
X124810345Y-111527635D01*
X124947710Y-111665000D01*
X112060000Y-111665000D01*
X112060000Y-104591000D01*
X112471560Y-104591000D01*
X112471560Y-106991000D01*
X112520843Y-107238765D01*
X112661191Y-107448809D01*
X112871235Y-107589157D01*
X113119000Y-107638440D01*
X114719000Y-107638440D01*
X114966765Y-107589157D01*
X115176809Y-107448809D01*
X115317157Y-107238765D01*
X115351127Y-107067984D01*
X115534104Y-107295500D01*
X116027181Y-107565367D01*
X116109961Y-107582904D01*
X116332000Y-107460915D01*
X116332000Y-105918000D01*
X116312000Y-105918000D01*
X116312000Y-105664000D01*
X116332000Y-105664000D01*
X116332000Y-104121085D01*
X116586000Y-104121085D01*
X116586000Y-105664000D01*
X116606000Y-105664000D01*
X116606000Y-105918000D01*
X116586000Y-105918000D01*
X116586000Y-107460915D01*
X116808039Y-107582904D01*
X116890819Y-107565367D01*
X117383896Y-107295500D01*
X117726501Y-106869501D01*
X117964424Y-107225577D01*
X118439092Y-107542740D01*
X118999000Y-107654113D01*
X119558909Y-107542740D01*
X120033577Y-107225577D01*
X120350740Y-106750909D01*
X120434000Y-106332332D01*
X120434000Y-105249667D01*
X120350740Y-104831091D01*
X120105457Y-104464000D01*
X122123560Y-104464000D01*
X122123560Y-106864000D01*
X122172843Y-107111765D01*
X122313191Y-107321809D01*
X122523235Y-107462157D01*
X122771000Y-107511440D01*
X124371000Y-107511440D01*
X124618765Y-107462157D01*
X124828809Y-107321809D01*
X124969157Y-107111765D01*
X125003127Y-106940984D01*
X125186104Y-107168500D01*
X125679181Y-107438367D01*
X125761961Y-107455904D01*
X125984000Y-107333915D01*
X125984000Y-105791000D01*
X125964000Y-105791000D01*
X125964000Y-105537000D01*
X125984000Y-105537000D01*
X125984000Y-103994085D01*
X126238000Y-103994085D01*
X126238000Y-105537000D01*
X126258000Y-105537000D01*
X126258000Y-105791000D01*
X126238000Y-105791000D01*
X126238000Y-107333915D01*
X126460039Y-107455904D01*
X126542819Y-107438367D01*
X127035896Y-107168500D01*
X127378501Y-106742501D01*
X127616424Y-107098577D01*
X128091092Y-107415740D01*
X128651000Y-107527113D01*
X129210909Y-107415740D01*
X129685577Y-107098577D01*
X130002740Y-106623909D01*
X130086000Y-106205332D01*
X130086000Y-105122667D01*
X130002740Y-104704091D01*
X129685576Y-104229423D01*
X129210908Y-103912260D01*
X128651000Y-103800887D01*
X128091091Y-103912260D01*
X127616423Y-104229424D01*
X127378501Y-104585499D01*
X127035896Y-104159500D01*
X126542819Y-103889633D01*
X126460039Y-103872096D01*
X126238000Y-103994085D01*
X125984000Y-103994085D01*
X125761961Y-103872096D01*
X125679181Y-103889633D01*
X125186104Y-104159500D01*
X125003127Y-104387016D01*
X124969157Y-104216235D01*
X124828809Y-104006191D01*
X124618765Y-103865843D01*
X124371000Y-103816560D01*
X122771000Y-103816560D01*
X122523235Y-103865843D01*
X122313191Y-104006191D01*
X122172843Y-104216235D01*
X122123560Y-104464000D01*
X120105457Y-104464000D01*
X120033576Y-104356423D01*
X119558908Y-104039260D01*
X118999000Y-103927887D01*
X118439091Y-104039260D01*
X117964423Y-104356424D01*
X117726501Y-104712499D01*
X117383896Y-104286500D01*
X116890819Y-104016633D01*
X116808039Y-103999096D01*
X116586000Y-104121085D01*
X116332000Y-104121085D01*
X116109961Y-103999096D01*
X116027181Y-104016633D01*
X115534104Y-104286500D01*
X115351127Y-104514016D01*
X115317157Y-104343235D01*
X115176809Y-104133191D01*
X114966765Y-103992843D01*
X114719000Y-103943560D01*
X113119000Y-103943560D01*
X112871235Y-103992843D01*
X112661191Y-104133191D01*
X112520843Y-104343235D01*
X112471560Y-104591000D01*
X112060000Y-104591000D01*
X112060000Y-103502000D01*
X132395028Y-103502000D01*
X132343908Y-103759000D01*
X132343908Y-103759000D01*
G37*
X132343908Y-103759000D02*
X132459161Y-104338418D01*
X132787375Y-104829625D01*
X133085761Y-105029000D01*
X132787375Y-105228375D01*
X132459161Y-105719582D01*
X132343908Y-106299000D01*
X132459161Y-106878418D01*
X132787375Y-107369625D01*
X133106478Y-107582843D01*
X132976642Y-107643817D01*
X132586355Y-108072076D01*
X132416524Y-108482110D01*
X132537845Y-108712000D01*
X133731000Y-108712000D01*
X133731000Y-108692000D01*
X133985000Y-108692000D01*
X133985000Y-108712000D01*
X135178155Y-108712000D01*
X135299476Y-108482110D01*
X135129645Y-108072076D01*
X134739358Y-107643817D01*
X134609522Y-107582843D01*
X134928625Y-107369625D01*
X135051319Y-107186000D01*
X139135198Y-107186000D01*
X136383198Y-109938001D01*
X134827012Y-109938001D01*
X135129645Y-109605924D01*
X135299476Y-109195890D01*
X135178155Y-108966000D01*
X133985000Y-108966000D01*
X133985000Y-108986000D01*
X133731000Y-108986000D01*
X133731000Y-108966000D01*
X132537845Y-108966000D01*
X132416524Y-109195890D01*
X132586355Y-109605924D01*
X132888988Y-109938001D01*
X125977847Y-109938001D01*
X125902999Y-109923113D01*
X125828151Y-109938001D01*
X125828147Y-109938001D01*
X125654604Y-109972521D01*
X125606461Y-109982097D01*
X125528510Y-110034183D01*
X125485382Y-110063000D01*
X125417017Y-110063000D01*
X125073365Y-110205345D01*
X124810345Y-110468365D01*
X124668000Y-110812017D01*
X124668000Y-111183983D01*
X124810345Y-111527635D01*
X124947710Y-111665000D01*
X112060000Y-111665000D01*
X112060000Y-104591000D01*
X112471560Y-104591000D01*
X112471560Y-106991000D01*
X112520843Y-107238765D01*
X112661191Y-107448809D01*
X112871235Y-107589157D01*
X113119000Y-107638440D01*
X114719000Y-107638440D01*
X114966765Y-107589157D01*
X115176809Y-107448809D01*
X115317157Y-107238765D01*
X115351127Y-107067984D01*
X115534104Y-107295500D01*
X116027181Y-107565367D01*
X116109961Y-107582904D01*
X116332000Y-107460915D01*
X116332000Y-105918000D01*
X116312000Y-105918000D01*
X116312000Y-105664000D01*
X116332000Y-105664000D01*
X116332000Y-104121085D01*
X116586000Y-104121085D01*
X116586000Y-105664000D01*
X116606000Y-105664000D01*
X116606000Y-105918000D01*
X116586000Y-105918000D01*
X116586000Y-107460915D01*
X116808039Y-107582904D01*
X116890819Y-107565367D01*
X117383896Y-107295500D01*
X117726501Y-106869501D01*
X117964424Y-107225577D01*
X118439092Y-107542740D01*
X118999000Y-107654113D01*
X119558909Y-107542740D01*
X120033577Y-107225577D01*
X120350740Y-106750909D01*
X120434000Y-106332332D01*
X120434000Y-105249667D01*
X120350740Y-104831091D01*
X120105457Y-104464000D01*
X122123560Y-104464000D01*
X122123560Y-106864000D01*
X122172843Y-107111765D01*
X122313191Y-107321809D01*
X122523235Y-107462157D01*
X122771000Y-107511440D01*
X124371000Y-107511440D01*
X124618765Y-107462157D01*
X124828809Y-107321809D01*
X124969157Y-107111765D01*
X125003127Y-106940984D01*
X125186104Y-107168500D01*
X125679181Y-107438367D01*
X125761961Y-107455904D01*
X125984000Y-107333915D01*
X125984000Y-105791000D01*
X125964000Y-105791000D01*
X125964000Y-105537000D01*
X125984000Y-105537000D01*
X125984000Y-103994085D01*
X126238000Y-103994085D01*
X126238000Y-105537000D01*
X126258000Y-105537000D01*
X126258000Y-105791000D01*
X126238000Y-105791000D01*
X126238000Y-107333915D01*
X126460039Y-107455904D01*
X126542819Y-107438367D01*
X127035896Y-107168500D01*
X127378501Y-106742501D01*
X127616424Y-107098577D01*
X128091092Y-107415740D01*
X128651000Y-107527113D01*
X129210909Y-107415740D01*
X129685577Y-107098577D01*
X130002740Y-106623909D01*
X130086000Y-106205332D01*
X130086000Y-105122667D01*
X130002740Y-104704091D01*
X129685576Y-104229423D01*
X129210908Y-103912260D01*
X128651000Y-103800887D01*
X128091091Y-103912260D01*
X127616423Y-104229424D01*
X127378501Y-104585499D01*
X127035896Y-104159500D01*
X126542819Y-103889633D01*
X126460039Y-103872096D01*
X126238000Y-103994085D01*
X125984000Y-103994085D01*
X125761961Y-103872096D01*
X125679181Y-103889633D01*
X125186104Y-104159500D01*
X125003127Y-104387016D01*
X124969157Y-104216235D01*
X124828809Y-104006191D01*
X124618765Y-103865843D01*
X124371000Y-103816560D01*
X122771000Y-103816560D01*
X122523235Y-103865843D01*
X122313191Y-104006191D01*
X122172843Y-104216235D01*
X122123560Y-104464000D01*
X120105457Y-104464000D01*
X120033576Y-104356423D01*
X119558908Y-104039260D01*
X118999000Y-103927887D01*
X118439091Y-104039260D01*
X117964423Y-104356424D01*
X117726501Y-104712499D01*
X117383896Y-104286500D01*
X116890819Y-104016633D01*
X116808039Y-103999096D01*
X116586000Y-104121085D01*
X116332000Y-104121085D01*
X116109961Y-103999096D01*
X116027181Y-104016633D01*
X115534104Y-104286500D01*
X115351127Y-104514016D01*
X115317157Y-104343235D01*
X115176809Y-104133191D01*
X114966765Y-103992843D01*
X114719000Y-103943560D01*
X113119000Y-103943560D01*
X112871235Y-103992843D01*
X112661191Y-104133191D01*
X112520843Y-104343235D01*
X112471560Y-104591000D01*
X112060000Y-104591000D01*
X112060000Y-103502000D01*
X132395028Y-103502000D01*
X132343908Y-103759000D01*
G36*
X160615000Y-93248000D02*
X159280290Y-93248000D01*
X159288655Y-93239635D01*
X159431000Y-92895983D01*
X159431000Y-92524017D01*
X159288655Y-92180365D01*
X159025635Y-91917345D01*
X158681983Y-91775000D01*
X158310017Y-91775000D01*
X157966365Y-91917345D01*
X157703345Y-92180365D01*
X157561000Y-92524017D01*
X157561000Y-92570199D01*
X157419199Y-92712000D01*
X153871847Y-92712000D01*
X153797000Y-92697112D01*
X153722153Y-92712000D01*
X153722148Y-92712000D01*
X153500463Y-92756096D01*
X153249071Y-92924071D01*
X153206671Y-92987527D01*
X152296530Y-93897669D01*
X152233071Y-93940071D01*
X152065096Y-94191464D01*
X152021000Y-94413149D01*
X152021000Y-94413153D01*
X152006112Y-94488000D01*
X152021000Y-94562847D01*
X152021001Y-98491197D01*
X151844440Y-98667758D01*
X151844440Y-98355999D01*
X151776127Y-98012564D01*
X151652599Y-97827691D01*
X151795655Y-97684635D01*
X151938000Y-97340983D01*
X151938000Y-96969017D01*
X151795655Y-96625365D01*
X151532635Y-96362345D01*
X151188983Y-96220000D01*
X150817017Y-96220000D01*
X150473365Y-96362345D01*
X150210345Y-96625365D01*
X150068000Y-96969017D01*
X150068000Y-96997158D01*
X150031672Y-97051527D01*
X150031671Y-97051528D01*
X149906097Y-97239463D01*
X149847112Y-97536000D01*
X149857998Y-97590728D01*
X149662414Y-97721414D01*
X149597000Y-97819313D01*
X149531586Y-97721414D01*
X149240436Y-97526873D01*
X148897001Y-97458560D01*
X148246999Y-97458560D01*
X147903564Y-97526873D01*
X147612414Y-97721414D01*
X147417873Y-98012564D01*
X147349560Y-98355999D01*
X147349560Y-99256001D01*
X147365593Y-99336605D01*
X146497199Y-100205000D01*
X145195026Y-100205000D01*
X145232327Y-100167699D01*
X145329000Y-99934310D01*
X145329000Y-99218750D01*
X145170250Y-99060000D01*
X144108500Y-99060000D01*
X144108500Y-99080000D01*
X143854500Y-99080000D01*
X143854500Y-99060000D01*
X142792750Y-99060000D01*
X142634000Y-99218750D01*
X142634000Y-99934310D01*
X142730673Y-100167699D01*
X142767974Y-100205000D01*
X142085007Y-100205000D01*
X142103586Y-100192586D01*
X142298126Y-99901435D01*
X142366440Y-99558000D01*
X142366440Y-98308000D01*
X142298126Y-97964565D01*
X142276160Y-97931690D01*
X142634000Y-97931690D01*
X142634000Y-98647250D01*
X142792750Y-98806000D01*
X143854500Y-98806000D01*
X143854500Y-97581750D01*
X144108500Y-97581750D01*
X144108500Y-98806000D01*
X145170250Y-98806000D01*
X145329000Y-98647250D01*
X145329000Y-97931690D01*
X145232327Y-97698301D01*
X145053698Y-97519673D01*
X144820309Y-97423000D01*
X144267250Y-97423000D01*
X144108500Y-97581750D01*
X143854500Y-97581750D01*
X143695750Y-97423000D01*
X143142691Y-97423000D01*
X142909302Y-97519673D01*
X142730673Y-97698301D01*
X142634000Y-97931690D01*
X142276160Y-97931690D01*
X142103586Y-97673414D01*
X141812435Y-97478874D01*
X141469000Y-97410560D01*
X140903362Y-97410560D01*
X140254000Y-96761198D01*
X140254000Y-96715017D01*
X140111655Y-96371365D01*
X139848635Y-96108345D01*
X139504983Y-95966000D01*
X139133017Y-95966000D01*
X138789365Y-96108345D01*
X138526345Y-96371365D01*
X138384000Y-96715017D01*
X138384000Y-97086983D01*
X138526345Y-97430635D01*
X138789365Y-97693655D01*
X139133017Y-97836000D01*
X139179198Y-97836000D01*
X139647329Y-98304132D01*
X139646560Y-98308000D01*
X139646560Y-99218138D01*
X138405699Y-100459000D01*
X135477000Y-100459000D01*
X135477000Y-93427606D01*
X138917827Y-89986779D01*
X149838001Y-89986779D01*
X149838001Y-90637223D01*
X150086915Y-91238154D01*
X150546848Y-91698087D01*
X151147779Y-91947001D01*
X151798223Y-91947001D01*
X152399154Y-91698087D01*
X152859087Y-91238154D01*
X153108001Y-90637223D01*
X153108001Y-89986779D01*
X152859087Y-89385848D01*
X152399154Y-88925915D01*
X151798223Y-88677001D01*
X151147779Y-88677001D01*
X150546848Y-88925915D01*
X150086915Y-89385848D01*
X149838001Y-89986779D01*
X138917827Y-89986779D01*
X140439803Y-88464803D01*
X140467333Y-88423601D01*
X140477000Y-88375000D01*
X140477000Y-76224533D01*
X150500074Y-76224533D01*
X150598737Y-76491388D01*
X151208462Y-76717909D01*
X151858461Y-76693857D01*
X152347265Y-76491388D01*
X152445928Y-76224533D01*
X151473001Y-75251606D01*
X150500074Y-76224533D01*
X140477000Y-76224533D01*
X140477000Y-74807462D01*
X149827093Y-74807462D01*
X149851145Y-75457461D01*
X150053614Y-75946265D01*
X150320469Y-76044928D01*
X151293396Y-75072001D01*
X151652606Y-75072001D01*
X152625533Y-76044928D01*
X152892388Y-75946265D01*
X153118909Y-75336540D01*
X153094857Y-74686541D01*
X152892388Y-74197737D01*
X152625533Y-74099074D01*
X151652606Y-75072001D01*
X151293396Y-75072001D01*
X150320469Y-74099074D01*
X150053614Y-74197737D01*
X149827093Y-74807462D01*
X140477000Y-74807462D01*
X140477000Y-73919469D01*
X150500074Y-73919469D01*
X151473001Y-74892396D01*
X152445928Y-73919469D01*
X152347265Y-73652614D01*
X151737540Y-73426093D01*
X151087541Y-73450145D01*
X150598737Y-73652614D01*
X150500074Y-73919469D01*
X140477000Y-73919469D01*
X140477000Y-73085000D01*
X160615001Y-73085000D01*
X160615000Y-93248000D01*
X160615000Y-93248000D01*
G37*
X160615000Y-93248000D02*
X159280290Y-93248000D01*
X159288655Y-93239635D01*
X159431000Y-92895983D01*
X159431000Y-92524017D01*
X159288655Y-92180365D01*
X159025635Y-91917345D01*
X158681983Y-91775000D01*
X158310017Y-91775000D01*
X157966365Y-91917345D01*
X157703345Y-92180365D01*
X157561000Y-92524017D01*
X157561000Y-92570199D01*
X157419199Y-92712000D01*
X153871847Y-92712000D01*
X153797000Y-92697112D01*
X153722153Y-92712000D01*
X153722148Y-92712000D01*
X153500463Y-92756096D01*
X153249071Y-92924071D01*
X153206671Y-92987527D01*
X152296530Y-93897669D01*
X152233071Y-93940071D01*
X152065096Y-94191464D01*
X152021000Y-94413149D01*
X152021000Y-94413153D01*
X152006112Y-94488000D01*
X152021000Y-94562847D01*
X152021001Y-98491197D01*
X151844440Y-98667758D01*
X151844440Y-98355999D01*
X151776127Y-98012564D01*
X151652599Y-97827691D01*
X151795655Y-97684635D01*
X151938000Y-97340983D01*
X151938000Y-96969017D01*
X151795655Y-96625365D01*
X151532635Y-96362345D01*
X151188983Y-96220000D01*
X150817017Y-96220000D01*
X150473365Y-96362345D01*
X150210345Y-96625365D01*
X150068000Y-96969017D01*
X150068000Y-96997158D01*
X150031672Y-97051527D01*
X150031671Y-97051528D01*
X149906097Y-97239463D01*
X149847112Y-97536000D01*
X149857998Y-97590728D01*
X149662414Y-97721414D01*
X149597000Y-97819313D01*
X149531586Y-97721414D01*
X149240436Y-97526873D01*
X148897001Y-97458560D01*
X148246999Y-97458560D01*
X147903564Y-97526873D01*
X147612414Y-97721414D01*
X147417873Y-98012564D01*
X147349560Y-98355999D01*
X147349560Y-99256001D01*
X147365593Y-99336605D01*
X146497199Y-100205000D01*
X145195026Y-100205000D01*
X145232327Y-100167699D01*
X145329000Y-99934310D01*
X145329000Y-99218750D01*
X145170250Y-99060000D01*
X144108500Y-99060000D01*
X144108500Y-99080000D01*
X143854500Y-99080000D01*
X143854500Y-99060000D01*
X142792750Y-99060000D01*
X142634000Y-99218750D01*
X142634000Y-99934310D01*
X142730673Y-100167699D01*
X142767974Y-100205000D01*
X142085007Y-100205000D01*
X142103586Y-100192586D01*
X142298126Y-99901435D01*
X142366440Y-99558000D01*
X142366440Y-98308000D01*
X142298126Y-97964565D01*
X142276160Y-97931690D01*
X142634000Y-97931690D01*
X142634000Y-98647250D01*
X142792750Y-98806000D01*
X143854500Y-98806000D01*
X143854500Y-97581750D01*
X144108500Y-97581750D01*
X144108500Y-98806000D01*
X145170250Y-98806000D01*
X145329000Y-98647250D01*
X145329000Y-97931690D01*
X145232327Y-97698301D01*
X145053698Y-97519673D01*
X144820309Y-97423000D01*
X144267250Y-97423000D01*
X144108500Y-97581750D01*
X143854500Y-97581750D01*
X143695750Y-97423000D01*
X143142691Y-97423000D01*
X142909302Y-97519673D01*
X142730673Y-97698301D01*
X142634000Y-97931690D01*
X142276160Y-97931690D01*
X142103586Y-97673414D01*
X141812435Y-97478874D01*
X141469000Y-97410560D01*
X140903362Y-97410560D01*
X140254000Y-96761198D01*
X140254000Y-96715017D01*
X140111655Y-96371365D01*
X139848635Y-96108345D01*
X139504983Y-95966000D01*
X139133017Y-95966000D01*
X138789365Y-96108345D01*
X138526345Y-96371365D01*
X138384000Y-96715017D01*
X138384000Y-97086983D01*
X138526345Y-97430635D01*
X138789365Y-97693655D01*
X139133017Y-97836000D01*
X139179198Y-97836000D01*
X139647329Y-98304132D01*
X139646560Y-98308000D01*
X139646560Y-99218138D01*
X138405699Y-100459000D01*
X135477000Y-100459000D01*
X135477000Y-93427606D01*
X138917827Y-89986779D01*
X149838001Y-89986779D01*
X149838001Y-90637223D01*
X150086915Y-91238154D01*
X150546848Y-91698087D01*
X151147779Y-91947001D01*
X151798223Y-91947001D01*
X152399154Y-91698087D01*
X152859087Y-91238154D01*
X153108001Y-90637223D01*
X153108001Y-89986779D01*
X152859087Y-89385848D01*
X152399154Y-88925915D01*
X151798223Y-88677001D01*
X151147779Y-88677001D01*
X150546848Y-88925915D01*
X150086915Y-89385848D01*
X149838001Y-89986779D01*
X138917827Y-89986779D01*
X140439803Y-88464803D01*
X140467333Y-88423601D01*
X140477000Y-88375000D01*
X140477000Y-76224533D01*
X150500074Y-76224533D01*
X150598737Y-76491388D01*
X151208462Y-76717909D01*
X151858461Y-76693857D01*
X152347265Y-76491388D01*
X152445928Y-76224533D01*
X151473001Y-75251606D01*
X150500074Y-76224533D01*
X140477000Y-76224533D01*
X140477000Y-74807462D01*
X149827093Y-74807462D01*
X149851145Y-75457461D01*
X150053614Y-75946265D01*
X150320469Y-76044928D01*
X151293396Y-75072001D01*
X151652606Y-75072001D01*
X152625533Y-76044928D01*
X152892388Y-75946265D01*
X153118909Y-75336540D01*
X153094857Y-74686541D01*
X152892388Y-74197737D01*
X152625533Y-74099074D01*
X151652606Y-75072001D01*
X151293396Y-75072001D01*
X150320469Y-74099074D01*
X150053614Y-74197737D01*
X149827093Y-74807462D01*
X140477000Y-74807462D01*
X140477000Y-73919469D01*
X150500074Y-73919469D01*
X151473001Y-74892396D01*
X152445928Y-73919469D01*
X152347265Y-73652614D01*
X151737540Y-73426093D01*
X151087541Y-73450145D01*
X150598737Y-73652614D01*
X150500074Y-73919469D01*
X140477000Y-73919469D01*
X140477000Y-73085000D01*
X160615001Y-73085000D01*
X160615000Y-93248000D01*
G04 #@! TD*
M02*
