G04 #@! TF.GenerationSoftware,KiCad,Pcbnew,5.0.2-bee76a0~70~ubuntu18.04.1*
G04 #@! TF.CreationDate,2019-03-11T17:22:41+01:00*
G04 #@! TF.ProjectId,FilPilote,46696c50-696c-46f7-9465-2e6b69636164,rev?*
G04 #@! TF.SameCoordinates,Original*
G04 #@! TF.FileFunction,Soldermask,Top*
G04 #@! TF.FilePolarity,Negative*
%FSLAX46Y46*%
G04 Gerber Fmt 4.6, Leading zero omitted, Abs format (unit mm)*
G04 Created by KiCad (PCBNEW 5.0.2-bee76a0~70~ubuntu18.04.1) date lun. 11 mars 2019 17:22:41 CET*
%MOMM*%
%LPD*%
G01*
G04 APERTURE LIST*
%ADD10C,0.100000*%
G04 APERTURE END LIST*
D10*
G36*
X149322000Y-111392000D02*
X147922000Y-111392000D01*
X147922000Y-108492000D01*
X149322000Y-108492000D01*
X149322000Y-111392000D01*
X149322000Y-111392000D01*
G37*
G36*
X147322000Y-111392000D02*
X145922000Y-111392000D01*
X145922000Y-108492000D01*
X147322000Y-108492000D01*
X147322000Y-111392000D01*
X147322000Y-111392000D01*
G37*
G36*
X145322000Y-111392000D02*
X143922000Y-111392000D01*
X143922000Y-108492000D01*
X145322000Y-108492000D01*
X145322000Y-111392000D01*
X145322000Y-111392000D01*
G37*
G36*
X143322000Y-111392000D02*
X141922000Y-111392000D01*
X141922000Y-108492000D01*
X143322000Y-108492000D01*
X143322000Y-111392000D01*
X143322000Y-111392000D01*
G37*
G36*
X141322000Y-111392000D02*
X139922000Y-111392000D01*
X139922000Y-108492000D01*
X141322000Y-108492000D01*
X141322000Y-111392000D01*
X141322000Y-111392000D01*
G37*
G36*
X139322000Y-111392000D02*
X137922000Y-111392000D01*
X137922000Y-108492000D01*
X139322000Y-108492000D01*
X139322000Y-111392000D01*
X139322000Y-111392000D01*
G37*
G36*
X153322000Y-111392000D02*
X151922000Y-111392000D01*
X151922000Y-108492000D01*
X153322000Y-108492000D01*
X153322000Y-111392000D01*
X153322000Y-111392000D01*
G37*
G36*
X151322000Y-111392000D02*
X149922000Y-111392000D01*
X149922000Y-108492000D01*
X151322000Y-108492000D01*
X151322000Y-111392000D01*
X151322000Y-111392000D01*
G37*
G36*
X133986707Y-107796596D02*
X134063836Y-107804193D01*
X134158243Y-107832831D01*
X134261763Y-107864233D01*
X134444172Y-107961733D01*
X134604054Y-108092946D01*
X134735267Y-108252828D01*
X134832767Y-108435237D01*
X134832767Y-108435238D01*
X134892807Y-108633164D01*
X134913080Y-108839000D01*
X134892807Y-109044836D01*
X134852780Y-109176787D01*
X134832767Y-109242763D01*
X134735267Y-109425172D01*
X134604054Y-109585054D01*
X134444172Y-109716267D01*
X134261763Y-109813767D01*
X134195787Y-109833780D01*
X134063836Y-109873807D01*
X133986707Y-109881404D01*
X133909580Y-109889000D01*
X133806420Y-109889000D01*
X133729293Y-109881404D01*
X133652164Y-109873807D01*
X133520213Y-109833780D01*
X133454237Y-109813767D01*
X133271828Y-109716267D01*
X133111946Y-109585054D01*
X132980733Y-109425172D01*
X132883233Y-109242763D01*
X132863220Y-109176787D01*
X132823193Y-109044836D01*
X132802920Y-108839000D01*
X132823193Y-108633164D01*
X132883233Y-108435238D01*
X132883233Y-108435237D01*
X132980733Y-108252828D01*
X133111946Y-108092946D01*
X133271828Y-107961733D01*
X133454237Y-107864233D01*
X133557757Y-107832831D01*
X133652164Y-107804193D01*
X133729293Y-107796596D01*
X133806420Y-107789000D01*
X133909580Y-107789000D01*
X133986707Y-107796596D01*
X133986707Y-107796596D01*
G37*
G36*
X116257530Y-107817710D02*
X116307379Y-107832831D01*
X116353311Y-107857382D01*
X116393574Y-107890426D01*
X116426618Y-107930689D01*
X116451169Y-107976621D01*
X116466290Y-108026470D01*
X116472000Y-108084444D01*
X116472000Y-109339556D01*
X116466290Y-109397530D01*
X116451169Y-109447379D01*
X116426618Y-109493311D01*
X116393574Y-109533574D01*
X116353311Y-109566618D01*
X116307379Y-109591169D01*
X116257530Y-109606290D01*
X116199556Y-109612000D01*
X115194444Y-109612000D01*
X115136470Y-109606290D01*
X115086621Y-109591169D01*
X115040689Y-109566618D01*
X115000426Y-109533574D01*
X114967382Y-109493311D01*
X114942831Y-109447379D01*
X114927710Y-109397530D01*
X114922000Y-109339556D01*
X114922000Y-108084444D01*
X114927710Y-108026470D01*
X114942831Y-107976621D01*
X114967382Y-107930689D01*
X115000426Y-107890426D01*
X115040689Y-107857382D01*
X115086621Y-107832831D01*
X115136470Y-107817710D01*
X115194444Y-107812000D01*
X116199556Y-107812000D01*
X116257530Y-107817710D01*
X116257530Y-107817710D01*
G37*
G36*
X114207530Y-107817710D02*
X114257379Y-107832831D01*
X114303311Y-107857382D01*
X114343574Y-107890426D01*
X114376618Y-107930689D01*
X114401169Y-107976621D01*
X114416290Y-108026470D01*
X114422000Y-108084444D01*
X114422000Y-109339556D01*
X114416290Y-109397530D01*
X114401169Y-109447379D01*
X114376618Y-109493311D01*
X114343574Y-109533574D01*
X114303311Y-109566618D01*
X114257379Y-109591169D01*
X114207530Y-109606290D01*
X114149556Y-109612000D01*
X113144444Y-109612000D01*
X113086470Y-109606290D01*
X113036621Y-109591169D01*
X112990689Y-109566618D01*
X112950426Y-109533574D01*
X112917382Y-109493311D01*
X112892831Y-109447379D01*
X112877710Y-109397530D01*
X112872000Y-109339556D01*
X112872000Y-108084444D01*
X112877710Y-108026470D01*
X112892831Y-107976621D01*
X112917382Y-107930689D01*
X112950426Y-107890426D01*
X112990689Y-107857382D01*
X113036621Y-107832831D01*
X113086470Y-107817710D01*
X113144444Y-107812000D01*
X114149556Y-107812000D01*
X114207530Y-107817710D01*
X114207530Y-107817710D01*
G37*
G36*
X124113530Y-107817710D02*
X124163379Y-107832831D01*
X124209311Y-107857382D01*
X124249574Y-107890426D01*
X124282618Y-107930689D01*
X124307169Y-107976621D01*
X124322290Y-108026470D01*
X124328000Y-108084444D01*
X124328000Y-109339556D01*
X124322290Y-109397530D01*
X124307169Y-109447379D01*
X124282618Y-109493311D01*
X124249574Y-109533574D01*
X124209311Y-109566618D01*
X124163379Y-109591169D01*
X124113530Y-109606290D01*
X124055556Y-109612000D01*
X123050444Y-109612000D01*
X122992470Y-109606290D01*
X122942621Y-109591169D01*
X122896689Y-109566618D01*
X122856426Y-109533574D01*
X122823382Y-109493311D01*
X122798831Y-109447379D01*
X122783710Y-109397530D01*
X122778000Y-109339556D01*
X122778000Y-108084444D01*
X122783710Y-108026470D01*
X122798831Y-107976621D01*
X122823382Y-107930689D01*
X122856426Y-107890426D01*
X122896689Y-107857382D01*
X122942621Y-107832831D01*
X122992470Y-107817710D01*
X123050444Y-107812000D01*
X124055556Y-107812000D01*
X124113530Y-107817710D01*
X124113530Y-107817710D01*
G37*
G36*
X126163530Y-107817710D02*
X126213379Y-107832831D01*
X126259311Y-107857382D01*
X126299574Y-107890426D01*
X126332618Y-107930689D01*
X126357169Y-107976621D01*
X126372290Y-108026470D01*
X126378000Y-108084444D01*
X126378000Y-109339556D01*
X126372290Y-109397530D01*
X126357169Y-109447379D01*
X126332618Y-109493311D01*
X126299574Y-109533574D01*
X126259311Y-109566618D01*
X126213379Y-109591169D01*
X126163530Y-109606290D01*
X126105556Y-109612000D01*
X125100444Y-109612000D01*
X125042470Y-109606290D01*
X124992621Y-109591169D01*
X124946689Y-109566618D01*
X124906426Y-109533574D01*
X124873382Y-109493311D01*
X124848831Y-109447379D01*
X124833710Y-109397530D01*
X124828000Y-109339556D01*
X124828000Y-108084444D01*
X124833710Y-108026470D01*
X124848831Y-107976621D01*
X124873382Y-107930689D01*
X124906426Y-107890426D01*
X124946689Y-107857382D01*
X124992621Y-107832831D01*
X125042470Y-107817710D01*
X125100444Y-107812000D01*
X126105556Y-107812000D01*
X126163530Y-107817710D01*
X126163530Y-107817710D01*
G37*
G36*
X138222000Y-108042000D02*
X136022000Y-108042000D01*
X136022000Y-106642000D01*
X138222000Y-106642000D01*
X138222000Y-108042000D01*
X138222000Y-108042000D01*
G37*
G36*
X133986707Y-105256596D02*
X134063836Y-105264193D01*
X134195787Y-105304220D01*
X134261763Y-105324233D01*
X134444172Y-105421733D01*
X134604054Y-105552946D01*
X134735267Y-105712828D01*
X134832767Y-105895237D01*
X134832767Y-105895238D01*
X134892807Y-106093164D01*
X134913080Y-106299000D01*
X134892807Y-106504836D01*
X134857187Y-106622260D01*
X134832767Y-106702763D01*
X134735267Y-106885172D01*
X134604054Y-107045054D01*
X134444172Y-107176267D01*
X134261763Y-107273767D01*
X134195787Y-107293780D01*
X134063836Y-107333807D01*
X133986707Y-107341403D01*
X133909580Y-107349000D01*
X133806420Y-107349000D01*
X133729293Y-107341403D01*
X133652164Y-107333807D01*
X133520213Y-107293780D01*
X133454237Y-107273767D01*
X133271828Y-107176267D01*
X133111946Y-107045054D01*
X132980733Y-106885172D01*
X132883233Y-106702763D01*
X132858813Y-106622260D01*
X132823193Y-106504836D01*
X132802920Y-106299000D01*
X132823193Y-106093164D01*
X132883233Y-105895238D01*
X132883233Y-105895237D01*
X132980733Y-105712828D01*
X133111946Y-105552946D01*
X133271828Y-105421733D01*
X133454237Y-105324233D01*
X133520213Y-105304220D01*
X133652164Y-105264193D01*
X133729293Y-105256596D01*
X133806420Y-105249000D01*
X133909580Y-105249000D01*
X133986707Y-105256596D01*
X133986707Y-105256596D01*
G37*
G36*
X119195029Y-104405469D02*
X119195032Y-104405470D01*
X119195033Y-104405470D01*
X119383534Y-104462651D01*
X119383536Y-104462652D01*
X119383539Y-104462653D01*
X119557258Y-104555507D01*
X119709528Y-104680472D01*
X119834491Y-104832740D01*
X119834492Y-104832742D01*
X119927349Y-105006465D01*
X119984530Y-105194966D01*
X119984531Y-105194970D01*
X119999000Y-105341876D01*
X119999000Y-106240123D01*
X119984531Y-106387031D01*
X119927349Y-106575536D01*
X119834491Y-106749260D01*
X119709528Y-106901528D01*
X119557260Y-107026491D01*
X119557258Y-107026492D01*
X119383535Y-107119349D01*
X119195034Y-107176530D01*
X119195033Y-107176530D01*
X119195030Y-107176531D01*
X118999000Y-107195838D01*
X118802971Y-107176531D01*
X118802968Y-107176530D01*
X118802967Y-107176530D01*
X118614466Y-107119349D01*
X118440743Y-107026492D01*
X118440741Y-107026491D01*
X118288473Y-106901528D01*
X118163510Y-106749260D01*
X118070651Y-106575533D01*
X118013469Y-106387035D01*
X117999000Y-106240124D01*
X117999000Y-105341877D01*
X118013469Y-105194971D01*
X118013470Y-105194967D01*
X118070651Y-105006466D01*
X118070652Y-105006464D01*
X118070653Y-105006461D01*
X118163507Y-104832742D01*
X118288472Y-104680472D01*
X118440740Y-104555509D01*
X118614463Y-104462652D01*
X118614465Y-104462651D01*
X118802966Y-104405470D01*
X118802967Y-104405470D01*
X118802970Y-104405469D01*
X118999000Y-104386162D01*
X119195029Y-104405469D01*
X119195029Y-104405469D01*
G37*
G36*
X116655029Y-104405469D02*
X116655032Y-104405470D01*
X116655033Y-104405470D01*
X116843534Y-104462651D01*
X116843536Y-104462652D01*
X116843539Y-104462653D01*
X117017258Y-104555507D01*
X117169528Y-104680472D01*
X117294491Y-104832740D01*
X117294492Y-104832742D01*
X117387349Y-105006465D01*
X117444530Y-105194966D01*
X117444531Y-105194970D01*
X117459000Y-105341876D01*
X117459000Y-106240123D01*
X117444531Y-106387031D01*
X117387349Y-106575536D01*
X117294491Y-106749260D01*
X117169528Y-106901528D01*
X117017260Y-107026491D01*
X117017258Y-107026492D01*
X116843535Y-107119349D01*
X116655034Y-107176530D01*
X116655033Y-107176530D01*
X116655030Y-107176531D01*
X116459000Y-107195838D01*
X116262971Y-107176531D01*
X116262968Y-107176530D01*
X116262967Y-107176530D01*
X116074466Y-107119349D01*
X115900743Y-107026492D01*
X115900741Y-107026491D01*
X115748473Y-106901528D01*
X115623510Y-106749260D01*
X115530651Y-106575533D01*
X115473469Y-106387035D01*
X115459000Y-106240124D01*
X115459000Y-105341877D01*
X115473469Y-105194971D01*
X115473470Y-105194967D01*
X115530651Y-105006466D01*
X115530652Y-105006464D01*
X115530653Y-105006461D01*
X115623507Y-104832742D01*
X115748472Y-104680472D01*
X115900740Y-104555509D01*
X116074463Y-104462652D01*
X116074465Y-104462651D01*
X116262966Y-104405470D01*
X116262967Y-104405470D01*
X116262970Y-104405469D01*
X116459000Y-104386162D01*
X116655029Y-104405469D01*
X116655029Y-104405469D01*
G37*
G36*
X114919000Y-107191000D02*
X112919000Y-107191000D01*
X112919000Y-104391000D01*
X114919000Y-104391000D01*
X114919000Y-107191000D01*
X114919000Y-107191000D01*
G37*
G36*
X126307029Y-104278469D02*
X126307032Y-104278470D01*
X126307033Y-104278470D01*
X126495534Y-104335651D01*
X126495536Y-104335652D01*
X126495539Y-104335653D01*
X126669258Y-104428507D01*
X126821528Y-104553472D01*
X126946491Y-104705740D01*
X126946492Y-104705742D01*
X127039349Y-104879465D01*
X127077873Y-105006463D01*
X127096531Y-105067970D01*
X127111000Y-105214876D01*
X127111000Y-106113123D01*
X127096531Y-106260031D01*
X127039349Y-106448536D01*
X126946491Y-106622260D01*
X126821528Y-106774528D01*
X126669260Y-106899491D01*
X126669258Y-106899492D01*
X126495535Y-106992349D01*
X126307034Y-107049530D01*
X126307033Y-107049530D01*
X126307030Y-107049531D01*
X126111000Y-107068838D01*
X125914971Y-107049531D01*
X125914968Y-107049530D01*
X125914967Y-107049530D01*
X125726466Y-106992349D01*
X125552743Y-106899492D01*
X125552741Y-106899491D01*
X125400473Y-106774528D01*
X125275510Y-106622260D01*
X125212746Y-106504836D01*
X125182652Y-106448535D01*
X125182651Y-106448533D01*
X125125469Y-106260035D01*
X125111000Y-106113124D01*
X125111000Y-105214877D01*
X125125469Y-105067971D01*
X125125470Y-105067967D01*
X125182651Y-104879466D01*
X125182652Y-104879464D01*
X125182653Y-104879461D01*
X125275507Y-104705742D01*
X125400472Y-104553472D01*
X125552740Y-104428509D01*
X125726463Y-104335652D01*
X125726465Y-104335651D01*
X125914966Y-104278470D01*
X125914967Y-104278470D01*
X125914970Y-104278469D01*
X126111000Y-104259162D01*
X126307029Y-104278469D01*
X126307029Y-104278469D01*
G37*
G36*
X128847029Y-104278469D02*
X128847032Y-104278470D01*
X128847033Y-104278470D01*
X129035534Y-104335651D01*
X129035536Y-104335652D01*
X129035539Y-104335653D01*
X129209258Y-104428507D01*
X129361528Y-104553472D01*
X129486491Y-104705740D01*
X129486492Y-104705742D01*
X129579349Y-104879465D01*
X129617873Y-105006463D01*
X129636531Y-105067970D01*
X129651000Y-105214876D01*
X129651000Y-106113123D01*
X129636531Y-106260031D01*
X129579349Y-106448536D01*
X129486491Y-106622260D01*
X129361528Y-106774528D01*
X129209260Y-106899491D01*
X129209258Y-106899492D01*
X129035535Y-106992349D01*
X128847034Y-107049530D01*
X128847033Y-107049530D01*
X128847030Y-107049531D01*
X128651000Y-107068838D01*
X128454971Y-107049531D01*
X128454968Y-107049530D01*
X128454967Y-107049530D01*
X128266466Y-106992349D01*
X128092743Y-106899492D01*
X128092741Y-106899491D01*
X127940473Y-106774528D01*
X127815510Y-106622260D01*
X127752746Y-106504836D01*
X127722652Y-106448535D01*
X127722651Y-106448533D01*
X127665469Y-106260035D01*
X127651000Y-106113124D01*
X127651000Y-105214877D01*
X127665469Y-105067971D01*
X127665470Y-105067967D01*
X127722651Y-104879466D01*
X127722652Y-104879464D01*
X127722653Y-104879461D01*
X127815507Y-104705742D01*
X127940472Y-104553472D01*
X128092740Y-104428509D01*
X128266463Y-104335652D01*
X128266465Y-104335651D01*
X128454966Y-104278470D01*
X128454967Y-104278470D01*
X128454970Y-104278469D01*
X128651000Y-104259162D01*
X128847029Y-104278469D01*
X128847029Y-104278469D01*
G37*
G36*
X124571000Y-107064000D02*
X122571000Y-107064000D01*
X122571000Y-104264000D01*
X124571000Y-104264000D01*
X124571000Y-107064000D01*
X124571000Y-107064000D01*
G37*
G36*
X138222000Y-106042000D02*
X136022000Y-106042000D01*
X136022000Y-104642000D01*
X138222000Y-104642000D01*
X138222000Y-106042000D01*
X138222000Y-106042000D01*
G37*
G36*
X133986707Y-102716596D02*
X134063836Y-102724193D01*
X134195787Y-102764220D01*
X134261763Y-102784233D01*
X134444172Y-102881733D01*
X134604054Y-103012946D01*
X134735267Y-103172828D01*
X134832767Y-103355237D01*
X134832767Y-103355238D01*
X134892807Y-103553164D01*
X134913080Y-103759000D01*
X134892807Y-103964836D01*
X134852780Y-104096787D01*
X134832767Y-104162763D01*
X134735267Y-104345172D01*
X134604054Y-104505054D01*
X134444172Y-104636267D01*
X134261763Y-104733767D01*
X134195787Y-104753780D01*
X134063836Y-104793807D01*
X133986707Y-104801404D01*
X133909580Y-104809000D01*
X133806420Y-104809000D01*
X133729293Y-104801404D01*
X133652164Y-104793807D01*
X133520213Y-104753780D01*
X133454237Y-104733767D01*
X133271828Y-104636267D01*
X133111946Y-104505054D01*
X132980733Y-104345172D01*
X132883233Y-104162763D01*
X132863220Y-104096787D01*
X132823193Y-103964836D01*
X132802920Y-103759000D01*
X132823193Y-103553164D01*
X132883233Y-103355238D01*
X132883233Y-103355237D01*
X132980733Y-103172828D01*
X133111946Y-103012946D01*
X133271828Y-102881733D01*
X133454237Y-102784233D01*
X133520213Y-102764220D01*
X133652164Y-102724193D01*
X133729293Y-102716597D01*
X133806420Y-102709000D01*
X133909580Y-102709000D01*
X133986707Y-102716596D01*
X133986707Y-102716596D01*
G37*
G36*
X138222000Y-104042000D02*
X136022000Y-104042000D01*
X136022000Y-102642000D01*
X138222000Y-102642000D01*
X138222000Y-104042000D01*
X138222000Y-104042000D01*
G37*
G36*
X134908000Y-102269000D02*
X132808000Y-102269000D01*
X132808000Y-100169000D01*
X134908000Y-100169000D01*
X134908000Y-102269000D01*
X134908000Y-102269000D01*
G37*
G36*
X138222000Y-102042000D02*
X136022000Y-102042000D01*
X136022000Y-100642000D01*
X138222000Y-100642000D01*
X138222000Y-102042000D01*
X138222000Y-102042000D01*
G37*
G36*
X138222000Y-100042000D02*
X136022000Y-100042000D01*
X136022000Y-98642000D01*
X138222000Y-98642000D01*
X138222000Y-100042000D01*
X138222000Y-100042000D01*
G37*
G36*
X119195029Y-96785469D02*
X119195032Y-96785470D01*
X119195033Y-96785470D01*
X119383534Y-96842651D01*
X119383536Y-96842652D01*
X119383539Y-96842653D01*
X119557258Y-96935507D01*
X119709528Y-97060472D01*
X119834491Y-97212740D01*
X119834492Y-97212742D01*
X119927349Y-97386465D01*
X119984530Y-97574966D01*
X119984531Y-97574970D01*
X119999000Y-97721876D01*
X119999000Y-98620123D01*
X119984531Y-98767031D01*
X119927349Y-98955536D01*
X119834491Y-99129260D01*
X119709528Y-99281528D01*
X119557260Y-99406491D01*
X119557258Y-99406492D01*
X119383535Y-99499349D01*
X119195034Y-99556530D01*
X119195033Y-99556530D01*
X119195030Y-99556531D01*
X118999000Y-99575838D01*
X118802971Y-99556531D01*
X118802968Y-99556530D01*
X118802967Y-99556530D01*
X118614466Y-99499349D01*
X118440743Y-99406492D01*
X118440741Y-99406491D01*
X118288473Y-99281528D01*
X118163510Y-99129260D01*
X118070651Y-98955533D01*
X118013469Y-98767035D01*
X117999000Y-98620124D01*
X117999000Y-97721877D01*
X118013469Y-97574971D01*
X118013470Y-97574967D01*
X118070651Y-97386466D01*
X118070652Y-97386464D01*
X118070653Y-97386461D01*
X118163507Y-97212742D01*
X118288472Y-97060472D01*
X118440740Y-96935509D01*
X118614463Y-96842652D01*
X118614465Y-96842651D01*
X118802966Y-96785470D01*
X118802967Y-96785470D01*
X118802970Y-96785469D01*
X118999000Y-96766162D01*
X119195029Y-96785469D01*
X119195029Y-96785469D01*
G37*
G36*
X116655029Y-96785469D02*
X116655032Y-96785470D01*
X116655033Y-96785470D01*
X116843534Y-96842651D01*
X116843536Y-96842652D01*
X116843539Y-96842653D01*
X117017258Y-96935507D01*
X117169528Y-97060472D01*
X117294491Y-97212740D01*
X117294492Y-97212742D01*
X117387349Y-97386465D01*
X117444530Y-97574966D01*
X117444531Y-97574970D01*
X117459000Y-97721876D01*
X117459000Y-98620123D01*
X117444531Y-98767031D01*
X117387349Y-98955536D01*
X117294491Y-99129260D01*
X117169528Y-99281528D01*
X117017260Y-99406491D01*
X117017258Y-99406492D01*
X116843535Y-99499349D01*
X116655034Y-99556530D01*
X116655033Y-99556530D01*
X116655030Y-99556531D01*
X116459000Y-99575838D01*
X116262971Y-99556531D01*
X116262968Y-99556530D01*
X116262967Y-99556530D01*
X116074466Y-99499349D01*
X115900743Y-99406492D01*
X115900741Y-99406491D01*
X115748473Y-99281528D01*
X115623510Y-99129260D01*
X115530651Y-98955533D01*
X115473469Y-98767035D01*
X115459000Y-98620124D01*
X115459000Y-97721877D01*
X115473469Y-97574971D01*
X115473470Y-97574967D01*
X115530651Y-97386466D01*
X115530652Y-97386464D01*
X115530653Y-97386461D01*
X115623507Y-97212742D01*
X115748472Y-97060472D01*
X115900740Y-96935509D01*
X116074463Y-96842652D01*
X116074465Y-96842651D01*
X116262966Y-96785470D01*
X116262967Y-96785470D01*
X116262970Y-96785469D01*
X116459000Y-96766162D01*
X116655029Y-96785469D01*
X116655029Y-96785469D01*
G37*
G36*
X114115029Y-96785469D02*
X114115032Y-96785470D01*
X114115033Y-96785470D01*
X114303534Y-96842651D01*
X114303536Y-96842652D01*
X114303539Y-96842653D01*
X114477258Y-96935507D01*
X114629528Y-97060472D01*
X114754491Y-97212740D01*
X114754492Y-97212742D01*
X114847349Y-97386465D01*
X114904530Y-97574966D01*
X114904531Y-97574970D01*
X114919000Y-97721876D01*
X114919000Y-98620123D01*
X114904531Y-98767031D01*
X114847349Y-98955536D01*
X114754491Y-99129260D01*
X114629528Y-99281528D01*
X114477260Y-99406491D01*
X114477258Y-99406492D01*
X114303535Y-99499349D01*
X114115034Y-99556530D01*
X114115033Y-99556530D01*
X114115030Y-99556531D01*
X113919000Y-99575838D01*
X113722971Y-99556531D01*
X113722968Y-99556530D01*
X113722967Y-99556530D01*
X113534466Y-99499349D01*
X113360743Y-99406492D01*
X113360741Y-99406491D01*
X113208473Y-99281528D01*
X113083510Y-99129260D01*
X112990651Y-98955533D01*
X112933469Y-98767035D01*
X112919000Y-98620124D01*
X112919000Y-97721877D01*
X112933469Y-97574971D01*
X112933470Y-97574967D01*
X112990651Y-97386466D01*
X112990652Y-97386464D01*
X112990653Y-97386461D01*
X113083507Y-97212742D01*
X113208472Y-97060472D01*
X113360740Y-96935509D01*
X113534463Y-96842652D01*
X113534465Y-96842651D01*
X113722966Y-96785470D01*
X113722967Y-96785470D01*
X113722970Y-96785469D01*
X113919000Y-96766162D01*
X114115029Y-96785469D01*
X114115029Y-96785469D01*
G37*
G36*
X126307029Y-96658469D02*
X126307032Y-96658470D01*
X126307033Y-96658470D01*
X126495534Y-96715651D01*
X126495536Y-96715652D01*
X126495539Y-96715653D01*
X126669258Y-96808507D01*
X126821528Y-96933472D01*
X126946491Y-97085740D01*
X126946492Y-97085742D01*
X127039349Y-97259465D01*
X127077873Y-97386463D01*
X127096531Y-97447970D01*
X127111000Y-97594876D01*
X127111000Y-98493123D01*
X127096531Y-98640031D01*
X127039349Y-98828536D01*
X126946491Y-99002260D01*
X126821528Y-99154528D01*
X126669260Y-99279491D01*
X126669258Y-99279492D01*
X126495535Y-99372349D01*
X126307034Y-99429530D01*
X126307033Y-99429530D01*
X126307030Y-99429531D01*
X126111000Y-99448838D01*
X125914971Y-99429531D01*
X125914968Y-99429530D01*
X125914967Y-99429530D01*
X125726466Y-99372349D01*
X125552743Y-99279492D01*
X125552741Y-99279491D01*
X125400473Y-99154528D01*
X125275510Y-99002260D01*
X125182651Y-98828533D01*
X125125469Y-98640035D01*
X125111000Y-98493124D01*
X125111000Y-97594877D01*
X125125469Y-97447971D01*
X125125470Y-97447967D01*
X125182651Y-97259466D01*
X125182652Y-97259464D01*
X125182653Y-97259461D01*
X125275507Y-97085742D01*
X125400472Y-96933472D01*
X125552740Y-96808509D01*
X125726463Y-96715652D01*
X125726465Y-96715651D01*
X125914966Y-96658470D01*
X125914967Y-96658470D01*
X125914970Y-96658469D01*
X126111000Y-96639162D01*
X126307029Y-96658469D01*
X126307029Y-96658469D01*
G37*
G36*
X128847029Y-96658469D02*
X128847032Y-96658470D01*
X128847033Y-96658470D01*
X129035534Y-96715651D01*
X129035536Y-96715652D01*
X129035539Y-96715653D01*
X129209258Y-96808507D01*
X129361528Y-96933472D01*
X129486491Y-97085740D01*
X129486492Y-97085742D01*
X129579349Y-97259465D01*
X129617873Y-97386463D01*
X129636531Y-97447970D01*
X129651000Y-97594876D01*
X129651000Y-98493123D01*
X129636531Y-98640031D01*
X129579349Y-98828536D01*
X129486491Y-99002260D01*
X129361528Y-99154528D01*
X129209260Y-99279491D01*
X129209258Y-99279492D01*
X129035535Y-99372349D01*
X128847034Y-99429530D01*
X128847033Y-99429530D01*
X128847030Y-99429531D01*
X128651000Y-99448838D01*
X128454971Y-99429531D01*
X128454968Y-99429530D01*
X128454967Y-99429530D01*
X128266466Y-99372349D01*
X128092743Y-99279492D01*
X128092741Y-99279491D01*
X127940473Y-99154528D01*
X127815510Y-99002260D01*
X127722651Y-98828533D01*
X127665469Y-98640035D01*
X127651000Y-98493124D01*
X127651000Y-97594877D01*
X127665469Y-97447971D01*
X127665470Y-97447967D01*
X127722651Y-97259466D01*
X127722652Y-97259464D01*
X127722653Y-97259461D01*
X127815507Y-97085742D01*
X127940472Y-96933472D01*
X128092740Y-96808509D01*
X128266463Y-96715652D01*
X128266465Y-96715651D01*
X128454966Y-96658470D01*
X128454967Y-96658470D01*
X128454970Y-96658469D01*
X128651000Y-96639162D01*
X128847029Y-96658469D01*
X128847029Y-96658469D01*
G37*
G36*
X123767029Y-96658469D02*
X123767032Y-96658470D01*
X123767033Y-96658470D01*
X123955534Y-96715651D01*
X123955536Y-96715652D01*
X123955539Y-96715653D01*
X124129258Y-96808507D01*
X124281528Y-96933472D01*
X124406491Y-97085740D01*
X124406492Y-97085742D01*
X124499349Y-97259465D01*
X124537873Y-97386463D01*
X124556531Y-97447970D01*
X124571000Y-97594876D01*
X124571000Y-98493123D01*
X124556531Y-98640031D01*
X124499349Y-98828536D01*
X124406491Y-99002260D01*
X124281528Y-99154528D01*
X124129260Y-99279491D01*
X124129258Y-99279492D01*
X123955535Y-99372349D01*
X123767034Y-99429530D01*
X123767033Y-99429530D01*
X123767030Y-99429531D01*
X123571000Y-99448838D01*
X123374971Y-99429531D01*
X123374968Y-99429530D01*
X123374967Y-99429530D01*
X123186466Y-99372349D01*
X123012743Y-99279492D01*
X123012741Y-99279491D01*
X122860473Y-99154528D01*
X122735510Y-99002260D01*
X122642651Y-98828533D01*
X122585469Y-98640035D01*
X122571000Y-98493124D01*
X122571000Y-97594877D01*
X122585469Y-97447971D01*
X122585470Y-97447967D01*
X122642651Y-97259466D01*
X122642652Y-97259464D01*
X122642653Y-97259461D01*
X122735507Y-97085742D01*
X122860472Y-96933472D01*
X123012740Y-96808509D01*
X123186463Y-96715652D01*
X123186465Y-96715651D01*
X123374966Y-96658470D01*
X123374967Y-96658470D01*
X123374970Y-96658469D01*
X123571000Y-96639162D01*
X123767029Y-96658469D01*
X123767029Y-96658469D01*
G37*
G36*
X138222000Y-98042000D02*
X136022000Y-98042000D01*
X136022000Y-96642000D01*
X138222000Y-96642000D01*
X138222000Y-98042000D01*
X138222000Y-98042000D01*
G37*
G36*
X153322000Y-96192000D02*
X151922000Y-96192000D01*
X151922000Y-93292000D01*
X153322000Y-93292000D01*
X153322000Y-96192000D01*
X153322000Y-96192000D01*
G37*
G36*
X151322000Y-96192000D02*
X149922000Y-96192000D01*
X149922000Y-93292000D01*
X151322000Y-93292000D01*
X151322000Y-96192000D01*
X151322000Y-96192000D01*
G37*
G36*
X149322000Y-96192000D02*
X147922000Y-96192000D01*
X147922000Y-93292000D01*
X149322000Y-93292000D01*
X149322000Y-96192000D01*
X149322000Y-96192000D01*
G37*
G36*
X143322000Y-96192000D02*
X141922000Y-96192000D01*
X141922000Y-93292000D01*
X143322000Y-93292000D01*
X143322000Y-96192000D01*
X143322000Y-96192000D01*
G37*
G36*
X147322000Y-96192000D02*
X145922000Y-96192000D01*
X145922000Y-93292000D01*
X147322000Y-93292000D01*
X147322000Y-96192000D01*
X147322000Y-96192000D01*
G37*
G36*
X139322000Y-96192000D02*
X137922000Y-96192000D01*
X137922000Y-93292000D01*
X139322000Y-93292000D01*
X139322000Y-96192000D01*
X139322000Y-96192000D01*
G37*
G36*
X141322000Y-96192000D02*
X139922000Y-96192000D01*
X139922000Y-93292000D01*
X141322000Y-93292000D01*
X141322000Y-96192000D01*
X141322000Y-96192000D01*
G37*
G36*
X145322000Y-96192000D02*
X143922000Y-96192000D01*
X143922000Y-93292000D01*
X145322000Y-93292000D01*
X145322000Y-96192000D01*
X145322000Y-96192000D01*
G37*
G36*
X119647000Y-95923000D02*
X118347000Y-95923000D01*
X118347000Y-94323000D01*
X119647000Y-94323000D01*
X119647000Y-95923000D01*
X119647000Y-95923000D01*
G37*
G36*
X116347000Y-95923000D02*
X115047000Y-95923000D01*
X115047000Y-94323000D01*
X116347000Y-94323000D01*
X116347000Y-95923000D01*
X116347000Y-95923000D01*
G37*
G36*
X129299000Y-95796000D02*
X127999000Y-95796000D01*
X127999000Y-94196000D01*
X129299000Y-94196000D01*
X129299000Y-95796000D01*
X129299000Y-95796000D01*
G37*
G36*
X125999000Y-95796000D02*
X124699000Y-95796000D01*
X124699000Y-94196000D01*
X125999000Y-94196000D01*
X125999000Y-95796000D01*
X125999000Y-95796000D01*
G37*
G36*
X115321393Y-88640553D02*
X115430872Y-88662330D01*
X115740252Y-88790479D01*
X116018687Y-88976523D01*
X116255477Y-89213313D01*
X116441521Y-89491748D01*
X116569670Y-89801128D01*
X116635000Y-90129565D01*
X116635000Y-90464435D01*
X116569670Y-90792872D01*
X116441521Y-91102252D01*
X116255477Y-91380687D01*
X116018687Y-91617477D01*
X115740252Y-91803521D01*
X115430872Y-91931670D01*
X115321393Y-91953447D01*
X115102437Y-91997000D01*
X114767563Y-91997000D01*
X114548607Y-91953447D01*
X114439128Y-91931670D01*
X114129748Y-91803521D01*
X113851313Y-91617477D01*
X113614523Y-91380687D01*
X113428479Y-91102252D01*
X113300330Y-90792872D01*
X113235000Y-90464435D01*
X113235000Y-90129565D01*
X113300330Y-89801128D01*
X113428479Y-89491748D01*
X113614523Y-89213313D01*
X113851313Y-88976523D01*
X114129748Y-88790479D01*
X114439128Y-88662330D01*
X114548607Y-88640553D01*
X114767563Y-88597000D01*
X115102437Y-88597000D01*
X115321393Y-88640553D01*
X115321393Y-88640553D01*
G37*
G36*
X156720000Y-91618000D02*
X155320000Y-91618000D01*
X155320000Y-88468000D01*
X156720000Y-88468000D01*
X156720000Y-91618000D01*
X156720000Y-91618000D01*
G37*
G36*
X160720000Y-91618000D02*
X159320000Y-91618000D01*
X159320000Y-88468000D01*
X160720000Y-88468000D01*
X160720000Y-91618000D01*
X160720000Y-91618000D01*
G37*
G36*
X151823027Y-89158116D02*
X152041413Y-89248574D01*
X152237959Y-89379902D01*
X152405100Y-89547043D01*
X152536428Y-89743589D01*
X152626886Y-89961975D01*
X152673001Y-90193810D01*
X152673001Y-90430192D01*
X152626886Y-90662027D01*
X152536428Y-90880413D01*
X152405100Y-91076959D01*
X152237959Y-91244100D01*
X152041413Y-91375428D01*
X151823027Y-91465886D01*
X151591192Y-91512001D01*
X151354810Y-91512001D01*
X151122975Y-91465886D01*
X150904589Y-91375428D01*
X150708043Y-91244100D01*
X150540902Y-91076959D01*
X150409574Y-90880413D01*
X150319116Y-90662027D01*
X150273001Y-90430192D01*
X150273001Y-90193810D01*
X150319116Y-89961975D01*
X150409574Y-89743589D01*
X150540902Y-89547043D01*
X150708043Y-89379902D01*
X150904589Y-89248574D01*
X151122975Y-89158116D01*
X151354810Y-89112001D01*
X151591192Y-89112001D01*
X151823027Y-89158116D01*
X151823027Y-89158116D01*
G37*
G36*
X115321393Y-83560553D02*
X115430872Y-83582330D01*
X115740252Y-83710479D01*
X116018687Y-83896523D01*
X116255477Y-84133313D01*
X116441521Y-84411748D01*
X116569670Y-84721128D01*
X116635000Y-85049565D01*
X116635000Y-85384435D01*
X116569670Y-85712872D01*
X116441521Y-86022252D01*
X116255477Y-86300687D01*
X116018687Y-86537477D01*
X115740252Y-86723521D01*
X115430872Y-86851670D01*
X115321393Y-86873447D01*
X115102437Y-86917000D01*
X114767563Y-86917000D01*
X114548607Y-86873447D01*
X114439128Y-86851670D01*
X114129748Y-86723521D01*
X113851313Y-86537477D01*
X113614523Y-86300687D01*
X113428479Y-86022252D01*
X113300330Y-85712872D01*
X113235000Y-85384435D01*
X113235000Y-85049565D01*
X113300330Y-84721128D01*
X113428479Y-84411748D01*
X113614523Y-84133313D01*
X113851313Y-83896523D01*
X114129748Y-83710479D01*
X114439128Y-83582330D01*
X114548607Y-83560553D01*
X114767563Y-83517000D01*
X115102437Y-83517000D01*
X115321393Y-83560553D01*
X115321393Y-83560553D01*
G37*
G36*
X122359027Y-84078116D02*
X122577413Y-84168574D01*
X122773959Y-84299902D01*
X122941100Y-84467043D01*
X123072428Y-84663589D01*
X123162886Y-84881975D01*
X123209001Y-85113810D01*
X123209001Y-85350192D01*
X123162886Y-85582027D01*
X123072428Y-85800413D01*
X122941100Y-85996959D01*
X122773959Y-86164100D01*
X122577413Y-86295428D01*
X122359027Y-86385886D01*
X122127192Y-86432001D01*
X121890810Y-86432001D01*
X121658975Y-86385886D01*
X121440589Y-86295428D01*
X121244043Y-86164100D01*
X121076902Y-85996959D01*
X120945574Y-85800413D01*
X120855116Y-85582027D01*
X120809001Y-85350192D01*
X120809001Y-85113810D01*
X120855116Y-84881975D01*
X120945574Y-84663589D01*
X121076902Y-84467043D01*
X121244043Y-84299902D01*
X121440589Y-84168574D01*
X121658975Y-84078116D01*
X121890810Y-84032001D01*
X122127192Y-84032001D01*
X122359027Y-84078116D01*
X122359027Y-84078116D01*
G37*
G36*
X160720000Y-85858000D02*
X159320000Y-85858000D01*
X159320000Y-82708000D01*
X160720000Y-82708000D01*
X160720000Y-85858000D01*
X160720000Y-85858000D01*
G37*
G36*
X156720000Y-85858000D02*
X155320000Y-85858000D01*
X155320000Y-82708000D01*
X156720000Y-82708000D01*
X156720000Y-85858000D01*
X156720000Y-85858000D01*
G37*
G36*
X116635000Y-81837000D02*
X113235000Y-81837000D01*
X113235000Y-78437000D01*
X116635000Y-78437000D01*
X116635000Y-81837000D01*
X116635000Y-81837000D01*
G37*
G36*
X160688000Y-81671000D02*
X159288000Y-81671000D01*
X159288000Y-78521000D01*
X160688000Y-78521000D01*
X160688000Y-81671000D01*
X160688000Y-81671000D01*
G37*
G36*
X156688000Y-81671000D02*
X155288000Y-81671000D01*
X155288000Y-78521000D01*
X156688000Y-78521000D01*
X156688000Y-81671000D01*
X156688000Y-81671000D01*
G37*
G36*
X122359027Y-78998116D02*
X122577413Y-79088574D01*
X122773959Y-79219902D01*
X122941100Y-79387043D01*
X123072428Y-79583589D01*
X123162886Y-79801975D01*
X123209001Y-80033810D01*
X123209001Y-80270192D01*
X123162886Y-80502027D01*
X123072428Y-80720413D01*
X122941100Y-80916959D01*
X122773959Y-81084100D01*
X122577413Y-81215428D01*
X122359027Y-81305886D01*
X122127192Y-81352001D01*
X121890810Y-81352001D01*
X121658975Y-81305886D01*
X121440589Y-81215428D01*
X121244043Y-81084100D01*
X121076902Y-80916959D01*
X120945574Y-80720413D01*
X120855116Y-80502027D01*
X120809001Y-80270192D01*
X120809001Y-80033810D01*
X120855116Y-79801975D01*
X120945574Y-79583589D01*
X121076902Y-79387043D01*
X121244043Y-79219902D01*
X121440589Y-79088574D01*
X121658975Y-78998116D01*
X121890810Y-78952001D01*
X122127192Y-78952001D01*
X122359027Y-78998116D01*
X122359027Y-78998116D01*
G37*
G36*
X151823027Y-73918116D02*
X152041413Y-74008574D01*
X152237959Y-74139902D01*
X152405100Y-74307043D01*
X152536428Y-74503589D01*
X152626886Y-74721975D01*
X152673001Y-74953810D01*
X152673001Y-75190192D01*
X152626886Y-75422027D01*
X152536428Y-75640413D01*
X152405100Y-75836959D01*
X152237959Y-76004100D01*
X152041413Y-76135428D01*
X151823027Y-76225886D01*
X151591192Y-76272001D01*
X151354810Y-76272001D01*
X151122975Y-76225886D01*
X150904589Y-76135428D01*
X150708043Y-76004100D01*
X150540902Y-75836959D01*
X150409574Y-75640413D01*
X150319116Y-75422027D01*
X150273001Y-75190192D01*
X150273001Y-74953810D01*
X150319116Y-74721975D01*
X150409574Y-74503589D01*
X150540902Y-74307043D01*
X150708043Y-74139902D01*
X150904589Y-74008574D01*
X151122975Y-73918116D01*
X151354810Y-73872001D01*
X151591192Y-73872001D01*
X151823027Y-73918116D01*
X151823027Y-73918116D01*
G37*
G36*
X160688000Y-75911000D02*
X159288000Y-75911000D01*
X159288000Y-72761000D01*
X160688000Y-72761000D01*
X160688000Y-75911000D01*
X160688000Y-75911000D01*
G37*
G36*
X156688000Y-75911000D02*
X155288000Y-75911000D01*
X155288000Y-72761000D01*
X156688000Y-72761000D01*
X156688000Y-75911000D01*
X156688000Y-75911000D01*
G37*
M02*
