G04 #@! TF.GenerationSoftware,KiCad,Pcbnew,5.0.2-bee76a0~70~ubuntu18.04.1*
G04 #@! TF.CreationDate,2019-03-11T17:22:41+01:00*
G04 #@! TF.ProjectId,FilPilote,46696c50-696c-46f7-9465-2e6b69636164,rev?*
G04 #@! TF.SameCoordinates,Original*
G04 #@! TF.FileFunction,Copper,L1,Top*
G04 #@! TF.FilePolarity,Positive*
%FSLAX46Y46*%
G04 Gerber Fmt 4.6, Leading zero omitted, Abs format (unit mm)*
G04 Created by KiCad (PCBNEW 5.0.2-bee76a0~70~ubuntu18.04.1) date lun. 11 mars 2019 17:22:41 CET*
%MOMM*%
%LPD*%
G01*
G04 APERTURE LIST*
G04 #@! TA.AperFunction,SMDPad,CuDef*
%ADD10R,1.000000X2.750000*%
G04 #@! TD*
G04 #@! TA.AperFunction,SMDPad,CuDef*
%ADD11R,1.000000X2.500000*%
G04 #@! TD*
G04 #@! TA.AperFunction,SMDPad,CuDef*
%ADD12R,1.800000X1.000000*%
G04 #@! TD*
G04 #@! TA.AperFunction,ComponentPad*
%ADD13C,2.000000*%
G04 #@! TD*
G04 #@! TA.AperFunction,ComponentPad*
%ADD14R,1.700000X1.700000*%
G04 #@! TD*
G04 #@! TA.AperFunction,ComponentPad*
%ADD15O,1.700000X1.700000*%
G04 #@! TD*
G04 #@! TA.AperFunction,ComponentPad*
%ADD16R,3.000000X3.000000*%
G04 #@! TD*
G04 #@! TA.AperFunction,ComponentPad*
%ADD17C,3.000000*%
G04 #@! TD*
G04 #@! TA.AperFunction,Conductor*
%ADD18C,0.100000*%
G04 #@! TD*
G04 #@! TA.AperFunction,SMDPad,CuDef*
%ADD19C,1.150000*%
G04 #@! TD*
G04 #@! TA.AperFunction,ComponentPad*
%ADD20O,1.600000X2.400000*%
G04 #@! TD*
G04 #@! TA.AperFunction,ComponentPad*
%ADD21R,1.600000X2.400000*%
G04 #@! TD*
G04 #@! TA.AperFunction,SMDPad,CuDef*
%ADD22R,0.900000X1.200000*%
G04 #@! TD*
G04 #@! TA.AperFunction,ViaPad*
%ADD23C,0.600000*%
G04 #@! TD*
G04 #@! TA.AperFunction,Conductor*
%ADD24C,0.250000*%
G04 #@! TD*
G04 #@! TA.AperFunction,Conductor*
%ADD25C,1.000000*%
G04 #@! TD*
G04 #@! TA.AperFunction,Conductor*
%ADD26C,0.254000*%
G04 #@! TD*
G04 APERTURE END LIST*
D10*
G04 #@! TO.P,FLASH,2*
G04 #@! TO.N,/GND*
X156020000Y-90043000D03*
X156020000Y-84283000D03*
G04 #@! TO.P,FLASH,1*
G04 #@! TO.N,Net-(R8-Pad1)*
X160020000Y-84283000D03*
X160020000Y-90043000D03*
G04 #@! TD*
D11*
G04 #@! TO.P,U4,1*
G04 #@! TO.N,Net-(R7-Pad1)*
X152622000Y-94742000D03*
G04 #@! TO.P,U4,2*
G04 #@! TO.N,N/C*
X150622000Y-94742000D03*
G04 #@! TO.P,U4,3*
G04 #@! TO.N,/3V3*
X148622000Y-94742000D03*
G04 #@! TO.P,U4,4*
G04 #@! TO.N,N/C*
X146622000Y-94742000D03*
G04 #@! TO.P,U4,5*
X144622000Y-94742000D03*
G04 #@! TO.P,U4,6*
G04 #@! TO.N,/O1*
X142622000Y-94742000D03*
G04 #@! TO.P,U4,7*
G04 #@! TO.N,/O2*
X140622000Y-94742000D03*
G04 #@! TO.P,U4,8*
G04 #@! TO.N,/3V3*
X138622000Y-94742000D03*
D12*
G04 #@! TO.P,U4,9*
G04 #@! TO.N,N/C*
X137122000Y-97342000D03*
G04 #@! TO.P,U4,10*
X137122000Y-99342000D03*
G04 #@! TO.P,U4,11*
X137122000Y-101342000D03*
G04 #@! TO.P,U4,12*
X137122000Y-103342000D03*
G04 #@! TO.P,U4,13*
X137122000Y-105342000D03*
G04 #@! TO.P,U4,14*
X137122000Y-107342000D03*
D11*
G04 #@! TO.P,U4,15*
G04 #@! TO.N,/GND*
X138622000Y-109942000D03*
G04 #@! TO.P,U4,16*
X140622000Y-109942000D03*
G04 #@! TO.P,U4,17*
G04 #@! TO.N,Net-(R3-Pad1)*
X142622000Y-109942000D03*
G04 #@! TO.P,U4,18*
G04 #@! TO.N,Net-(R8-Pad1)*
X144622000Y-109942000D03*
G04 #@! TO.P,U4,19*
G04 #@! TO.N,N/C*
X146622000Y-109942000D03*
G04 #@! TO.P,U4,20*
X148622000Y-109942000D03*
G04 #@! TO.P,U4,21*
G04 #@! TO.N,/RXD*
X150622000Y-109942000D03*
G04 #@! TO.P,U4,22*
G04 #@! TO.N,/TXD*
X152622000Y-109942000D03*
G04 #@! TD*
D13*
G04 #@! TO.P,U5,1*
G04 #@! TO.N,/PH_IN*
X122009001Y-80152001D03*
G04 #@! TO.P,U5,2*
G04 #@! TO.N,/NEUTRE*
X122009001Y-85232001D03*
G04 #@! TO.P,U5,3*
G04 #@! TO.N,/GND*
X151473001Y-75072001D03*
G04 #@! TO.P,U5,4*
G04 #@! TO.N,/3V3*
X151473001Y-90312001D03*
G04 #@! TD*
D14*
G04 #@! TO.P,J1,1*
G04 #@! TO.N,/3V3*
X133858000Y-101219000D03*
D15*
G04 #@! TO.P,J1,2*
G04 #@! TO.N,/TXD*
X133858000Y-103759000D03*
G04 #@! TO.P,J1,3*
G04 #@! TO.N,/RXD*
X133858000Y-106299000D03*
G04 #@! TO.P,J1,4*
G04 #@! TO.N,/GND*
X133858000Y-108839000D03*
G04 #@! TD*
D16*
G04 #@! TO.P,P1,1*
G04 #@! TO.N,/PH_IN*
X114935000Y-80137000D03*
D17*
G04 #@! TO.P,P1,2*
G04 #@! TO.N,/NEUTRE*
X114935000Y-85217000D03*
G04 #@! TO.P,P1,3*
G04 #@! TO.N,/FP_OUT*
X114935000Y-90297000D03*
G04 #@! TD*
D18*
G04 #@! TO.N,/O1*
G04 #@! TO.C,R1*
G36*
X125952505Y-108013204D02*
X125976773Y-108016804D01*
X126000572Y-108022765D01*
X126023671Y-108031030D01*
X126045850Y-108041520D01*
X126066893Y-108054132D01*
X126086599Y-108068747D01*
X126104777Y-108085223D01*
X126121253Y-108103401D01*
X126135868Y-108123107D01*
X126148480Y-108144150D01*
X126158970Y-108166329D01*
X126167235Y-108189428D01*
X126173196Y-108213227D01*
X126176796Y-108237495D01*
X126178000Y-108261999D01*
X126178000Y-109162001D01*
X126176796Y-109186505D01*
X126173196Y-109210773D01*
X126167235Y-109234572D01*
X126158970Y-109257671D01*
X126148480Y-109279850D01*
X126135868Y-109300893D01*
X126121253Y-109320599D01*
X126104777Y-109338777D01*
X126086599Y-109355253D01*
X126066893Y-109369868D01*
X126045850Y-109382480D01*
X126023671Y-109392970D01*
X126000572Y-109401235D01*
X125976773Y-109407196D01*
X125952505Y-109410796D01*
X125928001Y-109412000D01*
X125277999Y-109412000D01*
X125253495Y-109410796D01*
X125229227Y-109407196D01*
X125205428Y-109401235D01*
X125182329Y-109392970D01*
X125160150Y-109382480D01*
X125139107Y-109369868D01*
X125119401Y-109355253D01*
X125101223Y-109338777D01*
X125084747Y-109320599D01*
X125070132Y-109300893D01*
X125057520Y-109279850D01*
X125047030Y-109257671D01*
X125038765Y-109234572D01*
X125032804Y-109210773D01*
X125029204Y-109186505D01*
X125028000Y-109162001D01*
X125028000Y-108261999D01*
X125029204Y-108237495D01*
X125032804Y-108213227D01*
X125038765Y-108189428D01*
X125047030Y-108166329D01*
X125057520Y-108144150D01*
X125070132Y-108123107D01*
X125084747Y-108103401D01*
X125101223Y-108085223D01*
X125119401Y-108068747D01*
X125139107Y-108054132D01*
X125160150Y-108041520D01*
X125182329Y-108031030D01*
X125205428Y-108022765D01*
X125229227Y-108016804D01*
X125253495Y-108013204D01*
X125277999Y-108012000D01*
X125928001Y-108012000D01*
X125952505Y-108013204D01*
X125952505Y-108013204D01*
G37*
D19*
G04 #@! TD*
G04 #@! TO.P,R1,2*
G04 #@! TO.N,/O1*
X125603000Y-108712000D03*
D18*
G04 #@! TO.N,Net-(R1-Pad1)*
G04 #@! TO.C,R1*
G36*
X123902505Y-108013204D02*
X123926773Y-108016804D01*
X123950572Y-108022765D01*
X123973671Y-108031030D01*
X123995850Y-108041520D01*
X124016893Y-108054132D01*
X124036599Y-108068747D01*
X124054777Y-108085223D01*
X124071253Y-108103401D01*
X124085868Y-108123107D01*
X124098480Y-108144150D01*
X124108970Y-108166329D01*
X124117235Y-108189428D01*
X124123196Y-108213227D01*
X124126796Y-108237495D01*
X124128000Y-108261999D01*
X124128000Y-109162001D01*
X124126796Y-109186505D01*
X124123196Y-109210773D01*
X124117235Y-109234572D01*
X124108970Y-109257671D01*
X124098480Y-109279850D01*
X124085868Y-109300893D01*
X124071253Y-109320599D01*
X124054777Y-109338777D01*
X124036599Y-109355253D01*
X124016893Y-109369868D01*
X123995850Y-109382480D01*
X123973671Y-109392970D01*
X123950572Y-109401235D01*
X123926773Y-109407196D01*
X123902505Y-109410796D01*
X123878001Y-109412000D01*
X123227999Y-109412000D01*
X123203495Y-109410796D01*
X123179227Y-109407196D01*
X123155428Y-109401235D01*
X123132329Y-109392970D01*
X123110150Y-109382480D01*
X123089107Y-109369868D01*
X123069401Y-109355253D01*
X123051223Y-109338777D01*
X123034747Y-109320599D01*
X123020132Y-109300893D01*
X123007520Y-109279850D01*
X122997030Y-109257671D01*
X122988765Y-109234572D01*
X122982804Y-109210773D01*
X122979204Y-109186505D01*
X122978000Y-109162001D01*
X122978000Y-108261999D01*
X122979204Y-108237495D01*
X122982804Y-108213227D01*
X122988765Y-108189428D01*
X122997030Y-108166329D01*
X123007520Y-108144150D01*
X123020132Y-108123107D01*
X123034747Y-108103401D01*
X123051223Y-108085223D01*
X123069401Y-108068747D01*
X123089107Y-108054132D01*
X123110150Y-108041520D01*
X123132329Y-108031030D01*
X123155428Y-108022765D01*
X123179227Y-108016804D01*
X123203495Y-108013204D01*
X123227999Y-108012000D01*
X123878001Y-108012000D01*
X123902505Y-108013204D01*
X123902505Y-108013204D01*
G37*
D19*
G04 #@! TD*
G04 #@! TO.P,R1,1*
G04 #@! TO.N,Net-(R1-Pad1)*
X123553000Y-108712000D03*
D18*
G04 #@! TO.N,Net-(R2-Pad1)*
G04 #@! TO.C,R2*
G36*
X113996505Y-108013204D02*
X114020773Y-108016804D01*
X114044572Y-108022765D01*
X114067671Y-108031030D01*
X114089850Y-108041520D01*
X114110893Y-108054132D01*
X114130599Y-108068747D01*
X114148777Y-108085223D01*
X114165253Y-108103401D01*
X114179868Y-108123107D01*
X114192480Y-108144150D01*
X114202970Y-108166329D01*
X114211235Y-108189428D01*
X114217196Y-108213227D01*
X114220796Y-108237495D01*
X114222000Y-108261999D01*
X114222000Y-109162001D01*
X114220796Y-109186505D01*
X114217196Y-109210773D01*
X114211235Y-109234572D01*
X114202970Y-109257671D01*
X114192480Y-109279850D01*
X114179868Y-109300893D01*
X114165253Y-109320599D01*
X114148777Y-109338777D01*
X114130599Y-109355253D01*
X114110893Y-109369868D01*
X114089850Y-109382480D01*
X114067671Y-109392970D01*
X114044572Y-109401235D01*
X114020773Y-109407196D01*
X113996505Y-109410796D01*
X113972001Y-109412000D01*
X113321999Y-109412000D01*
X113297495Y-109410796D01*
X113273227Y-109407196D01*
X113249428Y-109401235D01*
X113226329Y-109392970D01*
X113204150Y-109382480D01*
X113183107Y-109369868D01*
X113163401Y-109355253D01*
X113145223Y-109338777D01*
X113128747Y-109320599D01*
X113114132Y-109300893D01*
X113101520Y-109279850D01*
X113091030Y-109257671D01*
X113082765Y-109234572D01*
X113076804Y-109210773D01*
X113073204Y-109186505D01*
X113072000Y-109162001D01*
X113072000Y-108261999D01*
X113073204Y-108237495D01*
X113076804Y-108213227D01*
X113082765Y-108189428D01*
X113091030Y-108166329D01*
X113101520Y-108144150D01*
X113114132Y-108123107D01*
X113128747Y-108103401D01*
X113145223Y-108085223D01*
X113163401Y-108068747D01*
X113183107Y-108054132D01*
X113204150Y-108041520D01*
X113226329Y-108031030D01*
X113249428Y-108022765D01*
X113273227Y-108016804D01*
X113297495Y-108013204D01*
X113321999Y-108012000D01*
X113972001Y-108012000D01*
X113996505Y-108013204D01*
X113996505Y-108013204D01*
G37*
D19*
G04 #@! TD*
G04 #@! TO.P,R2,1*
G04 #@! TO.N,Net-(R2-Pad1)*
X113647000Y-108712000D03*
D18*
G04 #@! TO.N,/O2*
G04 #@! TO.C,R2*
G36*
X116046505Y-108013204D02*
X116070773Y-108016804D01*
X116094572Y-108022765D01*
X116117671Y-108031030D01*
X116139850Y-108041520D01*
X116160893Y-108054132D01*
X116180599Y-108068747D01*
X116198777Y-108085223D01*
X116215253Y-108103401D01*
X116229868Y-108123107D01*
X116242480Y-108144150D01*
X116252970Y-108166329D01*
X116261235Y-108189428D01*
X116267196Y-108213227D01*
X116270796Y-108237495D01*
X116272000Y-108261999D01*
X116272000Y-109162001D01*
X116270796Y-109186505D01*
X116267196Y-109210773D01*
X116261235Y-109234572D01*
X116252970Y-109257671D01*
X116242480Y-109279850D01*
X116229868Y-109300893D01*
X116215253Y-109320599D01*
X116198777Y-109338777D01*
X116180599Y-109355253D01*
X116160893Y-109369868D01*
X116139850Y-109382480D01*
X116117671Y-109392970D01*
X116094572Y-109401235D01*
X116070773Y-109407196D01*
X116046505Y-109410796D01*
X116022001Y-109412000D01*
X115371999Y-109412000D01*
X115347495Y-109410796D01*
X115323227Y-109407196D01*
X115299428Y-109401235D01*
X115276329Y-109392970D01*
X115254150Y-109382480D01*
X115233107Y-109369868D01*
X115213401Y-109355253D01*
X115195223Y-109338777D01*
X115178747Y-109320599D01*
X115164132Y-109300893D01*
X115151520Y-109279850D01*
X115141030Y-109257671D01*
X115132765Y-109234572D01*
X115126804Y-109210773D01*
X115123204Y-109186505D01*
X115122000Y-109162001D01*
X115122000Y-108261999D01*
X115123204Y-108237495D01*
X115126804Y-108213227D01*
X115132765Y-108189428D01*
X115141030Y-108166329D01*
X115151520Y-108144150D01*
X115164132Y-108123107D01*
X115178747Y-108103401D01*
X115195223Y-108085223D01*
X115213401Y-108068747D01*
X115233107Y-108054132D01*
X115254150Y-108041520D01*
X115276329Y-108031030D01*
X115299428Y-108022765D01*
X115323227Y-108016804D01*
X115347495Y-108013204D01*
X115371999Y-108012000D01*
X116022001Y-108012000D01*
X116046505Y-108013204D01*
X116046505Y-108013204D01*
G37*
D19*
G04 #@! TD*
G04 #@! TO.P,R2,2*
G04 #@! TO.N,/O2*
X115697000Y-108712000D03*
D10*
G04 #@! TO.P,RST,1*
G04 #@! TO.N,/GND*
X155988000Y-74336000D03*
X155988000Y-80096000D03*
G04 #@! TO.P,RST,2*
G04 #@! TO.N,Net-(R7-Pad1)*
X159988000Y-80096000D03*
X159988000Y-74336000D03*
G04 #@! TD*
D20*
G04 #@! TO.P,U1,6*
G04 #@! TO.N,/PH_IN*
X123571000Y-98044000D03*
G04 #@! TO.P,U1,3*
G04 #@! TO.N,N/C*
X128651000Y-105664000D03*
G04 #@! TO.P,U1,5*
X126111000Y-98044000D03*
G04 #@! TO.P,U1,2*
G04 #@! TO.N,/GND*
X126111000Y-105664000D03*
G04 #@! TO.P,U1,4*
G04 #@! TO.N,Net-(D1-Pad2)*
X128651000Y-98044000D03*
D21*
G04 #@! TO.P,U1,1*
G04 #@! TO.N,Net-(R1-Pad1)*
X123571000Y-105664000D03*
G04 #@! TD*
G04 #@! TO.P,U2,1*
G04 #@! TO.N,Net-(R2-Pad1)*
X113919000Y-105791000D03*
D20*
G04 #@! TO.P,U2,4*
G04 #@! TO.N,Net-(D2-Pad1)*
X118999000Y-98171000D03*
G04 #@! TO.P,U2,2*
G04 #@! TO.N,/GND*
X116459000Y-105791000D03*
G04 #@! TO.P,U2,5*
G04 #@! TO.N,N/C*
X116459000Y-98171000D03*
G04 #@! TO.P,U2,3*
X118999000Y-105791000D03*
G04 #@! TO.P,U2,6*
G04 #@! TO.N,/PH_IN*
X113919000Y-98171000D03*
G04 #@! TD*
D22*
G04 #@! TO.P,D1,2*
G04 #@! TO.N,Net-(D1-Pad2)*
X128649000Y-94996000D03*
G04 #@! TO.P,D1,1*
G04 #@! TO.N,/FP_OUT*
X125349000Y-94996000D03*
G04 #@! TD*
G04 #@! TO.P,D2,1*
G04 #@! TO.N,Net-(D2-Pad1)*
X118997000Y-95123000D03*
G04 #@! TO.P,D2,2*
G04 #@! TO.N,/FP_OUT*
X115697000Y-95123000D03*
G04 #@! TD*
D23*
G04 #@! TO.N,/3V3*
X139319000Y-96901000D03*
G04 #@! TO.N,/TXD*
X145978876Y-105499025D03*
G04 #@! TO.N,/RXD*
X145986500Y-106426006D03*
G04 #@! TO.N,/O1*
X141605000Y-107315000D03*
X127889000Y-111506000D03*
G04 #@! TO.N,/O2*
X125603000Y-110998000D03*
X140081000Y-107315000D03*
G04 #@! TO.N,Net-(R7-Pad1)*
X151003000Y-97155000D03*
G04 #@! TO.N,Net-(R8-Pad1)*
X146558000Y-103124000D03*
X158496000Y-92710000D03*
G04 #@! TO.N,Net-(R3-Pad1)*
X142621000Y-107569000D03*
G04 #@! TD*
D24*
G04 #@! TO.N,/3V3*
X138622000Y-94742000D02*
X138622000Y-96204000D01*
X138622000Y-96204000D02*
X139319000Y-96901000D01*
X148622000Y-94742000D02*
X148622000Y-93163002D01*
X148622000Y-93163002D02*
X151473001Y-90312001D01*
X141551999Y-90312001D02*
X150058788Y-90312001D01*
X150058788Y-90312001D02*
X151473001Y-90312001D01*
X138622000Y-93242000D02*
X141551999Y-90312001D01*
X138622000Y-94742000D02*
X138622000Y-93242000D01*
D25*
G04 #@! TO.N,Net-(D1-Pad2)*
X128651000Y-94998000D02*
X128649000Y-94996000D01*
X128651000Y-98044000D02*
X128651000Y-94998000D01*
G04 #@! TO.N,/FP_OUT*
X114935000Y-94361000D02*
X115697000Y-95123000D01*
X114935000Y-90297000D02*
X114935000Y-94361000D01*
X125349000Y-94846000D02*
X125349000Y-94996000D01*
X120800000Y-90297000D02*
X125349000Y-94846000D01*
X114935000Y-90297000D02*
X120800000Y-90297000D01*
G04 #@! TO.N,Net-(D2-Pad1)*
X118999000Y-95125000D02*
X118997000Y-95123000D01*
X118999000Y-98171000D02*
X118999000Y-95125000D01*
D24*
G04 #@! TO.N,Net-(R1-Pad1)*
X123571000Y-107658000D02*
X123571000Y-105664000D01*
X123571000Y-108458000D02*
X123571000Y-107658000D01*
G04 #@! TO.N,Net-(R2-Pad1)*
X113647000Y-106063000D02*
X113919000Y-105791000D01*
X113647000Y-108712000D02*
X113647000Y-106063000D01*
G04 #@! TO.N,/TXD*
X146403140Y-105499025D02*
X145978876Y-105499025D01*
X152622000Y-109942000D02*
X152622000Y-109192000D01*
X148929025Y-105499025D02*
X146403140Y-105499025D01*
X152622000Y-109192000D02*
X148929025Y-105499025D01*
G04 #@! TO.N,/RXD*
X147856006Y-106426006D02*
X146410764Y-106426006D01*
X150622000Y-109942000D02*
X150622000Y-109192000D01*
X150622000Y-109192000D02*
X147856006Y-106426006D01*
X146410764Y-106426006D02*
X145986500Y-106426006D01*
G04 #@! TO.N,/O1*
X125748000Y-108585000D02*
X125621000Y-108458000D01*
X142622000Y-94742000D02*
X142622000Y-106298000D01*
X142622000Y-106298000D02*
X141605000Y-107315000D01*
X125603000Y-109220000D02*
X125603000Y-108712000D01*
X127889000Y-111506000D02*
X125603000Y-109220000D01*
G04 #@! TO.N,/O2*
X115697000Y-108712000D02*
X117983000Y-110998000D01*
X117983000Y-110998000D02*
X125603000Y-110998000D01*
X140622000Y-97376000D02*
X140622000Y-94742000D01*
X140081000Y-107315000D02*
X140622000Y-106774000D01*
X140622000Y-106774000D02*
X140622000Y-97376000D01*
G04 #@! TO.N,Net-(R7-Pad1)*
X159988000Y-74336000D02*
X159988000Y-80096000D01*
X152622000Y-93992000D02*
X152622000Y-94742000D01*
X159988000Y-81721000D02*
X157988000Y-83721000D01*
X159988000Y-80096000D02*
X159988000Y-81721000D01*
X157988000Y-83721000D02*
X157988000Y-90805000D01*
X157988000Y-90805000D02*
X156591000Y-92202000D01*
X156591000Y-92202000D02*
X154412000Y-92202000D01*
X154412000Y-92202000D02*
X152622000Y-93992000D01*
X151003000Y-97111000D02*
X151003000Y-97155000D01*
X152622000Y-95492000D02*
X151003000Y-97111000D01*
X152622000Y-94742000D02*
X152622000Y-95492000D01*
G04 #@! TO.N,Net-(R8-Pad1)*
X160020000Y-85908000D02*
X160020000Y-90043000D01*
X160020000Y-84283000D02*
X160020000Y-85908000D01*
X146258001Y-103423999D02*
X146558000Y-103124000D01*
X144622000Y-105060000D02*
X146258001Y-103423999D01*
X144622000Y-109942000D02*
X144622000Y-105060000D01*
X158496000Y-92442000D02*
X158496000Y-92710000D01*
X160020000Y-90043000D02*
X160020000Y-90918000D01*
X160020000Y-90918000D02*
X158496000Y-92442000D01*
G04 #@! TO.N,Net-(R3-Pad1)*
X142621000Y-109941000D02*
X142622000Y-109942000D01*
X142621000Y-107569000D02*
X142621000Y-109941000D01*
G04 #@! TD*
D26*
G04 #@! TO.N,/GND*
G36*
X154853000Y-74050250D02*
X155011750Y-74209000D01*
X155861000Y-74209000D01*
X155861000Y-74189000D01*
X156115000Y-74189000D01*
X156115000Y-74209000D01*
X156964250Y-74209000D01*
X157123000Y-74050250D01*
X157123000Y-73085000D01*
X158840560Y-73085000D01*
X158840560Y-75711000D01*
X158889843Y-75958765D01*
X159030191Y-76168809D01*
X159228000Y-76300982D01*
X159228001Y-78131018D01*
X159030191Y-78263191D01*
X158889843Y-78473235D01*
X158840560Y-78721000D01*
X158840560Y-81471000D01*
X158889843Y-81718765D01*
X158900093Y-81734105D01*
X157503530Y-83130669D01*
X157440071Y-83173071D01*
X157272096Y-83424464D01*
X157228000Y-83646149D01*
X157228000Y-83646153D01*
X157213112Y-83721000D01*
X157228000Y-83795847D01*
X157228001Y-90490196D01*
X157155000Y-90563197D01*
X157155000Y-90328750D01*
X156996250Y-90170000D01*
X156147000Y-90170000D01*
X156147000Y-90190000D01*
X155893000Y-90190000D01*
X155893000Y-90170000D01*
X155043750Y-90170000D01*
X154885000Y-90328750D01*
X154885000Y-91442000D01*
X154486846Y-91442000D01*
X154411999Y-91427112D01*
X154337152Y-91442000D01*
X154337148Y-91442000D01*
X154115463Y-91486096D01*
X153864071Y-91654071D01*
X153821671Y-91717527D01*
X152694639Y-92844560D01*
X152122000Y-92844560D01*
X151874235Y-92893843D01*
X151664191Y-93034191D01*
X151622000Y-93097334D01*
X151579809Y-93034191D01*
X151369765Y-92893843D01*
X151122000Y-92844560D01*
X150122000Y-92844560D01*
X149988736Y-92871068D01*
X150981626Y-91878178D01*
X151147779Y-91947001D01*
X151798223Y-91947001D01*
X152399154Y-91698087D01*
X152859087Y-91238154D01*
X153108001Y-90637223D01*
X153108001Y-89986779D01*
X152859087Y-89385848D01*
X152399154Y-88925915D01*
X151798223Y-88677001D01*
X151147779Y-88677001D01*
X150546848Y-88925915D01*
X150086915Y-89385848D01*
X150018092Y-89552001D01*
X141626845Y-89552001D01*
X141551998Y-89537113D01*
X141477151Y-89552001D01*
X141477147Y-89552001D01*
X141255462Y-89596097D01*
X141255460Y-89596098D01*
X141255461Y-89596098D01*
X141067525Y-89721672D01*
X141067523Y-89721674D01*
X141004070Y-89764072D01*
X140961672Y-89827525D01*
X138137528Y-92651671D01*
X138074072Y-92694071D01*
X138031672Y-92757527D01*
X138031671Y-92757528D01*
X137950759Y-92878622D01*
X137874235Y-92893843D01*
X137664191Y-93034191D01*
X137523843Y-93244235D01*
X137474560Y-93492000D01*
X137474560Y-95992000D01*
X137514851Y-96194560D01*
X136222000Y-96194560D01*
X135974235Y-96243843D01*
X135764191Y-96384191D01*
X135623843Y-96594235D01*
X135574560Y-96842000D01*
X135574560Y-97842000D01*
X135623843Y-98089765D01*
X135764191Y-98299809D01*
X135827334Y-98342000D01*
X135764191Y-98384191D01*
X135623843Y-98594235D01*
X135574560Y-98842000D01*
X135574560Y-99842000D01*
X135623843Y-100089765D01*
X135764191Y-100299809D01*
X135827334Y-100342000D01*
X135764191Y-100384191D01*
X135623843Y-100594235D01*
X135574560Y-100842000D01*
X135574560Y-101842000D01*
X135623843Y-102089765D01*
X135764191Y-102299809D01*
X135827334Y-102342000D01*
X135764191Y-102384191D01*
X135623843Y-102594235D01*
X135574560Y-102842000D01*
X135574560Y-103842000D01*
X135623843Y-104089765D01*
X135764191Y-104299809D01*
X135827334Y-104342000D01*
X135764191Y-104384191D01*
X135623843Y-104594235D01*
X135574560Y-104842000D01*
X135574560Y-105842000D01*
X135623843Y-106089765D01*
X135764191Y-106299809D01*
X135827334Y-106342000D01*
X135764191Y-106384191D01*
X135623843Y-106594235D01*
X135574560Y-106842000D01*
X135574560Y-107842000D01*
X135623843Y-108089765D01*
X135764191Y-108299809D01*
X135974235Y-108440157D01*
X136222000Y-108489440D01*
X137518584Y-108489440D01*
X137487000Y-108565691D01*
X137487000Y-109656250D01*
X137645750Y-109815000D01*
X138495000Y-109815000D01*
X138495000Y-109795000D01*
X138749000Y-109795000D01*
X138749000Y-109815000D01*
X139598250Y-109815000D01*
X139622000Y-109791250D01*
X139645750Y-109815000D01*
X140495000Y-109815000D01*
X140495000Y-109795000D01*
X140749000Y-109795000D01*
X140749000Y-109815000D01*
X140769000Y-109815000D01*
X140769000Y-110069000D01*
X140749000Y-110069000D01*
X140749000Y-110089000D01*
X140495000Y-110089000D01*
X140495000Y-110069000D01*
X139645750Y-110069000D01*
X139622000Y-110092750D01*
X139598250Y-110069000D01*
X138749000Y-110069000D01*
X138749000Y-110089000D01*
X138495000Y-110089000D01*
X138495000Y-110069000D01*
X137645750Y-110069000D01*
X137487000Y-110227750D01*
X137487000Y-111318309D01*
X137583673Y-111551698D01*
X137696974Y-111665000D01*
X128824000Y-111665000D01*
X128824000Y-111320017D01*
X128681655Y-110976365D01*
X128418635Y-110713345D01*
X128074983Y-110571000D01*
X128028802Y-110571000D01*
X126791323Y-109333521D01*
X126818699Y-109195890D01*
X132416524Y-109195890D01*
X132586355Y-109605924D01*
X132976642Y-110034183D01*
X133501108Y-110280486D01*
X133731000Y-110159819D01*
X133731000Y-108966000D01*
X133985000Y-108966000D01*
X133985000Y-110159819D01*
X134214892Y-110280486D01*
X134739358Y-110034183D01*
X135129645Y-109605924D01*
X135299476Y-109195890D01*
X135178155Y-108966000D01*
X133985000Y-108966000D01*
X133731000Y-108966000D01*
X132537845Y-108966000D01*
X132416524Y-109195890D01*
X126818699Y-109195890D01*
X126825440Y-109162001D01*
X126825440Y-108261999D01*
X126757127Y-107918564D01*
X126562586Y-107627414D01*
X126271436Y-107432873D01*
X126238002Y-107426223D01*
X126238002Y-107333916D01*
X126460039Y-107455904D01*
X126542819Y-107438367D01*
X127035896Y-107168500D01*
X127378501Y-106742501D01*
X127616424Y-107098577D01*
X128091092Y-107415740D01*
X128651000Y-107527113D01*
X129210909Y-107415740D01*
X129685577Y-107098577D01*
X130002740Y-106623909D01*
X130086000Y-106205332D01*
X130086000Y-105122667D01*
X130002740Y-104704091D01*
X129685576Y-104229423D01*
X129210908Y-103912260D01*
X128651000Y-103800887D01*
X128091091Y-103912260D01*
X127616423Y-104229424D01*
X127378501Y-104585499D01*
X127035896Y-104159500D01*
X126542819Y-103889633D01*
X126460039Y-103872096D01*
X126238000Y-103994085D01*
X126238000Y-105537000D01*
X126258000Y-105537000D01*
X126258000Y-105791000D01*
X126238000Y-105791000D01*
X126238000Y-105811000D01*
X125984000Y-105811000D01*
X125984000Y-105791000D01*
X125964000Y-105791000D01*
X125964000Y-105537000D01*
X125984000Y-105537000D01*
X125984000Y-103994085D01*
X125761961Y-103872096D01*
X125679181Y-103889633D01*
X125186104Y-104159500D01*
X125003127Y-104387016D01*
X124969157Y-104216235D01*
X124828809Y-104006191D01*
X124618765Y-103865843D01*
X124371000Y-103816560D01*
X122771000Y-103816560D01*
X122523235Y-103865843D01*
X122313191Y-104006191D01*
X122172843Y-104216235D01*
X122123560Y-104464000D01*
X122123560Y-106864000D01*
X122172843Y-107111765D01*
X122313191Y-107321809D01*
X122523235Y-107462157D01*
X122767903Y-107510824D01*
X122593414Y-107627414D01*
X122398873Y-107918564D01*
X122330560Y-108261999D01*
X122330560Y-109162001D01*
X122398873Y-109505436D01*
X122593414Y-109796586D01*
X122884564Y-109991127D01*
X123227999Y-110059440D01*
X123878001Y-110059440D01*
X124221436Y-109991127D01*
X124512586Y-109796586D01*
X124578000Y-109698687D01*
X124643414Y-109796586D01*
X124934564Y-109991127D01*
X125277999Y-110059440D01*
X125367639Y-110059440D01*
X125384619Y-110076420D01*
X125073365Y-110205345D01*
X125040710Y-110238000D01*
X118297802Y-110238000D01*
X116919440Y-108859639D01*
X116919440Y-108261999D01*
X116851127Y-107918564D01*
X116656586Y-107627414D01*
X116586002Y-107580251D01*
X116586002Y-107460916D01*
X116808039Y-107582904D01*
X116890819Y-107565367D01*
X117383896Y-107295500D01*
X117726501Y-106869501D01*
X117964424Y-107225577D01*
X118439092Y-107542740D01*
X118999000Y-107654113D01*
X119558909Y-107542740D01*
X120033577Y-107225577D01*
X120350740Y-106750909D01*
X120434000Y-106332332D01*
X120434000Y-105249667D01*
X120350740Y-104831091D01*
X120033576Y-104356423D01*
X119558908Y-104039260D01*
X118999000Y-103927887D01*
X118439091Y-104039260D01*
X117964423Y-104356424D01*
X117726501Y-104712499D01*
X117383896Y-104286500D01*
X116890819Y-104016633D01*
X116808039Y-103999096D01*
X116586000Y-104121085D01*
X116586000Y-105664000D01*
X116606000Y-105664000D01*
X116606000Y-105918000D01*
X116586000Y-105918000D01*
X116586000Y-105938000D01*
X116332000Y-105938000D01*
X116332000Y-105918000D01*
X116312000Y-105918000D01*
X116312000Y-105664000D01*
X116332000Y-105664000D01*
X116332000Y-104121085D01*
X116109961Y-103999096D01*
X116027181Y-104016633D01*
X115534104Y-104286500D01*
X115351127Y-104514016D01*
X115317157Y-104343235D01*
X115176809Y-104133191D01*
X114966765Y-103992843D01*
X114719000Y-103943560D01*
X113119000Y-103943560D01*
X112871235Y-103992843D01*
X112661191Y-104133191D01*
X112520843Y-104343235D01*
X112471560Y-104591000D01*
X112471560Y-106991000D01*
X112520843Y-107238765D01*
X112661191Y-107448809D01*
X112807952Y-107546873D01*
X112687414Y-107627414D01*
X112492873Y-107918564D01*
X112424560Y-108261999D01*
X112424560Y-109162001D01*
X112492873Y-109505436D01*
X112687414Y-109796586D01*
X112978564Y-109991127D01*
X113321999Y-110059440D01*
X113972001Y-110059440D01*
X114315436Y-109991127D01*
X114606586Y-109796586D01*
X114672000Y-109698687D01*
X114737414Y-109796586D01*
X115028564Y-109991127D01*
X115371999Y-110059440D01*
X115969639Y-110059440D01*
X117392671Y-111482473D01*
X117435071Y-111545929D01*
X117613273Y-111665000D01*
X112060000Y-111665000D01*
X112060000Y-103502000D01*
X132395028Y-103502000D01*
X132343908Y-103759000D01*
X132459161Y-104338418D01*
X132787375Y-104829625D01*
X133085761Y-105029000D01*
X132787375Y-105228375D01*
X132459161Y-105719582D01*
X132343908Y-106299000D01*
X132459161Y-106878418D01*
X132787375Y-107369625D01*
X133106478Y-107582843D01*
X132976642Y-107643817D01*
X132586355Y-108072076D01*
X132416524Y-108482110D01*
X132537845Y-108712000D01*
X133731000Y-108712000D01*
X133731000Y-108692000D01*
X133985000Y-108692000D01*
X133985000Y-108712000D01*
X135178155Y-108712000D01*
X135299476Y-108482110D01*
X135129645Y-108072076D01*
X134739358Y-107643817D01*
X134609522Y-107582843D01*
X134928625Y-107369625D01*
X135256839Y-106878418D01*
X135372092Y-106299000D01*
X135256839Y-105719582D01*
X134928625Y-105228375D01*
X134630239Y-105029000D01*
X134928625Y-104829625D01*
X135256839Y-104338418D01*
X135372092Y-103759000D01*
X135320972Y-103502000D01*
X135350000Y-103502000D01*
X135398601Y-103492333D01*
X135439803Y-103464803D01*
X135467333Y-103423601D01*
X135477000Y-103375000D01*
X135477000Y-93427606D01*
X140362915Y-88541691D01*
X154885000Y-88541691D01*
X154885000Y-89757250D01*
X155043750Y-89916000D01*
X155893000Y-89916000D01*
X155893000Y-88191750D01*
X156147000Y-88191750D01*
X156147000Y-89916000D01*
X156996250Y-89916000D01*
X157155000Y-89757250D01*
X157155000Y-88541691D01*
X157058327Y-88308302D01*
X156879699Y-88129673D01*
X156646310Y-88033000D01*
X156305750Y-88033000D01*
X156147000Y-88191750D01*
X155893000Y-88191750D01*
X155734250Y-88033000D01*
X155393690Y-88033000D01*
X155160301Y-88129673D01*
X154981673Y-88308302D01*
X154885000Y-88541691D01*
X140362915Y-88541691D01*
X140439803Y-88464803D01*
X140467333Y-88423601D01*
X140477000Y-88375000D01*
X140477000Y-84568750D01*
X154885000Y-84568750D01*
X154885000Y-85784309D01*
X154981673Y-86017698D01*
X155160301Y-86196327D01*
X155393690Y-86293000D01*
X155734250Y-86293000D01*
X155893000Y-86134250D01*
X155893000Y-84410000D01*
X156147000Y-84410000D01*
X156147000Y-86134250D01*
X156305750Y-86293000D01*
X156646310Y-86293000D01*
X156879699Y-86196327D01*
X157058327Y-86017698D01*
X157155000Y-85784309D01*
X157155000Y-84568750D01*
X156996250Y-84410000D01*
X156147000Y-84410000D01*
X155893000Y-84410000D01*
X155043750Y-84410000D01*
X154885000Y-84568750D01*
X140477000Y-84568750D01*
X140477000Y-82781691D01*
X154885000Y-82781691D01*
X154885000Y-83997250D01*
X155043750Y-84156000D01*
X155893000Y-84156000D01*
X155893000Y-82431750D01*
X156147000Y-82431750D01*
X156147000Y-84156000D01*
X156996250Y-84156000D01*
X157155000Y-83997250D01*
X157155000Y-82781691D01*
X157058327Y-82548302D01*
X156879699Y-82369673D01*
X156646310Y-82273000D01*
X156305750Y-82273000D01*
X156147000Y-82431750D01*
X155893000Y-82431750D01*
X155734250Y-82273000D01*
X155393690Y-82273000D01*
X155160301Y-82369673D01*
X154981673Y-82548302D01*
X154885000Y-82781691D01*
X140477000Y-82781691D01*
X140477000Y-80381750D01*
X154853000Y-80381750D01*
X154853000Y-81597309D01*
X154949673Y-81830698D01*
X155128301Y-82009327D01*
X155361690Y-82106000D01*
X155702250Y-82106000D01*
X155861000Y-81947250D01*
X155861000Y-80223000D01*
X156115000Y-80223000D01*
X156115000Y-81947250D01*
X156273750Y-82106000D01*
X156614310Y-82106000D01*
X156847699Y-82009327D01*
X157026327Y-81830698D01*
X157123000Y-81597309D01*
X157123000Y-80381750D01*
X156964250Y-80223000D01*
X156115000Y-80223000D01*
X155861000Y-80223000D01*
X155011750Y-80223000D01*
X154853000Y-80381750D01*
X140477000Y-80381750D01*
X140477000Y-78594691D01*
X154853000Y-78594691D01*
X154853000Y-79810250D01*
X155011750Y-79969000D01*
X155861000Y-79969000D01*
X155861000Y-78244750D01*
X156115000Y-78244750D01*
X156115000Y-79969000D01*
X156964250Y-79969000D01*
X157123000Y-79810250D01*
X157123000Y-78594691D01*
X157026327Y-78361302D01*
X156847699Y-78182673D01*
X156614310Y-78086000D01*
X156273750Y-78086000D01*
X156115000Y-78244750D01*
X155861000Y-78244750D01*
X155702250Y-78086000D01*
X155361690Y-78086000D01*
X155128301Y-78182673D01*
X154949673Y-78361302D01*
X154853000Y-78594691D01*
X140477000Y-78594691D01*
X140477000Y-76224533D01*
X150500074Y-76224533D01*
X150598737Y-76491388D01*
X151208462Y-76717909D01*
X151858461Y-76693857D01*
X152347265Y-76491388D01*
X152445928Y-76224533D01*
X151473001Y-75251606D01*
X150500074Y-76224533D01*
X140477000Y-76224533D01*
X140477000Y-74807462D01*
X149827093Y-74807462D01*
X149851145Y-75457461D01*
X150053614Y-75946265D01*
X150320469Y-76044928D01*
X151293396Y-75072001D01*
X151652606Y-75072001D01*
X152625533Y-76044928D01*
X152892388Y-75946265D01*
X153118909Y-75336540D01*
X153094857Y-74686541D01*
X153068020Y-74621750D01*
X154853000Y-74621750D01*
X154853000Y-75837309D01*
X154949673Y-76070698D01*
X155128301Y-76249327D01*
X155361690Y-76346000D01*
X155702250Y-76346000D01*
X155861000Y-76187250D01*
X155861000Y-74463000D01*
X156115000Y-74463000D01*
X156115000Y-76187250D01*
X156273750Y-76346000D01*
X156614310Y-76346000D01*
X156847699Y-76249327D01*
X157026327Y-76070698D01*
X157123000Y-75837309D01*
X157123000Y-74621750D01*
X156964250Y-74463000D01*
X156115000Y-74463000D01*
X155861000Y-74463000D01*
X155011750Y-74463000D01*
X154853000Y-74621750D01*
X153068020Y-74621750D01*
X152892388Y-74197737D01*
X152625533Y-74099074D01*
X151652606Y-75072001D01*
X151293396Y-75072001D01*
X150320469Y-74099074D01*
X150053614Y-74197737D01*
X149827093Y-74807462D01*
X140477000Y-74807462D01*
X140477000Y-73919469D01*
X150500074Y-73919469D01*
X151473001Y-74892396D01*
X152445928Y-73919469D01*
X152347265Y-73652614D01*
X151737540Y-73426093D01*
X151087541Y-73450145D01*
X150598737Y-73652614D01*
X150500074Y-73919469D01*
X140477000Y-73919469D01*
X140477000Y-73085000D01*
X154853000Y-73085000D01*
X154853000Y-74050250D01*
X154853000Y-74050250D01*
G37*
X154853000Y-74050250D02*
X155011750Y-74209000D01*
X155861000Y-74209000D01*
X155861000Y-74189000D01*
X156115000Y-74189000D01*
X156115000Y-74209000D01*
X156964250Y-74209000D01*
X157123000Y-74050250D01*
X157123000Y-73085000D01*
X158840560Y-73085000D01*
X158840560Y-75711000D01*
X158889843Y-75958765D01*
X159030191Y-76168809D01*
X159228000Y-76300982D01*
X159228001Y-78131018D01*
X159030191Y-78263191D01*
X158889843Y-78473235D01*
X158840560Y-78721000D01*
X158840560Y-81471000D01*
X158889843Y-81718765D01*
X158900093Y-81734105D01*
X157503530Y-83130669D01*
X157440071Y-83173071D01*
X157272096Y-83424464D01*
X157228000Y-83646149D01*
X157228000Y-83646153D01*
X157213112Y-83721000D01*
X157228000Y-83795847D01*
X157228001Y-90490196D01*
X157155000Y-90563197D01*
X157155000Y-90328750D01*
X156996250Y-90170000D01*
X156147000Y-90170000D01*
X156147000Y-90190000D01*
X155893000Y-90190000D01*
X155893000Y-90170000D01*
X155043750Y-90170000D01*
X154885000Y-90328750D01*
X154885000Y-91442000D01*
X154486846Y-91442000D01*
X154411999Y-91427112D01*
X154337152Y-91442000D01*
X154337148Y-91442000D01*
X154115463Y-91486096D01*
X153864071Y-91654071D01*
X153821671Y-91717527D01*
X152694639Y-92844560D01*
X152122000Y-92844560D01*
X151874235Y-92893843D01*
X151664191Y-93034191D01*
X151622000Y-93097334D01*
X151579809Y-93034191D01*
X151369765Y-92893843D01*
X151122000Y-92844560D01*
X150122000Y-92844560D01*
X149988736Y-92871068D01*
X150981626Y-91878178D01*
X151147779Y-91947001D01*
X151798223Y-91947001D01*
X152399154Y-91698087D01*
X152859087Y-91238154D01*
X153108001Y-90637223D01*
X153108001Y-89986779D01*
X152859087Y-89385848D01*
X152399154Y-88925915D01*
X151798223Y-88677001D01*
X151147779Y-88677001D01*
X150546848Y-88925915D01*
X150086915Y-89385848D01*
X150018092Y-89552001D01*
X141626845Y-89552001D01*
X141551998Y-89537113D01*
X141477151Y-89552001D01*
X141477147Y-89552001D01*
X141255462Y-89596097D01*
X141255460Y-89596098D01*
X141255461Y-89596098D01*
X141067525Y-89721672D01*
X141067523Y-89721674D01*
X141004070Y-89764072D01*
X140961672Y-89827525D01*
X138137528Y-92651671D01*
X138074072Y-92694071D01*
X138031672Y-92757527D01*
X138031671Y-92757528D01*
X137950759Y-92878622D01*
X137874235Y-92893843D01*
X137664191Y-93034191D01*
X137523843Y-93244235D01*
X137474560Y-93492000D01*
X137474560Y-95992000D01*
X137514851Y-96194560D01*
X136222000Y-96194560D01*
X135974235Y-96243843D01*
X135764191Y-96384191D01*
X135623843Y-96594235D01*
X135574560Y-96842000D01*
X135574560Y-97842000D01*
X135623843Y-98089765D01*
X135764191Y-98299809D01*
X135827334Y-98342000D01*
X135764191Y-98384191D01*
X135623843Y-98594235D01*
X135574560Y-98842000D01*
X135574560Y-99842000D01*
X135623843Y-100089765D01*
X135764191Y-100299809D01*
X135827334Y-100342000D01*
X135764191Y-100384191D01*
X135623843Y-100594235D01*
X135574560Y-100842000D01*
X135574560Y-101842000D01*
X135623843Y-102089765D01*
X135764191Y-102299809D01*
X135827334Y-102342000D01*
X135764191Y-102384191D01*
X135623843Y-102594235D01*
X135574560Y-102842000D01*
X135574560Y-103842000D01*
X135623843Y-104089765D01*
X135764191Y-104299809D01*
X135827334Y-104342000D01*
X135764191Y-104384191D01*
X135623843Y-104594235D01*
X135574560Y-104842000D01*
X135574560Y-105842000D01*
X135623843Y-106089765D01*
X135764191Y-106299809D01*
X135827334Y-106342000D01*
X135764191Y-106384191D01*
X135623843Y-106594235D01*
X135574560Y-106842000D01*
X135574560Y-107842000D01*
X135623843Y-108089765D01*
X135764191Y-108299809D01*
X135974235Y-108440157D01*
X136222000Y-108489440D01*
X137518584Y-108489440D01*
X137487000Y-108565691D01*
X137487000Y-109656250D01*
X137645750Y-109815000D01*
X138495000Y-109815000D01*
X138495000Y-109795000D01*
X138749000Y-109795000D01*
X138749000Y-109815000D01*
X139598250Y-109815000D01*
X139622000Y-109791250D01*
X139645750Y-109815000D01*
X140495000Y-109815000D01*
X140495000Y-109795000D01*
X140749000Y-109795000D01*
X140749000Y-109815000D01*
X140769000Y-109815000D01*
X140769000Y-110069000D01*
X140749000Y-110069000D01*
X140749000Y-110089000D01*
X140495000Y-110089000D01*
X140495000Y-110069000D01*
X139645750Y-110069000D01*
X139622000Y-110092750D01*
X139598250Y-110069000D01*
X138749000Y-110069000D01*
X138749000Y-110089000D01*
X138495000Y-110089000D01*
X138495000Y-110069000D01*
X137645750Y-110069000D01*
X137487000Y-110227750D01*
X137487000Y-111318309D01*
X137583673Y-111551698D01*
X137696974Y-111665000D01*
X128824000Y-111665000D01*
X128824000Y-111320017D01*
X128681655Y-110976365D01*
X128418635Y-110713345D01*
X128074983Y-110571000D01*
X128028802Y-110571000D01*
X126791323Y-109333521D01*
X126818699Y-109195890D01*
X132416524Y-109195890D01*
X132586355Y-109605924D01*
X132976642Y-110034183D01*
X133501108Y-110280486D01*
X133731000Y-110159819D01*
X133731000Y-108966000D01*
X133985000Y-108966000D01*
X133985000Y-110159819D01*
X134214892Y-110280486D01*
X134739358Y-110034183D01*
X135129645Y-109605924D01*
X135299476Y-109195890D01*
X135178155Y-108966000D01*
X133985000Y-108966000D01*
X133731000Y-108966000D01*
X132537845Y-108966000D01*
X132416524Y-109195890D01*
X126818699Y-109195890D01*
X126825440Y-109162001D01*
X126825440Y-108261999D01*
X126757127Y-107918564D01*
X126562586Y-107627414D01*
X126271436Y-107432873D01*
X126238002Y-107426223D01*
X126238002Y-107333916D01*
X126460039Y-107455904D01*
X126542819Y-107438367D01*
X127035896Y-107168500D01*
X127378501Y-106742501D01*
X127616424Y-107098577D01*
X128091092Y-107415740D01*
X128651000Y-107527113D01*
X129210909Y-107415740D01*
X129685577Y-107098577D01*
X130002740Y-106623909D01*
X130086000Y-106205332D01*
X130086000Y-105122667D01*
X130002740Y-104704091D01*
X129685576Y-104229423D01*
X129210908Y-103912260D01*
X128651000Y-103800887D01*
X128091091Y-103912260D01*
X127616423Y-104229424D01*
X127378501Y-104585499D01*
X127035896Y-104159500D01*
X126542819Y-103889633D01*
X126460039Y-103872096D01*
X126238000Y-103994085D01*
X126238000Y-105537000D01*
X126258000Y-105537000D01*
X126258000Y-105791000D01*
X126238000Y-105791000D01*
X126238000Y-105811000D01*
X125984000Y-105811000D01*
X125984000Y-105791000D01*
X125964000Y-105791000D01*
X125964000Y-105537000D01*
X125984000Y-105537000D01*
X125984000Y-103994085D01*
X125761961Y-103872096D01*
X125679181Y-103889633D01*
X125186104Y-104159500D01*
X125003127Y-104387016D01*
X124969157Y-104216235D01*
X124828809Y-104006191D01*
X124618765Y-103865843D01*
X124371000Y-103816560D01*
X122771000Y-103816560D01*
X122523235Y-103865843D01*
X122313191Y-104006191D01*
X122172843Y-104216235D01*
X122123560Y-104464000D01*
X122123560Y-106864000D01*
X122172843Y-107111765D01*
X122313191Y-107321809D01*
X122523235Y-107462157D01*
X122767903Y-107510824D01*
X122593414Y-107627414D01*
X122398873Y-107918564D01*
X122330560Y-108261999D01*
X122330560Y-109162001D01*
X122398873Y-109505436D01*
X122593414Y-109796586D01*
X122884564Y-109991127D01*
X123227999Y-110059440D01*
X123878001Y-110059440D01*
X124221436Y-109991127D01*
X124512586Y-109796586D01*
X124578000Y-109698687D01*
X124643414Y-109796586D01*
X124934564Y-109991127D01*
X125277999Y-110059440D01*
X125367639Y-110059440D01*
X125384619Y-110076420D01*
X125073365Y-110205345D01*
X125040710Y-110238000D01*
X118297802Y-110238000D01*
X116919440Y-108859639D01*
X116919440Y-108261999D01*
X116851127Y-107918564D01*
X116656586Y-107627414D01*
X116586002Y-107580251D01*
X116586002Y-107460916D01*
X116808039Y-107582904D01*
X116890819Y-107565367D01*
X117383896Y-107295500D01*
X117726501Y-106869501D01*
X117964424Y-107225577D01*
X118439092Y-107542740D01*
X118999000Y-107654113D01*
X119558909Y-107542740D01*
X120033577Y-107225577D01*
X120350740Y-106750909D01*
X120434000Y-106332332D01*
X120434000Y-105249667D01*
X120350740Y-104831091D01*
X120033576Y-104356423D01*
X119558908Y-104039260D01*
X118999000Y-103927887D01*
X118439091Y-104039260D01*
X117964423Y-104356424D01*
X117726501Y-104712499D01*
X117383896Y-104286500D01*
X116890819Y-104016633D01*
X116808039Y-103999096D01*
X116586000Y-104121085D01*
X116586000Y-105664000D01*
X116606000Y-105664000D01*
X116606000Y-105918000D01*
X116586000Y-105918000D01*
X116586000Y-105938000D01*
X116332000Y-105938000D01*
X116332000Y-105918000D01*
X116312000Y-105918000D01*
X116312000Y-105664000D01*
X116332000Y-105664000D01*
X116332000Y-104121085D01*
X116109961Y-103999096D01*
X116027181Y-104016633D01*
X115534104Y-104286500D01*
X115351127Y-104514016D01*
X115317157Y-104343235D01*
X115176809Y-104133191D01*
X114966765Y-103992843D01*
X114719000Y-103943560D01*
X113119000Y-103943560D01*
X112871235Y-103992843D01*
X112661191Y-104133191D01*
X112520843Y-104343235D01*
X112471560Y-104591000D01*
X112471560Y-106991000D01*
X112520843Y-107238765D01*
X112661191Y-107448809D01*
X112807952Y-107546873D01*
X112687414Y-107627414D01*
X112492873Y-107918564D01*
X112424560Y-108261999D01*
X112424560Y-109162001D01*
X112492873Y-109505436D01*
X112687414Y-109796586D01*
X112978564Y-109991127D01*
X113321999Y-110059440D01*
X113972001Y-110059440D01*
X114315436Y-109991127D01*
X114606586Y-109796586D01*
X114672000Y-109698687D01*
X114737414Y-109796586D01*
X115028564Y-109991127D01*
X115371999Y-110059440D01*
X115969639Y-110059440D01*
X117392671Y-111482473D01*
X117435071Y-111545929D01*
X117613273Y-111665000D01*
X112060000Y-111665000D01*
X112060000Y-103502000D01*
X132395028Y-103502000D01*
X132343908Y-103759000D01*
X132459161Y-104338418D01*
X132787375Y-104829625D01*
X133085761Y-105029000D01*
X132787375Y-105228375D01*
X132459161Y-105719582D01*
X132343908Y-106299000D01*
X132459161Y-106878418D01*
X132787375Y-107369625D01*
X133106478Y-107582843D01*
X132976642Y-107643817D01*
X132586355Y-108072076D01*
X132416524Y-108482110D01*
X132537845Y-108712000D01*
X133731000Y-108712000D01*
X133731000Y-108692000D01*
X133985000Y-108692000D01*
X133985000Y-108712000D01*
X135178155Y-108712000D01*
X135299476Y-108482110D01*
X135129645Y-108072076D01*
X134739358Y-107643817D01*
X134609522Y-107582843D01*
X134928625Y-107369625D01*
X135256839Y-106878418D01*
X135372092Y-106299000D01*
X135256839Y-105719582D01*
X134928625Y-105228375D01*
X134630239Y-105029000D01*
X134928625Y-104829625D01*
X135256839Y-104338418D01*
X135372092Y-103759000D01*
X135320972Y-103502000D01*
X135350000Y-103502000D01*
X135398601Y-103492333D01*
X135439803Y-103464803D01*
X135467333Y-103423601D01*
X135477000Y-103375000D01*
X135477000Y-93427606D01*
X140362915Y-88541691D01*
X154885000Y-88541691D01*
X154885000Y-89757250D01*
X155043750Y-89916000D01*
X155893000Y-89916000D01*
X155893000Y-88191750D01*
X156147000Y-88191750D01*
X156147000Y-89916000D01*
X156996250Y-89916000D01*
X157155000Y-89757250D01*
X157155000Y-88541691D01*
X157058327Y-88308302D01*
X156879699Y-88129673D01*
X156646310Y-88033000D01*
X156305750Y-88033000D01*
X156147000Y-88191750D01*
X155893000Y-88191750D01*
X155734250Y-88033000D01*
X155393690Y-88033000D01*
X155160301Y-88129673D01*
X154981673Y-88308302D01*
X154885000Y-88541691D01*
X140362915Y-88541691D01*
X140439803Y-88464803D01*
X140467333Y-88423601D01*
X140477000Y-88375000D01*
X140477000Y-84568750D01*
X154885000Y-84568750D01*
X154885000Y-85784309D01*
X154981673Y-86017698D01*
X155160301Y-86196327D01*
X155393690Y-86293000D01*
X155734250Y-86293000D01*
X155893000Y-86134250D01*
X155893000Y-84410000D01*
X156147000Y-84410000D01*
X156147000Y-86134250D01*
X156305750Y-86293000D01*
X156646310Y-86293000D01*
X156879699Y-86196327D01*
X157058327Y-86017698D01*
X157155000Y-85784309D01*
X157155000Y-84568750D01*
X156996250Y-84410000D01*
X156147000Y-84410000D01*
X155893000Y-84410000D01*
X155043750Y-84410000D01*
X154885000Y-84568750D01*
X140477000Y-84568750D01*
X140477000Y-82781691D01*
X154885000Y-82781691D01*
X154885000Y-83997250D01*
X155043750Y-84156000D01*
X155893000Y-84156000D01*
X155893000Y-82431750D01*
X156147000Y-82431750D01*
X156147000Y-84156000D01*
X156996250Y-84156000D01*
X157155000Y-83997250D01*
X157155000Y-82781691D01*
X157058327Y-82548302D01*
X156879699Y-82369673D01*
X156646310Y-82273000D01*
X156305750Y-82273000D01*
X156147000Y-82431750D01*
X155893000Y-82431750D01*
X155734250Y-82273000D01*
X155393690Y-82273000D01*
X155160301Y-82369673D01*
X154981673Y-82548302D01*
X154885000Y-82781691D01*
X140477000Y-82781691D01*
X140477000Y-80381750D01*
X154853000Y-80381750D01*
X154853000Y-81597309D01*
X154949673Y-81830698D01*
X155128301Y-82009327D01*
X155361690Y-82106000D01*
X155702250Y-82106000D01*
X155861000Y-81947250D01*
X155861000Y-80223000D01*
X156115000Y-80223000D01*
X156115000Y-81947250D01*
X156273750Y-82106000D01*
X156614310Y-82106000D01*
X156847699Y-82009327D01*
X157026327Y-81830698D01*
X157123000Y-81597309D01*
X157123000Y-80381750D01*
X156964250Y-80223000D01*
X156115000Y-80223000D01*
X155861000Y-80223000D01*
X155011750Y-80223000D01*
X154853000Y-80381750D01*
X140477000Y-80381750D01*
X140477000Y-78594691D01*
X154853000Y-78594691D01*
X154853000Y-79810250D01*
X155011750Y-79969000D01*
X155861000Y-79969000D01*
X155861000Y-78244750D01*
X156115000Y-78244750D01*
X156115000Y-79969000D01*
X156964250Y-79969000D01*
X157123000Y-79810250D01*
X157123000Y-78594691D01*
X157026327Y-78361302D01*
X156847699Y-78182673D01*
X156614310Y-78086000D01*
X156273750Y-78086000D01*
X156115000Y-78244750D01*
X155861000Y-78244750D01*
X155702250Y-78086000D01*
X155361690Y-78086000D01*
X155128301Y-78182673D01*
X154949673Y-78361302D01*
X154853000Y-78594691D01*
X140477000Y-78594691D01*
X140477000Y-76224533D01*
X150500074Y-76224533D01*
X150598737Y-76491388D01*
X151208462Y-76717909D01*
X151858461Y-76693857D01*
X152347265Y-76491388D01*
X152445928Y-76224533D01*
X151473001Y-75251606D01*
X150500074Y-76224533D01*
X140477000Y-76224533D01*
X140477000Y-74807462D01*
X149827093Y-74807462D01*
X149851145Y-75457461D01*
X150053614Y-75946265D01*
X150320469Y-76044928D01*
X151293396Y-75072001D01*
X151652606Y-75072001D01*
X152625533Y-76044928D01*
X152892388Y-75946265D01*
X153118909Y-75336540D01*
X153094857Y-74686541D01*
X153068020Y-74621750D01*
X154853000Y-74621750D01*
X154853000Y-75837309D01*
X154949673Y-76070698D01*
X155128301Y-76249327D01*
X155361690Y-76346000D01*
X155702250Y-76346000D01*
X155861000Y-76187250D01*
X155861000Y-74463000D01*
X156115000Y-74463000D01*
X156115000Y-76187250D01*
X156273750Y-76346000D01*
X156614310Y-76346000D01*
X156847699Y-76249327D01*
X157026327Y-76070698D01*
X157123000Y-75837309D01*
X157123000Y-74621750D01*
X156964250Y-74463000D01*
X156115000Y-74463000D01*
X155861000Y-74463000D01*
X155011750Y-74463000D01*
X154853000Y-74621750D01*
X153068020Y-74621750D01*
X152892388Y-74197737D01*
X152625533Y-74099074D01*
X151652606Y-75072001D01*
X151293396Y-75072001D01*
X150320469Y-74099074D01*
X150053614Y-74197737D01*
X149827093Y-74807462D01*
X140477000Y-74807462D01*
X140477000Y-73919469D01*
X150500074Y-73919469D01*
X151473001Y-74892396D01*
X152445928Y-73919469D01*
X152347265Y-73652614D01*
X151737540Y-73426093D01*
X151087541Y-73450145D01*
X150598737Y-73652614D01*
X150500074Y-73919469D01*
X140477000Y-73919469D01*
X140477000Y-73085000D01*
X154853000Y-73085000D01*
X154853000Y-74050250D01*
G04 #@! TD*
M02*
