M48
;DRILL file {KiCad 5.0.2-bee76a0~70~ubuntu18.04.1} date lun. 11 mars 2019 17:22:37 CET
;FORMAT={-:-/ absolute / metric / decimal}
FMAT,2
METRIC,TZ
T1C0.400
T2C0.762
T3C0.800
T4C1.000
T5C1.520
%
G90
G05
T1
X125.603Y-110.998
X127.889Y-111.506
X139.319Y-96.901
X140.081Y-107.315
X141.605Y-107.315
X142.621Y-107.569
X145.979Y-105.499
X145.987Y-106.426
X146.558Y-103.124
X151.003Y-97.155
X158.496Y-92.71
T2
X122.009Y-80.152
X122.009Y-85.232
X151.473Y-75.072
X151.473Y-90.312
T3
X113.919Y-98.171
X113.919Y-105.791
X116.459Y-98.171
X116.459Y-105.791
X118.999Y-98.171
X118.999Y-105.791
X123.571Y-98.044
X123.571Y-105.664
X126.111Y-98.044
X126.111Y-105.664
X128.651Y-98.044
X128.651Y-105.664
T4
X133.858Y-101.219
X133.858Y-103.759
X133.858Y-106.299
X133.858Y-108.839
T5
X114.935Y-80.137
X114.935Y-85.217
X114.935Y-90.297
T0
M30
