G04 #@! TF.GenerationSoftware,KiCad,Pcbnew,5.0.1-33cea8e~68~ubuntu18.04.1*
G04 #@! TF.CreationDate,2018-11-29T09:03:48+01:00*
G04 #@! TF.ProjectId,8Dimmers,3844696D6D6572732E6B696361645F70,rev?*
G04 #@! TF.SameCoordinates,Original*
G04 #@! TF.FileFunction,Copper,L1,Top,Signal*
G04 #@! TF.FilePolarity,Positive*
%FSLAX46Y46*%
G04 Gerber Fmt 4.6, Leading zero omitted, Abs format (unit mm)*
G04 Created by KiCad (PCBNEW 5.0.1-33cea8e~68~ubuntu18.04.1) date jeu. 29 nov. 2018 09:03:48 CET*
%MOMM*%
%LPD*%
G01*
G04 APERTURE LIST*
G04 #@! TA.AperFunction,SMDPad,CuDef*
%ADD10R,1.000000X2.750000*%
G04 #@! TD*
G04 #@! TA.AperFunction,SMDPad,CuDef*
%ADD11R,2.000000X0.600000*%
G04 #@! TD*
G04 #@! TA.AperFunction,ComponentPad*
%ADD12O,2.300000X1.600000*%
G04 #@! TD*
G04 #@! TA.AperFunction,ComponentPad*
%ADD13O,2.032000X2.540000*%
G04 #@! TD*
G04 #@! TA.AperFunction,ComponentPad*
%ADD14C,3.000000*%
G04 #@! TD*
G04 #@! TA.AperFunction,ComponentPad*
%ADD15C,1.699260*%
G04 #@! TD*
G04 #@! TA.AperFunction,Conductor*
%ADD16C,0.100000*%
G04 #@! TD*
G04 #@! TA.AperFunction,SMDPad,CuDef*
%ADD17C,1.150000*%
G04 #@! TD*
G04 #@! TA.AperFunction,SMDPad,CuDef*
%ADD18R,2.750000X1.000000*%
G04 #@! TD*
G04 #@! TA.AperFunction,SMDPad,CuDef*
%ADD19R,2.500000X1.000000*%
G04 #@! TD*
G04 #@! TA.AperFunction,SMDPad,CuDef*
%ADD20R,1.000000X1.800000*%
G04 #@! TD*
G04 #@! TA.AperFunction,SMDPad,CuDef*
%ADD21R,1.500000X0.600000*%
G04 #@! TD*
G04 #@! TA.AperFunction,ComponentPad*
%ADD22R,3.000000X3.000000*%
G04 #@! TD*
G04 #@! TA.AperFunction,SMDPad,CuDef*
%ADD23R,2.000000X3.800000*%
G04 #@! TD*
G04 #@! TA.AperFunction,SMDPad,CuDef*
%ADD24R,2.000000X1.500000*%
G04 #@! TD*
G04 #@! TA.AperFunction,ComponentPad*
%ADD25R,1.700000X1.700000*%
G04 #@! TD*
G04 #@! TA.AperFunction,ComponentPad*
%ADD26O,1.700000X1.700000*%
G04 #@! TD*
G04 #@! TA.AperFunction,ViaPad*
%ADD27C,0.600000*%
G04 #@! TD*
G04 #@! TA.AperFunction,Conductor*
%ADD28C,0.250000*%
G04 #@! TD*
G04 #@! TA.AperFunction,Conductor*
%ADD29C,2.000000*%
G04 #@! TD*
G04 #@! TA.AperFunction,Conductor*
%ADD30C,0.500000*%
G04 #@! TD*
G04 APERTURE END LIST*
D10*
G04 #@! TO.P,SW2,1*
G04 #@! TO.N,/GPIO0*
X48832000Y-130892000D03*
X48832000Y-136652000D03*
G04 #@! TO.P,SW2,2*
G04 #@! TO.N,GND*
X52832000Y-136652000D03*
X52832000Y-130892000D03*
G04 #@! TD*
D11*
G04 #@! TO.P,U5,1*
G04 #@! TO.N,/I1*
X54482000Y-112141000D03*
G04 #@! TO.P,U5,2*
G04 #@! TO.N,/I2*
X54482000Y-113411000D03*
G04 #@! TO.P,U5,3*
G04 #@! TO.N,/I3*
X54482000Y-114681000D03*
G04 #@! TO.P,U5,4*
G04 #@! TO.N,/I4*
X54482000Y-115951000D03*
G04 #@! TO.P,U5,5*
G04 #@! TO.N,/I5*
X54482000Y-117221000D03*
G04 #@! TO.P,U5,6*
G04 #@! TO.N,/I6*
X54482000Y-118491000D03*
G04 #@! TO.P,U5,7*
G04 #@! TO.N,/I7*
X54482000Y-119761000D03*
G04 #@! TO.P,U5,8*
G04 #@! TO.N,/I8*
X54482000Y-121031000D03*
G04 #@! TO.P,U5,9*
G04 #@! TO.N,GND*
X54482000Y-122301000D03*
G04 #@! TO.P,U5,10*
G04 #@! TO.N,/5V*
X63882000Y-122301000D03*
G04 #@! TO.P,U5,11*
G04 #@! TO.N,/C7*
X63882000Y-121031000D03*
G04 #@! TO.P,U5,12*
G04 #@! TO.N,/C6*
X63882000Y-119761000D03*
G04 #@! TO.P,U5,13*
G04 #@! TO.N,/C5*
X63882000Y-118491000D03*
G04 #@! TO.P,U5,14*
G04 #@! TO.N,/C4*
X63882000Y-117221000D03*
G04 #@! TO.P,U5,15*
G04 #@! TO.N,/C3*
X63882000Y-115951000D03*
G04 #@! TO.P,U5,16*
G04 #@! TO.N,/C2*
X63882000Y-114681000D03*
G04 #@! TO.P,U5,17*
G04 #@! TO.N,/C1*
X63882000Y-113411000D03*
G04 #@! TO.P,U5,18*
G04 #@! TO.N,/C0*
X63882000Y-112141000D03*
G04 #@! TD*
D12*
G04 #@! TO.P,U1,1*
G04 #@! TO.N,Net-(R1-Pad2)*
X91440000Y-45085000D03*
G04 #@! TO.P,U1,2*
G04 #@! TO.N,Net-(R18-Pad2)*
X91440000Y-42545000D03*
G04 #@! TO.P,U1,3*
G04 #@! TO.N,GND*
X83820000Y-42545000D03*
G04 #@! TO.P,U1,4*
G04 #@! TO.N,/ZCD*
X83820000Y-45085000D03*
G04 #@! TD*
G04 #@! TO.P,U6,1*
G04 #@! TO.N,Net-(D1-Pad1)*
X83820000Y-52070000D03*
G04 #@! TO.P,U6,2*
G04 #@! TO.N,/C0*
X83820000Y-54610000D03*
G04 #@! TO.P,U6,3*
G04 #@! TO.N,N/C*
X83820000Y-57150000D03*
G04 #@! TO.P,U6,4*
G04 #@! TO.N,Net-(U14-Pad3)*
X91440000Y-57150000D03*
G04 #@! TO.P,U6,5*
G04 #@! TO.N,N/C*
X91440000Y-54610000D03*
G04 #@! TO.P,U6,6*
G04 #@! TO.N,Net-(R10-Pad1)*
X91440000Y-52070000D03*
G04 #@! TD*
G04 #@! TO.P,U7,1*
G04 #@! TO.N,Net-(D2-Pad1)*
X83820000Y-63500000D03*
G04 #@! TO.P,U7,2*
G04 #@! TO.N,/C1*
X83820000Y-66040000D03*
G04 #@! TO.P,U7,3*
G04 #@! TO.N,N/C*
X83820000Y-68580000D03*
G04 #@! TO.P,U7,4*
G04 #@! TO.N,Net-(U15-Pad3)*
X91440000Y-68580000D03*
G04 #@! TO.P,U7,5*
G04 #@! TO.N,N/C*
X91440000Y-66040000D03*
G04 #@! TO.P,U7,6*
G04 #@! TO.N,Net-(R11-Pad1)*
X91440000Y-63500000D03*
G04 #@! TD*
G04 #@! TO.P,U8,1*
G04 #@! TO.N,Net-(D3-Pad1)*
X83820000Y-74930000D03*
G04 #@! TO.P,U8,2*
G04 #@! TO.N,/C2*
X83820000Y-77470000D03*
G04 #@! TO.P,U8,3*
G04 #@! TO.N,N/C*
X83820000Y-80010000D03*
G04 #@! TO.P,U8,4*
G04 #@! TO.N,Net-(U16-Pad3)*
X91440000Y-80010000D03*
G04 #@! TO.P,U8,5*
G04 #@! TO.N,N/C*
X91440000Y-77470000D03*
G04 #@! TO.P,U8,6*
G04 #@! TO.N,Net-(R12-Pad1)*
X91440000Y-74930000D03*
G04 #@! TD*
G04 #@! TO.P,U9,1*
G04 #@! TO.N,Net-(D4-Pad1)*
X83820000Y-86360000D03*
G04 #@! TO.P,U9,2*
G04 #@! TO.N,/C3*
X83820000Y-88900000D03*
G04 #@! TO.P,U9,3*
G04 #@! TO.N,N/C*
X83820000Y-91440000D03*
G04 #@! TO.P,U9,4*
G04 #@! TO.N,Net-(U17-Pad3)*
X91440000Y-91440000D03*
G04 #@! TO.P,U9,5*
G04 #@! TO.N,N/C*
X91440000Y-88900000D03*
G04 #@! TO.P,U9,6*
G04 #@! TO.N,Net-(R13-Pad1)*
X91440000Y-86360000D03*
G04 #@! TD*
G04 #@! TO.P,U10,1*
G04 #@! TO.N,Net-(D5-Pad1)*
X83820000Y-97790000D03*
G04 #@! TO.P,U10,2*
G04 #@! TO.N,/C4*
X83820000Y-100330000D03*
G04 #@! TO.P,U10,3*
G04 #@! TO.N,N/C*
X83820000Y-102870000D03*
G04 #@! TO.P,U10,4*
G04 #@! TO.N,Net-(U10-Pad4)*
X91440000Y-102870000D03*
G04 #@! TO.P,U10,5*
G04 #@! TO.N,N/C*
X91440000Y-100330000D03*
G04 #@! TO.P,U10,6*
G04 #@! TO.N,Net-(R14-Pad1)*
X91440000Y-97790000D03*
G04 #@! TD*
G04 #@! TO.P,U11,1*
G04 #@! TO.N,Net-(D6-Pad1)*
X83820000Y-109220000D03*
G04 #@! TO.P,U11,2*
G04 #@! TO.N,/C5*
X83820000Y-111760000D03*
G04 #@! TO.P,U11,3*
G04 #@! TO.N,N/C*
X83820000Y-114300000D03*
G04 #@! TO.P,U11,4*
G04 #@! TO.N,Net-(U11-Pad4)*
X91440000Y-114300000D03*
G04 #@! TO.P,U11,5*
G04 #@! TO.N,N/C*
X91440000Y-111760000D03*
G04 #@! TO.P,U11,6*
G04 #@! TO.N,Net-(R15-Pad1)*
X91440000Y-109220000D03*
G04 #@! TD*
G04 #@! TO.P,U12,1*
G04 #@! TO.N,Net-(D7-Pad1)*
X83820000Y-120650000D03*
G04 #@! TO.P,U12,2*
G04 #@! TO.N,/C6*
X83820000Y-123190000D03*
G04 #@! TO.P,U12,3*
G04 #@! TO.N,N/C*
X83820000Y-125730000D03*
G04 #@! TO.P,U12,4*
G04 #@! TO.N,Net-(U12-Pad4)*
X91440000Y-125730000D03*
G04 #@! TO.P,U12,5*
G04 #@! TO.N,N/C*
X91440000Y-123190000D03*
G04 #@! TO.P,U12,6*
G04 #@! TO.N,Net-(R16-Pad1)*
X91440000Y-120650000D03*
G04 #@! TD*
G04 #@! TO.P,U13,1*
G04 #@! TO.N,Net-(D8-Pad1)*
X83820000Y-132080000D03*
G04 #@! TO.P,U13,2*
G04 #@! TO.N,/C7*
X83820000Y-134620000D03*
G04 #@! TO.P,U13,3*
G04 #@! TO.N,N/C*
X83820000Y-137160000D03*
G04 #@! TO.P,U13,4*
G04 #@! TO.N,Net-(U13-Pad4)*
X91440000Y-137160000D03*
G04 #@! TO.P,U13,5*
G04 #@! TO.N,N/C*
X91440000Y-134620000D03*
G04 #@! TO.P,U13,6*
G04 #@! TO.N,Net-(R17-Pad1)*
X91440000Y-132080000D03*
G04 #@! TD*
D13*
G04 #@! TO.P,U14,2*
G04 #@! TO.N,Net-(F1-Pad1)*
X99695000Y-57150000D03*
G04 #@! TO.P,U14,3*
G04 #@! TO.N,Net-(U14-Pad3)*
X97155000Y-57150000D03*
G04 #@! TO.P,U14,1*
G04 #@! TO.N,/PH_0*
X102235000Y-57150000D03*
G04 #@! TD*
G04 #@! TO.P,U15,2*
G04 #@! TO.N,Net-(F2-Pad1)*
X99695000Y-68580000D03*
G04 #@! TO.P,U15,3*
G04 #@! TO.N,Net-(U15-Pad3)*
X97155000Y-68580000D03*
G04 #@! TO.P,U15,1*
G04 #@! TO.N,/PH_1*
X102235000Y-68580000D03*
G04 #@! TD*
G04 #@! TO.P,U16,2*
G04 #@! TO.N,Net-(F3-Pad1)*
X99695000Y-80010000D03*
G04 #@! TO.P,U16,3*
G04 #@! TO.N,Net-(U16-Pad3)*
X97155000Y-80010000D03*
G04 #@! TO.P,U16,1*
G04 #@! TO.N,/PH_2*
X102235000Y-80010000D03*
G04 #@! TD*
G04 #@! TO.P,U17,2*
G04 #@! TO.N,Net-(F4-Pad1)*
X99695000Y-91440000D03*
G04 #@! TO.P,U17,3*
G04 #@! TO.N,Net-(U17-Pad3)*
X97155000Y-91440000D03*
G04 #@! TO.P,U17,1*
G04 #@! TO.N,/PH_3*
X102235000Y-91440000D03*
G04 #@! TD*
G04 #@! TO.P,U18,2*
G04 #@! TO.N,Net-(F5-Pad1)*
X99695000Y-102870000D03*
G04 #@! TO.P,U18,3*
G04 #@! TO.N,Net-(U10-Pad4)*
X97155000Y-102870000D03*
G04 #@! TO.P,U18,1*
G04 #@! TO.N,/PH_4*
X102235000Y-102870000D03*
G04 #@! TD*
G04 #@! TO.P,U19,2*
G04 #@! TO.N,Net-(F6-Pad1)*
X99695000Y-114300000D03*
G04 #@! TO.P,U19,3*
G04 #@! TO.N,Net-(U11-Pad4)*
X97155000Y-114300000D03*
G04 #@! TO.P,U19,1*
G04 #@! TO.N,/PH_5*
X102235000Y-114300000D03*
G04 #@! TD*
G04 #@! TO.P,U20,2*
G04 #@! TO.N,Net-(F7-Pad1)*
X99695000Y-125730000D03*
G04 #@! TO.P,U20,3*
G04 #@! TO.N,Net-(U12-Pad4)*
X97155000Y-125730000D03*
G04 #@! TO.P,U20,1*
G04 #@! TO.N,/PH_6*
X102235000Y-125730000D03*
G04 #@! TD*
G04 #@! TO.P,U21,2*
G04 #@! TO.N,Net-(F8-Pad1)*
X99695000Y-137160000D03*
G04 #@! TO.P,U21,3*
G04 #@! TO.N,Net-(U13-Pad4)*
X97155000Y-137160000D03*
G04 #@! TO.P,U21,1*
G04 #@! TO.N,/PH_7*
X102235000Y-137160000D03*
G04 #@! TD*
D14*
G04 #@! TO.P,F1,1*
G04 #@! TO.N,Net-(F1-Pad1)*
X109220000Y-52070000D03*
G04 #@! TO.P,F1,2*
G04 #@! TO.N,/PH_IN*
X131720000Y-52070000D03*
G04 #@! TD*
G04 #@! TO.P,F2,1*
G04 #@! TO.N,Net-(F2-Pad1)*
X109220000Y-63500000D03*
G04 #@! TO.P,F2,2*
G04 #@! TO.N,/PH_IN*
X131720000Y-63500000D03*
G04 #@! TD*
G04 #@! TO.P,F3,1*
G04 #@! TO.N,Net-(F3-Pad1)*
X109220000Y-74930000D03*
G04 #@! TO.P,F3,2*
G04 #@! TO.N,/PH_IN*
X131720000Y-74930000D03*
G04 #@! TD*
G04 #@! TO.P,F4,1*
G04 #@! TO.N,Net-(F4-Pad1)*
X109220000Y-86360000D03*
G04 #@! TO.P,F4,2*
G04 #@! TO.N,/PH_IN*
X131720000Y-86360000D03*
G04 #@! TD*
G04 #@! TO.P,F5,1*
G04 #@! TO.N,Net-(F5-Pad1)*
X109220000Y-97790000D03*
G04 #@! TO.P,F5,2*
G04 #@! TO.N,/PH_IN*
X131720000Y-97790000D03*
G04 #@! TD*
G04 #@! TO.P,F6,1*
G04 #@! TO.N,Net-(F6-Pad1)*
X109220000Y-109220000D03*
G04 #@! TO.P,F6,2*
G04 #@! TO.N,/PH_IN*
X131720000Y-109220000D03*
G04 #@! TD*
G04 #@! TO.P,F7,1*
G04 #@! TO.N,Net-(F7-Pad1)*
X109220000Y-120650000D03*
G04 #@! TO.P,F7,2*
G04 #@! TO.N,/PH_IN*
X131720000Y-120650000D03*
G04 #@! TD*
G04 #@! TO.P,F8,1*
G04 #@! TO.N,Net-(F8-Pad1)*
X109220000Y-132080000D03*
G04 #@! TO.P,F8,2*
G04 #@! TO.N,/PH_IN*
X131720000Y-132080000D03*
G04 #@! TD*
D15*
G04 #@! TO.P,R1,2*
G04 #@! TO.N,Net-(R1-Pad2)*
X95249480Y-45087540D03*
G04 #@! TO.P,R1,1*
G04 #@! TO.N,/PH_IN*
X105409480Y-45087540D03*
G04 #@! TD*
G04 #@! TO.P,R10,2*
G04 #@! TO.N,Net-(F1-Pad1)*
X105410520Y-52067460D03*
G04 #@! TO.P,R10,1*
G04 #@! TO.N,Net-(R10-Pad1)*
X95250520Y-52067460D03*
G04 #@! TD*
G04 #@! TO.P,R11,2*
G04 #@! TO.N,Net-(F2-Pad1)*
X106045520Y-63497460D03*
G04 #@! TO.P,R11,1*
G04 #@! TO.N,Net-(R11-Pad1)*
X95885520Y-63497460D03*
G04 #@! TD*
G04 #@! TO.P,R12,2*
G04 #@! TO.N,Net-(F3-Pad1)*
X105410520Y-74927460D03*
G04 #@! TO.P,R12,1*
G04 #@! TO.N,Net-(R12-Pad1)*
X95250520Y-74927460D03*
G04 #@! TD*
G04 #@! TO.P,R13,2*
G04 #@! TO.N,Net-(F4-Pad1)*
X106045520Y-86357460D03*
G04 #@! TO.P,R13,1*
G04 #@! TO.N,Net-(R13-Pad1)*
X95885520Y-86357460D03*
G04 #@! TD*
G04 #@! TO.P,R14,2*
G04 #@! TO.N,Net-(F5-Pad1)*
X106045520Y-97787460D03*
G04 #@! TO.P,R14,1*
G04 #@! TO.N,Net-(R14-Pad1)*
X95885520Y-97787460D03*
G04 #@! TD*
G04 #@! TO.P,R15,2*
G04 #@! TO.N,Net-(F6-Pad1)*
X106045520Y-109217460D03*
G04 #@! TO.P,R15,1*
G04 #@! TO.N,Net-(R15-Pad1)*
X95885520Y-109217460D03*
G04 #@! TD*
G04 #@! TO.P,R16,2*
G04 #@! TO.N,Net-(F7-Pad1)*
X106045520Y-120647460D03*
G04 #@! TO.P,R16,1*
G04 #@! TO.N,Net-(R16-Pad1)*
X95885520Y-120647460D03*
G04 #@! TD*
G04 #@! TO.P,R17,2*
G04 #@! TO.N,Net-(F8-Pad1)*
X105410520Y-132077460D03*
G04 #@! TO.P,R17,1*
G04 #@! TO.N,Net-(R17-Pad1)*
X95250520Y-132077460D03*
G04 #@! TD*
G04 #@! TO.P,R18,2*
G04 #@! TO.N,Net-(R18-Pad2)*
X100329480Y-42547540D03*
G04 #@! TO.P,R18,1*
G04 #@! TO.N,/N*
X110489480Y-42547540D03*
G04 #@! TD*
D16*
G04 #@! TO.N,/5V*
G04 #@! TO.C,C2*
G36*
X56989505Y-45536204D02*
X57013773Y-45539804D01*
X57037572Y-45545765D01*
X57060671Y-45554030D01*
X57082850Y-45564520D01*
X57103893Y-45577132D01*
X57123599Y-45591747D01*
X57141777Y-45608223D01*
X57158253Y-45626401D01*
X57172868Y-45646107D01*
X57185480Y-45667150D01*
X57195970Y-45689329D01*
X57204235Y-45712428D01*
X57210196Y-45736227D01*
X57213796Y-45760495D01*
X57215000Y-45784999D01*
X57215000Y-46435001D01*
X57213796Y-46459505D01*
X57210196Y-46483773D01*
X57204235Y-46507572D01*
X57195970Y-46530671D01*
X57185480Y-46552850D01*
X57172868Y-46573893D01*
X57158253Y-46593599D01*
X57141777Y-46611777D01*
X57123599Y-46628253D01*
X57103893Y-46642868D01*
X57082850Y-46655480D01*
X57060671Y-46665970D01*
X57037572Y-46674235D01*
X57013773Y-46680196D01*
X56989505Y-46683796D01*
X56965001Y-46685000D01*
X56064999Y-46685000D01*
X56040495Y-46683796D01*
X56016227Y-46680196D01*
X55992428Y-46674235D01*
X55969329Y-46665970D01*
X55947150Y-46655480D01*
X55926107Y-46642868D01*
X55906401Y-46628253D01*
X55888223Y-46611777D01*
X55871747Y-46593599D01*
X55857132Y-46573893D01*
X55844520Y-46552850D01*
X55834030Y-46530671D01*
X55825765Y-46507572D01*
X55819804Y-46483773D01*
X55816204Y-46459505D01*
X55815000Y-46435001D01*
X55815000Y-45784999D01*
X55816204Y-45760495D01*
X55819804Y-45736227D01*
X55825765Y-45712428D01*
X55834030Y-45689329D01*
X55844520Y-45667150D01*
X55857132Y-45646107D01*
X55871747Y-45626401D01*
X55888223Y-45608223D01*
X55906401Y-45591747D01*
X55926107Y-45577132D01*
X55947150Y-45564520D01*
X55969329Y-45554030D01*
X55992428Y-45545765D01*
X56016227Y-45539804D01*
X56040495Y-45536204D01*
X56064999Y-45535000D01*
X56965001Y-45535000D01*
X56989505Y-45536204D01*
X56989505Y-45536204D01*
G37*
D17*
G04 #@! TD*
G04 #@! TO.P,C2,1*
G04 #@! TO.N,/5V*
X56515000Y-46110000D03*
D16*
G04 #@! TO.N,GND*
G04 #@! TO.C,C2*
G36*
X56989505Y-43486204D02*
X57013773Y-43489804D01*
X57037572Y-43495765D01*
X57060671Y-43504030D01*
X57082850Y-43514520D01*
X57103893Y-43527132D01*
X57123599Y-43541747D01*
X57141777Y-43558223D01*
X57158253Y-43576401D01*
X57172868Y-43596107D01*
X57185480Y-43617150D01*
X57195970Y-43639329D01*
X57204235Y-43662428D01*
X57210196Y-43686227D01*
X57213796Y-43710495D01*
X57215000Y-43734999D01*
X57215000Y-44385001D01*
X57213796Y-44409505D01*
X57210196Y-44433773D01*
X57204235Y-44457572D01*
X57195970Y-44480671D01*
X57185480Y-44502850D01*
X57172868Y-44523893D01*
X57158253Y-44543599D01*
X57141777Y-44561777D01*
X57123599Y-44578253D01*
X57103893Y-44592868D01*
X57082850Y-44605480D01*
X57060671Y-44615970D01*
X57037572Y-44624235D01*
X57013773Y-44630196D01*
X56989505Y-44633796D01*
X56965001Y-44635000D01*
X56064999Y-44635000D01*
X56040495Y-44633796D01*
X56016227Y-44630196D01*
X55992428Y-44624235D01*
X55969329Y-44615970D01*
X55947150Y-44605480D01*
X55926107Y-44592868D01*
X55906401Y-44578253D01*
X55888223Y-44561777D01*
X55871747Y-44543599D01*
X55857132Y-44523893D01*
X55844520Y-44502850D01*
X55834030Y-44480671D01*
X55825765Y-44457572D01*
X55819804Y-44433773D01*
X55816204Y-44409505D01*
X55815000Y-44385001D01*
X55815000Y-43734999D01*
X55816204Y-43710495D01*
X55819804Y-43686227D01*
X55825765Y-43662428D01*
X55834030Y-43639329D01*
X55844520Y-43617150D01*
X55857132Y-43596107D01*
X55871747Y-43576401D01*
X55888223Y-43558223D01*
X55906401Y-43541747D01*
X55926107Y-43527132D01*
X55947150Y-43514520D01*
X55969329Y-43504030D01*
X55992428Y-43495765D01*
X56016227Y-43489804D01*
X56040495Y-43486204D01*
X56064999Y-43485000D01*
X56965001Y-43485000D01*
X56989505Y-43486204D01*
X56989505Y-43486204D01*
G37*
D17*
G04 #@! TD*
G04 #@! TO.P,C2,2*
G04 #@! TO.N,GND*
X56515000Y-44060000D03*
D16*
G04 #@! TO.N,GND*
G04 #@! TO.C,C5*
G36*
X53326505Y-87820204D02*
X53350773Y-87823804D01*
X53374572Y-87829765D01*
X53397671Y-87838030D01*
X53419850Y-87848520D01*
X53440893Y-87861132D01*
X53460599Y-87875747D01*
X53478777Y-87892223D01*
X53495253Y-87910401D01*
X53509868Y-87930107D01*
X53522480Y-87951150D01*
X53532970Y-87973329D01*
X53541235Y-87996428D01*
X53547196Y-88020227D01*
X53550796Y-88044495D01*
X53552000Y-88068999D01*
X53552000Y-88969001D01*
X53550796Y-88993505D01*
X53547196Y-89017773D01*
X53541235Y-89041572D01*
X53532970Y-89064671D01*
X53522480Y-89086850D01*
X53509868Y-89107893D01*
X53495253Y-89127599D01*
X53478777Y-89145777D01*
X53460599Y-89162253D01*
X53440893Y-89176868D01*
X53419850Y-89189480D01*
X53397671Y-89199970D01*
X53374572Y-89208235D01*
X53350773Y-89214196D01*
X53326505Y-89217796D01*
X53302001Y-89219000D01*
X52651999Y-89219000D01*
X52627495Y-89217796D01*
X52603227Y-89214196D01*
X52579428Y-89208235D01*
X52556329Y-89199970D01*
X52534150Y-89189480D01*
X52513107Y-89176868D01*
X52493401Y-89162253D01*
X52475223Y-89145777D01*
X52458747Y-89127599D01*
X52444132Y-89107893D01*
X52431520Y-89086850D01*
X52421030Y-89064671D01*
X52412765Y-89041572D01*
X52406804Y-89017773D01*
X52403204Y-88993505D01*
X52402000Y-88969001D01*
X52402000Y-88068999D01*
X52403204Y-88044495D01*
X52406804Y-88020227D01*
X52412765Y-87996428D01*
X52421030Y-87973329D01*
X52431520Y-87951150D01*
X52444132Y-87930107D01*
X52458747Y-87910401D01*
X52475223Y-87892223D01*
X52493401Y-87875747D01*
X52513107Y-87861132D01*
X52534150Y-87848520D01*
X52556329Y-87838030D01*
X52579428Y-87829765D01*
X52603227Y-87823804D01*
X52627495Y-87820204D01*
X52651999Y-87819000D01*
X53302001Y-87819000D01*
X53326505Y-87820204D01*
X53326505Y-87820204D01*
G37*
D17*
G04 #@! TD*
G04 #@! TO.P,C5,2*
G04 #@! TO.N,GND*
X52977000Y-88519000D03*
D16*
G04 #@! TO.N,/3V3*
G04 #@! TO.C,C5*
G36*
X51276505Y-87820204D02*
X51300773Y-87823804D01*
X51324572Y-87829765D01*
X51347671Y-87838030D01*
X51369850Y-87848520D01*
X51390893Y-87861132D01*
X51410599Y-87875747D01*
X51428777Y-87892223D01*
X51445253Y-87910401D01*
X51459868Y-87930107D01*
X51472480Y-87951150D01*
X51482970Y-87973329D01*
X51491235Y-87996428D01*
X51497196Y-88020227D01*
X51500796Y-88044495D01*
X51502000Y-88068999D01*
X51502000Y-88969001D01*
X51500796Y-88993505D01*
X51497196Y-89017773D01*
X51491235Y-89041572D01*
X51482970Y-89064671D01*
X51472480Y-89086850D01*
X51459868Y-89107893D01*
X51445253Y-89127599D01*
X51428777Y-89145777D01*
X51410599Y-89162253D01*
X51390893Y-89176868D01*
X51369850Y-89189480D01*
X51347671Y-89199970D01*
X51324572Y-89208235D01*
X51300773Y-89214196D01*
X51276505Y-89217796D01*
X51252001Y-89219000D01*
X50601999Y-89219000D01*
X50577495Y-89217796D01*
X50553227Y-89214196D01*
X50529428Y-89208235D01*
X50506329Y-89199970D01*
X50484150Y-89189480D01*
X50463107Y-89176868D01*
X50443401Y-89162253D01*
X50425223Y-89145777D01*
X50408747Y-89127599D01*
X50394132Y-89107893D01*
X50381520Y-89086850D01*
X50371030Y-89064671D01*
X50362765Y-89041572D01*
X50356804Y-89017773D01*
X50353204Y-88993505D01*
X50352000Y-88969001D01*
X50352000Y-88068999D01*
X50353204Y-88044495D01*
X50356804Y-88020227D01*
X50362765Y-87996428D01*
X50371030Y-87973329D01*
X50381520Y-87951150D01*
X50394132Y-87930107D01*
X50408747Y-87910401D01*
X50425223Y-87892223D01*
X50443401Y-87875747D01*
X50463107Y-87861132D01*
X50484150Y-87848520D01*
X50506329Y-87838030D01*
X50529428Y-87829765D01*
X50553227Y-87823804D01*
X50577495Y-87820204D01*
X50601999Y-87819000D01*
X51252001Y-87819000D01*
X51276505Y-87820204D01*
X51276505Y-87820204D01*
G37*
D17*
G04 #@! TD*
G04 #@! TO.P,C5,1*
G04 #@! TO.N,/3V3*
X50927000Y-88519000D03*
D16*
G04 #@! TO.N,Net-(D1-Pad1)*
G04 #@! TO.C,D1*
G36*
X79089505Y-51371204D02*
X79113773Y-51374804D01*
X79137572Y-51380765D01*
X79160671Y-51389030D01*
X79182850Y-51399520D01*
X79203893Y-51412132D01*
X79223599Y-51426747D01*
X79241777Y-51443223D01*
X79258253Y-51461401D01*
X79272868Y-51481107D01*
X79285480Y-51502150D01*
X79295970Y-51524329D01*
X79304235Y-51547428D01*
X79310196Y-51571227D01*
X79313796Y-51595495D01*
X79315000Y-51619999D01*
X79315000Y-52520001D01*
X79313796Y-52544505D01*
X79310196Y-52568773D01*
X79304235Y-52592572D01*
X79295970Y-52615671D01*
X79285480Y-52637850D01*
X79272868Y-52658893D01*
X79258253Y-52678599D01*
X79241777Y-52696777D01*
X79223599Y-52713253D01*
X79203893Y-52727868D01*
X79182850Y-52740480D01*
X79160671Y-52750970D01*
X79137572Y-52759235D01*
X79113773Y-52765196D01*
X79089505Y-52768796D01*
X79065001Y-52770000D01*
X78414999Y-52770000D01*
X78390495Y-52768796D01*
X78366227Y-52765196D01*
X78342428Y-52759235D01*
X78319329Y-52750970D01*
X78297150Y-52740480D01*
X78276107Y-52727868D01*
X78256401Y-52713253D01*
X78238223Y-52696777D01*
X78221747Y-52678599D01*
X78207132Y-52658893D01*
X78194520Y-52637850D01*
X78184030Y-52615671D01*
X78175765Y-52592572D01*
X78169804Y-52568773D01*
X78166204Y-52544505D01*
X78165000Y-52520001D01*
X78165000Y-51619999D01*
X78166204Y-51595495D01*
X78169804Y-51571227D01*
X78175765Y-51547428D01*
X78184030Y-51524329D01*
X78194520Y-51502150D01*
X78207132Y-51481107D01*
X78221747Y-51461401D01*
X78238223Y-51443223D01*
X78256401Y-51426747D01*
X78276107Y-51412132D01*
X78297150Y-51399520D01*
X78319329Y-51389030D01*
X78342428Y-51380765D01*
X78366227Y-51374804D01*
X78390495Y-51371204D01*
X78414999Y-51370000D01*
X79065001Y-51370000D01*
X79089505Y-51371204D01*
X79089505Y-51371204D01*
G37*
D17*
G04 #@! TD*
G04 #@! TO.P,D1,1*
G04 #@! TO.N,Net-(D1-Pad1)*
X78740000Y-52070000D03*
D16*
G04 #@! TO.N,Net-(D1-Pad2)*
G04 #@! TO.C,D1*
G36*
X77039505Y-51371204D02*
X77063773Y-51374804D01*
X77087572Y-51380765D01*
X77110671Y-51389030D01*
X77132850Y-51399520D01*
X77153893Y-51412132D01*
X77173599Y-51426747D01*
X77191777Y-51443223D01*
X77208253Y-51461401D01*
X77222868Y-51481107D01*
X77235480Y-51502150D01*
X77245970Y-51524329D01*
X77254235Y-51547428D01*
X77260196Y-51571227D01*
X77263796Y-51595495D01*
X77265000Y-51619999D01*
X77265000Y-52520001D01*
X77263796Y-52544505D01*
X77260196Y-52568773D01*
X77254235Y-52592572D01*
X77245970Y-52615671D01*
X77235480Y-52637850D01*
X77222868Y-52658893D01*
X77208253Y-52678599D01*
X77191777Y-52696777D01*
X77173599Y-52713253D01*
X77153893Y-52727868D01*
X77132850Y-52740480D01*
X77110671Y-52750970D01*
X77087572Y-52759235D01*
X77063773Y-52765196D01*
X77039505Y-52768796D01*
X77015001Y-52770000D01*
X76364999Y-52770000D01*
X76340495Y-52768796D01*
X76316227Y-52765196D01*
X76292428Y-52759235D01*
X76269329Y-52750970D01*
X76247150Y-52740480D01*
X76226107Y-52727868D01*
X76206401Y-52713253D01*
X76188223Y-52696777D01*
X76171747Y-52678599D01*
X76157132Y-52658893D01*
X76144520Y-52637850D01*
X76134030Y-52615671D01*
X76125765Y-52592572D01*
X76119804Y-52568773D01*
X76116204Y-52544505D01*
X76115000Y-52520001D01*
X76115000Y-51619999D01*
X76116204Y-51595495D01*
X76119804Y-51571227D01*
X76125765Y-51547428D01*
X76134030Y-51524329D01*
X76144520Y-51502150D01*
X76157132Y-51481107D01*
X76171747Y-51461401D01*
X76188223Y-51443223D01*
X76206401Y-51426747D01*
X76226107Y-51412132D01*
X76247150Y-51399520D01*
X76269329Y-51389030D01*
X76292428Y-51380765D01*
X76316227Y-51374804D01*
X76340495Y-51371204D01*
X76364999Y-51370000D01*
X77015001Y-51370000D01*
X77039505Y-51371204D01*
X77039505Y-51371204D01*
G37*
D17*
G04 #@! TD*
G04 #@! TO.P,D1,2*
G04 #@! TO.N,Net-(D1-Pad2)*
X76690000Y-52070000D03*
D16*
G04 #@! TO.N,Net-(D2-Pad2)*
G04 #@! TO.C,D2*
G36*
X77039505Y-62801204D02*
X77063773Y-62804804D01*
X77087572Y-62810765D01*
X77110671Y-62819030D01*
X77132850Y-62829520D01*
X77153893Y-62842132D01*
X77173599Y-62856747D01*
X77191777Y-62873223D01*
X77208253Y-62891401D01*
X77222868Y-62911107D01*
X77235480Y-62932150D01*
X77245970Y-62954329D01*
X77254235Y-62977428D01*
X77260196Y-63001227D01*
X77263796Y-63025495D01*
X77265000Y-63049999D01*
X77265000Y-63950001D01*
X77263796Y-63974505D01*
X77260196Y-63998773D01*
X77254235Y-64022572D01*
X77245970Y-64045671D01*
X77235480Y-64067850D01*
X77222868Y-64088893D01*
X77208253Y-64108599D01*
X77191777Y-64126777D01*
X77173599Y-64143253D01*
X77153893Y-64157868D01*
X77132850Y-64170480D01*
X77110671Y-64180970D01*
X77087572Y-64189235D01*
X77063773Y-64195196D01*
X77039505Y-64198796D01*
X77015001Y-64200000D01*
X76364999Y-64200000D01*
X76340495Y-64198796D01*
X76316227Y-64195196D01*
X76292428Y-64189235D01*
X76269329Y-64180970D01*
X76247150Y-64170480D01*
X76226107Y-64157868D01*
X76206401Y-64143253D01*
X76188223Y-64126777D01*
X76171747Y-64108599D01*
X76157132Y-64088893D01*
X76144520Y-64067850D01*
X76134030Y-64045671D01*
X76125765Y-64022572D01*
X76119804Y-63998773D01*
X76116204Y-63974505D01*
X76115000Y-63950001D01*
X76115000Y-63049999D01*
X76116204Y-63025495D01*
X76119804Y-63001227D01*
X76125765Y-62977428D01*
X76134030Y-62954329D01*
X76144520Y-62932150D01*
X76157132Y-62911107D01*
X76171747Y-62891401D01*
X76188223Y-62873223D01*
X76206401Y-62856747D01*
X76226107Y-62842132D01*
X76247150Y-62829520D01*
X76269329Y-62819030D01*
X76292428Y-62810765D01*
X76316227Y-62804804D01*
X76340495Y-62801204D01*
X76364999Y-62800000D01*
X77015001Y-62800000D01*
X77039505Y-62801204D01*
X77039505Y-62801204D01*
G37*
D17*
G04 #@! TD*
G04 #@! TO.P,D2,2*
G04 #@! TO.N,Net-(D2-Pad2)*
X76690000Y-63500000D03*
D16*
G04 #@! TO.N,Net-(D2-Pad1)*
G04 #@! TO.C,D2*
G36*
X79089505Y-62801204D02*
X79113773Y-62804804D01*
X79137572Y-62810765D01*
X79160671Y-62819030D01*
X79182850Y-62829520D01*
X79203893Y-62842132D01*
X79223599Y-62856747D01*
X79241777Y-62873223D01*
X79258253Y-62891401D01*
X79272868Y-62911107D01*
X79285480Y-62932150D01*
X79295970Y-62954329D01*
X79304235Y-62977428D01*
X79310196Y-63001227D01*
X79313796Y-63025495D01*
X79315000Y-63049999D01*
X79315000Y-63950001D01*
X79313796Y-63974505D01*
X79310196Y-63998773D01*
X79304235Y-64022572D01*
X79295970Y-64045671D01*
X79285480Y-64067850D01*
X79272868Y-64088893D01*
X79258253Y-64108599D01*
X79241777Y-64126777D01*
X79223599Y-64143253D01*
X79203893Y-64157868D01*
X79182850Y-64170480D01*
X79160671Y-64180970D01*
X79137572Y-64189235D01*
X79113773Y-64195196D01*
X79089505Y-64198796D01*
X79065001Y-64200000D01*
X78414999Y-64200000D01*
X78390495Y-64198796D01*
X78366227Y-64195196D01*
X78342428Y-64189235D01*
X78319329Y-64180970D01*
X78297150Y-64170480D01*
X78276107Y-64157868D01*
X78256401Y-64143253D01*
X78238223Y-64126777D01*
X78221747Y-64108599D01*
X78207132Y-64088893D01*
X78194520Y-64067850D01*
X78184030Y-64045671D01*
X78175765Y-64022572D01*
X78169804Y-63998773D01*
X78166204Y-63974505D01*
X78165000Y-63950001D01*
X78165000Y-63049999D01*
X78166204Y-63025495D01*
X78169804Y-63001227D01*
X78175765Y-62977428D01*
X78184030Y-62954329D01*
X78194520Y-62932150D01*
X78207132Y-62911107D01*
X78221747Y-62891401D01*
X78238223Y-62873223D01*
X78256401Y-62856747D01*
X78276107Y-62842132D01*
X78297150Y-62829520D01*
X78319329Y-62819030D01*
X78342428Y-62810765D01*
X78366227Y-62804804D01*
X78390495Y-62801204D01*
X78414999Y-62800000D01*
X79065001Y-62800000D01*
X79089505Y-62801204D01*
X79089505Y-62801204D01*
G37*
D17*
G04 #@! TD*
G04 #@! TO.P,D2,1*
G04 #@! TO.N,Net-(D2-Pad1)*
X78740000Y-63500000D03*
D16*
G04 #@! TO.N,Net-(D3-Pad1)*
G04 #@! TO.C,D3*
G36*
X79089505Y-74231204D02*
X79113773Y-74234804D01*
X79137572Y-74240765D01*
X79160671Y-74249030D01*
X79182850Y-74259520D01*
X79203893Y-74272132D01*
X79223599Y-74286747D01*
X79241777Y-74303223D01*
X79258253Y-74321401D01*
X79272868Y-74341107D01*
X79285480Y-74362150D01*
X79295970Y-74384329D01*
X79304235Y-74407428D01*
X79310196Y-74431227D01*
X79313796Y-74455495D01*
X79315000Y-74479999D01*
X79315000Y-75380001D01*
X79313796Y-75404505D01*
X79310196Y-75428773D01*
X79304235Y-75452572D01*
X79295970Y-75475671D01*
X79285480Y-75497850D01*
X79272868Y-75518893D01*
X79258253Y-75538599D01*
X79241777Y-75556777D01*
X79223599Y-75573253D01*
X79203893Y-75587868D01*
X79182850Y-75600480D01*
X79160671Y-75610970D01*
X79137572Y-75619235D01*
X79113773Y-75625196D01*
X79089505Y-75628796D01*
X79065001Y-75630000D01*
X78414999Y-75630000D01*
X78390495Y-75628796D01*
X78366227Y-75625196D01*
X78342428Y-75619235D01*
X78319329Y-75610970D01*
X78297150Y-75600480D01*
X78276107Y-75587868D01*
X78256401Y-75573253D01*
X78238223Y-75556777D01*
X78221747Y-75538599D01*
X78207132Y-75518893D01*
X78194520Y-75497850D01*
X78184030Y-75475671D01*
X78175765Y-75452572D01*
X78169804Y-75428773D01*
X78166204Y-75404505D01*
X78165000Y-75380001D01*
X78165000Y-74479999D01*
X78166204Y-74455495D01*
X78169804Y-74431227D01*
X78175765Y-74407428D01*
X78184030Y-74384329D01*
X78194520Y-74362150D01*
X78207132Y-74341107D01*
X78221747Y-74321401D01*
X78238223Y-74303223D01*
X78256401Y-74286747D01*
X78276107Y-74272132D01*
X78297150Y-74259520D01*
X78319329Y-74249030D01*
X78342428Y-74240765D01*
X78366227Y-74234804D01*
X78390495Y-74231204D01*
X78414999Y-74230000D01*
X79065001Y-74230000D01*
X79089505Y-74231204D01*
X79089505Y-74231204D01*
G37*
D17*
G04 #@! TD*
G04 #@! TO.P,D3,1*
G04 #@! TO.N,Net-(D3-Pad1)*
X78740000Y-74930000D03*
D16*
G04 #@! TO.N,Net-(D3-Pad2)*
G04 #@! TO.C,D3*
G36*
X77039505Y-74231204D02*
X77063773Y-74234804D01*
X77087572Y-74240765D01*
X77110671Y-74249030D01*
X77132850Y-74259520D01*
X77153893Y-74272132D01*
X77173599Y-74286747D01*
X77191777Y-74303223D01*
X77208253Y-74321401D01*
X77222868Y-74341107D01*
X77235480Y-74362150D01*
X77245970Y-74384329D01*
X77254235Y-74407428D01*
X77260196Y-74431227D01*
X77263796Y-74455495D01*
X77265000Y-74479999D01*
X77265000Y-75380001D01*
X77263796Y-75404505D01*
X77260196Y-75428773D01*
X77254235Y-75452572D01*
X77245970Y-75475671D01*
X77235480Y-75497850D01*
X77222868Y-75518893D01*
X77208253Y-75538599D01*
X77191777Y-75556777D01*
X77173599Y-75573253D01*
X77153893Y-75587868D01*
X77132850Y-75600480D01*
X77110671Y-75610970D01*
X77087572Y-75619235D01*
X77063773Y-75625196D01*
X77039505Y-75628796D01*
X77015001Y-75630000D01*
X76364999Y-75630000D01*
X76340495Y-75628796D01*
X76316227Y-75625196D01*
X76292428Y-75619235D01*
X76269329Y-75610970D01*
X76247150Y-75600480D01*
X76226107Y-75587868D01*
X76206401Y-75573253D01*
X76188223Y-75556777D01*
X76171747Y-75538599D01*
X76157132Y-75518893D01*
X76144520Y-75497850D01*
X76134030Y-75475671D01*
X76125765Y-75452572D01*
X76119804Y-75428773D01*
X76116204Y-75404505D01*
X76115000Y-75380001D01*
X76115000Y-74479999D01*
X76116204Y-74455495D01*
X76119804Y-74431227D01*
X76125765Y-74407428D01*
X76134030Y-74384329D01*
X76144520Y-74362150D01*
X76157132Y-74341107D01*
X76171747Y-74321401D01*
X76188223Y-74303223D01*
X76206401Y-74286747D01*
X76226107Y-74272132D01*
X76247150Y-74259520D01*
X76269329Y-74249030D01*
X76292428Y-74240765D01*
X76316227Y-74234804D01*
X76340495Y-74231204D01*
X76364999Y-74230000D01*
X77015001Y-74230000D01*
X77039505Y-74231204D01*
X77039505Y-74231204D01*
G37*
D17*
G04 #@! TD*
G04 #@! TO.P,D3,2*
G04 #@! TO.N,Net-(D3-Pad2)*
X76690000Y-74930000D03*
D16*
G04 #@! TO.N,Net-(D4-Pad2)*
G04 #@! TO.C,D4*
G36*
X77039505Y-85661204D02*
X77063773Y-85664804D01*
X77087572Y-85670765D01*
X77110671Y-85679030D01*
X77132850Y-85689520D01*
X77153893Y-85702132D01*
X77173599Y-85716747D01*
X77191777Y-85733223D01*
X77208253Y-85751401D01*
X77222868Y-85771107D01*
X77235480Y-85792150D01*
X77245970Y-85814329D01*
X77254235Y-85837428D01*
X77260196Y-85861227D01*
X77263796Y-85885495D01*
X77265000Y-85909999D01*
X77265000Y-86810001D01*
X77263796Y-86834505D01*
X77260196Y-86858773D01*
X77254235Y-86882572D01*
X77245970Y-86905671D01*
X77235480Y-86927850D01*
X77222868Y-86948893D01*
X77208253Y-86968599D01*
X77191777Y-86986777D01*
X77173599Y-87003253D01*
X77153893Y-87017868D01*
X77132850Y-87030480D01*
X77110671Y-87040970D01*
X77087572Y-87049235D01*
X77063773Y-87055196D01*
X77039505Y-87058796D01*
X77015001Y-87060000D01*
X76364999Y-87060000D01*
X76340495Y-87058796D01*
X76316227Y-87055196D01*
X76292428Y-87049235D01*
X76269329Y-87040970D01*
X76247150Y-87030480D01*
X76226107Y-87017868D01*
X76206401Y-87003253D01*
X76188223Y-86986777D01*
X76171747Y-86968599D01*
X76157132Y-86948893D01*
X76144520Y-86927850D01*
X76134030Y-86905671D01*
X76125765Y-86882572D01*
X76119804Y-86858773D01*
X76116204Y-86834505D01*
X76115000Y-86810001D01*
X76115000Y-85909999D01*
X76116204Y-85885495D01*
X76119804Y-85861227D01*
X76125765Y-85837428D01*
X76134030Y-85814329D01*
X76144520Y-85792150D01*
X76157132Y-85771107D01*
X76171747Y-85751401D01*
X76188223Y-85733223D01*
X76206401Y-85716747D01*
X76226107Y-85702132D01*
X76247150Y-85689520D01*
X76269329Y-85679030D01*
X76292428Y-85670765D01*
X76316227Y-85664804D01*
X76340495Y-85661204D01*
X76364999Y-85660000D01*
X77015001Y-85660000D01*
X77039505Y-85661204D01*
X77039505Y-85661204D01*
G37*
D17*
G04 #@! TD*
G04 #@! TO.P,D4,2*
G04 #@! TO.N,Net-(D4-Pad2)*
X76690000Y-86360000D03*
D16*
G04 #@! TO.N,Net-(D4-Pad1)*
G04 #@! TO.C,D4*
G36*
X79089505Y-85661204D02*
X79113773Y-85664804D01*
X79137572Y-85670765D01*
X79160671Y-85679030D01*
X79182850Y-85689520D01*
X79203893Y-85702132D01*
X79223599Y-85716747D01*
X79241777Y-85733223D01*
X79258253Y-85751401D01*
X79272868Y-85771107D01*
X79285480Y-85792150D01*
X79295970Y-85814329D01*
X79304235Y-85837428D01*
X79310196Y-85861227D01*
X79313796Y-85885495D01*
X79315000Y-85909999D01*
X79315000Y-86810001D01*
X79313796Y-86834505D01*
X79310196Y-86858773D01*
X79304235Y-86882572D01*
X79295970Y-86905671D01*
X79285480Y-86927850D01*
X79272868Y-86948893D01*
X79258253Y-86968599D01*
X79241777Y-86986777D01*
X79223599Y-87003253D01*
X79203893Y-87017868D01*
X79182850Y-87030480D01*
X79160671Y-87040970D01*
X79137572Y-87049235D01*
X79113773Y-87055196D01*
X79089505Y-87058796D01*
X79065001Y-87060000D01*
X78414999Y-87060000D01*
X78390495Y-87058796D01*
X78366227Y-87055196D01*
X78342428Y-87049235D01*
X78319329Y-87040970D01*
X78297150Y-87030480D01*
X78276107Y-87017868D01*
X78256401Y-87003253D01*
X78238223Y-86986777D01*
X78221747Y-86968599D01*
X78207132Y-86948893D01*
X78194520Y-86927850D01*
X78184030Y-86905671D01*
X78175765Y-86882572D01*
X78169804Y-86858773D01*
X78166204Y-86834505D01*
X78165000Y-86810001D01*
X78165000Y-85909999D01*
X78166204Y-85885495D01*
X78169804Y-85861227D01*
X78175765Y-85837428D01*
X78184030Y-85814329D01*
X78194520Y-85792150D01*
X78207132Y-85771107D01*
X78221747Y-85751401D01*
X78238223Y-85733223D01*
X78256401Y-85716747D01*
X78276107Y-85702132D01*
X78297150Y-85689520D01*
X78319329Y-85679030D01*
X78342428Y-85670765D01*
X78366227Y-85664804D01*
X78390495Y-85661204D01*
X78414999Y-85660000D01*
X79065001Y-85660000D01*
X79089505Y-85661204D01*
X79089505Y-85661204D01*
G37*
D17*
G04 #@! TD*
G04 #@! TO.P,D4,1*
G04 #@! TO.N,Net-(D4-Pad1)*
X78740000Y-86360000D03*
D16*
G04 #@! TO.N,Net-(D5-Pad1)*
G04 #@! TO.C,D5*
G36*
X79089505Y-97091204D02*
X79113773Y-97094804D01*
X79137572Y-97100765D01*
X79160671Y-97109030D01*
X79182850Y-97119520D01*
X79203893Y-97132132D01*
X79223599Y-97146747D01*
X79241777Y-97163223D01*
X79258253Y-97181401D01*
X79272868Y-97201107D01*
X79285480Y-97222150D01*
X79295970Y-97244329D01*
X79304235Y-97267428D01*
X79310196Y-97291227D01*
X79313796Y-97315495D01*
X79315000Y-97339999D01*
X79315000Y-98240001D01*
X79313796Y-98264505D01*
X79310196Y-98288773D01*
X79304235Y-98312572D01*
X79295970Y-98335671D01*
X79285480Y-98357850D01*
X79272868Y-98378893D01*
X79258253Y-98398599D01*
X79241777Y-98416777D01*
X79223599Y-98433253D01*
X79203893Y-98447868D01*
X79182850Y-98460480D01*
X79160671Y-98470970D01*
X79137572Y-98479235D01*
X79113773Y-98485196D01*
X79089505Y-98488796D01*
X79065001Y-98490000D01*
X78414999Y-98490000D01*
X78390495Y-98488796D01*
X78366227Y-98485196D01*
X78342428Y-98479235D01*
X78319329Y-98470970D01*
X78297150Y-98460480D01*
X78276107Y-98447868D01*
X78256401Y-98433253D01*
X78238223Y-98416777D01*
X78221747Y-98398599D01*
X78207132Y-98378893D01*
X78194520Y-98357850D01*
X78184030Y-98335671D01*
X78175765Y-98312572D01*
X78169804Y-98288773D01*
X78166204Y-98264505D01*
X78165000Y-98240001D01*
X78165000Y-97339999D01*
X78166204Y-97315495D01*
X78169804Y-97291227D01*
X78175765Y-97267428D01*
X78184030Y-97244329D01*
X78194520Y-97222150D01*
X78207132Y-97201107D01*
X78221747Y-97181401D01*
X78238223Y-97163223D01*
X78256401Y-97146747D01*
X78276107Y-97132132D01*
X78297150Y-97119520D01*
X78319329Y-97109030D01*
X78342428Y-97100765D01*
X78366227Y-97094804D01*
X78390495Y-97091204D01*
X78414999Y-97090000D01*
X79065001Y-97090000D01*
X79089505Y-97091204D01*
X79089505Y-97091204D01*
G37*
D17*
G04 #@! TD*
G04 #@! TO.P,D5,1*
G04 #@! TO.N,Net-(D5-Pad1)*
X78740000Y-97790000D03*
D16*
G04 #@! TO.N,Net-(D5-Pad2)*
G04 #@! TO.C,D5*
G36*
X77039505Y-97091204D02*
X77063773Y-97094804D01*
X77087572Y-97100765D01*
X77110671Y-97109030D01*
X77132850Y-97119520D01*
X77153893Y-97132132D01*
X77173599Y-97146747D01*
X77191777Y-97163223D01*
X77208253Y-97181401D01*
X77222868Y-97201107D01*
X77235480Y-97222150D01*
X77245970Y-97244329D01*
X77254235Y-97267428D01*
X77260196Y-97291227D01*
X77263796Y-97315495D01*
X77265000Y-97339999D01*
X77265000Y-98240001D01*
X77263796Y-98264505D01*
X77260196Y-98288773D01*
X77254235Y-98312572D01*
X77245970Y-98335671D01*
X77235480Y-98357850D01*
X77222868Y-98378893D01*
X77208253Y-98398599D01*
X77191777Y-98416777D01*
X77173599Y-98433253D01*
X77153893Y-98447868D01*
X77132850Y-98460480D01*
X77110671Y-98470970D01*
X77087572Y-98479235D01*
X77063773Y-98485196D01*
X77039505Y-98488796D01*
X77015001Y-98490000D01*
X76364999Y-98490000D01*
X76340495Y-98488796D01*
X76316227Y-98485196D01*
X76292428Y-98479235D01*
X76269329Y-98470970D01*
X76247150Y-98460480D01*
X76226107Y-98447868D01*
X76206401Y-98433253D01*
X76188223Y-98416777D01*
X76171747Y-98398599D01*
X76157132Y-98378893D01*
X76144520Y-98357850D01*
X76134030Y-98335671D01*
X76125765Y-98312572D01*
X76119804Y-98288773D01*
X76116204Y-98264505D01*
X76115000Y-98240001D01*
X76115000Y-97339999D01*
X76116204Y-97315495D01*
X76119804Y-97291227D01*
X76125765Y-97267428D01*
X76134030Y-97244329D01*
X76144520Y-97222150D01*
X76157132Y-97201107D01*
X76171747Y-97181401D01*
X76188223Y-97163223D01*
X76206401Y-97146747D01*
X76226107Y-97132132D01*
X76247150Y-97119520D01*
X76269329Y-97109030D01*
X76292428Y-97100765D01*
X76316227Y-97094804D01*
X76340495Y-97091204D01*
X76364999Y-97090000D01*
X77015001Y-97090000D01*
X77039505Y-97091204D01*
X77039505Y-97091204D01*
G37*
D17*
G04 #@! TD*
G04 #@! TO.P,D5,2*
G04 #@! TO.N,Net-(D5-Pad2)*
X76690000Y-97790000D03*
D16*
G04 #@! TO.N,Net-(D6-Pad1)*
G04 #@! TO.C,D6*
G36*
X79089505Y-108521204D02*
X79113773Y-108524804D01*
X79137572Y-108530765D01*
X79160671Y-108539030D01*
X79182850Y-108549520D01*
X79203893Y-108562132D01*
X79223599Y-108576747D01*
X79241777Y-108593223D01*
X79258253Y-108611401D01*
X79272868Y-108631107D01*
X79285480Y-108652150D01*
X79295970Y-108674329D01*
X79304235Y-108697428D01*
X79310196Y-108721227D01*
X79313796Y-108745495D01*
X79315000Y-108769999D01*
X79315000Y-109670001D01*
X79313796Y-109694505D01*
X79310196Y-109718773D01*
X79304235Y-109742572D01*
X79295970Y-109765671D01*
X79285480Y-109787850D01*
X79272868Y-109808893D01*
X79258253Y-109828599D01*
X79241777Y-109846777D01*
X79223599Y-109863253D01*
X79203893Y-109877868D01*
X79182850Y-109890480D01*
X79160671Y-109900970D01*
X79137572Y-109909235D01*
X79113773Y-109915196D01*
X79089505Y-109918796D01*
X79065001Y-109920000D01*
X78414999Y-109920000D01*
X78390495Y-109918796D01*
X78366227Y-109915196D01*
X78342428Y-109909235D01*
X78319329Y-109900970D01*
X78297150Y-109890480D01*
X78276107Y-109877868D01*
X78256401Y-109863253D01*
X78238223Y-109846777D01*
X78221747Y-109828599D01*
X78207132Y-109808893D01*
X78194520Y-109787850D01*
X78184030Y-109765671D01*
X78175765Y-109742572D01*
X78169804Y-109718773D01*
X78166204Y-109694505D01*
X78165000Y-109670001D01*
X78165000Y-108769999D01*
X78166204Y-108745495D01*
X78169804Y-108721227D01*
X78175765Y-108697428D01*
X78184030Y-108674329D01*
X78194520Y-108652150D01*
X78207132Y-108631107D01*
X78221747Y-108611401D01*
X78238223Y-108593223D01*
X78256401Y-108576747D01*
X78276107Y-108562132D01*
X78297150Y-108549520D01*
X78319329Y-108539030D01*
X78342428Y-108530765D01*
X78366227Y-108524804D01*
X78390495Y-108521204D01*
X78414999Y-108520000D01*
X79065001Y-108520000D01*
X79089505Y-108521204D01*
X79089505Y-108521204D01*
G37*
D17*
G04 #@! TD*
G04 #@! TO.P,D6,1*
G04 #@! TO.N,Net-(D6-Pad1)*
X78740000Y-109220000D03*
D16*
G04 #@! TO.N,Net-(D6-Pad2)*
G04 #@! TO.C,D6*
G36*
X77039505Y-108521204D02*
X77063773Y-108524804D01*
X77087572Y-108530765D01*
X77110671Y-108539030D01*
X77132850Y-108549520D01*
X77153893Y-108562132D01*
X77173599Y-108576747D01*
X77191777Y-108593223D01*
X77208253Y-108611401D01*
X77222868Y-108631107D01*
X77235480Y-108652150D01*
X77245970Y-108674329D01*
X77254235Y-108697428D01*
X77260196Y-108721227D01*
X77263796Y-108745495D01*
X77265000Y-108769999D01*
X77265000Y-109670001D01*
X77263796Y-109694505D01*
X77260196Y-109718773D01*
X77254235Y-109742572D01*
X77245970Y-109765671D01*
X77235480Y-109787850D01*
X77222868Y-109808893D01*
X77208253Y-109828599D01*
X77191777Y-109846777D01*
X77173599Y-109863253D01*
X77153893Y-109877868D01*
X77132850Y-109890480D01*
X77110671Y-109900970D01*
X77087572Y-109909235D01*
X77063773Y-109915196D01*
X77039505Y-109918796D01*
X77015001Y-109920000D01*
X76364999Y-109920000D01*
X76340495Y-109918796D01*
X76316227Y-109915196D01*
X76292428Y-109909235D01*
X76269329Y-109900970D01*
X76247150Y-109890480D01*
X76226107Y-109877868D01*
X76206401Y-109863253D01*
X76188223Y-109846777D01*
X76171747Y-109828599D01*
X76157132Y-109808893D01*
X76144520Y-109787850D01*
X76134030Y-109765671D01*
X76125765Y-109742572D01*
X76119804Y-109718773D01*
X76116204Y-109694505D01*
X76115000Y-109670001D01*
X76115000Y-108769999D01*
X76116204Y-108745495D01*
X76119804Y-108721227D01*
X76125765Y-108697428D01*
X76134030Y-108674329D01*
X76144520Y-108652150D01*
X76157132Y-108631107D01*
X76171747Y-108611401D01*
X76188223Y-108593223D01*
X76206401Y-108576747D01*
X76226107Y-108562132D01*
X76247150Y-108549520D01*
X76269329Y-108539030D01*
X76292428Y-108530765D01*
X76316227Y-108524804D01*
X76340495Y-108521204D01*
X76364999Y-108520000D01*
X77015001Y-108520000D01*
X77039505Y-108521204D01*
X77039505Y-108521204D01*
G37*
D17*
G04 #@! TD*
G04 #@! TO.P,D6,2*
G04 #@! TO.N,Net-(D6-Pad2)*
X76690000Y-109220000D03*
D16*
G04 #@! TO.N,Net-(D7-Pad2)*
G04 #@! TO.C,D7*
G36*
X76794505Y-119951204D02*
X76818773Y-119954804D01*
X76842572Y-119960765D01*
X76865671Y-119969030D01*
X76887850Y-119979520D01*
X76908893Y-119992132D01*
X76928599Y-120006747D01*
X76946777Y-120023223D01*
X76963253Y-120041401D01*
X76977868Y-120061107D01*
X76990480Y-120082150D01*
X77000970Y-120104329D01*
X77009235Y-120127428D01*
X77015196Y-120151227D01*
X77018796Y-120175495D01*
X77020000Y-120199999D01*
X77020000Y-121100001D01*
X77018796Y-121124505D01*
X77015196Y-121148773D01*
X77009235Y-121172572D01*
X77000970Y-121195671D01*
X76990480Y-121217850D01*
X76977868Y-121238893D01*
X76963253Y-121258599D01*
X76946777Y-121276777D01*
X76928599Y-121293253D01*
X76908893Y-121307868D01*
X76887850Y-121320480D01*
X76865671Y-121330970D01*
X76842572Y-121339235D01*
X76818773Y-121345196D01*
X76794505Y-121348796D01*
X76770001Y-121350000D01*
X76119999Y-121350000D01*
X76095495Y-121348796D01*
X76071227Y-121345196D01*
X76047428Y-121339235D01*
X76024329Y-121330970D01*
X76002150Y-121320480D01*
X75981107Y-121307868D01*
X75961401Y-121293253D01*
X75943223Y-121276777D01*
X75926747Y-121258599D01*
X75912132Y-121238893D01*
X75899520Y-121217850D01*
X75889030Y-121195671D01*
X75880765Y-121172572D01*
X75874804Y-121148773D01*
X75871204Y-121124505D01*
X75870000Y-121100001D01*
X75870000Y-120199999D01*
X75871204Y-120175495D01*
X75874804Y-120151227D01*
X75880765Y-120127428D01*
X75889030Y-120104329D01*
X75899520Y-120082150D01*
X75912132Y-120061107D01*
X75926747Y-120041401D01*
X75943223Y-120023223D01*
X75961401Y-120006747D01*
X75981107Y-119992132D01*
X76002150Y-119979520D01*
X76024329Y-119969030D01*
X76047428Y-119960765D01*
X76071227Y-119954804D01*
X76095495Y-119951204D01*
X76119999Y-119950000D01*
X76770001Y-119950000D01*
X76794505Y-119951204D01*
X76794505Y-119951204D01*
G37*
D17*
G04 #@! TD*
G04 #@! TO.P,D7,2*
G04 #@! TO.N,Net-(D7-Pad2)*
X76445000Y-120650000D03*
D16*
G04 #@! TO.N,Net-(D7-Pad1)*
G04 #@! TO.C,D7*
G36*
X78844505Y-119951204D02*
X78868773Y-119954804D01*
X78892572Y-119960765D01*
X78915671Y-119969030D01*
X78937850Y-119979520D01*
X78958893Y-119992132D01*
X78978599Y-120006747D01*
X78996777Y-120023223D01*
X79013253Y-120041401D01*
X79027868Y-120061107D01*
X79040480Y-120082150D01*
X79050970Y-120104329D01*
X79059235Y-120127428D01*
X79065196Y-120151227D01*
X79068796Y-120175495D01*
X79070000Y-120199999D01*
X79070000Y-121100001D01*
X79068796Y-121124505D01*
X79065196Y-121148773D01*
X79059235Y-121172572D01*
X79050970Y-121195671D01*
X79040480Y-121217850D01*
X79027868Y-121238893D01*
X79013253Y-121258599D01*
X78996777Y-121276777D01*
X78978599Y-121293253D01*
X78958893Y-121307868D01*
X78937850Y-121320480D01*
X78915671Y-121330970D01*
X78892572Y-121339235D01*
X78868773Y-121345196D01*
X78844505Y-121348796D01*
X78820001Y-121350000D01*
X78169999Y-121350000D01*
X78145495Y-121348796D01*
X78121227Y-121345196D01*
X78097428Y-121339235D01*
X78074329Y-121330970D01*
X78052150Y-121320480D01*
X78031107Y-121307868D01*
X78011401Y-121293253D01*
X77993223Y-121276777D01*
X77976747Y-121258599D01*
X77962132Y-121238893D01*
X77949520Y-121217850D01*
X77939030Y-121195671D01*
X77930765Y-121172572D01*
X77924804Y-121148773D01*
X77921204Y-121124505D01*
X77920000Y-121100001D01*
X77920000Y-120199999D01*
X77921204Y-120175495D01*
X77924804Y-120151227D01*
X77930765Y-120127428D01*
X77939030Y-120104329D01*
X77949520Y-120082150D01*
X77962132Y-120061107D01*
X77976747Y-120041401D01*
X77993223Y-120023223D01*
X78011401Y-120006747D01*
X78031107Y-119992132D01*
X78052150Y-119979520D01*
X78074329Y-119969030D01*
X78097428Y-119960765D01*
X78121227Y-119954804D01*
X78145495Y-119951204D01*
X78169999Y-119950000D01*
X78820001Y-119950000D01*
X78844505Y-119951204D01*
X78844505Y-119951204D01*
G37*
D17*
G04 #@! TD*
G04 #@! TO.P,D7,1*
G04 #@! TO.N,Net-(D7-Pad1)*
X78495000Y-120650000D03*
D16*
G04 #@! TO.N,Net-(D8-Pad2)*
G04 #@! TO.C,D8*
G36*
X77039505Y-131381204D02*
X77063773Y-131384804D01*
X77087572Y-131390765D01*
X77110671Y-131399030D01*
X77132850Y-131409520D01*
X77153893Y-131422132D01*
X77173599Y-131436747D01*
X77191777Y-131453223D01*
X77208253Y-131471401D01*
X77222868Y-131491107D01*
X77235480Y-131512150D01*
X77245970Y-131534329D01*
X77254235Y-131557428D01*
X77260196Y-131581227D01*
X77263796Y-131605495D01*
X77265000Y-131629999D01*
X77265000Y-132530001D01*
X77263796Y-132554505D01*
X77260196Y-132578773D01*
X77254235Y-132602572D01*
X77245970Y-132625671D01*
X77235480Y-132647850D01*
X77222868Y-132668893D01*
X77208253Y-132688599D01*
X77191777Y-132706777D01*
X77173599Y-132723253D01*
X77153893Y-132737868D01*
X77132850Y-132750480D01*
X77110671Y-132760970D01*
X77087572Y-132769235D01*
X77063773Y-132775196D01*
X77039505Y-132778796D01*
X77015001Y-132780000D01*
X76364999Y-132780000D01*
X76340495Y-132778796D01*
X76316227Y-132775196D01*
X76292428Y-132769235D01*
X76269329Y-132760970D01*
X76247150Y-132750480D01*
X76226107Y-132737868D01*
X76206401Y-132723253D01*
X76188223Y-132706777D01*
X76171747Y-132688599D01*
X76157132Y-132668893D01*
X76144520Y-132647850D01*
X76134030Y-132625671D01*
X76125765Y-132602572D01*
X76119804Y-132578773D01*
X76116204Y-132554505D01*
X76115000Y-132530001D01*
X76115000Y-131629999D01*
X76116204Y-131605495D01*
X76119804Y-131581227D01*
X76125765Y-131557428D01*
X76134030Y-131534329D01*
X76144520Y-131512150D01*
X76157132Y-131491107D01*
X76171747Y-131471401D01*
X76188223Y-131453223D01*
X76206401Y-131436747D01*
X76226107Y-131422132D01*
X76247150Y-131409520D01*
X76269329Y-131399030D01*
X76292428Y-131390765D01*
X76316227Y-131384804D01*
X76340495Y-131381204D01*
X76364999Y-131380000D01*
X77015001Y-131380000D01*
X77039505Y-131381204D01*
X77039505Y-131381204D01*
G37*
D17*
G04 #@! TD*
G04 #@! TO.P,D8,2*
G04 #@! TO.N,Net-(D8-Pad2)*
X76690000Y-132080000D03*
D16*
G04 #@! TO.N,Net-(D8-Pad1)*
G04 #@! TO.C,D8*
G36*
X79089505Y-131381204D02*
X79113773Y-131384804D01*
X79137572Y-131390765D01*
X79160671Y-131399030D01*
X79182850Y-131409520D01*
X79203893Y-131422132D01*
X79223599Y-131436747D01*
X79241777Y-131453223D01*
X79258253Y-131471401D01*
X79272868Y-131491107D01*
X79285480Y-131512150D01*
X79295970Y-131534329D01*
X79304235Y-131557428D01*
X79310196Y-131581227D01*
X79313796Y-131605495D01*
X79315000Y-131629999D01*
X79315000Y-132530001D01*
X79313796Y-132554505D01*
X79310196Y-132578773D01*
X79304235Y-132602572D01*
X79295970Y-132625671D01*
X79285480Y-132647850D01*
X79272868Y-132668893D01*
X79258253Y-132688599D01*
X79241777Y-132706777D01*
X79223599Y-132723253D01*
X79203893Y-132737868D01*
X79182850Y-132750480D01*
X79160671Y-132760970D01*
X79137572Y-132769235D01*
X79113773Y-132775196D01*
X79089505Y-132778796D01*
X79065001Y-132780000D01*
X78414999Y-132780000D01*
X78390495Y-132778796D01*
X78366227Y-132775196D01*
X78342428Y-132769235D01*
X78319329Y-132760970D01*
X78297150Y-132750480D01*
X78276107Y-132737868D01*
X78256401Y-132723253D01*
X78238223Y-132706777D01*
X78221747Y-132688599D01*
X78207132Y-132668893D01*
X78194520Y-132647850D01*
X78184030Y-132625671D01*
X78175765Y-132602572D01*
X78169804Y-132578773D01*
X78166204Y-132554505D01*
X78165000Y-132530001D01*
X78165000Y-131629999D01*
X78166204Y-131605495D01*
X78169804Y-131581227D01*
X78175765Y-131557428D01*
X78184030Y-131534329D01*
X78194520Y-131512150D01*
X78207132Y-131491107D01*
X78221747Y-131471401D01*
X78238223Y-131453223D01*
X78256401Y-131436747D01*
X78276107Y-131422132D01*
X78297150Y-131409520D01*
X78319329Y-131399030D01*
X78342428Y-131390765D01*
X78366227Y-131384804D01*
X78390495Y-131381204D01*
X78414999Y-131380000D01*
X79065001Y-131380000D01*
X79089505Y-131381204D01*
X79089505Y-131381204D01*
G37*
D17*
G04 #@! TD*
G04 #@! TO.P,D8,1*
G04 #@! TO.N,Net-(D8-Pad1)*
X78740000Y-132080000D03*
D16*
G04 #@! TO.N,/5V*
G04 #@! TO.C,R2*
G36*
X77039505Y-55181204D02*
X77063773Y-55184804D01*
X77087572Y-55190765D01*
X77110671Y-55199030D01*
X77132850Y-55209520D01*
X77153893Y-55222132D01*
X77173599Y-55236747D01*
X77191777Y-55253223D01*
X77208253Y-55271401D01*
X77222868Y-55291107D01*
X77235480Y-55312150D01*
X77245970Y-55334329D01*
X77254235Y-55357428D01*
X77260196Y-55381227D01*
X77263796Y-55405495D01*
X77265000Y-55429999D01*
X77265000Y-56330001D01*
X77263796Y-56354505D01*
X77260196Y-56378773D01*
X77254235Y-56402572D01*
X77245970Y-56425671D01*
X77235480Y-56447850D01*
X77222868Y-56468893D01*
X77208253Y-56488599D01*
X77191777Y-56506777D01*
X77173599Y-56523253D01*
X77153893Y-56537868D01*
X77132850Y-56550480D01*
X77110671Y-56560970D01*
X77087572Y-56569235D01*
X77063773Y-56575196D01*
X77039505Y-56578796D01*
X77015001Y-56580000D01*
X76364999Y-56580000D01*
X76340495Y-56578796D01*
X76316227Y-56575196D01*
X76292428Y-56569235D01*
X76269329Y-56560970D01*
X76247150Y-56550480D01*
X76226107Y-56537868D01*
X76206401Y-56523253D01*
X76188223Y-56506777D01*
X76171747Y-56488599D01*
X76157132Y-56468893D01*
X76144520Y-56447850D01*
X76134030Y-56425671D01*
X76125765Y-56402572D01*
X76119804Y-56378773D01*
X76116204Y-56354505D01*
X76115000Y-56330001D01*
X76115000Y-55429999D01*
X76116204Y-55405495D01*
X76119804Y-55381227D01*
X76125765Y-55357428D01*
X76134030Y-55334329D01*
X76144520Y-55312150D01*
X76157132Y-55291107D01*
X76171747Y-55271401D01*
X76188223Y-55253223D01*
X76206401Y-55236747D01*
X76226107Y-55222132D01*
X76247150Y-55209520D01*
X76269329Y-55199030D01*
X76292428Y-55190765D01*
X76316227Y-55184804D01*
X76340495Y-55181204D01*
X76364999Y-55180000D01*
X77015001Y-55180000D01*
X77039505Y-55181204D01*
X77039505Y-55181204D01*
G37*
D17*
G04 #@! TD*
G04 #@! TO.P,R2,1*
G04 #@! TO.N,/5V*
X76690000Y-55880000D03*
D16*
G04 #@! TO.N,Net-(D1-Pad2)*
G04 #@! TO.C,R2*
G36*
X79089505Y-55181204D02*
X79113773Y-55184804D01*
X79137572Y-55190765D01*
X79160671Y-55199030D01*
X79182850Y-55209520D01*
X79203893Y-55222132D01*
X79223599Y-55236747D01*
X79241777Y-55253223D01*
X79258253Y-55271401D01*
X79272868Y-55291107D01*
X79285480Y-55312150D01*
X79295970Y-55334329D01*
X79304235Y-55357428D01*
X79310196Y-55381227D01*
X79313796Y-55405495D01*
X79315000Y-55429999D01*
X79315000Y-56330001D01*
X79313796Y-56354505D01*
X79310196Y-56378773D01*
X79304235Y-56402572D01*
X79295970Y-56425671D01*
X79285480Y-56447850D01*
X79272868Y-56468893D01*
X79258253Y-56488599D01*
X79241777Y-56506777D01*
X79223599Y-56523253D01*
X79203893Y-56537868D01*
X79182850Y-56550480D01*
X79160671Y-56560970D01*
X79137572Y-56569235D01*
X79113773Y-56575196D01*
X79089505Y-56578796D01*
X79065001Y-56580000D01*
X78414999Y-56580000D01*
X78390495Y-56578796D01*
X78366227Y-56575196D01*
X78342428Y-56569235D01*
X78319329Y-56560970D01*
X78297150Y-56550480D01*
X78276107Y-56537868D01*
X78256401Y-56523253D01*
X78238223Y-56506777D01*
X78221747Y-56488599D01*
X78207132Y-56468893D01*
X78194520Y-56447850D01*
X78184030Y-56425671D01*
X78175765Y-56402572D01*
X78169804Y-56378773D01*
X78166204Y-56354505D01*
X78165000Y-56330001D01*
X78165000Y-55429999D01*
X78166204Y-55405495D01*
X78169804Y-55381227D01*
X78175765Y-55357428D01*
X78184030Y-55334329D01*
X78194520Y-55312150D01*
X78207132Y-55291107D01*
X78221747Y-55271401D01*
X78238223Y-55253223D01*
X78256401Y-55236747D01*
X78276107Y-55222132D01*
X78297150Y-55209520D01*
X78319329Y-55199030D01*
X78342428Y-55190765D01*
X78366227Y-55184804D01*
X78390495Y-55181204D01*
X78414999Y-55180000D01*
X79065001Y-55180000D01*
X79089505Y-55181204D01*
X79089505Y-55181204D01*
G37*
D17*
G04 #@! TD*
G04 #@! TO.P,R2,2*
G04 #@! TO.N,Net-(D1-Pad2)*
X78740000Y-55880000D03*
D16*
G04 #@! TO.N,Net-(D2-Pad2)*
G04 #@! TO.C,R3*
G36*
X79089505Y-66611204D02*
X79113773Y-66614804D01*
X79137572Y-66620765D01*
X79160671Y-66629030D01*
X79182850Y-66639520D01*
X79203893Y-66652132D01*
X79223599Y-66666747D01*
X79241777Y-66683223D01*
X79258253Y-66701401D01*
X79272868Y-66721107D01*
X79285480Y-66742150D01*
X79295970Y-66764329D01*
X79304235Y-66787428D01*
X79310196Y-66811227D01*
X79313796Y-66835495D01*
X79315000Y-66859999D01*
X79315000Y-67760001D01*
X79313796Y-67784505D01*
X79310196Y-67808773D01*
X79304235Y-67832572D01*
X79295970Y-67855671D01*
X79285480Y-67877850D01*
X79272868Y-67898893D01*
X79258253Y-67918599D01*
X79241777Y-67936777D01*
X79223599Y-67953253D01*
X79203893Y-67967868D01*
X79182850Y-67980480D01*
X79160671Y-67990970D01*
X79137572Y-67999235D01*
X79113773Y-68005196D01*
X79089505Y-68008796D01*
X79065001Y-68010000D01*
X78414999Y-68010000D01*
X78390495Y-68008796D01*
X78366227Y-68005196D01*
X78342428Y-67999235D01*
X78319329Y-67990970D01*
X78297150Y-67980480D01*
X78276107Y-67967868D01*
X78256401Y-67953253D01*
X78238223Y-67936777D01*
X78221747Y-67918599D01*
X78207132Y-67898893D01*
X78194520Y-67877850D01*
X78184030Y-67855671D01*
X78175765Y-67832572D01*
X78169804Y-67808773D01*
X78166204Y-67784505D01*
X78165000Y-67760001D01*
X78165000Y-66859999D01*
X78166204Y-66835495D01*
X78169804Y-66811227D01*
X78175765Y-66787428D01*
X78184030Y-66764329D01*
X78194520Y-66742150D01*
X78207132Y-66721107D01*
X78221747Y-66701401D01*
X78238223Y-66683223D01*
X78256401Y-66666747D01*
X78276107Y-66652132D01*
X78297150Y-66639520D01*
X78319329Y-66629030D01*
X78342428Y-66620765D01*
X78366227Y-66614804D01*
X78390495Y-66611204D01*
X78414999Y-66610000D01*
X79065001Y-66610000D01*
X79089505Y-66611204D01*
X79089505Y-66611204D01*
G37*
D17*
G04 #@! TD*
G04 #@! TO.P,R3,2*
G04 #@! TO.N,Net-(D2-Pad2)*
X78740000Y-67310000D03*
D16*
G04 #@! TO.N,/5V*
G04 #@! TO.C,R3*
G36*
X77039505Y-66611204D02*
X77063773Y-66614804D01*
X77087572Y-66620765D01*
X77110671Y-66629030D01*
X77132850Y-66639520D01*
X77153893Y-66652132D01*
X77173599Y-66666747D01*
X77191777Y-66683223D01*
X77208253Y-66701401D01*
X77222868Y-66721107D01*
X77235480Y-66742150D01*
X77245970Y-66764329D01*
X77254235Y-66787428D01*
X77260196Y-66811227D01*
X77263796Y-66835495D01*
X77265000Y-66859999D01*
X77265000Y-67760001D01*
X77263796Y-67784505D01*
X77260196Y-67808773D01*
X77254235Y-67832572D01*
X77245970Y-67855671D01*
X77235480Y-67877850D01*
X77222868Y-67898893D01*
X77208253Y-67918599D01*
X77191777Y-67936777D01*
X77173599Y-67953253D01*
X77153893Y-67967868D01*
X77132850Y-67980480D01*
X77110671Y-67990970D01*
X77087572Y-67999235D01*
X77063773Y-68005196D01*
X77039505Y-68008796D01*
X77015001Y-68010000D01*
X76364999Y-68010000D01*
X76340495Y-68008796D01*
X76316227Y-68005196D01*
X76292428Y-67999235D01*
X76269329Y-67990970D01*
X76247150Y-67980480D01*
X76226107Y-67967868D01*
X76206401Y-67953253D01*
X76188223Y-67936777D01*
X76171747Y-67918599D01*
X76157132Y-67898893D01*
X76144520Y-67877850D01*
X76134030Y-67855671D01*
X76125765Y-67832572D01*
X76119804Y-67808773D01*
X76116204Y-67784505D01*
X76115000Y-67760001D01*
X76115000Y-66859999D01*
X76116204Y-66835495D01*
X76119804Y-66811227D01*
X76125765Y-66787428D01*
X76134030Y-66764329D01*
X76144520Y-66742150D01*
X76157132Y-66721107D01*
X76171747Y-66701401D01*
X76188223Y-66683223D01*
X76206401Y-66666747D01*
X76226107Y-66652132D01*
X76247150Y-66639520D01*
X76269329Y-66629030D01*
X76292428Y-66620765D01*
X76316227Y-66614804D01*
X76340495Y-66611204D01*
X76364999Y-66610000D01*
X77015001Y-66610000D01*
X77039505Y-66611204D01*
X77039505Y-66611204D01*
G37*
D17*
G04 #@! TD*
G04 #@! TO.P,R3,1*
G04 #@! TO.N,/5V*
X76690000Y-67310000D03*
D16*
G04 #@! TO.N,/5V*
G04 #@! TO.C,R4*
G36*
X77039505Y-78041204D02*
X77063773Y-78044804D01*
X77087572Y-78050765D01*
X77110671Y-78059030D01*
X77132850Y-78069520D01*
X77153893Y-78082132D01*
X77173599Y-78096747D01*
X77191777Y-78113223D01*
X77208253Y-78131401D01*
X77222868Y-78151107D01*
X77235480Y-78172150D01*
X77245970Y-78194329D01*
X77254235Y-78217428D01*
X77260196Y-78241227D01*
X77263796Y-78265495D01*
X77265000Y-78289999D01*
X77265000Y-79190001D01*
X77263796Y-79214505D01*
X77260196Y-79238773D01*
X77254235Y-79262572D01*
X77245970Y-79285671D01*
X77235480Y-79307850D01*
X77222868Y-79328893D01*
X77208253Y-79348599D01*
X77191777Y-79366777D01*
X77173599Y-79383253D01*
X77153893Y-79397868D01*
X77132850Y-79410480D01*
X77110671Y-79420970D01*
X77087572Y-79429235D01*
X77063773Y-79435196D01*
X77039505Y-79438796D01*
X77015001Y-79440000D01*
X76364999Y-79440000D01*
X76340495Y-79438796D01*
X76316227Y-79435196D01*
X76292428Y-79429235D01*
X76269329Y-79420970D01*
X76247150Y-79410480D01*
X76226107Y-79397868D01*
X76206401Y-79383253D01*
X76188223Y-79366777D01*
X76171747Y-79348599D01*
X76157132Y-79328893D01*
X76144520Y-79307850D01*
X76134030Y-79285671D01*
X76125765Y-79262572D01*
X76119804Y-79238773D01*
X76116204Y-79214505D01*
X76115000Y-79190001D01*
X76115000Y-78289999D01*
X76116204Y-78265495D01*
X76119804Y-78241227D01*
X76125765Y-78217428D01*
X76134030Y-78194329D01*
X76144520Y-78172150D01*
X76157132Y-78151107D01*
X76171747Y-78131401D01*
X76188223Y-78113223D01*
X76206401Y-78096747D01*
X76226107Y-78082132D01*
X76247150Y-78069520D01*
X76269329Y-78059030D01*
X76292428Y-78050765D01*
X76316227Y-78044804D01*
X76340495Y-78041204D01*
X76364999Y-78040000D01*
X77015001Y-78040000D01*
X77039505Y-78041204D01*
X77039505Y-78041204D01*
G37*
D17*
G04 #@! TD*
G04 #@! TO.P,R4,1*
G04 #@! TO.N,/5V*
X76690000Y-78740000D03*
D16*
G04 #@! TO.N,Net-(D3-Pad2)*
G04 #@! TO.C,R4*
G36*
X79089505Y-78041204D02*
X79113773Y-78044804D01*
X79137572Y-78050765D01*
X79160671Y-78059030D01*
X79182850Y-78069520D01*
X79203893Y-78082132D01*
X79223599Y-78096747D01*
X79241777Y-78113223D01*
X79258253Y-78131401D01*
X79272868Y-78151107D01*
X79285480Y-78172150D01*
X79295970Y-78194329D01*
X79304235Y-78217428D01*
X79310196Y-78241227D01*
X79313796Y-78265495D01*
X79315000Y-78289999D01*
X79315000Y-79190001D01*
X79313796Y-79214505D01*
X79310196Y-79238773D01*
X79304235Y-79262572D01*
X79295970Y-79285671D01*
X79285480Y-79307850D01*
X79272868Y-79328893D01*
X79258253Y-79348599D01*
X79241777Y-79366777D01*
X79223599Y-79383253D01*
X79203893Y-79397868D01*
X79182850Y-79410480D01*
X79160671Y-79420970D01*
X79137572Y-79429235D01*
X79113773Y-79435196D01*
X79089505Y-79438796D01*
X79065001Y-79440000D01*
X78414999Y-79440000D01*
X78390495Y-79438796D01*
X78366227Y-79435196D01*
X78342428Y-79429235D01*
X78319329Y-79420970D01*
X78297150Y-79410480D01*
X78276107Y-79397868D01*
X78256401Y-79383253D01*
X78238223Y-79366777D01*
X78221747Y-79348599D01*
X78207132Y-79328893D01*
X78194520Y-79307850D01*
X78184030Y-79285671D01*
X78175765Y-79262572D01*
X78169804Y-79238773D01*
X78166204Y-79214505D01*
X78165000Y-79190001D01*
X78165000Y-78289999D01*
X78166204Y-78265495D01*
X78169804Y-78241227D01*
X78175765Y-78217428D01*
X78184030Y-78194329D01*
X78194520Y-78172150D01*
X78207132Y-78151107D01*
X78221747Y-78131401D01*
X78238223Y-78113223D01*
X78256401Y-78096747D01*
X78276107Y-78082132D01*
X78297150Y-78069520D01*
X78319329Y-78059030D01*
X78342428Y-78050765D01*
X78366227Y-78044804D01*
X78390495Y-78041204D01*
X78414999Y-78040000D01*
X79065001Y-78040000D01*
X79089505Y-78041204D01*
X79089505Y-78041204D01*
G37*
D17*
G04 #@! TD*
G04 #@! TO.P,R4,2*
G04 #@! TO.N,Net-(D3-Pad2)*
X78740000Y-78740000D03*
D16*
G04 #@! TO.N,Net-(D4-Pad2)*
G04 #@! TO.C,R5*
G36*
X78844505Y-89471204D02*
X78868773Y-89474804D01*
X78892572Y-89480765D01*
X78915671Y-89489030D01*
X78937850Y-89499520D01*
X78958893Y-89512132D01*
X78978599Y-89526747D01*
X78996777Y-89543223D01*
X79013253Y-89561401D01*
X79027868Y-89581107D01*
X79040480Y-89602150D01*
X79050970Y-89624329D01*
X79059235Y-89647428D01*
X79065196Y-89671227D01*
X79068796Y-89695495D01*
X79070000Y-89719999D01*
X79070000Y-90620001D01*
X79068796Y-90644505D01*
X79065196Y-90668773D01*
X79059235Y-90692572D01*
X79050970Y-90715671D01*
X79040480Y-90737850D01*
X79027868Y-90758893D01*
X79013253Y-90778599D01*
X78996777Y-90796777D01*
X78978599Y-90813253D01*
X78958893Y-90827868D01*
X78937850Y-90840480D01*
X78915671Y-90850970D01*
X78892572Y-90859235D01*
X78868773Y-90865196D01*
X78844505Y-90868796D01*
X78820001Y-90870000D01*
X78169999Y-90870000D01*
X78145495Y-90868796D01*
X78121227Y-90865196D01*
X78097428Y-90859235D01*
X78074329Y-90850970D01*
X78052150Y-90840480D01*
X78031107Y-90827868D01*
X78011401Y-90813253D01*
X77993223Y-90796777D01*
X77976747Y-90778599D01*
X77962132Y-90758893D01*
X77949520Y-90737850D01*
X77939030Y-90715671D01*
X77930765Y-90692572D01*
X77924804Y-90668773D01*
X77921204Y-90644505D01*
X77920000Y-90620001D01*
X77920000Y-89719999D01*
X77921204Y-89695495D01*
X77924804Y-89671227D01*
X77930765Y-89647428D01*
X77939030Y-89624329D01*
X77949520Y-89602150D01*
X77962132Y-89581107D01*
X77976747Y-89561401D01*
X77993223Y-89543223D01*
X78011401Y-89526747D01*
X78031107Y-89512132D01*
X78052150Y-89499520D01*
X78074329Y-89489030D01*
X78097428Y-89480765D01*
X78121227Y-89474804D01*
X78145495Y-89471204D01*
X78169999Y-89470000D01*
X78820001Y-89470000D01*
X78844505Y-89471204D01*
X78844505Y-89471204D01*
G37*
D17*
G04 #@! TD*
G04 #@! TO.P,R5,2*
G04 #@! TO.N,Net-(D4-Pad2)*
X78495000Y-90170000D03*
D16*
G04 #@! TO.N,/5V*
G04 #@! TO.C,R5*
G36*
X76794505Y-89471204D02*
X76818773Y-89474804D01*
X76842572Y-89480765D01*
X76865671Y-89489030D01*
X76887850Y-89499520D01*
X76908893Y-89512132D01*
X76928599Y-89526747D01*
X76946777Y-89543223D01*
X76963253Y-89561401D01*
X76977868Y-89581107D01*
X76990480Y-89602150D01*
X77000970Y-89624329D01*
X77009235Y-89647428D01*
X77015196Y-89671227D01*
X77018796Y-89695495D01*
X77020000Y-89719999D01*
X77020000Y-90620001D01*
X77018796Y-90644505D01*
X77015196Y-90668773D01*
X77009235Y-90692572D01*
X77000970Y-90715671D01*
X76990480Y-90737850D01*
X76977868Y-90758893D01*
X76963253Y-90778599D01*
X76946777Y-90796777D01*
X76928599Y-90813253D01*
X76908893Y-90827868D01*
X76887850Y-90840480D01*
X76865671Y-90850970D01*
X76842572Y-90859235D01*
X76818773Y-90865196D01*
X76794505Y-90868796D01*
X76770001Y-90870000D01*
X76119999Y-90870000D01*
X76095495Y-90868796D01*
X76071227Y-90865196D01*
X76047428Y-90859235D01*
X76024329Y-90850970D01*
X76002150Y-90840480D01*
X75981107Y-90827868D01*
X75961401Y-90813253D01*
X75943223Y-90796777D01*
X75926747Y-90778599D01*
X75912132Y-90758893D01*
X75899520Y-90737850D01*
X75889030Y-90715671D01*
X75880765Y-90692572D01*
X75874804Y-90668773D01*
X75871204Y-90644505D01*
X75870000Y-90620001D01*
X75870000Y-89719999D01*
X75871204Y-89695495D01*
X75874804Y-89671227D01*
X75880765Y-89647428D01*
X75889030Y-89624329D01*
X75899520Y-89602150D01*
X75912132Y-89581107D01*
X75926747Y-89561401D01*
X75943223Y-89543223D01*
X75961401Y-89526747D01*
X75981107Y-89512132D01*
X76002150Y-89499520D01*
X76024329Y-89489030D01*
X76047428Y-89480765D01*
X76071227Y-89474804D01*
X76095495Y-89471204D01*
X76119999Y-89470000D01*
X76770001Y-89470000D01*
X76794505Y-89471204D01*
X76794505Y-89471204D01*
G37*
D17*
G04 #@! TD*
G04 #@! TO.P,R5,1*
G04 #@! TO.N,/5V*
X76445000Y-90170000D03*
D16*
G04 #@! TO.N,Net-(D5-Pad2)*
G04 #@! TO.C,R6*
G36*
X79089505Y-100901204D02*
X79113773Y-100904804D01*
X79137572Y-100910765D01*
X79160671Y-100919030D01*
X79182850Y-100929520D01*
X79203893Y-100942132D01*
X79223599Y-100956747D01*
X79241777Y-100973223D01*
X79258253Y-100991401D01*
X79272868Y-101011107D01*
X79285480Y-101032150D01*
X79295970Y-101054329D01*
X79304235Y-101077428D01*
X79310196Y-101101227D01*
X79313796Y-101125495D01*
X79315000Y-101149999D01*
X79315000Y-102050001D01*
X79313796Y-102074505D01*
X79310196Y-102098773D01*
X79304235Y-102122572D01*
X79295970Y-102145671D01*
X79285480Y-102167850D01*
X79272868Y-102188893D01*
X79258253Y-102208599D01*
X79241777Y-102226777D01*
X79223599Y-102243253D01*
X79203893Y-102257868D01*
X79182850Y-102270480D01*
X79160671Y-102280970D01*
X79137572Y-102289235D01*
X79113773Y-102295196D01*
X79089505Y-102298796D01*
X79065001Y-102300000D01*
X78414999Y-102300000D01*
X78390495Y-102298796D01*
X78366227Y-102295196D01*
X78342428Y-102289235D01*
X78319329Y-102280970D01*
X78297150Y-102270480D01*
X78276107Y-102257868D01*
X78256401Y-102243253D01*
X78238223Y-102226777D01*
X78221747Y-102208599D01*
X78207132Y-102188893D01*
X78194520Y-102167850D01*
X78184030Y-102145671D01*
X78175765Y-102122572D01*
X78169804Y-102098773D01*
X78166204Y-102074505D01*
X78165000Y-102050001D01*
X78165000Y-101149999D01*
X78166204Y-101125495D01*
X78169804Y-101101227D01*
X78175765Y-101077428D01*
X78184030Y-101054329D01*
X78194520Y-101032150D01*
X78207132Y-101011107D01*
X78221747Y-100991401D01*
X78238223Y-100973223D01*
X78256401Y-100956747D01*
X78276107Y-100942132D01*
X78297150Y-100929520D01*
X78319329Y-100919030D01*
X78342428Y-100910765D01*
X78366227Y-100904804D01*
X78390495Y-100901204D01*
X78414999Y-100900000D01*
X79065001Y-100900000D01*
X79089505Y-100901204D01*
X79089505Y-100901204D01*
G37*
D17*
G04 #@! TD*
G04 #@! TO.P,R6,2*
G04 #@! TO.N,Net-(D5-Pad2)*
X78740000Y-101600000D03*
D16*
G04 #@! TO.N,/5V*
G04 #@! TO.C,R6*
G36*
X77039505Y-100901204D02*
X77063773Y-100904804D01*
X77087572Y-100910765D01*
X77110671Y-100919030D01*
X77132850Y-100929520D01*
X77153893Y-100942132D01*
X77173599Y-100956747D01*
X77191777Y-100973223D01*
X77208253Y-100991401D01*
X77222868Y-101011107D01*
X77235480Y-101032150D01*
X77245970Y-101054329D01*
X77254235Y-101077428D01*
X77260196Y-101101227D01*
X77263796Y-101125495D01*
X77265000Y-101149999D01*
X77265000Y-102050001D01*
X77263796Y-102074505D01*
X77260196Y-102098773D01*
X77254235Y-102122572D01*
X77245970Y-102145671D01*
X77235480Y-102167850D01*
X77222868Y-102188893D01*
X77208253Y-102208599D01*
X77191777Y-102226777D01*
X77173599Y-102243253D01*
X77153893Y-102257868D01*
X77132850Y-102270480D01*
X77110671Y-102280970D01*
X77087572Y-102289235D01*
X77063773Y-102295196D01*
X77039505Y-102298796D01*
X77015001Y-102300000D01*
X76364999Y-102300000D01*
X76340495Y-102298796D01*
X76316227Y-102295196D01*
X76292428Y-102289235D01*
X76269329Y-102280970D01*
X76247150Y-102270480D01*
X76226107Y-102257868D01*
X76206401Y-102243253D01*
X76188223Y-102226777D01*
X76171747Y-102208599D01*
X76157132Y-102188893D01*
X76144520Y-102167850D01*
X76134030Y-102145671D01*
X76125765Y-102122572D01*
X76119804Y-102098773D01*
X76116204Y-102074505D01*
X76115000Y-102050001D01*
X76115000Y-101149999D01*
X76116204Y-101125495D01*
X76119804Y-101101227D01*
X76125765Y-101077428D01*
X76134030Y-101054329D01*
X76144520Y-101032150D01*
X76157132Y-101011107D01*
X76171747Y-100991401D01*
X76188223Y-100973223D01*
X76206401Y-100956747D01*
X76226107Y-100942132D01*
X76247150Y-100929520D01*
X76269329Y-100919030D01*
X76292428Y-100910765D01*
X76316227Y-100904804D01*
X76340495Y-100901204D01*
X76364999Y-100900000D01*
X77015001Y-100900000D01*
X77039505Y-100901204D01*
X77039505Y-100901204D01*
G37*
D17*
G04 #@! TD*
G04 #@! TO.P,R6,1*
G04 #@! TO.N,/5V*
X76690000Y-101600000D03*
D16*
G04 #@! TO.N,/5V*
G04 #@! TO.C,R7*
G36*
X77039505Y-112331204D02*
X77063773Y-112334804D01*
X77087572Y-112340765D01*
X77110671Y-112349030D01*
X77132850Y-112359520D01*
X77153893Y-112372132D01*
X77173599Y-112386747D01*
X77191777Y-112403223D01*
X77208253Y-112421401D01*
X77222868Y-112441107D01*
X77235480Y-112462150D01*
X77245970Y-112484329D01*
X77254235Y-112507428D01*
X77260196Y-112531227D01*
X77263796Y-112555495D01*
X77265000Y-112579999D01*
X77265000Y-113480001D01*
X77263796Y-113504505D01*
X77260196Y-113528773D01*
X77254235Y-113552572D01*
X77245970Y-113575671D01*
X77235480Y-113597850D01*
X77222868Y-113618893D01*
X77208253Y-113638599D01*
X77191777Y-113656777D01*
X77173599Y-113673253D01*
X77153893Y-113687868D01*
X77132850Y-113700480D01*
X77110671Y-113710970D01*
X77087572Y-113719235D01*
X77063773Y-113725196D01*
X77039505Y-113728796D01*
X77015001Y-113730000D01*
X76364999Y-113730000D01*
X76340495Y-113728796D01*
X76316227Y-113725196D01*
X76292428Y-113719235D01*
X76269329Y-113710970D01*
X76247150Y-113700480D01*
X76226107Y-113687868D01*
X76206401Y-113673253D01*
X76188223Y-113656777D01*
X76171747Y-113638599D01*
X76157132Y-113618893D01*
X76144520Y-113597850D01*
X76134030Y-113575671D01*
X76125765Y-113552572D01*
X76119804Y-113528773D01*
X76116204Y-113504505D01*
X76115000Y-113480001D01*
X76115000Y-112579999D01*
X76116204Y-112555495D01*
X76119804Y-112531227D01*
X76125765Y-112507428D01*
X76134030Y-112484329D01*
X76144520Y-112462150D01*
X76157132Y-112441107D01*
X76171747Y-112421401D01*
X76188223Y-112403223D01*
X76206401Y-112386747D01*
X76226107Y-112372132D01*
X76247150Y-112359520D01*
X76269329Y-112349030D01*
X76292428Y-112340765D01*
X76316227Y-112334804D01*
X76340495Y-112331204D01*
X76364999Y-112330000D01*
X77015001Y-112330000D01*
X77039505Y-112331204D01*
X77039505Y-112331204D01*
G37*
D17*
G04 #@! TD*
G04 #@! TO.P,R7,1*
G04 #@! TO.N,/5V*
X76690000Y-113030000D03*
D16*
G04 #@! TO.N,Net-(D6-Pad2)*
G04 #@! TO.C,R7*
G36*
X79089505Y-112331204D02*
X79113773Y-112334804D01*
X79137572Y-112340765D01*
X79160671Y-112349030D01*
X79182850Y-112359520D01*
X79203893Y-112372132D01*
X79223599Y-112386747D01*
X79241777Y-112403223D01*
X79258253Y-112421401D01*
X79272868Y-112441107D01*
X79285480Y-112462150D01*
X79295970Y-112484329D01*
X79304235Y-112507428D01*
X79310196Y-112531227D01*
X79313796Y-112555495D01*
X79315000Y-112579999D01*
X79315000Y-113480001D01*
X79313796Y-113504505D01*
X79310196Y-113528773D01*
X79304235Y-113552572D01*
X79295970Y-113575671D01*
X79285480Y-113597850D01*
X79272868Y-113618893D01*
X79258253Y-113638599D01*
X79241777Y-113656777D01*
X79223599Y-113673253D01*
X79203893Y-113687868D01*
X79182850Y-113700480D01*
X79160671Y-113710970D01*
X79137572Y-113719235D01*
X79113773Y-113725196D01*
X79089505Y-113728796D01*
X79065001Y-113730000D01*
X78414999Y-113730000D01*
X78390495Y-113728796D01*
X78366227Y-113725196D01*
X78342428Y-113719235D01*
X78319329Y-113710970D01*
X78297150Y-113700480D01*
X78276107Y-113687868D01*
X78256401Y-113673253D01*
X78238223Y-113656777D01*
X78221747Y-113638599D01*
X78207132Y-113618893D01*
X78194520Y-113597850D01*
X78184030Y-113575671D01*
X78175765Y-113552572D01*
X78169804Y-113528773D01*
X78166204Y-113504505D01*
X78165000Y-113480001D01*
X78165000Y-112579999D01*
X78166204Y-112555495D01*
X78169804Y-112531227D01*
X78175765Y-112507428D01*
X78184030Y-112484329D01*
X78194520Y-112462150D01*
X78207132Y-112441107D01*
X78221747Y-112421401D01*
X78238223Y-112403223D01*
X78256401Y-112386747D01*
X78276107Y-112372132D01*
X78297150Y-112359520D01*
X78319329Y-112349030D01*
X78342428Y-112340765D01*
X78366227Y-112334804D01*
X78390495Y-112331204D01*
X78414999Y-112330000D01*
X79065001Y-112330000D01*
X79089505Y-112331204D01*
X79089505Y-112331204D01*
G37*
D17*
G04 #@! TD*
G04 #@! TO.P,R7,2*
G04 #@! TO.N,Net-(D6-Pad2)*
X78740000Y-113030000D03*
D16*
G04 #@! TO.N,/5V*
G04 #@! TO.C,R8*
G36*
X77039505Y-123761204D02*
X77063773Y-123764804D01*
X77087572Y-123770765D01*
X77110671Y-123779030D01*
X77132850Y-123789520D01*
X77153893Y-123802132D01*
X77173599Y-123816747D01*
X77191777Y-123833223D01*
X77208253Y-123851401D01*
X77222868Y-123871107D01*
X77235480Y-123892150D01*
X77245970Y-123914329D01*
X77254235Y-123937428D01*
X77260196Y-123961227D01*
X77263796Y-123985495D01*
X77265000Y-124009999D01*
X77265000Y-124910001D01*
X77263796Y-124934505D01*
X77260196Y-124958773D01*
X77254235Y-124982572D01*
X77245970Y-125005671D01*
X77235480Y-125027850D01*
X77222868Y-125048893D01*
X77208253Y-125068599D01*
X77191777Y-125086777D01*
X77173599Y-125103253D01*
X77153893Y-125117868D01*
X77132850Y-125130480D01*
X77110671Y-125140970D01*
X77087572Y-125149235D01*
X77063773Y-125155196D01*
X77039505Y-125158796D01*
X77015001Y-125160000D01*
X76364999Y-125160000D01*
X76340495Y-125158796D01*
X76316227Y-125155196D01*
X76292428Y-125149235D01*
X76269329Y-125140970D01*
X76247150Y-125130480D01*
X76226107Y-125117868D01*
X76206401Y-125103253D01*
X76188223Y-125086777D01*
X76171747Y-125068599D01*
X76157132Y-125048893D01*
X76144520Y-125027850D01*
X76134030Y-125005671D01*
X76125765Y-124982572D01*
X76119804Y-124958773D01*
X76116204Y-124934505D01*
X76115000Y-124910001D01*
X76115000Y-124009999D01*
X76116204Y-123985495D01*
X76119804Y-123961227D01*
X76125765Y-123937428D01*
X76134030Y-123914329D01*
X76144520Y-123892150D01*
X76157132Y-123871107D01*
X76171747Y-123851401D01*
X76188223Y-123833223D01*
X76206401Y-123816747D01*
X76226107Y-123802132D01*
X76247150Y-123789520D01*
X76269329Y-123779030D01*
X76292428Y-123770765D01*
X76316227Y-123764804D01*
X76340495Y-123761204D01*
X76364999Y-123760000D01*
X77015001Y-123760000D01*
X77039505Y-123761204D01*
X77039505Y-123761204D01*
G37*
D17*
G04 #@! TD*
G04 #@! TO.P,R8,1*
G04 #@! TO.N,/5V*
X76690000Y-124460000D03*
D16*
G04 #@! TO.N,Net-(D7-Pad2)*
G04 #@! TO.C,R8*
G36*
X79089505Y-123761204D02*
X79113773Y-123764804D01*
X79137572Y-123770765D01*
X79160671Y-123779030D01*
X79182850Y-123789520D01*
X79203893Y-123802132D01*
X79223599Y-123816747D01*
X79241777Y-123833223D01*
X79258253Y-123851401D01*
X79272868Y-123871107D01*
X79285480Y-123892150D01*
X79295970Y-123914329D01*
X79304235Y-123937428D01*
X79310196Y-123961227D01*
X79313796Y-123985495D01*
X79315000Y-124009999D01*
X79315000Y-124910001D01*
X79313796Y-124934505D01*
X79310196Y-124958773D01*
X79304235Y-124982572D01*
X79295970Y-125005671D01*
X79285480Y-125027850D01*
X79272868Y-125048893D01*
X79258253Y-125068599D01*
X79241777Y-125086777D01*
X79223599Y-125103253D01*
X79203893Y-125117868D01*
X79182850Y-125130480D01*
X79160671Y-125140970D01*
X79137572Y-125149235D01*
X79113773Y-125155196D01*
X79089505Y-125158796D01*
X79065001Y-125160000D01*
X78414999Y-125160000D01*
X78390495Y-125158796D01*
X78366227Y-125155196D01*
X78342428Y-125149235D01*
X78319329Y-125140970D01*
X78297150Y-125130480D01*
X78276107Y-125117868D01*
X78256401Y-125103253D01*
X78238223Y-125086777D01*
X78221747Y-125068599D01*
X78207132Y-125048893D01*
X78194520Y-125027850D01*
X78184030Y-125005671D01*
X78175765Y-124982572D01*
X78169804Y-124958773D01*
X78166204Y-124934505D01*
X78165000Y-124910001D01*
X78165000Y-124009999D01*
X78166204Y-123985495D01*
X78169804Y-123961227D01*
X78175765Y-123937428D01*
X78184030Y-123914329D01*
X78194520Y-123892150D01*
X78207132Y-123871107D01*
X78221747Y-123851401D01*
X78238223Y-123833223D01*
X78256401Y-123816747D01*
X78276107Y-123802132D01*
X78297150Y-123789520D01*
X78319329Y-123779030D01*
X78342428Y-123770765D01*
X78366227Y-123764804D01*
X78390495Y-123761204D01*
X78414999Y-123760000D01*
X79065001Y-123760000D01*
X79089505Y-123761204D01*
X79089505Y-123761204D01*
G37*
D17*
G04 #@! TD*
G04 #@! TO.P,R8,2*
G04 #@! TO.N,Net-(D7-Pad2)*
X78740000Y-124460000D03*
D16*
G04 #@! TO.N,/5V*
G04 #@! TO.C,R9*
G36*
X77039505Y-135191204D02*
X77063773Y-135194804D01*
X77087572Y-135200765D01*
X77110671Y-135209030D01*
X77132850Y-135219520D01*
X77153893Y-135232132D01*
X77173599Y-135246747D01*
X77191777Y-135263223D01*
X77208253Y-135281401D01*
X77222868Y-135301107D01*
X77235480Y-135322150D01*
X77245970Y-135344329D01*
X77254235Y-135367428D01*
X77260196Y-135391227D01*
X77263796Y-135415495D01*
X77265000Y-135439999D01*
X77265000Y-136340001D01*
X77263796Y-136364505D01*
X77260196Y-136388773D01*
X77254235Y-136412572D01*
X77245970Y-136435671D01*
X77235480Y-136457850D01*
X77222868Y-136478893D01*
X77208253Y-136498599D01*
X77191777Y-136516777D01*
X77173599Y-136533253D01*
X77153893Y-136547868D01*
X77132850Y-136560480D01*
X77110671Y-136570970D01*
X77087572Y-136579235D01*
X77063773Y-136585196D01*
X77039505Y-136588796D01*
X77015001Y-136590000D01*
X76364999Y-136590000D01*
X76340495Y-136588796D01*
X76316227Y-136585196D01*
X76292428Y-136579235D01*
X76269329Y-136570970D01*
X76247150Y-136560480D01*
X76226107Y-136547868D01*
X76206401Y-136533253D01*
X76188223Y-136516777D01*
X76171747Y-136498599D01*
X76157132Y-136478893D01*
X76144520Y-136457850D01*
X76134030Y-136435671D01*
X76125765Y-136412572D01*
X76119804Y-136388773D01*
X76116204Y-136364505D01*
X76115000Y-136340001D01*
X76115000Y-135439999D01*
X76116204Y-135415495D01*
X76119804Y-135391227D01*
X76125765Y-135367428D01*
X76134030Y-135344329D01*
X76144520Y-135322150D01*
X76157132Y-135301107D01*
X76171747Y-135281401D01*
X76188223Y-135263223D01*
X76206401Y-135246747D01*
X76226107Y-135232132D01*
X76247150Y-135219520D01*
X76269329Y-135209030D01*
X76292428Y-135200765D01*
X76316227Y-135194804D01*
X76340495Y-135191204D01*
X76364999Y-135190000D01*
X77015001Y-135190000D01*
X77039505Y-135191204D01*
X77039505Y-135191204D01*
G37*
D17*
G04 #@! TD*
G04 #@! TO.P,R9,1*
G04 #@! TO.N,/5V*
X76690000Y-135890000D03*
D16*
G04 #@! TO.N,Net-(D8-Pad2)*
G04 #@! TO.C,R9*
G36*
X79089505Y-135191204D02*
X79113773Y-135194804D01*
X79137572Y-135200765D01*
X79160671Y-135209030D01*
X79182850Y-135219520D01*
X79203893Y-135232132D01*
X79223599Y-135246747D01*
X79241777Y-135263223D01*
X79258253Y-135281401D01*
X79272868Y-135301107D01*
X79285480Y-135322150D01*
X79295970Y-135344329D01*
X79304235Y-135367428D01*
X79310196Y-135391227D01*
X79313796Y-135415495D01*
X79315000Y-135439999D01*
X79315000Y-136340001D01*
X79313796Y-136364505D01*
X79310196Y-136388773D01*
X79304235Y-136412572D01*
X79295970Y-136435671D01*
X79285480Y-136457850D01*
X79272868Y-136478893D01*
X79258253Y-136498599D01*
X79241777Y-136516777D01*
X79223599Y-136533253D01*
X79203893Y-136547868D01*
X79182850Y-136560480D01*
X79160671Y-136570970D01*
X79137572Y-136579235D01*
X79113773Y-136585196D01*
X79089505Y-136588796D01*
X79065001Y-136590000D01*
X78414999Y-136590000D01*
X78390495Y-136588796D01*
X78366227Y-136585196D01*
X78342428Y-136579235D01*
X78319329Y-136570970D01*
X78297150Y-136560480D01*
X78276107Y-136547868D01*
X78256401Y-136533253D01*
X78238223Y-136516777D01*
X78221747Y-136498599D01*
X78207132Y-136478893D01*
X78194520Y-136457850D01*
X78184030Y-136435671D01*
X78175765Y-136412572D01*
X78169804Y-136388773D01*
X78166204Y-136364505D01*
X78165000Y-136340001D01*
X78165000Y-135439999D01*
X78166204Y-135415495D01*
X78169804Y-135391227D01*
X78175765Y-135367428D01*
X78184030Y-135344329D01*
X78194520Y-135322150D01*
X78207132Y-135301107D01*
X78221747Y-135281401D01*
X78238223Y-135263223D01*
X78256401Y-135246747D01*
X78276107Y-135232132D01*
X78297150Y-135219520D01*
X78319329Y-135209030D01*
X78342428Y-135200765D01*
X78366227Y-135194804D01*
X78390495Y-135191204D01*
X78414999Y-135190000D01*
X79065001Y-135190000D01*
X79089505Y-135191204D01*
X79089505Y-135191204D01*
G37*
D17*
G04 #@! TD*
G04 #@! TO.P,R9,2*
G04 #@! TO.N,Net-(D8-Pad2)*
X78740000Y-135890000D03*
D16*
G04 #@! TO.N,/ZCD*
G04 #@! TO.C,R19*
G36*
X79089505Y-45021204D02*
X79113773Y-45024804D01*
X79137572Y-45030765D01*
X79160671Y-45039030D01*
X79182850Y-45049520D01*
X79203893Y-45062132D01*
X79223599Y-45076747D01*
X79241777Y-45093223D01*
X79258253Y-45111401D01*
X79272868Y-45131107D01*
X79285480Y-45152150D01*
X79295970Y-45174329D01*
X79304235Y-45197428D01*
X79310196Y-45221227D01*
X79313796Y-45245495D01*
X79315000Y-45269999D01*
X79315000Y-46170001D01*
X79313796Y-46194505D01*
X79310196Y-46218773D01*
X79304235Y-46242572D01*
X79295970Y-46265671D01*
X79285480Y-46287850D01*
X79272868Y-46308893D01*
X79258253Y-46328599D01*
X79241777Y-46346777D01*
X79223599Y-46363253D01*
X79203893Y-46377868D01*
X79182850Y-46390480D01*
X79160671Y-46400970D01*
X79137572Y-46409235D01*
X79113773Y-46415196D01*
X79089505Y-46418796D01*
X79065001Y-46420000D01*
X78414999Y-46420000D01*
X78390495Y-46418796D01*
X78366227Y-46415196D01*
X78342428Y-46409235D01*
X78319329Y-46400970D01*
X78297150Y-46390480D01*
X78276107Y-46377868D01*
X78256401Y-46363253D01*
X78238223Y-46346777D01*
X78221747Y-46328599D01*
X78207132Y-46308893D01*
X78194520Y-46287850D01*
X78184030Y-46265671D01*
X78175765Y-46242572D01*
X78169804Y-46218773D01*
X78166204Y-46194505D01*
X78165000Y-46170001D01*
X78165000Y-45269999D01*
X78166204Y-45245495D01*
X78169804Y-45221227D01*
X78175765Y-45197428D01*
X78184030Y-45174329D01*
X78194520Y-45152150D01*
X78207132Y-45131107D01*
X78221747Y-45111401D01*
X78238223Y-45093223D01*
X78256401Y-45076747D01*
X78276107Y-45062132D01*
X78297150Y-45049520D01*
X78319329Y-45039030D01*
X78342428Y-45030765D01*
X78366227Y-45024804D01*
X78390495Y-45021204D01*
X78414999Y-45020000D01*
X79065001Y-45020000D01*
X79089505Y-45021204D01*
X79089505Y-45021204D01*
G37*
D17*
G04 #@! TD*
G04 #@! TO.P,R19,2*
G04 #@! TO.N,/ZCD*
X78740000Y-45720000D03*
D16*
G04 #@! TO.N,/3V3*
G04 #@! TO.C,R19*
G36*
X77039505Y-45021204D02*
X77063773Y-45024804D01*
X77087572Y-45030765D01*
X77110671Y-45039030D01*
X77132850Y-45049520D01*
X77153893Y-45062132D01*
X77173599Y-45076747D01*
X77191777Y-45093223D01*
X77208253Y-45111401D01*
X77222868Y-45131107D01*
X77235480Y-45152150D01*
X77245970Y-45174329D01*
X77254235Y-45197428D01*
X77260196Y-45221227D01*
X77263796Y-45245495D01*
X77265000Y-45269999D01*
X77265000Y-46170001D01*
X77263796Y-46194505D01*
X77260196Y-46218773D01*
X77254235Y-46242572D01*
X77245970Y-46265671D01*
X77235480Y-46287850D01*
X77222868Y-46308893D01*
X77208253Y-46328599D01*
X77191777Y-46346777D01*
X77173599Y-46363253D01*
X77153893Y-46377868D01*
X77132850Y-46390480D01*
X77110671Y-46400970D01*
X77087572Y-46409235D01*
X77063773Y-46415196D01*
X77039505Y-46418796D01*
X77015001Y-46420000D01*
X76364999Y-46420000D01*
X76340495Y-46418796D01*
X76316227Y-46415196D01*
X76292428Y-46409235D01*
X76269329Y-46400970D01*
X76247150Y-46390480D01*
X76226107Y-46377868D01*
X76206401Y-46363253D01*
X76188223Y-46346777D01*
X76171747Y-46328599D01*
X76157132Y-46308893D01*
X76144520Y-46287850D01*
X76134030Y-46265671D01*
X76125765Y-46242572D01*
X76119804Y-46218773D01*
X76116204Y-46194505D01*
X76115000Y-46170001D01*
X76115000Y-45269999D01*
X76116204Y-45245495D01*
X76119804Y-45221227D01*
X76125765Y-45197428D01*
X76134030Y-45174329D01*
X76144520Y-45152150D01*
X76157132Y-45131107D01*
X76171747Y-45111401D01*
X76188223Y-45093223D01*
X76206401Y-45076747D01*
X76226107Y-45062132D01*
X76247150Y-45049520D01*
X76269329Y-45039030D01*
X76292428Y-45030765D01*
X76316227Y-45024804D01*
X76340495Y-45021204D01*
X76364999Y-45020000D01*
X77015001Y-45020000D01*
X77039505Y-45021204D01*
X77039505Y-45021204D01*
G37*
D17*
G04 #@! TD*
G04 #@! TO.P,R19,1*
G04 #@! TO.N,/3V3*
X76690000Y-45720000D03*
D16*
G04 #@! TO.N,/RST*
G04 #@! TO.C,R20*
G36*
X49115505Y-68641204D02*
X49139773Y-68644804D01*
X49163572Y-68650765D01*
X49186671Y-68659030D01*
X49208850Y-68669520D01*
X49229893Y-68682132D01*
X49249599Y-68696747D01*
X49267777Y-68713223D01*
X49284253Y-68731401D01*
X49298868Y-68751107D01*
X49311480Y-68772150D01*
X49321970Y-68794329D01*
X49330235Y-68817428D01*
X49336196Y-68841227D01*
X49339796Y-68865495D01*
X49341000Y-68889999D01*
X49341000Y-69540001D01*
X49339796Y-69564505D01*
X49336196Y-69588773D01*
X49330235Y-69612572D01*
X49321970Y-69635671D01*
X49311480Y-69657850D01*
X49298868Y-69678893D01*
X49284253Y-69698599D01*
X49267777Y-69716777D01*
X49249599Y-69733253D01*
X49229893Y-69747868D01*
X49208850Y-69760480D01*
X49186671Y-69770970D01*
X49163572Y-69779235D01*
X49139773Y-69785196D01*
X49115505Y-69788796D01*
X49091001Y-69790000D01*
X48190999Y-69790000D01*
X48166495Y-69788796D01*
X48142227Y-69785196D01*
X48118428Y-69779235D01*
X48095329Y-69770970D01*
X48073150Y-69760480D01*
X48052107Y-69747868D01*
X48032401Y-69733253D01*
X48014223Y-69716777D01*
X47997747Y-69698599D01*
X47983132Y-69678893D01*
X47970520Y-69657850D01*
X47960030Y-69635671D01*
X47951765Y-69612572D01*
X47945804Y-69588773D01*
X47942204Y-69564505D01*
X47941000Y-69540001D01*
X47941000Y-68889999D01*
X47942204Y-68865495D01*
X47945804Y-68841227D01*
X47951765Y-68817428D01*
X47960030Y-68794329D01*
X47970520Y-68772150D01*
X47983132Y-68751107D01*
X47997747Y-68731401D01*
X48014223Y-68713223D01*
X48032401Y-68696747D01*
X48052107Y-68682132D01*
X48073150Y-68669520D01*
X48095329Y-68659030D01*
X48118428Y-68650765D01*
X48142227Y-68644804D01*
X48166495Y-68641204D01*
X48190999Y-68640000D01*
X49091001Y-68640000D01*
X49115505Y-68641204D01*
X49115505Y-68641204D01*
G37*
D17*
G04 #@! TD*
G04 #@! TO.P,R20,2*
G04 #@! TO.N,/RST*
X48641000Y-69215000D03*
D16*
G04 #@! TO.N,/3V3*
G04 #@! TO.C,R20*
G36*
X49115505Y-70691204D02*
X49139773Y-70694804D01*
X49163572Y-70700765D01*
X49186671Y-70709030D01*
X49208850Y-70719520D01*
X49229893Y-70732132D01*
X49249599Y-70746747D01*
X49267777Y-70763223D01*
X49284253Y-70781401D01*
X49298868Y-70801107D01*
X49311480Y-70822150D01*
X49321970Y-70844329D01*
X49330235Y-70867428D01*
X49336196Y-70891227D01*
X49339796Y-70915495D01*
X49341000Y-70939999D01*
X49341000Y-71590001D01*
X49339796Y-71614505D01*
X49336196Y-71638773D01*
X49330235Y-71662572D01*
X49321970Y-71685671D01*
X49311480Y-71707850D01*
X49298868Y-71728893D01*
X49284253Y-71748599D01*
X49267777Y-71766777D01*
X49249599Y-71783253D01*
X49229893Y-71797868D01*
X49208850Y-71810480D01*
X49186671Y-71820970D01*
X49163572Y-71829235D01*
X49139773Y-71835196D01*
X49115505Y-71838796D01*
X49091001Y-71840000D01*
X48190999Y-71840000D01*
X48166495Y-71838796D01*
X48142227Y-71835196D01*
X48118428Y-71829235D01*
X48095329Y-71820970D01*
X48073150Y-71810480D01*
X48052107Y-71797868D01*
X48032401Y-71783253D01*
X48014223Y-71766777D01*
X47997747Y-71748599D01*
X47983132Y-71728893D01*
X47970520Y-71707850D01*
X47960030Y-71685671D01*
X47951765Y-71662572D01*
X47945804Y-71638773D01*
X47942204Y-71614505D01*
X47941000Y-71590001D01*
X47941000Y-70939999D01*
X47942204Y-70915495D01*
X47945804Y-70891227D01*
X47951765Y-70867428D01*
X47960030Y-70844329D01*
X47970520Y-70822150D01*
X47983132Y-70801107D01*
X47997747Y-70781401D01*
X48014223Y-70763223D01*
X48032401Y-70746747D01*
X48052107Y-70732132D01*
X48073150Y-70719520D01*
X48095329Y-70709030D01*
X48118428Y-70700765D01*
X48142227Y-70694804D01*
X48166495Y-70691204D01*
X48190999Y-70690000D01*
X49091001Y-70690000D01*
X49115505Y-70691204D01*
X49115505Y-70691204D01*
G37*
D17*
G04 #@! TD*
G04 #@! TO.P,R20,1*
G04 #@! TO.N,/3V3*
X48641000Y-71265000D03*
D18*
G04 #@! TO.P,SW1,1*
G04 #@! TO.N,/RST*
X50800000Y-57467000D03*
X56560000Y-57467000D03*
G04 #@! TO.P,SW1,2*
G04 #@! TO.N,GND*
X56560000Y-53467000D03*
X50800000Y-53467000D03*
G04 #@! TD*
D19*
G04 #@! TO.P,U3,1*
G04 #@! TO.N,/RST*
X52090000Y-68890000D03*
G04 #@! TO.P,U3,2*
G04 #@! TO.N,Net-(U3-Pad2)*
X52090000Y-70890000D03*
G04 #@! TO.P,U3,3*
G04 #@! TO.N,/3V3*
X52090000Y-72890000D03*
G04 #@! TO.P,U3,4*
G04 #@! TO.N,/SER*
X52090000Y-74890000D03*
G04 #@! TO.P,U3,5*
G04 #@! TO.N,/SRCLK*
X52090000Y-76890000D03*
G04 #@! TO.P,U3,6*
G04 #@! TO.N,/ZCD*
X52090000Y-78890000D03*
G04 #@! TO.P,U3,7*
G04 #@! TO.N,/RCLK*
X52090000Y-80890000D03*
G04 #@! TO.P,U3,8*
G04 #@! TO.N,/3V3*
X52090000Y-82890000D03*
D20*
G04 #@! TO.P,U3,9*
G04 #@! TO.N,Net-(U3-Pad9)*
X54690000Y-84390000D03*
G04 #@! TO.P,U3,10*
G04 #@! TO.N,Net-(U3-Pad10)*
X56690000Y-84390000D03*
G04 #@! TO.P,U3,11*
G04 #@! TO.N,Net-(U3-Pad11)*
X58690000Y-84390000D03*
G04 #@! TO.P,U3,12*
G04 #@! TO.N,Net-(U3-Pad12)*
X60690000Y-84390000D03*
G04 #@! TO.P,U3,13*
G04 #@! TO.N,Net-(U3-Pad13)*
X62690000Y-84390000D03*
G04 #@! TO.P,U3,14*
G04 #@! TO.N,Net-(U3-Pad14)*
X64690000Y-84390000D03*
D19*
G04 #@! TO.P,U3,15*
G04 #@! TO.N,GND*
X67290000Y-82890000D03*
G04 #@! TO.P,U3,16*
X67290000Y-80890000D03*
G04 #@! TO.P,U3,17*
G04 #@! TO.N,Net-(U3-Pad17)*
X67290000Y-78890000D03*
G04 #@! TO.P,U3,18*
G04 #@! TO.N,/GPIO0*
X67290000Y-76890000D03*
G04 #@! TO.P,U3,19*
G04 #@! TO.N,Net-(U3-Pad19)*
X67290000Y-74890000D03*
G04 #@! TO.P,U3,20*
G04 #@! TO.N,Net-(U3-Pad20)*
X67290000Y-72890000D03*
G04 #@! TO.P,U3,21*
G04 #@! TO.N,/RXD*
X67290000Y-70890000D03*
G04 #@! TO.P,U3,22*
G04 #@! TO.N,/TXD*
X67290000Y-68890000D03*
G04 #@! TD*
D21*
G04 #@! TO.P,U4,1*
G04 #@! TO.N,/I7*
X54489000Y-97155000D03*
G04 #@! TO.P,U4,2*
G04 #@! TO.N,/I6*
X54489000Y-98425000D03*
G04 #@! TO.P,U4,3*
G04 #@! TO.N,/I5*
X54489000Y-99695000D03*
G04 #@! TO.P,U4,4*
G04 #@! TO.N,/I4*
X54489000Y-100965000D03*
G04 #@! TO.P,U4,5*
G04 #@! TO.N,/I3*
X54489000Y-102235000D03*
G04 #@! TO.P,U4,6*
G04 #@! TO.N,/I2*
X54489000Y-103505000D03*
G04 #@! TO.P,U4,7*
G04 #@! TO.N,/I1*
X54489000Y-104775000D03*
G04 #@! TO.P,U4,8*
G04 #@! TO.N,GND*
X54489000Y-106045000D03*
G04 #@! TO.P,U4,9*
G04 #@! TO.N,Net-(U4-Pad9)*
X61589000Y-106045000D03*
G04 #@! TO.P,U4,10*
G04 #@! TO.N,/VCC*
X61589000Y-104775000D03*
G04 #@! TO.P,U4,11*
G04 #@! TO.N,/SRCLK*
X61589000Y-103505000D03*
G04 #@! TO.P,U4,12*
G04 #@! TO.N,/RCLK*
X61589000Y-102235000D03*
G04 #@! TO.P,U4,13*
G04 #@! TO.N,GND*
X61589000Y-100965000D03*
G04 #@! TO.P,U4,14*
G04 #@! TO.N,/SER*
X61589000Y-99695000D03*
G04 #@! TO.P,U4,15*
G04 #@! TO.N,/I8*
X61589000Y-98425000D03*
G04 #@! TO.P,U4,16*
G04 #@! TO.N,/3V3*
X61589000Y-97155000D03*
G04 #@! TD*
D22*
G04 #@! TO.P,P11,1*
G04 #@! TO.N,GND*
X52832000Y-44069000D03*
D14*
G04 #@! TO.P,P11,2*
G04 #@! TO.N,/5V*
X47752000Y-44069000D03*
G04 #@! TD*
D23*
G04 #@! TO.P,U2,2*
G04 #@! TO.N,/3V3*
X66396000Y-44958000D03*
D24*
X60096000Y-44958000D03*
G04 #@! TO.P,U2,3*
G04 #@! TO.N,/5V*
X60096000Y-47258000D03*
G04 #@! TO.P,U2,1*
G04 #@! TO.N,GND*
X60096000Y-42658000D03*
G04 #@! TD*
D25*
G04 #@! TO.P,J1,1*
G04 #@! TO.N,/3V3*
X70358000Y-55626000D03*
D26*
G04 #@! TO.P,J1,2*
G04 #@! TO.N,/TXD*
X67818000Y-55626000D03*
G04 #@! TO.P,J1,3*
G04 #@! TO.N,/RXD*
X65278000Y-55626000D03*
G04 #@! TO.P,J1,4*
G04 #@! TO.N,GND*
X62738000Y-55626000D03*
G04 #@! TD*
D16*
G04 #@! TO.N,/3V3*
G04 #@! TO.C,R21*
G36*
X48099505Y-91991204D02*
X48123773Y-91994804D01*
X48147572Y-92000765D01*
X48170671Y-92009030D01*
X48192850Y-92019520D01*
X48213893Y-92032132D01*
X48233599Y-92046747D01*
X48251777Y-92063223D01*
X48268253Y-92081401D01*
X48282868Y-92101107D01*
X48295480Y-92122150D01*
X48305970Y-92144329D01*
X48314235Y-92167428D01*
X48320196Y-92191227D01*
X48323796Y-92215495D01*
X48325000Y-92239999D01*
X48325000Y-92890001D01*
X48323796Y-92914505D01*
X48320196Y-92938773D01*
X48314235Y-92962572D01*
X48305970Y-92985671D01*
X48295480Y-93007850D01*
X48282868Y-93028893D01*
X48268253Y-93048599D01*
X48251777Y-93066777D01*
X48233599Y-93083253D01*
X48213893Y-93097868D01*
X48192850Y-93110480D01*
X48170671Y-93120970D01*
X48147572Y-93129235D01*
X48123773Y-93135196D01*
X48099505Y-93138796D01*
X48075001Y-93140000D01*
X47174999Y-93140000D01*
X47150495Y-93138796D01*
X47126227Y-93135196D01*
X47102428Y-93129235D01*
X47079329Y-93120970D01*
X47057150Y-93110480D01*
X47036107Y-93097868D01*
X47016401Y-93083253D01*
X46998223Y-93066777D01*
X46981747Y-93048599D01*
X46967132Y-93028893D01*
X46954520Y-93007850D01*
X46944030Y-92985671D01*
X46935765Y-92962572D01*
X46929804Y-92938773D01*
X46926204Y-92914505D01*
X46925000Y-92890001D01*
X46925000Y-92239999D01*
X46926204Y-92215495D01*
X46929804Y-92191227D01*
X46935765Y-92167428D01*
X46944030Y-92144329D01*
X46954520Y-92122150D01*
X46967132Y-92101107D01*
X46981747Y-92081401D01*
X46998223Y-92063223D01*
X47016401Y-92046747D01*
X47036107Y-92032132D01*
X47057150Y-92019520D01*
X47079329Y-92009030D01*
X47102428Y-92000765D01*
X47126227Y-91994804D01*
X47150495Y-91991204D01*
X47174999Y-91990000D01*
X48075001Y-91990000D01*
X48099505Y-91991204D01*
X48099505Y-91991204D01*
G37*
D17*
G04 #@! TD*
G04 #@! TO.P,R21,1*
G04 #@! TO.N,/3V3*
X47625000Y-92565000D03*
D16*
G04 #@! TO.N,/GPIO0*
G04 #@! TO.C,R21*
G36*
X48099505Y-94041204D02*
X48123773Y-94044804D01*
X48147572Y-94050765D01*
X48170671Y-94059030D01*
X48192850Y-94069520D01*
X48213893Y-94082132D01*
X48233599Y-94096747D01*
X48251777Y-94113223D01*
X48268253Y-94131401D01*
X48282868Y-94151107D01*
X48295480Y-94172150D01*
X48305970Y-94194329D01*
X48314235Y-94217428D01*
X48320196Y-94241227D01*
X48323796Y-94265495D01*
X48325000Y-94289999D01*
X48325000Y-94940001D01*
X48323796Y-94964505D01*
X48320196Y-94988773D01*
X48314235Y-95012572D01*
X48305970Y-95035671D01*
X48295480Y-95057850D01*
X48282868Y-95078893D01*
X48268253Y-95098599D01*
X48251777Y-95116777D01*
X48233599Y-95133253D01*
X48213893Y-95147868D01*
X48192850Y-95160480D01*
X48170671Y-95170970D01*
X48147572Y-95179235D01*
X48123773Y-95185196D01*
X48099505Y-95188796D01*
X48075001Y-95190000D01*
X47174999Y-95190000D01*
X47150495Y-95188796D01*
X47126227Y-95185196D01*
X47102428Y-95179235D01*
X47079329Y-95170970D01*
X47057150Y-95160480D01*
X47036107Y-95147868D01*
X47016401Y-95133253D01*
X46998223Y-95116777D01*
X46981747Y-95098599D01*
X46967132Y-95078893D01*
X46954520Y-95057850D01*
X46944030Y-95035671D01*
X46935765Y-95012572D01*
X46929804Y-94988773D01*
X46926204Y-94964505D01*
X46925000Y-94940001D01*
X46925000Y-94289999D01*
X46926204Y-94265495D01*
X46929804Y-94241227D01*
X46935765Y-94217428D01*
X46944030Y-94194329D01*
X46954520Y-94172150D01*
X46967132Y-94151107D01*
X46981747Y-94131401D01*
X46998223Y-94113223D01*
X47016401Y-94096747D01*
X47036107Y-94082132D01*
X47057150Y-94069520D01*
X47079329Y-94059030D01*
X47102428Y-94050765D01*
X47126227Y-94044804D01*
X47150495Y-94041204D01*
X47174999Y-94040000D01*
X48075001Y-94040000D01*
X48099505Y-94041204D01*
X48099505Y-94041204D01*
G37*
D17*
G04 #@! TD*
G04 #@! TO.P,R21,2*
G04 #@! TO.N,/GPIO0*
X47625000Y-94615000D03*
D14*
G04 #@! TO.P,P2,2*
G04 #@! TO.N,/N*
X138684000Y-42672000D03*
D22*
G04 #@! TO.P,P2,1*
G04 #@! TO.N,/PH_IN*
X138684000Y-47752000D03*
G04 #@! TD*
D14*
G04 #@! TO.P,P3,2*
G04 #@! TO.N,/N*
X138684000Y-53086000D03*
D22*
G04 #@! TO.P,P3,1*
G04 #@! TO.N,/PH_0*
X138684000Y-58166000D03*
G04 #@! TD*
G04 #@! TO.P,P4,1*
G04 #@! TO.N,/PH_1*
X138684000Y-68580000D03*
D14*
G04 #@! TO.P,P4,2*
G04 #@! TO.N,/N*
X138684000Y-63500000D03*
G04 #@! TD*
D22*
G04 #@! TO.P,P5,1*
G04 #@! TO.N,/PH_2*
X138684000Y-80010000D03*
D14*
G04 #@! TO.P,P5,2*
G04 #@! TO.N,/N*
X138684000Y-74930000D03*
G04 #@! TD*
G04 #@! TO.P,P6,2*
G04 #@! TO.N,/N*
X138684000Y-86360000D03*
D22*
G04 #@! TO.P,P6,1*
G04 #@! TO.N,/PH_3*
X138684000Y-91440000D03*
G04 #@! TD*
G04 #@! TO.P,P7,1*
G04 #@! TO.N,/PH_4*
X138684000Y-102870000D03*
D14*
G04 #@! TO.P,P7,2*
G04 #@! TO.N,/N*
X138684000Y-97790000D03*
G04 #@! TD*
D22*
G04 #@! TO.P,P8,1*
G04 #@! TO.N,/PH_5*
X138684000Y-114300000D03*
D14*
G04 #@! TO.P,P8,2*
G04 #@! TO.N,/N*
X138684000Y-109220000D03*
G04 #@! TD*
D22*
G04 #@! TO.P,P9,1*
G04 #@! TO.N,/PH_6*
X138684000Y-125730000D03*
D14*
G04 #@! TO.P,P9,2*
G04 #@! TO.N,/N*
X138684000Y-120650000D03*
G04 #@! TD*
G04 #@! TO.P,P10,2*
G04 #@! TO.N,/N*
X138684000Y-131953000D03*
D22*
G04 #@! TO.P,P10,1*
G04 #@! TO.N,/PH_7*
X138684000Y-137033000D03*
G04 #@! TD*
D27*
G04 #@! TO.N,/ZCD*
X60579000Y-78105000D03*
G04 #@! TO.N,/3V3*
X70358000Y-45720000D03*
X47244000Y-57658000D03*
X59055000Y-97790000D03*
X50927000Y-91567000D03*
G04 #@! TO.N,/SER*
X57785000Y-77851000D03*
X63246000Y-99568000D03*
G04 #@! TO.N,/SRCLK*
X54737000Y-76835000D03*
X58928000Y-103505000D03*
G04 #@! TO.N,/RCLK*
X59563000Y-102235000D03*
X56134010Y-80772000D03*
G04 #@! TO.N,/GPIO0*
X62357000Y-88392000D03*
X64643000Y-76962000D03*
G04 #@! TD*
D28*
G04 #@! TO.N,GND*
X56506000Y-44069000D02*
X56515000Y-44060000D01*
X52832000Y-44069000D02*
X56506000Y-44069000D01*
X57917000Y-42658000D02*
X60096000Y-42658000D01*
X56515000Y-44060000D02*
X57917000Y-42658000D01*
X54935000Y-53467000D02*
X50800000Y-53467000D01*
X56560000Y-53467000D02*
X54935000Y-53467000D01*
X67290000Y-80890000D02*
X67290000Y-82890000D01*
X64008000Y-100965000D02*
X61589000Y-100965000D01*
X52832000Y-48514000D02*
X52832000Y-45819000D01*
X52832000Y-45819000D02*
X52832000Y-44069000D01*
X56560000Y-52242000D02*
X52832000Y-48514000D01*
X56560000Y-53467000D02*
X56560000Y-52242000D01*
X64008000Y-107569000D02*
X64008000Y-100965000D01*
X54482000Y-122301000D02*
X56007000Y-122301000D01*
X56007000Y-122301000D02*
X60071000Y-118237000D01*
X60071000Y-118237000D02*
X60071000Y-111506000D01*
X60071000Y-111506000D02*
X64008000Y-107569000D01*
X60579000Y-53467000D02*
X56560000Y-53467000D01*
X62738000Y-55626000D02*
X60579000Y-53467000D01*
X56388000Y-98679000D02*
X60071000Y-94996000D01*
X56388000Y-105283000D02*
X56388000Y-98679000D01*
X55626000Y-106045000D02*
X56388000Y-105283000D01*
X54489000Y-106045000D02*
X55626000Y-106045000D01*
X60071000Y-94996000D02*
X64770000Y-94996000D01*
X64770000Y-100203000D02*
X64008000Y-100965000D01*
X64770000Y-87376000D02*
X64770000Y-100203000D01*
X67290000Y-83640000D02*
X67310000Y-83660000D01*
X67290000Y-82890000D02*
X67290000Y-83640000D01*
X67310000Y-83660000D02*
X67310000Y-84836000D01*
X67310000Y-84836000D02*
X64770000Y-87376000D01*
X63587999Y-54776001D02*
X62738000Y-55626000D01*
X65647000Y-52717000D02*
X63587999Y-54776001D01*
X72021000Y-52717000D02*
X65647000Y-52717000D01*
X68790000Y-80890000D02*
X72778990Y-76901010D01*
X72778990Y-76901010D02*
X72778990Y-53474990D01*
X67290000Y-80890000D02*
X68790000Y-80890000D01*
X72778990Y-53474990D02*
X72021000Y-52717000D01*
X52832000Y-135027000D02*
X52832000Y-130892000D01*
X52832000Y-136652000D02*
X52832000Y-135027000D01*
X52832000Y-123251000D02*
X53782000Y-122301000D01*
X53782000Y-122301000D02*
X54482000Y-122301000D01*
X52832000Y-130892000D02*
X52832000Y-123251000D01*
X54795000Y-87376000D02*
X64770000Y-87376000D01*
X53652000Y-88519000D02*
X54795000Y-87376000D01*
X52977000Y-88519000D02*
X53652000Y-88519000D01*
G04 #@! TO.N,Net-(D1-Pad2)*
X78740000Y-55118000D02*
X78740000Y-55880000D01*
X76690000Y-53068000D02*
X78740000Y-55118000D01*
X76690000Y-52070000D02*
X76690000Y-53068000D01*
G04 #@! TO.N,Net-(D1-Pad1)*
X78740000Y-52070000D02*
X83820000Y-52070000D01*
G04 #@! TO.N,Net-(D2-Pad2)*
X76690000Y-64498000D02*
X78740000Y-66548000D01*
X78740000Y-66548000D02*
X78740000Y-67310000D01*
X76690000Y-63500000D02*
X76690000Y-64498000D01*
G04 #@! TO.N,Net-(D2-Pad1)*
X78740000Y-63500000D02*
X83820000Y-63500000D01*
G04 #@! TO.N,Net-(D3-Pad2)*
X78740000Y-77724000D02*
X78740000Y-78740000D01*
X76690000Y-75674000D02*
X78740000Y-77724000D01*
X76690000Y-74930000D02*
X76690000Y-75674000D01*
G04 #@! TO.N,Net-(D3-Pad1)*
X79415000Y-74930000D02*
X83820000Y-74930000D01*
X78740000Y-74930000D02*
X79415000Y-74930000D01*
G04 #@! TO.N,Net-(D4-Pad2)*
X78495000Y-89163000D02*
X78495000Y-90170000D01*
X76690000Y-87358000D02*
X78495000Y-89163000D01*
X76690000Y-86360000D02*
X76690000Y-87358000D01*
G04 #@! TO.N,Net-(D4-Pad1)*
X78740000Y-86360000D02*
X83820000Y-86360000D01*
G04 #@! TO.N,Net-(D5-Pad2)*
X78740000Y-100838000D02*
X78740000Y-101600000D01*
X76690000Y-98788000D02*
X78740000Y-100838000D01*
X76690000Y-97790000D02*
X76690000Y-98788000D01*
G04 #@! TO.N,Net-(D5-Pad1)*
X78740000Y-97790000D02*
X83820000Y-97790000D01*
G04 #@! TO.N,Net-(D6-Pad2)*
X78740000Y-112268000D02*
X78740000Y-113030000D01*
X76690000Y-110218000D02*
X78740000Y-112268000D01*
X76690000Y-109220000D02*
X76690000Y-110218000D01*
G04 #@! TO.N,Net-(D6-Pad1)*
X78740000Y-109220000D02*
X83820000Y-109220000D01*
G04 #@! TO.N,Net-(D7-Pad2)*
X76445000Y-121403000D02*
X76445000Y-120650000D01*
X78740000Y-123698000D02*
X76445000Y-121403000D01*
X78740000Y-124460000D02*
X78740000Y-123698000D01*
G04 #@! TO.N,Net-(D7-Pad1)*
X78495000Y-120650000D02*
X83820000Y-120650000D01*
G04 #@! TO.N,Net-(D8-Pad2)*
X78740000Y-135382000D02*
X76690000Y-133332000D01*
X76690000Y-133332000D02*
X76690000Y-132080000D01*
X78740000Y-135890000D02*
X78740000Y-135382000D01*
G04 #@! TO.N,Net-(D8-Pad1)*
X79415000Y-132080000D02*
X83820000Y-132080000D01*
X78740000Y-132080000D02*
X79415000Y-132080000D01*
D29*
G04 #@! TO.N,/PH_IN*
X132715000Y-47625000D02*
X131720000Y-48620000D01*
X131720000Y-120650000D02*
X131720000Y-132080000D01*
X131720000Y-109220000D02*
X131720000Y-120650000D01*
X131720000Y-97790000D02*
X131720000Y-109220000D01*
X131720000Y-86360000D02*
X131720000Y-97790000D01*
D30*
X105409000Y-45087500D02*
X105409500Y-45087500D01*
X130178000Y-45087500D02*
X132715000Y-47625000D01*
X105409500Y-45087500D02*
X130178000Y-45087500D01*
D29*
X131720000Y-63500000D02*
X131720000Y-74930000D01*
X131720000Y-74930000D02*
X131720000Y-86360000D01*
X131720000Y-52070000D02*
X131720000Y-48620000D01*
X131720000Y-48620000D02*
X132715000Y-47625000D01*
X131720000Y-48620000D02*
X131720000Y-52070000D01*
X131720000Y-52070000D02*
X131720000Y-63500000D01*
X138430000Y-47625000D02*
X132715000Y-47625000D01*
D30*
G04 #@! TO.N,/N*
X138427000Y-42547500D02*
X138430000Y-42545000D01*
D29*
X138430000Y-63500000D02*
X143510000Y-63500000D01*
X138430000Y-74930000D02*
X143510000Y-74930000D01*
X138430000Y-86360000D02*
X143510000Y-86360000D01*
X138430000Y-97790000D02*
X143510000Y-97790000D01*
X138430000Y-109220000D02*
X143510000Y-109220000D01*
X138430000Y-120650000D02*
X143510000Y-120650000D01*
X142240000Y-132080000D02*
X138430000Y-132080000D01*
X143510000Y-130810000D02*
X142240000Y-132080000D01*
X143510000Y-120650000D02*
X143510000Y-130810000D01*
X143510000Y-109220000D02*
X143510000Y-120650000D01*
X143510000Y-97790000D02*
X143510000Y-109220000D01*
X143510000Y-86360000D02*
X143510000Y-97790000D01*
X143510000Y-52705000D02*
X143510000Y-63500000D01*
X143510000Y-63500000D02*
X143510000Y-74930000D01*
X143510000Y-74930000D02*
X143510000Y-86360000D01*
X138430000Y-42545000D02*
X142240000Y-42545000D01*
X142240000Y-42545000D02*
X143510000Y-43815000D01*
X143510000Y-43815000D02*
X143510000Y-52705000D01*
X138811000Y-53086000D02*
X143129000Y-53086000D01*
X143129000Y-53086000D02*
X143510000Y-52705000D01*
X138430000Y-52705000D02*
X138811000Y-53086000D01*
D28*
G04 #@! TO.N,Net-(R1-Pad2)*
X95247000Y-45085000D02*
X95249500Y-45087500D01*
D30*
X91440000Y-45085000D02*
X95247000Y-45085000D01*
X95247000Y-45085000D02*
X95250000Y-45085000D01*
D28*
G04 #@! TO.N,Net-(R10-Pad1)*
X95248000Y-52070000D02*
X95250500Y-52067500D01*
D30*
X95250000Y-52070000D02*
X95248000Y-52070000D01*
X95248000Y-52070000D02*
X91440000Y-52070000D01*
D28*
G04 #@! TO.N,Net-(R11-Pad1)*
X95883000Y-63500000D02*
X95885500Y-63497500D01*
D30*
X91440000Y-63500000D02*
X95883000Y-63500000D01*
X95883000Y-63500000D02*
X95885000Y-63500000D01*
D28*
G04 #@! TO.N,Net-(R12-Pad1)*
X95248000Y-74930000D02*
X95250500Y-74927500D01*
D30*
X91440000Y-74930000D02*
X95248000Y-74930000D01*
X95248000Y-74930000D02*
X95250000Y-74930000D01*
D28*
G04 #@! TO.N,Net-(R13-Pad1)*
X95883000Y-86360000D02*
X95885500Y-86357500D01*
D30*
X91440000Y-86360000D02*
X95883000Y-86360000D01*
X95883000Y-86360000D02*
X95885000Y-86360000D01*
D28*
G04 #@! TO.N,Net-(R14-Pad1)*
X95883000Y-97790000D02*
X95885500Y-97787500D01*
D30*
X91440000Y-97790000D02*
X95883000Y-97790000D01*
X95883000Y-97790000D02*
X95885000Y-97790000D01*
G04 #@! TO.N,Net-(R15-Pad1)*
X91440000Y-109220000D02*
X95883000Y-109220000D01*
X95883000Y-109220000D02*
X95885000Y-109220000D01*
D28*
X95883000Y-109220000D02*
X95885500Y-109218000D01*
X95885500Y-109217500D02*
X95885500Y-109218000D01*
D30*
G04 #@! TO.N,Net-(R16-Pad1)*
X91440000Y-120650000D02*
X95883000Y-120650000D01*
X95883000Y-120650000D02*
X95885000Y-120650000D01*
D28*
X95883000Y-120650000D02*
X95885500Y-120648000D01*
X95885500Y-120647500D02*
X95885500Y-120648000D01*
D30*
G04 #@! TO.N,Net-(R17-Pad1)*
X91440000Y-132080000D02*
X95248000Y-132080000D01*
X95248000Y-132080000D02*
X95250000Y-132080000D01*
D28*
X95248000Y-132080000D02*
X95250500Y-132078000D01*
X95250500Y-132077500D02*
X95250500Y-132078000D01*
D30*
G04 #@! TO.N,Net-(U14-Pad3)*
X91440000Y-57150000D02*
X97155000Y-57150000D01*
G04 #@! TO.N,Net-(U15-Pad3)*
X91440000Y-68580000D02*
X97155000Y-68580000D01*
G04 #@! TO.N,Net-(U16-Pad3)*
X91440000Y-80010000D02*
X97155000Y-80010000D01*
G04 #@! TO.N,Net-(U17-Pad3)*
X91440000Y-91440000D02*
X97155000Y-91440000D01*
G04 #@! TO.N,Net-(U10-Pad4)*
X91440000Y-102870000D02*
X97155000Y-102870000D01*
G04 #@! TO.N,Net-(U11-Pad4)*
X91440000Y-114300000D02*
X97155000Y-114300000D01*
G04 #@! TO.N,Net-(U12-Pad4)*
X91440000Y-125730000D02*
X97155000Y-125730000D01*
G04 #@! TO.N,Net-(U13-Pad4)*
X91440000Y-137160000D02*
X97155000Y-137160000D01*
D28*
G04 #@! TO.N,/C7*
X83470000Y-134620000D02*
X83820000Y-134620000D01*
X79914000Y-138176000D02*
X83470000Y-134620000D01*
X63882000Y-121031000D02*
X62632000Y-121031000D01*
X61976000Y-131699000D02*
X68453000Y-138176000D01*
X68453000Y-138176000D02*
X79914000Y-138176000D01*
X62632000Y-121031000D02*
X61976000Y-121687000D01*
X61976000Y-121687000D02*
X61976000Y-131699000D01*
G04 #@! TO.N,/C6*
X63882000Y-119761000D02*
X65786000Y-119761000D01*
X82550000Y-123190000D02*
X83820000Y-123190000D01*
X72390000Y-126365000D02*
X79375000Y-126365000D01*
X65786000Y-119761000D02*
X72390000Y-126365000D01*
X79375000Y-126365000D02*
X82550000Y-123190000D01*
G04 #@! TO.N,/C5*
X82804000Y-111760000D02*
X83820000Y-111760000D01*
X80899000Y-113665000D02*
X82804000Y-111760000D01*
X80899000Y-115062000D02*
X80899000Y-113665000D01*
X63882000Y-118491000D02*
X69469000Y-118491000D01*
X69469000Y-118491000D02*
X71755000Y-116205000D01*
X71755000Y-116205000D02*
X79756000Y-116205000D01*
X79756000Y-116205000D02*
X80899000Y-115062000D01*
G04 #@! TO.N,/C4*
X81280000Y-102362000D02*
X81280000Y-101473000D01*
X81280000Y-101473000D02*
X82423000Y-100330000D01*
X79248000Y-104394000D02*
X81280000Y-102362000D01*
X76708000Y-104394000D02*
X79248000Y-104394000D01*
X63882000Y-117221000D02*
X67818000Y-117221000D01*
X67818000Y-117221000D02*
X73533000Y-111506000D01*
X73533000Y-111506000D02*
X73533000Y-107569000D01*
X82423000Y-100330000D02*
X83820000Y-100330000D01*
X73533000Y-107569000D02*
X76708000Y-104394000D01*
G04 #@! TO.N,/C3*
X82042000Y-88900000D02*
X83820000Y-88900000D01*
X80645000Y-91059000D02*
X80645000Y-90297000D01*
X77978000Y-92456000D02*
X79248000Y-92456000D01*
X79248000Y-92456000D02*
X80645000Y-91059000D01*
X63882000Y-115951000D02*
X67183000Y-115951000D01*
X80645000Y-90297000D02*
X82042000Y-88900000D01*
X72009000Y-111125000D02*
X72009000Y-98425000D01*
X67183000Y-115951000D02*
X72009000Y-111125000D01*
X72009000Y-98425000D02*
X77978000Y-92456000D01*
G04 #@! TO.N,/C2*
X83058000Y-77470000D02*
X83820000Y-77470000D01*
X78867000Y-81661000D02*
X83058000Y-77470000D01*
X77978000Y-81661000D02*
X78867000Y-81661000D01*
X66929000Y-114681000D02*
X70993000Y-110617000D01*
X63882000Y-114681000D02*
X66929000Y-114681000D01*
X70993000Y-110617000D02*
X70993000Y-88646000D01*
X70993000Y-88646000D02*
X77978000Y-81661000D01*
G04 #@! TO.N,/C0*
X81153000Y-57658000D02*
X79629000Y-59182000D01*
X81153000Y-55877000D02*
X81153000Y-57658000D01*
X79629000Y-59182000D02*
X75819000Y-59182000D01*
X82420000Y-54610000D02*
X81153000Y-55877000D01*
X68453000Y-86995000D02*
X68453000Y-109728000D01*
X66040000Y-112141000D02*
X63882000Y-112141000D01*
X83820000Y-54610000D02*
X82420000Y-54610000D01*
X75819000Y-59182000D02*
X73279000Y-61722000D01*
X73279000Y-61722000D02*
X73279000Y-82169000D01*
X68453000Y-109728000D02*
X66040000Y-112141000D01*
X73279000Y-82169000D02*
X68453000Y-86995000D01*
G04 #@! TO.N,/C1*
X63882000Y-113411000D02*
X66802000Y-113411000D01*
X66802000Y-113411000D02*
X69723000Y-110490000D01*
X69723000Y-110490000D02*
X69723000Y-88138000D01*
X69723000Y-88138000D02*
X73914000Y-83947000D01*
X73914000Y-83947000D02*
X73914000Y-72898000D01*
X73914000Y-72898000D02*
X76327000Y-70485000D01*
X76327000Y-70485000D02*
X79375000Y-70485000D01*
X79375000Y-70485000D02*
X81026000Y-68834000D01*
X81026000Y-68834000D02*
X81026000Y-66929000D01*
X81915000Y-66040000D02*
X83820000Y-66040000D01*
X81026000Y-66929000D02*
X81915000Y-66040000D01*
G04 #@! TO.N,/ZCD*
X83185000Y-45720000D02*
X83820000Y-45085000D01*
X78740000Y-45720000D02*
X83185000Y-45720000D01*
X53590000Y-78890000D02*
X53613000Y-78867000D01*
X52090000Y-78890000D02*
X53590000Y-78890000D01*
X59817000Y-78867000D02*
X60579000Y-78105000D01*
X53613000Y-78867000D02*
X59817000Y-78867000D01*
G04 #@! TO.N,/3V3*
X65146000Y-44958000D02*
X60096000Y-44958000D01*
X66396000Y-44958000D02*
X65146000Y-44958000D01*
X50284000Y-72890000D02*
X52090000Y-72890000D01*
X76690000Y-45720000D02*
X70358000Y-45720000D01*
X68408000Y-45720000D02*
X67646000Y-44958000D01*
X67646000Y-44958000D02*
X66396000Y-44958000D01*
X70358000Y-45720000D02*
X68408000Y-45720000D01*
X49776000Y-72890000D02*
X50284000Y-72890000D01*
X48641000Y-71755000D02*
X49776000Y-72890000D01*
X48641000Y-71265000D02*
X48641000Y-71755000D01*
X47244000Y-58082264D02*
X47244000Y-57658000D01*
X47244000Y-69868000D02*
X47244000Y-58082264D01*
X48641000Y-71265000D02*
X47244000Y-69868000D01*
X47625000Y-91821000D02*
X50927000Y-88519000D01*
X47625000Y-92565000D02*
X47625000Y-91821000D01*
X50927000Y-83303000D02*
X51340000Y-82890000D01*
X51340000Y-82890000D02*
X52090000Y-82890000D01*
X50927000Y-88519000D02*
X50927000Y-83303000D01*
X52049000Y-82931000D02*
X52090000Y-82890000D01*
X50284000Y-72890000D02*
X49784000Y-72890000D01*
X50419000Y-82931000D02*
X52049000Y-82931000D01*
X49784000Y-72890000D02*
X49784000Y-82296000D01*
X49784000Y-82296000D02*
X50419000Y-82931000D01*
X59690000Y-97155000D02*
X59055000Y-97790000D01*
X61589000Y-97155000D02*
X59690000Y-97155000D01*
X50927000Y-91142736D02*
X50927000Y-88519000D01*
X50927000Y-91567000D02*
X50927000Y-91142736D01*
D30*
G04 #@! TO.N,Net-(R18-Pad2)*
X100327000Y-42545000D02*
X100329000Y-42547500D01*
D28*
X100330000Y-42547500D02*
X100329500Y-42547500D01*
X100329500Y-42547500D02*
X100329000Y-42547500D01*
G04 #@! TO.N,/5V*
X76015000Y-55880000D02*
X73787000Y-53652000D01*
X76690000Y-55880000D02*
X76015000Y-55880000D01*
X76015000Y-124460000D02*
X74422000Y-122867000D01*
X76690000Y-124460000D02*
X76015000Y-124460000D01*
X74930000Y-118745000D02*
X85345010Y-118745000D01*
X74422000Y-119253000D02*
X74930000Y-118745000D01*
X76690000Y-113030000D02*
X76066628Y-112406628D01*
X74803000Y-108204000D02*
X76073000Y-106934000D01*
X76066628Y-112406628D02*
X76066628Y-112388628D01*
X76066628Y-112388628D02*
X74803000Y-111125000D01*
X74803000Y-111125000D02*
X74803000Y-108204000D01*
X76327000Y-95758000D02*
X85345010Y-95758000D01*
X76690000Y-101600000D02*
X76200000Y-101600000D01*
X76200000Y-101600000D02*
X75311000Y-100711000D01*
X75311000Y-100711000D02*
X75311000Y-96774000D01*
X75311000Y-96774000D02*
X76327000Y-95758000D01*
X76581000Y-84201000D02*
X85345010Y-84201000D01*
X74930000Y-88655000D02*
X74930000Y-85852000D01*
X74930000Y-85852000D02*
X76581000Y-84201000D01*
X76445000Y-90170000D02*
X74930000Y-88655000D01*
X76015000Y-78740000D02*
X75184000Y-77909000D01*
X76690000Y-78740000D02*
X76015000Y-78740000D01*
X75184000Y-77909000D02*
X75184000Y-74295000D01*
X77216000Y-72263000D02*
X85345010Y-72263000D01*
X75184000Y-74295000D02*
X77216000Y-72263000D01*
X76015000Y-67310000D02*
X74803000Y-66098000D01*
X76690000Y-67310000D02*
X76015000Y-67310000D01*
X74803000Y-66098000D02*
X74803000Y-62484000D01*
X76708000Y-60579000D02*
X85345010Y-60579000D01*
X74803000Y-62484000D02*
X76708000Y-60579000D01*
X74803000Y-134003000D02*
X76690000Y-135890000D01*
X85852000Y-119251990D02*
X85852000Y-127254000D01*
X85852000Y-127254000D02*
X83693000Y-129413000D01*
X85852000Y-107440990D02*
X85852000Y-118238010D01*
X85345010Y-118745000D02*
X85852000Y-118745000D01*
X85852000Y-118745000D02*
X85852000Y-119251990D01*
X85852000Y-118238010D02*
X85852000Y-118745000D01*
X85345010Y-60579000D02*
X85852000Y-60579000D01*
X85852000Y-60579000D02*
X85852000Y-51181000D01*
X85345010Y-72263000D02*
X85852000Y-72263000D01*
X85852000Y-72263000D02*
X85852000Y-60579000D01*
X85345010Y-84201000D02*
X85852000Y-84201000D01*
X85852000Y-84201000D02*
X85852000Y-72263000D01*
X85345010Y-95758000D02*
X85852000Y-95758000D01*
X85852000Y-95758000D02*
X85852000Y-84201000D01*
X85217000Y-106934000D02*
X85852000Y-106934000D01*
X76073000Y-106934000D02*
X85217000Y-106934000D01*
X85852000Y-106934000D02*
X85852000Y-95758000D01*
X85852000Y-107440990D02*
X85852000Y-106934000D01*
X57663000Y-47258000D02*
X56515000Y-46110000D01*
X60096000Y-47258000D02*
X57663000Y-47258000D01*
X74422000Y-122301000D02*
X74422000Y-119253000D01*
X74422000Y-122867000D02*
X74422000Y-122301000D01*
X64582000Y-122301000D02*
X71694000Y-129413000D01*
X63882000Y-122301000D02*
X64582000Y-122301000D01*
X83693000Y-129413000D02*
X76454000Y-129413000D01*
X49251999Y-42569001D02*
X49251999Y-42442001D01*
X47752000Y-44069000D02*
X49251999Y-42569001D01*
X49251999Y-42442001D02*
X50673000Y-41021000D01*
X50673000Y-41021000D02*
X85217000Y-41021000D01*
X85852000Y-41656000D02*
X85852000Y-51181000D01*
X85217000Y-41021000D02*
X85852000Y-41656000D01*
X73787000Y-53652000D02*
X73787000Y-52324000D01*
X73787000Y-52324000D02*
X73787000Y-50419000D01*
X60971000Y-48133000D02*
X60096000Y-47258000D01*
X71374000Y-48133000D02*
X60971000Y-48133000D01*
X73660000Y-50419000D02*
X71374000Y-48133000D01*
X73787000Y-50419000D02*
X73660000Y-50419000D01*
X85852000Y-50419000D02*
X85852000Y-51181000D01*
X73787000Y-50419000D02*
X85852000Y-50419000D01*
X74803000Y-131953000D02*
X74803000Y-129413000D01*
X71694000Y-129413000D02*
X74803000Y-129413000D01*
X74803000Y-131953000D02*
X74803000Y-134003000D01*
X74803000Y-129413000D02*
X76454000Y-129413000D01*
G04 #@! TO.N,/RST*
X49925000Y-57467000D02*
X50800000Y-57467000D01*
X48641000Y-58751000D02*
X49925000Y-57467000D01*
X48641000Y-69215000D02*
X48641000Y-58751000D01*
X52425000Y-57467000D02*
X56560000Y-57467000D01*
X50800000Y-57467000D02*
X52425000Y-57467000D01*
X51765000Y-69215000D02*
X52090000Y-68890000D01*
X48641000Y-69215000D02*
X51765000Y-69215000D01*
G04 #@! TO.N,/SER*
X54824000Y-74890000D02*
X54864000Y-74930000D01*
X52090000Y-74890000D02*
X54824000Y-74890000D01*
X54864000Y-74930000D02*
X57785000Y-77851000D01*
X63119000Y-99695000D02*
X63246000Y-99568000D01*
X61589000Y-99695000D02*
X63119000Y-99695000D01*
G04 #@! TO.N,/SRCLK*
X52090000Y-76890000D02*
X54682000Y-76890000D01*
X54682000Y-76890000D02*
X54737000Y-76835000D01*
X61589000Y-103505000D02*
X58928000Y-103505000D01*
G04 #@! TO.N,/RCLK*
X61589000Y-102235000D02*
X59563000Y-102235000D01*
X56016010Y-80890000D02*
X56134010Y-80772000D01*
X52090000Y-80890000D02*
X56016010Y-80890000D01*
G04 #@! TO.N,/I7*
X53232000Y-119761000D02*
X54482000Y-119761000D01*
X54489000Y-97155000D02*
X53213000Y-97155000D01*
X53086000Y-119761000D02*
X53232000Y-119761000D01*
X53213000Y-97155000D02*
X48387000Y-101981000D01*
X48387000Y-101981000D02*
X48387000Y-115062000D01*
X48387000Y-115062000D02*
X53086000Y-119761000D01*
G04 #@! TO.N,/I6*
X54939000Y-98425000D02*
X54489000Y-98425000D01*
X52959000Y-98425000D02*
X54939000Y-98425000D01*
X53086000Y-118491000D02*
X49149000Y-114554000D01*
X54482000Y-118491000D02*
X53086000Y-118491000D01*
X49149000Y-114554000D02*
X49149000Y-102235000D01*
X49149000Y-102235000D02*
X52959000Y-98425000D01*
G04 #@! TO.N,/I5*
X52959000Y-99695000D02*
X54489000Y-99695000D01*
X54482000Y-117221000D02*
X53213000Y-117221000D01*
X53213000Y-117221000D02*
X49911000Y-113919000D01*
X49911000Y-113919000D02*
X49911000Y-102743000D01*
X49911000Y-102743000D02*
X52959000Y-99695000D01*
G04 #@! TO.N,/I4*
X53086000Y-115951000D02*
X54482000Y-115951000D01*
X54489000Y-100965000D02*
X52832000Y-100965000D01*
X50546000Y-103251000D02*
X50546000Y-113411000D01*
X52832000Y-100965000D02*
X50546000Y-103251000D01*
X50546000Y-113411000D02*
X53086000Y-115951000D01*
G04 #@! TO.N,/I3*
X52705000Y-102235000D02*
X54489000Y-102235000D01*
X54482000Y-114681000D02*
X53213000Y-114681000D01*
X53213000Y-114681000D02*
X51181000Y-112649000D01*
X51181000Y-112649000D02*
X51181000Y-103759000D01*
X51181000Y-103759000D02*
X52705000Y-102235000D01*
G04 #@! TO.N,/I2*
X53213000Y-113411000D02*
X54482000Y-113411000D01*
X54489000Y-103505000D02*
X52832000Y-103505000D01*
X52832000Y-103505000D02*
X51943000Y-104394000D01*
X51943000Y-104394000D02*
X51943000Y-112141000D01*
X51943000Y-112141000D02*
X53213000Y-113411000D01*
G04 #@! TO.N,/I1*
X53340000Y-104775000D02*
X54489000Y-104775000D01*
X54482000Y-112141000D02*
X53232000Y-112141000D01*
X53232000Y-112141000D02*
X52578000Y-111487000D01*
X52578000Y-111487000D02*
X52578000Y-105537000D01*
X52578000Y-105537000D02*
X53340000Y-104775000D01*
G04 #@! TO.N,/I8*
X60325000Y-98425000D02*
X61589000Y-98425000D01*
X54482000Y-121031000D02*
X56134000Y-121031000D01*
X57658000Y-119507000D02*
X57658000Y-101092000D01*
X56134000Y-121031000D02*
X57658000Y-119507000D01*
X57658000Y-101092000D02*
X60325000Y-98425000D01*
G04 #@! TO.N,/TXD*
X69921000Y-68890000D02*
X67290000Y-68890000D01*
X71501000Y-67310000D02*
X69921000Y-68890000D01*
X67818000Y-55626000D02*
X68580000Y-56388000D01*
X71501000Y-59690000D02*
X71501000Y-67310000D01*
X68580000Y-56388000D02*
X68580000Y-56769000D01*
X68580000Y-56769000D02*
X71501000Y-59690000D01*
G04 #@! TO.N,/RXD*
X65278000Y-54423919D02*
X65278000Y-55626000D01*
X71120000Y-53661919D02*
X66040000Y-53661919D01*
X67290000Y-70890000D02*
X68937000Y-70890000D01*
X68937000Y-70890000D02*
X72143992Y-67683008D01*
X72143992Y-67683008D02*
X72143992Y-54685911D01*
X66040000Y-53661919D02*
X65278000Y-54423919D01*
X72143992Y-54685911D02*
X71120000Y-53661919D01*
G04 #@! TO.N,/GPIO0*
X48832000Y-135027000D02*
X48832000Y-130892000D01*
X48832000Y-136652000D02*
X48832000Y-135027000D01*
X47625000Y-94615000D02*
X47625000Y-95377000D01*
X47625000Y-95377000D02*
X47117000Y-95885000D01*
X48832000Y-129267000D02*
X48832000Y-130892000D01*
X47117000Y-127552000D02*
X48832000Y-129267000D01*
X47117000Y-95885000D02*
X47117000Y-127552000D01*
X47625000Y-94615000D02*
X52578000Y-94615000D01*
X52578000Y-94615000D02*
X58801000Y-88392000D01*
X58801000Y-88392000D02*
X62357000Y-88392000D01*
X67218000Y-76962000D02*
X67290000Y-76890000D01*
X64643000Y-76962000D02*
X67218000Y-76962000D01*
G04 #@! TD*
M02*
