G04 #@! TF.GenerationSoftware,KiCad,Pcbnew,5.0.1-33cea8e~68~ubuntu18.04.1*
G04 #@! TF.CreationDate,2018-11-29T09:03:48+01:00*
G04 #@! TF.ProjectId,8Dimmers,3844696D6D6572732E6B696361645F70,rev?*
G04 #@! TF.SameCoordinates,Original*
G04 #@! TF.FileFunction,Soldermask,Bot*
G04 #@! TF.FilePolarity,Negative*
%FSLAX46Y46*%
G04 Gerber Fmt 4.6, Leading zero omitted, Abs format (unit mm)*
G04 Created by KiCad (PCBNEW 5.0.1-33cea8e~68~ubuntu18.04.1) date jeu. 29 nov. 2018 09:03:48 CET*
%MOMM*%
%LPD*%
G01*
G04 APERTURE LIST*
%ADD10C,0.100000*%
G04 APERTURE END LIST*
D10*
G36*
X140384000Y-138733000D02*
X136984000Y-138733000D01*
X136984000Y-135333000D01*
X140384000Y-135333000D01*
X140384000Y-138733000D01*
X140384000Y-138733000D01*
G37*
G36*
X102473378Y-135707595D02*
X102626189Y-135753950D01*
X102702595Y-135777127D01*
X102759052Y-135807304D01*
X102913842Y-135890041D01*
X103099002Y-136041998D01*
X103250959Y-136227158D01*
X103302993Y-136324508D01*
X103363873Y-136438406D01*
X103363873Y-136438407D01*
X103433405Y-136667623D01*
X103451000Y-136846269D01*
X103451000Y-137473732D01*
X103433405Y-137652378D01*
X103392250Y-137788047D01*
X103363873Y-137881595D01*
X103303519Y-137994509D01*
X103250959Y-138092842D01*
X103099002Y-138278002D01*
X102913841Y-138429959D01*
X102759051Y-138512696D01*
X102702594Y-138542873D01*
X102626188Y-138566050D01*
X102473377Y-138612405D01*
X102235000Y-138635883D01*
X101996622Y-138612405D01*
X101843811Y-138566050D01*
X101767405Y-138542873D01*
X101654491Y-138482519D01*
X101556158Y-138429959D01*
X101370998Y-138278002D01*
X101219041Y-138092841D01*
X101106128Y-137881595D01*
X101106127Y-137881594D01*
X101084618Y-137810687D01*
X101075240Y-137788048D01*
X101061626Y-137767673D01*
X101044299Y-137750346D01*
X101023925Y-137736732D01*
X101001286Y-137727355D01*
X100977252Y-137722574D01*
X100952748Y-137722574D01*
X100928715Y-137727354D01*
X100906076Y-137736732D01*
X100885701Y-137750346D01*
X100868374Y-137767673D01*
X100854760Y-137788047D01*
X100845382Y-137810687D01*
X100823873Y-137881595D01*
X100763519Y-137994509D01*
X100710959Y-138092842D01*
X100559002Y-138278002D01*
X100373841Y-138429959D01*
X100219051Y-138512696D01*
X100162594Y-138542873D01*
X100086188Y-138566050D01*
X99933377Y-138612405D01*
X99695000Y-138635883D01*
X99456622Y-138612405D01*
X99303811Y-138566050D01*
X99227405Y-138542873D01*
X99114491Y-138482519D01*
X99016158Y-138429959D01*
X98830998Y-138278002D01*
X98679041Y-138092841D01*
X98566128Y-137881595D01*
X98566127Y-137881594D01*
X98544618Y-137810687D01*
X98535240Y-137788048D01*
X98521626Y-137767673D01*
X98504299Y-137750346D01*
X98483925Y-137736732D01*
X98461286Y-137727355D01*
X98437252Y-137722574D01*
X98412748Y-137722574D01*
X98388715Y-137727354D01*
X98366076Y-137736732D01*
X98345701Y-137750346D01*
X98328374Y-137767673D01*
X98314760Y-137788047D01*
X98305382Y-137810687D01*
X98283873Y-137881595D01*
X98223519Y-137994509D01*
X98170959Y-138092842D01*
X98019002Y-138278002D01*
X97833841Y-138429959D01*
X97679051Y-138512696D01*
X97622594Y-138542873D01*
X97546188Y-138566050D01*
X97393377Y-138612405D01*
X97155000Y-138635883D01*
X96916622Y-138612405D01*
X96763811Y-138566050D01*
X96687405Y-138542873D01*
X96574491Y-138482519D01*
X96476158Y-138429959D01*
X96290998Y-138278002D01*
X96139041Y-138092841D01*
X96026128Y-137881595D01*
X96026127Y-137881594D01*
X95982184Y-137736732D01*
X95956595Y-137652377D01*
X95939000Y-137473731D01*
X95939000Y-136846268D01*
X95956595Y-136667622D01*
X96022770Y-136449472D01*
X96026127Y-136438405D01*
X96139042Y-136227157D01*
X96290999Y-136041998D01*
X96476159Y-135890041D01*
X96630949Y-135807304D01*
X96687406Y-135777127D01*
X96763812Y-135753950D01*
X96916623Y-135707595D01*
X97155000Y-135684117D01*
X97393378Y-135707595D01*
X97546189Y-135753950D01*
X97622595Y-135777127D01*
X97679052Y-135807304D01*
X97833842Y-135890041D01*
X98019002Y-136041998D01*
X98170959Y-136227158D01*
X98222993Y-136324508D01*
X98283873Y-136438406D01*
X98305382Y-136509313D01*
X98314760Y-136531952D01*
X98328374Y-136552327D01*
X98345701Y-136569654D01*
X98366075Y-136583268D01*
X98388714Y-136592645D01*
X98412748Y-136597426D01*
X98437252Y-136597426D01*
X98461285Y-136592646D01*
X98483924Y-136583268D01*
X98504299Y-136569654D01*
X98521626Y-136552327D01*
X98535240Y-136531953D01*
X98544618Y-136509313D01*
X98566127Y-136438405D01*
X98679042Y-136227157D01*
X98830999Y-136041998D01*
X99016159Y-135890041D01*
X99170949Y-135807304D01*
X99227406Y-135777127D01*
X99303812Y-135753950D01*
X99456623Y-135707595D01*
X99695000Y-135684117D01*
X99933378Y-135707595D01*
X100086189Y-135753950D01*
X100162595Y-135777127D01*
X100219052Y-135807304D01*
X100373842Y-135890041D01*
X100559002Y-136041998D01*
X100710959Y-136227158D01*
X100762993Y-136324508D01*
X100823873Y-136438406D01*
X100845382Y-136509313D01*
X100854760Y-136531952D01*
X100868374Y-136552327D01*
X100885701Y-136569654D01*
X100906075Y-136583268D01*
X100928714Y-136592645D01*
X100952748Y-136597426D01*
X100977252Y-136597426D01*
X101001285Y-136592646D01*
X101023924Y-136583268D01*
X101044299Y-136569654D01*
X101061626Y-136552327D01*
X101075240Y-136531953D01*
X101084618Y-136509313D01*
X101106127Y-136438405D01*
X101219042Y-136227157D01*
X101370999Y-136041998D01*
X101556159Y-135890041D01*
X101710949Y-135807304D01*
X101767406Y-135777127D01*
X101843812Y-135753950D01*
X101996623Y-135707595D01*
X102235000Y-135684117D01*
X102473378Y-135707595D01*
X102473378Y-135707595D01*
G37*
G36*
X84366030Y-136174469D02*
X84366033Y-136174470D01*
X84366034Y-136174470D01*
X84554535Y-136231651D01*
X84554537Y-136231652D01*
X84728260Y-136324509D01*
X84880528Y-136449472D01*
X85005491Y-136601740D01*
X85005492Y-136601742D01*
X85098349Y-136775465D01*
X85119827Y-136846269D01*
X85155531Y-136963970D01*
X85174838Y-137160000D01*
X85155531Y-137356030D01*
X85155530Y-137356033D01*
X85155530Y-137356034D01*
X85119827Y-137473732D01*
X85098348Y-137544537D01*
X85005491Y-137718260D01*
X84880528Y-137870528D01*
X84728260Y-137995491D01*
X84728258Y-137995492D01*
X84554535Y-138088349D01*
X84366034Y-138145530D01*
X84366033Y-138145530D01*
X84366030Y-138145531D01*
X84219124Y-138160000D01*
X83420876Y-138160000D01*
X83273970Y-138145531D01*
X83273967Y-138145530D01*
X83273966Y-138145530D01*
X83085465Y-138088349D01*
X82911742Y-137995492D01*
X82911740Y-137995491D01*
X82759472Y-137870528D01*
X82634509Y-137718260D01*
X82541652Y-137544537D01*
X82520174Y-137473732D01*
X82484470Y-137356034D01*
X82484470Y-137356033D01*
X82484469Y-137356030D01*
X82465162Y-137160000D01*
X82484469Y-136963970D01*
X82520173Y-136846269D01*
X82541651Y-136775465D01*
X82634508Y-136601742D01*
X82634509Y-136601740D01*
X82759472Y-136449472D01*
X82911740Y-136324509D01*
X83085463Y-136231652D01*
X83085465Y-136231651D01*
X83273966Y-136174470D01*
X83273967Y-136174470D01*
X83273970Y-136174469D01*
X83420876Y-136160000D01*
X84219124Y-136160000D01*
X84366030Y-136174469D01*
X84366030Y-136174469D01*
G37*
G36*
X91986030Y-136174469D02*
X91986033Y-136174470D01*
X91986034Y-136174470D01*
X92174535Y-136231651D01*
X92174537Y-136231652D01*
X92348260Y-136324509D01*
X92500528Y-136449472D01*
X92625491Y-136601740D01*
X92625492Y-136601742D01*
X92718349Y-136775465D01*
X92739827Y-136846269D01*
X92775531Y-136963970D01*
X92794838Y-137160000D01*
X92775531Y-137356030D01*
X92775530Y-137356033D01*
X92775530Y-137356034D01*
X92739827Y-137473732D01*
X92718348Y-137544537D01*
X92625491Y-137718260D01*
X92500528Y-137870528D01*
X92348260Y-137995491D01*
X92348258Y-137995492D01*
X92174535Y-138088349D01*
X91986034Y-138145530D01*
X91986033Y-138145530D01*
X91986030Y-138145531D01*
X91839124Y-138160000D01*
X91040876Y-138160000D01*
X90893970Y-138145531D01*
X90893967Y-138145530D01*
X90893966Y-138145530D01*
X90705465Y-138088349D01*
X90531742Y-137995492D01*
X90531740Y-137995491D01*
X90379472Y-137870528D01*
X90254509Y-137718260D01*
X90161652Y-137544537D01*
X90140174Y-137473732D01*
X90104470Y-137356034D01*
X90104470Y-137356033D01*
X90104469Y-137356030D01*
X90085162Y-137160000D01*
X90104469Y-136963970D01*
X90140173Y-136846269D01*
X90161651Y-136775465D01*
X90254508Y-136601742D01*
X90254509Y-136601740D01*
X90379472Y-136449472D01*
X90531740Y-136324509D01*
X90705463Y-136231652D01*
X90705465Y-136231651D01*
X90893966Y-136174470D01*
X90893967Y-136174470D01*
X90893970Y-136174469D01*
X91040876Y-136160000D01*
X91839124Y-136160000D01*
X91986030Y-136174469D01*
X91986030Y-136174469D01*
G37*
G36*
X91986030Y-133634469D02*
X91986033Y-133634470D01*
X91986034Y-133634470D01*
X92174535Y-133691651D01*
X92174537Y-133691652D01*
X92348260Y-133784509D01*
X92500528Y-133909472D01*
X92625491Y-134061740D01*
X92718348Y-134235463D01*
X92775531Y-134423970D01*
X92794838Y-134620000D01*
X92775531Y-134816030D01*
X92718348Y-135004537D01*
X92625491Y-135178260D01*
X92500528Y-135330528D01*
X92348260Y-135455491D01*
X92348258Y-135455492D01*
X92174535Y-135548349D01*
X91986034Y-135605530D01*
X91986033Y-135605530D01*
X91986030Y-135605531D01*
X91839124Y-135620000D01*
X91040876Y-135620000D01*
X90893970Y-135605531D01*
X90893967Y-135605530D01*
X90893966Y-135605530D01*
X90705465Y-135548349D01*
X90531742Y-135455492D01*
X90531740Y-135455491D01*
X90379472Y-135330528D01*
X90254509Y-135178260D01*
X90161652Y-135004537D01*
X90104469Y-134816030D01*
X90085162Y-134620000D01*
X90104469Y-134423970D01*
X90161652Y-134235463D01*
X90254509Y-134061740D01*
X90379472Y-133909472D01*
X90531740Y-133784509D01*
X90705463Y-133691652D01*
X90705465Y-133691651D01*
X90893966Y-133634470D01*
X90893967Y-133634470D01*
X90893970Y-133634469D01*
X91040876Y-133620000D01*
X91839124Y-133620000D01*
X91986030Y-133634469D01*
X91986030Y-133634469D01*
G37*
G36*
X84366030Y-133634469D02*
X84366033Y-133634470D01*
X84366034Y-133634470D01*
X84554535Y-133691651D01*
X84554537Y-133691652D01*
X84728260Y-133784509D01*
X84880528Y-133909472D01*
X85005491Y-134061740D01*
X85098348Y-134235463D01*
X85155531Y-134423970D01*
X85174838Y-134620000D01*
X85155531Y-134816030D01*
X85098348Y-135004537D01*
X85005491Y-135178260D01*
X84880528Y-135330528D01*
X84728260Y-135455491D01*
X84728258Y-135455492D01*
X84554535Y-135548349D01*
X84366034Y-135605530D01*
X84366033Y-135605530D01*
X84366030Y-135605531D01*
X84219124Y-135620000D01*
X83420876Y-135620000D01*
X83273970Y-135605531D01*
X83273967Y-135605530D01*
X83273966Y-135605530D01*
X83085465Y-135548349D01*
X82911742Y-135455492D01*
X82911740Y-135455491D01*
X82759472Y-135330528D01*
X82634509Y-135178260D01*
X82541652Y-135004537D01*
X82484469Y-134816030D01*
X82465162Y-134620000D01*
X82484469Y-134423970D01*
X82541652Y-134235463D01*
X82634509Y-134061740D01*
X82759472Y-133909472D01*
X82911740Y-133784509D01*
X83085463Y-133691652D01*
X83085465Y-133691651D01*
X83273966Y-133634470D01*
X83273967Y-133634470D01*
X83273970Y-133634469D01*
X83420876Y-133620000D01*
X84219124Y-133620000D01*
X84366030Y-133634469D01*
X84366030Y-133634469D01*
G37*
G36*
X109606393Y-130423553D02*
X109715872Y-130445330D01*
X110025252Y-130573479D01*
X110303687Y-130759523D01*
X110540477Y-130996313D01*
X110726521Y-131274748D01*
X110853074Y-131580275D01*
X110854670Y-131584129D01*
X110920000Y-131912563D01*
X110920000Y-132247437D01*
X110892910Y-132383625D01*
X110854670Y-132575872D01*
X110726521Y-132885252D01*
X110540477Y-133163687D01*
X110303687Y-133400477D01*
X110025252Y-133586521D01*
X109715872Y-133714670D01*
X109606393Y-133736447D01*
X109387437Y-133780000D01*
X109052563Y-133780000D01*
X108833607Y-133736447D01*
X108724128Y-133714670D01*
X108414748Y-133586521D01*
X108136313Y-133400477D01*
X107899523Y-133163687D01*
X107713479Y-132885252D01*
X107585330Y-132575872D01*
X107547090Y-132383625D01*
X107520000Y-132247437D01*
X107520000Y-131912563D01*
X107585330Y-131584129D01*
X107586926Y-131580275D01*
X107713479Y-131274748D01*
X107899523Y-130996313D01*
X108136313Y-130759523D01*
X108414748Y-130573479D01*
X108724128Y-130445330D01*
X108833607Y-130423553D01*
X109052563Y-130380000D01*
X109387437Y-130380000D01*
X109606393Y-130423553D01*
X109606393Y-130423553D01*
G37*
G36*
X132106393Y-130423553D02*
X132215872Y-130445330D01*
X132525252Y-130573479D01*
X132803687Y-130759523D01*
X133040477Y-130996313D01*
X133226521Y-131274748D01*
X133353074Y-131580275D01*
X133354670Y-131584129D01*
X133420000Y-131912563D01*
X133420000Y-132247437D01*
X133392910Y-132383625D01*
X133354670Y-132575872D01*
X133226521Y-132885252D01*
X133040477Y-133163687D01*
X132803687Y-133400477D01*
X132525252Y-133586521D01*
X132215872Y-133714670D01*
X132106393Y-133736447D01*
X131887437Y-133780000D01*
X131552563Y-133780000D01*
X131333607Y-133736447D01*
X131224128Y-133714670D01*
X130914748Y-133586521D01*
X130636313Y-133400477D01*
X130399523Y-133163687D01*
X130213479Y-132885252D01*
X130085330Y-132575872D01*
X130047090Y-132383625D01*
X130020000Y-132247437D01*
X130020000Y-131912563D01*
X130085330Y-131584129D01*
X130086926Y-131580275D01*
X130213479Y-131274748D01*
X130399523Y-130996313D01*
X130636313Y-130759523D01*
X130914748Y-130573479D01*
X131224128Y-130445330D01*
X131333607Y-130423553D01*
X131552563Y-130380000D01*
X131887437Y-130380000D01*
X132106393Y-130423553D01*
X132106393Y-130423553D01*
G37*
G36*
X139070393Y-130296553D02*
X139179872Y-130318330D01*
X139489252Y-130446479D01*
X139767687Y-130632523D01*
X140004477Y-130869313D01*
X140190521Y-131147748D01*
X140318670Y-131457128D01*
X140318670Y-131457129D01*
X140381162Y-131771294D01*
X140384000Y-131785565D01*
X140384000Y-132120435D01*
X140318670Y-132448872D01*
X140190521Y-132758252D01*
X140004477Y-133036687D01*
X139767687Y-133273477D01*
X139489252Y-133459521D01*
X139179872Y-133587670D01*
X139070393Y-133609447D01*
X138851437Y-133653000D01*
X138516563Y-133653000D01*
X138297607Y-133609447D01*
X138188128Y-133587670D01*
X137878748Y-133459521D01*
X137600313Y-133273477D01*
X137363523Y-133036687D01*
X137177479Y-132758252D01*
X137049330Y-132448872D01*
X136984000Y-132120435D01*
X136984000Y-131785565D01*
X136986839Y-131771294D01*
X137049330Y-131457129D01*
X137049330Y-131457128D01*
X137177479Y-131147748D01*
X137363523Y-130869313D01*
X137600313Y-130632523D01*
X137878748Y-130446479D01*
X138188128Y-130318330D01*
X138297607Y-130296553D01*
X138516563Y-130253000D01*
X138851437Y-130253000D01*
X139070393Y-130296553D01*
X139070393Y-130296553D01*
G37*
G36*
X105615293Y-131047998D02*
X105716686Y-131068166D01*
X105745255Y-131080000D01*
X105907705Y-131147289D01*
X106079623Y-131262161D01*
X106225819Y-131408357D01*
X106340691Y-131580275D01*
X106342287Y-131584129D01*
X106419814Y-131771294D01*
X106439982Y-131872687D01*
X106460150Y-131974079D01*
X106460150Y-132180841D01*
X106419814Y-132383625D01*
X106340691Y-132574645D01*
X106225819Y-132746563D01*
X106079623Y-132892759D01*
X105907705Y-133007631D01*
X105795809Y-133053980D01*
X105716686Y-133086754D01*
X105615293Y-133106922D01*
X105513901Y-133127090D01*
X105307139Y-133127090D01*
X105205747Y-133106922D01*
X105104354Y-133086754D01*
X105025231Y-133053980D01*
X104913335Y-133007631D01*
X104741417Y-132892759D01*
X104595221Y-132746563D01*
X104480349Y-132574645D01*
X104401226Y-132383625D01*
X104360890Y-132180841D01*
X104360890Y-131974079D01*
X104381058Y-131872687D01*
X104401226Y-131771294D01*
X104478753Y-131584129D01*
X104480349Y-131580275D01*
X104595221Y-131408357D01*
X104741417Y-131262161D01*
X104913335Y-131147289D01*
X105075785Y-131080000D01*
X105104354Y-131068166D01*
X105205747Y-131047998D01*
X105307139Y-131027830D01*
X105513901Y-131027830D01*
X105615293Y-131047998D01*
X105615293Y-131047998D01*
G37*
G36*
X95455293Y-131047998D02*
X95556686Y-131068166D01*
X95585255Y-131080000D01*
X95747705Y-131147289D01*
X95919623Y-131262161D01*
X96065819Y-131408357D01*
X96180691Y-131580275D01*
X96182287Y-131584129D01*
X96259814Y-131771294D01*
X96279982Y-131872687D01*
X96300150Y-131974079D01*
X96300150Y-132180841D01*
X96259814Y-132383625D01*
X96180691Y-132574645D01*
X96065819Y-132746563D01*
X95919623Y-132892759D01*
X95747705Y-133007631D01*
X95635809Y-133053980D01*
X95556686Y-133086754D01*
X95455293Y-133106922D01*
X95353901Y-133127090D01*
X95147139Y-133127090D01*
X95045747Y-133106922D01*
X94944354Y-133086754D01*
X94865231Y-133053980D01*
X94753335Y-133007631D01*
X94581417Y-132892759D01*
X94435221Y-132746563D01*
X94320349Y-132574645D01*
X94241226Y-132383625D01*
X94200890Y-132180841D01*
X94200890Y-131974079D01*
X94221058Y-131872687D01*
X94241226Y-131771294D01*
X94318753Y-131584129D01*
X94320349Y-131580275D01*
X94435221Y-131408357D01*
X94581417Y-131262161D01*
X94753335Y-131147289D01*
X94915785Y-131080000D01*
X94944354Y-131068166D01*
X95045747Y-131047998D01*
X95147139Y-131027830D01*
X95353901Y-131027830D01*
X95455293Y-131047998D01*
X95455293Y-131047998D01*
G37*
G36*
X84366030Y-131094469D02*
X84366033Y-131094470D01*
X84366034Y-131094470D01*
X84554535Y-131151651D01*
X84554537Y-131151652D01*
X84728260Y-131244509D01*
X84880528Y-131369472D01*
X85005491Y-131521740D01*
X85005492Y-131521742D01*
X85098349Y-131695465D01*
X85125680Y-131785563D01*
X85155531Y-131883970D01*
X85174838Y-132080000D01*
X85155531Y-132276030D01*
X85155530Y-132276033D01*
X85155530Y-132276034D01*
X85103101Y-132448871D01*
X85098348Y-132464537D01*
X85005491Y-132638260D01*
X84880528Y-132790528D01*
X84728260Y-132915491D01*
X84728258Y-132915492D01*
X84554535Y-133008349D01*
X84366034Y-133065530D01*
X84366033Y-133065530D01*
X84366030Y-133065531D01*
X84219124Y-133080000D01*
X83420876Y-133080000D01*
X83273970Y-133065531D01*
X83273967Y-133065530D01*
X83273966Y-133065530D01*
X83085465Y-133008349D01*
X82911742Y-132915492D01*
X82911740Y-132915491D01*
X82759472Y-132790528D01*
X82634509Y-132638260D01*
X82541652Y-132464537D01*
X82536900Y-132448871D01*
X82484470Y-132276034D01*
X82484470Y-132276033D01*
X82484469Y-132276030D01*
X82465162Y-132080000D01*
X82484469Y-131883970D01*
X82514320Y-131785563D01*
X82541651Y-131695465D01*
X82634508Y-131521742D01*
X82634509Y-131521740D01*
X82759472Y-131369472D01*
X82911740Y-131244509D01*
X83085463Y-131151652D01*
X83085465Y-131151651D01*
X83273966Y-131094470D01*
X83273967Y-131094470D01*
X83273970Y-131094469D01*
X83420876Y-131080000D01*
X84219124Y-131080000D01*
X84366030Y-131094469D01*
X84366030Y-131094469D01*
G37*
G36*
X91986030Y-131094469D02*
X91986033Y-131094470D01*
X91986034Y-131094470D01*
X92174535Y-131151651D01*
X92174537Y-131151652D01*
X92348260Y-131244509D01*
X92500528Y-131369472D01*
X92625491Y-131521740D01*
X92625492Y-131521742D01*
X92718349Y-131695465D01*
X92745680Y-131785563D01*
X92775531Y-131883970D01*
X92794838Y-132080000D01*
X92775531Y-132276030D01*
X92775530Y-132276033D01*
X92775530Y-132276034D01*
X92723101Y-132448871D01*
X92718348Y-132464537D01*
X92625491Y-132638260D01*
X92500528Y-132790528D01*
X92348260Y-132915491D01*
X92348258Y-132915492D01*
X92174535Y-133008349D01*
X91986034Y-133065530D01*
X91986033Y-133065530D01*
X91986030Y-133065531D01*
X91839124Y-133080000D01*
X91040876Y-133080000D01*
X90893970Y-133065531D01*
X90893967Y-133065530D01*
X90893966Y-133065530D01*
X90705465Y-133008349D01*
X90531742Y-132915492D01*
X90531740Y-132915491D01*
X90379472Y-132790528D01*
X90254509Y-132638260D01*
X90161652Y-132464537D01*
X90156900Y-132448871D01*
X90104470Y-132276034D01*
X90104470Y-132276033D01*
X90104469Y-132276030D01*
X90085162Y-132080000D01*
X90104469Y-131883970D01*
X90134320Y-131785563D01*
X90161651Y-131695465D01*
X90254508Y-131521742D01*
X90254509Y-131521740D01*
X90379472Y-131369472D01*
X90531740Y-131244509D01*
X90705463Y-131151652D01*
X90705465Y-131151651D01*
X90893966Y-131094470D01*
X90893967Y-131094470D01*
X90893970Y-131094469D01*
X91040876Y-131080000D01*
X91839124Y-131080000D01*
X91986030Y-131094469D01*
X91986030Y-131094469D01*
G37*
G36*
X140384000Y-127430000D02*
X136984000Y-127430000D01*
X136984000Y-124030000D01*
X140384000Y-124030000D01*
X140384000Y-127430000D01*
X140384000Y-127430000D01*
G37*
G36*
X102473378Y-124277595D02*
X102626189Y-124323950D01*
X102702595Y-124347127D01*
X102759052Y-124377304D01*
X102913842Y-124460041D01*
X103099002Y-124611998D01*
X103250959Y-124797158D01*
X103302993Y-124894508D01*
X103363873Y-125008406D01*
X103363873Y-125008407D01*
X103433405Y-125237623D01*
X103451000Y-125416269D01*
X103451000Y-126043732D01*
X103433405Y-126222378D01*
X103392250Y-126358047D01*
X103363873Y-126451595D01*
X103303519Y-126564509D01*
X103250959Y-126662842D01*
X103099002Y-126848002D01*
X102913841Y-126999959D01*
X102759051Y-127082696D01*
X102702594Y-127112873D01*
X102626188Y-127136050D01*
X102473377Y-127182405D01*
X102235000Y-127205883D01*
X101996622Y-127182405D01*
X101843811Y-127136050D01*
X101767405Y-127112873D01*
X101654491Y-127052519D01*
X101556158Y-126999959D01*
X101370998Y-126848002D01*
X101219041Y-126662841D01*
X101106128Y-126451595D01*
X101106127Y-126451594D01*
X101084618Y-126380687D01*
X101075240Y-126358048D01*
X101061626Y-126337673D01*
X101044299Y-126320346D01*
X101023925Y-126306732D01*
X101001286Y-126297355D01*
X100977252Y-126292574D01*
X100952748Y-126292574D01*
X100928715Y-126297354D01*
X100906076Y-126306732D01*
X100885701Y-126320346D01*
X100868374Y-126337673D01*
X100854760Y-126358047D01*
X100845382Y-126380687D01*
X100823873Y-126451595D01*
X100763519Y-126564509D01*
X100710959Y-126662842D01*
X100559002Y-126848002D01*
X100373841Y-126999959D01*
X100219051Y-127082696D01*
X100162594Y-127112873D01*
X100086188Y-127136050D01*
X99933377Y-127182405D01*
X99695000Y-127205883D01*
X99456622Y-127182405D01*
X99303811Y-127136050D01*
X99227405Y-127112873D01*
X99114491Y-127052519D01*
X99016158Y-126999959D01*
X98830998Y-126848002D01*
X98679041Y-126662841D01*
X98566128Y-126451595D01*
X98566127Y-126451594D01*
X98544618Y-126380687D01*
X98535240Y-126358048D01*
X98521626Y-126337673D01*
X98504299Y-126320346D01*
X98483925Y-126306732D01*
X98461286Y-126297355D01*
X98437252Y-126292574D01*
X98412748Y-126292574D01*
X98388715Y-126297354D01*
X98366076Y-126306732D01*
X98345701Y-126320346D01*
X98328374Y-126337673D01*
X98314760Y-126358047D01*
X98305382Y-126380687D01*
X98283873Y-126451595D01*
X98223519Y-126564509D01*
X98170959Y-126662842D01*
X98019002Y-126848002D01*
X97833841Y-126999959D01*
X97679051Y-127082696D01*
X97622594Y-127112873D01*
X97546188Y-127136050D01*
X97393377Y-127182405D01*
X97155000Y-127205883D01*
X96916622Y-127182405D01*
X96763811Y-127136050D01*
X96687405Y-127112873D01*
X96574491Y-127052519D01*
X96476158Y-126999959D01*
X96290998Y-126848002D01*
X96139041Y-126662841D01*
X96026128Y-126451595D01*
X96026127Y-126451594D01*
X95982184Y-126306732D01*
X95956595Y-126222377D01*
X95939000Y-126043731D01*
X95939000Y-125416268D01*
X95956595Y-125237622D01*
X96022770Y-125019472D01*
X96026127Y-125008405D01*
X96139042Y-124797157D01*
X96290999Y-124611998D01*
X96476159Y-124460041D01*
X96630949Y-124377304D01*
X96687406Y-124347127D01*
X96763812Y-124323950D01*
X96916623Y-124277595D01*
X97155000Y-124254117D01*
X97393378Y-124277595D01*
X97546189Y-124323950D01*
X97622595Y-124347127D01*
X97679052Y-124377304D01*
X97833842Y-124460041D01*
X98019002Y-124611998D01*
X98170959Y-124797158D01*
X98222993Y-124894508D01*
X98283873Y-125008406D01*
X98305382Y-125079313D01*
X98314760Y-125101952D01*
X98328374Y-125122327D01*
X98345701Y-125139654D01*
X98366075Y-125153268D01*
X98388714Y-125162645D01*
X98412748Y-125167426D01*
X98437252Y-125167426D01*
X98461285Y-125162646D01*
X98483924Y-125153268D01*
X98504299Y-125139654D01*
X98521626Y-125122327D01*
X98535240Y-125101953D01*
X98544618Y-125079313D01*
X98566127Y-125008405D01*
X98679042Y-124797157D01*
X98830999Y-124611998D01*
X99016159Y-124460041D01*
X99170949Y-124377304D01*
X99227406Y-124347127D01*
X99303812Y-124323950D01*
X99456623Y-124277595D01*
X99695000Y-124254117D01*
X99933378Y-124277595D01*
X100086189Y-124323950D01*
X100162595Y-124347127D01*
X100219052Y-124377304D01*
X100373842Y-124460041D01*
X100559002Y-124611998D01*
X100710959Y-124797158D01*
X100762993Y-124894508D01*
X100823873Y-125008406D01*
X100845382Y-125079313D01*
X100854760Y-125101952D01*
X100868374Y-125122327D01*
X100885701Y-125139654D01*
X100906075Y-125153268D01*
X100928714Y-125162645D01*
X100952748Y-125167426D01*
X100977252Y-125167426D01*
X101001285Y-125162646D01*
X101023924Y-125153268D01*
X101044299Y-125139654D01*
X101061626Y-125122327D01*
X101075240Y-125101953D01*
X101084618Y-125079313D01*
X101106127Y-125008405D01*
X101219042Y-124797157D01*
X101370999Y-124611998D01*
X101556159Y-124460041D01*
X101710949Y-124377304D01*
X101767406Y-124347127D01*
X101843812Y-124323950D01*
X101996623Y-124277595D01*
X102235000Y-124254117D01*
X102473378Y-124277595D01*
X102473378Y-124277595D01*
G37*
G36*
X91986030Y-124744469D02*
X91986033Y-124744470D01*
X91986034Y-124744470D01*
X92174535Y-124801651D01*
X92174537Y-124801652D01*
X92348260Y-124894509D01*
X92500528Y-125019472D01*
X92625491Y-125171740D01*
X92625492Y-125171742D01*
X92718349Y-125345465D01*
X92739827Y-125416269D01*
X92775531Y-125533970D01*
X92794838Y-125730000D01*
X92775531Y-125926030D01*
X92775530Y-125926033D01*
X92775530Y-125926034D01*
X92739827Y-126043732D01*
X92718348Y-126114537D01*
X92625491Y-126288260D01*
X92500528Y-126440528D01*
X92348260Y-126565491D01*
X92348258Y-126565492D01*
X92174535Y-126658349D01*
X91986034Y-126715530D01*
X91986033Y-126715530D01*
X91986030Y-126715531D01*
X91839124Y-126730000D01*
X91040876Y-126730000D01*
X90893970Y-126715531D01*
X90893967Y-126715530D01*
X90893966Y-126715530D01*
X90705465Y-126658349D01*
X90531742Y-126565492D01*
X90531740Y-126565491D01*
X90379472Y-126440528D01*
X90254509Y-126288260D01*
X90161652Y-126114537D01*
X90140174Y-126043732D01*
X90104470Y-125926034D01*
X90104470Y-125926033D01*
X90104469Y-125926030D01*
X90085162Y-125730000D01*
X90104469Y-125533970D01*
X90140173Y-125416269D01*
X90161651Y-125345465D01*
X90254508Y-125171742D01*
X90254509Y-125171740D01*
X90379472Y-125019472D01*
X90531740Y-124894509D01*
X90705463Y-124801652D01*
X90705465Y-124801651D01*
X90893966Y-124744470D01*
X90893967Y-124744470D01*
X90893970Y-124744469D01*
X91040876Y-124730000D01*
X91839124Y-124730000D01*
X91986030Y-124744469D01*
X91986030Y-124744469D01*
G37*
G36*
X84366030Y-124744469D02*
X84366033Y-124744470D01*
X84366034Y-124744470D01*
X84554535Y-124801651D01*
X84554537Y-124801652D01*
X84728260Y-124894509D01*
X84880528Y-125019472D01*
X85005491Y-125171740D01*
X85005492Y-125171742D01*
X85098349Y-125345465D01*
X85119827Y-125416269D01*
X85155531Y-125533970D01*
X85174838Y-125730000D01*
X85155531Y-125926030D01*
X85155530Y-125926033D01*
X85155530Y-125926034D01*
X85119827Y-126043732D01*
X85098348Y-126114537D01*
X85005491Y-126288260D01*
X84880528Y-126440528D01*
X84728260Y-126565491D01*
X84728258Y-126565492D01*
X84554535Y-126658349D01*
X84366034Y-126715530D01*
X84366033Y-126715530D01*
X84366030Y-126715531D01*
X84219124Y-126730000D01*
X83420876Y-126730000D01*
X83273970Y-126715531D01*
X83273967Y-126715530D01*
X83273966Y-126715530D01*
X83085465Y-126658349D01*
X82911742Y-126565492D01*
X82911740Y-126565491D01*
X82759472Y-126440528D01*
X82634509Y-126288260D01*
X82541652Y-126114537D01*
X82520174Y-126043732D01*
X82484470Y-125926034D01*
X82484470Y-125926033D01*
X82484469Y-125926030D01*
X82465162Y-125730000D01*
X82484469Y-125533970D01*
X82520173Y-125416269D01*
X82541651Y-125345465D01*
X82634508Y-125171742D01*
X82634509Y-125171740D01*
X82759472Y-125019472D01*
X82911740Y-124894509D01*
X83085463Y-124801652D01*
X83085465Y-124801651D01*
X83273966Y-124744470D01*
X83273967Y-124744470D01*
X83273970Y-124744469D01*
X83420876Y-124730000D01*
X84219124Y-124730000D01*
X84366030Y-124744469D01*
X84366030Y-124744469D01*
G37*
G36*
X91986030Y-122204469D02*
X91986033Y-122204470D01*
X91986034Y-122204470D01*
X92174535Y-122261651D01*
X92174537Y-122261652D01*
X92348260Y-122354509D01*
X92500528Y-122479472D01*
X92625491Y-122631740D01*
X92718348Y-122805463D01*
X92775531Y-122993970D01*
X92794838Y-123190000D01*
X92775531Y-123386030D01*
X92718348Y-123574537D01*
X92625491Y-123748260D01*
X92500528Y-123900528D01*
X92348260Y-124025491D01*
X92348258Y-124025492D01*
X92174535Y-124118349D01*
X91986034Y-124175530D01*
X91986033Y-124175530D01*
X91986030Y-124175531D01*
X91839124Y-124190000D01*
X91040876Y-124190000D01*
X90893970Y-124175531D01*
X90893967Y-124175530D01*
X90893966Y-124175530D01*
X90705465Y-124118349D01*
X90531742Y-124025492D01*
X90531740Y-124025491D01*
X90379472Y-123900528D01*
X90254509Y-123748260D01*
X90161652Y-123574537D01*
X90104469Y-123386030D01*
X90085162Y-123190000D01*
X90104469Y-122993970D01*
X90161652Y-122805463D01*
X90254509Y-122631740D01*
X90379472Y-122479472D01*
X90531740Y-122354509D01*
X90705463Y-122261652D01*
X90705465Y-122261651D01*
X90893966Y-122204470D01*
X90893967Y-122204470D01*
X90893970Y-122204469D01*
X91040876Y-122190000D01*
X91839124Y-122190000D01*
X91986030Y-122204469D01*
X91986030Y-122204469D01*
G37*
G36*
X84366030Y-122204469D02*
X84366033Y-122204470D01*
X84366034Y-122204470D01*
X84554535Y-122261651D01*
X84554537Y-122261652D01*
X84728260Y-122354509D01*
X84880528Y-122479472D01*
X85005491Y-122631740D01*
X85098348Y-122805463D01*
X85155531Y-122993970D01*
X85174838Y-123190000D01*
X85155531Y-123386030D01*
X85098348Y-123574537D01*
X85005491Y-123748260D01*
X84880528Y-123900528D01*
X84728260Y-124025491D01*
X84728258Y-124025492D01*
X84554535Y-124118349D01*
X84366034Y-124175530D01*
X84366033Y-124175530D01*
X84366030Y-124175531D01*
X84219124Y-124190000D01*
X83420876Y-124190000D01*
X83273970Y-124175531D01*
X83273967Y-124175530D01*
X83273966Y-124175530D01*
X83085465Y-124118349D01*
X82911742Y-124025492D01*
X82911740Y-124025491D01*
X82759472Y-123900528D01*
X82634509Y-123748260D01*
X82541652Y-123574537D01*
X82484469Y-123386030D01*
X82465162Y-123190000D01*
X82484469Y-122993970D01*
X82541652Y-122805463D01*
X82634509Y-122631740D01*
X82759472Y-122479472D01*
X82911740Y-122354509D01*
X83085463Y-122261652D01*
X83085465Y-122261651D01*
X83273966Y-122204470D01*
X83273967Y-122204470D01*
X83273970Y-122204469D01*
X83420876Y-122190000D01*
X84219124Y-122190000D01*
X84366030Y-122204469D01*
X84366030Y-122204469D01*
G37*
G36*
X139070393Y-118993553D02*
X139179872Y-119015330D01*
X139489252Y-119143479D01*
X139767687Y-119329523D01*
X140004477Y-119566313D01*
X140190521Y-119844748D01*
X140317074Y-120150275D01*
X140318670Y-120154129D01*
X140384000Y-120482563D01*
X140384000Y-120817437D01*
X140356910Y-120953625D01*
X140318670Y-121145872D01*
X140190521Y-121455252D01*
X140004477Y-121733687D01*
X139767687Y-121970477D01*
X139489252Y-122156521D01*
X139179872Y-122284670D01*
X139070393Y-122306447D01*
X138851437Y-122350000D01*
X138516563Y-122350000D01*
X138297607Y-122306447D01*
X138188128Y-122284670D01*
X137878748Y-122156521D01*
X137600313Y-121970477D01*
X137363523Y-121733687D01*
X137177479Y-121455252D01*
X137049330Y-121145872D01*
X137011090Y-120953625D01*
X136984000Y-120817437D01*
X136984000Y-120482563D01*
X137049330Y-120154129D01*
X137050926Y-120150275D01*
X137177479Y-119844748D01*
X137363523Y-119566313D01*
X137600313Y-119329523D01*
X137878748Y-119143479D01*
X138188128Y-119015330D01*
X138297607Y-118993553D01*
X138516563Y-118950000D01*
X138851437Y-118950000D01*
X139070393Y-118993553D01*
X139070393Y-118993553D01*
G37*
G36*
X132106393Y-118993553D02*
X132215872Y-119015330D01*
X132525252Y-119143479D01*
X132803687Y-119329523D01*
X133040477Y-119566313D01*
X133226521Y-119844748D01*
X133353074Y-120150275D01*
X133354670Y-120154129D01*
X133420000Y-120482563D01*
X133420000Y-120817437D01*
X133392910Y-120953625D01*
X133354670Y-121145872D01*
X133226521Y-121455252D01*
X133040477Y-121733687D01*
X132803687Y-121970477D01*
X132525252Y-122156521D01*
X132215872Y-122284670D01*
X132106393Y-122306447D01*
X131887437Y-122350000D01*
X131552563Y-122350000D01*
X131333607Y-122306447D01*
X131224128Y-122284670D01*
X130914748Y-122156521D01*
X130636313Y-121970477D01*
X130399523Y-121733687D01*
X130213479Y-121455252D01*
X130085330Y-121145872D01*
X130047090Y-120953625D01*
X130020000Y-120817437D01*
X130020000Y-120482563D01*
X130085330Y-120154129D01*
X130086926Y-120150275D01*
X130213479Y-119844748D01*
X130399523Y-119566313D01*
X130636313Y-119329523D01*
X130914748Y-119143479D01*
X131224128Y-119015330D01*
X131333607Y-118993553D01*
X131552563Y-118950000D01*
X131887437Y-118950000D01*
X132106393Y-118993553D01*
X132106393Y-118993553D01*
G37*
G36*
X109606393Y-118993553D02*
X109715872Y-119015330D01*
X110025252Y-119143479D01*
X110303687Y-119329523D01*
X110540477Y-119566313D01*
X110726521Y-119844748D01*
X110853074Y-120150275D01*
X110854670Y-120154129D01*
X110920000Y-120482563D01*
X110920000Y-120817437D01*
X110892910Y-120953625D01*
X110854670Y-121145872D01*
X110726521Y-121455252D01*
X110540477Y-121733687D01*
X110303687Y-121970477D01*
X110025252Y-122156521D01*
X109715872Y-122284670D01*
X109606393Y-122306447D01*
X109387437Y-122350000D01*
X109052563Y-122350000D01*
X108833607Y-122306447D01*
X108724128Y-122284670D01*
X108414748Y-122156521D01*
X108136313Y-121970477D01*
X107899523Y-121733687D01*
X107713479Y-121455252D01*
X107585330Y-121145872D01*
X107547090Y-120953625D01*
X107520000Y-120817437D01*
X107520000Y-120482563D01*
X107585330Y-120154129D01*
X107586926Y-120150275D01*
X107713479Y-119844748D01*
X107899523Y-119566313D01*
X108136313Y-119329523D01*
X108414748Y-119143479D01*
X108724128Y-119015330D01*
X108833607Y-118993553D01*
X109052563Y-118950000D01*
X109387437Y-118950000D01*
X109606393Y-118993553D01*
X109606393Y-118993553D01*
G37*
G36*
X106250293Y-119617998D02*
X106351686Y-119638166D01*
X106380255Y-119650000D01*
X106542705Y-119717289D01*
X106714623Y-119832161D01*
X106860819Y-119978357D01*
X106975691Y-120150275D01*
X107054814Y-120341295D01*
X107095150Y-120544079D01*
X107095150Y-120750841D01*
X107054814Y-120953625D01*
X106975691Y-121144645D01*
X106860819Y-121316563D01*
X106714623Y-121462759D01*
X106542705Y-121577631D01*
X106430809Y-121623980D01*
X106351686Y-121656754D01*
X106250293Y-121676922D01*
X106148901Y-121697090D01*
X105942139Y-121697090D01*
X105840747Y-121676922D01*
X105739354Y-121656754D01*
X105660231Y-121623980D01*
X105548335Y-121577631D01*
X105376417Y-121462759D01*
X105230221Y-121316563D01*
X105115349Y-121144645D01*
X105036226Y-120953625D01*
X104995890Y-120750841D01*
X104995890Y-120544079D01*
X105036226Y-120341295D01*
X105115349Y-120150275D01*
X105230221Y-119978357D01*
X105376417Y-119832161D01*
X105548335Y-119717289D01*
X105710785Y-119650000D01*
X105739354Y-119638166D01*
X105840747Y-119617998D01*
X105942139Y-119597830D01*
X106148901Y-119597830D01*
X106250293Y-119617998D01*
X106250293Y-119617998D01*
G37*
G36*
X96090293Y-119617998D02*
X96191686Y-119638166D01*
X96220255Y-119650000D01*
X96382705Y-119717289D01*
X96554623Y-119832161D01*
X96700819Y-119978357D01*
X96815691Y-120150275D01*
X96894814Y-120341295D01*
X96935150Y-120544079D01*
X96935150Y-120750841D01*
X96894814Y-120953625D01*
X96815691Y-121144645D01*
X96700819Y-121316563D01*
X96554623Y-121462759D01*
X96382705Y-121577631D01*
X96270809Y-121623980D01*
X96191686Y-121656754D01*
X96090293Y-121676922D01*
X95988901Y-121697090D01*
X95782139Y-121697090D01*
X95680747Y-121676922D01*
X95579354Y-121656754D01*
X95500231Y-121623980D01*
X95388335Y-121577631D01*
X95216417Y-121462759D01*
X95070221Y-121316563D01*
X94955349Y-121144645D01*
X94876226Y-120953625D01*
X94835890Y-120750841D01*
X94835890Y-120544079D01*
X94876226Y-120341295D01*
X94955349Y-120150275D01*
X95070221Y-119978357D01*
X95216417Y-119832161D01*
X95388335Y-119717289D01*
X95550785Y-119650000D01*
X95579354Y-119638166D01*
X95680747Y-119617998D01*
X95782139Y-119597830D01*
X95988901Y-119597830D01*
X96090293Y-119617998D01*
X96090293Y-119617998D01*
G37*
G36*
X91986030Y-119664469D02*
X91986033Y-119664470D01*
X91986034Y-119664470D01*
X92174535Y-119721651D01*
X92174537Y-119721652D01*
X92348260Y-119814509D01*
X92500528Y-119939472D01*
X92625491Y-120091740D01*
X92625492Y-120091742D01*
X92718349Y-120265465D01*
X92775530Y-120453966D01*
X92775531Y-120453970D01*
X92794838Y-120650000D01*
X92775531Y-120846030D01*
X92775530Y-120846033D01*
X92775530Y-120846034D01*
X92742893Y-120953625D01*
X92718348Y-121034537D01*
X92625491Y-121208260D01*
X92500528Y-121360528D01*
X92348260Y-121485491D01*
X92348258Y-121485492D01*
X92174535Y-121578349D01*
X91986034Y-121635530D01*
X91986033Y-121635530D01*
X91986030Y-121635531D01*
X91839124Y-121650000D01*
X91040876Y-121650000D01*
X90893970Y-121635531D01*
X90893967Y-121635530D01*
X90893966Y-121635530D01*
X90705465Y-121578349D01*
X90531742Y-121485492D01*
X90531740Y-121485491D01*
X90379472Y-121360528D01*
X90254509Y-121208260D01*
X90161652Y-121034537D01*
X90137108Y-120953625D01*
X90104470Y-120846034D01*
X90104470Y-120846033D01*
X90104469Y-120846030D01*
X90085162Y-120650000D01*
X90104469Y-120453970D01*
X90104470Y-120453966D01*
X90161651Y-120265465D01*
X90254508Y-120091742D01*
X90254509Y-120091740D01*
X90379472Y-119939472D01*
X90531740Y-119814509D01*
X90705463Y-119721652D01*
X90705465Y-119721651D01*
X90893966Y-119664470D01*
X90893967Y-119664470D01*
X90893970Y-119664469D01*
X91040876Y-119650000D01*
X91839124Y-119650000D01*
X91986030Y-119664469D01*
X91986030Y-119664469D01*
G37*
G36*
X84366030Y-119664469D02*
X84366033Y-119664470D01*
X84366034Y-119664470D01*
X84554535Y-119721651D01*
X84554537Y-119721652D01*
X84728260Y-119814509D01*
X84880528Y-119939472D01*
X85005491Y-120091740D01*
X85005492Y-120091742D01*
X85098349Y-120265465D01*
X85155530Y-120453966D01*
X85155531Y-120453970D01*
X85174838Y-120650000D01*
X85155531Y-120846030D01*
X85155530Y-120846033D01*
X85155530Y-120846034D01*
X85122893Y-120953625D01*
X85098348Y-121034537D01*
X85005491Y-121208260D01*
X84880528Y-121360528D01*
X84728260Y-121485491D01*
X84728258Y-121485492D01*
X84554535Y-121578349D01*
X84366034Y-121635530D01*
X84366033Y-121635530D01*
X84366030Y-121635531D01*
X84219124Y-121650000D01*
X83420876Y-121650000D01*
X83273970Y-121635531D01*
X83273967Y-121635530D01*
X83273966Y-121635530D01*
X83085465Y-121578349D01*
X82911742Y-121485492D01*
X82911740Y-121485491D01*
X82759472Y-121360528D01*
X82634509Y-121208260D01*
X82541652Y-121034537D01*
X82517108Y-120953625D01*
X82484470Y-120846034D01*
X82484470Y-120846033D01*
X82484469Y-120846030D01*
X82465162Y-120650000D01*
X82484469Y-120453970D01*
X82484470Y-120453966D01*
X82541651Y-120265465D01*
X82634508Y-120091742D01*
X82634509Y-120091740D01*
X82759472Y-119939472D01*
X82911740Y-119814509D01*
X83085463Y-119721652D01*
X83085465Y-119721651D01*
X83273966Y-119664470D01*
X83273967Y-119664470D01*
X83273970Y-119664469D01*
X83420876Y-119650000D01*
X84219124Y-119650000D01*
X84366030Y-119664469D01*
X84366030Y-119664469D01*
G37*
G36*
X140384000Y-116000000D02*
X136984000Y-116000000D01*
X136984000Y-112600000D01*
X140384000Y-112600000D01*
X140384000Y-116000000D01*
X140384000Y-116000000D01*
G37*
G36*
X102473378Y-112847595D02*
X102626189Y-112893950D01*
X102702595Y-112917127D01*
X102759052Y-112947304D01*
X102913842Y-113030041D01*
X103099002Y-113181998D01*
X103250959Y-113367158D01*
X103302993Y-113464508D01*
X103363873Y-113578406D01*
X103363873Y-113578407D01*
X103433405Y-113807623D01*
X103451000Y-113986269D01*
X103451000Y-114613732D01*
X103433405Y-114792378D01*
X103392250Y-114928047D01*
X103363873Y-115021595D01*
X103303519Y-115134509D01*
X103250959Y-115232842D01*
X103099002Y-115418002D01*
X102913841Y-115569959D01*
X102759051Y-115652696D01*
X102702594Y-115682873D01*
X102626188Y-115706050D01*
X102473377Y-115752405D01*
X102235000Y-115775883D01*
X101996622Y-115752405D01*
X101843811Y-115706050D01*
X101767405Y-115682873D01*
X101654491Y-115622519D01*
X101556158Y-115569959D01*
X101370998Y-115418002D01*
X101219041Y-115232841D01*
X101106128Y-115021595D01*
X101106127Y-115021594D01*
X101084618Y-114950687D01*
X101075240Y-114928048D01*
X101061626Y-114907673D01*
X101044299Y-114890346D01*
X101023925Y-114876732D01*
X101001286Y-114867355D01*
X100977252Y-114862574D01*
X100952748Y-114862574D01*
X100928715Y-114867354D01*
X100906076Y-114876732D01*
X100885701Y-114890346D01*
X100868374Y-114907673D01*
X100854760Y-114928047D01*
X100845382Y-114950687D01*
X100823873Y-115021595D01*
X100763519Y-115134509D01*
X100710959Y-115232842D01*
X100559002Y-115418002D01*
X100373841Y-115569959D01*
X100219051Y-115652696D01*
X100162594Y-115682873D01*
X100086188Y-115706050D01*
X99933377Y-115752405D01*
X99695000Y-115775883D01*
X99456622Y-115752405D01*
X99303811Y-115706050D01*
X99227405Y-115682873D01*
X99114491Y-115622519D01*
X99016158Y-115569959D01*
X98830998Y-115418002D01*
X98679041Y-115232841D01*
X98566128Y-115021595D01*
X98566127Y-115021594D01*
X98544618Y-114950687D01*
X98535240Y-114928048D01*
X98521626Y-114907673D01*
X98504299Y-114890346D01*
X98483925Y-114876732D01*
X98461286Y-114867355D01*
X98437252Y-114862574D01*
X98412748Y-114862574D01*
X98388715Y-114867354D01*
X98366076Y-114876732D01*
X98345701Y-114890346D01*
X98328374Y-114907673D01*
X98314760Y-114928047D01*
X98305382Y-114950687D01*
X98283873Y-115021595D01*
X98223519Y-115134509D01*
X98170959Y-115232842D01*
X98019002Y-115418002D01*
X97833841Y-115569959D01*
X97679051Y-115652696D01*
X97622594Y-115682873D01*
X97546188Y-115706050D01*
X97393377Y-115752405D01*
X97155000Y-115775883D01*
X96916622Y-115752405D01*
X96763811Y-115706050D01*
X96687405Y-115682873D01*
X96574491Y-115622519D01*
X96476158Y-115569959D01*
X96290998Y-115418002D01*
X96139041Y-115232841D01*
X96026128Y-115021595D01*
X96026127Y-115021594D01*
X95982184Y-114876732D01*
X95956595Y-114792377D01*
X95939000Y-114613731D01*
X95939000Y-113986268D01*
X95956595Y-113807622D01*
X96022770Y-113589472D01*
X96026127Y-113578405D01*
X96139042Y-113367157D01*
X96290999Y-113181998D01*
X96476159Y-113030041D01*
X96630949Y-112947304D01*
X96687406Y-112917127D01*
X96763812Y-112893950D01*
X96916623Y-112847595D01*
X97155000Y-112824117D01*
X97393378Y-112847595D01*
X97546189Y-112893950D01*
X97622595Y-112917127D01*
X97679052Y-112947304D01*
X97833842Y-113030041D01*
X98019002Y-113181998D01*
X98170959Y-113367158D01*
X98222993Y-113464508D01*
X98283873Y-113578406D01*
X98305382Y-113649313D01*
X98314760Y-113671952D01*
X98328374Y-113692327D01*
X98345701Y-113709654D01*
X98366075Y-113723268D01*
X98388714Y-113732645D01*
X98412748Y-113737426D01*
X98437252Y-113737426D01*
X98461285Y-113732646D01*
X98483924Y-113723268D01*
X98504299Y-113709654D01*
X98521626Y-113692327D01*
X98535240Y-113671953D01*
X98544618Y-113649313D01*
X98566127Y-113578405D01*
X98679042Y-113367157D01*
X98830999Y-113181998D01*
X99016159Y-113030041D01*
X99170949Y-112947304D01*
X99227406Y-112917127D01*
X99303812Y-112893950D01*
X99456623Y-112847595D01*
X99695000Y-112824117D01*
X99933378Y-112847595D01*
X100086189Y-112893950D01*
X100162595Y-112917127D01*
X100219052Y-112947304D01*
X100373842Y-113030041D01*
X100559002Y-113181998D01*
X100710959Y-113367158D01*
X100762993Y-113464508D01*
X100823873Y-113578406D01*
X100845382Y-113649313D01*
X100854760Y-113671952D01*
X100868374Y-113692327D01*
X100885701Y-113709654D01*
X100906075Y-113723268D01*
X100928714Y-113732645D01*
X100952748Y-113737426D01*
X100977252Y-113737426D01*
X101001285Y-113732646D01*
X101023924Y-113723268D01*
X101044299Y-113709654D01*
X101061626Y-113692327D01*
X101075240Y-113671953D01*
X101084618Y-113649313D01*
X101106127Y-113578405D01*
X101219042Y-113367157D01*
X101370999Y-113181998D01*
X101556159Y-113030041D01*
X101710949Y-112947304D01*
X101767406Y-112917127D01*
X101843812Y-112893950D01*
X101996623Y-112847595D01*
X102235000Y-112824117D01*
X102473378Y-112847595D01*
X102473378Y-112847595D01*
G37*
G36*
X84366030Y-113314469D02*
X84366033Y-113314470D01*
X84366034Y-113314470D01*
X84554535Y-113371651D01*
X84554537Y-113371652D01*
X84728260Y-113464509D01*
X84880528Y-113589472D01*
X85005491Y-113741740D01*
X85005492Y-113741742D01*
X85098349Y-113915465D01*
X85119827Y-113986269D01*
X85155531Y-114103970D01*
X85174838Y-114300000D01*
X85155531Y-114496030D01*
X85155530Y-114496033D01*
X85155530Y-114496034D01*
X85119827Y-114613732D01*
X85098348Y-114684537D01*
X85005491Y-114858260D01*
X84880528Y-115010528D01*
X84728260Y-115135491D01*
X84728258Y-115135492D01*
X84554535Y-115228349D01*
X84366034Y-115285530D01*
X84366033Y-115285530D01*
X84366030Y-115285531D01*
X84219124Y-115300000D01*
X83420876Y-115300000D01*
X83273970Y-115285531D01*
X83273967Y-115285530D01*
X83273966Y-115285530D01*
X83085465Y-115228349D01*
X82911742Y-115135492D01*
X82911740Y-115135491D01*
X82759472Y-115010528D01*
X82634509Y-114858260D01*
X82541652Y-114684537D01*
X82520174Y-114613732D01*
X82484470Y-114496034D01*
X82484470Y-114496033D01*
X82484469Y-114496030D01*
X82465162Y-114300000D01*
X82484469Y-114103970D01*
X82520173Y-113986269D01*
X82541651Y-113915465D01*
X82634508Y-113741742D01*
X82634509Y-113741740D01*
X82759472Y-113589472D01*
X82911740Y-113464509D01*
X83085463Y-113371652D01*
X83085465Y-113371651D01*
X83273966Y-113314470D01*
X83273967Y-113314470D01*
X83273970Y-113314469D01*
X83420876Y-113300000D01*
X84219124Y-113300000D01*
X84366030Y-113314469D01*
X84366030Y-113314469D01*
G37*
G36*
X91986030Y-113314469D02*
X91986033Y-113314470D01*
X91986034Y-113314470D01*
X92174535Y-113371651D01*
X92174537Y-113371652D01*
X92348260Y-113464509D01*
X92500528Y-113589472D01*
X92625491Y-113741740D01*
X92625492Y-113741742D01*
X92718349Y-113915465D01*
X92739827Y-113986269D01*
X92775531Y-114103970D01*
X92794838Y-114300000D01*
X92775531Y-114496030D01*
X92775530Y-114496033D01*
X92775530Y-114496034D01*
X92739827Y-114613732D01*
X92718348Y-114684537D01*
X92625491Y-114858260D01*
X92500528Y-115010528D01*
X92348260Y-115135491D01*
X92348258Y-115135492D01*
X92174535Y-115228349D01*
X91986034Y-115285530D01*
X91986033Y-115285530D01*
X91986030Y-115285531D01*
X91839124Y-115300000D01*
X91040876Y-115300000D01*
X90893970Y-115285531D01*
X90893967Y-115285530D01*
X90893966Y-115285530D01*
X90705465Y-115228349D01*
X90531742Y-115135492D01*
X90531740Y-115135491D01*
X90379472Y-115010528D01*
X90254509Y-114858260D01*
X90161652Y-114684537D01*
X90140174Y-114613732D01*
X90104470Y-114496034D01*
X90104470Y-114496033D01*
X90104469Y-114496030D01*
X90085162Y-114300000D01*
X90104469Y-114103970D01*
X90140173Y-113986269D01*
X90161651Y-113915465D01*
X90254508Y-113741742D01*
X90254509Y-113741740D01*
X90379472Y-113589472D01*
X90531740Y-113464509D01*
X90705463Y-113371652D01*
X90705465Y-113371651D01*
X90893966Y-113314470D01*
X90893967Y-113314470D01*
X90893970Y-113314469D01*
X91040876Y-113300000D01*
X91839124Y-113300000D01*
X91986030Y-113314469D01*
X91986030Y-113314469D01*
G37*
G36*
X91986030Y-110774469D02*
X91986033Y-110774470D01*
X91986034Y-110774470D01*
X92174535Y-110831651D01*
X92174537Y-110831652D01*
X92348260Y-110924509D01*
X92500528Y-111049472D01*
X92625491Y-111201740D01*
X92718348Y-111375463D01*
X92775531Y-111563970D01*
X92794838Y-111760000D01*
X92775531Y-111956030D01*
X92718348Y-112144537D01*
X92625491Y-112318260D01*
X92500528Y-112470528D01*
X92348260Y-112595491D01*
X92348258Y-112595492D01*
X92174535Y-112688349D01*
X91986034Y-112745530D01*
X91986033Y-112745530D01*
X91986030Y-112745531D01*
X91839124Y-112760000D01*
X91040876Y-112760000D01*
X90893970Y-112745531D01*
X90893967Y-112745530D01*
X90893966Y-112745530D01*
X90705465Y-112688349D01*
X90531742Y-112595492D01*
X90531740Y-112595491D01*
X90379472Y-112470528D01*
X90254509Y-112318260D01*
X90161652Y-112144537D01*
X90104469Y-111956030D01*
X90085162Y-111760000D01*
X90104469Y-111563970D01*
X90161652Y-111375463D01*
X90254509Y-111201740D01*
X90379472Y-111049472D01*
X90531740Y-110924509D01*
X90705463Y-110831652D01*
X90705465Y-110831651D01*
X90893966Y-110774470D01*
X90893967Y-110774470D01*
X90893970Y-110774469D01*
X91040876Y-110760000D01*
X91839124Y-110760000D01*
X91986030Y-110774469D01*
X91986030Y-110774469D01*
G37*
G36*
X84366030Y-110774469D02*
X84366033Y-110774470D01*
X84366034Y-110774470D01*
X84554535Y-110831651D01*
X84554537Y-110831652D01*
X84728260Y-110924509D01*
X84880528Y-111049472D01*
X85005491Y-111201740D01*
X85098348Y-111375463D01*
X85155531Y-111563970D01*
X85174838Y-111760000D01*
X85155531Y-111956030D01*
X85098348Y-112144537D01*
X85005491Y-112318260D01*
X84880528Y-112470528D01*
X84728260Y-112595491D01*
X84728258Y-112595492D01*
X84554535Y-112688349D01*
X84366034Y-112745530D01*
X84366033Y-112745530D01*
X84366030Y-112745531D01*
X84219124Y-112760000D01*
X83420876Y-112760000D01*
X83273970Y-112745531D01*
X83273967Y-112745530D01*
X83273966Y-112745530D01*
X83085465Y-112688349D01*
X82911742Y-112595492D01*
X82911740Y-112595491D01*
X82759472Y-112470528D01*
X82634509Y-112318260D01*
X82541652Y-112144537D01*
X82484469Y-111956030D01*
X82465162Y-111760000D01*
X82484469Y-111563970D01*
X82541652Y-111375463D01*
X82634509Y-111201740D01*
X82759472Y-111049472D01*
X82911740Y-110924509D01*
X83085463Y-110831652D01*
X83085465Y-110831651D01*
X83273966Y-110774470D01*
X83273967Y-110774470D01*
X83273970Y-110774469D01*
X83420876Y-110760000D01*
X84219124Y-110760000D01*
X84366030Y-110774469D01*
X84366030Y-110774469D01*
G37*
G36*
X132106393Y-107563553D02*
X132215872Y-107585330D01*
X132525252Y-107713479D01*
X132803687Y-107899523D01*
X133040477Y-108136313D01*
X133226521Y-108414748D01*
X133353074Y-108720275D01*
X133354670Y-108724129D01*
X133420000Y-109052563D01*
X133420000Y-109387437D01*
X133392910Y-109523625D01*
X133354670Y-109715872D01*
X133226521Y-110025252D01*
X133040477Y-110303687D01*
X132803687Y-110540477D01*
X132525252Y-110726521D01*
X132215872Y-110854670D01*
X132106393Y-110876447D01*
X131887437Y-110920000D01*
X131552563Y-110920000D01*
X131333607Y-110876447D01*
X131224128Y-110854670D01*
X130914748Y-110726521D01*
X130636313Y-110540477D01*
X130399523Y-110303687D01*
X130213479Y-110025252D01*
X130085330Y-109715872D01*
X130047090Y-109523625D01*
X130020000Y-109387437D01*
X130020000Y-109052563D01*
X130085330Y-108724129D01*
X130086926Y-108720275D01*
X130213479Y-108414748D01*
X130399523Y-108136313D01*
X130636313Y-107899523D01*
X130914748Y-107713479D01*
X131224128Y-107585330D01*
X131333607Y-107563553D01*
X131552563Y-107520000D01*
X131887437Y-107520000D01*
X132106393Y-107563553D01*
X132106393Y-107563553D01*
G37*
G36*
X139070393Y-107563553D02*
X139179872Y-107585330D01*
X139489252Y-107713479D01*
X139767687Y-107899523D01*
X140004477Y-108136313D01*
X140190521Y-108414748D01*
X140317074Y-108720275D01*
X140318670Y-108724129D01*
X140384000Y-109052563D01*
X140384000Y-109387437D01*
X140356910Y-109523625D01*
X140318670Y-109715872D01*
X140190521Y-110025252D01*
X140004477Y-110303687D01*
X139767687Y-110540477D01*
X139489252Y-110726521D01*
X139179872Y-110854670D01*
X139070393Y-110876447D01*
X138851437Y-110920000D01*
X138516563Y-110920000D01*
X138297607Y-110876447D01*
X138188128Y-110854670D01*
X137878748Y-110726521D01*
X137600313Y-110540477D01*
X137363523Y-110303687D01*
X137177479Y-110025252D01*
X137049330Y-109715872D01*
X137011090Y-109523625D01*
X136984000Y-109387437D01*
X136984000Y-109052563D01*
X137049330Y-108724129D01*
X137050926Y-108720275D01*
X137177479Y-108414748D01*
X137363523Y-108136313D01*
X137600313Y-107899523D01*
X137878748Y-107713479D01*
X138188128Y-107585330D01*
X138297607Y-107563553D01*
X138516563Y-107520000D01*
X138851437Y-107520000D01*
X139070393Y-107563553D01*
X139070393Y-107563553D01*
G37*
G36*
X109606393Y-107563553D02*
X109715872Y-107585330D01*
X110025252Y-107713479D01*
X110303687Y-107899523D01*
X110540477Y-108136313D01*
X110726521Y-108414748D01*
X110853074Y-108720275D01*
X110854670Y-108724129D01*
X110920000Y-109052563D01*
X110920000Y-109387437D01*
X110892910Y-109523625D01*
X110854670Y-109715872D01*
X110726521Y-110025252D01*
X110540477Y-110303687D01*
X110303687Y-110540477D01*
X110025252Y-110726521D01*
X109715872Y-110854670D01*
X109606393Y-110876447D01*
X109387437Y-110920000D01*
X109052563Y-110920000D01*
X108833607Y-110876447D01*
X108724128Y-110854670D01*
X108414748Y-110726521D01*
X108136313Y-110540477D01*
X107899523Y-110303687D01*
X107713479Y-110025252D01*
X107585330Y-109715872D01*
X107547090Y-109523625D01*
X107520000Y-109387437D01*
X107520000Y-109052563D01*
X107585330Y-108724129D01*
X107586926Y-108720275D01*
X107713479Y-108414748D01*
X107899523Y-108136313D01*
X108136313Y-107899523D01*
X108414748Y-107713479D01*
X108724128Y-107585330D01*
X108833607Y-107563553D01*
X109052563Y-107520000D01*
X109387437Y-107520000D01*
X109606393Y-107563553D01*
X109606393Y-107563553D01*
G37*
G36*
X96090293Y-108187998D02*
X96191686Y-108208166D01*
X96220255Y-108220000D01*
X96382705Y-108287289D01*
X96554623Y-108402161D01*
X96700819Y-108548357D01*
X96815691Y-108720275D01*
X96894814Y-108911295D01*
X96935150Y-109114079D01*
X96935150Y-109320841D01*
X96894814Y-109523625D01*
X96815691Y-109714645D01*
X96700819Y-109886563D01*
X96554623Y-110032759D01*
X96382705Y-110147631D01*
X96270809Y-110193980D01*
X96191686Y-110226754D01*
X96090293Y-110246922D01*
X95988901Y-110267090D01*
X95782139Y-110267090D01*
X95680747Y-110246922D01*
X95579354Y-110226754D01*
X95500231Y-110193980D01*
X95388335Y-110147631D01*
X95216417Y-110032759D01*
X95070221Y-109886563D01*
X94955349Y-109714645D01*
X94876226Y-109523625D01*
X94835890Y-109320841D01*
X94835890Y-109114079D01*
X94876226Y-108911295D01*
X94955349Y-108720275D01*
X95070221Y-108548357D01*
X95216417Y-108402161D01*
X95388335Y-108287289D01*
X95550785Y-108220000D01*
X95579354Y-108208166D01*
X95680747Y-108187998D01*
X95782139Y-108167830D01*
X95988901Y-108167830D01*
X96090293Y-108187998D01*
X96090293Y-108187998D01*
G37*
G36*
X106250293Y-108187998D02*
X106351686Y-108208166D01*
X106380255Y-108220000D01*
X106542705Y-108287289D01*
X106714623Y-108402161D01*
X106860819Y-108548357D01*
X106975691Y-108720275D01*
X107054814Y-108911295D01*
X107095150Y-109114079D01*
X107095150Y-109320841D01*
X107054814Y-109523625D01*
X106975691Y-109714645D01*
X106860819Y-109886563D01*
X106714623Y-110032759D01*
X106542705Y-110147631D01*
X106430809Y-110193980D01*
X106351686Y-110226754D01*
X106250293Y-110246922D01*
X106148901Y-110267090D01*
X105942139Y-110267090D01*
X105840747Y-110246922D01*
X105739354Y-110226754D01*
X105660231Y-110193980D01*
X105548335Y-110147631D01*
X105376417Y-110032759D01*
X105230221Y-109886563D01*
X105115349Y-109714645D01*
X105036226Y-109523625D01*
X104995890Y-109320841D01*
X104995890Y-109114079D01*
X105036226Y-108911295D01*
X105115349Y-108720275D01*
X105230221Y-108548357D01*
X105376417Y-108402161D01*
X105548335Y-108287289D01*
X105710785Y-108220000D01*
X105739354Y-108208166D01*
X105840747Y-108187998D01*
X105942139Y-108167830D01*
X106148901Y-108167830D01*
X106250293Y-108187998D01*
X106250293Y-108187998D01*
G37*
G36*
X84366030Y-108234469D02*
X84366033Y-108234470D01*
X84366034Y-108234470D01*
X84554535Y-108291651D01*
X84554537Y-108291652D01*
X84728260Y-108384509D01*
X84880528Y-108509472D01*
X85005491Y-108661740D01*
X85005492Y-108661742D01*
X85098349Y-108835465D01*
X85155530Y-109023966D01*
X85155531Y-109023970D01*
X85174838Y-109220000D01*
X85155531Y-109416030D01*
X85155530Y-109416033D01*
X85155530Y-109416034D01*
X85122893Y-109523625D01*
X85098348Y-109604537D01*
X85005491Y-109778260D01*
X84880528Y-109930528D01*
X84728260Y-110055491D01*
X84728258Y-110055492D01*
X84554535Y-110148349D01*
X84366034Y-110205530D01*
X84366033Y-110205530D01*
X84366030Y-110205531D01*
X84219124Y-110220000D01*
X83420876Y-110220000D01*
X83273970Y-110205531D01*
X83273967Y-110205530D01*
X83273966Y-110205530D01*
X83085465Y-110148349D01*
X82911742Y-110055492D01*
X82911740Y-110055491D01*
X82759472Y-109930528D01*
X82634509Y-109778260D01*
X82541652Y-109604537D01*
X82517108Y-109523625D01*
X82484470Y-109416034D01*
X82484470Y-109416033D01*
X82484469Y-109416030D01*
X82465162Y-109220000D01*
X82484469Y-109023970D01*
X82484470Y-109023966D01*
X82541651Y-108835465D01*
X82634508Y-108661742D01*
X82634509Y-108661740D01*
X82759472Y-108509472D01*
X82911740Y-108384509D01*
X83085463Y-108291652D01*
X83085465Y-108291651D01*
X83273966Y-108234470D01*
X83273967Y-108234470D01*
X83273970Y-108234469D01*
X83420876Y-108220000D01*
X84219124Y-108220000D01*
X84366030Y-108234469D01*
X84366030Y-108234469D01*
G37*
G36*
X91986030Y-108234469D02*
X91986033Y-108234470D01*
X91986034Y-108234470D01*
X92174535Y-108291651D01*
X92174537Y-108291652D01*
X92348260Y-108384509D01*
X92500528Y-108509472D01*
X92625491Y-108661740D01*
X92625492Y-108661742D01*
X92718349Y-108835465D01*
X92775530Y-109023966D01*
X92775531Y-109023970D01*
X92794838Y-109220000D01*
X92775531Y-109416030D01*
X92775530Y-109416033D01*
X92775530Y-109416034D01*
X92742893Y-109523625D01*
X92718348Y-109604537D01*
X92625491Y-109778260D01*
X92500528Y-109930528D01*
X92348260Y-110055491D01*
X92348258Y-110055492D01*
X92174535Y-110148349D01*
X91986034Y-110205530D01*
X91986033Y-110205530D01*
X91986030Y-110205531D01*
X91839124Y-110220000D01*
X91040876Y-110220000D01*
X90893970Y-110205531D01*
X90893967Y-110205530D01*
X90893966Y-110205530D01*
X90705465Y-110148349D01*
X90531742Y-110055492D01*
X90531740Y-110055491D01*
X90379472Y-109930528D01*
X90254509Y-109778260D01*
X90161652Y-109604537D01*
X90137108Y-109523625D01*
X90104470Y-109416034D01*
X90104470Y-109416033D01*
X90104469Y-109416030D01*
X90085162Y-109220000D01*
X90104469Y-109023970D01*
X90104470Y-109023966D01*
X90161651Y-108835465D01*
X90254508Y-108661742D01*
X90254509Y-108661740D01*
X90379472Y-108509472D01*
X90531740Y-108384509D01*
X90705463Y-108291652D01*
X90705465Y-108291651D01*
X90893966Y-108234470D01*
X90893967Y-108234470D01*
X90893970Y-108234469D01*
X91040876Y-108220000D01*
X91839124Y-108220000D01*
X91986030Y-108234469D01*
X91986030Y-108234469D01*
G37*
G36*
X140384000Y-104570000D02*
X136984000Y-104570000D01*
X136984000Y-101170000D01*
X140384000Y-101170000D01*
X140384000Y-104570000D01*
X140384000Y-104570000D01*
G37*
G36*
X102473378Y-101417595D02*
X102626189Y-101463950D01*
X102702595Y-101487127D01*
X102759052Y-101517304D01*
X102913842Y-101600041D01*
X103099002Y-101751998D01*
X103250959Y-101937158D01*
X103302993Y-102034508D01*
X103363873Y-102148406D01*
X103363873Y-102148407D01*
X103433405Y-102377623D01*
X103451000Y-102556269D01*
X103451000Y-103183732D01*
X103433405Y-103362378D01*
X103392250Y-103498047D01*
X103363873Y-103591595D01*
X103303519Y-103704509D01*
X103250959Y-103802842D01*
X103099002Y-103988002D01*
X102913841Y-104139959D01*
X102759051Y-104222696D01*
X102702594Y-104252873D01*
X102626188Y-104276050D01*
X102473377Y-104322405D01*
X102235000Y-104345883D01*
X101996622Y-104322405D01*
X101843811Y-104276050D01*
X101767405Y-104252873D01*
X101654491Y-104192519D01*
X101556158Y-104139959D01*
X101370998Y-103988002D01*
X101219041Y-103802841D01*
X101106128Y-103591595D01*
X101106127Y-103591594D01*
X101084618Y-103520687D01*
X101075240Y-103498048D01*
X101061626Y-103477673D01*
X101044299Y-103460346D01*
X101023925Y-103446732D01*
X101001286Y-103437355D01*
X100977252Y-103432574D01*
X100952748Y-103432574D01*
X100928715Y-103437354D01*
X100906076Y-103446732D01*
X100885701Y-103460346D01*
X100868374Y-103477673D01*
X100854760Y-103498047D01*
X100845382Y-103520687D01*
X100823873Y-103591595D01*
X100763519Y-103704509D01*
X100710959Y-103802842D01*
X100559002Y-103988002D01*
X100373841Y-104139959D01*
X100219051Y-104222696D01*
X100162594Y-104252873D01*
X100086188Y-104276050D01*
X99933377Y-104322405D01*
X99695000Y-104345883D01*
X99456622Y-104322405D01*
X99303811Y-104276050D01*
X99227405Y-104252873D01*
X99114491Y-104192519D01*
X99016158Y-104139959D01*
X98830998Y-103988002D01*
X98679041Y-103802841D01*
X98566128Y-103591595D01*
X98566127Y-103591594D01*
X98544618Y-103520687D01*
X98535240Y-103498048D01*
X98521626Y-103477673D01*
X98504299Y-103460346D01*
X98483925Y-103446732D01*
X98461286Y-103437355D01*
X98437252Y-103432574D01*
X98412748Y-103432574D01*
X98388715Y-103437354D01*
X98366076Y-103446732D01*
X98345701Y-103460346D01*
X98328374Y-103477673D01*
X98314760Y-103498047D01*
X98305382Y-103520687D01*
X98283873Y-103591595D01*
X98223519Y-103704509D01*
X98170959Y-103802842D01*
X98019002Y-103988002D01*
X97833841Y-104139959D01*
X97679051Y-104222696D01*
X97622594Y-104252873D01*
X97546188Y-104276050D01*
X97393377Y-104322405D01*
X97155000Y-104345883D01*
X96916622Y-104322405D01*
X96763811Y-104276050D01*
X96687405Y-104252873D01*
X96574491Y-104192519D01*
X96476158Y-104139959D01*
X96290998Y-103988002D01*
X96139041Y-103802841D01*
X96026128Y-103591595D01*
X96026127Y-103591594D01*
X95982184Y-103446732D01*
X95956595Y-103362377D01*
X95939000Y-103183731D01*
X95939000Y-102556268D01*
X95956595Y-102377622D01*
X96022770Y-102159472D01*
X96026127Y-102148405D01*
X96139042Y-101937157D01*
X96290999Y-101751998D01*
X96476159Y-101600041D01*
X96630949Y-101517304D01*
X96687406Y-101487127D01*
X96763812Y-101463950D01*
X96916623Y-101417595D01*
X97155000Y-101394117D01*
X97393378Y-101417595D01*
X97546189Y-101463950D01*
X97622595Y-101487127D01*
X97679052Y-101517304D01*
X97833842Y-101600041D01*
X98019002Y-101751998D01*
X98170959Y-101937158D01*
X98222993Y-102034508D01*
X98283873Y-102148406D01*
X98305382Y-102219313D01*
X98314760Y-102241952D01*
X98328374Y-102262327D01*
X98345701Y-102279654D01*
X98366075Y-102293268D01*
X98388714Y-102302645D01*
X98412748Y-102307426D01*
X98437252Y-102307426D01*
X98461285Y-102302646D01*
X98483924Y-102293268D01*
X98504299Y-102279654D01*
X98521626Y-102262327D01*
X98535240Y-102241953D01*
X98544618Y-102219313D01*
X98566127Y-102148405D01*
X98679042Y-101937157D01*
X98830999Y-101751998D01*
X99016159Y-101600041D01*
X99170949Y-101517304D01*
X99227406Y-101487127D01*
X99303812Y-101463950D01*
X99456623Y-101417595D01*
X99695000Y-101394117D01*
X99933378Y-101417595D01*
X100086189Y-101463950D01*
X100162595Y-101487127D01*
X100219052Y-101517304D01*
X100373842Y-101600041D01*
X100559002Y-101751998D01*
X100710959Y-101937158D01*
X100762993Y-102034508D01*
X100823873Y-102148406D01*
X100845382Y-102219313D01*
X100854760Y-102241952D01*
X100868374Y-102262327D01*
X100885701Y-102279654D01*
X100906075Y-102293268D01*
X100928714Y-102302645D01*
X100952748Y-102307426D01*
X100977252Y-102307426D01*
X101001285Y-102302646D01*
X101023924Y-102293268D01*
X101044299Y-102279654D01*
X101061626Y-102262327D01*
X101075240Y-102241953D01*
X101084618Y-102219313D01*
X101106127Y-102148405D01*
X101219042Y-101937157D01*
X101370999Y-101751998D01*
X101556159Y-101600041D01*
X101710949Y-101517304D01*
X101767406Y-101487127D01*
X101843812Y-101463950D01*
X101996623Y-101417595D01*
X102235000Y-101394117D01*
X102473378Y-101417595D01*
X102473378Y-101417595D01*
G37*
G36*
X84366030Y-101884469D02*
X84366033Y-101884470D01*
X84366034Y-101884470D01*
X84554535Y-101941651D01*
X84554537Y-101941652D01*
X84728260Y-102034509D01*
X84880528Y-102159472D01*
X85005491Y-102311740D01*
X85005492Y-102311742D01*
X85098349Y-102485465D01*
X85119827Y-102556269D01*
X85155531Y-102673970D01*
X85174838Y-102870000D01*
X85155531Y-103066030D01*
X85155530Y-103066033D01*
X85155530Y-103066034D01*
X85119827Y-103183732D01*
X85098348Y-103254537D01*
X85005491Y-103428260D01*
X84880528Y-103580528D01*
X84728260Y-103705491D01*
X84728258Y-103705492D01*
X84554535Y-103798349D01*
X84366034Y-103855530D01*
X84366033Y-103855530D01*
X84366030Y-103855531D01*
X84219124Y-103870000D01*
X83420876Y-103870000D01*
X83273970Y-103855531D01*
X83273967Y-103855530D01*
X83273966Y-103855530D01*
X83085465Y-103798349D01*
X82911742Y-103705492D01*
X82911740Y-103705491D01*
X82759472Y-103580528D01*
X82634509Y-103428260D01*
X82541652Y-103254537D01*
X82520174Y-103183732D01*
X82484470Y-103066034D01*
X82484470Y-103066033D01*
X82484469Y-103066030D01*
X82465162Y-102870000D01*
X82484469Y-102673970D01*
X82520173Y-102556269D01*
X82541651Y-102485465D01*
X82634508Y-102311742D01*
X82634509Y-102311740D01*
X82759472Y-102159472D01*
X82911740Y-102034509D01*
X83085463Y-101941652D01*
X83085465Y-101941651D01*
X83273966Y-101884470D01*
X83273967Y-101884470D01*
X83273970Y-101884469D01*
X83420876Y-101870000D01*
X84219124Y-101870000D01*
X84366030Y-101884469D01*
X84366030Y-101884469D01*
G37*
G36*
X91986030Y-101884469D02*
X91986033Y-101884470D01*
X91986034Y-101884470D01*
X92174535Y-101941651D01*
X92174537Y-101941652D01*
X92348260Y-102034509D01*
X92500528Y-102159472D01*
X92625491Y-102311740D01*
X92625492Y-102311742D01*
X92718349Y-102485465D01*
X92739827Y-102556269D01*
X92775531Y-102673970D01*
X92794838Y-102870000D01*
X92775531Y-103066030D01*
X92775530Y-103066033D01*
X92775530Y-103066034D01*
X92739827Y-103183732D01*
X92718348Y-103254537D01*
X92625491Y-103428260D01*
X92500528Y-103580528D01*
X92348260Y-103705491D01*
X92348258Y-103705492D01*
X92174535Y-103798349D01*
X91986034Y-103855530D01*
X91986033Y-103855530D01*
X91986030Y-103855531D01*
X91839124Y-103870000D01*
X91040876Y-103870000D01*
X90893970Y-103855531D01*
X90893967Y-103855530D01*
X90893966Y-103855530D01*
X90705465Y-103798349D01*
X90531742Y-103705492D01*
X90531740Y-103705491D01*
X90379472Y-103580528D01*
X90254509Y-103428260D01*
X90161652Y-103254537D01*
X90140174Y-103183732D01*
X90104470Y-103066034D01*
X90104470Y-103066033D01*
X90104469Y-103066030D01*
X90085162Y-102870000D01*
X90104469Y-102673970D01*
X90140173Y-102556269D01*
X90161651Y-102485465D01*
X90254508Y-102311742D01*
X90254509Y-102311740D01*
X90379472Y-102159472D01*
X90531740Y-102034509D01*
X90705463Y-101941652D01*
X90705465Y-101941651D01*
X90893966Y-101884470D01*
X90893967Y-101884470D01*
X90893970Y-101884469D01*
X91040876Y-101870000D01*
X91839124Y-101870000D01*
X91986030Y-101884469D01*
X91986030Y-101884469D01*
G37*
G36*
X84366030Y-99344469D02*
X84366033Y-99344470D01*
X84366034Y-99344470D01*
X84554535Y-99401651D01*
X84554537Y-99401652D01*
X84728260Y-99494509D01*
X84880528Y-99619472D01*
X85005491Y-99771740D01*
X85098348Y-99945463D01*
X85155531Y-100133970D01*
X85174838Y-100330000D01*
X85155531Y-100526030D01*
X85098348Y-100714537D01*
X85005491Y-100888260D01*
X84880528Y-101040528D01*
X84728260Y-101165491D01*
X84728258Y-101165492D01*
X84554535Y-101258349D01*
X84366034Y-101315530D01*
X84366033Y-101315530D01*
X84366030Y-101315531D01*
X84219124Y-101330000D01*
X83420876Y-101330000D01*
X83273970Y-101315531D01*
X83273967Y-101315530D01*
X83273966Y-101315530D01*
X83085465Y-101258349D01*
X82911742Y-101165492D01*
X82911740Y-101165491D01*
X82759472Y-101040528D01*
X82634509Y-100888260D01*
X82541652Y-100714537D01*
X82484469Y-100526030D01*
X82465162Y-100330000D01*
X82484469Y-100133970D01*
X82541652Y-99945463D01*
X82634509Y-99771740D01*
X82759472Y-99619472D01*
X82911740Y-99494509D01*
X83085463Y-99401652D01*
X83085465Y-99401651D01*
X83273966Y-99344470D01*
X83273967Y-99344470D01*
X83273970Y-99344469D01*
X83420876Y-99330000D01*
X84219124Y-99330000D01*
X84366030Y-99344469D01*
X84366030Y-99344469D01*
G37*
G36*
X91986030Y-99344469D02*
X91986033Y-99344470D01*
X91986034Y-99344470D01*
X92174535Y-99401651D01*
X92174537Y-99401652D01*
X92348260Y-99494509D01*
X92500528Y-99619472D01*
X92625491Y-99771740D01*
X92718348Y-99945463D01*
X92775531Y-100133970D01*
X92794838Y-100330000D01*
X92775531Y-100526030D01*
X92718348Y-100714537D01*
X92625491Y-100888260D01*
X92500528Y-101040528D01*
X92348260Y-101165491D01*
X92348258Y-101165492D01*
X92174535Y-101258349D01*
X91986034Y-101315530D01*
X91986033Y-101315530D01*
X91986030Y-101315531D01*
X91839124Y-101330000D01*
X91040876Y-101330000D01*
X90893970Y-101315531D01*
X90893967Y-101315530D01*
X90893966Y-101315530D01*
X90705465Y-101258349D01*
X90531742Y-101165492D01*
X90531740Y-101165491D01*
X90379472Y-101040528D01*
X90254509Y-100888260D01*
X90161652Y-100714537D01*
X90104469Y-100526030D01*
X90085162Y-100330000D01*
X90104469Y-100133970D01*
X90161652Y-99945463D01*
X90254509Y-99771740D01*
X90379472Y-99619472D01*
X90531740Y-99494509D01*
X90705463Y-99401652D01*
X90705465Y-99401651D01*
X90893966Y-99344470D01*
X90893967Y-99344470D01*
X90893970Y-99344469D01*
X91040876Y-99330000D01*
X91839124Y-99330000D01*
X91986030Y-99344469D01*
X91986030Y-99344469D01*
G37*
G36*
X139070393Y-96133553D02*
X139179872Y-96155330D01*
X139489252Y-96283479D01*
X139767687Y-96469523D01*
X140004477Y-96706313D01*
X140190521Y-96984748D01*
X140317074Y-97290275D01*
X140318670Y-97294129D01*
X140384000Y-97622563D01*
X140384000Y-97957437D01*
X140356910Y-98093625D01*
X140318670Y-98285872D01*
X140190521Y-98595252D01*
X140004477Y-98873687D01*
X139767687Y-99110477D01*
X139489252Y-99296521D01*
X139179872Y-99424670D01*
X139070393Y-99446447D01*
X138851437Y-99490000D01*
X138516563Y-99490000D01*
X138297607Y-99446447D01*
X138188128Y-99424670D01*
X137878748Y-99296521D01*
X137600313Y-99110477D01*
X137363523Y-98873687D01*
X137177479Y-98595252D01*
X137049330Y-98285872D01*
X137011090Y-98093625D01*
X136984000Y-97957437D01*
X136984000Y-97622563D01*
X137049330Y-97294129D01*
X137050926Y-97290275D01*
X137177479Y-96984748D01*
X137363523Y-96706313D01*
X137600313Y-96469523D01*
X137878748Y-96283479D01*
X138188128Y-96155330D01*
X138297607Y-96133553D01*
X138516563Y-96090000D01*
X138851437Y-96090000D01*
X139070393Y-96133553D01*
X139070393Y-96133553D01*
G37*
G36*
X109606393Y-96133553D02*
X109715872Y-96155330D01*
X110025252Y-96283479D01*
X110303687Y-96469523D01*
X110540477Y-96706313D01*
X110726521Y-96984748D01*
X110853074Y-97290275D01*
X110854670Y-97294129D01*
X110920000Y-97622563D01*
X110920000Y-97957437D01*
X110892910Y-98093625D01*
X110854670Y-98285872D01*
X110726521Y-98595252D01*
X110540477Y-98873687D01*
X110303687Y-99110477D01*
X110025252Y-99296521D01*
X109715872Y-99424670D01*
X109606393Y-99446447D01*
X109387437Y-99490000D01*
X109052563Y-99490000D01*
X108833607Y-99446447D01*
X108724128Y-99424670D01*
X108414748Y-99296521D01*
X108136313Y-99110477D01*
X107899523Y-98873687D01*
X107713479Y-98595252D01*
X107585330Y-98285872D01*
X107547090Y-98093625D01*
X107520000Y-97957437D01*
X107520000Y-97622563D01*
X107585330Y-97294129D01*
X107586926Y-97290275D01*
X107713479Y-96984748D01*
X107899523Y-96706313D01*
X108136313Y-96469523D01*
X108414748Y-96283479D01*
X108724128Y-96155330D01*
X108833607Y-96133553D01*
X109052563Y-96090000D01*
X109387437Y-96090000D01*
X109606393Y-96133553D01*
X109606393Y-96133553D01*
G37*
G36*
X132106393Y-96133553D02*
X132215872Y-96155330D01*
X132525252Y-96283479D01*
X132803687Y-96469523D01*
X133040477Y-96706313D01*
X133226521Y-96984748D01*
X133353074Y-97290275D01*
X133354670Y-97294129D01*
X133420000Y-97622563D01*
X133420000Y-97957437D01*
X133392910Y-98093625D01*
X133354670Y-98285872D01*
X133226521Y-98595252D01*
X133040477Y-98873687D01*
X132803687Y-99110477D01*
X132525252Y-99296521D01*
X132215872Y-99424670D01*
X132106393Y-99446447D01*
X131887437Y-99490000D01*
X131552563Y-99490000D01*
X131333607Y-99446447D01*
X131224128Y-99424670D01*
X130914748Y-99296521D01*
X130636313Y-99110477D01*
X130399523Y-98873687D01*
X130213479Y-98595252D01*
X130085330Y-98285872D01*
X130047090Y-98093625D01*
X130020000Y-97957437D01*
X130020000Y-97622563D01*
X130085330Y-97294129D01*
X130086926Y-97290275D01*
X130213479Y-96984748D01*
X130399523Y-96706313D01*
X130636313Y-96469523D01*
X130914748Y-96283479D01*
X131224128Y-96155330D01*
X131333607Y-96133553D01*
X131552563Y-96090000D01*
X131887437Y-96090000D01*
X132106393Y-96133553D01*
X132106393Y-96133553D01*
G37*
G36*
X96090293Y-96757998D02*
X96191686Y-96778166D01*
X96220255Y-96790000D01*
X96382705Y-96857289D01*
X96554623Y-96972161D01*
X96700819Y-97118357D01*
X96815691Y-97290275D01*
X96894814Y-97481295D01*
X96935150Y-97684079D01*
X96935150Y-97890841D01*
X96894814Y-98093625D01*
X96815691Y-98284645D01*
X96700819Y-98456563D01*
X96554623Y-98602759D01*
X96382705Y-98717631D01*
X96270809Y-98763980D01*
X96191686Y-98796754D01*
X96090293Y-98816922D01*
X95988901Y-98837090D01*
X95782139Y-98837090D01*
X95680747Y-98816922D01*
X95579354Y-98796754D01*
X95500231Y-98763980D01*
X95388335Y-98717631D01*
X95216417Y-98602759D01*
X95070221Y-98456563D01*
X94955349Y-98284645D01*
X94876226Y-98093625D01*
X94835890Y-97890841D01*
X94835890Y-97684079D01*
X94876226Y-97481295D01*
X94955349Y-97290275D01*
X95070221Y-97118357D01*
X95216417Y-96972161D01*
X95388335Y-96857289D01*
X95550785Y-96790000D01*
X95579354Y-96778166D01*
X95680747Y-96757998D01*
X95782139Y-96737830D01*
X95988901Y-96737830D01*
X96090293Y-96757998D01*
X96090293Y-96757998D01*
G37*
G36*
X106250293Y-96757998D02*
X106351686Y-96778166D01*
X106380255Y-96790000D01*
X106542705Y-96857289D01*
X106714623Y-96972161D01*
X106860819Y-97118357D01*
X106975691Y-97290275D01*
X107054814Y-97481295D01*
X107095150Y-97684079D01*
X107095150Y-97890841D01*
X107054814Y-98093625D01*
X106975691Y-98284645D01*
X106860819Y-98456563D01*
X106714623Y-98602759D01*
X106542705Y-98717631D01*
X106430809Y-98763980D01*
X106351686Y-98796754D01*
X106250293Y-98816922D01*
X106148901Y-98837090D01*
X105942139Y-98837090D01*
X105840747Y-98816922D01*
X105739354Y-98796754D01*
X105660231Y-98763980D01*
X105548335Y-98717631D01*
X105376417Y-98602759D01*
X105230221Y-98456563D01*
X105115349Y-98284645D01*
X105036226Y-98093625D01*
X104995890Y-97890841D01*
X104995890Y-97684079D01*
X105036226Y-97481295D01*
X105115349Y-97290275D01*
X105230221Y-97118357D01*
X105376417Y-96972161D01*
X105548335Y-96857289D01*
X105710785Y-96790000D01*
X105739354Y-96778166D01*
X105840747Y-96757998D01*
X105942139Y-96737830D01*
X106148901Y-96737830D01*
X106250293Y-96757998D01*
X106250293Y-96757998D01*
G37*
G36*
X91986030Y-96804469D02*
X91986033Y-96804470D01*
X91986034Y-96804470D01*
X92174535Y-96861651D01*
X92174537Y-96861652D01*
X92348260Y-96954509D01*
X92500528Y-97079472D01*
X92625491Y-97231740D01*
X92625492Y-97231742D01*
X92718349Y-97405465D01*
X92775530Y-97593966D01*
X92775531Y-97593970D01*
X92794838Y-97790000D01*
X92775531Y-97986030D01*
X92775530Y-97986033D01*
X92775530Y-97986034D01*
X92742893Y-98093625D01*
X92718348Y-98174537D01*
X92625491Y-98348260D01*
X92500528Y-98500528D01*
X92348260Y-98625491D01*
X92348258Y-98625492D01*
X92174535Y-98718349D01*
X91986034Y-98775530D01*
X91986033Y-98775530D01*
X91986030Y-98775531D01*
X91839124Y-98790000D01*
X91040876Y-98790000D01*
X90893970Y-98775531D01*
X90893967Y-98775530D01*
X90893966Y-98775530D01*
X90705465Y-98718349D01*
X90531742Y-98625492D01*
X90531740Y-98625491D01*
X90379472Y-98500528D01*
X90254509Y-98348260D01*
X90161652Y-98174537D01*
X90137108Y-98093625D01*
X90104470Y-97986034D01*
X90104470Y-97986033D01*
X90104469Y-97986030D01*
X90085162Y-97790000D01*
X90104469Y-97593970D01*
X90104470Y-97593966D01*
X90161651Y-97405465D01*
X90254508Y-97231742D01*
X90254509Y-97231740D01*
X90379472Y-97079472D01*
X90531740Y-96954509D01*
X90705463Y-96861652D01*
X90705465Y-96861651D01*
X90893966Y-96804470D01*
X90893967Y-96804470D01*
X90893970Y-96804469D01*
X91040876Y-96790000D01*
X91839124Y-96790000D01*
X91986030Y-96804469D01*
X91986030Y-96804469D01*
G37*
G36*
X84366030Y-96804469D02*
X84366033Y-96804470D01*
X84366034Y-96804470D01*
X84554535Y-96861651D01*
X84554537Y-96861652D01*
X84728260Y-96954509D01*
X84880528Y-97079472D01*
X85005491Y-97231740D01*
X85005492Y-97231742D01*
X85098349Y-97405465D01*
X85155530Y-97593966D01*
X85155531Y-97593970D01*
X85174838Y-97790000D01*
X85155531Y-97986030D01*
X85155530Y-97986033D01*
X85155530Y-97986034D01*
X85122893Y-98093625D01*
X85098348Y-98174537D01*
X85005491Y-98348260D01*
X84880528Y-98500528D01*
X84728260Y-98625491D01*
X84728258Y-98625492D01*
X84554535Y-98718349D01*
X84366034Y-98775530D01*
X84366033Y-98775530D01*
X84366030Y-98775531D01*
X84219124Y-98790000D01*
X83420876Y-98790000D01*
X83273970Y-98775531D01*
X83273967Y-98775530D01*
X83273966Y-98775530D01*
X83085465Y-98718349D01*
X82911742Y-98625492D01*
X82911740Y-98625491D01*
X82759472Y-98500528D01*
X82634509Y-98348260D01*
X82541652Y-98174537D01*
X82517108Y-98093625D01*
X82484470Y-97986034D01*
X82484470Y-97986033D01*
X82484469Y-97986030D01*
X82465162Y-97790000D01*
X82484469Y-97593970D01*
X82484470Y-97593966D01*
X82541651Y-97405465D01*
X82634508Y-97231742D01*
X82634509Y-97231740D01*
X82759472Y-97079472D01*
X82911740Y-96954509D01*
X83085463Y-96861652D01*
X83085465Y-96861651D01*
X83273966Y-96804470D01*
X83273967Y-96804470D01*
X83273970Y-96804469D01*
X83420876Y-96790000D01*
X84219124Y-96790000D01*
X84366030Y-96804469D01*
X84366030Y-96804469D01*
G37*
G36*
X140384000Y-93140000D02*
X136984000Y-93140000D01*
X136984000Y-89740000D01*
X140384000Y-89740000D01*
X140384000Y-93140000D01*
X140384000Y-93140000D01*
G37*
G36*
X102473378Y-89987595D02*
X102626189Y-90033950D01*
X102702595Y-90057127D01*
X102759052Y-90087304D01*
X102913842Y-90170041D01*
X103099002Y-90321998D01*
X103250959Y-90507158D01*
X103302993Y-90604508D01*
X103363873Y-90718406D01*
X103363873Y-90718407D01*
X103433405Y-90947623D01*
X103451000Y-91126269D01*
X103451000Y-91753732D01*
X103433405Y-91932378D01*
X103392250Y-92068047D01*
X103363873Y-92161595D01*
X103303519Y-92274509D01*
X103250959Y-92372842D01*
X103099002Y-92558002D01*
X102913841Y-92709959D01*
X102759051Y-92792696D01*
X102702594Y-92822873D01*
X102626188Y-92846050D01*
X102473377Y-92892405D01*
X102235000Y-92915883D01*
X101996622Y-92892405D01*
X101843811Y-92846050D01*
X101767405Y-92822873D01*
X101654491Y-92762519D01*
X101556158Y-92709959D01*
X101370998Y-92558002D01*
X101219041Y-92372841D01*
X101106128Y-92161595D01*
X101106127Y-92161594D01*
X101084618Y-92090687D01*
X101075240Y-92068048D01*
X101061626Y-92047673D01*
X101044299Y-92030346D01*
X101023925Y-92016732D01*
X101001286Y-92007355D01*
X100977252Y-92002574D01*
X100952748Y-92002574D01*
X100928715Y-92007354D01*
X100906076Y-92016732D01*
X100885701Y-92030346D01*
X100868374Y-92047673D01*
X100854760Y-92068047D01*
X100845382Y-92090687D01*
X100823873Y-92161595D01*
X100763519Y-92274509D01*
X100710959Y-92372842D01*
X100559002Y-92558002D01*
X100373841Y-92709959D01*
X100219051Y-92792696D01*
X100162594Y-92822873D01*
X100086188Y-92846050D01*
X99933377Y-92892405D01*
X99695000Y-92915883D01*
X99456622Y-92892405D01*
X99303811Y-92846050D01*
X99227405Y-92822873D01*
X99114491Y-92762519D01*
X99016158Y-92709959D01*
X98830998Y-92558002D01*
X98679041Y-92372841D01*
X98566128Y-92161595D01*
X98566127Y-92161594D01*
X98544618Y-92090687D01*
X98535240Y-92068048D01*
X98521626Y-92047673D01*
X98504299Y-92030346D01*
X98483925Y-92016732D01*
X98461286Y-92007355D01*
X98437252Y-92002574D01*
X98412748Y-92002574D01*
X98388715Y-92007354D01*
X98366076Y-92016732D01*
X98345701Y-92030346D01*
X98328374Y-92047673D01*
X98314760Y-92068047D01*
X98305382Y-92090687D01*
X98283873Y-92161595D01*
X98223519Y-92274509D01*
X98170959Y-92372842D01*
X98019002Y-92558002D01*
X97833841Y-92709959D01*
X97679051Y-92792696D01*
X97622594Y-92822873D01*
X97546188Y-92846050D01*
X97393377Y-92892405D01*
X97155000Y-92915883D01*
X96916622Y-92892405D01*
X96763811Y-92846050D01*
X96687405Y-92822873D01*
X96574491Y-92762519D01*
X96476158Y-92709959D01*
X96290998Y-92558002D01*
X96139041Y-92372841D01*
X96026128Y-92161595D01*
X96026127Y-92161594D01*
X95982184Y-92016732D01*
X95956595Y-91932377D01*
X95939000Y-91753731D01*
X95939000Y-91126268D01*
X95956595Y-90947622D01*
X96022770Y-90729472D01*
X96026127Y-90718405D01*
X96139042Y-90507157D01*
X96290999Y-90321998D01*
X96476159Y-90170041D01*
X96630949Y-90087304D01*
X96687406Y-90057127D01*
X96763812Y-90033950D01*
X96916623Y-89987595D01*
X97155000Y-89964117D01*
X97393378Y-89987595D01*
X97546189Y-90033950D01*
X97622595Y-90057127D01*
X97679052Y-90087304D01*
X97833842Y-90170041D01*
X98019002Y-90321998D01*
X98170959Y-90507158D01*
X98222993Y-90604508D01*
X98283873Y-90718406D01*
X98305382Y-90789313D01*
X98314760Y-90811952D01*
X98328374Y-90832327D01*
X98345701Y-90849654D01*
X98366075Y-90863268D01*
X98388714Y-90872645D01*
X98412748Y-90877426D01*
X98437252Y-90877426D01*
X98461285Y-90872646D01*
X98483924Y-90863268D01*
X98504299Y-90849654D01*
X98521626Y-90832327D01*
X98535240Y-90811953D01*
X98544618Y-90789313D01*
X98566127Y-90718405D01*
X98679042Y-90507157D01*
X98830999Y-90321998D01*
X99016159Y-90170041D01*
X99170949Y-90087304D01*
X99227406Y-90057127D01*
X99303812Y-90033950D01*
X99456623Y-89987595D01*
X99695000Y-89964117D01*
X99933378Y-89987595D01*
X100086189Y-90033950D01*
X100162595Y-90057127D01*
X100219052Y-90087304D01*
X100373842Y-90170041D01*
X100559002Y-90321998D01*
X100710959Y-90507158D01*
X100762993Y-90604508D01*
X100823873Y-90718406D01*
X100845382Y-90789313D01*
X100854760Y-90811952D01*
X100868374Y-90832327D01*
X100885701Y-90849654D01*
X100906075Y-90863268D01*
X100928714Y-90872645D01*
X100952748Y-90877426D01*
X100977252Y-90877426D01*
X101001285Y-90872646D01*
X101023924Y-90863268D01*
X101044299Y-90849654D01*
X101061626Y-90832327D01*
X101075240Y-90811953D01*
X101084618Y-90789313D01*
X101106127Y-90718405D01*
X101219042Y-90507157D01*
X101370999Y-90321998D01*
X101556159Y-90170041D01*
X101710949Y-90087304D01*
X101767406Y-90057127D01*
X101843812Y-90033950D01*
X101996623Y-89987595D01*
X102235000Y-89964117D01*
X102473378Y-89987595D01*
X102473378Y-89987595D01*
G37*
G36*
X91986030Y-90454469D02*
X91986033Y-90454470D01*
X91986034Y-90454470D01*
X92174535Y-90511651D01*
X92174537Y-90511652D01*
X92348260Y-90604509D01*
X92500528Y-90729472D01*
X92625491Y-90881740D01*
X92625492Y-90881742D01*
X92718349Y-91055465D01*
X92739827Y-91126269D01*
X92775531Y-91243970D01*
X92794838Y-91440000D01*
X92775531Y-91636030D01*
X92775530Y-91636033D01*
X92775530Y-91636034D01*
X92739827Y-91753732D01*
X92718348Y-91824537D01*
X92625491Y-91998260D01*
X92500528Y-92150528D01*
X92348260Y-92275491D01*
X92348258Y-92275492D01*
X92174535Y-92368349D01*
X91986034Y-92425530D01*
X91986033Y-92425530D01*
X91986030Y-92425531D01*
X91839124Y-92440000D01*
X91040876Y-92440000D01*
X90893970Y-92425531D01*
X90893967Y-92425530D01*
X90893966Y-92425530D01*
X90705465Y-92368349D01*
X90531742Y-92275492D01*
X90531740Y-92275491D01*
X90379472Y-92150528D01*
X90254509Y-91998260D01*
X90161652Y-91824537D01*
X90140174Y-91753732D01*
X90104470Y-91636034D01*
X90104470Y-91636033D01*
X90104469Y-91636030D01*
X90085162Y-91440000D01*
X90104469Y-91243970D01*
X90140173Y-91126269D01*
X90161651Y-91055465D01*
X90254508Y-90881742D01*
X90254509Y-90881740D01*
X90379472Y-90729472D01*
X90531740Y-90604509D01*
X90705463Y-90511652D01*
X90705465Y-90511651D01*
X90893966Y-90454470D01*
X90893967Y-90454470D01*
X90893970Y-90454469D01*
X91040876Y-90440000D01*
X91839124Y-90440000D01*
X91986030Y-90454469D01*
X91986030Y-90454469D01*
G37*
G36*
X84366030Y-90454469D02*
X84366033Y-90454470D01*
X84366034Y-90454470D01*
X84554535Y-90511651D01*
X84554537Y-90511652D01*
X84728260Y-90604509D01*
X84880528Y-90729472D01*
X85005491Y-90881740D01*
X85005492Y-90881742D01*
X85098349Y-91055465D01*
X85119827Y-91126269D01*
X85155531Y-91243970D01*
X85174838Y-91440000D01*
X85155531Y-91636030D01*
X85155530Y-91636033D01*
X85155530Y-91636034D01*
X85119827Y-91753732D01*
X85098348Y-91824537D01*
X85005491Y-91998260D01*
X84880528Y-92150528D01*
X84728260Y-92275491D01*
X84728258Y-92275492D01*
X84554535Y-92368349D01*
X84366034Y-92425530D01*
X84366033Y-92425530D01*
X84366030Y-92425531D01*
X84219124Y-92440000D01*
X83420876Y-92440000D01*
X83273970Y-92425531D01*
X83273967Y-92425530D01*
X83273966Y-92425530D01*
X83085465Y-92368349D01*
X82911742Y-92275492D01*
X82911740Y-92275491D01*
X82759472Y-92150528D01*
X82634509Y-91998260D01*
X82541652Y-91824537D01*
X82520174Y-91753732D01*
X82484470Y-91636034D01*
X82484470Y-91636033D01*
X82484469Y-91636030D01*
X82465162Y-91440000D01*
X82484469Y-91243970D01*
X82520173Y-91126269D01*
X82541651Y-91055465D01*
X82634508Y-90881742D01*
X82634509Y-90881740D01*
X82759472Y-90729472D01*
X82911740Y-90604509D01*
X83085463Y-90511652D01*
X83085465Y-90511651D01*
X83273966Y-90454470D01*
X83273967Y-90454470D01*
X83273970Y-90454469D01*
X83420876Y-90440000D01*
X84219124Y-90440000D01*
X84366030Y-90454469D01*
X84366030Y-90454469D01*
G37*
G36*
X91986030Y-87914469D02*
X91986033Y-87914470D01*
X91986034Y-87914470D01*
X92174535Y-87971651D01*
X92174537Y-87971652D01*
X92348260Y-88064509D01*
X92500528Y-88189472D01*
X92625491Y-88341740D01*
X92718348Y-88515463D01*
X92775531Y-88703970D01*
X92794838Y-88900000D01*
X92775531Y-89096030D01*
X92718348Y-89284537D01*
X92625491Y-89458260D01*
X92500528Y-89610528D01*
X92348260Y-89735491D01*
X92348258Y-89735492D01*
X92174535Y-89828349D01*
X91986034Y-89885530D01*
X91986033Y-89885530D01*
X91986030Y-89885531D01*
X91839124Y-89900000D01*
X91040876Y-89900000D01*
X90893970Y-89885531D01*
X90893967Y-89885530D01*
X90893966Y-89885530D01*
X90705465Y-89828349D01*
X90531742Y-89735492D01*
X90531740Y-89735491D01*
X90379472Y-89610528D01*
X90254509Y-89458260D01*
X90161652Y-89284537D01*
X90104469Y-89096030D01*
X90085162Y-88900000D01*
X90104469Y-88703970D01*
X90161652Y-88515463D01*
X90254509Y-88341740D01*
X90379472Y-88189472D01*
X90531740Y-88064509D01*
X90705463Y-87971652D01*
X90705465Y-87971651D01*
X90893966Y-87914470D01*
X90893967Y-87914470D01*
X90893970Y-87914469D01*
X91040876Y-87900000D01*
X91839124Y-87900000D01*
X91986030Y-87914469D01*
X91986030Y-87914469D01*
G37*
G36*
X84366030Y-87914469D02*
X84366033Y-87914470D01*
X84366034Y-87914470D01*
X84554535Y-87971651D01*
X84554537Y-87971652D01*
X84728260Y-88064509D01*
X84880528Y-88189472D01*
X85005491Y-88341740D01*
X85098348Y-88515463D01*
X85155531Y-88703970D01*
X85174838Y-88900000D01*
X85155531Y-89096030D01*
X85098348Y-89284537D01*
X85005491Y-89458260D01*
X84880528Y-89610528D01*
X84728260Y-89735491D01*
X84728258Y-89735492D01*
X84554535Y-89828349D01*
X84366034Y-89885530D01*
X84366033Y-89885530D01*
X84366030Y-89885531D01*
X84219124Y-89900000D01*
X83420876Y-89900000D01*
X83273970Y-89885531D01*
X83273967Y-89885530D01*
X83273966Y-89885530D01*
X83085465Y-89828349D01*
X82911742Y-89735492D01*
X82911740Y-89735491D01*
X82759472Y-89610528D01*
X82634509Y-89458260D01*
X82541652Y-89284537D01*
X82484469Y-89096030D01*
X82465162Y-88900000D01*
X82484469Y-88703970D01*
X82541652Y-88515463D01*
X82634509Y-88341740D01*
X82759472Y-88189472D01*
X82911740Y-88064509D01*
X83085463Y-87971652D01*
X83085465Y-87971651D01*
X83273966Y-87914470D01*
X83273967Y-87914470D01*
X83273970Y-87914469D01*
X83420876Y-87900000D01*
X84219124Y-87900000D01*
X84366030Y-87914469D01*
X84366030Y-87914469D01*
G37*
G36*
X109606393Y-84703553D02*
X109715872Y-84725330D01*
X110025252Y-84853479D01*
X110303687Y-85039523D01*
X110540477Y-85276313D01*
X110726521Y-85554748D01*
X110853074Y-85860275D01*
X110854670Y-85864129D01*
X110920000Y-86192563D01*
X110920000Y-86527437D01*
X110892910Y-86663625D01*
X110854670Y-86855872D01*
X110726521Y-87165252D01*
X110540477Y-87443687D01*
X110303687Y-87680477D01*
X110025252Y-87866521D01*
X109715872Y-87994670D01*
X109606393Y-88016447D01*
X109387437Y-88060000D01*
X109052563Y-88060000D01*
X108833607Y-88016447D01*
X108724128Y-87994670D01*
X108414748Y-87866521D01*
X108136313Y-87680477D01*
X107899523Y-87443687D01*
X107713479Y-87165252D01*
X107585330Y-86855872D01*
X107547090Y-86663625D01*
X107520000Y-86527437D01*
X107520000Y-86192563D01*
X107585330Y-85864129D01*
X107586926Y-85860275D01*
X107713479Y-85554748D01*
X107899523Y-85276313D01*
X108136313Y-85039523D01*
X108414748Y-84853479D01*
X108724128Y-84725330D01*
X108833607Y-84703553D01*
X109052563Y-84660000D01*
X109387437Y-84660000D01*
X109606393Y-84703553D01*
X109606393Y-84703553D01*
G37*
G36*
X139070393Y-84703553D02*
X139179872Y-84725330D01*
X139489252Y-84853479D01*
X139767687Y-85039523D01*
X140004477Y-85276313D01*
X140190521Y-85554748D01*
X140317074Y-85860275D01*
X140318670Y-85864129D01*
X140384000Y-86192563D01*
X140384000Y-86527437D01*
X140356910Y-86663625D01*
X140318670Y-86855872D01*
X140190521Y-87165252D01*
X140004477Y-87443687D01*
X139767687Y-87680477D01*
X139489252Y-87866521D01*
X139179872Y-87994670D01*
X139070393Y-88016447D01*
X138851437Y-88060000D01*
X138516563Y-88060000D01*
X138297607Y-88016447D01*
X138188128Y-87994670D01*
X137878748Y-87866521D01*
X137600313Y-87680477D01*
X137363523Y-87443687D01*
X137177479Y-87165252D01*
X137049330Y-86855872D01*
X137011090Y-86663625D01*
X136984000Y-86527437D01*
X136984000Y-86192563D01*
X137049330Y-85864129D01*
X137050926Y-85860275D01*
X137177479Y-85554748D01*
X137363523Y-85276313D01*
X137600313Y-85039523D01*
X137878748Y-84853479D01*
X138188128Y-84725330D01*
X138297607Y-84703553D01*
X138516563Y-84660000D01*
X138851437Y-84660000D01*
X139070393Y-84703553D01*
X139070393Y-84703553D01*
G37*
G36*
X132106393Y-84703553D02*
X132215872Y-84725330D01*
X132525252Y-84853479D01*
X132803687Y-85039523D01*
X133040477Y-85276313D01*
X133226521Y-85554748D01*
X133353074Y-85860275D01*
X133354670Y-85864129D01*
X133420000Y-86192563D01*
X133420000Y-86527437D01*
X133392910Y-86663625D01*
X133354670Y-86855872D01*
X133226521Y-87165252D01*
X133040477Y-87443687D01*
X132803687Y-87680477D01*
X132525252Y-87866521D01*
X132215872Y-87994670D01*
X132106393Y-88016447D01*
X131887437Y-88060000D01*
X131552563Y-88060000D01*
X131333607Y-88016447D01*
X131224128Y-87994670D01*
X130914748Y-87866521D01*
X130636313Y-87680477D01*
X130399523Y-87443687D01*
X130213479Y-87165252D01*
X130085330Y-86855872D01*
X130047090Y-86663625D01*
X130020000Y-86527437D01*
X130020000Y-86192563D01*
X130085330Y-85864129D01*
X130086926Y-85860275D01*
X130213479Y-85554748D01*
X130399523Y-85276313D01*
X130636313Y-85039523D01*
X130914748Y-84853479D01*
X131224128Y-84725330D01*
X131333607Y-84703553D01*
X131552563Y-84660000D01*
X131887437Y-84660000D01*
X132106393Y-84703553D01*
X132106393Y-84703553D01*
G37*
G36*
X106250293Y-85327998D02*
X106351686Y-85348166D01*
X106380255Y-85360000D01*
X106542705Y-85427289D01*
X106714623Y-85542161D01*
X106860819Y-85688357D01*
X106975691Y-85860275D01*
X107054814Y-86051295D01*
X107095150Y-86254079D01*
X107095150Y-86460841D01*
X107054814Y-86663625D01*
X106975691Y-86854645D01*
X106860819Y-87026563D01*
X106714623Y-87172759D01*
X106542705Y-87287631D01*
X106430809Y-87333980D01*
X106351686Y-87366754D01*
X106250293Y-87386922D01*
X106148901Y-87407090D01*
X105942139Y-87407090D01*
X105840747Y-87386922D01*
X105739354Y-87366754D01*
X105660231Y-87333980D01*
X105548335Y-87287631D01*
X105376417Y-87172759D01*
X105230221Y-87026563D01*
X105115349Y-86854645D01*
X105036226Y-86663625D01*
X104995890Y-86460841D01*
X104995890Y-86254079D01*
X105036226Y-86051295D01*
X105115349Y-85860275D01*
X105230221Y-85688357D01*
X105376417Y-85542161D01*
X105548335Y-85427289D01*
X105710785Y-85360000D01*
X105739354Y-85348166D01*
X105840747Y-85327998D01*
X105942139Y-85307830D01*
X106148901Y-85307830D01*
X106250293Y-85327998D01*
X106250293Y-85327998D01*
G37*
G36*
X96090293Y-85327998D02*
X96191686Y-85348166D01*
X96220255Y-85360000D01*
X96382705Y-85427289D01*
X96554623Y-85542161D01*
X96700819Y-85688357D01*
X96815691Y-85860275D01*
X96894814Y-86051295D01*
X96935150Y-86254079D01*
X96935150Y-86460841D01*
X96894814Y-86663625D01*
X96815691Y-86854645D01*
X96700819Y-87026563D01*
X96554623Y-87172759D01*
X96382705Y-87287631D01*
X96270809Y-87333980D01*
X96191686Y-87366754D01*
X96090293Y-87386922D01*
X95988901Y-87407090D01*
X95782139Y-87407090D01*
X95680747Y-87386922D01*
X95579354Y-87366754D01*
X95500231Y-87333980D01*
X95388335Y-87287631D01*
X95216417Y-87172759D01*
X95070221Y-87026563D01*
X94955349Y-86854645D01*
X94876226Y-86663625D01*
X94835890Y-86460841D01*
X94835890Y-86254079D01*
X94876226Y-86051295D01*
X94955349Y-85860275D01*
X95070221Y-85688357D01*
X95216417Y-85542161D01*
X95388335Y-85427289D01*
X95550785Y-85360000D01*
X95579354Y-85348166D01*
X95680747Y-85327998D01*
X95782139Y-85307830D01*
X95988901Y-85307830D01*
X96090293Y-85327998D01*
X96090293Y-85327998D01*
G37*
G36*
X91986030Y-85374469D02*
X91986033Y-85374470D01*
X91986034Y-85374470D01*
X92174535Y-85431651D01*
X92174537Y-85431652D01*
X92348260Y-85524509D01*
X92500528Y-85649472D01*
X92625491Y-85801740D01*
X92625492Y-85801742D01*
X92718349Y-85975465D01*
X92775530Y-86163966D01*
X92775531Y-86163970D01*
X92794838Y-86360000D01*
X92775531Y-86556030D01*
X92775530Y-86556033D01*
X92775530Y-86556034D01*
X92742893Y-86663625D01*
X92718348Y-86744537D01*
X92625491Y-86918260D01*
X92500528Y-87070528D01*
X92348260Y-87195491D01*
X92348258Y-87195492D01*
X92174535Y-87288349D01*
X91986034Y-87345530D01*
X91986033Y-87345530D01*
X91986030Y-87345531D01*
X91839124Y-87360000D01*
X91040876Y-87360000D01*
X90893970Y-87345531D01*
X90893967Y-87345530D01*
X90893966Y-87345530D01*
X90705465Y-87288349D01*
X90531742Y-87195492D01*
X90531740Y-87195491D01*
X90379472Y-87070528D01*
X90254509Y-86918260D01*
X90161652Y-86744537D01*
X90137108Y-86663625D01*
X90104470Y-86556034D01*
X90104470Y-86556033D01*
X90104469Y-86556030D01*
X90085162Y-86360000D01*
X90104469Y-86163970D01*
X90104470Y-86163966D01*
X90161651Y-85975465D01*
X90254508Y-85801742D01*
X90254509Y-85801740D01*
X90379472Y-85649472D01*
X90531740Y-85524509D01*
X90705463Y-85431652D01*
X90705465Y-85431651D01*
X90893966Y-85374470D01*
X90893967Y-85374470D01*
X90893970Y-85374469D01*
X91040876Y-85360000D01*
X91839124Y-85360000D01*
X91986030Y-85374469D01*
X91986030Y-85374469D01*
G37*
G36*
X84366030Y-85374469D02*
X84366033Y-85374470D01*
X84366034Y-85374470D01*
X84554535Y-85431651D01*
X84554537Y-85431652D01*
X84728260Y-85524509D01*
X84880528Y-85649472D01*
X85005491Y-85801740D01*
X85005492Y-85801742D01*
X85098349Y-85975465D01*
X85155530Y-86163966D01*
X85155531Y-86163970D01*
X85174838Y-86360000D01*
X85155531Y-86556030D01*
X85155530Y-86556033D01*
X85155530Y-86556034D01*
X85122893Y-86663625D01*
X85098348Y-86744537D01*
X85005491Y-86918260D01*
X84880528Y-87070528D01*
X84728260Y-87195491D01*
X84728258Y-87195492D01*
X84554535Y-87288349D01*
X84366034Y-87345530D01*
X84366033Y-87345530D01*
X84366030Y-87345531D01*
X84219124Y-87360000D01*
X83420876Y-87360000D01*
X83273970Y-87345531D01*
X83273967Y-87345530D01*
X83273966Y-87345530D01*
X83085465Y-87288349D01*
X82911742Y-87195492D01*
X82911740Y-87195491D01*
X82759472Y-87070528D01*
X82634509Y-86918260D01*
X82541652Y-86744537D01*
X82517108Y-86663625D01*
X82484470Y-86556034D01*
X82484470Y-86556033D01*
X82484469Y-86556030D01*
X82465162Y-86360000D01*
X82484469Y-86163970D01*
X82484470Y-86163966D01*
X82541651Y-85975465D01*
X82634508Y-85801742D01*
X82634509Y-85801740D01*
X82759472Y-85649472D01*
X82911740Y-85524509D01*
X83085463Y-85431652D01*
X83085465Y-85431651D01*
X83273966Y-85374470D01*
X83273967Y-85374470D01*
X83273970Y-85374469D01*
X83420876Y-85360000D01*
X84219124Y-85360000D01*
X84366030Y-85374469D01*
X84366030Y-85374469D01*
G37*
G36*
X140384000Y-81710000D02*
X136984000Y-81710000D01*
X136984000Y-78310000D01*
X140384000Y-78310000D01*
X140384000Y-81710000D01*
X140384000Y-81710000D01*
G37*
G36*
X102473378Y-78557595D02*
X102626189Y-78603950D01*
X102702595Y-78627127D01*
X102759052Y-78657304D01*
X102913842Y-78740041D01*
X103099002Y-78891998D01*
X103250959Y-79077158D01*
X103302993Y-79174508D01*
X103363873Y-79288406D01*
X103363873Y-79288407D01*
X103433405Y-79517623D01*
X103451000Y-79696269D01*
X103451000Y-80323732D01*
X103433405Y-80502378D01*
X103392250Y-80638047D01*
X103363873Y-80731595D01*
X103303519Y-80844509D01*
X103250959Y-80942842D01*
X103099002Y-81128002D01*
X102913841Y-81279959D01*
X102759051Y-81362696D01*
X102702594Y-81392873D01*
X102626188Y-81416050D01*
X102473377Y-81462405D01*
X102235000Y-81485883D01*
X101996622Y-81462405D01*
X101843811Y-81416050D01*
X101767405Y-81392873D01*
X101654491Y-81332519D01*
X101556158Y-81279959D01*
X101370998Y-81128002D01*
X101219041Y-80942841D01*
X101106128Y-80731595D01*
X101106127Y-80731594D01*
X101084618Y-80660687D01*
X101075240Y-80638048D01*
X101061626Y-80617673D01*
X101044299Y-80600346D01*
X101023925Y-80586732D01*
X101001286Y-80577355D01*
X100977252Y-80572574D01*
X100952748Y-80572574D01*
X100928715Y-80577354D01*
X100906076Y-80586732D01*
X100885701Y-80600346D01*
X100868374Y-80617673D01*
X100854760Y-80638047D01*
X100845382Y-80660687D01*
X100823873Y-80731595D01*
X100763519Y-80844509D01*
X100710959Y-80942842D01*
X100559002Y-81128002D01*
X100373841Y-81279959D01*
X100219051Y-81362696D01*
X100162594Y-81392873D01*
X100086188Y-81416050D01*
X99933377Y-81462405D01*
X99695000Y-81485883D01*
X99456622Y-81462405D01*
X99303811Y-81416050D01*
X99227405Y-81392873D01*
X99114491Y-81332519D01*
X99016158Y-81279959D01*
X98830998Y-81128002D01*
X98679041Y-80942841D01*
X98566128Y-80731595D01*
X98566127Y-80731594D01*
X98544618Y-80660687D01*
X98535240Y-80638048D01*
X98521626Y-80617673D01*
X98504299Y-80600346D01*
X98483925Y-80586732D01*
X98461286Y-80577355D01*
X98437252Y-80572574D01*
X98412748Y-80572574D01*
X98388715Y-80577354D01*
X98366076Y-80586732D01*
X98345701Y-80600346D01*
X98328374Y-80617673D01*
X98314760Y-80638047D01*
X98305382Y-80660687D01*
X98283873Y-80731595D01*
X98223519Y-80844509D01*
X98170959Y-80942842D01*
X98019002Y-81128002D01*
X97833841Y-81279959D01*
X97679051Y-81362696D01*
X97622594Y-81392873D01*
X97546188Y-81416050D01*
X97393377Y-81462405D01*
X97155000Y-81485883D01*
X96916622Y-81462405D01*
X96763811Y-81416050D01*
X96687405Y-81392873D01*
X96574491Y-81332519D01*
X96476158Y-81279959D01*
X96290998Y-81128002D01*
X96139041Y-80942841D01*
X96026128Y-80731595D01*
X96026127Y-80731594D01*
X95982184Y-80586732D01*
X95956595Y-80502377D01*
X95939000Y-80323731D01*
X95939000Y-79696268D01*
X95956595Y-79517622D01*
X96022770Y-79299472D01*
X96026127Y-79288405D01*
X96139042Y-79077157D01*
X96290999Y-78891998D01*
X96476159Y-78740041D01*
X96630949Y-78657304D01*
X96687406Y-78627127D01*
X96763812Y-78603950D01*
X96916623Y-78557595D01*
X97155000Y-78534117D01*
X97393378Y-78557595D01*
X97546189Y-78603950D01*
X97622595Y-78627127D01*
X97679052Y-78657304D01*
X97833842Y-78740041D01*
X98019002Y-78891998D01*
X98170959Y-79077158D01*
X98222993Y-79174508D01*
X98283873Y-79288406D01*
X98305382Y-79359313D01*
X98314760Y-79381952D01*
X98328374Y-79402327D01*
X98345701Y-79419654D01*
X98366075Y-79433268D01*
X98388714Y-79442645D01*
X98412748Y-79447426D01*
X98437252Y-79447426D01*
X98461285Y-79442646D01*
X98483924Y-79433268D01*
X98504299Y-79419654D01*
X98521626Y-79402327D01*
X98535240Y-79381953D01*
X98544618Y-79359313D01*
X98566127Y-79288405D01*
X98679042Y-79077157D01*
X98830999Y-78891998D01*
X99016159Y-78740041D01*
X99170949Y-78657304D01*
X99227406Y-78627127D01*
X99303812Y-78603950D01*
X99456623Y-78557595D01*
X99695000Y-78534117D01*
X99933378Y-78557595D01*
X100086189Y-78603950D01*
X100162595Y-78627127D01*
X100219052Y-78657304D01*
X100373842Y-78740041D01*
X100559002Y-78891998D01*
X100710959Y-79077158D01*
X100762993Y-79174508D01*
X100823873Y-79288406D01*
X100845382Y-79359313D01*
X100854760Y-79381952D01*
X100868374Y-79402327D01*
X100885701Y-79419654D01*
X100906075Y-79433268D01*
X100928714Y-79442645D01*
X100952748Y-79447426D01*
X100977252Y-79447426D01*
X101001285Y-79442646D01*
X101023924Y-79433268D01*
X101044299Y-79419654D01*
X101061626Y-79402327D01*
X101075240Y-79381953D01*
X101084618Y-79359313D01*
X101106127Y-79288405D01*
X101219042Y-79077157D01*
X101370999Y-78891998D01*
X101556159Y-78740041D01*
X101710949Y-78657304D01*
X101767406Y-78627127D01*
X101843812Y-78603950D01*
X101996623Y-78557595D01*
X102235000Y-78534117D01*
X102473378Y-78557595D01*
X102473378Y-78557595D01*
G37*
G36*
X84366030Y-79024469D02*
X84366033Y-79024470D01*
X84366034Y-79024470D01*
X84554535Y-79081651D01*
X84554537Y-79081652D01*
X84728260Y-79174509D01*
X84880528Y-79299472D01*
X85005491Y-79451740D01*
X85005492Y-79451742D01*
X85098349Y-79625465D01*
X85119827Y-79696269D01*
X85155531Y-79813970D01*
X85174838Y-80010000D01*
X85155531Y-80206030D01*
X85155530Y-80206033D01*
X85155530Y-80206034D01*
X85119827Y-80323732D01*
X85098348Y-80394537D01*
X85005491Y-80568260D01*
X84880528Y-80720528D01*
X84728260Y-80845491D01*
X84728258Y-80845492D01*
X84554535Y-80938349D01*
X84366034Y-80995530D01*
X84366033Y-80995530D01*
X84366030Y-80995531D01*
X84219124Y-81010000D01*
X83420876Y-81010000D01*
X83273970Y-80995531D01*
X83273967Y-80995530D01*
X83273966Y-80995530D01*
X83085465Y-80938349D01*
X82911742Y-80845492D01*
X82911740Y-80845491D01*
X82759472Y-80720528D01*
X82634509Y-80568260D01*
X82541652Y-80394537D01*
X82520174Y-80323732D01*
X82484470Y-80206034D01*
X82484470Y-80206033D01*
X82484469Y-80206030D01*
X82465162Y-80010000D01*
X82484469Y-79813970D01*
X82520173Y-79696269D01*
X82541651Y-79625465D01*
X82634508Y-79451742D01*
X82634509Y-79451740D01*
X82759472Y-79299472D01*
X82911740Y-79174509D01*
X83085463Y-79081652D01*
X83085465Y-79081651D01*
X83273966Y-79024470D01*
X83273967Y-79024470D01*
X83273970Y-79024469D01*
X83420876Y-79010000D01*
X84219124Y-79010000D01*
X84366030Y-79024469D01*
X84366030Y-79024469D01*
G37*
G36*
X91986030Y-79024469D02*
X91986033Y-79024470D01*
X91986034Y-79024470D01*
X92174535Y-79081651D01*
X92174537Y-79081652D01*
X92348260Y-79174509D01*
X92500528Y-79299472D01*
X92625491Y-79451740D01*
X92625492Y-79451742D01*
X92718349Y-79625465D01*
X92739827Y-79696269D01*
X92775531Y-79813970D01*
X92794838Y-80010000D01*
X92775531Y-80206030D01*
X92775530Y-80206033D01*
X92775530Y-80206034D01*
X92739827Y-80323732D01*
X92718348Y-80394537D01*
X92625491Y-80568260D01*
X92500528Y-80720528D01*
X92348260Y-80845491D01*
X92348258Y-80845492D01*
X92174535Y-80938349D01*
X91986034Y-80995530D01*
X91986033Y-80995530D01*
X91986030Y-80995531D01*
X91839124Y-81010000D01*
X91040876Y-81010000D01*
X90893970Y-80995531D01*
X90893967Y-80995530D01*
X90893966Y-80995530D01*
X90705465Y-80938349D01*
X90531742Y-80845492D01*
X90531740Y-80845491D01*
X90379472Y-80720528D01*
X90254509Y-80568260D01*
X90161652Y-80394537D01*
X90140174Y-80323732D01*
X90104470Y-80206034D01*
X90104470Y-80206033D01*
X90104469Y-80206030D01*
X90085162Y-80010000D01*
X90104469Y-79813970D01*
X90140173Y-79696269D01*
X90161651Y-79625465D01*
X90254508Y-79451742D01*
X90254509Y-79451740D01*
X90379472Y-79299472D01*
X90531740Y-79174509D01*
X90705463Y-79081652D01*
X90705465Y-79081651D01*
X90893966Y-79024470D01*
X90893967Y-79024470D01*
X90893970Y-79024469D01*
X91040876Y-79010000D01*
X91839124Y-79010000D01*
X91986030Y-79024469D01*
X91986030Y-79024469D01*
G37*
G36*
X91986030Y-76484469D02*
X91986033Y-76484470D01*
X91986034Y-76484470D01*
X92174535Y-76541651D01*
X92174537Y-76541652D01*
X92348260Y-76634509D01*
X92500528Y-76759472D01*
X92625491Y-76911740D01*
X92718348Y-77085463D01*
X92775531Y-77273970D01*
X92794838Y-77470000D01*
X92775531Y-77666030D01*
X92718348Y-77854537D01*
X92625491Y-78028260D01*
X92500528Y-78180528D01*
X92348260Y-78305491D01*
X92348258Y-78305492D01*
X92174535Y-78398349D01*
X91986034Y-78455530D01*
X91986033Y-78455530D01*
X91986030Y-78455531D01*
X91839124Y-78470000D01*
X91040876Y-78470000D01*
X90893970Y-78455531D01*
X90893967Y-78455530D01*
X90893966Y-78455530D01*
X90705465Y-78398349D01*
X90531742Y-78305492D01*
X90531740Y-78305491D01*
X90379472Y-78180528D01*
X90254509Y-78028260D01*
X90161652Y-77854537D01*
X90104469Y-77666030D01*
X90085162Y-77470000D01*
X90104469Y-77273970D01*
X90161652Y-77085463D01*
X90254509Y-76911740D01*
X90379472Y-76759472D01*
X90531740Y-76634509D01*
X90705463Y-76541652D01*
X90705465Y-76541651D01*
X90893966Y-76484470D01*
X90893967Y-76484470D01*
X90893970Y-76484469D01*
X91040876Y-76470000D01*
X91839124Y-76470000D01*
X91986030Y-76484469D01*
X91986030Y-76484469D01*
G37*
G36*
X84366030Y-76484469D02*
X84366033Y-76484470D01*
X84366034Y-76484470D01*
X84554535Y-76541651D01*
X84554537Y-76541652D01*
X84728260Y-76634509D01*
X84880528Y-76759472D01*
X85005491Y-76911740D01*
X85098348Y-77085463D01*
X85155531Y-77273970D01*
X85174838Y-77470000D01*
X85155531Y-77666030D01*
X85098348Y-77854537D01*
X85005491Y-78028260D01*
X84880528Y-78180528D01*
X84728260Y-78305491D01*
X84728258Y-78305492D01*
X84554535Y-78398349D01*
X84366034Y-78455530D01*
X84366033Y-78455530D01*
X84366030Y-78455531D01*
X84219124Y-78470000D01*
X83420876Y-78470000D01*
X83273970Y-78455531D01*
X83273967Y-78455530D01*
X83273966Y-78455530D01*
X83085465Y-78398349D01*
X82911742Y-78305492D01*
X82911740Y-78305491D01*
X82759472Y-78180528D01*
X82634509Y-78028260D01*
X82541652Y-77854537D01*
X82484469Y-77666030D01*
X82465162Y-77470000D01*
X82484469Y-77273970D01*
X82541652Y-77085463D01*
X82634509Y-76911740D01*
X82759472Y-76759472D01*
X82911740Y-76634509D01*
X83085463Y-76541652D01*
X83085465Y-76541651D01*
X83273966Y-76484470D01*
X83273967Y-76484470D01*
X83273970Y-76484469D01*
X83420876Y-76470000D01*
X84219124Y-76470000D01*
X84366030Y-76484469D01*
X84366030Y-76484469D01*
G37*
G36*
X139070393Y-73273553D02*
X139179872Y-73295330D01*
X139489252Y-73423479D01*
X139767687Y-73609523D01*
X140004477Y-73846313D01*
X140190521Y-74124748D01*
X140317074Y-74430275D01*
X140318670Y-74434129D01*
X140384000Y-74762563D01*
X140384000Y-75097437D01*
X140356910Y-75233625D01*
X140318670Y-75425872D01*
X140190521Y-75735252D01*
X140004477Y-76013687D01*
X139767687Y-76250477D01*
X139489252Y-76436521D01*
X139179872Y-76564670D01*
X139070393Y-76586447D01*
X138851437Y-76630000D01*
X138516563Y-76630000D01*
X138297607Y-76586447D01*
X138188128Y-76564670D01*
X137878748Y-76436521D01*
X137600313Y-76250477D01*
X137363523Y-76013687D01*
X137177479Y-75735252D01*
X137049330Y-75425872D01*
X137011090Y-75233625D01*
X136984000Y-75097437D01*
X136984000Y-74762563D01*
X137049330Y-74434129D01*
X137050926Y-74430275D01*
X137177479Y-74124748D01*
X137363523Y-73846313D01*
X137600313Y-73609523D01*
X137878748Y-73423479D01*
X138188128Y-73295330D01*
X138297607Y-73273553D01*
X138516563Y-73230000D01*
X138851437Y-73230000D01*
X139070393Y-73273553D01*
X139070393Y-73273553D01*
G37*
G36*
X109606393Y-73273553D02*
X109715872Y-73295330D01*
X110025252Y-73423479D01*
X110303687Y-73609523D01*
X110540477Y-73846313D01*
X110726521Y-74124748D01*
X110853074Y-74430275D01*
X110854670Y-74434129D01*
X110920000Y-74762563D01*
X110920000Y-75097437D01*
X110892910Y-75233625D01*
X110854670Y-75425872D01*
X110726521Y-75735252D01*
X110540477Y-76013687D01*
X110303687Y-76250477D01*
X110025252Y-76436521D01*
X109715872Y-76564670D01*
X109606393Y-76586447D01*
X109387437Y-76630000D01*
X109052563Y-76630000D01*
X108833607Y-76586447D01*
X108724128Y-76564670D01*
X108414748Y-76436521D01*
X108136313Y-76250477D01*
X107899523Y-76013687D01*
X107713479Y-75735252D01*
X107585330Y-75425872D01*
X107547090Y-75233625D01*
X107520000Y-75097437D01*
X107520000Y-74762563D01*
X107585330Y-74434129D01*
X107586926Y-74430275D01*
X107713479Y-74124748D01*
X107899523Y-73846313D01*
X108136313Y-73609523D01*
X108414748Y-73423479D01*
X108724128Y-73295330D01*
X108833607Y-73273553D01*
X109052563Y-73230000D01*
X109387437Y-73230000D01*
X109606393Y-73273553D01*
X109606393Y-73273553D01*
G37*
G36*
X132106393Y-73273553D02*
X132215872Y-73295330D01*
X132525252Y-73423479D01*
X132803687Y-73609523D01*
X133040477Y-73846313D01*
X133226521Y-74124748D01*
X133353074Y-74430275D01*
X133354670Y-74434129D01*
X133420000Y-74762563D01*
X133420000Y-75097437D01*
X133392910Y-75233625D01*
X133354670Y-75425872D01*
X133226521Y-75735252D01*
X133040477Y-76013687D01*
X132803687Y-76250477D01*
X132525252Y-76436521D01*
X132215872Y-76564670D01*
X132106393Y-76586447D01*
X131887437Y-76630000D01*
X131552563Y-76630000D01*
X131333607Y-76586447D01*
X131224128Y-76564670D01*
X130914748Y-76436521D01*
X130636313Y-76250477D01*
X130399523Y-76013687D01*
X130213479Y-75735252D01*
X130085330Y-75425872D01*
X130047090Y-75233625D01*
X130020000Y-75097437D01*
X130020000Y-74762563D01*
X130085330Y-74434129D01*
X130086926Y-74430275D01*
X130213479Y-74124748D01*
X130399523Y-73846313D01*
X130636313Y-73609523D01*
X130914748Y-73423479D01*
X131224128Y-73295330D01*
X131333607Y-73273553D01*
X131552563Y-73230000D01*
X131887437Y-73230000D01*
X132106393Y-73273553D01*
X132106393Y-73273553D01*
G37*
G36*
X95455293Y-73897998D02*
X95556686Y-73918166D01*
X95585255Y-73930000D01*
X95747705Y-73997289D01*
X95919623Y-74112161D01*
X96065819Y-74258357D01*
X96180691Y-74430275D01*
X96259814Y-74621295D01*
X96300150Y-74824079D01*
X96300150Y-75030841D01*
X96259814Y-75233625D01*
X96180691Y-75424645D01*
X96065819Y-75596563D01*
X95919623Y-75742759D01*
X95747705Y-75857631D01*
X95635809Y-75903980D01*
X95556686Y-75936754D01*
X95455293Y-75956922D01*
X95353901Y-75977090D01*
X95147139Y-75977090D01*
X95045747Y-75956922D01*
X94944354Y-75936754D01*
X94865231Y-75903980D01*
X94753335Y-75857631D01*
X94581417Y-75742759D01*
X94435221Y-75596563D01*
X94320349Y-75424645D01*
X94241226Y-75233625D01*
X94200890Y-75030841D01*
X94200890Y-74824079D01*
X94241226Y-74621295D01*
X94320349Y-74430275D01*
X94435221Y-74258357D01*
X94581417Y-74112161D01*
X94753335Y-73997289D01*
X94915785Y-73930000D01*
X94944354Y-73918166D01*
X95045747Y-73897998D01*
X95147139Y-73877830D01*
X95353901Y-73877830D01*
X95455293Y-73897998D01*
X95455293Y-73897998D01*
G37*
G36*
X105615293Y-73897998D02*
X105716686Y-73918166D01*
X105745255Y-73930000D01*
X105907705Y-73997289D01*
X106079623Y-74112161D01*
X106225819Y-74258357D01*
X106340691Y-74430275D01*
X106419814Y-74621295D01*
X106460150Y-74824079D01*
X106460150Y-75030841D01*
X106419814Y-75233625D01*
X106340691Y-75424645D01*
X106225819Y-75596563D01*
X106079623Y-75742759D01*
X105907705Y-75857631D01*
X105795809Y-75903980D01*
X105716686Y-75936754D01*
X105615293Y-75956922D01*
X105513901Y-75977090D01*
X105307139Y-75977090D01*
X105205747Y-75956922D01*
X105104354Y-75936754D01*
X105025231Y-75903980D01*
X104913335Y-75857631D01*
X104741417Y-75742759D01*
X104595221Y-75596563D01*
X104480349Y-75424645D01*
X104401226Y-75233625D01*
X104360890Y-75030841D01*
X104360890Y-74824079D01*
X104401226Y-74621295D01*
X104480349Y-74430275D01*
X104595221Y-74258357D01*
X104741417Y-74112161D01*
X104913335Y-73997289D01*
X105075785Y-73930000D01*
X105104354Y-73918166D01*
X105205747Y-73897998D01*
X105307139Y-73877830D01*
X105513901Y-73877830D01*
X105615293Y-73897998D01*
X105615293Y-73897998D01*
G37*
G36*
X91986030Y-73944469D02*
X91986033Y-73944470D01*
X91986034Y-73944470D01*
X92174535Y-74001651D01*
X92174537Y-74001652D01*
X92348260Y-74094509D01*
X92500528Y-74219472D01*
X92625491Y-74371740D01*
X92625492Y-74371742D01*
X92718349Y-74545465D01*
X92775530Y-74733966D01*
X92775531Y-74733970D01*
X92794838Y-74930000D01*
X92775531Y-75126030D01*
X92775530Y-75126033D01*
X92775530Y-75126034D01*
X92742893Y-75233625D01*
X92718348Y-75314537D01*
X92625491Y-75488260D01*
X92500528Y-75640528D01*
X92348260Y-75765491D01*
X92348258Y-75765492D01*
X92174535Y-75858349D01*
X91986034Y-75915530D01*
X91986033Y-75915530D01*
X91986030Y-75915531D01*
X91839124Y-75930000D01*
X91040876Y-75930000D01*
X90893970Y-75915531D01*
X90893967Y-75915530D01*
X90893966Y-75915530D01*
X90705465Y-75858349D01*
X90531742Y-75765492D01*
X90531740Y-75765491D01*
X90379472Y-75640528D01*
X90254509Y-75488260D01*
X90161652Y-75314537D01*
X90137108Y-75233625D01*
X90104470Y-75126034D01*
X90104470Y-75126033D01*
X90104469Y-75126030D01*
X90085162Y-74930000D01*
X90104469Y-74733970D01*
X90104470Y-74733966D01*
X90161651Y-74545465D01*
X90254508Y-74371742D01*
X90254509Y-74371740D01*
X90379472Y-74219472D01*
X90531740Y-74094509D01*
X90705463Y-74001652D01*
X90705465Y-74001651D01*
X90893966Y-73944470D01*
X90893967Y-73944470D01*
X90893970Y-73944469D01*
X91040876Y-73930000D01*
X91839124Y-73930000D01*
X91986030Y-73944469D01*
X91986030Y-73944469D01*
G37*
G36*
X84366030Y-73944469D02*
X84366033Y-73944470D01*
X84366034Y-73944470D01*
X84554535Y-74001651D01*
X84554537Y-74001652D01*
X84728260Y-74094509D01*
X84880528Y-74219472D01*
X85005491Y-74371740D01*
X85005492Y-74371742D01*
X85098349Y-74545465D01*
X85155530Y-74733966D01*
X85155531Y-74733970D01*
X85174838Y-74930000D01*
X85155531Y-75126030D01*
X85155530Y-75126033D01*
X85155530Y-75126034D01*
X85122893Y-75233625D01*
X85098348Y-75314537D01*
X85005491Y-75488260D01*
X84880528Y-75640528D01*
X84728260Y-75765491D01*
X84728258Y-75765492D01*
X84554535Y-75858349D01*
X84366034Y-75915530D01*
X84366033Y-75915530D01*
X84366030Y-75915531D01*
X84219124Y-75930000D01*
X83420876Y-75930000D01*
X83273970Y-75915531D01*
X83273967Y-75915530D01*
X83273966Y-75915530D01*
X83085465Y-75858349D01*
X82911742Y-75765492D01*
X82911740Y-75765491D01*
X82759472Y-75640528D01*
X82634509Y-75488260D01*
X82541652Y-75314537D01*
X82517108Y-75233625D01*
X82484470Y-75126034D01*
X82484470Y-75126033D01*
X82484469Y-75126030D01*
X82465162Y-74930000D01*
X82484469Y-74733970D01*
X82484470Y-74733966D01*
X82541651Y-74545465D01*
X82634508Y-74371742D01*
X82634509Y-74371740D01*
X82759472Y-74219472D01*
X82911740Y-74094509D01*
X83085463Y-74001652D01*
X83085465Y-74001651D01*
X83273966Y-73944470D01*
X83273967Y-73944470D01*
X83273970Y-73944469D01*
X83420876Y-73930000D01*
X84219124Y-73930000D01*
X84366030Y-73944469D01*
X84366030Y-73944469D01*
G37*
G36*
X140384000Y-70280000D02*
X136984000Y-70280000D01*
X136984000Y-66880000D01*
X140384000Y-66880000D01*
X140384000Y-70280000D01*
X140384000Y-70280000D01*
G37*
G36*
X102473378Y-67127595D02*
X102626189Y-67173950D01*
X102702595Y-67197127D01*
X102759052Y-67227304D01*
X102913842Y-67310041D01*
X103099002Y-67461998D01*
X103250959Y-67647158D01*
X103302993Y-67744508D01*
X103363873Y-67858406D01*
X103363873Y-67858407D01*
X103433405Y-68087623D01*
X103451000Y-68266269D01*
X103451000Y-68893732D01*
X103433405Y-69072378D01*
X103392250Y-69208047D01*
X103363873Y-69301595D01*
X103303519Y-69414509D01*
X103250959Y-69512842D01*
X103099002Y-69698002D01*
X102913841Y-69849959D01*
X102759051Y-69932696D01*
X102702594Y-69962873D01*
X102626188Y-69986050D01*
X102473377Y-70032405D01*
X102235000Y-70055883D01*
X101996622Y-70032405D01*
X101843811Y-69986050D01*
X101767405Y-69962873D01*
X101654491Y-69902519D01*
X101556158Y-69849959D01*
X101370998Y-69698002D01*
X101219041Y-69512841D01*
X101106128Y-69301595D01*
X101106127Y-69301594D01*
X101084618Y-69230687D01*
X101075240Y-69208048D01*
X101061626Y-69187673D01*
X101044299Y-69170346D01*
X101023925Y-69156732D01*
X101001286Y-69147355D01*
X100977252Y-69142574D01*
X100952748Y-69142574D01*
X100928715Y-69147354D01*
X100906076Y-69156732D01*
X100885701Y-69170346D01*
X100868374Y-69187673D01*
X100854760Y-69208047D01*
X100845382Y-69230687D01*
X100823873Y-69301595D01*
X100763519Y-69414509D01*
X100710959Y-69512842D01*
X100559002Y-69698002D01*
X100373841Y-69849959D01*
X100219051Y-69932696D01*
X100162594Y-69962873D01*
X100086188Y-69986050D01*
X99933377Y-70032405D01*
X99695000Y-70055883D01*
X99456622Y-70032405D01*
X99303811Y-69986050D01*
X99227405Y-69962873D01*
X99114491Y-69902519D01*
X99016158Y-69849959D01*
X98830998Y-69698002D01*
X98679041Y-69512841D01*
X98566128Y-69301595D01*
X98566127Y-69301594D01*
X98544618Y-69230687D01*
X98535240Y-69208048D01*
X98521626Y-69187673D01*
X98504299Y-69170346D01*
X98483925Y-69156732D01*
X98461286Y-69147355D01*
X98437252Y-69142574D01*
X98412748Y-69142574D01*
X98388715Y-69147354D01*
X98366076Y-69156732D01*
X98345701Y-69170346D01*
X98328374Y-69187673D01*
X98314760Y-69208047D01*
X98305382Y-69230687D01*
X98283873Y-69301595D01*
X98223519Y-69414509D01*
X98170959Y-69512842D01*
X98019002Y-69698002D01*
X97833841Y-69849959D01*
X97679051Y-69932696D01*
X97622594Y-69962873D01*
X97546188Y-69986050D01*
X97393377Y-70032405D01*
X97155000Y-70055883D01*
X96916622Y-70032405D01*
X96763811Y-69986050D01*
X96687405Y-69962873D01*
X96574491Y-69902519D01*
X96476158Y-69849959D01*
X96290998Y-69698002D01*
X96139041Y-69512841D01*
X96026128Y-69301595D01*
X96026127Y-69301594D01*
X95982184Y-69156732D01*
X95956595Y-69072377D01*
X95939000Y-68893731D01*
X95939000Y-68266268D01*
X95956595Y-68087622D01*
X96022770Y-67869472D01*
X96026127Y-67858405D01*
X96139042Y-67647157D01*
X96290999Y-67461998D01*
X96476159Y-67310041D01*
X96630949Y-67227304D01*
X96687406Y-67197127D01*
X96763812Y-67173950D01*
X96916623Y-67127595D01*
X97155000Y-67104117D01*
X97393378Y-67127595D01*
X97546189Y-67173950D01*
X97622595Y-67197127D01*
X97679052Y-67227304D01*
X97833842Y-67310041D01*
X98019002Y-67461998D01*
X98170959Y-67647158D01*
X98222993Y-67744508D01*
X98283873Y-67858406D01*
X98305382Y-67929313D01*
X98314760Y-67951952D01*
X98328374Y-67972327D01*
X98345701Y-67989654D01*
X98366075Y-68003268D01*
X98388714Y-68012645D01*
X98412748Y-68017426D01*
X98437252Y-68017426D01*
X98461285Y-68012646D01*
X98483924Y-68003268D01*
X98504299Y-67989654D01*
X98521626Y-67972327D01*
X98535240Y-67951953D01*
X98544618Y-67929313D01*
X98566127Y-67858405D01*
X98679042Y-67647157D01*
X98830999Y-67461998D01*
X99016159Y-67310041D01*
X99170949Y-67227304D01*
X99227406Y-67197127D01*
X99303812Y-67173950D01*
X99456623Y-67127595D01*
X99695000Y-67104117D01*
X99933378Y-67127595D01*
X100086189Y-67173950D01*
X100162595Y-67197127D01*
X100219052Y-67227304D01*
X100373842Y-67310041D01*
X100559002Y-67461998D01*
X100710959Y-67647158D01*
X100762993Y-67744508D01*
X100823873Y-67858406D01*
X100845382Y-67929313D01*
X100854760Y-67951952D01*
X100868374Y-67972327D01*
X100885701Y-67989654D01*
X100906075Y-68003268D01*
X100928714Y-68012645D01*
X100952748Y-68017426D01*
X100977252Y-68017426D01*
X101001285Y-68012646D01*
X101023924Y-68003268D01*
X101044299Y-67989654D01*
X101061626Y-67972327D01*
X101075240Y-67951953D01*
X101084618Y-67929313D01*
X101106127Y-67858405D01*
X101219042Y-67647157D01*
X101370999Y-67461998D01*
X101556159Y-67310041D01*
X101710949Y-67227304D01*
X101767406Y-67197127D01*
X101843812Y-67173950D01*
X101996623Y-67127595D01*
X102235000Y-67104117D01*
X102473378Y-67127595D01*
X102473378Y-67127595D01*
G37*
G36*
X84366030Y-67594469D02*
X84366033Y-67594470D01*
X84366034Y-67594470D01*
X84554535Y-67651651D01*
X84554537Y-67651652D01*
X84728260Y-67744509D01*
X84880528Y-67869472D01*
X85005491Y-68021740D01*
X85005492Y-68021742D01*
X85098349Y-68195465D01*
X85119827Y-68266269D01*
X85155531Y-68383970D01*
X85174838Y-68580000D01*
X85155531Y-68776030D01*
X85155530Y-68776033D01*
X85155530Y-68776034D01*
X85119827Y-68893732D01*
X85098348Y-68964537D01*
X85005491Y-69138260D01*
X84880528Y-69290528D01*
X84728260Y-69415491D01*
X84728258Y-69415492D01*
X84554535Y-69508349D01*
X84366034Y-69565530D01*
X84366033Y-69565530D01*
X84366030Y-69565531D01*
X84219124Y-69580000D01*
X83420876Y-69580000D01*
X83273970Y-69565531D01*
X83273967Y-69565530D01*
X83273966Y-69565530D01*
X83085465Y-69508349D01*
X82911742Y-69415492D01*
X82911740Y-69415491D01*
X82759472Y-69290528D01*
X82634509Y-69138260D01*
X82541652Y-68964537D01*
X82520174Y-68893732D01*
X82484470Y-68776034D01*
X82484470Y-68776033D01*
X82484469Y-68776030D01*
X82465162Y-68580000D01*
X82484469Y-68383970D01*
X82520173Y-68266269D01*
X82541651Y-68195465D01*
X82634508Y-68021742D01*
X82634509Y-68021740D01*
X82759472Y-67869472D01*
X82911740Y-67744509D01*
X83085463Y-67651652D01*
X83085465Y-67651651D01*
X83273966Y-67594470D01*
X83273967Y-67594470D01*
X83273970Y-67594469D01*
X83420876Y-67580000D01*
X84219124Y-67580000D01*
X84366030Y-67594469D01*
X84366030Y-67594469D01*
G37*
G36*
X91986030Y-67594469D02*
X91986033Y-67594470D01*
X91986034Y-67594470D01*
X92174535Y-67651651D01*
X92174537Y-67651652D01*
X92348260Y-67744509D01*
X92500528Y-67869472D01*
X92625491Y-68021740D01*
X92625492Y-68021742D01*
X92718349Y-68195465D01*
X92739827Y-68266269D01*
X92775531Y-68383970D01*
X92794838Y-68580000D01*
X92775531Y-68776030D01*
X92775530Y-68776033D01*
X92775530Y-68776034D01*
X92739827Y-68893732D01*
X92718348Y-68964537D01*
X92625491Y-69138260D01*
X92500528Y-69290528D01*
X92348260Y-69415491D01*
X92348258Y-69415492D01*
X92174535Y-69508349D01*
X91986034Y-69565530D01*
X91986033Y-69565530D01*
X91986030Y-69565531D01*
X91839124Y-69580000D01*
X91040876Y-69580000D01*
X90893970Y-69565531D01*
X90893967Y-69565530D01*
X90893966Y-69565530D01*
X90705465Y-69508349D01*
X90531742Y-69415492D01*
X90531740Y-69415491D01*
X90379472Y-69290528D01*
X90254509Y-69138260D01*
X90161652Y-68964537D01*
X90140174Y-68893732D01*
X90104470Y-68776034D01*
X90104470Y-68776033D01*
X90104469Y-68776030D01*
X90085162Y-68580000D01*
X90104469Y-68383970D01*
X90140173Y-68266269D01*
X90161651Y-68195465D01*
X90254508Y-68021742D01*
X90254509Y-68021740D01*
X90379472Y-67869472D01*
X90531740Y-67744509D01*
X90705463Y-67651652D01*
X90705465Y-67651651D01*
X90893966Y-67594470D01*
X90893967Y-67594470D01*
X90893970Y-67594469D01*
X91040876Y-67580000D01*
X91839124Y-67580000D01*
X91986030Y-67594469D01*
X91986030Y-67594469D01*
G37*
G36*
X84366030Y-65054469D02*
X84366033Y-65054470D01*
X84366034Y-65054470D01*
X84554535Y-65111651D01*
X84554537Y-65111652D01*
X84728260Y-65204509D01*
X84880528Y-65329472D01*
X85005491Y-65481740D01*
X85098348Y-65655463D01*
X85155531Y-65843970D01*
X85174838Y-66040000D01*
X85155531Y-66236030D01*
X85098348Y-66424537D01*
X85005491Y-66598260D01*
X84880528Y-66750528D01*
X84728260Y-66875491D01*
X84728258Y-66875492D01*
X84554535Y-66968349D01*
X84366034Y-67025530D01*
X84366033Y-67025530D01*
X84366030Y-67025531D01*
X84219124Y-67040000D01*
X83420876Y-67040000D01*
X83273970Y-67025531D01*
X83273967Y-67025530D01*
X83273966Y-67025530D01*
X83085465Y-66968349D01*
X82911742Y-66875492D01*
X82911740Y-66875491D01*
X82759472Y-66750528D01*
X82634509Y-66598260D01*
X82541652Y-66424537D01*
X82484469Y-66236030D01*
X82465162Y-66040000D01*
X82484469Y-65843970D01*
X82541652Y-65655463D01*
X82634509Y-65481740D01*
X82759472Y-65329472D01*
X82911740Y-65204509D01*
X83085463Y-65111652D01*
X83085465Y-65111651D01*
X83273966Y-65054470D01*
X83273967Y-65054470D01*
X83273970Y-65054469D01*
X83420876Y-65040000D01*
X84219124Y-65040000D01*
X84366030Y-65054469D01*
X84366030Y-65054469D01*
G37*
G36*
X91986030Y-65054469D02*
X91986033Y-65054470D01*
X91986034Y-65054470D01*
X92174535Y-65111651D01*
X92174537Y-65111652D01*
X92348260Y-65204509D01*
X92500528Y-65329472D01*
X92625491Y-65481740D01*
X92718348Y-65655463D01*
X92775531Y-65843970D01*
X92794838Y-66040000D01*
X92775531Y-66236030D01*
X92718348Y-66424537D01*
X92625491Y-66598260D01*
X92500528Y-66750528D01*
X92348260Y-66875491D01*
X92348258Y-66875492D01*
X92174535Y-66968349D01*
X91986034Y-67025530D01*
X91986033Y-67025530D01*
X91986030Y-67025531D01*
X91839124Y-67040000D01*
X91040876Y-67040000D01*
X90893970Y-67025531D01*
X90893967Y-67025530D01*
X90893966Y-67025530D01*
X90705465Y-66968349D01*
X90531742Y-66875492D01*
X90531740Y-66875491D01*
X90379472Y-66750528D01*
X90254509Y-66598260D01*
X90161652Y-66424537D01*
X90104469Y-66236030D01*
X90085162Y-66040000D01*
X90104469Y-65843970D01*
X90161652Y-65655463D01*
X90254509Y-65481740D01*
X90379472Y-65329472D01*
X90531740Y-65204509D01*
X90705463Y-65111652D01*
X90705465Y-65111651D01*
X90893966Y-65054470D01*
X90893967Y-65054470D01*
X90893970Y-65054469D01*
X91040876Y-65040000D01*
X91839124Y-65040000D01*
X91986030Y-65054469D01*
X91986030Y-65054469D01*
G37*
G36*
X139070393Y-61843553D02*
X139179872Y-61865330D01*
X139489252Y-61993479D01*
X139767687Y-62179523D01*
X140004477Y-62416313D01*
X140190521Y-62694748D01*
X140317074Y-63000275D01*
X140318670Y-63004129D01*
X140384000Y-63332563D01*
X140384000Y-63667437D01*
X140356910Y-63803625D01*
X140318670Y-63995872D01*
X140190521Y-64305252D01*
X140004477Y-64583687D01*
X139767687Y-64820477D01*
X139489252Y-65006521D01*
X139179872Y-65134670D01*
X139070393Y-65156447D01*
X138851437Y-65200000D01*
X138516563Y-65200000D01*
X138297607Y-65156447D01*
X138188128Y-65134670D01*
X137878748Y-65006521D01*
X137600313Y-64820477D01*
X137363523Y-64583687D01*
X137177479Y-64305252D01*
X137049330Y-63995872D01*
X137011090Y-63803625D01*
X136984000Y-63667437D01*
X136984000Y-63332563D01*
X137049330Y-63004129D01*
X137050926Y-63000275D01*
X137177479Y-62694748D01*
X137363523Y-62416313D01*
X137600313Y-62179523D01*
X137878748Y-61993479D01*
X138188128Y-61865330D01*
X138297607Y-61843553D01*
X138516563Y-61800000D01*
X138851437Y-61800000D01*
X139070393Y-61843553D01*
X139070393Y-61843553D01*
G37*
G36*
X109606393Y-61843553D02*
X109715872Y-61865330D01*
X110025252Y-61993479D01*
X110303687Y-62179523D01*
X110540477Y-62416313D01*
X110726521Y-62694748D01*
X110853074Y-63000275D01*
X110854670Y-63004129D01*
X110920000Y-63332563D01*
X110920000Y-63667437D01*
X110892910Y-63803625D01*
X110854670Y-63995872D01*
X110726521Y-64305252D01*
X110540477Y-64583687D01*
X110303687Y-64820477D01*
X110025252Y-65006521D01*
X109715872Y-65134670D01*
X109606393Y-65156447D01*
X109387437Y-65200000D01*
X109052563Y-65200000D01*
X108833607Y-65156447D01*
X108724128Y-65134670D01*
X108414748Y-65006521D01*
X108136313Y-64820477D01*
X107899523Y-64583687D01*
X107713479Y-64305252D01*
X107585330Y-63995872D01*
X107547090Y-63803625D01*
X107520000Y-63667437D01*
X107520000Y-63332563D01*
X107585330Y-63004129D01*
X107586926Y-63000275D01*
X107713479Y-62694748D01*
X107899523Y-62416313D01*
X108136313Y-62179523D01*
X108414748Y-61993479D01*
X108724128Y-61865330D01*
X108833607Y-61843553D01*
X109052563Y-61800000D01*
X109387437Y-61800000D01*
X109606393Y-61843553D01*
X109606393Y-61843553D01*
G37*
G36*
X132106393Y-61843553D02*
X132215872Y-61865330D01*
X132525252Y-61993479D01*
X132803687Y-62179523D01*
X133040477Y-62416313D01*
X133226521Y-62694748D01*
X133353074Y-63000275D01*
X133354670Y-63004129D01*
X133420000Y-63332563D01*
X133420000Y-63667437D01*
X133392910Y-63803625D01*
X133354670Y-63995872D01*
X133226521Y-64305252D01*
X133040477Y-64583687D01*
X132803687Y-64820477D01*
X132525252Y-65006521D01*
X132215872Y-65134670D01*
X132106393Y-65156447D01*
X131887437Y-65200000D01*
X131552563Y-65200000D01*
X131333607Y-65156447D01*
X131224128Y-65134670D01*
X130914748Y-65006521D01*
X130636313Y-64820477D01*
X130399523Y-64583687D01*
X130213479Y-64305252D01*
X130085330Y-63995872D01*
X130047090Y-63803625D01*
X130020000Y-63667437D01*
X130020000Y-63332563D01*
X130085330Y-63004129D01*
X130086926Y-63000275D01*
X130213479Y-62694748D01*
X130399523Y-62416313D01*
X130636313Y-62179523D01*
X130914748Y-61993479D01*
X131224128Y-61865330D01*
X131333607Y-61843553D01*
X131552563Y-61800000D01*
X131887437Y-61800000D01*
X132106393Y-61843553D01*
X132106393Y-61843553D01*
G37*
G36*
X106250293Y-62467998D02*
X106351686Y-62488166D01*
X106380255Y-62500000D01*
X106542705Y-62567289D01*
X106714623Y-62682161D01*
X106860819Y-62828357D01*
X106975691Y-63000275D01*
X107054814Y-63191295D01*
X107095150Y-63394079D01*
X107095150Y-63600841D01*
X107054814Y-63803625D01*
X106975691Y-63994645D01*
X106860819Y-64166563D01*
X106714623Y-64312759D01*
X106542705Y-64427631D01*
X106430809Y-64473980D01*
X106351686Y-64506754D01*
X106250293Y-64526922D01*
X106148901Y-64547090D01*
X105942139Y-64547090D01*
X105840747Y-64526922D01*
X105739354Y-64506754D01*
X105660231Y-64473980D01*
X105548335Y-64427631D01*
X105376417Y-64312759D01*
X105230221Y-64166563D01*
X105115349Y-63994645D01*
X105036226Y-63803625D01*
X104995890Y-63600841D01*
X104995890Y-63394079D01*
X105036226Y-63191295D01*
X105115349Y-63000275D01*
X105230221Y-62828357D01*
X105376417Y-62682161D01*
X105548335Y-62567289D01*
X105710785Y-62500000D01*
X105739354Y-62488166D01*
X105840747Y-62467998D01*
X105942139Y-62447830D01*
X106148901Y-62447830D01*
X106250293Y-62467998D01*
X106250293Y-62467998D01*
G37*
G36*
X96090293Y-62467998D02*
X96191686Y-62488166D01*
X96220255Y-62500000D01*
X96382705Y-62567289D01*
X96554623Y-62682161D01*
X96700819Y-62828357D01*
X96815691Y-63000275D01*
X96894814Y-63191295D01*
X96935150Y-63394079D01*
X96935150Y-63600841D01*
X96894814Y-63803625D01*
X96815691Y-63994645D01*
X96700819Y-64166563D01*
X96554623Y-64312759D01*
X96382705Y-64427631D01*
X96270809Y-64473980D01*
X96191686Y-64506754D01*
X96090293Y-64526922D01*
X95988901Y-64547090D01*
X95782139Y-64547090D01*
X95680747Y-64526922D01*
X95579354Y-64506754D01*
X95500231Y-64473980D01*
X95388335Y-64427631D01*
X95216417Y-64312759D01*
X95070221Y-64166563D01*
X94955349Y-63994645D01*
X94876226Y-63803625D01*
X94835890Y-63600841D01*
X94835890Y-63394079D01*
X94876226Y-63191295D01*
X94955349Y-63000275D01*
X95070221Y-62828357D01*
X95216417Y-62682161D01*
X95388335Y-62567289D01*
X95550785Y-62500000D01*
X95579354Y-62488166D01*
X95680747Y-62467998D01*
X95782139Y-62447830D01*
X95988901Y-62447830D01*
X96090293Y-62467998D01*
X96090293Y-62467998D01*
G37*
G36*
X91986030Y-62514469D02*
X91986033Y-62514470D01*
X91986034Y-62514470D01*
X92174535Y-62571651D01*
X92174537Y-62571652D01*
X92348260Y-62664509D01*
X92500528Y-62789472D01*
X92625491Y-62941740D01*
X92625492Y-62941742D01*
X92718349Y-63115465D01*
X92775530Y-63303966D01*
X92775531Y-63303970D01*
X92794838Y-63500000D01*
X92775531Y-63696030D01*
X92775530Y-63696033D01*
X92775530Y-63696034D01*
X92742893Y-63803625D01*
X92718348Y-63884537D01*
X92625491Y-64058260D01*
X92500528Y-64210528D01*
X92348260Y-64335491D01*
X92348258Y-64335492D01*
X92174535Y-64428349D01*
X91986034Y-64485530D01*
X91986033Y-64485530D01*
X91986030Y-64485531D01*
X91839124Y-64500000D01*
X91040876Y-64500000D01*
X90893970Y-64485531D01*
X90893967Y-64485530D01*
X90893966Y-64485530D01*
X90705465Y-64428349D01*
X90531742Y-64335492D01*
X90531740Y-64335491D01*
X90379472Y-64210528D01*
X90254509Y-64058260D01*
X90161652Y-63884537D01*
X90137108Y-63803625D01*
X90104470Y-63696034D01*
X90104470Y-63696033D01*
X90104469Y-63696030D01*
X90085162Y-63500000D01*
X90104469Y-63303970D01*
X90104470Y-63303966D01*
X90161651Y-63115465D01*
X90254508Y-62941742D01*
X90254509Y-62941740D01*
X90379472Y-62789472D01*
X90531740Y-62664509D01*
X90705463Y-62571652D01*
X90705465Y-62571651D01*
X90893966Y-62514470D01*
X90893967Y-62514470D01*
X90893970Y-62514469D01*
X91040876Y-62500000D01*
X91839124Y-62500000D01*
X91986030Y-62514469D01*
X91986030Y-62514469D01*
G37*
G36*
X84366030Y-62514469D02*
X84366033Y-62514470D01*
X84366034Y-62514470D01*
X84554535Y-62571651D01*
X84554537Y-62571652D01*
X84728260Y-62664509D01*
X84880528Y-62789472D01*
X85005491Y-62941740D01*
X85005492Y-62941742D01*
X85098349Y-63115465D01*
X85155530Y-63303966D01*
X85155531Y-63303970D01*
X85174838Y-63500000D01*
X85155531Y-63696030D01*
X85155530Y-63696033D01*
X85155530Y-63696034D01*
X85122893Y-63803625D01*
X85098348Y-63884537D01*
X85005491Y-64058260D01*
X84880528Y-64210528D01*
X84728260Y-64335491D01*
X84728258Y-64335492D01*
X84554535Y-64428349D01*
X84366034Y-64485530D01*
X84366033Y-64485530D01*
X84366030Y-64485531D01*
X84219124Y-64500000D01*
X83420876Y-64500000D01*
X83273970Y-64485531D01*
X83273967Y-64485530D01*
X83273966Y-64485530D01*
X83085465Y-64428349D01*
X82911742Y-64335492D01*
X82911740Y-64335491D01*
X82759472Y-64210528D01*
X82634509Y-64058260D01*
X82541652Y-63884537D01*
X82517108Y-63803625D01*
X82484470Y-63696034D01*
X82484470Y-63696033D01*
X82484469Y-63696030D01*
X82465162Y-63500000D01*
X82484469Y-63303970D01*
X82484470Y-63303966D01*
X82541651Y-63115465D01*
X82634508Y-62941742D01*
X82634509Y-62941740D01*
X82759472Y-62789472D01*
X82911740Y-62664509D01*
X83085463Y-62571652D01*
X83085465Y-62571651D01*
X83273966Y-62514470D01*
X83273967Y-62514470D01*
X83273970Y-62514469D01*
X83420876Y-62500000D01*
X84219124Y-62500000D01*
X84366030Y-62514469D01*
X84366030Y-62514469D01*
G37*
G36*
X140384000Y-59866000D02*
X136984000Y-59866000D01*
X136984000Y-56466000D01*
X140384000Y-56466000D01*
X140384000Y-59866000D01*
X140384000Y-59866000D01*
G37*
G36*
X102473378Y-55697595D02*
X102626189Y-55743950D01*
X102702595Y-55767127D01*
X102759052Y-55797304D01*
X102913842Y-55880041D01*
X103099002Y-56031998D01*
X103250959Y-56217158D01*
X103302993Y-56314508D01*
X103363873Y-56428406D01*
X103363873Y-56428407D01*
X103433405Y-56657623D01*
X103451000Y-56836269D01*
X103451000Y-57463732D01*
X103433405Y-57642378D01*
X103392250Y-57778047D01*
X103363873Y-57871595D01*
X103303519Y-57984509D01*
X103250959Y-58082842D01*
X103099002Y-58268002D01*
X102913841Y-58419959D01*
X102759051Y-58502696D01*
X102702594Y-58532873D01*
X102626188Y-58556050D01*
X102473377Y-58602405D01*
X102235000Y-58625883D01*
X101996622Y-58602405D01*
X101843811Y-58556050D01*
X101767405Y-58532873D01*
X101654491Y-58472519D01*
X101556158Y-58419959D01*
X101370998Y-58268002D01*
X101219041Y-58082841D01*
X101106128Y-57871595D01*
X101106127Y-57871594D01*
X101084618Y-57800687D01*
X101075240Y-57778048D01*
X101061626Y-57757673D01*
X101044299Y-57740346D01*
X101023925Y-57726732D01*
X101001286Y-57717355D01*
X100977252Y-57712574D01*
X100952748Y-57712574D01*
X100928715Y-57717354D01*
X100906076Y-57726732D01*
X100885701Y-57740346D01*
X100868374Y-57757673D01*
X100854760Y-57778047D01*
X100845382Y-57800687D01*
X100823873Y-57871595D01*
X100763519Y-57984509D01*
X100710959Y-58082842D01*
X100559002Y-58268002D01*
X100373841Y-58419959D01*
X100219051Y-58502696D01*
X100162594Y-58532873D01*
X100086188Y-58556050D01*
X99933377Y-58602405D01*
X99695000Y-58625883D01*
X99456622Y-58602405D01*
X99303811Y-58556050D01*
X99227405Y-58532873D01*
X99114491Y-58472519D01*
X99016158Y-58419959D01*
X98830998Y-58268002D01*
X98679041Y-58082841D01*
X98566128Y-57871595D01*
X98566127Y-57871594D01*
X98544618Y-57800687D01*
X98535240Y-57778048D01*
X98521626Y-57757673D01*
X98504299Y-57740346D01*
X98483925Y-57726732D01*
X98461286Y-57717355D01*
X98437252Y-57712574D01*
X98412748Y-57712574D01*
X98388715Y-57717354D01*
X98366076Y-57726732D01*
X98345701Y-57740346D01*
X98328374Y-57757673D01*
X98314760Y-57778047D01*
X98305382Y-57800687D01*
X98283873Y-57871595D01*
X98223519Y-57984509D01*
X98170959Y-58082842D01*
X98019002Y-58268002D01*
X97833841Y-58419959D01*
X97679051Y-58502696D01*
X97622594Y-58532873D01*
X97546188Y-58556050D01*
X97393377Y-58602405D01*
X97155000Y-58625883D01*
X96916622Y-58602405D01*
X96763811Y-58556050D01*
X96687405Y-58532873D01*
X96574491Y-58472519D01*
X96476158Y-58419959D01*
X96290998Y-58268002D01*
X96139041Y-58082841D01*
X96026128Y-57871595D01*
X96026127Y-57871594D01*
X95982184Y-57726732D01*
X95956595Y-57642377D01*
X95939000Y-57463731D01*
X95939000Y-56836268D01*
X95956595Y-56657622D01*
X96022770Y-56439472D01*
X96026127Y-56428405D01*
X96139042Y-56217157D01*
X96290999Y-56031998D01*
X96293724Y-56029762D01*
X96476159Y-55880041D01*
X96630949Y-55797304D01*
X96687406Y-55767127D01*
X96763812Y-55743950D01*
X96916623Y-55697595D01*
X97155000Y-55674117D01*
X97393378Y-55697595D01*
X97546189Y-55743950D01*
X97622595Y-55767127D01*
X97679052Y-55797304D01*
X97833842Y-55880041D01*
X98019002Y-56031998D01*
X98170959Y-56217158D01*
X98222993Y-56314508D01*
X98283873Y-56428406D01*
X98305382Y-56499313D01*
X98314760Y-56521952D01*
X98328374Y-56542327D01*
X98345701Y-56559654D01*
X98366075Y-56573268D01*
X98388714Y-56582645D01*
X98412748Y-56587426D01*
X98437252Y-56587426D01*
X98461285Y-56582646D01*
X98483924Y-56573268D01*
X98504299Y-56559654D01*
X98521626Y-56542327D01*
X98535240Y-56521953D01*
X98544618Y-56499313D01*
X98566127Y-56428405D01*
X98679042Y-56217157D01*
X98830999Y-56031998D01*
X98833724Y-56029762D01*
X99016159Y-55880041D01*
X99170949Y-55797304D01*
X99227406Y-55767127D01*
X99303812Y-55743950D01*
X99456623Y-55697595D01*
X99695000Y-55674117D01*
X99933378Y-55697595D01*
X100086189Y-55743950D01*
X100162595Y-55767127D01*
X100219052Y-55797304D01*
X100373842Y-55880041D01*
X100559002Y-56031998D01*
X100710959Y-56217158D01*
X100762993Y-56314508D01*
X100823873Y-56428406D01*
X100845382Y-56499313D01*
X100854760Y-56521952D01*
X100868374Y-56542327D01*
X100885701Y-56559654D01*
X100906075Y-56573268D01*
X100928714Y-56582645D01*
X100952748Y-56587426D01*
X100977252Y-56587426D01*
X101001285Y-56582646D01*
X101023924Y-56573268D01*
X101044299Y-56559654D01*
X101061626Y-56542327D01*
X101075240Y-56521953D01*
X101084618Y-56499313D01*
X101106127Y-56428405D01*
X101219042Y-56217157D01*
X101370999Y-56031998D01*
X101373724Y-56029762D01*
X101556159Y-55880041D01*
X101710949Y-55797304D01*
X101767406Y-55767127D01*
X101843812Y-55743950D01*
X101996623Y-55697595D01*
X102235000Y-55674117D01*
X102473378Y-55697595D01*
X102473378Y-55697595D01*
G37*
G36*
X84366030Y-56164469D02*
X84366033Y-56164470D01*
X84366034Y-56164470D01*
X84554535Y-56221651D01*
X84554537Y-56221652D01*
X84728260Y-56314509D01*
X84880528Y-56439472D01*
X85005491Y-56591740D01*
X85005492Y-56591742D01*
X85098349Y-56765465D01*
X85119827Y-56836269D01*
X85155531Y-56953970D01*
X85174838Y-57150000D01*
X85155531Y-57346030D01*
X85155530Y-57346033D01*
X85155530Y-57346034D01*
X85119827Y-57463732D01*
X85098348Y-57534537D01*
X85005491Y-57708260D01*
X84880528Y-57860528D01*
X84728260Y-57985491D01*
X84728258Y-57985492D01*
X84554535Y-58078349D01*
X84366034Y-58135530D01*
X84366033Y-58135530D01*
X84366030Y-58135531D01*
X84219124Y-58150000D01*
X83420876Y-58150000D01*
X83273970Y-58135531D01*
X83273967Y-58135530D01*
X83273966Y-58135530D01*
X83085465Y-58078349D01*
X82911742Y-57985492D01*
X82911740Y-57985491D01*
X82759472Y-57860528D01*
X82634509Y-57708260D01*
X82541652Y-57534537D01*
X82520174Y-57463732D01*
X82484470Y-57346034D01*
X82484470Y-57346033D01*
X82484469Y-57346030D01*
X82465162Y-57150000D01*
X82484469Y-56953970D01*
X82520173Y-56836269D01*
X82541651Y-56765465D01*
X82634508Y-56591742D01*
X82634509Y-56591740D01*
X82759472Y-56439472D01*
X82911740Y-56314509D01*
X83085463Y-56221652D01*
X83085465Y-56221651D01*
X83273966Y-56164470D01*
X83273967Y-56164470D01*
X83273970Y-56164469D01*
X83420876Y-56150000D01*
X84219124Y-56150000D01*
X84366030Y-56164469D01*
X84366030Y-56164469D01*
G37*
G36*
X91986030Y-56164469D02*
X91986033Y-56164470D01*
X91986034Y-56164470D01*
X92174535Y-56221651D01*
X92174537Y-56221652D01*
X92348260Y-56314509D01*
X92500528Y-56439472D01*
X92625491Y-56591740D01*
X92625492Y-56591742D01*
X92718349Y-56765465D01*
X92739827Y-56836269D01*
X92775531Y-56953970D01*
X92794838Y-57150000D01*
X92775531Y-57346030D01*
X92775530Y-57346033D01*
X92775530Y-57346034D01*
X92739827Y-57463732D01*
X92718348Y-57534537D01*
X92625491Y-57708260D01*
X92500528Y-57860528D01*
X92348260Y-57985491D01*
X92348258Y-57985492D01*
X92174535Y-58078349D01*
X91986034Y-58135530D01*
X91986033Y-58135530D01*
X91986030Y-58135531D01*
X91839124Y-58150000D01*
X91040876Y-58150000D01*
X90893970Y-58135531D01*
X90893967Y-58135530D01*
X90893966Y-58135530D01*
X90705465Y-58078349D01*
X90531742Y-57985492D01*
X90531740Y-57985491D01*
X90379472Y-57860528D01*
X90254509Y-57708260D01*
X90161652Y-57534537D01*
X90140174Y-57463732D01*
X90104470Y-57346034D01*
X90104470Y-57346033D01*
X90104469Y-57346030D01*
X90085162Y-57150000D01*
X90104469Y-56953970D01*
X90140173Y-56836269D01*
X90161651Y-56765465D01*
X90254508Y-56591742D01*
X90254509Y-56591740D01*
X90379472Y-56439472D01*
X90531740Y-56314509D01*
X90705463Y-56221652D01*
X90705465Y-56221651D01*
X90893966Y-56164470D01*
X90893967Y-56164470D01*
X90893970Y-56164469D01*
X91040876Y-56150000D01*
X91839124Y-56150000D01*
X91986030Y-56164469D01*
X91986030Y-56164469D01*
G37*
G36*
X62866707Y-54583596D02*
X62943836Y-54591193D01*
X63075787Y-54631220D01*
X63141763Y-54651233D01*
X63324172Y-54748733D01*
X63484054Y-54879946D01*
X63615267Y-55039828D01*
X63712767Y-55222237D01*
X63712767Y-55222238D01*
X63772807Y-55420164D01*
X63793080Y-55626000D01*
X63772807Y-55831836D01*
X63732780Y-55963787D01*
X63712767Y-56029763D01*
X63615267Y-56212172D01*
X63484054Y-56372054D01*
X63324172Y-56503267D01*
X63141763Y-56600767D01*
X63075787Y-56620780D01*
X62943836Y-56660807D01*
X62866707Y-56668403D01*
X62789580Y-56676000D01*
X62686420Y-56676000D01*
X62609293Y-56668403D01*
X62532164Y-56660807D01*
X62400213Y-56620780D01*
X62334237Y-56600767D01*
X62151828Y-56503267D01*
X61991946Y-56372054D01*
X61860733Y-56212172D01*
X61763233Y-56029763D01*
X61743220Y-55963787D01*
X61703193Y-55831836D01*
X61682920Y-55626000D01*
X61703193Y-55420164D01*
X61763233Y-55222238D01*
X61763233Y-55222237D01*
X61860733Y-55039828D01*
X61991946Y-54879946D01*
X62151828Y-54748733D01*
X62334237Y-54651233D01*
X62400213Y-54631220D01*
X62532164Y-54591193D01*
X62609293Y-54583596D01*
X62686420Y-54576000D01*
X62789580Y-54576000D01*
X62866707Y-54583596D01*
X62866707Y-54583596D01*
G37*
G36*
X67946707Y-54583596D02*
X68023836Y-54591193D01*
X68155787Y-54631220D01*
X68221763Y-54651233D01*
X68404172Y-54748733D01*
X68564054Y-54879946D01*
X68695267Y-55039828D01*
X68792767Y-55222237D01*
X68792767Y-55222238D01*
X68852807Y-55420164D01*
X68873080Y-55626000D01*
X68852807Y-55831836D01*
X68812780Y-55963787D01*
X68792767Y-56029763D01*
X68695267Y-56212172D01*
X68564054Y-56372054D01*
X68404172Y-56503267D01*
X68221763Y-56600767D01*
X68155787Y-56620780D01*
X68023836Y-56660807D01*
X67946707Y-56668403D01*
X67869580Y-56676000D01*
X67766420Y-56676000D01*
X67689293Y-56668403D01*
X67612164Y-56660807D01*
X67480213Y-56620780D01*
X67414237Y-56600767D01*
X67231828Y-56503267D01*
X67071946Y-56372054D01*
X66940733Y-56212172D01*
X66843233Y-56029763D01*
X66823220Y-55963787D01*
X66783193Y-55831836D01*
X66762920Y-55626000D01*
X66783193Y-55420164D01*
X66843233Y-55222238D01*
X66843233Y-55222237D01*
X66940733Y-55039828D01*
X67071946Y-54879946D01*
X67231828Y-54748733D01*
X67414237Y-54651233D01*
X67480213Y-54631220D01*
X67612164Y-54591193D01*
X67689293Y-54583596D01*
X67766420Y-54576000D01*
X67869580Y-54576000D01*
X67946707Y-54583596D01*
X67946707Y-54583596D01*
G37*
G36*
X71408000Y-56676000D02*
X69308000Y-56676000D01*
X69308000Y-54576000D01*
X71408000Y-54576000D01*
X71408000Y-56676000D01*
X71408000Y-56676000D01*
G37*
G36*
X65406707Y-54583596D02*
X65483836Y-54591193D01*
X65615787Y-54631220D01*
X65681763Y-54651233D01*
X65864172Y-54748733D01*
X66024054Y-54879946D01*
X66155267Y-55039828D01*
X66252767Y-55222237D01*
X66252767Y-55222238D01*
X66312807Y-55420164D01*
X66333080Y-55626000D01*
X66312807Y-55831836D01*
X66272780Y-55963787D01*
X66252767Y-56029763D01*
X66155267Y-56212172D01*
X66024054Y-56372054D01*
X65864172Y-56503267D01*
X65681763Y-56600767D01*
X65615787Y-56620780D01*
X65483836Y-56660807D01*
X65406707Y-56668403D01*
X65329580Y-56676000D01*
X65226420Y-56676000D01*
X65149293Y-56668403D01*
X65072164Y-56660807D01*
X64940213Y-56620780D01*
X64874237Y-56600767D01*
X64691828Y-56503267D01*
X64531946Y-56372054D01*
X64400733Y-56212172D01*
X64303233Y-56029763D01*
X64283220Y-55963787D01*
X64243193Y-55831836D01*
X64222920Y-55626000D01*
X64243193Y-55420164D01*
X64303233Y-55222238D01*
X64303233Y-55222237D01*
X64400733Y-55039828D01*
X64531946Y-54879946D01*
X64691828Y-54748733D01*
X64874237Y-54651233D01*
X64940213Y-54631220D01*
X65072164Y-54591193D01*
X65149293Y-54583596D01*
X65226420Y-54576000D01*
X65329580Y-54576000D01*
X65406707Y-54583596D01*
X65406707Y-54583596D01*
G37*
G36*
X84366030Y-53624469D02*
X84366033Y-53624470D01*
X84366034Y-53624470D01*
X84554535Y-53681651D01*
X84554537Y-53681652D01*
X84728260Y-53774509D01*
X84880528Y-53899472D01*
X85005491Y-54051740D01*
X85098348Y-54225463D01*
X85155531Y-54413970D01*
X85174838Y-54610000D01*
X85155531Y-54806030D01*
X85098348Y-54994537D01*
X85005491Y-55168260D01*
X84880528Y-55320528D01*
X84728260Y-55445491D01*
X84728258Y-55445492D01*
X84554535Y-55538349D01*
X84366034Y-55595530D01*
X84366033Y-55595530D01*
X84366030Y-55595531D01*
X84219124Y-55610000D01*
X83420876Y-55610000D01*
X83273970Y-55595531D01*
X83273967Y-55595530D01*
X83273966Y-55595530D01*
X83085465Y-55538349D01*
X82911742Y-55445492D01*
X82911740Y-55445491D01*
X82759472Y-55320528D01*
X82634509Y-55168260D01*
X82541652Y-54994537D01*
X82484469Y-54806030D01*
X82465162Y-54610000D01*
X82484469Y-54413970D01*
X82541652Y-54225463D01*
X82634509Y-54051740D01*
X82759472Y-53899472D01*
X82911740Y-53774509D01*
X83085463Y-53681652D01*
X83085465Y-53681651D01*
X83273966Y-53624470D01*
X83273967Y-53624470D01*
X83273970Y-53624469D01*
X83420876Y-53610000D01*
X84219124Y-53610000D01*
X84366030Y-53624469D01*
X84366030Y-53624469D01*
G37*
G36*
X91986030Y-53624469D02*
X91986033Y-53624470D01*
X91986034Y-53624470D01*
X92174535Y-53681651D01*
X92174537Y-53681652D01*
X92348260Y-53774509D01*
X92500528Y-53899472D01*
X92625491Y-54051740D01*
X92718348Y-54225463D01*
X92775531Y-54413970D01*
X92794838Y-54610000D01*
X92775531Y-54806030D01*
X92718348Y-54994537D01*
X92625491Y-55168260D01*
X92500528Y-55320528D01*
X92348260Y-55445491D01*
X92348258Y-55445492D01*
X92174535Y-55538349D01*
X91986034Y-55595530D01*
X91986033Y-55595530D01*
X91986030Y-55595531D01*
X91839124Y-55610000D01*
X91040876Y-55610000D01*
X90893970Y-55595531D01*
X90893967Y-55595530D01*
X90893966Y-55595530D01*
X90705465Y-55538349D01*
X90531742Y-55445492D01*
X90531740Y-55445491D01*
X90379472Y-55320528D01*
X90254509Y-55168260D01*
X90161652Y-54994537D01*
X90104469Y-54806030D01*
X90085162Y-54610000D01*
X90104469Y-54413970D01*
X90161652Y-54225463D01*
X90254509Y-54051740D01*
X90379472Y-53899472D01*
X90531740Y-53774509D01*
X90705463Y-53681652D01*
X90705465Y-53681651D01*
X90893966Y-53624470D01*
X90893967Y-53624470D01*
X90893970Y-53624469D01*
X91040876Y-53610000D01*
X91839124Y-53610000D01*
X91986030Y-53624469D01*
X91986030Y-53624469D01*
G37*
G36*
X139070393Y-51429553D02*
X139179872Y-51451330D01*
X139489252Y-51579479D01*
X139767687Y-51765523D01*
X140004477Y-52002313D01*
X140190521Y-52280748D01*
X140318670Y-52590128D01*
X140326255Y-52628260D01*
X140381400Y-52905491D01*
X140384000Y-52918565D01*
X140384000Y-53253435D01*
X140318670Y-53581872D01*
X140190521Y-53891252D01*
X140004477Y-54169687D01*
X139767687Y-54406477D01*
X139489252Y-54592521D01*
X139179872Y-54720670D01*
X139070393Y-54742447D01*
X138851437Y-54786000D01*
X138516563Y-54786000D01*
X138297607Y-54742447D01*
X138188128Y-54720670D01*
X137878748Y-54592521D01*
X137600313Y-54406477D01*
X137363523Y-54169687D01*
X137177479Y-53891252D01*
X137049330Y-53581872D01*
X136984000Y-53253435D01*
X136984000Y-52918565D01*
X136986601Y-52905491D01*
X137041745Y-52628260D01*
X137049330Y-52590128D01*
X137177479Y-52280748D01*
X137363523Y-52002313D01*
X137600313Y-51765523D01*
X137878748Y-51579479D01*
X138188128Y-51451330D01*
X138297607Y-51429553D01*
X138516563Y-51386000D01*
X138851437Y-51386000D01*
X139070393Y-51429553D01*
X139070393Y-51429553D01*
G37*
G36*
X132106393Y-50413553D02*
X132215872Y-50435330D01*
X132525252Y-50563479D01*
X132803687Y-50749523D01*
X133040477Y-50986313D01*
X133226521Y-51264748D01*
X133353074Y-51570275D01*
X133354670Y-51574129D01*
X133420000Y-51902563D01*
X133420000Y-52237437D01*
X133411385Y-52280748D01*
X133354670Y-52565872D01*
X133226521Y-52875252D01*
X133040477Y-53153687D01*
X132803687Y-53390477D01*
X132525252Y-53576521D01*
X132215872Y-53704670D01*
X132106393Y-53726447D01*
X131887437Y-53770000D01*
X131552563Y-53770000D01*
X131333607Y-53726447D01*
X131224128Y-53704670D01*
X130914748Y-53576521D01*
X130636313Y-53390477D01*
X130399523Y-53153687D01*
X130213479Y-52875252D01*
X130085330Y-52565872D01*
X130028615Y-52280748D01*
X130020000Y-52237437D01*
X130020000Y-51902563D01*
X130085330Y-51574129D01*
X130086926Y-51570275D01*
X130213479Y-51264748D01*
X130399523Y-50986313D01*
X130636313Y-50749523D01*
X130914748Y-50563479D01*
X131224128Y-50435330D01*
X131333607Y-50413553D01*
X131552563Y-50370000D01*
X131887437Y-50370000D01*
X132106393Y-50413553D01*
X132106393Y-50413553D01*
G37*
G36*
X109606393Y-50413553D02*
X109715872Y-50435330D01*
X110025252Y-50563479D01*
X110303687Y-50749523D01*
X110540477Y-50986313D01*
X110726521Y-51264748D01*
X110853074Y-51570275D01*
X110854670Y-51574129D01*
X110920000Y-51902563D01*
X110920000Y-52237437D01*
X110911385Y-52280748D01*
X110854670Y-52565872D01*
X110726521Y-52875252D01*
X110540477Y-53153687D01*
X110303687Y-53390477D01*
X110025252Y-53576521D01*
X109715872Y-53704670D01*
X109606393Y-53726447D01*
X109387437Y-53770000D01*
X109052563Y-53770000D01*
X108833607Y-53726447D01*
X108724128Y-53704670D01*
X108414748Y-53576521D01*
X108136313Y-53390477D01*
X107899523Y-53153687D01*
X107713479Y-52875252D01*
X107585330Y-52565872D01*
X107528615Y-52280748D01*
X107520000Y-52237437D01*
X107520000Y-51902563D01*
X107585330Y-51574129D01*
X107586926Y-51570275D01*
X107713479Y-51264748D01*
X107899523Y-50986313D01*
X108136313Y-50749523D01*
X108414748Y-50563479D01*
X108724128Y-50435330D01*
X108833607Y-50413553D01*
X109052563Y-50370000D01*
X109387437Y-50370000D01*
X109606393Y-50413553D01*
X109606393Y-50413553D01*
G37*
G36*
X105615293Y-51037998D02*
X105716686Y-51058166D01*
X105745255Y-51070000D01*
X105907705Y-51137289D01*
X106079623Y-51252161D01*
X106225819Y-51398357D01*
X106340691Y-51570275D01*
X106419814Y-51761295D01*
X106460150Y-51964079D01*
X106460150Y-52170841D01*
X106419814Y-52373625D01*
X106340691Y-52564645D01*
X106225819Y-52736563D01*
X106079623Y-52882759D01*
X105907705Y-52997631D01*
X105795809Y-53043980D01*
X105716686Y-53076754D01*
X105615293Y-53096922D01*
X105513901Y-53117090D01*
X105307139Y-53117090D01*
X105205747Y-53096922D01*
X105104354Y-53076754D01*
X105025231Y-53043980D01*
X104913335Y-52997631D01*
X104741417Y-52882759D01*
X104595221Y-52736563D01*
X104480349Y-52564645D01*
X104401226Y-52373625D01*
X104360890Y-52170841D01*
X104360890Y-51964079D01*
X104401226Y-51761295D01*
X104480349Y-51570275D01*
X104595221Y-51398357D01*
X104741417Y-51252161D01*
X104913335Y-51137289D01*
X105075785Y-51070000D01*
X105104354Y-51058166D01*
X105205747Y-51037998D01*
X105307139Y-51017830D01*
X105513901Y-51017830D01*
X105615293Y-51037998D01*
X105615293Y-51037998D01*
G37*
G36*
X95455293Y-51037998D02*
X95556686Y-51058166D01*
X95585255Y-51070000D01*
X95747705Y-51137289D01*
X95919623Y-51252161D01*
X96065819Y-51398357D01*
X96180691Y-51570275D01*
X96259814Y-51761295D01*
X96300150Y-51964079D01*
X96300150Y-52170841D01*
X96259814Y-52373625D01*
X96180691Y-52564645D01*
X96065819Y-52736563D01*
X95919623Y-52882759D01*
X95747705Y-52997631D01*
X95635809Y-53043980D01*
X95556686Y-53076754D01*
X95455293Y-53096922D01*
X95353901Y-53117090D01*
X95147139Y-53117090D01*
X95045747Y-53096922D01*
X94944354Y-53076754D01*
X94865231Y-53043980D01*
X94753335Y-52997631D01*
X94581417Y-52882759D01*
X94435221Y-52736563D01*
X94320349Y-52564645D01*
X94241226Y-52373625D01*
X94200890Y-52170841D01*
X94200890Y-51964079D01*
X94241226Y-51761295D01*
X94320349Y-51570275D01*
X94435221Y-51398357D01*
X94581417Y-51252161D01*
X94753335Y-51137289D01*
X94915785Y-51070000D01*
X94944354Y-51058166D01*
X95045747Y-51037998D01*
X95147139Y-51017830D01*
X95353901Y-51017830D01*
X95455293Y-51037998D01*
X95455293Y-51037998D01*
G37*
G36*
X91986030Y-51084469D02*
X91986033Y-51084470D01*
X91986034Y-51084470D01*
X92174535Y-51141651D01*
X92174537Y-51141652D01*
X92348260Y-51234509D01*
X92500528Y-51359472D01*
X92625491Y-51511740D01*
X92625492Y-51511742D01*
X92718349Y-51685465D01*
X92742634Y-51765523D01*
X92775531Y-51873970D01*
X92794838Y-52070000D01*
X92775531Y-52266030D01*
X92775530Y-52266033D01*
X92775530Y-52266034D01*
X92742893Y-52373625D01*
X92718348Y-52454537D01*
X92625491Y-52628260D01*
X92500528Y-52780528D01*
X92348260Y-52905491D01*
X92348258Y-52905492D01*
X92174535Y-52998349D01*
X91986034Y-53055530D01*
X91986033Y-53055530D01*
X91986030Y-53055531D01*
X91839124Y-53070000D01*
X91040876Y-53070000D01*
X90893970Y-53055531D01*
X90893967Y-53055530D01*
X90893966Y-53055530D01*
X90705465Y-52998349D01*
X90531742Y-52905492D01*
X90531740Y-52905491D01*
X90379472Y-52780528D01*
X90254509Y-52628260D01*
X90161652Y-52454537D01*
X90137108Y-52373625D01*
X90104470Y-52266034D01*
X90104470Y-52266033D01*
X90104469Y-52266030D01*
X90085162Y-52070000D01*
X90104469Y-51873970D01*
X90137366Y-51765523D01*
X90161651Y-51685465D01*
X90254508Y-51511742D01*
X90254509Y-51511740D01*
X90379472Y-51359472D01*
X90531740Y-51234509D01*
X90705463Y-51141652D01*
X90705465Y-51141651D01*
X90893966Y-51084470D01*
X90893967Y-51084470D01*
X90893970Y-51084469D01*
X91040876Y-51070000D01*
X91839124Y-51070000D01*
X91986030Y-51084469D01*
X91986030Y-51084469D01*
G37*
G36*
X84366030Y-51084469D02*
X84366033Y-51084470D01*
X84366034Y-51084470D01*
X84554535Y-51141651D01*
X84554537Y-51141652D01*
X84728260Y-51234509D01*
X84880528Y-51359472D01*
X85005491Y-51511740D01*
X85005492Y-51511742D01*
X85098349Y-51685465D01*
X85122634Y-51765523D01*
X85155531Y-51873970D01*
X85174838Y-52070000D01*
X85155531Y-52266030D01*
X85155530Y-52266033D01*
X85155530Y-52266034D01*
X85122893Y-52373625D01*
X85098348Y-52454537D01*
X85005491Y-52628260D01*
X84880528Y-52780528D01*
X84728260Y-52905491D01*
X84728258Y-52905492D01*
X84554535Y-52998349D01*
X84366034Y-53055530D01*
X84366033Y-53055530D01*
X84366030Y-53055531D01*
X84219124Y-53070000D01*
X83420876Y-53070000D01*
X83273970Y-53055531D01*
X83273967Y-53055530D01*
X83273966Y-53055530D01*
X83085465Y-52998349D01*
X82911742Y-52905492D01*
X82911740Y-52905491D01*
X82759472Y-52780528D01*
X82634509Y-52628260D01*
X82541652Y-52454537D01*
X82517108Y-52373625D01*
X82484470Y-52266034D01*
X82484470Y-52266033D01*
X82484469Y-52266030D01*
X82465162Y-52070000D01*
X82484469Y-51873970D01*
X82517366Y-51765523D01*
X82541651Y-51685465D01*
X82634508Y-51511742D01*
X82634509Y-51511740D01*
X82759472Y-51359472D01*
X82911740Y-51234509D01*
X83085463Y-51141652D01*
X83085465Y-51141651D01*
X83273966Y-51084470D01*
X83273967Y-51084470D01*
X83273970Y-51084469D01*
X83420876Y-51070000D01*
X84219124Y-51070000D01*
X84366030Y-51084469D01*
X84366030Y-51084469D01*
G37*
G36*
X140384000Y-49452000D02*
X136984000Y-49452000D01*
X136984000Y-46052000D01*
X140384000Y-46052000D01*
X140384000Y-49452000D01*
X140384000Y-49452000D01*
G37*
G36*
X95454253Y-44058078D02*
X95555646Y-44078246D01*
X95634769Y-44111020D01*
X95746665Y-44157369D01*
X95918583Y-44272241D01*
X96064779Y-44418437D01*
X96179651Y-44590355D01*
X96258774Y-44781375D01*
X96299110Y-44984159D01*
X96299110Y-45190921D01*
X96258774Y-45393705D01*
X96179651Y-45584725D01*
X96064779Y-45756643D01*
X95918583Y-45902839D01*
X95746665Y-46017711D01*
X95663884Y-46052000D01*
X95555646Y-46096834D01*
X95454253Y-46117002D01*
X95352861Y-46137170D01*
X95146099Y-46137170D01*
X95044707Y-46117002D01*
X94943314Y-46096834D01*
X94835076Y-46052000D01*
X94752295Y-46017711D01*
X94580377Y-45902839D01*
X94434181Y-45756643D01*
X94319309Y-45584725D01*
X94240186Y-45393705D01*
X94199850Y-45190921D01*
X94199850Y-44984159D01*
X94240186Y-44781375D01*
X94319309Y-44590355D01*
X94434181Y-44418437D01*
X94580377Y-44272241D01*
X94752295Y-44157369D01*
X94864191Y-44111020D01*
X94943314Y-44078246D01*
X95044707Y-44058078D01*
X95146099Y-44037910D01*
X95352861Y-44037910D01*
X95454253Y-44058078D01*
X95454253Y-44058078D01*
G37*
G36*
X105614253Y-44058078D02*
X105715646Y-44078246D01*
X105794769Y-44111020D01*
X105906665Y-44157369D01*
X106078583Y-44272241D01*
X106224779Y-44418437D01*
X106339651Y-44590355D01*
X106418774Y-44781375D01*
X106459110Y-44984159D01*
X106459110Y-45190921D01*
X106418774Y-45393705D01*
X106339651Y-45584725D01*
X106224779Y-45756643D01*
X106078583Y-45902839D01*
X105906665Y-46017711D01*
X105823884Y-46052000D01*
X105715646Y-46096834D01*
X105614253Y-46117002D01*
X105512861Y-46137170D01*
X105306099Y-46137170D01*
X105204707Y-46117002D01*
X105103314Y-46096834D01*
X104995076Y-46052000D01*
X104912295Y-46017711D01*
X104740377Y-45902839D01*
X104594181Y-45756643D01*
X104479309Y-45584725D01*
X104400186Y-45393705D01*
X104359850Y-45190921D01*
X104359850Y-44984159D01*
X104400186Y-44781375D01*
X104479309Y-44590355D01*
X104594181Y-44418437D01*
X104740377Y-44272241D01*
X104912295Y-44157369D01*
X105024191Y-44111020D01*
X105103314Y-44078246D01*
X105204707Y-44058078D01*
X105306099Y-44037910D01*
X105512861Y-44037910D01*
X105614253Y-44058078D01*
X105614253Y-44058078D01*
G37*
G36*
X91986030Y-44099469D02*
X91986033Y-44099470D01*
X91986034Y-44099470D01*
X92174535Y-44156651D01*
X92174537Y-44156652D01*
X92348260Y-44249509D01*
X92500528Y-44374472D01*
X92625491Y-44526740D01*
X92625492Y-44526742D01*
X92718349Y-44700465D01*
X92775530Y-44888966D01*
X92775531Y-44888970D01*
X92794838Y-45085000D01*
X92775531Y-45281030D01*
X92775530Y-45281033D01*
X92775530Y-45281034D01*
X92741352Y-45393705D01*
X92718348Y-45469537D01*
X92625491Y-45643260D01*
X92500528Y-45795528D01*
X92348260Y-45920491D01*
X92348258Y-45920492D01*
X92174535Y-46013349D01*
X91986034Y-46070530D01*
X91986033Y-46070530D01*
X91986030Y-46070531D01*
X91839124Y-46085000D01*
X91040876Y-46085000D01*
X90893970Y-46070531D01*
X90893967Y-46070530D01*
X90893966Y-46070530D01*
X90705465Y-46013349D01*
X90531742Y-45920492D01*
X90531740Y-45920491D01*
X90379472Y-45795528D01*
X90254509Y-45643260D01*
X90161652Y-45469537D01*
X90138649Y-45393705D01*
X90104470Y-45281034D01*
X90104470Y-45281033D01*
X90104469Y-45281030D01*
X90085162Y-45085000D01*
X90104469Y-44888970D01*
X90104470Y-44888966D01*
X90161651Y-44700465D01*
X90254508Y-44526742D01*
X90254509Y-44526740D01*
X90379472Y-44374472D01*
X90531740Y-44249509D01*
X90705463Y-44156652D01*
X90705465Y-44156651D01*
X90893966Y-44099470D01*
X90893967Y-44099470D01*
X90893970Y-44099469D01*
X91040876Y-44085000D01*
X91839124Y-44085000D01*
X91986030Y-44099469D01*
X91986030Y-44099469D01*
G37*
G36*
X84366030Y-44099469D02*
X84366033Y-44099470D01*
X84366034Y-44099470D01*
X84554535Y-44156651D01*
X84554537Y-44156652D01*
X84728260Y-44249509D01*
X84880528Y-44374472D01*
X85005491Y-44526740D01*
X85005492Y-44526742D01*
X85098349Y-44700465D01*
X85155530Y-44888966D01*
X85155531Y-44888970D01*
X85174838Y-45085000D01*
X85155531Y-45281030D01*
X85155530Y-45281033D01*
X85155530Y-45281034D01*
X85121352Y-45393705D01*
X85098348Y-45469537D01*
X85005491Y-45643260D01*
X84880528Y-45795528D01*
X84728260Y-45920491D01*
X84728258Y-45920492D01*
X84554535Y-46013349D01*
X84366034Y-46070530D01*
X84366033Y-46070530D01*
X84366030Y-46070531D01*
X84219124Y-46085000D01*
X83420876Y-46085000D01*
X83273970Y-46070531D01*
X83273967Y-46070530D01*
X83273966Y-46070530D01*
X83085465Y-46013349D01*
X82911742Y-45920492D01*
X82911740Y-45920491D01*
X82759472Y-45795528D01*
X82634509Y-45643260D01*
X82541652Y-45469537D01*
X82518649Y-45393705D01*
X82484470Y-45281034D01*
X82484470Y-45281033D01*
X82484469Y-45281030D01*
X82465162Y-45085000D01*
X82484469Y-44888970D01*
X82484470Y-44888966D01*
X82541651Y-44700465D01*
X82634508Y-44526742D01*
X82634509Y-44526740D01*
X82759472Y-44374472D01*
X82911740Y-44249509D01*
X83085463Y-44156652D01*
X83085465Y-44156651D01*
X83273966Y-44099470D01*
X83273967Y-44099470D01*
X83273970Y-44099469D01*
X83420876Y-44085000D01*
X84219124Y-44085000D01*
X84366030Y-44099469D01*
X84366030Y-44099469D01*
G37*
G36*
X48138393Y-42412553D02*
X48247872Y-42434330D01*
X48557252Y-42562479D01*
X48835687Y-42748523D01*
X49072477Y-42985313D01*
X49258521Y-43263748D01*
X49386670Y-43573128D01*
X49386670Y-43573129D01*
X49452000Y-43901563D01*
X49452000Y-44236437D01*
X49425035Y-44372000D01*
X49386670Y-44564872D01*
X49258521Y-44874252D01*
X49072477Y-45152687D01*
X48835687Y-45389477D01*
X48557252Y-45575521D01*
X48247872Y-45703670D01*
X48138393Y-45725447D01*
X47919437Y-45769000D01*
X47584563Y-45769000D01*
X47365607Y-45725447D01*
X47256128Y-45703670D01*
X46946748Y-45575521D01*
X46668313Y-45389477D01*
X46431523Y-45152687D01*
X46245479Y-44874252D01*
X46117330Y-44564872D01*
X46078965Y-44372000D01*
X46052000Y-44236437D01*
X46052000Y-43901563D01*
X46117330Y-43573129D01*
X46117330Y-43573128D01*
X46245479Y-43263748D01*
X46431523Y-42985313D01*
X46668313Y-42748523D01*
X46946748Y-42562479D01*
X47256128Y-42434330D01*
X47365607Y-42412553D01*
X47584563Y-42369000D01*
X47919437Y-42369000D01*
X48138393Y-42412553D01*
X48138393Y-42412553D01*
G37*
G36*
X54532000Y-45769000D02*
X51132000Y-45769000D01*
X51132000Y-42369000D01*
X54532000Y-42369000D01*
X54532000Y-45769000D01*
X54532000Y-45769000D01*
G37*
G36*
X139070393Y-41015553D02*
X139179872Y-41037330D01*
X139489252Y-41165479D01*
X139767687Y-41351523D01*
X140004477Y-41588313D01*
X140190521Y-41866748D01*
X140266573Y-42050355D01*
X140318670Y-42176129D01*
X140384000Y-42504563D01*
X140384000Y-42839437D01*
X140366078Y-42929535D01*
X140318670Y-43167872D01*
X140190521Y-43477252D01*
X140004477Y-43755687D01*
X139767687Y-43992477D01*
X139489252Y-44178521D01*
X139179872Y-44306670D01*
X139070393Y-44328447D01*
X138851437Y-44372000D01*
X138516563Y-44372000D01*
X138297607Y-44328447D01*
X138188128Y-44306670D01*
X137878748Y-44178521D01*
X137600313Y-43992477D01*
X137363523Y-43755687D01*
X137177479Y-43477252D01*
X137049330Y-43167872D01*
X137001922Y-42929535D01*
X136984000Y-42839437D01*
X136984000Y-42504563D01*
X137049330Y-42176129D01*
X137101427Y-42050355D01*
X137177479Y-41866748D01*
X137363523Y-41588313D01*
X137600313Y-41351523D01*
X137878748Y-41165479D01*
X138188128Y-41037330D01*
X138297607Y-41015553D01*
X138516563Y-40972000D01*
X138851437Y-40972000D01*
X139070393Y-41015553D01*
X139070393Y-41015553D01*
G37*
G36*
X100534253Y-41518078D02*
X100635646Y-41538246D01*
X100714769Y-41571020D01*
X100826665Y-41617369D01*
X100998583Y-41732241D01*
X101144779Y-41878437D01*
X101259651Y-42050355D01*
X101338774Y-42241375D01*
X101379110Y-42444159D01*
X101379110Y-42650921D01*
X101359696Y-42748523D01*
X101341613Y-42839435D01*
X101338774Y-42853705D01*
X101259651Y-43044725D01*
X101144779Y-43216643D01*
X100998583Y-43362839D01*
X100826665Y-43477711D01*
X100714769Y-43524060D01*
X100635646Y-43556834D01*
X100553729Y-43573128D01*
X100432861Y-43597170D01*
X100226099Y-43597170D01*
X100105231Y-43573128D01*
X100023314Y-43556834D01*
X99944191Y-43524060D01*
X99832295Y-43477711D01*
X99660377Y-43362839D01*
X99514181Y-43216643D01*
X99399309Y-43044725D01*
X99320186Y-42853705D01*
X99317348Y-42839435D01*
X99299264Y-42748523D01*
X99279850Y-42650921D01*
X99279850Y-42444159D01*
X99320186Y-42241375D01*
X99399309Y-42050355D01*
X99514181Y-41878437D01*
X99660377Y-41732241D01*
X99832295Y-41617369D01*
X99944191Y-41571020D01*
X100023314Y-41538246D01*
X100124707Y-41518078D01*
X100226099Y-41497910D01*
X100432861Y-41497910D01*
X100534253Y-41518078D01*
X100534253Y-41518078D01*
G37*
G36*
X110694253Y-41518078D02*
X110795646Y-41538246D01*
X110874769Y-41571020D01*
X110986665Y-41617369D01*
X111158583Y-41732241D01*
X111304779Y-41878437D01*
X111419651Y-42050355D01*
X111498774Y-42241375D01*
X111539110Y-42444159D01*
X111539110Y-42650921D01*
X111519696Y-42748523D01*
X111501613Y-42839435D01*
X111498774Y-42853705D01*
X111419651Y-43044725D01*
X111304779Y-43216643D01*
X111158583Y-43362839D01*
X110986665Y-43477711D01*
X110874769Y-43524060D01*
X110795646Y-43556834D01*
X110713729Y-43573128D01*
X110592861Y-43597170D01*
X110386099Y-43597170D01*
X110265231Y-43573128D01*
X110183314Y-43556834D01*
X110104191Y-43524060D01*
X109992295Y-43477711D01*
X109820377Y-43362839D01*
X109674181Y-43216643D01*
X109559309Y-43044725D01*
X109480186Y-42853705D01*
X109477348Y-42839435D01*
X109459264Y-42748523D01*
X109439850Y-42650921D01*
X109439850Y-42444159D01*
X109480186Y-42241375D01*
X109559309Y-42050355D01*
X109674181Y-41878437D01*
X109820377Y-41732241D01*
X109992295Y-41617369D01*
X110104191Y-41571020D01*
X110183314Y-41538246D01*
X110284707Y-41518078D01*
X110386099Y-41497910D01*
X110592861Y-41497910D01*
X110694253Y-41518078D01*
X110694253Y-41518078D01*
G37*
G36*
X91986030Y-41559469D02*
X91986033Y-41559470D01*
X91986034Y-41559470D01*
X92174535Y-41616651D01*
X92174537Y-41616652D01*
X92348260Y-41709509D01*
X92500528Y-41834472D01*
X92625491Y-41986740D01*
X92625492Y-41986742D01*
X92718349Y-42160465D01*
X92775530Y-42348966D01*
X92775531Y-42348970D01*
X92794838Y-42545000D01*
X92775531Y-42741030D01*
X92775530Y-42741033D01*
X92775530Y-42741034D01*
X92741352Y-42853705D01*
X92718348Y-42929537D01*
X92625491Y-43103260D01*
X92500528Y-43255528D01*
X92348260Y-43380491D01*
X92348258Y-43380492D01*
X92174535Y-43473349D01*
X91986034Y-43530530D01*
X91986033Y-43530530D01*
X91986030Y-43530531D01*
X91839124Y-43545000D01*
X91040876Y-43545000D01*
X90893970Y-43530531D01*
X90893967Y-43530530D01*
X90893966Y-43530530D01*
X90705465Y-43473349D01*
X90531742Y-43380492D01*
X90531740Y-43380491D01*
X90379472Y-43255528D01*
X90254509Y-43103260D01*
X90161652Y-42929537D01*
X90138649Y-42853705D01*
X90104470Y-42741034D01*
X90104470Y-42741033D01*
X90104469Y-42741030D01*
X90085162Y-42545000D01*
X90104469Y-42348970D01*
X90104470Y-42348966D01*
X90161651Y-42160465D01*
X90254508Y-41986742D01*
X90254509Y-41986740D01*
X90379472Y-41834472D01*
X90531740Y-41709509D01*
X90705463Y-41616652D01*
X90705465Y-41616651D01*
X90893966Y-41559470D01*
X90893967Y-41559470D01*
X90893970Y-41559469D01*
X91040876Y-41545000D01*
X91839124Y-41545000D01*
X91986030Y-41559469D01*
X91986030Y-41559469D01*
G37*
G36*
X84366030Y-41559469D02*
X84366033Y-41559470D01*
X84366034Y-41559470D01*
X84554535Y-41616651D01*
X84554537Y-41616652D01*
X84728260Y-41709509D01*
X84880528Y-41834472D01*
X85005491Y-41986740D01*
X85005492Y-41986742D01*
X85098349Y-42160465D01*
X85155530Y-42348966D01*
X85155531Y-42348970D01*
X85174838Y-42545000D01*
X85155531Y-42741030D01*
X85155530Y-42741033D01*
X85155530Y-42741034D01*
X85121352Y-42853705D01*
X85098348Y-42929537D01*
X85005491Y-43103260D01*
X84880528Y-43255528D01*
X84728260Y-43380491D01*
X84728258Y-43380492D01*
X84554535Y-43473349D01*
X84366034Y-43530530D01*
X84366033Y-43530530D01*
X84366030Y-43530531D01*
X84219124Y-43545000D01*
X83420876Y-43545000D01*
X83273970Y-43530531D01*
X83273967Y-43530530D01*
X83273966Y-43530530D01*
X83085465Y-43473349D01*
X82911742Y-43380492D01*
X82911740Y-43380491D01*
X82759472Y-43255528D01*
X82634509Y-43103260D01*
X82541652Y-42929537D01*
X82518649Y-42853705D01*
X82484470Y-42741034D01*
X82484470Y-42741033D01*
X82484469Y-42741030D01*
X82465162Y-42545000D01*
X82484469Y-42348970D01*
X82484470Y-42348966D01*
X82541651Y-42160465D01*
X82634508Y-41986742D01*
X82634509Y-41986740D01*
X82759472Y-41834472D01*
X82911740Y-41709509D01*
X83085463Y-41616652D01*
X83085465Y-41616651D01*
X83273966Y-41559470D01*
X83273967Y-41559470D01*
X83273970Y-41559469D01*
X83420876Y-41545000D01*
X84219124Y-41545000D01*
X84366030Y-41559469D01*
X84366030Y-41559469D01*
G37*
M02*
