G04 #@! TF.GenerationSoftware,KiCad,Pcbnew,5.0.1-33cea8e~68~ubuntu18.04.1*
G04 #@! TF.CreationDate,2018-11-29T09:03:48+01:00*
G04 #@! TF.ProjectId,8Dimmers,3844696D6D6572732E6B696361645F70,rev?*
G04 #@! TF.SameCoordinates,Original*
G04 #@! TF.FileFunction,Copper,L2,Bot,Signal*
G04 #@! TF.FilePolarity,Positive*
%FSLAX46Y46*%
G04 Gerber Fmt 4.6, Leading zero omitted, Abs format (unit mm)*
G04 Created by KiCad (PCBNEW 5.0.1-33cea8e~68~ubuntu18.04.1) date jeu. 29 nov. 2018 09:03:48 CET*
%MOMM*%
%LPD*%
G01*
G04 APERTURE LIST*
G04 #@! TA.AperFunction,ComponentPad*
%ADD10O,2.300000X1.600000*%
G04 #@! TD*
G04 #@! TA.AperFunction,ComponentPad*
%ADD11O,2.032000X2.540000*%
G04 #@! TD*
G04 #@! TA.AperFunction,ComponentPad*
%ADD12C,3.000000*%
G04 #@! TD*
G04 #@! TA.AperFunction,ComponentPad*
%ADD13C,1.699260*%
G04 #@! TD*
G04 #@! TA.AperFunction,ComponentPad*
%ADD14R,3.000000X3.000000*%
G04 #@! TD*
G04 #@! TA.AperFunction,ComponentPad*
%ADD15R,1.700000X1.700000*%
G04 #@! TD*
G04 #@! TA.AperFunction,ComponentPad*
%ADD16O,1.700000X1.700000*%
G04 #@! TD*
G04 #@! TA.AperFunction,ViaPad*
%ADD17C,0.600000*%
G04 #@! TD*
G04 #@! TA.AperFunction,Conductor*
%ADD18C,0.250000*%
G04 #@! TD*
G04 #@! TA.AperFunction,Conductor*
%ADD19C,2.000000*%
G04 #@! TD*
G04 #@! TA.AperFunction,Conductor*
%ADD20C,0.500000*%
G04 #@! TD*
G04 APERTURE END LIST*
D10*
G04 #@! TO.P,U1,1*
G04 #@! TO.N,Net-(R1-Pad2)*
X91440000Y-45085000D03*
G04 #@! TO.P,U1,2*
G04 #@! TO.N,Net-(R18-Pad2)*
X91440000Y-42545000D03*
G04 #@! TO.P,U1,3*
G04 #@! TO.N,GND*
X83820000Y-42545000D03*
G04 #@! TO.P,U1,4*
G04 #@! TO.N,/ZCD*
X83820000Y-45085000D03*
G04 #@! TD*
G04 #@! TO.P,U6,1*
G04 #@! TO.N,Net-(D1-Pad1)*
X83820000Y-52070000D03*
G04 #@! TO.P,U6,2*
G04 #@! TO.N,/C0*
X83820000Y-54610000D03*
G04 #@! TO.P,U6,3*
G04 #@! TO.N,N/C*
X83820000Y-57150000D03*
G04 #@! TO.P,U6,4*
G04 #@! TO.N,Net-(U14-Pad3)*
X91440000Y-57150000D03*
G04 #@! TO.P,U6,5*
G04 #@! TO.N,N/C*
X91440000Y-54610000D03*
G04 #@! TO.P,U6,6*
G04 #@! TO.N,Net-(R10-Pad1)*
X91440000Y-52070000D03*
G04 #@! TD*
G04 #@! TO.P,U7,1*
G04 #@! TO.N,Net-(D2-Pad1)*
X83820000Y-63500000D03*
G04 #@! TO.P,U7,2*
G04 #@! TO.N,/C1*
X83820000Y-66040000D03*
G04 #@! TO.P,U7,3*
G04 #@! TO.N,N/C*
X83820000Y-68580000D03*
G04 #@! TO.P,U7,4*
G04 #@! TO.N,Net-(U15-Pad3)*
X91440000Y-68580000D03*
G04 #@! TO.P,U7,5*
G04 #@! TO.N,N/C*
X91440000Y-66040000D03*
G04 #@! TO.P,U7,6*
G04 #@! TO.N,Net-(R11-Pad1)*
X91440000Y-63500000D03*
G04 #@! TD*
G04 #@! TO.P,U8,1*
G04 #@! TO.N,Net-(D3-Pad1)*
X83820000Y-74930000D03*
G04 #@! TO.P,U8,2*
G04 #@! TO.N,/C2*
X83820000Y-77470000D03*
G04 #@! TO.P,U8,3*
G04 #@! TO.N,N/C*
X83820000Y-80010000D03*
G04 #@! TO.P,U8,4*
G04 #@! TO.N,Net-(U16-Pad3)*
X91440000Y-80010000D03*
G04 #@! TO.P,U8,5*
G04 #@! TO.N,N/C*
X91440000Y-77470000D03*
G04 #@! TO.P,U8,6*
G04 #@! TO.N,Net-(R12-Pad1)*
X91440000Y-74930000D03*
G04 #@! TD*
G04 #@! TO.P,U9,1*
G04 #@! TO.N,Net-(D4-Pad1)*
X83820000Y-86360000D03*
G04 #@! TO.P,U9,2*
G04 #@! TO.N,/C3*
X83820000Y-88900000D03*
G04 #@! TO.P,U9,3*
G04 #@! TO.N,N/C*
X83820000Y-91440000D03*
G04 #@! TO.P,U9,4*
G04 #@! TO.N,Net-(U17-Pad3)*
X91440000Y-91440000D03*
G04 #@! TO.P,U9,5*
G04 #@! TO.N,N/C*
X91440000Y-88900000D03*
G04 #@! TO.P,U9,6*
G04 #@! TO.N,Net-(R13-Pad1)*
X91440000Y-86360000D03*
G04 #@! TD*
G04 #@! TO.P,U10,1*
G04 #@! TO.N,Net-(D5-Pad1)*
X83820000Y-97790000D03*
G04 #@! TO.P,U10,2*
G04 #@! TO.N,/C4*
X83820000Y-100330000D03*
G04 #@! TO.P,U10,3*
G04 #@! TO.N,N/C*
X83820000Y-102870000D03*
G04 #@! TO.P,U10,4*
G04 #@! TO.N,Net-(U10-Pad4)*
X91440000Y-102870000D03*
G04 #@! TO.P,U10,5*
G04 #@! TO.N,N/C*
X91440000Y-100330000D03*
G04 #@! TO.P,U10,6*
G04 #@! TO.N,Net-(R14-Pad1)*
X91440000Y-97790000D03*
G04 #@! TD*
G04 #@! TO.P,U11,1*
G04 #@! TO.N,Net-(D6-Pad1)*
X83820000Y-109220000D03*
G04 #@! TO.P,U11,2*
G04 #@! TO.N,/C5*
X83820000Y-111760000D03*
G04 #@! TO.P,U11,3*
G04 #@! TO.N,N/C*
X83820000Y-114300000D03*
G04 #@! TO.P,U11,4*
G04 #@! TO.N,Net-(U11-Pad4)*
X91440000Y-114300000D03*
G04 #@! TO.P,U11,5*
G04 #@! TO.N,N/C*
X91440000Y-111760000D03*
G04 #@! TO.P,U11,6*
G04 #@! TO.N,Net-(R15-Pad1)*
X91440000Y-109220000D03*
G04 #@! TD*
G04 #@! TO.P,U12,1*
G04 #@! TO.N,Net-(D7-Pad1)*
X83820000Y-120650000D03*
G04 #@! TO.P,U12,2*
G04 #@! TO.N,/C6*
X83820000Y-123190000D03*
G04 #@! TO.P,U12,3*
G04 #@! TO.N,N/C*
X83820000Y-125730000D03*
G04 #@! TO.P,U12,4*
G04 #@! TO.N,Net-(U12-Pad4)*
X91440000Y-125730000D03*
G04 #@! TO.P,U12,5*
G04 #@! TO.N,N/C*
X91440000Y-123190000D03*
G04 #@! TO.P,U12,6*
G04 #@! TO.N,Net-(R16-Pad1)*
X91440000Y-120650000D03*
G04 #@! TD*
G04 #@! TO.P,U13,1*
G04 #@! TO.N,Net-(D8-Pad1)*
X83820000Y-132080000D03*
G04 #@! TO.P,U13,2*
G04 #@! TO.N,/C7*
X83820000Y-134620000D03*
G04 #@! TO.P,U13,3*
G04 #@! TO.N,N/C*
X83820000Y-137160000D03*
G04 #@! TO.P,U13,4*
G04 #@! TO.N,Net-(U13-Pad4)*
X91440000Y-137160000D03*
G04 #@! TO.P,U13,5*
G04 #@! TO.N,N/C*
X91440000Y-134620000D03*
G04 #@! TO.P,U13,6*
G04 #@! TO.N,Net-(R17-Pad1)*
X91440000Y-132080000D03*
G04 #@! TD*
D11*
G04 #@! TO.P,U14,2*
G04 #@! TO.N,Net-(F1-Pad1)*
X99695000Y-57150000D03*
G04 #@! TO.P,U14,3*
G04 #@! TO.N,Net-(U14-Pad3)*
X97155000Y-57150000D03*
G04 #@! TO.P,U14,1*
G04 #@! TO.N,/PH_0*
X102235000Y-57150000D03*
G04 #@! TD*
G04 #@! TO.P,U15,2*
G04 #@! TO.N,Net-(F2-Pad1)*
X99695000Y-68580000D03*
G04 #@! TO.P,U15,3*
G04 #@! TO.N,Net-(U15-Pad3)*
X97155000Y-68580000D03*
G04 #@! TO.P,U15,1*
G04 #@! TO.N,/PH_1*
X102235000Y-68580000D03*
G04 #@! TD*
G04 #@! TO.P,U16,2*
G04 #@! TO.N,Net-(F3-Pad1)*
X99695000Y-80010000D03*
G04 #@! TO.P,U16,3*
G04 #@! TO.N,Net-(U16-Pad3)*
X97155000Y-80010000D03*
G04 #@! TO.P,U16,1*
G04 #@! TO.N,/PH_2*
X102235000Y-80010000D03*
G04 #@! TD*
G04 #@! TO.P,U17,2*
G04 #@! TO.N,Net-(F4-Pad1)*
X99695000Y-91440000D03*
G04 #@! TO.P,U17,3*
G04 #@! TO.N,Net-(U17-Pad3)*
X97155000Y-91440000D03*
G04 #@! TO.P,U17,1*
G04 #@! TO.N,/PH_3*
X102235000Y-91440000D03*
G04 #@! TD*
G04 #@! TO.P,U18,2*
G04 #@! TO.N,Net-(F5-Pad1)*
X99695000Y-102870000D03*
G04 #@! TO.P,U18,3*
G04 #@! TO.N,Net-(U10-Pad4)*
X97155000Y-102870000D03*
G04 #@! TO.P,U18,1*
G04 #@! TO.N,/PH_4*
X102235000Y-102870000D03*
G04 #@! TD*
G04 #@! TO.P,U19,2*
G04 #@! TO.N,Net-(F6-Pad1)*
X99695000Y-114300000D03*
G04 #@! TO.P,U19,3*
G04 #@! TO.N,Net-(U11-Pad4)*
X97155000Y-114300000D03*
G04 #@! TO.P,U19,1*
G04 #@! TO.N,/PH_5*
X102235000Y-114300000D03*
G04 #@! TD*
G04 #@! TO.P,U20,2*
G04 #@! TO.N,Net-(F7-Pad1)*
X99695000Y-125730000D03*
G04 #@! TO.P,U20,3*
G04 #@! TO.N,Net-(U12-Pad4)*
X97155000Y-125730000D03*
G04 #@! TO.P,U20,1*
G04 #@! TO.N,/PH_6*
X102235000Y-125730000D03*
G04 #@! TD*
G04 #@! TO.P,U21,2*
G04 #@! TO.N,Net-(F8-Pad1)*
X99695000Y-137160000D03*
G04 #@! TO.P,U21,3*
G04 #@! TO.N,Net-(U13-Pad4)*
X97155000Y-137160000D03*
G04 #@! TO.P,U21,1*
G04 #@! TO.N,/PH_7*
X102235000Y-137160000D03*
G04 #@! TD*
D12*
G04 #@! TO.P,F1,1*
G04 #@! TO.N,Net-(F1-Pad1)*
X109220000Y-52070000D03*
G04 #@! TO.P,F1,2*
G04 #@! TO.N,/PH_IN*
X131720000Y-52070000D03*
G04 #@! TD*
G04 #@! TO.P,F2,1*
G04 #@! TO.N,Net-(F2-Pad1)*
X109220000Y-63500000D03*
G04 #@! TO.P,F2,2*
G04 #@! TO.N,/PH_IN*
X131720000Y-63500000D03*
G04 #@! TD*
G04 #@! TO.P,F3,1*
G04 #@! TO.N,Net-(F3-Pad1)*
X109220000Y-74930000D03*
G04 #@! TO.P,F3,2*
G04 #@! TO.N,/PH_IN*
X131720000Y-74930000D03*
G04 #@! TD*
G04 #@! TO.P,F4,1*
G04 #@! TO.N,Net-(F4-Pad1)*
X109220000Y-86360000D03*
G04 #@! TO.P,F4,2*
G04 #@! TO.N,/PH_IN*
X131720000Y-86360000D03*
G04 #@! TD*
G04 #@! TO.P,F5,1*
G04 #@! TO.N,Net-(F5-Pad1)*
X109220000Y-97790000D03*
G04 #@! TO.P,F5,2*
G04 #@! TO.N,/PH_IN*
X131720000Y-97790000D03*
G04 #@! TD*
G04 #@! TO.P,F6,1*
G04 #@! TO.N,Net-(F6-Pad1)*
X109220000Y-109220000D03*
G04 #@! TO.P,F6,2*
G04 #@! TO.N,/PH_IN*
X131720000Y-109220000D03*
G04 #@! TD*
G04 #@! TO.P,F7,1*
G04 #@! TO.N,Net-(F7-Pad1)*
X109220000Y-120650000D03*
G04 #@! TO.P,F7,2*
G04 #@! TO.N,/PH_IN*
X131720000Y-120650000D03*
G04 #@! TD*
G04 #@! TO.P,F8,1*
G04 #@! TO.N,Net-(F8-Pad1)*
X109220000Y-132080000D03*
G04 #@! TO.P,F8,2*
G04 #@! TO.N,/PH_IN*
X131720000Y-132080000D03*
G04 #@! TD*
D13*
G04 #@! TO.P,R1,2*
G04 #@! TO.N,Net-(R1-Pad2)*
X95249480Y-45087540D03*
G04 #@! TO.P,R1,1*
G04 #@! TO.N,/PH_IN*
X105409480Y-45087540D03*
G04 #@! TD*
G04 #@! TO.P,R10,2*
G04 #@! TO.N,Net-(F1-Pad1)*
X105410520Y-52067460D03*
G04 #@! TO.P,R10,1*
G04 #@! TO.N,Net-(R10-Pad1)*
X95250520Y-52067460D03*
G04 #@! TD*
G04 #@! TO.P,R11,2*
G04 #@! TO.N,Net-(F2-Pad1)*
X106045520Y-63497460D03*
G04 #@! TO.P,R11,1*
G04 #@! TO.N,Net-(R11-Pad1)*
X95885520Y-63497460D03*
G04 #@! TD*
G04 #@! TO.P,R12,2*
G04 #@! TO.N,Net-(F3-Pad1)*
X105410520Y-74927460D03*
G04 #@! TO.P,R12,1*
G04 #@! TO.N,Net-(R12-Pad1)*
X95250520Y-74927460D03*
G04 #@! TD*
G04 #@! TO.P,R13,2*
G04 #@! TO.N,Net-(F4-Pad1)*
X106045520Y-86357460D03*
G04 #@! TO.P,R13,1*
G04 #@! TO.N,Net-(R13-Pad1)*
X95885520Y-86357460D03*
G04 #@! TD*
G04 #@! TO.P,R14,2*
G04 #@! TO.N,Net-(F5-Pad1)*
X106045520Y-97787460D03*
G04 #@! TO.P,R14,1*
G04 #@! TO.N,Net-(R14-Pad1)*
X95885520Y-97787460D03*
G04 #@! TD*
G04 #@! TO.P,R15,2*
G04 #@! TO.N,Net-(F6-Pad1)*
X106045520Y-109217460D03*
G04 #@! TO.P,R15,1*
G04 #@! TO.N,Net-(R15-Pad1)*
X95885520Y-109217460D03*
G04 #@! TD*
G04 #@! TO.P,R16,2*
G04 #@! TO.N,Net-(F7-Pad1)*
X106045520Y-120647460D03*
G04 #@! TO.P,R16,1*
G04 #@! TO.N,Net-(R16-Pad1)*
X95885520Y-120647460D03*
G04 #@! TD*
G04 #@! TO.P,R17,2*
G04 #@! TO.N,Net-(F8-Pad1)*
X105410520Y-132077460D03*
G04 #@! TO.P,R17,1*
G04 #@! TO.N,Net-(R17-Pad1)*
X95250520Y-132077460D03*
G04 #@! TD*
G04 #@! TO.P,R18,2*
G04 #@! TO.N,Net-(R18-Pad2)*
X100329480Y-42547540D03*
G04 #@! TO.P,R18,1*
G04 #@! TO.N,/N*
X110489480Y-42547540D03*
G04 #@! TD*
D14*
G04 #@! TO.P,P11,1*
G04 #@! TO.N,GND*
X52832000Y-44069000D03*
D12*
G04 #@! TO.P,P11,2*
G04 #@! TO.N,/5V*
X47752000Y-44069000D03*
G04 #@! TD*
D15*
G04 #@! TO.P,J1,1*
G04 #@! TO.N,/3V3*
X70358000Y-55626000D03*
D16*
G04 #@! TO.P,J1,2*
G04 #@! TO.N,/TXD*
X67818000Y-55626000D03*
G04 #@! TO.P,J1,3*
G04 #@! TO.N,/RXD*
X65278000Y-55626000D03*
G04 #@! TO.P,J1,4*
G04 #@! TO.N,GND*
X62738000Y-55626000D03*
G04 #@! TD*
D12*
G04 #@! TO.P,P2,2*
G04 #@! TO.N,/N*
X138684000Y-42672000D03*
D14*
G04 #@! TO.P,P2,1*
G04 #@! TO.N,/PH_IN*
X138684000Y-47752000D03*
G04 #@! TD*
D12*
G04 #@! TO.P,P3,2*
G04 #@! TO.N,/N*
X138684000Y-53086000D03*
D14*
G04 #@! TO.P,P3,1*
G04 #@! TO.N,/PH_0*
X138684000Y-58166000D03*
G04 #@! TD*
G04 #@! TO.P,P4,1*
G04 #@! TO.N,/PH_1*
X138684000Y-68580000D03*
D12*
G04 #@! TO.P,P4,2*
G04 #@! TO.N,/N*
X138684000Y-63500000D03*
G04 #@! TD*
D14*
G04 #@! TO.P,P5,1*
G04 #@! TO.N,/PH_2*
X138684000Y-80010000D03*
D12*
G04 #@! TO.P,P5,2*
G04 #@! TO.N,/N*
X138684000Y-74930000D03*
G04 #@! TD*
G04 #@! TO.P,P6,2*
G04 #@! TO.N,/N*
X138684000Y-86360000D03*
D14*
G04 #@! TO.P,P6,1*
G04 #@! TO.N,/PH_3*
X138684000Y-91440000D03*
G04 #@! TD*
G04 #@! TO.P,P7,1*
G04 #@! TO.N,/PH_4*
X138684000Y-102870000D03*
D12*
G04 #@! TO.P,P7,2*
G04 #@! TO.N,/N*
X138684000Y-97790000D03*
G04 #@! TD*
D14*
G04 #@! TO.P,P8,1*
G04 #@! TO.N,/PH_5*
X138684000Y-114300000D03*
D12*
G04 #@! TO.P,P8,2*
G04 #@! TO.N,/N*
X138684000Y-109220000D03*
G04 #@! TD*
D14*
G04 #@! TO.P,P9,1*
G04 #@! TO.N,/PH_6*
X138684000Y-125730000D03*
D12*
G04 #@! TO.P,P9,2*
G04 #@! TO.N,/N*
X138684000Y-120650000D03*
G04 #@! TD*
G04 #@! TO.P,P10,2*
G04 #@! TO.N,/N*
X138684000Y-131953000D03*
D14*
G04 #@! TO.P,P10,1*
G04 #@! TO.N,/PH_7*
X138684000Y-137033000D03*
G04 #@! TD*
D17*
G04 #@! TO.N,/ZCD*
X60579000Y-78105000D03*
G04 #@! TO.N,/3V3*
X70358000Y-45720000D03*
X47244000Y-57658000D03*
X59055000Y-97790000D03*
X50927000Y-91567000D03*
G04 #@! TO.N,/SER*
X57785000Y-77851000D03*
X63246000Y-99568000D03*
G04 #@! TO.N,/SRCLK*
X54737000Y-76835000D03*
X58928000Y-103505000D03*
G04 #@! TO.N,/RCLK*
X59563000Y-102235000D03*
X56134010Y-80772000D03*
G04 #@! TO.N,/GPIO0*
X62357000Y-88392000D03*
X64643000Y-76962000D03*
G04 #@! TD*
D18*
G04 #@! TO.N,GND*
X83470000Y-42545000D02*
X83820000Y-42545000D01*
X72644000Y-44069000D02*
X74168000Y-42545000D01*
X74168000Y-42545000D02*
X83470000Y-42545000D01*
X52832000Y-44069000D02*
X72644000Y-44069000D01*
D19*
G04 #@! TO.N,Net-(F1-Pad1)*
X105411000Y-52067500D02*
X105410500Y-52067500D01*
X105413000Y-52070000D02*
X105411000Y-52067500D01*
X109220000Y-52070000D02*
X105413000Y-52070000D01*
X99695000Y-54610000D02*
X99695000Y-57150000D01*
X102238000Y-52067500D02*
X99695000Y-54610000D01*
X105410500Y-52067500D02*
X102238000Y-52067500D01*
G04 #@! TO.N,Net-(F2-Pad1)*
X106046000Y-63497500D02*
X106045500Y-63497500D01*
X106048000Y-63500000D02*
X106046000Y-63497500D01*
X109220000Y-63500000D02*
X106048000Y-63500000D01*
X99695000Y-66040000D02*
X99695000Y-68580000D01*
X102238000Y-63497500D02*
X99695000Y-66040000D01*
X106045500Y-63497500D02*
X102238000Y-63497500D01*
G04 #@! TO.N,Net-(F3-Pad1)*
X105411000Y-74927500D02*
X105410500Y-74927500D01*
X105413000Y-74930000D02*
X105411000Y-74927500D01*
X109220000Y-74930000D02*
X105413000Y-74930000D01*
X99695000Y-77470000D02*
X99695000Y-80010000D01*
X102238000Y-74927500D02*
X99695000Y-77470000D01*
X105410500Y-74927500D02*
X102238000Y-74927500D01*
G04 #@! TO.N,Net-(F4-Pad1)*
X106046000Y-86357500D02*
X106045500Y-86357500D01*
X106048000Y-86360000D02*
X106046000Y-86357500D01*
X109220000Y-86360000D02*
X106048000Y-86360000D01*
X99695000Y-88900000D02*
X99695000Y-91440000D01*
X102238000Y-86357500D02*
X99695000Y-88900000D01*
X106045500Y-86357500D02*
X102238000Y-86357500D01*
G04 #@! TO.N,Net-(F5-Pad1)*
X106046000Y-97787500D02*
X106045500Y-97787500D01*
X106048000Y-97790000D02*
X106046000Y-97787500D01*
X109220000Y-97790000D02*
X106048000Y-97790000D01*
X99695000Y-100330000D02*
X99695000Y-102870000D01*
X102238000Y-97787500D02*
X99695000Y-100330000D01*
X106045500Y-97787500D02*
X102238000Y-97787500D01*
G04 #@! TO.N,Net-(F6-Pad1)*
X106046000Y-109217000D02*
X106045000Y-109217000D01*
X106048000Y-109220000D02*
X106046000Y-109217000D01*
X109220000Y-109220000D02*
X106048000Y-109220000D01*
X99695000Y-111760000D02*
X99695000Y-114300000D01*
X102238000Y-109217000D02*
X99695000Y-111760000D01*
X106045000Y-109217000D02*
X102238000Y-109217000D01*
D18*
X106045000Y-109217000D02*
X106045500Y-109217500D01*
X106045500Y-109217500D02*
X106046000Y-109218000D01*
D19*
G04 #@! TO.N,Net-(F7-Pad1)*
X106046000Y-120647000D02*
X106045000Y-120647000D01*
X106048000Y-120650000D02*
X106046000Y-120647000D01*
X109220000Y-120650000D02*
X106048000Y-120650000D01*
X99695000Y-122555000D02*
X99695000Y-125730000D01*
X101603000Y-120647000D02*
X99695000Y-122555000D01*
X106045000Y-120647000D02*
X101603000Y-120647000D01*
D18*
X106045000Y-120647000D02*
X106045500Y-120647500D01*
X106045500Y-120647500D02*
X106046000Y-120648000D01*
D19*
G04 #@! TO.N,Net-(F8-Pad1)*
X99695000Y-134620000D02*
X99695000Y-137160000D01*
X102238000Y-132077000D02*
X99695000Y-134620000D01*
X105410000Y-132077000D02*
X102238000Y-132077000D01*
D18*
X105410000Y-132077000D02*
X105410000Y-132078000D01*
X105410500Y-132077000D02*
X105410500Y-132077500D01*
D19*
X105411000Y-132077000D02*
X105410500Y-132077000D01*
X105413000Y-132080000D02*
X105411000Y-132077000D01*
X109220000Y-132080000D02*
X105413000Y-132080000D01*
X105410500Y-132077000D02*
X105410000Y-132077000D01*
D20*
G04 #@! TO.N,/N*
X110492000Y-42545000D02*
X110489000Y-42547300D01*
X138430000Y-42545000D02*
X110492000Y-42545000D01*
X110489000Y-42547300D02*
X110489000Y-42547500D01*
D18*
X110489500Y-42547400D02*
X110489500Y-42547500D01*
X110490000Y-42547500D02*
X110489500Y-42547400D01*
X110489500Y-42547400D02*
X110489000Y-42547300D01*
D19*
G04 #@! TO.N,/PH_0*
X129794000Y-58166000D02*
X138049000Y-58166000D01*
X138049000Y-58166000D02*
X138430000Y-57785000D01*
X128778000Y-57150000D02*
X129794000Y-58166000D01*
X102235000Y-57150000D02*
X128778000Y-57150000D01*
G04 #@! TO.N,/PH_1*
X102235000Y-68580000D02*
X138430000Y-68580000D01*
G04 #@! TO.N,/PH_2*
X138430000Y-80010000D02*
X102235000Y-80010000D01*
G04 #@! TO.N,/PH_3*
X138430000Y-91440000D02*
X102235000Y-91440000D01*
G04 #@! TO.N,/PH_4*
X102235000Y-102870000D02*
X138430000Y-102870000D01*
G04 #@! TO.N,/PH_5*
X102235000Y-114300000D02*
X138430000Y-114300000D01*
G04 #@! TO.N,/PH_6*
X102235000Y-125730000D02*
X138430000Y-125730000D01*
G04 #@! TO.N,/PH_7*
X102235000Y-137160000D02*
X138430000Y-137160000D01*
D18*
G04 #@! TO.N,/ZCD*
X71501000Y-58454000D02*
X83820000Y-46135000D01*
X83820000Y-46135000D02*
X83820000Y-45085000D01*
X71501000Y-67183000D02*
X71501000Y-58454000D01*
X60579000Y-78105000D02*
X71501000Y-67183000D01*
G04 #@! TO.N,/3V3*
X70358000Y-54526000D02*
X70358000Y-45720000D01*
X70358000Y-54526000D02*
X70358000Y-55626000D01*
X47543999Y-57358001D02*
X47244000Y-57658000D01*
X51181000Y-53721000D02*
X47543999Y-57358001D01*
X69553000Y-53721000D02*
X51181000Y-53721000D01*
X70358000Y-54526000D02*
X69553000Y-53721000D01*
X59354999Y-98089999D02*
X59354999Y-98724999D01*
X59055000Y-97790000D02*
X59354999Y-98089999D01*
X59354999Y-98724999D02*
X59354999Y-100121999D01*
X59354999Y-100121999D02*
X60833000Y-101600000D01*
X60833000Y-101600000D02*
X60833000Y-104394000D01*
X60833000Y-104394000D02*
X55753000Y-104394000D01*
X50927000Y-99568000D02*
X50927000Y-91567000D01*
X55753000Y-104394000D02*
X50927000Y-99568000D01*
D20*
G04 #@! TO.N,Net-(R18-Pad2)*
X91442500Y-42547500D02*
X91440000Y-42545000D01*
X100329000Y-42547500D02*
X91442500Y-42547500D01*
D18*
X100329000Y-42547500D02*
X100329500Y-42547500D01*
X100329500Y-42547500D02*
X100330000Y-42547500D01*
G04 #@! TO.N,/SER*
X54864000Y-74930000D02*
X57785000Y-77851000D01*
X63246000Y-96012000D02*
X63246000Y-99568000D01*
X58166000Y-90932000D02*
X63246000Y-96012000D01*
X58166000Y-78232000D02*
X58166000Y-90932000D01*
X57785000Y-77851000D02*
X58166000Y-78232000D01*
G04 #@! TO.N,/SRCLK*
X54737000Y-76835000D02*
X54737000Y-99314000D01*
X58628001Y-103205001D02*
X58928000Y-103505000D01*
X54737000Y-99314000D02*
X58628001Y-103205001D01*
G04 #@! TO.N,/RCLK*
X59563000Y-102235000D02*
X56134010Y-98806010D01*
X56134010Y-81196264D02*
X56134010Y-80772000D01*
X56134010Y-98806010D02*
X56134010Y-81196264D01*
G04 #@! TO.N,/GPIO0*
X62357000Y-88392000D02*
X62357000Y-79121000D01*
X64516000Y-76962000D02*
X64643000Y-76962000D01*
X62357000Y-79121000D02*
X64516000Y-76962000D01*
G04 #@! TD*
M02*
