G04 #@! TF.GenerationSoftware,KiCad,Pcbnew,5.0.2-bee76a0~70~ubuntu18.04.1*
G04 #@! TF.CreationDate,2019-03-06T08:29:53+01:00*
G04 #@! TF.ProjectId,8FilPilotes,3846696c-5069-46c6-9f74-65732e6b6963,rev?*
G04 #@! TF.SameCoordinates,Original*
G04 #@! TF.FileFunction,Legend,Top*
G04 #@! TF.FilePolarity,Positive*
%FSLAX46Y46*%
G04 Gerber Fmt 4.6, Leading zero omitted, Abs format (unit mm)*
G04 Created by KiCad (PCBNEW 5.0.2-bee76a0~70~ubuntu18.04.1) date mer. 06 mars 2019 08:29:53 CET*
%MOMM*%
%LPD*%
G01*
G04 APERTURE LIST*
%ADD10C,0.120000*%
%ADD11C,0.150000*%
G04 APERTURE END LIST*
D10*
G04 #@! TO.C,C1*
X144954303Y-91527726D02*
X143750175Y-91527726D01*
X144954303Y-93347726D02*
X143750175Y-93347726D01*
G04 #@! TO.C,C2*
X149250175Y-91027726D02*
X150454303Y-91027726D01*
X149250175Y-92847726D02*
X150454303Y-92847726D01*
G04 #@! TO.C,J1*
X183067000Y-84769000D02*
X183067000Y-82109000D01*
X175387000Y-84769000D02*
X183067000Y-84769000D01*
X175387000Y-82109000D02*
X183067000Y-82109000D01*
X175387000Y-84769000D02*
X175387000Y-82109000D01*
X174117000Y-84769000D02*
X172787000Y-84769000D01*
X172787000Y-84769000D02*
X172787000Y-83439000D01*
G04 #@! TO.C,J2*
X157420000Y-105096000D02*
X157420000Y-110296000D01*
X162560000Y-105096000D02*
X157420000Y-105096000D01*
X165160000Y-110296000D02*
X157420000Y-110296000D01*
X162560000Y-105096000D02*
X162560000Y-107696000D01*
X162560000Y-107696000D02*
X165160000Y-107696000D01*
X165160000Y-107696000D02*
X165160000Y-110296000D01*
X163830000Y-105096000D02*
X165160000Y-105096000D01*
X165160000Y-105096000D02*
X165160000Y-106426000D01*
G04 #@! TO.C,P1*
X154940000Y-110490000D02*
X144780000Y-110490000D01*
X154940000Y-111760000D02*
X154940000Y-104140000D01*
X154940000Y-104140000D02*
X144780000Y-104140000D01*
X144780000Y-104140000D02*
X144780000Y-111760000D01*
X144780000Y-111760000D02*
X154940000Y-111760000D01*
G04 #@! TO.C,R17*
X149790000Y-88196078D02*
X149790000Y-87678922D01*
X151210000Y-88196078D02*
X151210000Y-87678922D01*
G04 #@! TO.C,R18*
X175081000Y-96222078D02*
X175081000Y-95704922D01*
X173661000Y-96222078D02*
X173661000Y-95704922D01*
G04 #@! TO.C,RESET*
X141850000Y-86650000D02*
X141400000Y-86650000D01*
X141400000Y-80350000D02*
X141850000Y-80350000D01*
X141400000Y-86650000D02*
X141400000Y-80350000D01*
X143150000Y-80350000D02*
X145850000Y-80350000D01*
X145850000Y-86650000D02*
X143150000Y-86650000D01*
X147600000Y-80350000D02*
X147200000Y-80350000D01*
X147600000Y-86650000D02*
X147600000Y-80350000D01*
X147150000Y-86650000D02*
X147600000Y-86650000D01*
G04 #@! TO.C,FLASH*
X181847000Y-95225000D02*
X182297000Y-95225000D01*
X182297000Y-95225000D02*
X182297000Y-88925000D01*
X182297000Y-88925000D02*
X181897000Y-88925000D01*
X180547000Y-95225000D02*
X177847000Y-95225000D01*
X177847000Y-88925000D02*
X180547000Y-88925000D01*
X176097000Y-95225000D02*
X176097000Y-88925000D01*
X176097000Y-88925000D02*
X176547000Y-88925000D01*
X176547000Y-95225000D02*
X176097000Y-95225000D01*
G04 #@! TO.C,U1*
X144929739Y-100697726D02*
X146189739Y-100697726D01*
X151749739Y-100697726D02*
X150489739Y-100697726D01*
X144929739Y-96937726D02*
X144929739Y-100697726D01*
X151749739Y-94687726D02*
X151749739Y-100697726D01*
G04 #@! TO.C,U2*
X154380000Y-78380000D02*
X170620000Y-78380000D01*
X170620000Y-78380000D02*
X170620000Y-86000000D01*
X170620000Y-102000000D02*
X170620000Y-102620000D01*
X170620000Y-102620000D02*
X168500000Y-102620000D01*
X156500000Y-102620000D02*
X154380000Y-102620000D01*
X154380000Y-102620000D02*
X154380000Y-102000000D01*
X154380000Y-86000000D02*
X154380000Y-78380000D01*
X154380000Y-86000000D02*
X153770000Y-86000000D01*
G04 #@! TO.C,R1*
X175081000Y-99611922D02*
X175081000Y-100129078D01*
X173661000Y-99611922D02*
X173661000Y-100129078D01*
G04 #@! TO.C,C1*
D11*
X144185572Y-94614868D02*
X144137953Y-94662487D01*
X143995096Y-94710106D01*
X143899858Y-94710106D01*
X143757000Y-94662487D01*
X143661762Y-94567249D01*
X143614143Y-94472011D01*
X143566524Y-94281535D01*
X143566524Y-94138678D01*
X143614143Y-93948202D01*
X143661762Y-93852964D01*
X143757000Y-93757726D01*
X143899858Y-93710106D01*
X143995096Y-93710106D01*
X144137953Y-93757726D01*
X144185572Y-93805345D01*
X145137953Y-94710106D02*
X144566524Y-94710106D01*
X144852239Y-94710106D02*
X144852239Y-93710106D01*
X144757000Y-93852964D01*
X144661762Y-93948202D01*
X144566524Y-93995821D01*
G04 #@! TO.C,C2*
X149685572Y-90474868D02*
X149637953Y-90522487D01*
X149495096Y-90570106D01*
X149399858Y-90570106D01*
X149257000Y-90522487D01*
X149161762Y-90427249D01*
X149114143Y-90332011D01*
X149066524Y-90141535D01*
X149066524Y-89998678D01*
X149114143Y-89808202D01*
X149161762Y-89712964D01*
X149257000Y-89617726D01*
X149399858Y-89570106D01*
X149495096Y-89570106D01*
X149637953Y-89617726D01*
X149685572Y-89665345D01*
X150066524Y-89665345D02*
X150114143Y-89617726D01*
X150209381Y-89570106D01*
X150447477Y-89570106D01*
X150542715Y-89617726D01*
X150590334Y-89665345D01*
X150637953Y-89760583D01*
X150637953Y-89855821D01*
X150590334Y-89998678D01*
X150018905Y-90570106D01*
X150637953Y-90570106D01*
G04 #@! TO.C,J1*
X171239380Y-83772333D02*
X171953666Y-83772333D01*
X172096523Y-83819952D01*
X172191761Y-83915190D01*
X172239380Y-84058047D01*
X172239380Y-84153285D01*
X172239380Y-82772333D02*
X172239380Y-83343761D01*
X172239380Y-83058047D02*
X171239380Y-83058047D01*
X171382238Y-83153285D01*
X171477476Y-83248523D01*
X171525095Y-83343761D01*
G04 #@! TO.C,J2*
X165612380Y-108029333D02*
X166326666Y-108029333D01*
X166469523Y-108076952D01*
X166564761Y-108172190D01*
X166612380Y-108315047D01*
X166612380Y-108410285D01*
X165707619Y-107600761D02*
X165660000Y-107553142D01*
X165612380Y-107457904D01*
X165612380Y-107219809D01*
X165660000Y-107124571D01*
X165707619Y-107076952D01*
X165802857Y-107029333D01*
X165898095Y-107029333D01*
X166040952Y-107076952D01*
X166612380Y-107648380D01*
X166612380Y-107029333D01*
G04 #@! TO.C,P1*
X149121904Y-103322380D02*
X149121904Y-102322380D01*
X149502857Y-102322380D01*
X149598095Y-102370000D01*
X149645714Y-102417619D01*
X149693333Y-102512857D01*
X149693333Y-102655714D01*
X149645714Y-102750952D01*
X149598095Y-102798571D01*
X149502857Y-102846190D01*
X149121904Y-102846190D01*
X150645714Y-103322380D02*
X150074285Y-103322380D01*
X150360000Y-103322380D02*
X150360000Y-102322380D01*
X150264761Y-102465238D01*
X150169523Y-102560476D01*
X150074285Y-102608095D01*
G04 #@! TO.C,R17*
X149302380Y-88580357D02*
X148826190Y-88913690D01*
X149302380Y-89151785D02*
X148302380Y-89151785D01*
X148302380Y-88770833D01*
X148350000Y-88675595D01*
X148397619Y-88627976D01*
X148492857Y-88580357D01*
X148635714Y-88580357D01*
X148730952Y-88627976D01*
X148778571Y-88675595D01*
X148826190Y-88770833D01*
X148826190Y-89151785D01*
X149302380Y-87627976D02*
X149302380Y-88199404D01*
X149302380Y-87913690D02*
X148302380Y-87913690D01*
X148445238Y-88008928D01*
X148540476Y-88104166D01*
X148588095Y-88199404D01*
X148302380Y-87294642D02*
X148302380Y-86627976D01*
X149302380Y-87056547D01*
G04 #@! TO.C,R18*
X173173380Y-96606357D02*
X172697190Y-96939690D01*
X173173380Y-97177785D02*
X172173380Y-97177785D01*
X172173380Y-96796833D01*
X172221000Y-96701595D01*
X172268619Y-96653976D01*
X172363857Y-96606357D01*
X172506714Y-96606357D01*
X172601952Y-96653976D01*
X172649571Y-96701595D01*
X172697190Y-96796833D01*
X172697190Y-97177785D01*
X173173380Y-95653976D02*
X173173380Y-96225404D01*
X173173380Y-95939690D02*
X172173380Y-95939690D01*
X172316238Y-96034928D01*
X172411476Y-96130166D01*
X172459095Y-96225404D01*
X172601952Y-95082547D02*
X172554333Y-95177785D01*
X172506714Y-95225404D01*
X172411476Y-95273023D01*
X172363857Y-95273023D01*
X172268619Y-95225404D01*
X172221000Y-95177785D01*
X172173380Y-95082547D01*
X172173380Y-94892071D01*
X172221000Y-94796833D01*
X172268619Y-94749214D01*
X172363857Y-94701595D01*
X172411476Y-94701595D01*
X172506714Y-94749214D01*
X172554333Y-94796833D01*
X172601952Y-94892071D01*
X172601952Y-95082547D01*
X172649571Y-95177785D01*
X172697190Y-95225404D01*
X172792428Y-95273023D01*
X172982904Y-95273023D01*
X173078142Y-95225404D01*
X173125761Y-95177785D01*
X173173380Y-95082547D01*
X173173380Y-94892071D01*
X173125761Y-94796833D01*
X173078142Y-94749214D01*
X172982904Y-94701595D01*
X172792428Y-94701595D01*
X172697190Y-94749214D01*
X172649571Y-94796833D01*
X172601952Y-94892071D01*
G04 #@! TO.C,RESET*
X143137119Y-78366880D02*
X142803785Y-77890690D01*
X142565690Y-78366880D02*
X142565690Y-77366880D01*
X142946642Y-77366880D01*
X143041880Y-77414500D01*
X143089500Y-77462119D01*
X143137119Y-77557357D01*
X143137119Y-77700214D01*
X143089500Y-77795452D01*
X143041880Y-77843071D01*
X142946642Y-77890690D01*
X142565690Y-77890690D01*
X143565690Y-77843071D02*
X143899023Y-77843071D01*
X144041880Y-78366880D02*
X143565690Y-78366880D01*
X143565690Y-77366880D01*
X144041880Y-77366880D01*
X144422833Y-78319261D02*
X144565690Y-78366880D01*
X144803785Y-78366880D01*
X144899023Y-78319261D01*
X144946642Y-78271642D01*
X144994261Y-78176404D01*
X144994261Y-78081166D01*
X144946642Y-77985928D01*
X144899023Y-77938309D01*
X144803785Y-77890690D01*
X144613309Y-77843071D01*
X144518071Y-77795452D01*
X144470452Y-77747833D01*
X144422833Y-77652595D01*
X144422833Y-77557357D01*
X144470452Y-77462119D01*
X144518071Y-77414500D01*
X144613309Y-77366880D01*
X144851404Y-77366880D01*
X144994261Y-77414500D01*
X145422833Y-77843071D02*
X145756166Y-77843071D01*
X145899023Y-78366880D02*
X145422833Y-78366880D01*
X145422833Y-77366880D01*
X145899023Y-77366880D01*
X146184738Y-77366880D02*
X146756166Y-77366880D01*
X146470452Y-78366880D02*
X146470452Y-77366880D01*
G04 #@! TO.C,FLASH*
X177506523Y-97718571D02*
X177173190Y-97718571D01*
X177173190Y-98242380D02*
X177173190Y-97242380D01*
X177649380Y-97242380D01*
X178506523Y-98242380D02*
X178030333Y-98242380D01*
X178030333Y-97242380D01*
X178792238Y-97956666D02*
X179268428Y-97956666D01*
X178697000Y-98242380D02*
X179030333Y-97242380D01*
X179363666Y-98242380D01*
X179649380Y-98194761D02*
X179792238Y-98242380D01*
X180030333Y-98242380D01*
X180125571Y-98194761D01*
X180173190Y-98147142D01*
X180220809Y-98051904D01*
X180220809Y-97956666D01*
X180173190Y-97861428D01*
X180125571Y-97813809D01*
X180030333Y-97766190D01*
X179839857Y-97718571D01*
X179744619Y-97670952D01*
X179697000Y-97623333D01*
X179649380Y-97528095D01*
X179649380Y-97432857D01*
X179697000Y-97337619D01*
X179744619Y-97290000D01*
X179839857Y-97242380D01*
X180077952Y-97242380D01*
X180220809Y-97290000D01*
X180649380Y-98242380D02*
X180649380Y-97242380D01*
X180649380Y-97718571D02*
X181220809Y-97718571D01*
X181220809Y-98242380D02*
X181220809Y-97242380D01*
G04 #@! TO.C,U1*
X152292119Y-99549630D02*
X153101643Y-99549630D01*
X153196881Y-99502011D01*
X153244500Y-99454392D01*
X153292119Y-99359154D01*
X153292119Y-99168678D01*
X153244500Y-99073440D01*
X153196881Y-99025821D01*
X153101643Y-98978202D01*
X152292119Y-98978202D01*
X153292119Y-97978202D02*
X153292119Y-98549630D01*
X153292119Y-98263916D02*
X152292119Y-98263916D01*
X152434977Y-98359154D01*
X152530215Y-98454392D01*
X152577834Y-98549630D01*
G04 #@! TO.C,U2*
X151178095Y-84692380D02*
X151178095Y-85501904D01*
X151225714Y-85597142D01*
X151273333Y-85644761D01*
X151368571Y-85692380D01*
X151559047Y-85692380D01*
X151654285Y-85644761D01*
X151701904Y-85597142D01*
X151749523Y-85501904D01*
X151749523Y-84692380D01*
X152178095Y-84787619D02*
X152225714Y-84740000D01*
X152320952Y-84692380D01*
X152559047Y-84692380D01*
X152654285Y-84740000D01*
X152701904Y-84787619D01*
X152749523Y-84882857D01*
X152749523Y-84978095D01*
X152701904Y-85120952D01*
X152130476Y-85692380D01*
X152749523Y-85692380D01*
G04 #@! TO.C,R1*
X176473380Y-100037166D02*
X175997190Y-100370500D01*
X176473380Y-100608595D02*
X175473380Y-100608595D01*
X175473380Y-100227642D01*
X175521000Y-100132404D01*
X175568619Y-100084785D01*
X175663857Y-100037166D01*
X175806714Y-100037166D01*
X175901952Y-100084785D01*
X175949571Y-100132404D01*
X175997190Y-100227642D01*
X175997190Y-100608595D01*
X176473380Y-99084785D02*
X176473380Y-99656214D01*
X176473380Y-99370500D02*
X175473380Y-99370500D01*
X175616238Y-99465738D01*
X175711476Y-99560976D01*
X175759095Y-99656214D01*
G04 #@! TD*
M02*
