G04 #@! TF.GenerationSoftware,KiCad,Pcbnew,5.0.2-bee76a0~70~ubuntu18.04.1*
G04 #@! TF.CreationDate,2019-03-06T08:29:53+01:00*
G04 #@! TF.ProjectId,8FilPilotes,3846696c-5069-46c6-9f74-65732e6b6963,rev?*
G04 #@! TF.SameCoordinates,Original*
G04 #@! TF.FileFunction,Soldermask,Bot*
G04 #@! TF.FilePolarity,Negative*
%FSLAX46Y46*%
G04 Gerber Fmt 4.6, Leading zero omitted, Abs format (unit mm)*
G04 Created by KiCad (PCBNEW 5.0.2-bee76a0~70~ubuntu18.04.1) date mer. 06 mars 2019 08:29:53 CET*
%MOMM*%
%LPD*%
G01*
G04 APERTURE LIST*
%ADD10C,0.100000*%
G04 APERTURE END LIST*
D10*
G36*
X161418707Y-107923596D02*
X161495836Y-107931193D01*
X161627787Y-107971220D01*
X161693763Y-107991233D01*
X161876172Y-108088733D01*
X162036054Y-108219946D01*
X162167267Y-108379828D01*
X162264767Y-108562237D01*
X162264767Y-108562238D01*
X162324807Y-108760164D01*
X162345080Y-108966000D01*
X162324807Y-109171836D01*
X162294885Y-109270477D01*
X162264767Y-109369763D01*
X162167267Y-109552172D01*
X162036054Y-109712054D01*
X161876172Y-109843267D01*
X161693763Y-109940767D01*
X161627787Y-109960780D01*
X161495836Y-110000807D01*
X161418707Y-110008404D01*
X161341580Y-110016000D01*
X161238420Y-110016000D01*
X161161293Y-110008404D01*
X161084164Y-110000807D01*
X160952213Y-109960780D01*
X160886237Y-109940767D01*
X160703828Y-109843267D01*
X160543946Y-109712054D01*
X160412733Y-109552172D01*
X160315233Y-109369763D01*
X160285115Y-109270477D01*
X160255193Y-109171836D01*
X160234920Y-108966000D01*
X160255193Y-108760164D01*
X160315233Y-108562238D01*
X160315233Y-108562237D01*
X160412733Y-108379828D01*
X160543946Y-108219946D01*
X160703828Y-108088733D01*
X160886237Y-107991233D01*
X160952213Y-107971220D01*
X161084164Y-107931193D01*
X161161293Y-107923596D01*
X161238420Y-107916000D01*
X161341580Y-107916000D01*
X161418707Y-107923596D01*
X161418707Y-107923596D01*
G37*
G36*
X158878707Y-107923596D02*
X158955836Y-107931193D01*
X159087787Y-107971220D01*
X159153763Y-107991233D01*
X159336172Y-108088733D01*
X159496054Y-108219946D01*
X159627267Y-108379828D01*
X159724767Y-108562237D01*
X159724767Y-108562238D01*
X159784807Y-108760164D01*
X159805080Y-108966000D01*
X159784807Y-109171836D01*
X159754885Y-109270477D01*
X159724767Y-109369763D01*
X159627267Y-109552172D01*
X159496054Y-109712054D01*
X159336172Y-109843267D01*
X159153763Y-109940767D01*
X159087787Y-109960780D01*
X158955836Y-110000807D01*
X158878707Y-110008404D01*
X158801580Y-110016000D01*
X158698420Y-110016000D01*
X158621293Y-110008404D01*
X158544164Y-110000807D01*
X158412213Y-109960780D01*
X158346237Y-109940767D01*
X158163828Y-109843267D01*
X158003946Y-109712054D01*
X157872733Y-109552172D01*
X157775233Y-109369763D01*
X157745115Y-109270477D01*
X157715193Y-109171836D01*
X157694920Y-108966000D01*
X157715193Y-108760164D01*
X157775233Y-108562238D01*
X157775233Y-108562237D01*
X157872733Y-108379828D01*
X158003946Y-108219946D01*
X158163828Y-108088733D01*
X158346237Y-107991233D01*
X158412213Y-107971220D01*
X158544164Y-107931193D01*
X158621293Y-107923596D01*
X158698420Y-107916000D01*
X158801580Y-107916000D01*
X158878707Y-107923596D01*
X158878707Y-107923596D01*
G37*
G36*
X163958707Y-107923596D02*
X164035836Y-107931193D01*
X164167787Y-107971220D01*
X164233763Y-107991233D01*
X164416172Y-108088733D01*
X164576054Y-108219946D01*
X164707267Y-108379828D01*
X164804767Y-108562237D01*
X164804767Y-108562238D01*
X164864807Y-108760164D01*
X164885080Y-108966000D01*
X164864807Y-109171836D01*
X164834885Y-109270477D01*
X164804767Y-109369763D01*
X164707267Y-109552172D01*
X164576054Y-109712054D01*
X164416172Y-109843267D01*
X164233763Y-109940767D01*
X164167787Y-109960780D01*
X164035836Y-110000807D01*
X163958707Y-110008404D01*
X163881580Y-110016000D01*
X163778420Y-110016000D01*
X163701293Y-110008404D01*
X163624164Y-110000807D01*
X163492213Y-109960780D01*
X163426237Y-109940767D01*
X163243828Y-109843267D01*
X163083946Y-109712054D01*
X162952733Y-109552172D01*
X162855233Y-109369763D01*
X162825115Y-109270477D01*
X162795193Y-109171836D01*
X162774920Y-108966000D01*
X162795193Y-108760164D01*
X162855233Y-108562238D01*
X162855233Y-108562237D01*
X162952733Y-108379828D01*
X163083946Y-108219946D01*
X163243828Y-108088733D01*
X163426237Y-107991233D01*
X163492213Y-107971220D01*
X163624164Y-107931193D01*
X163701293Y-107923596D01*
X163778420Y-107916000D01*
X163881580Y-107916000D01*
X163958707Y-107923596D01*
X163958707Y-107923596D01*
G37*
G36*
X152786393Y-106293553D02*
X152895872Y-106315330D01*
X153205252Y-106443479D01*
X153483687Y-106629523D01*
X153720477Y-106866313D01*
X153906521Y-107144748D01*
X154034670Y-107454128D01*
X154056447Y-107563607D01*
X154100000Y-107782563D01*
X154100000Y-108117437D01*
X154056447Y-108336393D01*
X154034670Y-108445872D01*
X153906521Y-108755252D01*
X153720477Y-109033687D01*
X153483687Y-109270477D01*
X153205252Y-109456521D01*
X152895872Y-109584670D01*
X152786393Y-109606447D01*
X152567437Y-109650000D01*
X152232563Y-109650000D01*
X152013607Y-109606447D01*
X151904128Y-109584670D01*
X151594748Y-109456521D01*
X151316313Y-109270477D01*
X151079523Y-109033687D01*
X150893479Y-108755252D01*
X150765330Y-108445872D01*
X150743553Y-108336393D01*
X150700000Y-108117437D01*
X150700000Y-107782563D01*
X150743553Y-107563607D01*
X150765330Y-107454128D01*
X150893479Y-107144748D01*
X151079523Y-106866313D01*
X151316313Y-106629523D01*
X151594748Y-106443479D01*
X151904128Y-106315330D01*
X152013607Y-106293553D01*
X152232563Y-106250000D01*
X152567437Y-106250000D01*
X152786393Y-106293553D01*
X152786393Y-106293553D01*
G37*
G36*
X149020000Y-109650000D02*
X145620000Y-109650000D01*
X145620000Y-106250000D01*
X149020000Y-106250000D01*
X149020000Y-109650000D01*
X149020000Y-109650000D01*
G37*
G36*
X164880000Y-107476000D02*
X162780000Y-107476000D01*
X162780000Y-105376000D01*
X164880000Y-105376000D01*
X164880000Y-107476000D01*
X164880000Y-107476000D01*
G37*
G36*
X158878707Y-105383596D02*
X158955836Y-105391193D01*
X159087787Y-105431220D01*
X159153763Y-105451233D01*
X159336172Y-105548733D01*
X159496054Y-105679946D01*
X159627267Y-105839828D01*
X159724767Y-106022237D01*
X159724767Y-106022238D01*
X159784807Y-106220164D01*
X159805080Y-106426000D01*
X159784807Y-106631836D01*
X159744780Y-106763787D01*
X159724767Y-106829763D01*
X159627267Y-107012172D01*
X159496054Y-107172054D01*
X159336172Y-107303267D01*
X159153763Y-107400767D01*
X159087787Y-107420780D01*
X158955836Y-107460807D01*
X158878707Y-107468403D01*
X158801580Y-107476000D01*
X158698420Y-107476000D01*
X158621293Y-107468403D01*
X158544164Y-107460807D01*
X158412213Y-107420780D01*
X158346237Y-107400767D01*
X158163828Y-107303267D01*
X158003946Y-107172054D01*
X157872733Y-107012172D01*
X157775233Y-106829763D01*
X157755220Y-106763787D01*
X157715193Y-106631836D01*
X157694920Y-106426000D01*
X157715193Y-106220164D01*
X157775233Y-106022238D01*
X157775233Y-106022237D01*
X157872733Y-105839828D01*
X158003946Y-105679946D01*
X158163828Y-105548733D01*
X158346237Y-105451233D01*
X158412213Y-105431220D01*
X158544164Y-105391193D01*
X158621293Y-105383596D01*
X158698420Y-105376000D01*
X158801580Y-105376000D01*
X158878707Y-105383596D01*
X158878707Y-105383596D01*
G37*
G36*
X161418707Y-105383596D02*
X161495836Y-105391193D01*
X161627787Y-105431220D01*
X161693763Y-105451233D01*
X161876172Y-105548733D01*
X162036054Y-105679946D01*
X162167267Y-105839828D01*
X162264767Y-106022237D01*
X162264767Y-106022238D01*
X162324807Y-106220164D01*
X162345080Y-106426000D01*
X162324807Y-106631836D01*
X162284780Y-106763787D01*
X162264767Y-106829763D01*
X162167267Y-107012172D01*
X162036054Y-107172054D01*
X161876172Y-107303267D01*
X161693763Y-107400767D01*
X161627787Y-107420780D01*
X161495836Y-107460807D01*
X161418707Y-107468403D01*
X161341580Y-107476000D01*
X161238420Y-107476000D01*
X161161293Y-107468403D01*
X161084164Y-107460807D01*
X160952213Y-107420780D01*
X160886237Y-107400767D01*
X160703828Y-107303267D01*
X160543946Y-107172054D01*
X160412733Y-107012172D01*
X160315233Y-106829763D01*
X160295220Y-106763787D01*
X160255193Y-106631836D01*
X160234920Y-106426000D01*
X160255193Y-106220164D01*
X160315233Y-106022238D01*
X160315233Y-106022237D01*
X160412733Y-105839828D01*
X160543946Y-105679946D01*
X160703828Y-105548733D01*
X160886237Y-105451233D01*
X160952213Y-105431220D01*
X161084164Y-105391193D01*
X161161293Y-105383596D01*
X161238420Y-105376000D01*
X161341580Y-105376000D01*
X161418707Y-105383596D01*
X161418707Y-105383596D01*
G37*
G36*
X181865707Y-82396596D02*
X181942836Y-82404193D01*
X182074787Y-82444220D01*
X182140763Y-82464233D01*
X182323172Y-82561733D01*
X182483054Y-82692946D01*
X182614267Y-82852828D01*
X182711767Y-83035237D01*
X182711767Y-83035238D01*
X182771807Y-83233164D01*
X182792080Y-83439000D01*
X182771807Y-83644836D01*
X182731780Y-83776787D01*
X182711767Y-83842763D01*
X182614267Y-84025172D01*
X182483054Y-84185054D01*
X182323172Y-84316267D01*
X182140763Y-84413767D01*
X182074787Y-84433780D01*
X181942836Y-84473807D01*
X181865707Y-84481403D01*
X181788580Y-84489000D01*
X181685420Y-84489000D01*
X181608293Y-84481403D01*
X181531164Y-84473807D01*
X181399213Y-84433780D01*
X181333237Y-84413767D01*
X181150828Y-84316267D01*
X180990946Y-84185054D01*
X180859733Y-84025172D01*
X180762233Y-83842763D01*
X180742220Y-83776787D01*
X180702193Y-83644836D01*
X180681920Y-83439000D01*
X180702193Y-83233164D01*
X180762233Y-83035238D01*
X180762233Y-83035237D01*
X180859733Y-82852828D01*
X180990946Y-82692946D01*
X181150828Y-82561733D01*
X181333237Y-82464233D01*
X181399213Y-82444220D01*
X181531164Y-82404193D01*
X181608293Y-82396596D01*
X181685420Y-82389000D01*
X181788580Y-82389000D01*
X181865707Y-82396596D01*
X181865707Y-82396596D01*
G37*
G36*
X179325707Y-82396596D02*
X179402836Y-82404193D01*
X179534787Y-82444220D01*
X179600763Y-82464233D01*
X179783172Y-82561733D01*
X179943054Y-82692946D01*
X180074267Y-82852828D01*
X180171767Y-83035237D01*
X180171767Y-83035238D01*
X180231807Y-83233164D01*
X180252080Y-83439000D01*
X180231807Y-83644836D01*
X180191780Y-83776787D01*
X180171767Y-83842763D01*
X180074267Y-84025172D01*
X179943054Y-84185054D01*
X179783172Y-84316267D01*
X179600763Y-84413767D01*
X179534787Y-84433780D01*
X179402836Y-84473807D01*
X179325707Y-84481403D01*
X179248580Y-84489000D01*
X179145420Y-84489000D01*
X179068293Y-84481403D01*
X178991164Y-84473807D01*
X178859213Y-84433780D01*
X178793237Y-84413767D01*
X178610828Y-84316267D01*
X178450946Y-84185054D01*
X178319733Y-84025172D01*
X178222233Y-83842763D01*
X178202220Y-83776787D01*
X178162193Y-83644836D01*
X178141920Y-83439000D01*
X178162193Y-83233164D01*
X178222233Y-83035238D01*
X178222233Y-83035237D01*
X178319733Y-82852828D01*
X178450946Y-82692946D01*
X178610828Y-82561733D01*
X178793237Y-82464233D01*
X178859213Y-82444220D01*
X178991164Y-82404193D01*
X179068293Y-82396596D01*
X179145420Y-82389000D01*
X179248580Y-82389000D01*
X179325707Y-82396596D01*
X179325707Y-82396596D01*
G37*
G36*
X176785707Y-82396596D02*
X176862836Y-82404193D01*
X176994787Y-82444220D01*
X177060763Y-82464233D01*
X177243172Y-82561733D01*
X177403054Y-82692946D01*
X177534267Y-82852828D01*
X177631767Y-83035237D01*
X177631767Y-83035238D01*
X177691807Y-83233164D01*
X177712080Y-83439000D01*
X177691807Y-83644836D01*
X177651780Y-83776787D01*
X177631767Y-83842763D01*
X177534267Y-84025172D01*
X177403054Y-84185054D01*
X177243172Y-84316267D01*
X177060763Y-84413767D01*
X176994787Y-84433780D01*
X176862836Y-84473807D01*
X176785707Y-84481403D01*
X176708580Y-84489000D01*
X176605420Y-84489000D01*
X176528293Y-84481403D01*
X176451164Y-84473807D01*
X176319213Y-84433780D01*
X176253237Y-84413767D01*
X176070828Y-84316267D01*
X175910946Y-84185054D01*
X175779733Y-84025172D01*
X175682233Y-83842763D01*
X175662220Y-83776787D01*
X175622193Y-83644836D01*
X175601920Y-83439000D01*
X175622193Y-83233164D01*
X175682233Y-83035238D01*
X175682233Y-83035237D01*
X175779733Y-82852828D01*
X175910946Y-82692946D01*
X176070828Y-82561733D01*
X176253237Y-82464233D01*
X176319213Y-82444220D01*
X176451164Y-82404193D01*
X176528293Y-82396596D01*
X176605420Y-82389000D01*
X176708580Y-82389000D01*
X176785707Y-82396596D01*
X176785707Y-82396596D01*
G37*
G36*
X175167000Y-84489000D02*
X173067000Y-84489000D01*
X173067000Y-82389000D01*
X175167000Y-82389000D01*
X175167000Y-84489000D01*
X175167000Y-84489000D01*
G37*
M02*
