M48
;DRILL file {KiCad 5.0.0-fee4fd1~66~ubuntu16.04.1} date Thu Sep 27 11:54:40 2018
;FORMAT={-:-/ absolute / metric / decimal}
FMAT,2
METRIC,TZ
T1C0.635
T2C1.000
T3C1.016
T4C1.524
%
G90
G05
M71
T1
X139.827Y-86.741
X140.589Y-68.199
X144.272Y-51.435
X150.241Y-53.848
X151.13Y-76.2
X159.004Y-70.612
X160.02Y-52.578
X160.147Y-58.928
X161.544Y-90.805
X161.671Y-53.848
X169.037Y-51.943
X169.545Y-50.292
X172.72Y-92.075
X174.117Y-93.345
X175.26Y-94.615
T2
X151.13Y-68.199
X153.67Y-68.199
X156.21Y-68.199
X158.75Y-68.199
X161.29Y-68.199
X163.83Y-68.199
X166.37Y-68.199
X168.91Y-68.199
X171.45Y-68.199
X156.972Y-76.2
X159.512Y-76.2
X162.052Y-76.2
X164.592Y-76.2
X167.132Y-76.2
X169.672Y-76.2
X172.212Y-76.2
X174.752Y-76.2
X177.292Y-76.2
T3
X161.925Y-80.01
X161.925Y-82.55
X164.465Y-80.01
X164.465Y-82.55
X167.005Y-80.01
X167.005Y-82.55
X169.545Y-80.01
X169.545Y-82.55
X172.085Y-80.01
X172.085Y-82.55
X155.575Y-62.865
X155.575Y-65.405
X158.115Y-62.865
X158.115Y-65.405
X160.655Y-62.865
X160.655Y-65.405
X163.195Y-62.865
X163.195Y-65.405
X165.735Y-62.865
X165.735Y-65.405
T4
X180.Y-53.46
X180.Y-58.54
T0
M30
