G04 #@! TF.GenerationSoftware,KiCad,Pcbnew,5.0.0-fee4fd1~66~ubuntu16.04.1*
G04 #@! TF.CreationDate,2018-09-27T11:54:36+02:00*
G04 #@! TF.ProjectId,IN16_optoToESP8266,494E31365F6F70746F546F4553503832,rev?*
G04 #@! TF.SameCoordinates,Original*
G04 #@! TF.FileFunction,Copper,L2,Bot,Signal*
G04 #@! TF.FilePolarity,Positive*
%FSLAX46Y46*%
G04 Gerber Fmt 4.6, Leading zero omitted, Abs format (unit mm)*
G04 Created by KiCad (PCBNEW 5.0.0-fee4fd1~66~ubuntu16.04.1) date Thu Sep 27 11:54:36 2018*
%MOMM*%
%LPD*%
G01*
G04 APERTURE LIST*
G04 #@! TA.AperFunction,NonConductor*
%ADD10C,0.381000*%
G04 #@! TD*
G04 #@! TA.AperFunction,ComponentPad*
%ADD11R,1.524000X1.524000*%
G04 #@! TD*
G04 #@! TA.AperFunction,ComponentPad*
%ADD12C,1.524000*%
G04 #@! TD*
G04 #@! TA.AperFunction,ComponentPad*
%ADD13R,2.540000X2.540000*%
G04 #@! TD*
G04 #@! TA.AperFunction,ComponentPad*
%ADD14C,2.540000*%
G04 #@! TD*
G04 #@! TA.AperFunction,ComponentPad*
%ADD15R,1.700000X1.700000*%
G04 #@! TD*
G04 #@! TA.AperFunction,ComponentPad*
%ADD16O,1.700000X1.700000*%
G04 #@! TD*
G04 #@! TA.AperFunction,ViaPad*
%ADD17C,0.889000*%
G04 #@! TD*
G04 #@! TA.AperFunction,Conductor*
%ADD18C,0.203200*%
G04 #@! TD*
G04 #@! TA.AperFunction,Conductor*
%ADD19C,0.500000*%
G04 #@! TD*
G04 #@! TA.AperFunction,Conductor*
%ADD20C,0.254000*%
G04 #@! TD*
G04 APERTURE END LIST*
D10*
X134000000Y-98000000D02*
X184000000Y-98000000D01*
X134000000Y-48000000D02*
X134000000Y-98000000D01*
X184000000Y-48000000D02*
X134000000Y-48000000D01*
X184000000Y-98000000D02*
X184000000Y-48000000D01*
D11*
G04 #@! TO.P,P1,1*
G04 #@! TO.N,/IN0*
X155575000Y-65405000D03*
D12*
G04 #@! TO.P,P1,2*
G04 #@! TO.N,/IN1*
X155575000Y-62865000D03*
G04 #@! TO.P,P1,3*
G04 #@! TO.N,/5VIN*
X158115000Y-65405000D03*
G04 #@! TO.P,P1,4*
G04 #@! TO.N,/IN2*
X158115000Y-62865000D03*
G04 #@! TO.P,P1,5*
G04 #@! TO.N,VSS*
X160655000Y-65405000D03*
G04 #@! TO.P,P1,6*
G04 #@! TO.N,/IN3*
X160655000Y-62865000D03*
G04 #@! TO.P,P1,7*
G04 #@! TO.N,/IN4*
X163195000Y-65405000D03*
G04 #@! TO.P,P1,8*
G04 #@! TO.N,/IN5*
X163195000Y-62865000D03*
G04 #@! TO.P,P1,9*
G04 #@! TO.N,/IN6*
X165735000Y-65405000D03*
G04 #@! TO.P,P1,10*
G04 #@! TO.N,/IN7*
X165735000Y-62865000D03*
G04 #@! TD*
D11*
G04 #@! TO.P,P0,1*
G04 #@! TO.N,/IN8*
X172085000Y-80010000D03*
D12*
G04 #@! TO.P,P0,2*
G04 #@! TO.N,/IN9*
X172085000Y-82550000D03*
G04 #@! TO.P,P0,3*
G04 #@! TO.N,/5VIN*
X169545000Y-80010000D03*
G04 #@! TO.P,P0,4*
G04 #@! TO.N,/IN10*
X169545000Y-82550000D03*
G04 #@! TO.P,P0,5*
G04 #@! TO.N,VSS*
X167005000Y-80010000D03*
G04 #@! TO.P,P0,6*
G04 #@! TO.N,/IN11*
X167005000Y-82550000D03*
G04 #@! TO.P,P0,7*
G04 #@! TO.N,/IN12*
X164465000Y-80010000D03*
G04 #@! TO.P,P0,8*
G04 #@! TO.N,/IN13*
X164465000Y-82550000D03*
G04 #@! TO.P,P0,9*
G04 #@! TO.N,/IN14*
X161925000Y-80010000D03*
G04 #@! TO.P,P0,10*
G04 #@! TO.N,/IN15*
X161925000Y-82550000D03*
G04 #@! TD*
D13*
G04 #@! TO.P,P3,1*
G04 #@! TO.N,/5VIN*
X180000000Y-58540000D03*
D14*
G04 #@! TO.P,P3,2*
G04 #@! TO.N,VSS*
X180000000Y-53460000D03*
G04 #@! TD*
D15*
G04 #@! TO.P,RN1,1*
G04 #@! TO.N,VCC*
X177292000Y-76200000D03*
D16*
G04 #@! TO.P,RN1,2*
G04 #@! TO.N,/IN8*
X174752000Y-76200000D03*
G04 #@! TO.P,RN1,3*
G04 #@! TO.N,/IN9*
X172212000Y-76200000D03*
G04 #@! TO.P,RN1,4*
G04 #@! TO.N,/IN10*
X169672000Y-76200000D03*
G04 #@! TO.P,RN1,5*
G04 #@! TO.N,/IN11*
X167132000Y-76200000D03*
G04 #@! TO.P,RN1,6*
G04 #@! TO.N,/IN12*
X164592000Y-76200000D03*
G04 #@! TO.P,RN1,7*
G04 #@! TO.N,/IN13*
X162052000Y-76200000D03*
G04 #@! TO.P,RN1,8*
G04 #@! TO.N,/IN15*
X159512000Y-76200000D03*
G04 #@! TO.P,RN1,9*
G04 #@! TO.N,/IN14*
X156972000Y-76200000D03*
G04 #@! TD*
D15*
G04 #@! TO.P,RN2,1*
G04 #@! TO.N,VCC*
X151130000Y-68199000D03*
D16*
G04 #@! TO.P,RN2,2*
G04 #@! TO.N,/IN0*
X153670000Y-68199000D03*
G04 #@! TO.P,RN2,3*
G04 #@! TO.N,/IN1*
X156210000Y-68199000D03*
G04 #@! TO.P,RN2,4*
G04 #@! TO.N,/IN2*
X158750000Y-68199000D03*
G04 #@! TO.P,RN2,5*
G04 #@! TO.N,/IN3*
X161290000Y-68199000D03*
G04 #@! TO.P,RN2,6*
G04 #@! TO.N,/IN4*
X163830000Y-68199000D03*
G04 #@! TO.P,RN2,7*
G04 #@! TO.N,/IN5*
X166370000Y-68199000D03*
G04 #@! TO.P,RN2,8*
G04 #@! TO.N,/IN6*
X168910000Y-68199000D03*
G04 #@! TO.P,RN2,9*
G04 #@! TO.N,/IN7*
X171450000Y-68199000D03*
G04 #@! TD*
D17*
G04 #@! TO.N,/MUX1*
X139827000Y-86741000D03*
X161544000Y-90805000D03*
G04 #@! TO.N,/MUX2*
X150241000Y-53848000D03*
X161671000Y-53848000D03*
G04 #@! TO.N,/MUXA*
X160020000Y-52578000D03*
X172720000Y-92075000D03*
G04 #@! TO.N,/MUXB*
X174117000Y-93345000D03*
X169037000Y-51943000D03*
G04 #@! TO.N,/MUXC*
X169545000Y-50292000D03*
X175260000Y-94615000D03*
G04 #@! TO.N,/5VIN*
X159004000Y-70612000D03*
G04 #@! TO.N,VCC*
X151130000Y-76200000D03*
X140589000Y-68199000D03*
X160147000Y-58928000D03*
G04 #@! TO.N,VSS*
X144272000Y-51435000D03*
G04 #@! TD*
D18*
G04 #@! TO.N,/IN0*
X153670000Y-68199000D02*
X153670000Y-67310000D01*
X153670000Y-67310000D02*
X155575000Y-65405000D01*
G04 #@! TO.N,/IN1*
X156210000Y-68199000D02*
X156210000Y-67691000D01*
X156210000Y-67691000D02*
X156845000Y-67056000D01*
X156845000Y-67056000D02*
X156845000Y-64135000D01*
X156845000Y-64135000D02*
X155575000Y-62865000D01*
G04 #@! TO.N,/IN10*
X169545000Y-82550000D02*
X169164000Y-82550000D01*
X169164000Y-82550000D02*
X168402000Y-81788000D01*
X168402000Y-77470000D02*
X169672000Y-76200000D01*
X168402000Y-81788000D02*
X168402000Y-77470000D01*
G04 #@! TO.N,/IN11*
X167132000Y-76200000D02*
X167132000Y-77470000D01*
X165735000Y-81280000D02*
X167005000Y-82550000D01*
X165735000Y-78867000D02*
X165735000Y-81280000D01*
X167132000Y-77470000D02*
X165735000Y-78867000D01*
G04 #@! TO.N,/IN12*
X164465000Y-80010000D02*
X164465000Y-76327000D01*
X164465000Y-76327000D02*
X164592000Y-76200000D01*
G04 #@! TO.N,/IN13*
X164465000Y-82550000D02*
X164338000Y-82550000D01*
X164338000Y-82550000D02*
X163195000Y-81407000D01*
X163195000Y-77343000D02*
X162052000Y-76200000D01*
X163195000Y-81407000D02*
X163195000Y-77343000D01*
G04 #@! TO.N,/IN15*
X161925000Y-82550000D02*
X160655000Y-82550000D01*
X159512000Y-81407000D02*
X159512000Y-76200000D01*
X160655000Y-82550000D02*
X159512000Y-81407000D01*
G04 #@! TO.N,/IN2*
X158750000Y-68199000D02*
X158750000Y-67310000D01*
X159385000Y-64135000D02*
X158115000Y-62865000D01*
X159385000Y-66675000D02*
X159385000Y-64135000D01*
X158750000Y-67310000D02*
X159385000Y-66675000D01*
G04 #@! TO.N,/IN3*
X161290000Y-68199000D02*
X161290000Y-67564000D01*
G04 #@! TO.N,/IN5*
X163195000Y-62865000D02*
X163195000Y-63500000D01*
X163195000Y-63500000D02*
X164465000Y-64770000D01*
X164465000Y-66294000D02*
X166370000Y-68199000D01*
X164465000Y-64770000D02*
X164465000Y-66294000D01*
G04 #@! TO.N,/IN7*
X171450000Y-68199000D02*
X171450000Y-67691000D01*
X171450000Y-67691000D02*
X166624000Y-62865000D01*
X166624000Y-62865000D02*
X165735000Y-62865000D01*
G04 #@! TO.N,/IN8*
X174752000Y-76200000D02*
X174752000Y-77343000D01*
X174752000Y-77343000D02*
X172085000Y-80010000D01*
G04 #@! TO.N,/IN9*
X172212000Y-76200000D02*
X172212000Y-77089000D01*
X170815000Y-81280000D02*
X172085000Y-82550000D01*
X170815000Y-78486000D02*
X170815000Y-81280000D01*
X172212000Y-77089000D02*
X170815000Y-78486000D01*
G04 #@! TO.N,/MUX1*
X157480000Y-86741000D02*
X139827000Y-86741000D01*
X161544000Y-90805000D02*
X157480000Y-86741000D01*
G04 #@! TO.N,/MUX2*
X150241000Y-53848000D02*
X161671000Y-53848000D01*
G04 #@! TO.N,/MUXA*
X160020000Y-52578000D02*
X162814000Y-52578000D01*
X171704000Y-61468000D02*
X171704000Y-63246000D01*
X162814000Y-52578000D02*
X171704000Y-61468000D01*
X179133500Y-85661500D02*
X179133500Y-71945500D01*
X172720000Y-92075000D02*
X179133500Y-85661500D01*
X171704000Y-63246000D02*
X171704000Y-64516000D01*
X171704000Y-64516000D02*
X179133500Y-71945500D01*
G04 #@! TO.N,/MUXB*
X172339000Y-57658000D02*
X172339000Y-64135000D01*
X179959000Y-87503000D02*
X174117000Y-93345000D01*
X179959000Y-71755000D02*
X179959000Y-87503000D01*
X172339000Y-64135000D02*
X179959000Y-71755000D01*
X172339000Y-57785000D02*
X172212000Y-57912000D01*
X172339000Y-55245000D02*
X172339000Y-57658000D01*
X172339000Y-57658000D02*
X172339000Y-57785000D01*
X172339000Y-55245000D02*
X172339000Y-55245000D01*
X169037000Y-51943000D02*
X172339000Y-55245000D01*
X172339000Y-55245000D02*
X172339000Y-55118000D01*
X172339000Y-55118000D02*
X172339000Y-55245000D01*
G04 #@! TO.N,/MUXC*
X173609000Y-54356000D02*
X173609000Y-55626000D01*
X169545000Y-50292000D02*
X173609000Y-54356000D01*
X180911500Y-88963500D02*
X180911500Y-71818500D01*
X175260000Y-94615000D02*
X180911500Y-88963500D01*
X173609000Y-55626000D02*
X173609000Y-64516000D01*
X173609000Y-64516000D02*
X180911500Y-71818500D01*
G04 #@! TO.N,/5VIN*
X159004000Y-70612000D02*
X158369000Y-69977000D01*
X158115000Y-65405000D02*
X158115000Y-66675000D01*
X158115000Y-66675000D02*
X157480000Y-67310000D01*
X157480000Y-67310000D02*
X157480000Y-69088000D01*
X157480000Y-69088000D02*
X158369000Y-69977000D01*
X169545000Y-78359000D02*
X169545000Y-80010000D01*
X158369000Y-69977000D02*
X161163000Y-72771000D01*
X161163000Y-72771000D02*
X168910000Y-72771000D01*
X168910000Y-72771000D02*
X170942000Y-74803000D01*
X170942000Y-74803000D02*
X170942000Y-76962000D01*
X170942000Y-76962000D02*
X169545000Y-78359000D01*
G04 #@! TO.N,VCC*
X151130000Y-76200000D02*
X151130000Y-68199000D01*
X140589000Y-68199000D02*
X151130000Y-68199000D01*
X151130000Y-65024000D02*
X151130000Y-68199000D01*
X157226000Y-58928000D02*
X151130000Y-65024000D01*
X157861000Y-58928000D02*
X157226000Y-58928000D01*
X158877000Y-58928000D02*
X157861000Y-58928000D01*
X160147000Y-58928000D02*
X158877000Y-58928000D01*
D19*
X151130000Y-68199000D02*
X151130000Y-68326000D01*
D18*
G04 #@! TO.N,VSS*
X160655000Y-65405000D02*
X160655000Y-66040000D01*
X180000000Y-53680000D02*
X180000000Y-53460000D01*
X180000000Y-53460000D02*
X180000000Y-51603000D01*
X146685000Y-49022000D02*
X144272000Y-51435000D01*
X177419000Y-49022000D02*
X146685000Y-49022000D01*
X180000000Y-51603000D02*
X177419000Y-49022000D01*
G04 #@! TD*
D20*
G04 #@! TO.N,VSS*
G36*
X183174500Y-97174500D02*
X154127000Y-97174500D01*
X154127000Y-87477600D01*
X157174891Y-87477600D01*
X160464500Y-90767210D01*
X160464500Y-91019726D01*
X160628844Y-91416488D01*
X160932512Y-91720156D01*
X161329274Y-91884500D01*
X161758726Y-91884500D01*
X162155488Y-91720156D01*
X162459156Y-91416488D01*
X162623500Y-91019726D01*
X162623500Y-90590274D01*
X162459156Y-90193512D01*
X162155488Y-89889844D01*
X161758726Y-89725500D01*
X161506210Y-89725500D01*
X158052151Y-86271442D01*
X158011058Y-86209942D01*
X157767407Y-86047139D01*
X157552544Y-86004400D01*
X157552540Y-86004400D01*
X157480000Y-85989971D01*
X157407460Y-86004400D01*
X154127000Y-86004400D01*
X154127000Y-72000000D01*
X154117333Y-71951399D01*
X154089803Y-71910197D01*
X154048601Y-71882667D01*
X154000000Y-71873000D01*
X151866600Y-71873000D01*
X151866600Y-69696440D01*
X151980000Y-69696440D01*
X152227765Y-69647157D01*
X152437809Y-69506809D01*
X152578157Y-69296765D01*
X152587184Y-69251381D01*
X152599375Y-69269625D01*
X153090582Y-69597839D01*
X153523744Y-69684000D01*
X153816256Y-69684000D01*
X154249418Y-69597839D01*
X154740625Y-69269625D01*
X154940000Y-68971239D01*
X155139375Y-69269625D01*
X155630582Y-69597839D01*
X156063744Y-69684000D01*
X156356256Y-69684000D01*
X156789418Y-69597839D01*
X156889902Y-69530698D01*
X156907849Y-69557558D01*
X156907852Y-69557561D01*
X156948943Y-69619058D01*
X157010440Y-69660149D01*
X157899441Y-70549151D01*
X157899444Y-70549153D01*
X157924500Y-70574209D01*
X157924500Y-70826726D01*
X158088844Y-71223488D01*
X158392512Y-71527156D01*
X158789274Y-71691500D01*
X159041791Y-71691500D01*
X160590851Y-73240560D01*
X160631942Y-73302058D01*
X160693439Y-73343149D01*
X160693441Y-73343151D01*
X160875593Y-73464861D01*
X161090456Y-73507600D01*
X161090459Y-73507600D01*
X161163000Y-73522029D01*
X161235540Y-73507600D01*
X168604891Y-73507600D01*
X169812290Y-74715000D01*
X169525744Y-74715000D01*
X169092582Y-74801161D01*
X168601375Y-75129375D01*
X168402000Y-75427761D01*
X168202625Y-75129375D01*
X167711418Y-74801161D01*
X167278256Y-74715000D01*
X166985744Y-74715000D01*
X166552582Y-74801161D01*
X166061375Y-75129375D01*
X165862000Y-75427761D01*
X165662625Y-75129375D01*
X165171418Y-74801161D01*
X164738256Y-74715000D01*
X164445744Y-74715000D01*
X164012582Y-74801161D01*
X163521375Y-75129375D01*
X163322000Y-75427761D01*
X163122625Y-75129375D01*
X162631418Y-74801161D01*
X162198256Y-74715000D01*
X161905744Y-74715000D01*
X161472582Y-74801161D01*
X160981375Y-75129375D01*
X160782000Y-75427761D01*
X160582625Y-75129375D01*
X160091418Y-74801161D01*
X159658256Y-74715000D01*
X159365744Y-74715000D01*
X158932582Y-74801161D01*
X158441375Y-75129375D01*
X158242000Y-75427761D01*
X158042625Y-75129375D01*
X157551418Y-74801161D01*
X157118256Y-74715000D01*
X156825744Y-74715000D01*
X156392582Y-74801161D01*
X155901375Y-75129375D01*
X155573161Y-75620582D01*
X155457908Y-76200000D01*
X155573161Y-76779418D01*
X155901375Y-77270625D01*
X156392582Y-77598839D01*
X156825744Y-77685000D01*
X157118256Y-77685000D01*
X157551418Y-77598839D01*
X158042625Y-77270625D01*
X158242000Y-76972239D01*
X158441375Y-77270625D01*
X158775401Y-77493814D01*
X158775400Y-81334460D01*
X158760971Y-81407000D01*
X158775400Y-81479540D01*
X158775400Y-81479543D01*
X158818139Y-81694406D01*
X158980942Y-81938058D01*
X159042442Y-81979151D01*
X160082850Y-83019560D01*
X160123942Y-83081058D01*
X160185439Y-83122149D01*
X160185441Y-83122151D01*
X160367593Y-83243861D01*
X160582456Y-83286600D01*
X160582459Y-83286600D01*
X160654999Y-83301029D01*
X160718733Y-83288352D01*
X160740680Y-83341337D01*
X161133663Y-83734320D01*
X161647119Y-83947000D01*
X162202881Y-83947000D01*
X162716337Y-83734320D01*
X163109320Y-83341337D01*
X163195000Y-83134487D01*
X163280680Y-83341337D01*
X163673663Y-83734320D01*
X164187119Y-83947000D01*
X164742881Y-83947000D01*
X165256337Y-83734320D01*
X165649320Y-83341337D01*
X165735000Y-83134487D01*
X165820680Y-83341337D01*
X166213663Y-83734320D01*
X166727119Y-83947000D01*
X167282881Y-83947000D01*
X167796337Y-83734320D01*
X168189320Y-83341337D01*
X168275000Y-83134487D01*
X168360680Y-83341337D01*
X168753663Y-83734320D01*
X169267119Y-83947000D01*
X169822881Y-83947000D01*
X170336337Y-83734320D01*
X170729320Y-83341337D01*
X170815000Y-83134487D01*
X170900680Y-83341337D01*
X171293663Y-83734320D01*
X171807119Y-83947000D01*
X172362881Y-83947000D01*
X172876337Y-83734320D01*
X173269320Y-83341337D01*
X173482000Y-82827881D01*
X173482000Y-82272119D01*
X173269320Y-81758663D01*
X172916310Y-81405653D01*
X173094765Y-81370157D01*
X173304809Y-81229809D01*
X173445157Y-81019765D01*
X173494440Y-80772000D01*
X173494440Y-79642269D01*
X175221560Y-77915149D01*
X175283058Y-77874058D01*
X175324149Y-77812561D01*
X175324151Y-77812559D01*
X175445861Y-77630407D01*
X175470644Y-77505811D01*
X175822625Y-77270625D01*
X175834816Y-77252381D01*
X175843843Y-77297765D01*
X175984191Y-77507809D01*
X176194235Y-77648157D01*
X176442000Y-77697440D01*
X178142000Y-77697440D01*
X178389765Y-77648157D01*
X178396901Y-77643389D01*
X178396900Y-85356390D01*
X172757791Y-90995500D01*
X172505274Y-90995500D01*
X172108512Y-91159844D01*
X171804844Y-91463512D01*
X171640500Y-91860274D01*
X171640500Y-92289726D01*
X171804844Y-92686488D01*
X172108512Y-92990156D01*
X172505274Y-93154500D01*
X172934726Y-93154500D01*
X173046672Y-93108130D01*
X173037500Y-93130274D01*
X173037500Y-93559726D01*
X173201844Y-93956488D01*
X173505512Y-94260156D01*
X173902274Y-94424500D01*
X174180500Y-94424500D01*
X174180500Y-94829726D01*
X174344844Y-95226488D01*
X174648512Y-95530156D01*
X175045274Y-95694500D01*
X175474726Y-95694500D01*
X175871488Y-95530156D01*
X176175156Y-95226488D01*
X176339500Y-94829726D01*
X176339500Y-94577209D01*
X181381061Y-89535649D01*
X181442558Y-89494558D01*
X181483649Y-89433061D01*
X181483651Y-89433059D01*
X181605361Y-89250907D01*
X181605361Y-89250906D01*
X181648100Y-89036044D01*
X181648100Y-89036041D01*
X181662529Y-88963500D01*
X181648100Y-88890960D01*
X181648100Y-71891040D01*
X181662529Y-71818500D01*
X181648100Y-71745959D01*
X181648100Y-71745956D01*
X181605361Y-71531093D01*
X181602730Y-71527156D01*
X181483651Y-71348941D01*
X181483649Y-71348939D01*
X181442558Y-71287442D01*
X181381061Y-71246351D01*
X174345600Y-64210891D01*
X174345600Y-57270000D01*
X178082560Y-57270000D01*
X178082560Y-59810000D01*
X178131843Y-60057765D01*
X178272191Y-60267809D01*
X178482235Y-60408157D01*
X178730000Y-60457440D01*
X181270000Y-60457440D01*
X181517765Y-60408157D01*
X181727809Y-60267809D01*
X181868157Y-60057765D01*
X181917440Y-59810000D01*
X181917440Y-57270000D01*
X181868157Y-57022235D01*
X181727809Y-56812191D01*
X181517765Y-56671843D01*
X181270000Y-56622560D01*
X178730000Y-56622560D01*
X178482235Y-56671843D01*
X178272191Y-56812191D01*
X178131843Y-57022235D01*
X178082560Y-57270000D01*
X174345600Y-57270000D01*
X174345600Y-54807777D01*
X178831828Y-54807777D01*
X178963520Y-55102657D01*
X179671036Y-55374261D01*
X180428632Y-55354436D01*
X181036480Y-55102657D01*
X181168172Y-54807777D01*
X180000000Y-53639605D01*
X178831828Y-54807777D01*
X174345600Y-54807777D01*
X174345600Y-54428540D01*
X174360029Y-54356000D01*
X174345600Y-54283457D01*
X174345600Y-54283456D01*
X174302861Y-54068593D01*
X174298941Y-54062726D01*
X174181151Y-53886441D01*
X174181149Y-53886439D01*
X174140058Y-53824942D01*
X174078561Y-53783851D01*
X173425746Y-53131036D01*
X178085739Y-53131036D01*
X178105564Y-53888632D01*
X178357343Y-54496480D01*
X178652223Y-54628172D01*
X179820395Y-53460000D01*
X180179605Y-53460000D01*
X181347777Y-54628172D01*
X181642657Y-54496480D01*
X181914261Y-53788964D01*
X181894436Y-53031368D01*
X181642657Y-52423520D01*
X181347777Y-52291828D01*
X180179605Y-53460000D01*
X179820395Y-53460000D01*
X178652223Y-52291828D01*
X178357343Y-52423520D01*
X178085739Y-53131036D01*
X173425746Y-53131036D01*
X172406933Y-52112223D01*
X178831828Y-52112223D01*
X180000000Y-53280395D01*
X181168172Y-52112223D01*
X181036480Y-51817343D01*
X180328964Y-51545739D01*
X179571368Y-51565564D01*
X178963520Y-51817343D01*
X178831828Y-52112223D01*
X172406933Y-52112223D01*
X170624500Y-50329791D01*
X170624500Y-50077274D01*
X170460156Y-49680512D01*
X170156488Y-49376844D01*
X169759726Y-49212500D01*
X169330274Y-49212500D01*
X168933512Y-49376844D01*
X168629844Y-49680512D01*
X168465500Y-50077274D01*
X168465500Y-50506726D01*
X168629844Y-50903488D01*
X168657930Y-50931574D01*
X168425512Y-51027844D01*
X168121844Y-51331512D01*
X167957500Y-51728274D01*
X167957500Y-52157726D01*
X168121844Y-52554488D01*
X168425512Y-52858156D01*
X168822274Y-53022500D01*
X169074791Y-53022500D01*
X171602400Y-55550110D01*
X171602401Y-57498487D01*
X171518139Y-57624594D01*
X171460971Y-57912000D01*
X171518139Y-58199406D01*
X171602400Y-58325512D01*
X171602400Y-60324690D01*
X163386151Y-52108442D01*
X163345058Y-52046942D01*
X163101407Y-51884139D01*
X162886544Y-51841400D01*
X162886540Y-51841400D01*
X162814000Y-51826971D01*
X162741460Y-51841400D01*
X160810044Y-51841400D01*
X160631488Y-51662844D01*
X160234726Y-51498500D01*
X159805274Y-51498500D01*
X159408512Y-51662844D01*
X159104844Y-51966512D01*
X158940500Y-52363274D01*
X158940500Y-52792726D01*
X159072499Y-53111400D01*
X151031044Y-53111400D01*
X150852488Y-52932844D01*
X150455726Y-52768500D01*
X150026274Y-52768500D01*
X149629512Y-52932844D01*
X149325844Y-53236512D01*
X149161500Y-53633274D01*
X149161500Y-54062726D01*
X149325844Y-54459488D01*
X149629512Y-54763156D01*
X150026274Y-54927500D01*
X150455726Y-54927500D01*
X150852488Y-54763156D01*
X151031044Y-54584600D01*
X160880956Y-54584600D01*
X161059512Y-54763156D01*
X161456274Y-54927500D01*
X161885726Y-54927500D01*
X162282488Y-54763156D01*
X162586156Y-54459488D01*
X162750500Y-54062726D01*
X162750500Y-53633274D01*
X162696007Y-53501716D01*
X170967400Y-61773110D01*
X170967401Y-63173452D01*
X170967400Y-63173457D01*
X170967401Y-64443455D01*
X170952971Y-64516000D01*
X171010139Y-64803406D01*
X171131849Y-64985558D01*
X171131852Y-64985561D01*
X171172943Y-65047058D01*
X171234440Y-65088149D01*
X178396901Y-72250611D01*
X178396901Y-74756611D01*
X178389765Y-74751843D01*
X178142000Y-74702560D01*
X176442000Y-74702560D01*
X176194235Y-74751843D01*
X175984191Y-74892191D01*
X175843843Y-75102235D01*
X175834816Y-75147619D01*
X175822625Y-75129375D01*
X175331418Y-74801161D01*
X174898256Y-74715000D01*
X174605744Y-74715000D01*
X174172582Y-74801161D01*
X173681375Y-75129375D01*
X173482000Y-75427761D01*
X173282625Y-75129375D01*
X172791418Y-74801161D01*
X172358256Y-74715000D01*
X172065744Y-74715000D01*
X171690377Y-74789665D01*
X171678600Y-74730457D01*
X171678600Y-74730456D01*
X171635861Y-74515593D01*
X171514151Y-74333441D01*
X171514149Y-74333439D01*
X171473058Y-74271942D01*
X171411561Y-74230851D01*
X169482150Y-72301441D01*
X169441058Y-72239942D01*
X169197407Y-72077139D01*
X168982544Y-72034400D01*
X168982540Y-72034400D01*
X168910000Y-72019971D01*
X168837460Y-72034400D01*
X161468110Y-72034400D01*
X160083500Y-70649791D01*
X160083500Y-70397274D01*
X159919156Y-70000512D01*
X159615488Y-69696844D01*
X159347423Y-69585808D01*
X159820625Y-69269625D01*
X160020000Y-68971239D01*
X160219375Y-69269625D01*
X160710582Y-69597839D01*
X161143744Y-69684000D01*
X161436256Y-69684000D01*
X161869418Y-69597839D01*
X162360625Y-69269625D01*
X162560000Y-68971239D01*
X162759375Y-69269625D01*
X163250582Y-69597839D01*
X163683744Y-69684000D01*
X163976256Y-69684000D01*
X164409418Y-69597839D01*
X164900625Y-69269625D01*
X165100000Y-68971239D01*
X165299375Y-69269625D01*
X165790582Y-69597839D01*
X166223744Y-69684000D01*
X166516256Y-69684000D01*
X166949418Y-69597839D01*
X167440625Y-69269625D01*
X167640000Y-68971239D01*
X167839375Y-69269625D01*
X168330582Y-69597839D01*
X168763744Y-69684000D01*
X169056256Y-69684000D01*
X169489418Y-69597839D01*
X169980625Y-69269625D01*
X170180000Y-68971239D01*
X170379375Y-69269625D01*
X170870582Y-69597839D01*
X171303744Y-69684000D01*
X171596256Y-69684000D01*
X172029418Y-69597839D01*
X172520625Y-69269625D01*
X172848839Y-68778418D01*
X172964092Y-68199000D01*
X172848839Y-67619582D01*
X172520625Y-67128375D01*
X172029418Y-66800161D01*
X171596256Y-66714000D01*
X171514710Y-66714000D01*
X167196151Y-62395442D01*
X167155058Y-62333942D01*
X166978175Y-62215752D01*
X166919320Y-62073663D01*
X166526337Y-61680680D01*
X166012881Y-61468000D01*
X165457119Y-61468000D01*
X164943663Y-61680680D01*
X164550680Y-62073663D01*
X164465000Y-62280513D01*
X164379320Y-62073663D01*
X163986337Y-61680680D01*
X163472881Y-61468000D01*
X162917119Y-61468000D01*
X162403663Y-61680680D01*
X162010680Y-62073663D01*
X161925000Y-62280513D01*
X161839320Y-62073663D01*
X161446337Y-61680680D01*
X160932881Y-61468000D01*
X160377119Y-61468000D01*
X159863663Y-61680680D01*
X159470680Y-62073663D01*
X159385000Y-62280513D01*
X159299320Y-62073663D01*
X158906337Y-61680680D01*
X158392881Y-61468000D01*
X157837119Y-61468000D01*
X157323663Y-61680680D01*
X156930680Y-62073663D01*
X156845000Y-62280513D01*
X156759320Y-62073663D01*
X156366337Y-61680680D01*
X155852881Y-61468000D01*
X155727710Y-61468000D01*
X157531110Y-59664600D01*
X159356956Y-59664600D01*
X159535512Y-59843156D01*
X159932274Y-60007500D01*
X160361726Y-60007500D01*
X160758488Y-59843156D01*
X161062156Y-59539488D01*
X161226500Y-59142726D01*
X161226500Y-58713274D01*
X161062156Y-58316512D01*
X160758488Y-58012844D01*
X160361726Y-57848500D01*
X159932274Y-57848500D01*
X159535512Y-58012844D01*
X159356956Y-58191400D01*
X157298540Y-58191400D01*
X157226000Y-58176971D01*
X157153459Y-58191400D01*
X157153456Y-58191400D01*
X156938593Y-58234139D01*
X156756441Y-58355849D01*
X156756439Y-58355851D01*
X156694942Y-58396942D01*
X156653851Y-58458439D01*
X150660442Y-64451849D01*
X150598942Y-64492942D01*
X150557849Y-64554442D01*
X150462290Y-64697456D01*
X150436139Y-64736594D01*
X150393400Y-64951457D01*
X150393400Y-64951460D01*
X150378971Y-65024000D01*
X150393400Y-65096540D01*
X150393401Y-66701560D01*
X150280000Y-66701560D01*
X150032235Y-66750843D01*
X149822191Y-66891191D01*
X149681843Y-67101235D01*
X149632560Y-67349000D01*
X149632560Y-67462400D01*
X141379044Y-67462400D01*
X141200488Y-67283844D01*
X140803726Y-67119500D01*
X140374274Y-67119500D01*
X139977512Y-67283844D01*
X139673844Y-67587512D01*
X139509500Y-67984274D01*
X139509500Y-68413726D01*
X139673844Y-68810488D01*
X139977512Y-69114156D01*
X140374274Y-69278500D01*
X140803726Y-69278500D01*
X141200488Y-69114156D01*
X141379044Y-68935600D01*
X149632560Y-68935600D01*
X149632560Y-69049000D01*
X149681843Y-69296765D01*
X149822191Y-69506809D01*
X150032235Y-69647157D01*
X150280000Y-69696440D01*
X150393401Y-69696440D01*
X150393401Y-71873000D01*
X134825500Y-71873000D01*
X134825500Y-48825500D01*
X183174501Y-48825500D01*
X183174500Y-97174500D01*
X183174500Y-97174500D01*
G37*
X183174500Y-97174500D02*
X154127000Y-97174500D01*
X154127000Y-87477600D01*
X157174891Y-87477600D01*
X160464500Y-90767210D01*
X160464500Y-91019726D01*
X160628844Y-91416488D01*
X160932512Y-91720156D01*
X161329274Y-91884500D01*
X161758726Y-91884500D01*
X162155488Y-91720156D01*
X162459156Y-91416488D01*
X162623500Y-91019726D01*
X162623500Y-90590274D01*
X162459156Y-90193512D01*
X162155488Y-89889844D01*
X161758726Y-89725500D01*
X161506210Y-89725500D01*
X158052151Y-86271442D01*
X158011058Y-86209942D01*
X157767407Y-86047139D01*
X157552544Y-86004400D01*
X157552540Y-86004400D01*
X157480000Y-85989971D01*
X157407460Y-86004400D01*
X154127000Y-86004400D01*
X154127000Y-72000000D01*
X154117333Y-71951399D01*
X154089803Y-71910197D01*
X154048601Y-71882667D01*
X154000000Y-71873000D01*
X151866600Y-71873000D01*
X151866600Y-69696440D01*
X151980000Y-69696440D01*
X152227765Y-69647157D01*
X152437809Y-69506809D01*
X152578157Y-69296765D01*
X152587184Y-69251381D01*
X152599375Y-69269625D01*
X153090582Y-69597839D01*
X153523744Y-69684000D01*
X153816256Y-69684000D01*
X154249418Y-69597839D01*
X154740625Y-69269625D01*
X154940000Y-68971239D01*
X155139375Y-69269625D01*
X155630582Y-69597839D01*
X156063744Y-69684000D01*
X156356256Y-69684000D01*
X156789418Y-69597839D01*
X156889902Y-69530698D01*
X156907849Y-69557558D01*
X156907852Y-69557561D01*
X156948943Y-69619058D01*
X157010440Y-69660149D01*
X157899441Y-70549151D01*
X157899444Y-70549153D01*
X157924500Y-70574209D01*
X157924500Y-70826726D01*
X158088844Y-71223488D01*
X158392512Y-71527156D01*
X158789274Y-71691500D01*
X159041791Y-71691500D01*
X160590851Y-73240560D01*
X160631942Y-73302058D01*
X160693439Y-73343149D01*
X160693441Y-73343151D01*
X160875593Y-73464861D01*
X161090456Y-73507600D01*
X161090459Y-73507600D01*
X161163000Y-73522029D01*
X161235540Y-73507600D01*
X168604891Y-73507600D01*
X169812290Y-74715000D01*
X169525744Y-74715000D01*
X169092582Y-74801161D01*
X168601375Y-75129375D01*
X168402000Y-75427761D01*
X168202625Y-75129375D01*
X167711418Y-74801161D01*
X167278256Y-74715000D01*
X166985744Y-74715000D01*
X166552582Y-74801161D01*
X166061375Y-75129375D01*
X165862000Y-75427761D01*
X165662625Y-75129375D01*
X165171418Y-74801161D01*
X164738256Y-74715000D01*
X164445744Y-74715000D01*
X164012582Y-74801161D01*
X163521375Y-75129375D01*
X163322000Y-75427761D01*
X163122625Y-75129375D01*
X162631418Y-74801161D01*
X162198256Y-74715000D01*
X161905744Y-74715000D01*
X161472582Y-74801161D01*
X160981375Y-75129375D01*
X160782000Y-75427761D01*
X160582625Y-75129375D01*
X160091418Y-74801161D01*
X159658256Y-74715000D01*
X159365744Y-74715000D01*
X158932582Y-74801161D01*
X158441375Y-75129375D01*
X158242000Y-75427761D01*
X158042625Y-75129375D01*
X157551418Y-74801161D01*
X157118256Y-74715000D01*
X156825744Y-74715000D01*
X156392582Y-74801161D01*
X155901375Y-75129375D01*
X155573161Y-75620582D01*
X155457908Y-76200000D01*
X155573161Y-76779418D01*
X155901375Y-77270625D01*
X156392582Y-77598839D01*
X156825744Y-77685000D01*
X157118256Y-77685000D01*
X157551418Y-77598839D01*
X158042625Y-77270625D01*
X158242000Y-76972239D01*
X158441375Y-77270625D01*
X158775401Y-77493814D01*
X158775400Y-81334460D01*
X158760971Y-81407000D01*
X158775400Y-81479540D01*
X158775400Y-81479543D01*
X158818139Y-81694406D01*
X158980942Y-81938058D01*
X159042442Y-81979151D01*
X160082850Y-83019560D01*
X160123942Y-83081058D01*
X160185439Y-83122149D01*
X160185441Y-83122151D01*
X160367593Y-83243861D01*
X160582456Y-83286600D01*
X160582459Y-83286600D01*
X160654999Y-83301029D01*
X160718733Y-83288352D01*
X160740680Y-83341337D01*
X161133663Y-83734320D01*
X161647119Y-83947000D01*
X162202881Y-83947000D01*
X162716337Y-83734320D01*
X163109320Y-83341337D01*
X163195000Y-83134487D01*
X163280680Y-83341337D01*
X163673663Y-83734320D01*
X164187119Y-83947000D01*
X164742881Y-83947000D01*
X165256337Y-83734320D01*
X165649320Y-83341337D01*
X165735000Y-83134487D01*
X165820680Y-83341337D01*
X166213663Y-83734320D01*
X166727119Y-83947000D01*
X167282881Y-83947000D01*
X167796337Y-83734320D01*
X168189320Y-83341337D01*
X168275000Y-83134487D01*
X168360680Y-83341337D01*
X168753663Y-83734320D01*
X169267119Y-83947000D01*
X169822881Y-83947000D01*
X170336337Y-83734320D01*
X170729320Y-83341337D01*
X170815000Y-83134487D01*
X170900680Y-83341337D01*
X171293663Y-83734320D01*
X171807119Y-83947000D01*
X172362881Y-83947000D01*
X172876337Y-83734320D01*
X173269320Y-83341337D01*
X173482000Y-82827881D01*
X173482000Y-82272119D01*
X173269320Y-81758663D01*
X172916310Y-81405653D01*
X173094765Y-81370157D01*
X173304809Y-81229809D01*
X173445157Y-81019765D01*
X173494440Y-80772000D01*
X173494440Y-79642269D01*
X175221560Y-77915149D01*
X175283058Y-77874058D01*
X175324149Y-77812561D01*
X175324151Y-77812559D01*
X175445861Y-77630407D01*
X175470644Y-77505811D01*
X175822625Y-77270625D01*
X175834816Y-77252381D01*
X175843843Y-77297765D01*
X175984191Y-77507809D01*
X176194235Y-77648157D01*
X176442000Y-77697440D01*
X178142000Y-77697440D01*
X178389765Y-77648157D01*
X178396901Y-77643389D01*
X178396900Y-85356390D01*
X172757791Y-90995500D01*
X172505274Y-90995500D01*
X172108512Y-91159844D01*
X171804844Y-91463512D01*
X171640500Y-91860274D01*
X171640500Y-92289726D01*
X171804844Y-92686488D01*
X172108512Y-92990156D01*
X172505274Y-93154500D01*
X172934726Y-93154500D01*
X173046672Y-93108130D01*
X173037500Y-93130274D01*
X173037500Y-93559726D01*
X173201844Y-93956488D01*
X173505512Y-94260156D01*
X173902274Y-94424500D01*
X174180500Y-94424500D01*
X174180500Y-94829726D01*
X174344844Y-95226488D01*
X174648512Y-95530156D01*
X175045274Y-95694500D01*
X175474726Y-95694500D01*
X175871488Y-95530156D01*
X176175156Y-95226488D01*
X176339500Y-94829726D01*
X176339500Y-94577209D01*
X181381061Y-89535649D01*
X181442558Y-89494558D01*
X181483649Y-89433061D01*
X181483651Y-89433059D01*
X181605361Y-89250907D01*
X181605361Y-89250906D01*
X181648100Y-89036044D01*
X181648100Y-89036041D01*
X181662529Y-88963500D01*
X181648100Y-88890960D01*
X181648100Y-71891040D01*
X181662529Y-71818500D01*
X181648100Y-71745959D01*
X181648100Y-71745956D01*
X181605361Y-71531093D01*
X181602730Y-71527156D01*
X181483651Y-71348941D01*
X181483649Y-71348939D01*
X181442558Y-71287442D01*
X181381061Y-71246351D01*
X174345600Y-64210891D01*
X174345600Y-57270000D01*
X178082560Y-57270000D01*
X178082560Y-59810000D01*
X178131843Y-60057765D01*
X178272191Y-60267809D01*
X178482235Y-60408157D01*
X178730000Y-60457440D01*
X181270000Y-60457440D01*
X181517765Y-60408157D01*
X181727809Y-60267809D01*
X181868157Y-60057765D01*
X181917440Y-59810000D01*
X181917440Y-57270000D01*
X181868157Y-57022235D01*
X181727809Y-56812191D01*
X181517765Y-56671843D01*
X181270000Y-56622560D01*
X178730000Y-56622560D01*
X178482235Y-56671843D01*
X178272191Y-56812191D01*
X178131843Y-57022235D01*
X178082560Y-57270000D01*
X174345600Y-57270000D01*
X174345600Y-54807777D01*
X178831828Y-54807777D01*
X178963520Y-55102657D01*
X179671036Y-55374261D01*
X180428632Y-55354436D01*
X181036480Y-55102657D01*
X181168172Y-54807777D01*
X180000000Y-53639605D01*
X178831828Y-54807777D01*
X174345600Y-54807777D01*
X174345600Y-54428540D01*
X174360029Y-54356000D01*
X174345600Y-54283457D01*
X174345600Y-54283456D01*
X174302861Y-54068593D01*
X174298941Y-54062726D01*
X174181151Y-53886441D01*
X174181149Y-53886439D01*
X174140058Y-53824942D01*
X174078561Y-53783851D01*
X173425746Y-53131036D01*
X178085739Y-53131036D01*
X178105564Y-53888632D01*
X178357343Y-54496480D01*
X178652223Y-54628172D01*
X179820395Y-53460000D01*
X180179605Y-53460000D01*
X181347777Y-54628172D01*
X181642657Y-54496480D01*
X181914261Y-53788964D01*
X181894436Y-53031368D01*
X181642657Y-52423520D01*
X181347777Y-52291828D01*
X180179605Y-53460000D01*
X179820395Y-53460000D01*
X178652223Y-52291828D01*
X178357343Y-52423520D01*
X178085739Y-53131036D01*
X173425746Y-53131036D01*
X172406933Y-52112223D01*
X178831828Y-52112223D01*
X180000000Y-53280395D01*
X181168172Y-52112223D01*
X181036480Y-51817343D01*
X180328964Y-51545739D01*
X179571368Y-51565564D01*
X178963520Y-51817343D01*
X178831828Y-52112223D01*
X172406933Y-52112223D01*
X170624500Y-50329791D01*
X170624500Y-50077274D01*
X170460156Y-49680512D01*
X170156488Y-49376844D01*
X169759726Y-49212500D01*
X169330274Y-49212500D01*
X168933512Y-49376844D01*
X168629844Y-49680512D01*
X168465500Y-50077274D01*
X168465500Y-50506726D01*
X168629844Y-50903488D01*
X168657930Y-50931574D01*
X168425512Y-51027844D01*
X168121844Y-51331512D01*
X167957500Y-51728274D01*
X167957500Y-52157726D01*
X168121844Y-52554488D01*
X168425512Y-52858156D01*
X168822274Y-53022500D01*
X169074791Y-53022500D01*
X171602400Y-55550110D01*
X171602401Y-57498487D01*
X171518139Y-57624594D01*
X171460971Y-57912000D01*
X171518139Y-58199406D01*
X171602400Y-58325512D01*
X171602400Y-60324690D01*
X163386151Y-52108442D01*
X163345058Y-52046942D01*
X163101407Y-51884139D01*
X162886544Y-51841400D01*
X162886540Y-51841400D01*
X162814000Y-51826971D01*
X162741460Y-51841400D01*
X160810044Y-51841400D01*
X160631488Y-51662844D01*
X160234726Y-51498500D01*
X159805274Y-51498500D01*
X159408512Y-51662844D01*
X159104844Y-51966512D01*
X158940500Y-52363274D01*
X158940500Y-52792726D01*
X159072499Y-53111400D01*
X151031044Y-53111400D01*
X150852488Y-52932844D01*
X150455726Y-52768500D01*
X150026274Y-52768500D01*
X149629512Y-52932844D01*
X149325844Y-53236512D01*
X149161500Y-53633274D01*
X149161500Y-54062726D01*
X149325844Y-54459488D01*
X149629512Y-54763156D01*
X150026274Y-54927500D01*
X150455726Y-54927500D01*
X150852488Y-54763156D01*
X151031044Y-54584600D01*
X160880956Y-54584600D01*
X161059512Y-54763156D01*
X161456274Y-54927500D01*
X161885726Y-54927500D01*
X162282488Y-54763156D01*
X162586156Y-54459488D01*
X162750500Y-54062726D01*
X162750500Y-53633274D01*
X162696007Y-53501716D01*
X170967400Y-61773110D01*
X170967401Y-63173452D01*
X170967400Y-63173457D01*
X170967401Y-64443455D01*
X170952971Y-64516000D01*
X171010139Y-64803406D01*
X171131849Y-64985558D01*
X171131852Y-64985561D01*
X171172943Y-65047058D01*
X171234440Y-65088149D01*
X178396901Y-72250611D01*
X178396901Y-74756611D01*
X178389765Y-74751843D01*
X178142000Y-74702560D01*
X176442000Y-74702560D01*
X176194235Y-74751843D01*
X175984191Y-74892191D01*
X175843843Y-75102235D01*
X175834816Y-75147619D01*
X175822625Y-75129375D01*
X175331418Y-74801161D01*
X174898256Y-74715000D01*
X174605744Y-74715000D01*
X174172582Y-74801161D01*
X173681375Y-75129375D01*
X173482000Y-75427761D01*
X173282625Y-75129375D01*
X172791418Y-74801161D01*
X172358256Y-74715000D01*
X172065744Y-74715000D01*
X171690377Y-74789665D01*
X171678600Y-74730457D01*
X171678600Y-74730456D01*
X171635861Y-74515593D01*
X171514151Y-74333441D01*
X171514149Y-74333439D01*
X171473058Y-74271942D01*
X171411561Y-74230851D01*
X169482150Y-72301441D01*
X169441058Y-72239942D01*
X169197407Y-72077139D01*
X168982544Y-72034400D01*
X168982540Y-72034400D01*
X168910000Y-72019971D01*
X168837460Y-72034400D01*
X161468110Y-72034400D01*
X160083500Y-70649791D01*
X160083500Y-70397274D01*
X159919156Y-70000512D01*
X159615488Y-69696844D01*
X159347423Y-69585808D01*
X159820625Y-69269625D01*
X160020000Y-68971239D01*
X160219375Y-69269625D01*
X160710582Y-69597839D01*
X161143744Y-69684000D01*
X161436256Y-69684000D01*
X161869418Y-69597839D01*
X162360625Y-69269625D01*
X162560000Y-68971239D01*
X162759375Y-69269625D01*
X163250582Y-69597839D01*
X163683744Y-69684000D01*
X163976256Y-69684000D01*
X164409418Y-69597839D01*
X164900625Y-69269625D01*
X165100000Y-68971239D01*
X165299375Y-69269625D01*
X165790582Y-69597839D01*
X166223744Y-69684000D01*
X166516256Y-69684000D01*
X166949418Y-69597839D01*
X167440625Y-69269625D01*
X167640000Y-68971239D01*
X167839375Y-69269625D01*
X168330582Y-69597839D01*
X168763744Y-69684000D01*
X169056256Y-69684000D01*
X169489418Y-69597839D01*
X169980625Y-69269625D01*
X170180000Y-68971239D01*
X170379375Y-69269625D01*
X170870582Y-69597839D01*
X171303744Y-69684000D01*
X171596256Y-69684000D01*
X172029418Y-69597839D01*
X172520625Y-69269625D01*
X172848839Y-68778418D01*
X172964092Y-68199000D01*
X172848839Y-67619582D01*
X172520625Y-67128375D01*
X172029418Y-66800161D01*
X171596256Y-66714000D01*
X171514710Y-66714000D01*
X167196151Y-62395442D01*
X167155058Y-62333942D01*
X166978175Y-62215752D01*
X166919320Y-62073663D01*
X166526337Y-61680680D01*
X166012881Y-61468000D01*
X165457119Y-61468000D01*
X164943663Y-61680680D01*
X164550680Y-62073663D01*
X164465000Y-62280513D01*
X164379320Y-62073663D01*
X163986337Y-61680680D01*
X163472881Y-61468000D01*
X162917119Y-61468000D01*
X162403663Y-61680680D01*
X162010680Y-62073663D01*
X161925000Y-62280513D01*
X161839320Y-62073663D01*
X161446337Y-61680680D01*
X160932881Y-61468000D01*
X160377119Y-61468000D01*
X159863663Y-61680680D01*
X159470680Y-62073663D01*
X159385000Y-62280513D01*
X159299320Y-62073663D01*
X158906337Y-61680680D01*
X158392881Y-61468000D01*
X157837119Y-61468000D01*
X157323663Y-61680680D01*
X156930680Y-62073663D01*
X156845000Y-62280513D01*
X156759320Y-62073663D01*
X156366337Y-61680680D01*
X155852881Y-61468000D01*
X155727710Y-61468000D01*
X157531110Y-59664600D01*
X159356956Y-59664600D01*
X159535512Y-59843156D01*
X159932274Y-60007500D01*
X160361726Y-60007500D01*
X160758488Y-59843156D01*
X161062156Y-59539488D01*
X161226500Y-59142726D01*
X161226500Y-58713274D01*
X161062156Y-58316512D01*
X160758488Y-58012844D01*
X160361726Y-57848500D01*
X159932274Y-57848500D01*
X159535512Y-58012844D01*
X159356956Y-58191400D01*
X157298540Y-58191400D01*
X157226000Y-58176971D01*
X157153459Y-58191400D01*
X157153456Y-58191400D01*
X156938593Y-58234139D01*
X156756441Y-58355849D01*
X156756439Y-58355851D01*
X156694942Y-58396942D01*
X156653851Y-58458439D01*
X150660442Y-64451849D01*
X150598942Y-64492942D01*
X150557849Y-64554442D01*
X150462290Y-64697456D01*
X150436139Y-64736594D01*
X150393400Y-64951457D01*
X150393400Y-64951460D01*
X150378971Y-65024000D01*
X150393400Y-65096540D01*
X150393401Y-66701560D01*
X150280000Y-66701560D01*
X150032235Y-66750843D01*
X149822191Y-66891191D01*
X149681843Y-67101235D01*
X149632560Y-67349000D01*
X149632560Y-67462400D01*
X141379044Y-67462400D01*
X141200488Y-67283844D01*
X140803726Y-67119500D01*
X140374274Y-67119500D01*
X139977512Y-67283844D01*
X139673844Y-67587512D01*
X139509500Y-67984274D01*
X139509500Y-68413726D01*
X139673844Y-68810488D01*
X139977512Y-69114156D01*
X140374274Y-69278500D01*
X140803726Y-69278500D01*
X141200488Y-69114156D01*
X141379044Y-68935600D01*
X149632560Y-68935600D01*
X149632560Y-69049000D01*
X149681843Y-69296765D01*
X149822191Y-69506809D01*
X150032235Y-69647157D01*
X150280000Y-69696440D01*
X150393401Y-69696440D01*
X150393401Y-71873000D01*
X134825500Y-71873000D01*
X134825500Y-48825500D01*
X183174501Y-48825500D01*
X183174500Y-97174500D01*
G36*
X167198748Y-79995858D02*
X167184605Y-80010000D01*
X167198748Y-80024143D01*
X167019143Y-80203748D01*
X167005000Y-80189605D01*
X166990858Y-80203748D01*
X166811253Y-80024143D01*
X166825395Y-80010000D01*
X166811253Y-79995858D01*
X166990858Y-79816253D01*
X167005000Y-79830395D01*
X167019143Y-79816253D01*
X167198748Y-79995858D01*
X167198748Y-79995858D01*
G37*
X167198748Y-79995858D02*
X167184605Y-80010000D01*
X167198748Y-80024143D01*
X167019143Y-80203748D01*
X167005000Y-80189605D01*
X166990858Y-80203748D01*
X166811253Y-80024143D01*
X166825395Y-80010000D01*
X166811253Y-79995858D01*
X166990858Y-79816253D01*
X167005000Y-79830395D01*
X167019143Y-79816253D01*
X167198748Y-79995858D01*
G36*
X162010680Y-63656337D02*
X162403663Y-64049320D01*
X162610513Y-64135000D01*
X162403663Y-64220680D01*
X162010680Y-64613663D01*
X161931572Y-64804647D01*
X161877397Y-64673857D01*
X161635213Y-64604392D01*
X160834605Y-65405000D01*
X161635213Y-66205608D01*
X161877397Y-66136143D01*
X161927535Y-65995607D01*
X162010680Y-66196337D01*
X162403663Y-66589320D01*
X162917119Y-66802000D01*
X163247830Y-66802000D01*
X162759375Y-67128375D01*
X162560000Y-67426761D01*
X162360625Y-67128375D01*
X161869418Y-66800161D01*
X161436256Y-66714000D01*
X161177065Y-66714000D01*
X161386143Y-66627397D01*
X161455608Y-66385213D01*
X160655000Y-65584605D01*
X160640858Y-65598748D01*
X160461253Y-65419143D01*
X160475395Y-65405000D01*
X160461253Y-65390858D01*
X160640858Y-65211253D01*
X160655000Y-65225395D01*
X161455608Y-64424787D01*
X161386143Y-64182603D01*
X161245607Y-64132465D01*
X161446337Y-64049320D01*
X161839320Y-63656337D01*
X161925000Y-63449487D01*
X162010680Y-63656337D01*
X162010680Y-63656337D01*
G37*
X162010680Y-63656337D02*
X162403663Y-64049320D01*
X162610513Y-64135000D01*
X162403663Y-64220680D01*
X162010680Y-64613663D01*
X161931572Y-64804647D01*
X161877397Y-64673857D01*
X161635213Y-64604392D01*
X160834605Y-65405000D01*
X161635213Y-66205608D01*
X161877397Y-66136143D01*
X161927535Y-65995607D01*
X162010680Y-66196337D01*
X162403663Y-66589320D01*
X162917119Y-66802000D01*
X163247830Y-66802000D01*
X162759375Y-67128375D01*
X162560000Y-67426761D01*
X162360625Y-67128375D01*
X161869418Y-66800161D01*
X161436256Y-66714000D01*
X161177065Y-66714000D01*
X161386143Y-66627397D01*
X161455608Y-66385213D01*
X160655000Y-65584605D01*
X160640858Y-65598748D01*
X160461253Y-65419143D01*
X160475395Y-65405000D01*
X160461253Y-65390858D01*
X160640858Y-65211253D01*
X160655000Y-65225395D01*
X161455608Y-64424787D01*
X161386143Y-64182603D01*
X161245607Y-64132465D01*
X161446337Y-64049320D01*
X161839320Y-63656337D01*
X161925000Y-63449487D01*
X162010680Y-63656337D01*
G04 #@! TD*
M02*
