M48
;DRILL file {KiCad 5.0.1-33cea8e~68~ubuntu18.04.1} date jeu. 29 nov. 2018 09:03:46 CET
;FORMAT={-:-/ absolute / inch / decimal}
FMAT,2
INCH,TZ
T1C0.0157
T2C0.0276
T3C0.0315
T4C0.0394
T5C0.0450
T6C0.0512
T7C0.0598
%
G90
G05
M72
T1
X1.86Y-2.27
X2.005Y-3.605
X2.155Y-3.025
X2.21Y-3.18
X2.275Y-3.065
X2.32Y-4.075
X2.325Y-3.85
X2.345Y-4.025
X2.385Y-3.075
X2.455Y-3.48
X2.49Y-3.92
X2.545Y-3.03
X2.77Y-1.8
T2
X3.775Y-4.2999
X4.175Y-4.2999
X3.75Y-2.9499
X4.15Y-2.9499
X3.775Y-3.8499
X4.175Y-3.8499
X3.75Y-5.1999
X4.15Y-5.1999
X3.75Y-2.0499
X4.15Y-2.0499
X3.775Y-4.7499
X4.175Y-4.7499
X3.75Y-1.7751
X4.15Y-1.7751
X3.775Y-2.4999
X4.175Y-2.4999
X3.95Y-1.6751
X4.35Y-1.6751
X3.775Y-3.3999
X4.175Y-3.3999
T3
X3.3Y-2.5
X3.3Y-2.6
X3.3Y-2.7
X3.6Y-2.5
X3.6Y-2.6
X3.6Y-2.7
X3.3Y-4.75
X3.3Y-4.85
X3.3Y-4.95
X3.6Y-4.75
X3.6Y-4.85
X3.6Y-4.95
X3.3Y-2.05
X3.3Y-2.15
X3.3Y-2.25
X3.6Y-2.05
X3.6Y-2.15
X3.6Y-2.25
X3.3Y-5.2
X3.3Y-5.3
X3.3Y-5.4
X3.6Y-5.2
X3.6Y-5.3
X3.6Y-5.4
X3.3Y-4.3
X3.3Y-4.4
X3.3Y-4.5
X3.6Y-4.3
X3.6Y-4.4
X3.6Y-4.5
X3.3Y-1.675
X3.3Y-1.775
X3.6Y-1.675
X3.6Y-1.775
X3.3Y-3.4
X3.3Y-3.5
X3.3Y-3.6
X3.6Y-3.4
X3.6Y-3.5
X3.6Y-3.6
X3.3Y-3.85
X3.3Y-3.95
X3.3Y-4.05
X3.6Y-3.85
X3.6Y-3.95
X3.6Y-4.05
X3.3Y-2.95
X3.3Y-3.05
X3.3Y-3.15
X3.6Y-2.95
X3.6Y-3.05
X3.6Y-3.15
T4
X2.47Y-2.19
X2.57Y-2.19
X2.67Y-2.19
X2.77Y-2.19
T5
X3.825Y-2.7
X3.925Y-2.7
X4.025Y-2.7
X3.825Y-4.05
X3.925Y-4.05
X4.025Y-4.05
X3.825Y-4.95
X3.925Y-4.95
X4.025Y-4.95
X3.825Y-5.4
X3.925Y-5.4
X4.025Y-5.4
X3.825Y-3.6
X3.925Y-3.6
X4.025Y-3.6
X3.825Y-2.25
X3.925Y-2.25
X4.025Y-2.25
X3.825Y-4.5
X3.925Y-4.5
X4.025Y-4.5
X3.825Y-3.15
X3.925Y-3.15
X4.025Y-3.15
T6
X4.3Y-4.75
X5.1858Y-4.75
X4.3Y-2.05
X5.1858Y-2.05
X4.3Y-3.4
X5.1858Y-3.4
X4.3Y-3.85
X5.1858Y-3.85
X4.3Y-2.95
X5.1858Y-2.95
X4.3Y-5.2
X5.1858Y-5.2
X4.3Y-2.5
X5.1858Y-2.5
X4.3Y-4.3
X5.1858Y-4.3
T7
X5.46Y-3.85
X5.46Y-4.05
X5.46Y-1.68
X5.46Y-1.88
X5.46Y-4.3
X5.46Y-4.5
X1.88Y-1.735
X2.08Y-1.735
X5.46Y-4.75
X5.46Y-4.95
X5.46Y-2.5
X5.46Y-2.7
X5.46Y-2.09
X5.46Y-2.29
X5.46Y-3.4
X5.46Y-3.6
X5.46Y-5.195
X5.46Y-5.395
X5.46Y-2.95
X5.46Y-3.15
T0
M30
