G04 #@! TF.GenerationSoftware,KiCad,Pcbnew,5.0.1-33cea8e~68~ubuntu18.04.1*
G04 #@! TF.CreationDate,2018-11-29T09:03:48+01:00*
G04 #@! TF.ProjectId,8Dimmers,3844696D6D6572732E6B696361645F70,rev?*
G04 #@! TF.SameCoordinates,Original*
G04 #@! TF.FileFunction,Legend,Top*
G04 #@! TF.FilePolarity,Positive*
%FSLAX46Y46*%
G04 Gerber Fmt 4.6, Leading zero omitted, Abs format (unit mm)*
G04 Created by KiCad (PCBNEW 5.0.1-33cea8e~68~ubuntu18.04.1) date jeu. 29 nov. 2018 09:03:48 CET*
%MOMM*%
%LPD*%
G01*
G04 APERTURE LIST*
%ADD10C,0.200000*%
%ADD11C,0.300000*%
%ADD12C,0.150000*%
%ADD13C,0.120000*%
G04 APERTURE END LIST*
D10*
X62123000Y-52984285D02*
X62051571Y-53098571D01*
X62051571Y-53270000D01*
X62123000Y-53441428D01*
X62265857Y-53555714D01*
X62408714Y-53612857D01*
X62694428Y-53670000D01*
X62908714Y-53670000D01*
X63194428Y-53612857D01*
X63337285Y-53555714D01*
X63480142Y-53441428D01*
X63551571Y-53270000D01*
X63551571Y-53155714D01*
X63480142Y-52984285D01*
X63408714Y-52927142D01*
X62908714Y-52927142D01*
X62908714Y-53155714D01*
X63551571Y-52412857D02*
X62051571Y-52412857D01*
X63551571Y-51727142D01*
X62051571Y-51727142D01*
X63551571Y-51155714D02*
X62051571Y-51155714D01*
X62051571Y-50870000D01*
X62123000Y-50698571D01*
X62265857Y-50584285D01*
X62408714Y-50527142D01*
X62694428Y-50470000D01*
X62908714Y-50470000D01*
X63194428Y-50527142D01*
X63337285Y-50584285D01*
X63480142Y-50698571D01*
X63551571Y-50870000D01*
X63551571Y-51155714D01*
X66001571Y-52870000D02*
X65287285Y-53270000D01*
X66001571Y-53555714D02*
X64501571Y-53555714D01*
X64501571Y-53098571D01*
X64573000Y-52984285D01*
X64644428Y-52927142D01*
X64787285Y-52870000D01*
X65001571Y-52870000D01*
X65144428Y-52927142D01*
X65215857Y-52984285D01*
X65287285Y-53098571D01*
X65287285Y-53555714D01*
X64501571Y-52470000D02*
X66001571Y-51670000D01*
X64501571Y-51670000D02*
X66001571Y-52470000D01*
X66001571Y-51212857D02*
X64501571Y-51212857D01*
X64501571Y-50927142D01*
X64573000Y-50755714D01*
X64715857Y-50641428D01*
X64858714Y-50584285D01*
X65144428Y-50527142D01*
X65358714Y-50527142D01*
X65644428Y-50584285D01*
X65787285Y-50641428D01*
X65930142Y-50755714D01*
X66001571Y-50927142D01*
X66001571Y-51212857D01*
X66951571Y-53584285D02*
X66951571Y-52898571D01*
X68451571Y-53241428D02*
X66951571Y-53241428D01*
X66951571Y-52612857D02*
X68451571Y-51812857D01*
X66951571Y-51812857D02*
X68451571Y-52612857D01*
X68451571Y-51355714D02*
X66951571Y-51355714D01*
X66951571Y-51070000D01*
X67023000Y-50898571D01*
X67165857Y-50784285D01*
X67308714Y-50727142D01*
X67594428Y-50670000D01*
X67808714Y-50670000D01*
X68094428Y-50727142D01*
X68237285Y-50784285D01*
X68380142Y-50898571D01*
X68451571Y-51070000D01*
X68451571Y-51355714D01*
X69401571Y-53555714D02*
X69401571Y-52812857D01*
X69973000Y-53212857D01*
X69973000Y-53041428D01*
X70044428Y-52927142D01*
X70115857Y-52870000D01*
X70258714Y-52812857D01*
X70615857Y-52812857D01*
X70758714Y-52870000D01*
X70830142Y-52927142D01*
X70901571Y-53041428D01*
X70901571Y-53384285D01*
X70830142Y-53498571D01*
X70758714Y-53555714D01*
X69401571Y-52470000D02*
X70901571Y-52070000D01*
X69401571Y-51670000D01*
X69401571Y-51384285D02*
X69401571Y-50641428D01*
X69973000Y-51041428D01*
X69973000Y-50870000D01*
X70044428Y-50755714D01*
X70115857Y-50698571D01*
X70258714Y-50641428D01*
X70615857Y-50641428D01*
X70758714Y-50698571D01*
X70830142Y-50755714D01*
X70901571Y-50870000D01*
X70901571Y-51212857D01*
X70830142Y-51327142D01*
X70758714Y-51384285D01*
D11*
X47339285Y-48327571D02*
X46625000Y-48327571D01*
X46553571Y-49041857D01*
X46625000Y-48970428D01*
X46767857Y-48899000D01*
X47125000Y-48899000D01*
X47267857Y-48970428D01*
X47339285Y-49041857D01*
X47410714Y-49184714D01*
X47410714Y-49541857D01*
X47339285Y-49684714D01*
X47267857Y-49756142D01*
X47125000Y-49827571D01*
X46767857Y-49827571D01*
X46625000Y-49756142D01*
X46553571Y-49684714D01*
X47839285Y-48327571D02*
X48339285Y-49827571D01*
X48839285Y-48327571D01*
D12*
X54006809Y-48347380D02*
X54102047Y-48347380D01*
X54197285Y-48395000D01*
X54244904Y-48442619D01*
X54292523Y-48537857D01*
X54340142Y-48728333D01*
X54340142Y-48966428D01*
X54292523Y-49156904D01*
X54244904Y-49252142D01*
X54197285Y-49299761D01*
X54102047Y-49347380D01*
X54006809Y-49347380D01*
X53911571Y-49299761D01*
X53863952Y-49252142D01*
X53816333Y-49156904D01*
X53768714Y-48966428D01*
X53768714Y-48728333D01*
X53816333Y-48537857D01*
X53863952Y-48442619D01*
X53911571Y-48395000D01*
X54006809Y-48347380D01*
X54625857Y-48347380D02*
X54959190Y-49347380D01*
X55292523Y-48347380D01*
D13*
G04 #@! TO.C,SW2*
X53482000Y-136922000D02*
X53932000Y-136922000D01*
X53932000Y-136922000D02*
X53932000Y-130622000D01*
X53932000Y-130622000D02*
X53532000Y-130622000D01*
X52182000Y-136922000D02*
X49482000Y-136922000D01*
X49482000Y-130622000D02*
X52182000Y-130622000D01*
X47732000Y-136922000D02*
X47732000Y-130622000D01*
X47732000Y-130622000D02*
X48182000Y-130622000D01*
X48182000Y-136922000D02*
X47732000Y-136922000D01*
D12*
G04 #@! TO.C,U5*
X55307000Y-111271000D02*
X55307000Y-111521000D01*
X63057000Y-111271000D02*
X63057000Y-111616000D01*
X63057000Y-123171000D02*
X63057000Y-122826000D01*
X55307000Y-123171000D02*
X55307000Y-122826000D01*
X55307000Y-111271000D02*
X63057000Y-111271000D01*
X55307000Y-123171000D02*
X63057000Y-123171000D01*
X55307000Y-111521000D02*
X53482000Y-111521000D01*
G04 #@! TO.C,U1*
X91305000Y-47380000D02*
X91305000Y-46110000D01*
X83955000Y-47380000D02*
X83955000Y-46110000D01*
X83955000Y-40250000D02*
X83955000Y-41520000D01*
X91305000Y-40250000D02*
X91305000Y-41520000D01*
X91305000Y-47380000D02*
X83955000Y-47380000D01*
X91305000Y-40250000D02*
X83955000Y-40250000D01*
X91305000Y-46110000D02*
X92590000Y-46110000D01*
G04 #@! TO.C,U6*
X83955000Y-49775000D02*
X83955000Y-51045000D01*
X91305000Y-49775000D02*
X91305000Y-51045000D01*
X91305000Y-59445000D02*
X91305000Y-58175000D01*
X83955000Y-59445000D02*
X83955000Y-58175000D01*
X83955000Y-49775000D02*
X91305000Y-49775000D01*
X83955000Y-59445000D02*
X91305000Y-59445000D01*
X83955000Y-51045000D02*
X82670000Y-51045000D01*
G04 #@! TO.C,U7*
X83955000Y-61205000D02*
X83955000Y-62475000D01*
X91305000Y-61205000D02*
X91305000Y-62475000D01*
X91305000Y-70875000D02*
X91305000Y-69605000D01*
X83955000Y-70875000D02*
X83955000Y-69605000D01*
X83955000Y-61205000D02*
X91305000Y-61205000D01*
X83955000Y-70875000D02*
X91305000Y-70875000D01*
X83955000Y-62475000D02*
X82670000Y-62475000D01*
G04 #@! TO.C,U8*
X83955000Y-72635000D02*
X83955000Y-73905000D01*
X91305000Y-72635000D02*
X91305000Y-73905000D01*
X91305000Y-82305000D02*
X91305000Y-81035000D01*
X83955000Y-82305000D02*
X83955000Y-81035000D01*
X83955000Y-72635000D02*
X91305000Y-72635000D01*
X83955000Y-82305000D02*
X91305000Y-82305000D01*
X83955000Y-73905000D02*
X82670000Y-73905000D01*
G04 #@! TO.C,U9*
X83955000Y-84065000D02*
X83955000Y-85335000D01*
X91305000Y-84065000D02*
X91305000Y-85335000D01*
X91305000Y-93735000D02*
X91305000Y-92465000D01*
X83955000Y-93735000D02*
X83955000Y-92465000D01*
X83955000Y-84065000D02*
X91305000Y-84065000D01*
X83955000Y-93735000D02*
X91305000Y-93735000D01*
X83955000Y-85335000D02*
X82670000Y-85335000D01*
G04 #@! TO.C,U10*
X83955000Y-95495000D02*
X83955000Y-96765000D01*
X91305000Y-95495000D02*
X91305000Y-96765000D01*
X91305000Y-105165000D02*
X91305000Y-103895000D01*
X83955000Y-105165000D02*
X83955000Y-103895000D01*
X83955000Y-95495000D02*
X91305000Y-95495000D01*
X83955000Y-105165000D02*
X91305000Y-105165000D01*
X83955000Y-96765000D02*
X82670000Y-96765000D01*
G04 #@! TO.C,U11*
X83955000Y-106925000D02*
X83955000Y-108195000D01*
X91305000Y-106925000D02*
X91305000Y-108195000D01*
X91305000Y-116595000D02*
X91305000Y-115325000D01*
X83955000Y-116595000D02*
X83955000Y-115325000D01*
X83955000Y-106925000D02*
X91305000Y-106925000D01*
X83955000Y-116595000D02*
X91305000Y-116595000D01*
X83955000Y-108195000D02*
X82670000Y-108195000D01*
G04 #@! TO.C,U12*
X83955000Y-118355000D02*
X83955000Y-119625000D01*
X91305000Y-118355000D02*
X91305000Y-119625000D01*
X91305000Y-128025000D02*
X91305000Y-126755000D01*
X83955000Y-128025000D02*
X83955000Y-126755000D01*
X83955000Y-118355000D02*
X91305000Y-118355000D01*
X83955000Y-128025000D02*
X91305000Y-128025000D01*
X83955000Y-119625000D02*
X82670000Y-119625000D01*
G04 #@! TO.C,U13*
X83955000Y-129785000D02*
X83955000Y-131055000D01*
X91305000Y-129785000D02*
X91305000Y-131055000D01*
X91305000Y-139455000D02*
X91305000Y-138185000D01*
X83955000Y-139455000D02*
X83955000Y-138185000D01*
X83955000Y-129785000D02*
X91305000Y-129785000D01*
X83955000Y-139455000D02*
X91305000Y-139455000D01*
X83955000Y-131055000D02*
X82670000Y-131055000D01*
G04 #@! TO.C,U14*
X94869000Y-58801000D02*
X94869000Y-55372000D01*
X104521000Y-58801000D02*
X104521000Y-55372000D01*
X94361000Y-59944000D02*
X105029000Y-59944000D01*
X97917000Y-58928000D02*
X97917000Y-60198000D01*
X101473000Y-58928000D02*
X101473000Y-60198000D01*
X105029000Y-58801000D02*
X94361000Y-58801000D01*
X94361000Y-55372000D02*
X105029000Y-55372000D01*
X105029000Y-60198000D02*
X105029000Y-55372000D01*
X94361000Y-60198000D02*
X94361000Y-55372000D01*
X94361000Y-60198000D02*
X105029000Y-60198000D01*
G04 #@! TO.C,U15*
X94869000Y-70231000D02*
X94869000Y-66802000D01*
X104521000Y-70231000D02*
X104521000Y-66802000D01*
X94361000Y-71374000D02*
X105029000Y-71374000D01*
X97917000Y-70358000D02*
X97917000Y-71628000D01*
X101473000Y-70358000D02*
X101473000Y-71628000D01*
X105029000Y-70231000D02*
X94361000Y-70231000D01*
X94361000Y-66802000D02*
X105029000Y-66802000D01*
X105029000Y-71628000D02*
X105029000Y-66802000D01*
X94361000Y-71628000D02*
X94361000Y-66802000D01*
X94361000Y-71628000D02*
X105029000Y-71628000D01*
G04 #@! TO.C,U16*
X94869000Y-81661000D02*
X94869000Y-78232000D01*
X104521000Y-81661000D02*
X104521000Y-78232000D01*
X94361000Y-82804000D02*
X105029000Y-82804000D01*
X97917000Y-81788000D02*
X97917000Y-83058000D01*
X101473000Y-81788000D02*
X101473000Y-83058000D01*
X105029000Y-81661000D02*
X94361000Y-81661000D01*
X94361000Y-78232000D02*
X105029000Y-78232000D01*
X105029000Y-83058000D02*
X105029000Y-78232000D01*
X94361000Y-83058000D02*
X94361000Y-78232000D01*
X94361000Y-83058000D02*
X105029000Y-83058000D01*
G04 #@! TO.C,U17*
X94869000Y-93091000D02*
X94869000Y-89662000D01*
X104521000Y-93091000D02*
X104521000Y-89662000D01*
X94361000Y-94234000D02*
X105029000Y-94234000D01*
X97917000Y-93218000D02*
X97917000Y-94488000D01*
X101473000Y-93218000D02*
X101473000Y-94488000D01*
X105029000Y-93091000D02*
X94361000Y-93091000D01*
X94361000Y-89662000D02*
X105029000Y-89662000D01*
X105029000Y-94488000D02*
X105029000Y-89662000D01*
X94361000Y-94488000D02*
X94361000Y-89662000D01*
X94361000Y-94488000D02*
X105029000Y-94488000D01*
G04 #@! TO.C,U18*
X94869000Y-104521000D02*
X94869000Y-101092000D01*
X104521000Y-104521000D02*
X104521000Y-101092000D01*
X94361000Y-105664000D02*
X105029000Y-105664000D01*
X97917000Y-104648000D02*
X97917000Y-105918000D01*
X101473000Y-104648000D02*
X101473000Y-105918000D01*
X105029000Y-104521000D02*
X94361000Y-104521000D01*
X94361000Y-101092000D02*
X105029000Y-101092000D01*
X105029000Y-105918000D02*
X105029000Y-101092000D01*
X94361000Y-105918000D02*
X94361000Y-101092000D01*
X94361000Y-105918000D02*
X105029000Y-105918000D01*
G04 #@! TO.C,U19*
X94869000Y-115951000D02*
X94869000Y-112522000D01*
X104521000Y-115951000D02*
X104521000Y-112522000D01*
X94361000Y-117094000D02*
X105029000Y-117094000D01*
X97917000Y-116078000D02*
X97917000Y-117348000D01*
X101473000Y-116078000D02*
X101473000Y-117348000D01*
X105029000Y-115951000D02*
X94361000Y-115951000D01*
X94361000Y-112522000D02*
X105029000Y-112522000D01*
X105029000Y-117348000D02*
X105029000Y-112522000D01*
X94361000Y-117348000D02*
X94361000Y-112522000D01*
X94361000Y-117348000D02*
X105029000Y-117348000D01*
G04 #@! TO.C,U20*
X94869000Y-127381000D02*
X94869000Y-123952000D01*
X104521000Y-127381000D02*
X104521000Y-123952000D01*
X94361000Y-128524000D02*
X105029000Y-128524000D01*
X97917000Y-127508000D02*
X97917000Y-128778000D01*
X101473000Y-127508000D02*
X101473000Y-128778000D01*
X105029000Y-127381000D02*
X94361000Y-127381000D01*
X94361000Y-123952000D02*
X105029000Y-123952000D01*
X105029000Y-128778000D02*
X105029000Y-123952000D01*
X94361000Y-128778000D02*
X94361000Y-123952000D01*
X94361000Y-128778000D02*
X105029000Y-128778000D01*
G04 #@! TO.C,U21*
X94869000Y-138811000D02*
X94869000Y-135382000D01*
X104521000Y-138811000D02*
X104521000Y-135382000D01*
X94361000Y-139954000D02*
X105029000Y-139954000D01*
X97917000Y-138938000D02*
X97917000Y-140208000D01*
X101473000Y-138938000D02*
X101473000Y-140208000D01*
X105029000Y-138811000D02*
X94361000Y-138811000D01*
X94361000Y-135382000D02*
X105029000Y-135382000D01*
X105029000Y-140208000D02*
X105029000Y-135382000D01*
X94361000Y-140208000D02*
X94361000Y-135382000D01*
X94361000Y-140208000D02*
X105029000Y-140208000D01*
G04 #@! TO.C,F1*
X131720000Y-56870000D02*
X131720000Y-54070000D01*
X131720000Y-50070000D02*
X131720000Y-47270000D01*
X109220000Y-50070000D02*
X109220000Y-47270000D01*
X109220000Y-47270000D02*
X131720000Y-47270000D01*
X109220000Y-56870000D02*
X131720000Y-56870000D01*
X109220000Y-56870000D02*
X109220000Y-54070000D01*
G04 #@! TO.C,F2*
X131720000Y-68300000D02*
X131720000Y-65500000D01*
X131720000Y-61500000D02*
X131720000Y-58700000D01*
X109220000Y-61500000D02*
X109220000Y-58700000D01*
X109220000Y-58700000D02*
X131720000Y-58700000D01*
X109220000Y-68300000D02*
X131720000Y-68300000D01*
X109220000Y-68300000D02*
X109220000Y-65500000D01*
G04 #@! TO.C,F3*
X131720000Y-79730000D02*
X131720000Y-76930000D01*
X131720000Y-72930000D02*
X131720000Y-70130000D01*
X109220000Y-72930000D02*
X109220000Y-70130000D01*
X109220000Y-70130000D02*
X131720000Y-70130000D01*
X109220000Y-79730000D02*
X131720000Y-79730000D01*
X109220000Y-79730000D02*
X109220000Y-76930000D01*
G04 #@! TO.C,F4*
X131720000Y-91160000D02*
X131720000Y-88360000D01*
X131720000Y-84360000D02*
X131720000Y-81560000D01*
X109220000Y-84360000D02*
X109220000Y-81560000D01*
X109220000Y-81560000D02*
X131720000Y-81560000D01*
X109220000Y-91160000D02*
X131720000Y-91160000D01*
X109220000Y-91160000D02*
X109220000Y-88360000D01*
G04 #@! TO.C,F5*
X131720000Y-102590000D02*
X131720000Y-99790000D01*
X131720000Y-95790000D02*
X131720000Y-92990000D01*
X109220000Y-95790000D02*
X109220000Y-92990000D01*
X109220000Y-92990000D02*
X131720000Y-92990000D01*
X109220000Y-102590000D02*
X131720000Y-102590000D01*
X109220000Y-102590000D02*
X109220000Y-99790000D01*
G04 #@! TO.C,F6*
X131720000Y-114020000D02*
X131720000Y-111220000D01*
X131720000Y-107220000D02*
X131720000Y-104420000D01*
X109220000Y-107220000D02*
X109220000Y-104420000D01*
X109220000Y-104420000D02*
X131720000Y-104420000D01*
X109220000Y-114020000D02*
X131720000Y-114020000D01*
X109220000Y-114020000D02*
X109220000Y-111220000D01*
G04 #@! TO.C,F7*
X131720000Y-125450000D02*
X131720000Y-122650000D01*
X131720000Y-118650000D02*
X131720000Y-115850000D01*
X109220000Y-118650000D02*
X109220000Y-115850000D01*
X109220000Y-115850000D02*
X131720000Y-115850000D01*
X109220000Y-125450000D02*
X131720000Y-125450000D01*
X109220000Y-125450000D02*
X109220000Y-122650000D01*
G04 #@! TO.C,F8*
X131720000Y-136880000D02*
X131720000Y-134080000D01*
X131720000Y-130080000D02*
X131720000Y-127280000D01*
X109220000Y-130080000D02*
X109220000Y-127280000D01*
X109220000Y-127280000D02*
X131720000Y-127280000D01*
X109220000Y-136880000D02*
X131720000Y-136880000D01*
X109220000Y-136880000D02*
X109220000Y-134080000D01*
G04 #@! TO.C,R1*
X98043480Y-45087540D02*
X96646480Y-45087540D01*
X102615480Y-45087540D02*
X104139480Y-45087540D01*
X102615480Y-45087540D02*
X102615480Y-44325540D01*
X102615480Y-44325540D02*
X98043480Y-44325540D01*
X98043480Y-44325540D02*
X98043480Y-45849540D01*
X98043480Y-45849540D02*
X102615480Y-45849540D01*
X102615480Y-45849540D02*
X102615480Y-45087540D01*
G04 #@! TO.C,R10*
X102616520Y-52067460D02*
X104013520Y-52067460D01*
X98044520Y-52067460D02*
X96520520Y-52067460D01*
X98044520Y-52067460D02*
X98044520Y-52829460D01*
X98044520Y-52829460D02*
X102616520Y-52829460D01*
X102616520Y-52829460D02*
X102616520Y-51305460D01*
X102616520Y-51305460D02*
X98044520Y-51305460D01*
X98044520Y-51305460D02*
X98044520Y-52067460D01*
G04 #@! TO.C,R11*
X103251520Y-63497460D02*
X104648520Y-63497460D01*
X98679520Y-63497460D02*
X97155520Y-63497460D01*
X98679520Y-63497460D02*
X98679520Y-64259460D01*
X98679520Y-64259460D02*
X103251520Y-64259460D01*
X103251520Y-64259460D02*
X103251520Y-62735460D01*
X103251520Y-62735460D02*
X98679520Y-62735460D01*
X98679520Y-62735460D02*
X98679520Y-63497460D01*
G04 #@! TO.C,R12*
X102616520Y-74927460D02*
X104013520Y-74927460D01*
X98044520Y-74927460D02*
X96520520Y-74927460D01*
X98044520Y-74927460D02*
X98044520Y-75689460D01*
X98044520Y-75689460D02*
X102616520Y-75689460D01*
X102616520Y-75689460D02*
X102616520Y-74165460D01*
X102616520Y-74165460D02*
X98044520Y-74165460D01*
X98044520Y-74165460D02*
X98044520Y-74927460D01*
G04 #@! TO.C,R13*
X103251520Y-86357460D02*
X104648520Y-86357460D01*
X98679520Y-86357460D02*
X97155520Y-86357460D01*
X98679520Y-86357460D02*
X98679520Y-87119460D01*
X98679520Y-87119460D02*
X103251520Y-87119460D01*
X103251520Y-87119460D02*
X103251520Y-85595460D01*
X103251520Y-85595460D02*
X98679520Y-85595460D01*
X98679520Y-85595460D02*
X98679520Y-86357460D01*
G04 #@! TO.C,R14*
X103251520Y-97787460D02*
X104648520Y-97787460D01*
X98679520Y-97787460D02*
X97155520Y-97787460D01*
X98679520Y-97787460D02*
X98679520Y-98549460D01*
X98679520Y-98549460D02*
X103251520Y-98549460D01*
X103251520Y-98549460D02*
X103251520Y-97025460D01*
X103251520Y-97025460D02*
X98679520Y-97025460D01*
X98679520Y-97025460D02*
X98679520Y-97787460D01*
G04 #@! TO.C,R15*
X103251520Y-109217460D02*
X104648520Y-109217460D01*
X98679520Y-109217460D02*
X97155520Y-109217460D01*
X98679520Y-109217460D02*
X98679520Y-109979460D01*
X98679520Y-109979460D02*
X103251520Y-109979460D01*
X103251520Y-109979460D02*
X103251520Y-108455460D01*
X103251520Y-108455460D02*
X98679520Y-108455460D01*
X98679520Y-108455460D02*
X98679520Y-109217460D01*
G04 #@! TO.C,R16*
X103251520Y-120647460D02*
X104648520Y-120647460D01*
X98679520Y-120647460D02*
X97155520Y-120647460D01*
X98679520Y-120647460D02*
X98679520Y-121409460D01*
X98679520Y-121409460D02*
X103251520Y-121409460D01*
X103251520Y-121409460D02*
X103251520Y-119885460D01*
X103251520Y-119885460D02*
X98679520Y-119885460D01*
X98679520Y-119885460D02*
X98679520Y-120647460D01*
G04 #@! TO.C,R17*
X102616520Y-132077460D02*
X104013520Y-132077460D01*
X98044520Y-132077460D02*
X96520520Y-132077460D01*
X98044520Y-132077460D02*
X98044520Y-132839460D01*
X98044520Y-132839460D02*
X102616520Y-132839460D01*
X102616520Y-132839460D02*
X102616520Y-131315460D01*
X102616520Y-131315460D02*
X98044520Y-131315460D01*
X98044520Y-131315460D02*
X98044520Y-132077460D01*
G04 #@! TO.C,R18*
X103123480Y-42547540D02*
X101726480Y-42547540D01*
X107695480Y-42547540D02*
X109219480Y-42547540D01*
X107695480Y-42547540D02*
X107695480Y-41785540D01*
X107695480Y-41785540D02*
X103123480Y-41785540D01*
X103123480Y-41785540D02*
X103123480Y-43309540D01*
X103123480Y-43309540D02*
X107695480Y-43309540D01*
X107695480Y-43309540D02*
X107695480Y-42547540D01*
D13*
G04 #@! TO.C,C2*
X55805000Y-45346252D02*
X55805000Y-44823748D01*
X57225000Y-45346252D02*
X57225000Y-44823748D01*
G04 #@! TO.C,C5*
X51690748Y-89229000D02*
X52213252Y-89229000D01*
X51690748Y-87809000D02*
X52213252Y-87809000D01*
G04 #@! TO.C,D1*
X76715000Y-53030000D02*
X79575000Y-53030000D01*
X79575000Y-53030000D02*
X79575000Y-51110000D01*
X79575000Y-51110000D02*
X76715000Y-51110000D01*
G04 #@! TO.C,D2*
X79575000Y-62540000D02*
X76715000Y-62540000D01*
X79575000Y-64460000D02*
X79575000Y-62540000D01*
X76715000Y-64460000D02*
X79575000Y-64460000D01*
G04 #@! TO.C,D3*
X76715000Y-75890000D02*
X79575000Y-75890000D01*
X79575000Y-75890000D02*
X79575000Y-73970000D01*
X79575000Y-73970000D02*
X76715000Y-73970000D01*
G04 #@! TO.C,D4*
X79575000Y-85400000D02*
X76715000Y-85400000D01*
X79575000Y-87320000D02*
X79575000Y-85400000D01*
X76715000Y-87320000D02*
X79575000Y-87320000D01*
G04 #@! TO.C,D5*
X76715000Y-98750000D02*
X79575000Y-98750000D01*
X79575000Y-98750000D02*
X79575000Y-96830000D01*
X79575000Y-96830000D02*
X76715000Y-96830000D01*
G04 #@! TO.C,D6*
X76715000Y-110180000D02*
X79575000Y-110180000D01*
X79575000Y-110180000D02*
X79575000Y-108260000D01*
X79575000Y-108260000D02*
X76715000Y-108260000D01*
G04 #@! TO.C,D7*
X79330000Y-119690000D02*
X76470000Y-119690000D01*
X79330000Y-121610000D02*
X79330000Y-119690000D01*
X76470000Y-121610000D02*
X79330000Y-121610000D01*
G04 #@! TO.C,D8*
X79575000Y-131120000D02*
X76715000Y-131120000D01*
X79575000Y-133040000D02*
X79575000Y-131120000D01*
X76715000Y-133040000D02*
X79575000Y-133040000D01*
G04 #@! TO.C,R2*
X77453748Y-55170000D02*
X77976252Y-55170000D01*
X77453748Y-56590000D02*
X77976252Y-56590000D01*
G04 #@! TO.C,R3*
X77453748Y-68020000D02*
X77976252Y-68020000D01*
X77453748Y-66600000D02*
X77976252Y-66600000D01*
G04 #@! TO.C,R4*
X77453748Y-78030000D02*
X77976252Y-78030000D01*
X77453748Y-79450000D02*
X77976252Y-79450000D01*
G04 #@! TO.C,R5*
X77208748Y-90880000D02*
X77731252Y-90880000D01*
X77208748Y-89460000D02*
X77731252Y-89460000D01*
G04 #@! TO.C,R6*
X77453748Y-102310000D02*
X77976252Y-102310000D01*
X77453748Y-100890000D02*
X77976252Y-100890000D01*
G04 #@! TO.C,R7*
X77453748Y-112320000D02*
X77976252Y-112320000D01*
X77453748Y-113740000D02*
X77976252Y-113740000D01*
G04 #@! TO.C,R8*
X77453748Y-123750000D02*
X77976252Y-123750000D01*
X77453748Y-125170000D02*
X77976252Y-125170000D01*
G04 #@! TO.C,R9*
X77453748Y-135180000D02*
X77976252Y-135180000D01*
X77453748Y-136600000D02*
X77976252Y-136600000D01*
G04 #@! TO.C,R19*
X77453748Y-46430000D02*
X77976252Y-46430000D01*
X77453748Y-45010000D02*
X77976252Y-45010000D01*
G04 #@! TO.C,R20*
X49351000Y-70501252D02*
X49351000Y-69978748D01*
X47931000Y-70501252D02*
X47931000Y-69978748D01*
G04 #@! TO.C,SW1*
X56830000Y-52817000D02*
X56830000Y-52367000D01*
X56830000Y-52367000D02*
X50530000Y-52367000D01*
X50530000Y-52367000D02*
X50530000Y-52767000D01*
X56830000Y-54117000D02*
X56830000Y-56817000D01*
X50530000Y-56817000D02*
X50530000Y-54117000D01*
X56830000Y-58567000D02*
X50530000Y-58567000D01*
X50530000Y-58567000D02*
X50530000Y-58117000D01*
X56830000Y-58117000D02*
X56830000Y-58567000D01*
G04 #@! TO.C,U3*
X51570000Y-60270000D02*
X67810000Y-60270000D01*
X67810000Y-60270000D02*
X67810000Y-67890000D01*
X67810000Y-83890000D02*
X67810000Y-84510000D01*
X67810000Y-84510000D02*
X65690000Y-84510000D01*
X53690000Y-84510000D02*
X51570000Y-84510000D01*
X51570000Y-84510000D02*
X51570000Y-83890000D01*
X51570000Y-67890000D02*
X51570000Y-60270000D01*
X51570000Y-67890000D02*
X50960000Y-67890000D01*
D12*
G04 #@! TO.C,U4*
X55264000Y-96325000D02*
X55264000Y-96600000D01*
X60814000Y-96325000D02*
X60814000Y-96680000D01*
X60814000Y-106875000D02*
X60814000Y-106520000D01*
X55264000Y-106875000D02*
X55264000Y-106520000D01*
X55264000Y-96325000D02*
X60814000Y-96325000D01*
X55264000Y-106875000D02*
X60814000Y-106875000D01*
X55264000Y-96600000D02*
X53739000Y-96600000D01*
D13*
G04 #@! TO.C,P11*
X45212000Y-41529000D02*
X55372000Y-41529000D01*
X45212000Y-40259000D02*
X45212000Y-47879000D01*
X45212000Y-47879000D02*
X55372000Y-47879000D01*
X55372000Y-47879000D02*
X55372000Y-40259000D01*
X55372000Y-40259000D02*
X45212000Y-40259000D01*
G04 #@! TO.C,U2*
X65156000Y-48368000D02*
X65156000Y-47108000D01*
X65156000Y-41548000D02*
X65156000Y-42808000D01*
X61396000Y-48368000D02*
X65156000Y-48368000D01*
X59146000Y-41548000D02*
X65156000Y-41548000D01*
G04 #@! TO.C,J1*
X61408000Y-54296000D02*
X61408000Y-56956000D01*
X69088000Y-54296000D02*
X61408000Y-54296000D01*
X69088000Y-56956000D02*
X61408000Y-56956000D01*
X69088000Y-54296000D02*
X69088000Y-56956000D01*
X70358000Y-54296000D02*
X71688000Y-54296000D01*
X71688000Y-54296000D02*
X71688000Y-55626000D01*
G04 #@! TO.C,R21*
X48335000Y-93328748D02*
X48335000Y-93851252D01*
X46915000Y-93328748D02*
X46915000Y-93851252D01*
G04 #@! TO.C,P2*
X142494000Y-50292000D02*
X142494000Y-40132000D01*
X134874000Y-50292000D02*
X142494000Y-50292000D01*
X134874000Y-40132000D02*
X134874000Y-50292000D01*
X142494000Y-40132000D02*
X134874000Y-40132000D01*
X141224000Y-40132000D02*
X141224000Y-50292000D01*
G04 #@! TO.C,P3*
X142494000Y-60706000D02*
X142494000Y-50546000D01*
X134874000Y-60706000D02*
X142494000Y-60706000D01*
X134874000Y-50546000D02*
X134874000Y-60706000D01*
X142494000Y-50546000D02*
X134874000Y-50546000D01*
X141224000Y-50546000D02*
X141224000Y-60706000D01*
G04 #@! TO.C,P4*
X141224000Y-60960000D02*
X141224000Y-71120000D01*
X142494000Y-60960000D02*
X134874000Y-60960000D01*
X134874000Y-60960000D02*
X134874000Y-71120000D01*
X134874000Y-71120000D02*
X142494000Y-71120000D01*
X142494000Y-71120000D02*
X142494000Y-60960000D01*
G04 #@! TO.C,P5*
X141224000Y-72390000D02*
X141224000Y-82550000D01*
X142494000Y-72390000D02*
X134874000Y-72390000D01*
X134874000Y-72390000D02*
X134874000Y-82550000D01*
X134874000Y-82550000D02*
X142494000Y-82550000D01*
X142494000Y-82550000D02*
X142494000Y-72390000D01*
G04 #@! TO.C,P6*
X142494000Y-93980000D02*
X142494000Y-83820000D01*
X134874000Y-93980000D02*
X142494000Y-93980000D01*
X134874000Y-83820000D02*
X134874000Y-93980000D01*
X142494000Y-83820000D02*
X134874000Y-83820000D01*
X141224000Y-83820000D02*
X141224000Y-93980000D01*
G04 #@! TO.C,P7*
X141224000Y-95250000D02*
X141224000Y-105410000D01*
X142494000Y-95250000D02*
X134874000Y-95250000D01*
X134874000Y-95250000D02*
X134874000Y-105410000D01*
X134874000Y-105410000D02*
X142494000Y-105410000D01*
X142494000Y-105410000D02*
X142494000Y-95250000D01*
G04 #@! TO.C,P8*
X141224000Y-106680000D02*
X141224000Y-116840000D01*
X142494000Y-106680000D02*
X134874000Y-106680000D01*
X134874000Y-106680000D02*
X134874000Y-116840000D01*
X134874000Y-116840000D02*
X142494000Y-116840000D01*
X142494000Y-116840000D02*
X142494000Y-106680000D01*
G04 #@! TO.C,P9*
X141224000Y-118110000D02*
X141224000Y-128270000D01*
X142494000Y-118110000D02*
X134874000Y-118110000D01*
X134874000Y-118110000D02*
X134874000Y-128270000D01*
X134874000Y-128270000D02*
X142494000Y-128270000D01*
X142494000Y-128270000D02*
X142494000Y-118110000D01*
G04 #@! TO.C,P10*
X142494000Y-139573000D02*
X142494000Y-129413000D01*
X134874000Y-139573000D02*
X142494000Y-139573000D01*
X134874000Y-129413000D02*
X134874000Y-139573000D01*
X142494000Y-129413000D02*
X134874000Y-129413000D01*
X141224000Y-129413000D02*
X141224000Y-139573000D01*
G04 #@! TO.C,SW2*
D12*
X47336761Y-135105333D02*
X47384380Y-134962476D01*
X47384380Y-134724380D01*
X47336761Y-134629142D01*
X47289142Y-134581523D01*
X47193904Y-134533904D01*
X47098666Y-134533904D01*
X47003428Y-134581523D01*
X46955809Y-134629142D01*
X46908190Y-134724380D01*
X46860571Y-134914857D01*
X46812952Y-135010095D01*
X46765333Y-135057714D01*
X46670095Y-135105333D01*
X46574857Y-135105333D01*
X46479619Y-135057714D01*
X46432000Y-135010095D01*
X46384380Y-134914857D01*
X46384380Y-134676761D01*
X46432000Y-134533904D01*
X46384380Y-134200571D02*
X47384380Y-133962476D01*
X46670095Y-133772000D01*
X47384380Y-133581523D01*
X46384380Y-133343428D01*
X46479619Y-133010095D02*
X46432000Y-132962476D01*
X46384380Y-132867238D01*
X46384380Y-132629142D01*
X46432000Y-132533904D01*
X46479619Y-132486285D01*
X46574857Y-132438666D01*
X46670095Y-132438666D01*
X46812952Y-132486285D01*
X47384380Y-133057714D01*
X47384380Y-132438666D01*
X55010571Y-135462476D02*
X55010571Y-135795809D01*
X55534380Y-135795809D02*
X54534380Y-135795809D01*
X54534380Y-135319619D01*
X55534380Y-134462476D02*
X55534380Y-134938666D01*
X54534380Y-134938666D01*
X55248666Y-134176761D02*
X55248666Y-133700571D01*
X55534380Y-134272000D02*
X54534380Y-133938666D01*
X55534380Y-133605333D01*
X55486761Y-133319619D02*
X55534380Y-133176761D01*
X55534380Y-132938666D01*
X55486761Y-132843428D01*
X55439142Y-132795809D01*
X55343904Y-132748190D01*
X55248666Y-132748190D01*
X55153428Y-132795809D01*
X55105809Y-132843428D01*
X55058190Y-132938666D01*
X55010571Y-133129142D01*
X54962952Y-133224380D01*
X54915333Y-133272000D01*
X54820095Y-133319619D01*
X54724857Y-133319619D01*
X54629619Y-133272000D01*
X54582000Y-133224380D01*
X54534380Y-133129142D01*
X54534380Y-132891047D01*
X54582000Y-132748190D01*
X55534380Y-132319619D02*
X54534380Y-132319619D01*
X55010571Y-132319619D02*
X55010571Y-131748190D01*
X55534380Y-131748190D02*
X54534380Y-131748190D01*
G04 #@! TO.C,U5*
X58420095Y-109798380D02*
X58420095Y-110607904D01*
X58467714Y-110703142D01*
X58515333Y-110750761D01*
X58610571Y-110798380D01*
X58801047Y-110798380D01*
X58896285Y-110750761D01*
X58943904Y-110703142D01*
X58991523Y-110607904D01*
X58991523Y-109798380D01*
X59943904Y-109798380D02*
X59467714Y-109798380D01*
X59420095Y-110274571D01*
X59467714Y-110226952D01*
X59562952Y-110179333D01*
X59801047Y-110179333D01*
X59896285Y-110226952D01*
X59943904Y-110274571D01*
X59991523Y-110369809D01*
X59991523Y-110607904D01*
X59943904Y-110703142D01*
X59896285Y-110750761D01*
X59801047Y-110798380D01*
X59562952Y-110798380D01*
X59467714Y-110750761D01*
X59420095Y-110703142D01*
G04 #@! TO.C,U1*
X85177380Y-55371904D02*
X85986904Y-55371904D01*
X86082142Y-55324285D01*
X86129761Y-55276666D01*
X86177380Y-55181428D01*
X86177380Y-54990952D01*
X86129761Y-54895714D01*
X86082142Y-54848095D01*
X85986904Y-54800476D01*
X85177380Y-54800476D01*
X86177380Y-53800476D02*
X86177380Y-54371904D01*
X86177380Y-54086190D02*
X85177380Y-54086190D01*
X85320238Y-54181428D01*
X85415476Y-54276666D01*
X85463095Y-54371904D01*
G04 #@! TO.C,U6*
X85812380Y-44576904D02*
X86621904Y-44576904D01*
X86717142Y-44529285D01*
X86764761Y-44481666D01*
X86812380Y-44386428D01*
X86812380Y-44195952D01*
X86764761Y-44100714D01*
X86717142Y-44053095D01*
X86621904Y-44005476D01*
X85812380Y-44005476D01*
X85812380Y-43100714D02*
X85812380Y-43291190D01*
X85860000Y-43386428D01*
X85907619Y-43434047D01*
X86050476Y-43529285D01*
X86240952Y-43576904D01*
X86621904Y-43576904D01*
X86717142Y-43529285D01*
X86764761Y-43481666D01*
X86812380Y-43386428D01*
X86812380Y-43195952D01*
X86764761Y-43100714D01*
X86717142Y-43053095D01*
X86621904Y-43005476D01*
X86383809Y-43005476D01*
X86288571Y-43053095D01*
X86240952Y-43100714D01*
X86193333Y-43195952D01*
X86193333Y-43386428D01*
X86240952Y-43481666D01*
X86288571Y-43529285D01*
X86383809Y-43576904D01*
G04 #@! TO.C,U7*
X85812380Y-66801904D02*
X86621904Y-66801904D01*
X86717142Y-66754285D01*
X86764761Y-66706666D01*
X86812380Y-66611428D01*
X86812380Y-66420952D01*
X86764761Y-66325714D01*
X86717142Y-66278095D01*
X86621904Y-66230476D01*
X85812380Y-66230476D01*
X85812380Y-65849523D02*
X85812380Y-65182857D01*
X86812380Y-65611428D01*
G04 #@! TO.C,U8*
X85812380Y-78231904D02*
X86621904Y-78231904D01*
X86717142Y-78184285D01*
X86764761Y-78136666D01*
X86812380Y-78041428D01*
X86812380Y-77850952D01*
X86764761Y-77755714D01*
X86717142Y-77708095D01*
X86621904Y-77660476D01*
X85812380Y-77660476D01*
X86240952Y-77041428D02*
X86193333Y-77136666D01*
X86145714Y-77184285D01*
X86050476Y-77231904D01*
X86002857Y-77231904D01*
X85907619Y-77184285D01*
X85860000Y-77136666D01*
X85812380Y-77041428D01*
X85812380Y-76850952D01*
X85860000Y-76755714D01*
X85907619Y-76708095D01*
X86002857Y-76660476D01*
X86050476Y-76660476D01*
X86145714Y-76708095D01*
X86193333Y-76755714D01*
X86240952Y-76850952D01*
X86240952Y-77041428D01*
X86288571Y-77136666D01*
X86336190Y-77184285D01*
X86431428Y-77231904D01*
X86621904Y-77231904D01*
X86717142Y-77184285D01*
X86764761Y-77136666D01*
X86812380Y-77041428D01*
X86812380Y-76850952D01*
X86764761Y-76755714D01*
X86717142Y-76708095D01*
X86621904Y-76660476D01*
X86431428Y-76660476D01*
X86336190Y-76708095D01*
X86288571Y-76755714D01*
X86240952Y-76850952D01*
G04 #@! TO.C,U9*
X85812380Y-89661904D02*
X86621904Y-89661904D01*
X86717142Y-89614285D01*
X86764761Y-89566666D01*
X86812380Y-89471428D01*
X86812380Y-89280952D01*
X86764761Y-89185714D01*
X86717142Y-89138095D01*
X86621904Y-89090476D01*
X85812380Y-89090476D01*
X86812380Y-88566666D02*
X86812380Y-88376190D01*
X86764761Y-88280952D01*
X86717142Y-88233333D01*
X86574285Y-88138095D01*
X86383809Y-88090476D01*
X86002857Y-88090476D01*
X85907619Y-88138095D01*
X85860000Y-88185714D01*
X85812380Y-88280952D01*
X85812380Y-88471428D01*
X85860000Y-88566666D01*
X85907619Y-88614285D01*
X86002857Y-88661904D01*
X86240952Y-88661904D01*
X86336190Y-88614285D01*
X86383809Y-88566666D01*
X86431428Y-88471428D01*
X86431428Y-88280952D01*
X86383809Y-88185714D01*
X86336190Y-88138095D01*
X86240952Y-88090476D01*
G04 #@! TO.C,U10*
X85812380Y-101568095D02*
X86621904Y-101568095D01*
X86717142Y-101520476D01*
X86764761Y-101472857D01*
X86812380Y-101377619D01*
X86812380Y-101187142D01*
X86764761Y-101091904D01*
X86717142Y-101044285D01*
X86621904Y-100996666D01*
X85812380Y-100996666D01*
X86812380Y-99996666D02*
X86812380Y-100568095D01*
X86812380Y-100282380D02*
X85812380Y-100282380D01*
X85955238Y-100377619D01*
X86050476Y-100472857D01*
X86098095Y-100568095D01*
X85812380Y-99377619D02*
X85812380Y-99282380D01*
X85860000Y-99187142D01*
X85907619Y-99139523D01*
X86002857Y-99091904D01*
X86193333Y-99044285D01*
X86431428Y-99044285D01*
X86621904Y-99091904D01*
X86717142Y-99139523D01*
X86764761Y-99187142D01*
X86812380Y-99282380D01*
X86812380Y-99377619D01*
X86764761Y-99472857D01*
X86717142Y-99520476D01*
X86621904Y-99568095D01*
X86431428Y-99615714D01*
X86193333Y-99615714D01*
X86002857Y-99568095D01*
X85907619Y-99520476D01*
X85860000Y-99472857D01*
X85812380Y-99377619D01*
G04 #@! TO.C,U11*
X85812380Y-112998095D02*
X86621904Y-112998095D01*
X86717142Y-112950476D01*
X86764761Y-112902857D01*
X86812380Y-112807619D01*
X86812380Y-112617142D01*
X86764761Y-112521904D01*
X86717142Y-112474285D01*
X86621904Y-112426666D01*
X85812380Y-112426666D01*
X86812380Y-111426666D02*
X86812380Y-111998095D01*
X86812380Y-111712380D02*
X85812380Y-111712380D01*
X85955238Y-111807619D01*
X86050476Y-111902857D01*
X86098095Y-111998095D01*
X86812380Y-110474285D02*
X86812380Y-111045714D01*
X86812380Y-110760000D02*
X85812380Y-110760000D01*
X85955238Y-110855238D01*
X86050476Y-110950476D01*
X86098095Y-111045714D01*
G04 #@! TO.C,U12*
X85812380Y-124428095D02*
X86621904Y-124428095D01*
X86717142Y-124380476D01*
X86764761Y-124332857D01*
X86812380Y-124237619D01*
X86812380Y-124047142D01*
X86764761Y-123951904D01*
X86717142Y-123904285D01*
X86621904Y-123856666D01*
X85812380Y-123856666D01*
X86812380Y-122856666D02*
X86812380Y-123428095D01*
X86812380Y-123142380D02*
X85812380Y-123142380D01*
X85955238Y-123237619D01*
X86050476Y-123332857D01*
X86098095Y-123428095D01*
X85907619Y-122475714D02*
X85860000Y-122428095D01*
X85812380Y-122332857D01*
X85812380Y-122094761D01*
X85860000Y-121999523D01*
X85907619Y-121951904D01*
X86002857Y-121904285D01*
X86098095Y-121904285D01*
X86240952Y-121951904D01*
X86812380Y-122523333D01*
X86812380Y-121904285D01*
G04 #@! TO.C,U13*
X85812380Y-135858095D02*
X86621904Y-135858095D01*
X86717142Y-135810476D01*
X86764761Y-135762857D01*
X86812380Y-135667619D01*
X86812380Y-135477142D01*
X86764761Y-135381904D01*
X86717142Y-135334285D01*
X86621904Y-135286666D01*
X85812380Y-135286666D01*
X86812380Y-134286666D02*
X86812380Y-134858095D01*
X86812380Y-134572380D02*
X85812380Y-134572380D01*
X85955238Y-134667619D01*
X86050476Y-134762857D01*
X86098095Y-134858095D01*
X85812380Y-133953333D02*
X85812380Y-133334285D01*
X86193333Y-133667619D01*
X86193333Y-133524761D01*
X86240952Y-133429523D01*
X86288571Y-133381904D01*
X86383809Y-133334285D01*
X86621904Y-133334285D01*
X86717142Y-133381904D01*
X86764761Y-133429523D01*
X86812380Y-133524761D01*
X86812380Y-133810476D01*
X86764761Y-133905714D01*
X86717142Y-133953333D01*
G04 #@! TO.C,U14*
X98456904Y-57237380D02*
X98456904Y-58046904D01*
X98504523Y-58142142D01*
X98552142Y-58189761D01*
X98647380Y-58237380D01*
X98837857Y-58237380D01*
X98933095Y-58189761D01*
X98980714Y-58142142D01*
X99028333Y-58046904D01*
X99028333Y-57237380D01*
X100028333Y-58237380D02*
X99456904Y-58237380D01*
X99742619Y-58237380D02*
X99742619Y-57237380D01*
X99647380Y-57380238D01*
X99552142Y-57475476D01*
X99456904Y-57523095D01*
X100885476Y-57570714D02*
X100885476Y-58237380D01*
X100647380Y-57189761D02*
X100409285Y-57904047D01*
X101028333Y-57904047D01*
G04 #@! TO.C,U15*
X98456904Y-68032380D02*
X98456904Y-68841904D01*
X98504523Y-68937142D01*
X98552142Y-68984761D01*
X98647380Y-69032380D01*
X98837857Y-69032380D01*
X98933095Y-68984761D01*
X98980714Y-68937142D01*
X99028333Y-68841904D01*
X99028333Y-68032380D01*
X100028333Y-69032380D02*
X99456904Y-69032380D01*
X99742619Y-69032380D02*
X99742619Y-68032380D01*
X99647380Y-68175238D01*
X99552142Y-68270476D01*
X99456904Y-68318095D01*
X100933095Y-68032380D02*
X100456904Y-68032380D01*
X100409285Y-68508571D01*
X100456904Y-68460952D01*
X100552142Y-68413333D01*
X100790238Y-68413333D01*
X100885476Y-68460952D01*
X100933095Y-68508571D01*
X100980714Y-68603809D01*
X100980714Y-68841904D01*
X100933095Y-68937142D01*
X100885476Y-68984761D01*
X100790238Y-69032380D01*
X100552142Y-69032380D01*
X100456904Y-68984761D01*
X100409285Y-68937142D01*
G04 #@! TO.C,U16*
X98456904Y-79462380D02*
X98456904Y-80271904D01*
X98504523Y-80367142D01*
X98552142Y-80414761D01*
X98647380Y-80462380D01*
X98837857Y-80462380D01*
X98933095Y-80414761D01*
X98980714Y-80367142D01*
X99028333Y-80271904D01*
X99028333Y-79462380D01*
X100028333Y-80462380D02*
X99456904Y-80462380D01*
X99742619Y-80462380D02*
X99742619Y-79462380D01*
X99647380Y-79605238D01*
X99552142Y-79700476D01*
X99456904Y-79748095D01*
X100885476Y-79462380D02*
X100695000Y-79462380D01*
X100599761Y-79510000D01*
X100552142Y-79557619D01*
X100456904Y-79700476D01*
X100409285Y-79890952D01*
X100409285Y-80271904D01*
X100456904Y-80367142D01*
X100504523Y-80414761D01*
X100599761Y-80462380D01*
X100790238Y-80462380D01*
X100885476Y-80414761D01*
X100933095Y-80367142D01*
X100980714Y-80271904D01*
X100980714Y-80033809D01*
X100933095Y-79938571D01*
X100885476Y-79890952D01*
X100790238Y-79843333D01*
X100599761Y-79843333D01*
X100504523Y-79890952D01*
X100456904Y-79938571D01*
X100409285Y-80033809D01*
G04 #@! TO.C,U17*
X98456904Y-90257380D02*
X98456904Y-91066904D01*
X98504523Y-91162142D01*
X98552142Y-91209761D01*
X98647380Y-91257380D01*
X98837857Y-91257380D01*
X98933095Y-91209761D01*
X98980714Y-91162142D01*
X99028333Y-91066904D01*
X99028333Y-90257380D01*
X100028333Y-91257380D02*
X99456904Y-91257380D01*
X99742619Y-91257380D02*
X99742619Y-90257380D01*
X99647380Y-90400238D01*
X99552142Y-90495476D01*
X99456904Y-90543095D01*
X100361666Y-90257380D02*
X101028333Y-90257380D01*
X100599761Y-91257380D01*
G04 #@! TO.C,U18*
X98456904Y-101687380D02*
X98456904Y-102496904D01*
X98504523Y-102592142D01*
X98552142Y-102639761D01*
X98647380Y-102687380D01*
X98837857Y-102687380D01*
X98933095Y-102639761D01*
X98980714Y-102592142D01*
X99028333Y-102496904D01*
X99028333Y-101687380D01*
X100028333Y-102687380D02*
X99456904Y-102687380D01*
X99742619Y-102687380D02*
X99742619Y-101687380D01*
X99647380Y-101830238D01*
X99552142Y-101925476D01*
X99456904Y-101973095D01*
X100599761Y-102115952D02*
X100504523Y-102068333D01*
X100456904Y-102020714D01*
X100409285Y-101925476D01*
X100409285Y-101877857D01*
X100456904Y-101782619D01*
X100504523Y-101735000D01*
X100599761Y-101687380D01*
X100790238Y-101687380D01*
X100885476Y-101735000D01*
X100933095Y-101782619D01*
X100980714Y-101877857D01*
X100980714Y-101925476D01*
X100933095Y-102020714D01*
X100885476Y-102068333D01*
X100790238Y-102115952D01*
X100599761Y-102115952D01*
X100504523Y-102163571D01*
X100456904Y-102211190D01*
X100409285Y-102306428D01*
X100409285Y-102496904D01*
X100456904Y-102592142D01*
X100504523Y-102639761D01*
X100599761Y-102687380D01*
X100790238Y-102687380D01*
X100885476Y-102639761D01*
X100933095Y-102592142D01*
X100980714Y-102496904D01*
X100980714Y-102306428D01*
X100933095Y-102211190D01*
X100885476Y-102163571D01*
X100790238Y-102115952D01*
G04 #@! TO.C,U19*
X98456904Y-113752380D02*
X98456904Y-114561904D01*
X98504523Y-114657142D01*
X98552142Y-114704761D01*
X98647380Y-114752380D01*
X98837857Y-114752380D01*
X98933095Y-114704761D01*
X98980714Y-114657142D01*
X99028333Y-114561904D01*
X99028333Y-113752380D01*
X100028333Y-114752380D02*
X99456904Y-114752380D01*
X99742619Y-114752380D02*
X99742619Y-113752380D01*
X99647380Y-113895238D01*
X99552142Y-113990476D01*
X99456904Y-114038095D01*
X100504523Y-114752380D02*
X100695000Y-114752380D01*
X100790238Y-114704761D01*
X100837857Y-114657142D01*
X100933095Y-114514285D01*
X100980714Y-114323809D01*
X100980714Y-113942857D01*
X100933095Y-113847619D01*
X100885476Y-113800000D01*
X100790238Y-113752380D01*
X100599761Y-113752380D01*
X100504523Y-113800000D01*
X100456904Y-113847619D01*
X100409285Y-113942857D01*
X100409285Y-114180952D01*
X100456904Y-114276190D01*
X100504523Y-114323809D01*
X100599761Y-114371428D01*
X100790238Y-114371428D01*
X100885476Y-114323809D01*
X100933095Y-114276190D01*
X100980714Y-114180952D01*
G04 #@! TO.C,U20*
X98761904Y-124952380D02*
X98761904Y-125761904D01*
X98809523Y-125857142D01*
X98857142Y-125904761D01*
X98952380Y-125952380D01*
X99142857Y-125952380D01*
X99238095Y-125904761D01*
X99285714Y-125857142D01*
X99333333Y-125761904D01*
X99333333Y-124952380D01*
X99761904Y-125047619D02*
X99809523Y-125000000D01*
X99904761Y-124952380D01*
X100142857Y-124952380D01*
X100238095Y-125000000D01*
X100285714Y-125047619D01*
X100333333Y-125142857D01*
X100333333Y-125238095D01*
X100285714Y-125380952D01*
X99714285Y-125952380D01*
X100333333Y-125952380D01*
X100952380Y-124952380D02*
X101047619Y-124952380D01*
X101142857Y-125000000D01*
X101190476Y-125047619D01*
X101238095Y-125142857D01*
X101285714Y-125333333D01*
X101285714Y-125571428D01*
X101238095Y-125761904D01*
X101190476Y-125857142D01*
X101142857Y-125904761D01*
X101047619Y-125952380D01*
X100952380Y-125952380D01*
X100857142Y-125904761D01*
X100809523Y-125857142D01*
X100761904Y-125761904D01*
X100714285Y-125571428D01*
X100714285Y-125333333D01*
X100761904Y-125142857D01*
X100809523Y-125047619D01*
X100857142Y-125000000D01*
X100952380Y-124952380D01*
G04 #@! TO.C,U21*
X98456904Y-135977380D02*
X98456904Y-136786904D01*
X98504523Y-136882142D01*
X98552142Y-136929761D01*
X98647380Y-136977380D01*
X98837857Y-136977380D01*
X98933095Y-136929761D01*
X98980714Y-136882142D01*
X99028333Y-136786904D01*
X99028333Y-135977380D01*
X99456904Y-136072619D02*
X99504523Y-136025000D01*
X99599761Y-135977380D01*
X99837857Y-135977380D01*
X99933095Y-136025000D01*
X99980714Y-136072619D01*
X100028333Y-136167857D01*
X100028333Y-136263095D01*
X99980714Y-136405952D01*
X99409285Y-136977380D01*
X100028333Y-136977380D01*
X100980714Y-136977380D02*
X100409285Y-136977380D01*
X100695000Y-136977380D02*
X100695000Y-135977380D01*
X100599761Y-136120238D01*
X100504523Y-136215476D01*
X100409285Y-136263095D01*
G04 #@! TO.C,F1*
X120136666Y-45998571D02*
X119803333Y-45998571D01*
X119803333Y-46522380D02*
X119803333Y-45522380D01*
X120279523Y-45522380D01*
X121184285Y-46522380D02*
X120612857Y-46522380D01*
X120898571Y-46522380D02*
X120898571Y-45522380D01*
X120803333Y-45665238D01*
X120708095Y-45760476D01*
X120612857Y-45808095D01*
G04 #@! TO.C,F2*
X120136666Y-57428571D02*
X119803333Y-57428571D01*
X119803333Y-57952380D02*
X119803333Y-56952380D01*
X120279523Y-56952380D01*
X120612857Y-57047619D02*
X120660476Y-57000000D01*
X120755714Y-56952380D01*
X120993809Y-56952380D01*
X121089047Y-57000000D01*
X121136666Y-57047619D01*
X121184285Y-57142857D01*
X121184285Y-57238095D01*
X121136666Y-57380952D01*
X120565238Y-57952380D01*
X121184285Y-57952380D01*
G04 #@! TO.C,F3*
X120136666Y-68858571D02*
X119803333Y-68858571D01*
X119803333Y-69382380D02*
X119803333Y-68382380D01*
X120279523Y-68382380D01*
X120565238Y-68382380D02*
X121184285Y-68382380D01*
X120850952Y-68763333D01*
X120993809Y-68763333D01*
X121089047Y-68810952D01*
X121136666Y-68858571D01*
X121184285Y-68953809D01*
X121184285Y-69191904D01*
X121136666Y-69287142D01*
X121089047Y-69334761D01*
X120993809Y-69382380D01*
X120708095Y-69382380D01*
X120612857Y-69334761D01*
X120565238Y-69287142D01*
G04 #@! TO.C,F4*
X120136666Y-80288571D02*
X119803333Y-80288571D01*
X119803333Y-80812380D02*
X119803333Y-79812380D01*
X120279523Y-79812380D01*
X121089047Y-80145714D02*
X121089047Y-80812380D01*
X120850952Y-79764761D02*
X120612857Y-80479047D01*
X121231904Y-80479047D01*
G04 #@! TO.C,F5*
X120136666Y-91718571D02*
X119803333Y-91718571D01*
X119803333Y-92242380D02*
X119803333Y-91242380D01*
X120279523Y-91242380D01*
X121136666Y-91242380D02*
X120660476Y-91242380D01*
X120612857Y-91718571D01*
X120660476Y-91670952D01*
X120755714Y-91623333D01*
X120993809Y-91623333D01*
X121089047Y-91670952D01*
X121136666Y-91718571D01*
X121184285Y-91813809D01*
X121184285Y-92051904D01*
X121136666Y-92147142D01*
X121089047Y-92194761D01*
X120993809Y-92242380D01*
X120755714Y-92242380D01*
X120660476Y-92194761D01*
X120612857Y-92147142D01*
G04 #@! TO.C,F6*
X120136666Y-103148571D02*
X119803333Y-103148571D01*
X119803333Y-103672380D02*
X119803333Y-102672380D01*
X120279523Y-102672380D01*
X121089047Y-102672380D02*
X120898571Y-102672380D01*
X120803333Y-102720000D01*
X120755714Y-102767619D01*
X120660476Y-102910476D01*
X120612857Y-103100952D01*
X120612857Y-103481904D01*
X120660476Y-103577142D01*
X120708095Y-103624761D01*
X120803333Y-103672380D01*
X120993809Y-103672380D01*
X121089047Y-103624761D01*
X121136666Y-103577142D01*
X121184285Y-103481904D01*
X121184285Y-103243809D01*
X121136666Y-103148571D01*
X121089047Y-103100952D01*
X120993809Y-103053333D01*
X120803333Y-103053333D01*
X120708095Y-103100952D01*
X120660476Y-103148571D01*
X120612857Y-103243809D01*
G04 #@! TO.C,F7*
X120136666Y-114578571D02*
X119803333Y-114578571D01*
X119803333Y-115102380D02*
X119803333Y-114102380D01*
X120279523Y-114102380D01*
X120565238Y-114102380D02*
X121231904Y-114102380D01*
X120803333Y-115102380D01*
G04 #@! TO.C,F8*
X120136666Y-126008571D02*
X119803333Y-126008571D01*
X119803333Y-126532380D02*
X119803333Y-125532380D01*
X120279523Y-125532380D01*
X120803333Y-125960952D02*
X120708095Y-125913333D01*
X120660476Y-125865714D01*
X120612857Y-125770476D01*
X120612857Y-125722857D01*
X120660476Y-125627619D01*
X120708095Y-125580000D01*
X120803333Y-125532380D01*
X120993809Y-125532380D01*
X121089047Y-125580000D01*
X121136666Y-125627619D01*
X121184285Y-125722857D01*
X121184285Y-125770476D01*
X121136666Y-125865714D01*
X121089047Y-125913333D01*
X120993809Y-125960952D01*
X120803333Y-125960952D01*
X120708095Y-126008571D01*
X120660476Y-126056190D01*
X120612857Y-126151428D01*
X120612857Y-126341904D01*
X120660476Y-126437142D01*
X120708095Y-126484761D01*
X120803333Y-126532380D01*
X120993809Y-126532380D01*
X121089047Y-126484761D01*
X121136666Y-126437142D01*
X121184285Y-126341904D01*
X121184285Y-126151428D01*
X121136666Y-126056190D01*
X121089047Y-126008571D01*
X120993809Y-125960952D01*
G04 #@! TO.C,R1*
X100353833Y-45473880D02*
X100020500Y-44997690D01*
X99782404Y-45473880D02*
X99782404Y-44473880D01*
X100163357Y-44473880D01*
X100258595Y-44521500D01*
X100306214Y-44569119D01*
X100353833Y-44664357D01*
X100353833Y-44807214D01*
X100306214Y-44902452D01*
X100258595Y-44950071D01*
X100163357Y-44997690D01*
X99782404Y-44997690D01*
X101306214Y-45473880D02*
X100734785Y-45473880D01*
X101020500Y-45473880D02*
X101020500Y-44473880D01*
X100925261Y-44616738D01*
X100830023Y-44711976D01*
X100734785Y-44759595D01*
G04 #@! TO.C,R10*
X99496642Y-52585880D02*
X99163309Y-52109690D01*
X98925214Y-52585880D02*
X98925214Y-51585880D01*
X99306166Y-51585880D01*
X99401404Y-51633500D01*
X99449023Y-51681119D01*
X99496642Y-51776357D01*
X99496642Y-51919214D01*
X99449023Y-52014452D01*
X99401404Y-52062071D01*
X99306166Y-52109690D01*
X98925214Y-52109690D01*
X100449023Y-52585880D02*
X99877595Y-52585880D01*
X100163309Y-52585880D02*
X100163309Y-51585880D01*
X100068071Y-51728738D01*
X99972833Y-51823976D01*
X99877595Y-51871595D01*
X101068071Y-51585880D02*
X101163309Y-51585880D01*
X101258547Y-51633500D01*
X101306166Y-51681119D01*
X101353785Y-51776357D01*
X101401404Y-51966833D01*
X101401404Y-52204928D01*
X101353785Y-52395404D01*
X101306166Y-52490642D01*
X101258547Y-52538261D01*
X101163309Y-52585880D01*
X101068071Y-52585880D01*
X100972833Y-52538261D01*
X100925214Y-52490642D01*
X100877595Y-52395404D01*
X100829976Y-52204928D01*
X100829976Y-51966833D01*
X100877595Y-51776357D01*
X100925214Y-51681119D01*
X100972833Y-51633500D01*
X101068071Y-51585880D01*
G04 #@! TO.C,R11*
X100131642Y-64015880D02*
X99798309Y-63539690D01*
X99560214Y-64015880D02*
X99560214Y-63015880D01*
X99941166Y-63015880D01*
X100036404Y-63063500D01*
X100084023Y-63111119D01*
X100131642Y-63206357D01*
X100131642Y-63349214D01*
X100084023Y-63444452D01*
X100036404Y-63492071D01*
X99941166Y-63539690D01*
X99560214Y-63539690D01*
X101084023Y-64015880D02*
X100512595Y-64015880D01*
X100798309Y-64015880D02*
X100798309Y-63015880D01*
X100703071Y-63158738D01*
X100607833Y-63253976D01*
X100512595Y-63301595D01*
X102036404Y-64015880D02*
X101464976Y-64015880D01*
X101750690Y-64015880D02*
X101750690Y-63015880D01*
X101655452Y-63158738D01*
X101560214Y-63253976D01*
X101464976Y-63301595D01*
G04 #@! TO.C,R12*
X99496642Y-75445880D02*
X99163309Y-74969690D01*
X98925214Y-75445880D02*
X98925214Y-74445880D01*
X99306166Y-74445880D01*
X99401404Y-74493500D01*
X99449023Y-74541119D01*
X99496642Y-74636357D01*
X99496642Y-74779214D01*
X99449023Y-74874452D01*
X99401404Y-74922071D01*
X99306166Y-74969690D01*
X98925214Y-74969690D01*
X100449023Y-75445880D02*
X99877595Y-75445880D01*
X100163309Y-75445880D02*
X100163309Y-74445880D01*
X100068071Y-74588738D01*
X99972833Y-74683976D01*
X99877595Y-74731595D01*
X100829976Y-74541119D02*
X100877595Y-74493500D01*
X100972833Y-74445880D01*
X101210928Y-74445880D01*
X101306166Y-74493500D01*
X101353785Y-74541119D01*
X101401404Y-74636357D01*
X101401404Y-74731595D01*
X101353785Y-74874452D01*
X100782357Y-75445880D01*
X101401404Y-75445880D01*
G04 #@! TO.C,R13*
X100131642Y-86875880D02*
X99798309Y-86399690D01*
X99560214Y-86875880D02*
X99560214Y-85875880D01*
X99941166Y-85875880D01*
X100036404Y-85923500D01*
X100084023Y-85971119D01*
X100131642Y-86066357D01*
X100131642Y-86209214D01*
X100084023Y-86304452D01*
X100036404Y-86352071D01*
X99941166Y-86399690D01*
X99560214Y-86399690D01*
X101084023Y-86875880D02*
X100512595Y-86875880D01*
X100798309Y-86875880D02*
X100798309Y-85875880D01*
X100703071Y-86018738D01*
X100607833Y-86113976D01*
X100512595Y-86161595D01*
X101417357Y-85875880D02*
X102036404Y-85875880D01*
X101703071Y-86256833D01*
X101845928Y-86256833D01*
X101941166Y-86304452D01*
X101988785Y-86352071D01*
X102036404Y-86447309D01*
X102036404Y-86685404D01*
X101988785Y-86780642D01*
X101941166Y-86828261D01*
X101845928Y-86875880D01*
X101560214Y-86875880D01*
X101464976Y-86828261D01*
X101417357Y-86780642D01*
G04 #@! TO.C,R14*
X100131642Y-98305880D02*
X99798309Y-97829690D01*
X99560214Y-98305880D02*
X99560214Y-97305880D01*
X99941166Y-97305880D01*
X100036404Y-97353500D01*
X100084023Y-97401119D01*
X100131642Y-97496357D01*
X100131642Y-97639214D01*
X100084023Y-97734452D01*
X100036404Y-97782071D01*
X99941166Y-97829690D01*
X99560214Y-97829690D01*
X101084023Y-98305880D02*
X100512595Y-98305880D01*
X100798309Y-98305880D02*
X100798309Y-97305880D01*
X100703071Y-97448738D01*
X100607833Y-97543976D01*
X100512595Y-97591595D01*
X101941166Y-97639214D02*
X101941166Y-98305880D01*
X101703071Y-97258261D02*
X101464976Y-97972547D01*
X102084023Y-97972547D01*
G04 #@! TO.C,R15*
X100131642Y-109735880D02*
X99798309Y-109259690D01*
X99560214Y-109735880D02*
X99560214Y-108735880D01*
X99941166Y-108735880D01*
X100036404Y-108783500D01*
X100084023Y-108831119D01*
X100131642Y-108926357D01*
X100131642Y-109069214D01*
X100084023Y-109164452D01*
X100036404Y-109212071D01*
X99941166Y-109259690D01*
X99560214Y-109259690D01*
X101084023Y-109735880D02*
X100512595Y-109735880D01*
X100798309Y-109735880D02*
X100798309Y-108735880D01*
X100703071Y-108878738D01*
X100607833Y-108973976D01*
X100512595Y-109021595D01*
X101988785Y-108735880D02*
X101512595Y-108735880D01*
X101464976Y-109212071D01*
X101512595Y-109164452D01*
X101607833Y-109116833D01*
X101845928Y-109116833D01*
X101941166Y-109164452D01*
X101988785Y-109212071D01*
X102036404Y-109307309D01*
X102036404Y-109545404D01*
X101988785Y-109640642D01*
X101941166Y-109688261D01*
X101845928Y-109735880D01*
X101607833Y-109735880D01*
X101512595Y-109688261D01*
X101464976Y-109640642D01*
G04 #@! TO.C,R16*
X100131642Y-121165880D02*
X99798309Y-120689690D01*
X99560214Y-121165880D02*
X99560214Y-120165880D01*
X99941166Y-120165880D01*
X100036404Y-120213500D01*
X100084023Y-120261119D01*
X100131642Y-120356357D01*
X100131642Y-120499214D01*
X100084023Y-120594452D01*
X100036404Y-120642071D01*
X99941166Y-120689690D01*
X99560214Y-120689690D01*
X101084023Y-121165880D02*
X100512595Y-121165880D01*
X100798309Y-121165880D02*
X100798309Y-120165880D01*
X100703071Y-120308738D01*
X100607833Y-120403976D01*
X100512595Y-120451595D01*
X101941166Y-120165880D02*
X101750690Y-120165880D01*
X101655452Y-120213500D01*
X101607833Y-120261119D01*
X101512595Y-120403976D01*
X101464976Y-120594452D01*
X101464976Y-120975404D01*
X101512595Y-121070642D01*
X101560214Y-121118261D01*
X101655452Y-121165880D01*
X101845928Y-121165880D01*
X101941166Y-121118261D01*
X101988785Y-121070642D01*
X102036404Y-120975404D01*
X102036404Y-120737309D01*
X101988785Y-120642071D01*
X101941166Y-120594452D01*
X101845928Y-120546833D01*
X101655452Y-120546833D01*
X101560214Y-120594452D01*
X101512595Y-120642071D01*
X101464976Y-120737309D01*
G04 #@! TO.C,R17*
X99496642Y-132595880D02*
X99163309Y-132119690D01*
X98925214Y-132595880D02*
X98925214Y-131595880D01*
X99306166Y-131595880D01*
X99401404Y-131643500D01*
X99449023Y-131691119D01*
X99496642Y-131786357D01*
X99496642Y-131929214D01*
X99449023Y-132024452D01*
X99401404Y-132072071D01*
X99306166Y-132119690D01*
X98925214Y-132119690D01*
X100449023Y-132595880D02*
X99877595Y-132595880D01*
X100163309Y-132595880D02*
X100163309Y-131595880D01*
X100068071Y-131738738D01*
X99972833Y-131833976D01*
X99877595Y-131881595D01*
X100782357Y-131595880D02*
X101449023Y-131595880D01*
X101020452Y-132595880D01*
G04 #@! TO.C,R18*
X104957642Y-42933880D02*
X104624309Y-42457690D01*
X104386214Y-42933880D02*
X104386214Y-41933880D01*
X104767166Y-41933880D01*
X104862404Y-41981500D01*
X104910023Y-42029119D01*
X104957642Y-42124357D01*
X104957642Y-42267214D01*
X104910023Y-42362452D01*
X104862404Y-42410071D01*
X104767166Y-42457690D01*
X104386214Y-42457690D01*
X105910023Y-42933880D02*
X105338595Y-42933880D01*
X105624309Y-42933880D02*
X105624309Y-41933880D01*
X105529071Y-42076738D01*
X105433833Y-42171976D01*
X105338595Y-42219595D01*
X106481452Y-42362452D02*
X106386214Y-42314833D01*
X106338595Y-42267214D01*
X106290976Y-42171976D01*
X106290976Y-42124357D01*
X106338595Y-42029119D01*
X106386214Y-41981500D01*
X106481452Y-41933880D01*
X106671928Y-41933880D01*
X106767166Y-41981500D01*
X106814785Y-42029119D01*
X106862404Y-42124357D01*
X106862404Y-42171976D01*
X106814785Y-42267214D01*
X106767166Y-42314833D01*
X106671928Y-42362452D01*
X106481452Y-42362452D01*
X106386214Y-42410071D01*
X106338595Y-42457690D01*
X106290976Y-42552928D01*
X106290976Y-42743404D01*
X106338595Y-42838642D01*
X106386214Y-42886261D01*
X106481452Y-42933880D01*
X106671928Y-42933880D01*
X106767166Y-42886261D01*
X106814785Y-42838642D01*
X106862404Y-42743404D01*
X106862404Y-42552928D01*
X106814785Y-42457690D01*
X106767166Y-42410071D01*
X106671928Y-42362452D01*
G04 #@! TO.C,C2*
X55222142Y-45251666D02*
X55269761Y-45299285D01*
X55317380Y-45442142D01*
X55317380Y-45537380D01*
X55269761Y-45680238D01*
X55174523Y-45775476D01*
X55079285Y-45823095D01*
X54888809Y-45870714D01*
X54745952Y-45870714D01*
X54555476Y-45823095D01*
X54460238Y-45775476D01*
X54365000Y-45680238D01*
X54317380Y-45537380D01*
X54317380Y-45442142D01*
X54365000Y-45299285D01*
X54412619Y-45251666D01*
X54412619Y-44870714D02*
X54365000Y-44823095D01*
X54317380Y-44727857D01*
X54317380Y-44489761D01*
X54365000Y-44394523D01*
X54412619Y-44346904D01*
X54507857Y-44299285D01*
X54603095Y-44299285D01*
X54745952Y-44346904D01*
X55317380Y-44918333D01*
X55317380Y-44299285D01*
G04 #@! TO.C,C5*
X51785333Y-87226142D02*
X51737714Y-87273761D01*
X51594857Y-87321380D01*
X51499619Y-87321380D01*
X51356761Y-87273761D01*
X51261523Y-87178523D01*
X51213904Y-87083285D01*
X51166285Y-86892809D01*
X51166285Y-86749952D01*
X51213904Y-86559476D01*
X51261523Y-86464238D01*
X51356761Y-86369000D01*
X51499619Y-86321380D01*
X51594857Y-86321380D01*
X51737714Y-86369000D01*
X51785333Y-86416619D01*
X52690095Y-86321380D02*
X52213904Y-86321380D01*
X52166285Y-86797571D01*
X52213904Y-86749952D01*
X52309142Y-86702333D01*
X52547238Y-86702333D01*
X52642476Y-86749952D01*
X52690095Y-86797571D01*
X52737714Y-86892809D01*
X52737714Y-87130904D01*
X52690095Y-87226142D01*
X52642476Y-87273761D01*
X52547238Y-87321380D01*
X52309142Y-87321380D01*
X52213904Y-87273761D01*
X52166285Y-87226142D01*
G04 #@! TO.C,D1*
X76976904Y-54172380D02*
X76976904Y-53172380D01*
X77215000Y-53172380D01*
X77357857Y-53220000D01*
X77453095Y-53315238D01*
X77500714Y-53410476D01*
X77548333Y-53600952D01*
X77548333Y-53743809D01*
X77500714Y-53934285D01*
X77453095Y-54029523D01*
X77357857Y-54124761D01*
X77215000Y-54172380D01*
X76976904Y-54172380D01*
X78500714Y-54172380D02*
X77929285Y-54172380D01*
X78215000Y-54172380D02*
X78215000Y-53172380D01*
X78119761Y-53315238D01*
X78024523Y-53410476D01*
X77929285Y-53458095D01*
G04 #@! TO.C,D2*
X76976904Y-65602380D02*
X76976904Y-64602380D01*
X77215000Y-64602380D01*
X77357857Y-64650000D01*
X77453095Y-64745238D01*
X77500714Y-64840476D01*
X77548333Y-65030952D01*
X77548333Y-65173809D01*
X77500714Y-65364285D01*
X77453095Y-65459523D01*
X77357857Y-65554761D01*
X77215000Y-65602380D01*
X76976904Y-65602380D01*
X77929285Y-64697619D02*
X77976904Y-64650000D01*
X78072142Y-64602380D01*
X78310238Y-64602380D01*
X78405476Y-64650000D01*
X78453095Y-64697619D01*
X78500714Y-64792857D01*
X78500714Y-64888095D01*
X78453095Y-65030952D01*
X77881666Y-65602380D01*
X78500714Y-65602380D01*
G04 #@! TO.C,D3*
X76976904Y-77032380D02*
X76976904Y-76032380D01*
X77215000Y-76032380D01*
X77357857Y-76080000D01*
X77453095Y-76175238D01*
X77500714Y-76270476D01*
X77548333Y-76460952D01*
X77548333Y-76603809D01*
X77500714Y-76794285D01*
X77453095Y-76889523D01*
X77357857Y-76984761D01*
X77215000Y-77032380D01*
X76976904Y-77032380D01*
X77881666Y-76032380D02*
X78500714Y-76032380D01*
X78167380Y-76413333D01*
X78310238Y-76413333D01*
X78405476Y-76460952D01*
X78453095Y-76508571D01*
X78500714Y-76603809D01*
X78500714Y-76841904D01*
X78453095Y-76937142D01*
X78405476Y-76984761D01*
X78310238Y-77032380D01*
X78024523Y-77032380D01*
X77929285Y-76984761D01*
X77881666Y-76937142D01*
G04 #@! TO.C,D4*
X76976904Y-88462380D02*
X76976904Y-87462380D01*
X77215000Y-87462380D01*
X77357857Y-87510000D01*
X77453095Y-87605238D01*
X77500714Y-87700476D01*
X77548333Y-87890952D01*
X77548333Y-88033809D01*
X77500714Y-88224285D01*
X77453095Y-88319523D01*
X77357857Y-88414761D01*
X77215000Y-88462380D01*
X76976904Y-88462380D01*
X78405476Y-87795714D02*
X78405476Y-88462380D01*
X78167380Y-87414761D02*
X77929285Y-88129047D01*
X78548333Y-88129047D01*
G04 #@! TO.C,D5*
X76976904Y-99892380D02*
X76976904Y-98892380D01*
X77215000Y-98892380D01*
X77357857Y-98940000D01*
X77453095Y-99035238D01*
X77500714Y-99130476D01*
X77548333Y-99320952D01*
X77548333Y-99463809D01*
X77500714Y-99654285D01*
X77453095Y-99749523D01*
X77357857Y-99844761D01*
X77215000Y-99892380D01*
X76976904Y-99892380D01*
X78453095Y-98892380D02*
X77976904Y-98892380D01*
X77929285Y-99368571D01*
X77976904Y-99320952D01*
X78072142Y-99273333D01*
X78310238Y-99273333D01*
X78405476Y-99320952D01*
X78453095Y-99368571D01*
X78500714Y-99463809D01*
X78500714Y-99701904D01*
X78453095Y-99797142D01*
X78405476Y-99844761D01*
X78310238Y-99892380D01*
X78072142Y-99892380D01*
X77976904Y-99844761D01*
X77929285Y-99797142D01*
G04 #@! TO.C,D6*
X76976904Y-111322380D02*
X76976904Y-110322380D01*
X77215000Y-110322380D01*
X77357857Y-110370000D01*
X77453095Y-110465238D01*
X77500714Y-110560476D01*
X77548333Y-110750952D01*
X77548333Y-110893809D01*
X77500714Y-111084285D01*
X77453095Y-111179523D01*
X77357857Y-111274761D01*
X77215000Y-111322380D01*
X76976904Y-111322380D01*
X78405476Y-110322380D02*
X78215000Y-110322380D01*
X78119761Y-110370000D01*
X78072142Y-110417619D01*
X77976904Y-110560476D01*
X77929285Y-110750952D01*
X77929285Y-111131904D01*
X77976904Y-111227142D01*
X78024523Y-111274761D01*
X78119761Y-111322380D01*
X78310238Y-111322380D01*
X78405476Y-111274761D01*
X78453095Y-111227142D01*
X78500714Y-111131904D01*
X78500714Y-110893809D01*
X78453095Y-110798571D01*
X78405476Y-110750952D01*
X78310238Y-110703333D01*
X78119761Y-110703333D01*
X78024523Y-110750952D01*
X77976904Y-110798571D01*
X77929285Y-110893809D01*
G04 #@! TO.C,D7*
X76731904Y-122752380D02*
X76731904Y-121752380D01*
X76970000Y-121752380D01*
X77112857Y-121800000D01*
X77208095Y-121895238D01*
X77255714Y-121990476D01*
X77303333Y-122180952D01*
X77303333Y-122323809D01*
X77255714Y-122514285D01*
X77208095Y-122609523D01*
X77112857Y-122704761D01*
X76970000Y-122752380D01*
X76731904Y-122752380D01*
X77636666Y-121752380D02*
X78303333Y-121752380D01*
X77874761Y-122752380D01*
G04 #@! TO.C,D8*
X76976904Y-134182380D02*
X76976904Y-133182380D01*
X77215000Y-133182380D01*
X77357857Y-133230000D01*
X77453095Y-133325238D01*
X77500714Y-133420476D01*
X77548333Y-133610952D01*
X77548333Y-133753809D01*
X77500714Y-133944285D01*
X77453095Y-134039523D01*
X77357857Y-134134761D01*
X77215000Y-134182380D01*
X76976904Y-134182380D01*
X78119761Y-133610952D02*
X78024523Y-133563333D01*
X77976904Y-133515714D01*
X77929285Y-133420476D01*
X77929285Y-133372857D01*
X77976904Y-133277619D01*
X78024523Y-133230000D01*
X78119761Y-133182380D01*
X78310238Y-133182380D01*
X78405476Y-133230000D01*
X78453095Y-133277619D01*
X78500714Y-133372857D01*
X78500714Y-133420476D01*
X78453095Y-133515714D01*
X78405476Y-133563333D01*
X78310238Y-133610952D01*
X78119761Y-133610952D01*
X78024523Y-133658571D01*
X77976904Y-133706190D01*
X77929285Y-133801428D01*
X77929285Y-133991904D01*
X77976904Y-134087142D01*
X78024523Y-134134761D01*
X78119761Y-134182380D01*
X78310238Y-134182380D01*
X78405476Y-134134761D01*
X78453095Y-134087142D01*
X78500714Y-133991904D01*
X78500714Y-133801428D01*
X78453095Y-133706190D01*
X78405476Y-133658571D01*
X78310238Y-133610952D01*
G04 #@! TO.C,R2*
X77548333Y-54682380D02*
X77215000Y-54206190D01*
X76976904Y-54682380D02*
X76976904Y-53682380D01*
X77357857Y-53682380D01*
X77453095Y-53730000D01*
X77500714Y-53777619D01*
X77548333Y-53872857D01*
X77548333Y-54015714D01*
X77500714Y-54110952D01*
X77453095Y-54158571D01*
X77357857Y-54206190D01*
X76976904Y-54206190D01*
X77929285Y-53777619D02*
X77976904Y-53730000D01*
X78072142Y-53682380D01*
X78310238Y-53682380D01*
X78405476Y-53730000D01*
X78453095Y-53777619D01*
X78500714Y-53872857D01*
X78500714Y-53968095D01*
X78453095Y-54110952D01*
X77881666Y-54682380D01*
X78500714Y-54682380D01*
G04 #@! TO.C,R3*
X77548333Y-66112380D02*
X77215000Y-65636190D01*
X76976904Y-66112380D02*
X76976904Y-65112380D01*
X77357857Y-65112380D01*
X77453095Y-65160000D01*
X77500714Y-65207619D01*
X77548333Y-65302857D01*
X77548333Y-65445714D01*
X77500714Y-65540952D01*
X77453095Y-65588571D01*
X77357857Y-65636190D01*
X76976904Y-65636190D01*
X77881666Y-65112380D02*
X78500714Y-65112380D01*
X78167380Y-65493333D01*
X78310238Y-65493333D01*
X78405476Y-65540952D01*
X78453095Y-65588571D01*
X78500714Y-65683809D01*
X78500714Y-65921904D01*
X78453095Y-66017142D01*
X78405476Y-66064761D01*
X78310238Y-66112380D01*
X78024523Y-66112380D01*
X77929285Y-66064761D01*
X77881666Y-66017142D01*
G04 #@! TO.C,R4*
X77548333Y-77542380D02*
X77215000Y-77066190D01*
X76976904Y-77542380D02*
X76976904Y-76542380D01*
X77357857Y-76542380D01*
X77453095Y-76590000D01*
X77500714Y-76637619D01*
X77548333Y-76732857D01*
X77548333Y-76875714D01*
X77500714Y-76970952D01*
X77453095Y-77018571D01*
X77357857Y-77066190D01*
X76976904Y-77066190D01*
X78405476Y-76875714D02*
X78405476Y-77542380D01*
X78167380Y-76494761D02*
X77929285Y-77209047D01*
X78548333Y-77209047D01*
G04 #@! TO.C,R5*
X77303333Y-88972380D02*
X76970000Y-88496190D01*
X76731904Y-88972380D02*
X76731904Y-87972380D01*
X77112857Y-87972380D01*
X77208095Y-88020000D01*
X77255714Y-88067619D01*
X77303333Y-88162857D01*
X77303333Y-88305714D01*
X77255714Y-88400952D01*
X77208095Y-88448571D01*
X77112857Y-88496190D01*
X76731904Y-88496190D01*
X78208095Y-87972380D02*
X77731904Y-87972380D01*
X77684285Y-88448571D01*
X77731904Y-88400952D01*
X77827142Y-88353333D01*
X78065238Y-88353333D01*
X78160476Y-88400952D01*
X78208095Y-88448571D01*
X78255714Y-88543809D01*
X78255714Y-88781904D01*
X78208095Y-88877142D01*
X78160476Y-88924761D01*
X78065238Y-88972380D01*
X77827142Y-88972380D01*
X77731904Y-88924761D01*
X77684285Y-88877142D01*
G04 #@! TO.C,R6*
X77548333Y-100402380D02*
X77215000Y-99926190D01*
X76976904Y-100402380D02*
X76976904Y-99402380D01*
X77357857Y-99402380D01*
X77453095Y-99450000D01*
X77500714Y-99497619D01*
X77548333Y-99592857D01*
X77548333Y-99735714D01*
X77500714Y-99830952D01*
X77453095Y-99878571D01*
X77357857Y-99926190D01*
X76976904Y-99926190D01*
X78405476Y-99402380D02*
X78215000Y-99402380D01*
X78119761Y-99450000D01*
X78072142Y-99497619D01*
X77976904Y-99640476D01*
X77929285Y-99830952D01*
X77929285Y-100211904D01*
X77976904Y-100307142D01*
X78024523Y-100354761D01*
X78119761Y-100402380D01*
X78310238Y-100402380D01*
X78405476Y-100354761D01*
X78453095Y-100307142D01*
X78500714Y-100211904D01*
X78500714Y-99973809D01*
X78453095Y-99878571D01*
X78405476Y-99830952D01*
X78310238Y-99783333D01*
X78119761Y-99783333D01*
X78024523Y-99830952D01*
X77976904Y-99878571D01*
X77929285Y-99973809D01*
G04 #@! TO.C,R7*
X77548333Y-111832380D02*
X77215000Y-111356190D01*
X76976904Y-111832380D02*
X76976904Y-110832380D01*
X77357857Y-110832380D01*
X77453095Y-110880000D01*
X77500714Y-110927619D01*
X77548333Y-111022857D01*
X77548333Y-111165714D01*
X77500714Y-111260952D01*
X77453095Y-111308571D01*
X77357857Y-111356190D01*
X76976904Y-111356190D01*
X77881666Y-110832380D02*
X78548333Y-110832380D01*
X78119761Y-111832380D01*
G04 #@! TO.C,R8*
X77548333Y-123262380D02*
X77215000Y-122786190D01*
X76976904Y-123262380D02*
X76976904Y-122262380D01*
X77357857Y-122262380D01*
X77453095Y-122310000D01*
X77500714Y-122357619D01*
X77548333Y-122452857D01*
X77548333Y-122595714D01*
X77500714Y-122690952D01*
X77453095Y-122738571D01*
X77357857Y-122786190D01*
X76976904Y-122786190D01*
X78119761Y-122690952D02*
X78024523Y-122643333D01*
X77976904Y-122595714D01*
X77929285Y-122500476D01*
X77929285Y-122452857D01*
X77976904Y-122357619D01*
X78024523Y-122310000D01*
X78119761Y-122262380D01*
X78310238Y-122262380D01*
X78405476Y-122310000D01*
X78453095Y-122357619D01*
X78500714Y-122452857D01*
X78500714Y-122500476D01*
X78453095Y-122595714D01*
X78405476Y-122643333D01*
X78310238Y-122690952D01*
X78119761Y-122690952D01*
X78024523Y-122738571D01*
X77976904Y-122786190D01*
X77929285Y-122881428D01*
X77929285Y-123071904D01*
X77976904Y-123167142D01*
X78024523Y-123214761D01*
X78119761Y-123262380D01*
X78310238Y-123262380D01*
X78405476Y-123214761D01*
X78453095Y-123167142D01*
X78500714Y-123071904D01*
X78500714Y-122881428D01*
X78453095Y-122786190D01*
X78405476Y-122738571D01*
X78310238Y-122690952D01*
G04 #@! TO.C,R9*
X77548333Y-134692380D02*
X77215000Y-134216190D01*
X76976904Y-134692380D02*
X76976904Y-133692380D01*
X77357857Y-133692380D01*
X77453095Y-133740000D01*
X77500714Y-133787619D01*
X77548333Y-133882857D01*
X77548333Y-134025714D01*
X77500714Y-134120952D01*
X77453095Y-134168571D01*
X77357857Y-134216190D01*
X76976904Y-134216190D01*
X78024523Y-134692380D02*
X78215000Y-134692380D01*
X78310238Y-134644761D01*
X78357857Y-134597142D01*
X78453095Y-134454285D01*
X78500714Y-134263809D01*
X78500714Y-133882857D01*
X78453095Y-133787619D01*
X78405476Y-133740000D01*
X78310238Y-133692380D01*
X78119761Y-133692380D01*
X78024523Y-133740000D01*
X77976904Y-133787619D01*
X77929285Y-133882857D01*
X77929285Y-134120952D01*
X77976904Y-134216190D01*
X78024523Y-134263809D01*
X78119761Y-134311428D01*
X78310238Y-134311428D01*
X78405476Y-134263809D01*
X78453095Y-134216190D01*
X78500714Y-134120952D01*
G04 #@! TO.C,R19*
X77072142Y-44522380D02*
X76738809Y-44046190D01*
X76500714Y-44522380D02*
X76500714Y-43522380D01*
X76881666Y-43522380D01*
X76976904Y-43570000D01*
X77024523Y-43617619D01*
X77072142Y-43712857D01*
X77072142Y-43855714D01*
X77024523Y-43950952D01*
X76976904Y-43998571D01*
X76881666Y-44046190D01*
X76500714Y-44046190D01*
X78024523Y-44522380D02*
X77453095Y-44522380D01*
X77738809Y-44522380D02*
X77738809Y-43522380D01*
X77643571Y-43665238D01*
X77548333Y-43760476D01*
X77453095Y-43808095D01*
X78500714Y-44522380D02*
X78691190Y-44522380D01*
X78786428Y-44474761D01*
X78834047Y-44427142D01*
X78929285Y-44284285D01*
X78976904Y-44093809D01*
X78976904Y-43712857D01*
X78929285Y-43617619D01*
X78881666Y-43570000D01*
X78786428Y-43522380D01*
X78595952Y-43522380D01*
X78500714Y-43570000D01*
X78453095Y-43617619D01*
X78405476Y-43712857D01*
X78405476Y-43950952D01*
X78453095Y-44046190D01*
X78500714Y-44093809D01*
X78595952Y-44141428D01*
X78786428Y-44141428D01*
X78881666Y-44093809D01*
X78929285Y-44046190D01*
X78976904Y-43950952D01*
G04 #@! TO.C,R20*
X47443380Y-70882857D02*
X46967190Y-71216190D01*
X47443380Y-71454285D02*
X46443380Y-71454285D01*
X46443380Y-71073333D01*
X46491000Y-70978095D01*
X46538619Y-70930476D01*
X46633857Y-70882857D01*
X46776714Y-70882857D01*
X46871952Y-70930476D01*
X46919571Y-70978095D01*
X46967190Y-71073333D01*
X46967190Y-71454285D01*
X46538619Y-70501904D02*
X46491000Y-70454285D01*
X46443380Y-70359047D01*
X46443380Y-70120952D01*
X46491000Y-70025714D01*
X46538619Y-69978095D01*
X46633857Y-69930476D01*
X46729095Y-69930476D01*
X46871952Y-69978095D01*
X47443380Y-70549523D01*
X47443380Y-69930476D01*
X46443380Y-69311428D02*
X46443380Y-69216190D01*
X46491000Y-69120952D01*
X46538619Y-69073333D01*
X46633857Y-69025714D01*
X46824333Y-68978095D01*
X47062428Y-68978095D01*
X47252904Y-69025714D01*
X47348142Y-69073333D01*
X47395761Y-69120952D01*
X47443380Y-69216190D01*
X47443380Y-69311428D01*
X47395761Y-69406666D01*
X47348142Y-69454285D01*
X47252904Y-69501904D01*
X47062428Y-69549523D01*
X46824333Y-69549523D01*
X46633857Y-69501904D01*
X46538619Y-69454285D01*
X46491000Y-69406666D01*
X46443380Y-69311428D01*
G04 #@! TO.C,SW1*
X52346666Y-59771761D02*
X52489523Y-59819380D01*
X52727619Y-59819380D01*
X52822857Y-59771761D01*
X52870476Y-59724142D01*
X52918095Y-59628904D01*
X52918095Y-59533666D01*
X52870476Y-59438428D01*
X52822857Y-59390809D01*
X52727619Y-59343190D01*
X52537142Y-59295571D01*
X52441904Y-59247952D01*
X52394285Y-59200333D01*
X52346666Y-59105095D01*
X52346666Y-59009857D01*
X52394285Y-58914619D01*
X52441904Y-58867000D01*
X52537142Y-58819380D01*
X52775238Y-58819380D01*
X52918095Y-58867000D01*
X53251428Y-58819380D02*
X53489523Y-59819380D01*
X53680000Y-59105095D01*
X53870476Y-59819380D01*
X54108571Y-58819380D01*
X55013333Y-59819380D02*
X54441904Y-59819380D01*
X54727619Y-59819380D02*
X54727619Y-58819380D01*
X54632380Y-58962238D01*
X54537142Y-59057476D01*
X54441904Y-59105095D01*
X52227619Y-51669380D02*
X51894285Y-51193190D01*
X51656190Y-51669380D02*
X51656190Y-50669380D01*
X52037142Y-50669380D01*
X52132380Y-50717000D01*
X52180000Y-50764619D01*
X52227619Y-50859857D01*
X52227619Y-51002714D01*
X52180000Y-51097952D01*
X52132380Y-51145571D01*
X52037142Y-51193190D01*
X51656190Y-51193190D01*
X52656190Y-51145571D02*
X52989523Y-51145571D01*
X53132380Y-51669380D02*
X52656190Y-51669380D01*
X52656190Y-50669380D01*
X53132380Y-50669380D01*
X53513333Y-51621761D02*
X53656190Y-51669380D01*
X53894285Y-51669380D01*
X53989523Y-51621761D01*
X54037142Y-51574142D01*
X54084761Y-51478904D01*
X54084761Y-51383666D01*
X54037142Y-51288428D01*
X53989523Y-51240809D01*
X53894285Y-51193190D01*
X53703809Y-51145571D01*
X53608571Y-51097952D01*
X53560952Y-51050333D01*
X53513333Y-50955095D01*
X53513333Y-50859857D01*
X53560952Y-50764619D01*
X53608571Y-50717000D01*
X53703809Y-50669380D01*
X53941904Y-50669380D01*
X54084761Y-50717000D01*
X54513333Y-51145571D02*
X54846666Y-51145571D01*
X54989523Y-51669380D02*
X54513333Y-51669380D01*
X54513333Y-50669380D01*
X54989523Y-50669380D01*
X55275238Y-50669380D02*
X55846666Y-50669380D01*
X55560952Y-51669380D02*
X55560952Y-50669380D01*
G04 #@! TO.C,U3*
X48368095Y-66582380D02*
X48368095Y-67391904D01*
X48415714Y-67487142D01*
X48463333Y-67534761D01*
X48558571Y-67582380D01*
X48749047Y-67582380D01*
X48844285Y-67534761D01*
X48891904Y-67487142D01*
X48939523Y-67391904D01*
X48939523Y-66582380D01*
X49320476Y-66582380D02*
X49939523Y-66582380D01*
X49606190Y-66963333D01*
X49749047Y-66963333D01*
X49844285Y-67010952D01*
X49891904Y-67058571D01*
X49939523Y-67153809D01*
X49939523Y-67391904D01*
X49891904Y-67487142D01*
X49844285Y-67534761D01*
X49749047Y-67582380D01*
X49463333Y-67582380D01*
X49368095Y-67534761D01*
X49320476Y-67487142D01*
G04 #@! TO.C,U4*
X57277095Y-94852380D02*
X57277095Y-95661904D01*
X57324714Y-95757142D01*
X57372333Y-95804761D01*
X57467571Y-95852380D01*
X57658047Y-95852380D01*
X57753285Y-95804761D01*
X57800904Y-95757142D01*
X57848523Y-95661904D01*
X57848523Y-94852380D01*
X58753285Y-95185714D02*
X58753285Y-95852380D01*
X58515190Y-94804761D02*
X58277095Y-95519047D01*
X58896142Y-95519047D01*
G04 #@! TO.C,P11*
X55808714Y-41219380D02*
X55808714Y-40219380D01*
X56189666Y-40219380D01*
X56284904Y-40267000D01*
X56332523Y-40314619D01*
X56380142Y-40409857D01*
X56380142Y-40552714D01*
X56332523Y-40647952D01*
X56284904Y-40695571D01*
X56189666Y-40743190D01*
X55808714Y-40743190D01*
X57332523Y-41219380D02*
X56761095Y-41219380D01*
X57046809Y-41219380D02*
X57046809Y-40219380D01*
X56951571Y-40362238D01*
X56856333Y-40457476D01*
X56761095Y-40505095D01*
X58284904Y-41219380D02*
X57713476Y-41219380D01*
X57999190Y-41219380D02*
X57999190Y-40219380D01*
X57903952Y-40362238D01*
X57808714Y-40457476D01*
X57713476Y-40505095D01*
G04 #@! TO.C,U2*
X62484095Y-39910380D02*
X62484095Y-40719904D01*
X62531714Y-40815142D01*
X62579333Y-40862761D01*
X62674571Y-40910380D01*
X62865047Y-40910380D01*
X62960285Y-40862761D01*
X63007904Y-40815142D01*
X63055523Y-40719904D01*
X63055523Y-39910380D01*
X63484095Y-40005619D02*
X63531714Y-39958000D01*
X63626952Y-39910380D01*
X63865047Y-39910380D01*
X63960285Y-39958000D01*
X64007904Y-40005619D01*
X64055523Y-40100857D01*
X64055523Y-40196095D01*
X64007904Y-40338952D01*
X63436476Y-40910380D01*
X64055523Y-40910380D01*
G04 #@! TO.C,J1*
X72140380Y-55959333D02*
X72854666Y-55959333D01*
X72997523Y-56006952D01*
X73092761Y-56102190D01*
X73140380Y-56245047D01*
X73140380Y-56340285D01*
X73140380Y-54959333D02*
X73140380Y-55530761D01*
X73140380Y-55245047D02*
X72140380Y-55245047D01*
X72283238Y-55340285D01*
X72378476Y-55435523D01*
X72426095Y-55530761D01*
X66333809Y-58364380D02*
X66333809Y-57364380D01*
X66762380Y-58316761D02*
X66905238Y-58364380D01*
X67143333Y-58364380D01*
X67238571Y-58316761D01*
X67286190Y-58269142D01*
X67333809Y-58173904D01*
X67333809Y-58078666D01*
X67286190Y-57983428D01*
X67238571Y-57935809D01*
X67143333Y-57888190D01*
X66952857Y-57840571D01*
X66857619Y-57792952D01*
X66810000Y-57745333D01*
X66762380Y-57650095D01*
X66762380Y-57554857D01*
X66810000Y-57459619D01*
X66857619Y-57412000D01*
X66952857Y-57364380D01*
X67190952Y-57364380D01*
X67333809Y-57412000D01*
X67762380Y-58364380D02*
X67762380Y-57364380D01*
X68143333Y-57364380D01*
X68238571Y-57412000D01*
X68286190Y-57459619D01*
X68333809Y-57554857D01*
X68333809Y-57697714D01*
X68286190Y-57792952D01*
X68238571Y-57840571D01*
X68143333Y-57888190D01*
X67762380Y-57888190D01*
G04 #@! TO.C,R21*
X47823380Y-97652857D02*
X47347190Y-97986190D01*
X47823380Y-98224285D02*
X46823380Y-98224285D01*
X46823380Y-97843333D01*
X46871000Y-97748095D01*
X46918619Y-97700476D01*
X47013857Y-97652857D01*
X47156714Y-97652857D01*
X47251952Y-97700476D01*
X47299571Y-97748095D01*
X47347190Y-97843333D01*
X47347190Y-98224285D01*
X46918619Y-97271904D02*
X46871000Y-97224285D01*
X46823380Y-97129047D01*
X46823380Y-96890952D01*
X46871000Y-96795714D01*
X46918619Y-96748095D01*
X47013857Y-96700476D01*
X47109095Y-96700476D01*
X47251952Y-96748095D01*
X47823380Y-97319523D01*
X47823380Y-96700476D01*
X47823380Y-95748095D02*
X47823380Y-96319523D01*
X47823380Y-96033809D02*
X46823380Y-96033809D01*
X46966238Y-96129047D01*
X47061476Y-96224285D01*
X47109095Y-96319523D01*
G04 #@! TO.C,P2*
X134056380Y-45950095D02*
X133056380Y-45950095D01*
X133056380Y-45569142D01*
X133104000Y-45473904D01*
X133151619Y-45426285D01*
X133246857Y-45378666D01*
X133389714Y-45378666D01*
X133484952Y-45426285D01*
X133532571Y-45473904D01*
X133580190Y-45569142D01*
X133580190Y-45950095D01*
X133151619Y-44997714D02*
X133104000Y-44950095D01*
X133056380Y-44854857D01*
X133056380Y-44616761D01*
X133104000Y-44521523D01*
X133151619Y-44473904D01*
X133246857Y-44426285D01*
X133342095Y-44426285D01*
X133484952Y-44473904D01*
X134056380Y-45045333D01*
X134056380Y-44426285D01*
G04 #@! TO.C,P3*
X134056380Y-56364095D02*
X133056380Y-56364095D01*
X133056380Y-55983142D01*
X133104000Y-55887904D01*
X133151619Y-55840285D01*
X133246857Y-55792666D01*
X133389714Y-55792666D01*
X133484952Y-55840285D01*
X133532571Y-55887904D01*
X133580190Y-55983142D01*
X133580190Y-56364095D01*
X133056380Y-55459333D02*
X133056380Y-54840285D01*
X133437333Y-55173619D01*
X133437333Y-55030761D01*
X133484952Y-54935523D01*
X133532571Y-54887904D01*
X133627809Y-54840285D01*
X133865904Y-54840285D01*
X133961142Y-54887904D01*
X134008761Y-54935523D01*
X134056380Y-55030761D01*
X134056380Y-55316476D01*
X134008761Y-55411714D01*
X133961142Y-55459333D01*
G04 #@! TO.C,P4*
X134056380Y-66778095D02*
X133056380Y-66778095D01*
X133056380Y-66397142D01*
X133104000Y-66301904D01*
X133151619Y-66254285D01*
X133246857Y-66206666D01*
X133389714Y-66206666D01*
X133484952Y-66254285D01*
X133532571Y-66301904D01*
X133580190Y-66397142D01*
X133580190Y-66778095D01*
X133389714Y-65349523D02*
X134056380Y-65349523D01*
X133008761Y-65587619D02*
X133723047Y-65825714D01*
X133723047Y-65206666D01*
G04 #@! TO.C,P5*
X134056380Y-78208095D02*
X133056380Y-78208095D01*
X133056380Y-77827142D01*
X133104000Y-77731904D01*
X133151619Y-77684285D01*
X133246857Y-77636666D01*
X133389714Y-77636666D01*
X133484952Y-77684285D01*
X133532571Y-77731904D01*
X133580190Y-77827142D01*
X133580190Y-78208095D01*
X133056380Y-76731904D02*
X133056380Y-77208095D01*
X133532571Y-77255714D01*
X133484952Y-77208095D01*
X133437333Y-77112857D01*
X133437333Y-76874761D01*
X133484952Y-76779523D01*
X133532571Y-76731904D01*
X133627809Y-76684285D01*
X133865904Y-76684285D01*
X133961142Y-76731904D01*
X134008761Y-76779523D01*
X134056380Y-76874761D01*
X134056380Y-77112857D01*
X134008761Y-77208095D01*
X133961142Y-77255714D01*
G04 #@! TO.C,P6*
X134056380Y-89638095D02*
X133056380Y-89638095D01*
X133056380Y-89257142D01*
X133104000Y-89161904D01*
X133151619Y-89114285D01*
X133246857Y-89066666D01*
X133389714Y-89066666D01*
X133484952Y-89114285D01*
X133532571Y-89161904D01*
X133580190Y-89257142D01*
X133580190Y-89638095D01*
X133056380Y-88209523D02*
X133056380Y-88400000D01*
X133104000Y-88495238D01*
X133151619Y-88542857D01*
X133294476Y-88638095D01*
X133484952Y-88685714D01*
X133865904Y-88685714D01*
X133961142Y-88638095D01*
X134008761Y-88590476D01*
X134056380Y-88495238D01*
X134056380Y-88304761D01*
X134008761Y-88209523D01*
X133961142Y-88161904D01*
X133865904Y-88114285D01*
X133627809Y-88114285D01*
X133532571Y-88161904D01*
X133484952Y-88209523D01*
X133437333Y-88304761D01*
X133437333Y-88495238D01*
X133484952Y-88590476D01*
X133532571Y-88638095D01*
X133627809Y-88685714D01*
G04 #@! TO.C,P7*
X134056380Y-101068095D02*
X133056380Y-101068095D01*
X133056380Y-100687142D01*
X133104000Y-100591904D01*
X133151619Y-100544285D01*
X133246857Y-100496666D01*
X133389714Y-100496666D01*
X133484952Y-100544285D01*
X133532571Y-100591904D01*
X133580190Y-100687142D01*
X133580190Y-101068095D01*
X133056380Y-100163333D02*
X133056380Y-99496666D01*
X134056380Y-99925238D01*
G04 #@! TO.C,P8*
X134056380Y-112498095D02*
X133056380Y-112498095D01*
X133056380Y-112117142D01*
X133104000Y-112021904D01*
X133151619Y-111974285D01*
X133246857Y-111926666D01*
X133389714Y-111926666D01*
X133484952Y-111974285D01*
X133532571Y-112021904D01*
X133580190Y-112117142D01*
X133580190Y-112498095D01*
X133484952Y-111355238D02*
X133437333Y-111450476D01*
X133389714Y-111498095D01*
X133294476Y-111545714D01*
X133246857Y-111545714D01*
X133151619Y-111498095D01*
X133104000Y-111450476D01*
X133056380Y-111355238D01*
X133056380Y-111164761D01*
X133104000Y-111069523D01*
X133151619Y-111021904D01*
X133246857Y-110974285D01*
X133294476Y-110974285D01*
X133389714Y-111021904D01*
X133437333Y-111069523D01*
X133484952Y-111164761D01*
X133484952Y-111355238D01*
X133532571Y-111450476D01*
X133580190Y-111498095D01*
X133675428Y-111545714D01*
X133865904Y-111545714D01*
X133961142Y-111498095D01*
X134008761Y-111450476D01*
X134056380Y-111355238D01*
X134056380Y-111164761D01*
X134008761Y-111069523D01*
X133961142Y-111021904D01*
X133865904Y-110974285D01*
X133675428Y-110974285D01*
X133580190Y-111021904D01*
X133532571Y-111069523D01*
X133484952Y-111164761D01*
G04 #@! TO.C,P9*
X134056380Y-123928095D02*
X133056380Y-123928095D01*
X133056380Y-123547142D01*
X133104000Y-123451904D01*
X133151619Y-123404285D01*
X133246857Y-123356666D01*
X133389714Y-123356666D01*
X133484952Y-123404285D01*
X133532571Y-123451904D01*
X133580190Y-123547142D01*
X133580190Y-123928095D01*
X134056380Y-122880476D02*
X134056380Y-122690000D01*
X134008761Y-122594761D01*
X133961142Y-122547142D01*
X133818285Y-122451904D01*
X133627809Y-122404285D01*
X133246857Y-122404285D01*
X133151619Y-122451904D01*
X133104000Y-122499523D01*
X133056380Y-122594761D01*
X133056380Y-122785238D01*
X133104000Y-122880476D01*
X133151619Y-122928095D01*
X133246857Y-122975714D01*
X133484952Y-122975714D01*
X133580190Y-122928095D01*
X133627809Y-122880476D01*
X133675428Y-122785238D01*
X133675428Y-122594761D01*
X133627809Y-122499523D01*
X133580190Y-122451904D01*
X133484952Y-122404285D01*
G04 #@! TO.C,P10*
X134056380Y-135707285D02*
X133056380Y-135707285D01*
X133056380Y-135326333D01*
X133104000Y-135231095D01*
X133151619Y-135183476D01*
X133246857Y-135135857D01*
X133389714Y-135135857D01*
X133484952Y-135183476D01*
X133532571Y-135231095D01*
X133580190Y-135326333D01*
X133580190Y-135707285D01*
X134056380Y-134183476D02*
X134056380Y-134754904D01*
X134056380Y-134469190D02*
X133056380Y-134469190D01*
X133199238Y-134564428D01*
X133294476Y-134659666D01*
X133342095Y-134754904D01*
X133056380Y-133564428D02*
X133056380Y-133469190D01*
X133104000Y-133373952D01*
X133151619Y-133326333D01*
X133246857Y-133278714D01*
X133437333Y-133231095D01*
X133675428Y-133231095D01*
X133865904Y-133278714D01*
X133961142Y-133326333D01*
X134008761Y-133373952D01*
X134056380Y-133469190D01*
X134056380Y-133564428D01*
X134008761Y-133659666D01*
X133961142Y-133707285D01*
X133865904Y-133754904D01*
X133675428Y-133802523D01*
X133437333Y-133802523D01*
X133246857Y-133754904D01*
X133151619Y-133707285D01*
X133104000Y-133659666D01*
X133056380Y-133564428D01*
G04 #@! TD*
M02*
