M48
;DRILL file {KiCad 5.0.0-fee4fd1~66~ubuntu16.04.1} date Thu Oct  4 10:54:51 2018
;FORMAT={-:-/ absolute / metric / decimal}
FMAT,2
METRIC,TZ
T1C0.400
T2C1.000
T3C1.400
T4C1.520
%
G90
G05
M71
T1
X136.525Y-106.68
X137.16Y-103.124
X138.312Y-87.875
X144.018Y-88.347
X151.638Y-75.946
X152.4Y-78.105
X153.162Y-117.983
X153.543Y-83.947
X158.115Y-48.26
X158.369Y-111.379
T2
X143.891Y-124.46
X146.431Y-124.46
X148.971Y-124.46
X151.511Y-124.46
T3
X172.72Y-69.85
X172.72Y-77.47
X185.42Y-77.47
X187.96Y-69.85
X172.72Y-127.
X172.72Y-134.62
X185.42Y-134.62
X187.96Y-127.
X172.72Y-81.28
X172.72Y-88.9
X185.42Y-88.9
X187.96Y-81.28
X172.72Y-115.57
X172.72Y-123.19
X185.42Y-123.19
X187.96Y-115.57
X172.72Y-46.99
X172.72Y-54.61
X185.42Y-54.61
X187.96Y-46.99
X172.72Y-58.42
X172.72Y-66.04
X185.42Y-66.04
X187.96Y-58.42
X172.72Y-92.71
X172.72Y-100.33
X185.42Y-100.33
X187.96Y-92.71
X172.72Y-104.14
X172.72Y-111.76
X185.42Y-111.76
X187.96Y-104.14
T4
X195.Y-82.55
X195.Y-87.63
X195.Y-71.12
X195.Y-76.2
X195.Y-93.98
X195.Y-99.06
X195.Y-59.69
X195.Y-64.77
X195.Y-105.41
X195.Y-110.49
X135.255Y-49.53
X140.335Y-49.53
X195.Y-128.27
X195.Y-133.35
X195.Y-116.84
X195.Y-121.92
X195.Y-48.26
X195.Y-53.34
T0
M30
