G04 #@! TF.GenerationSoftware,KiCad,Pcbnew,5.0.1-33cea8e~68~ubuntu18.04.1*
G04 #@! TF.CreationDate,2018-11-29T08:35:32+01:00*
G04 #@! TF.ProjectId,7RelaysEtCommun,3752656C6179734574436F6D6D756E2E,rev?*
G04 #@! TF.SameCoordinates,Original*
G04 #@! TF.FileFunction,Legend,Top*
G04 #@! TF.FilePolarity,Positive*
%FSLAX46Y46*%
G04 Gerber Fmt 4.6, Leading zero omitted, Abs format (unit mm)*
G04 Created by KiCad (PCBNEW 5.0.1-33cea8e~68~ubuntu18.04.1) date jeu. 29 nov. 2018 08:35:32 CET*
%MOMM*%
%LPD*%
G01*
G04 APERTURE LIST*
%ADD10C,0.300000*%
%ADD11C,0.150000*%
%ADD12C,0.120000*%
G04 APERTURE END LIST*
D10*
X143181571Y-130095428D02*
X143181571Y-129166857D01*
X143753000Y-129666857D01*
X143753000Y-129452571D01*
X143824428Y-129309714D01*
X143895857Y-129238285D01*
X144038714Y-129166857D01*
X144395857Y-129166857D01*
X144538714Y-129238285D01*
X144610142Y-129309714D01*
X144681571Y-129452571D01*
X144681571Y-129881142D01*
X144610142Y-130024000D01*
X144538714Y-130095428D01*
X144538714Y-128524000D02*
X144610142Y-128452571D01*
X144681571Y-128524000D01*
X144610142Y-128595428D01*
X144538714Y-128524000D01*
X144681571Y-128524000D01*
X143181571Y-127952571D02*
X143181571Y-127024000D01*
X143753000Y-127524000D01*
X143753000Y-127309714D01*
X143824428Y-127166857D01*
X143895857Y-127095428D01*
X144038714Y-127024000D01*
X144395857Y-127024000D01*
X144538714Y-127095428D01*
X144610142Y-127166857D01*
X144681571Y-127309714D01*
X144681571Y-127738285D01*
X144610142Y-127881142D01*
X144538714Y-127952571D01*
X145731571Y-129666857D02*
X145731571Y-128809714D01*
X147231571Y-129238285D02*
X145731571Y-129238285D01*
X145731571Y-128452571D02*
X147231571Y-127452571D01*
X145731571Y-127452571D02*
X147231571Y-128452571D01*
X149781571Y-128774000D02*
X149067285Y-129274000D01*
X149781571Y-129631142D02*
X148281571Y-129631142D01*
X148281571Y-129059714D01*
X148353000Y-128916857D01*
X148424428Y-128845428D01*
X148567285Y-128774000D01*
X148781571Y-128774000D01*
X148924428Y-128845428D01*
X148995857Y-128916857D01*
X149067285Y-129059714D01*
X149067285Y-129631142D01*
X148281571Y-128274000D02*
X149781571Y-127274000D01*
X148281571Y-127274000D02*
X149781571Y-128274000D01*
X150903000Y-129666857D02*
X150831571Y-129809714D01*
X150831571Y-130024000D01*
X150903000Y-130238285D01*
X151045857Y-130381142D01*
X151188714Y-130452571D01*
X151474428Y-130524000D01*
X151688714Y-130524000D01*
X151974428Y-130452571D01*
X152117285Y-130381142D01*
X152260142Y-130238285D01*
X152331571Y-130024000D01*
X152331571Y-129881142D01*
X152260142Y-129666857D01*
X152188714Y-129595428D01*
X151688714Y-129595428D01*
X151688714Y-129881142D01*
X152331571Y-128952571D02*
X150831571Y-128952571D01*
X152331571Y-128095428D01*
X150831571Y-128095428D01*
X152331571Y-127381142D02*
X150831571Y-127381142D01*
X150831571Y-127024000D01*
X150903000Y-126809714D01*
X151045857Y-126666857D01*
X151188714Y-126595428D01*
X151474428Y-126524000D01*
X151688714Y-126524000D01*
X151974428Y-126595428D01*
X152117285Y-126666857D01*
X152260142Y-126809714D01*
X152331571Y-127024000D01*
X152331571Y-127381142D01*
X134214285Y-54178571D02*
X134357142Y-54178571D01*
X134500000Y-54250000D01*
X134571428Y-54321428D01*
X134642857Y-54464285D01*
X134714285Y-54750000D01*
X134714285Y-55107142D01*
X134642857Y-55392857D01*
X134571428Y-55535714D01*
X134500000Y-55607142D01*
X134357142Y-55678571D01*
X134214285Y-55678571D01*
X134071428Y-55607142D01*
X134000000Y-55535714D01*
X133928571Y-55392857D01*
X133857142Y-55107142D01*
X133857142Y-54750000D01*
X133928571Y-54464285D01*
X134000000Y-54321428D01*
X134071428Y-54250000D01*
X134214285Y-54178571D01*
X135142857Y-54178571D02*
X135642857Y-55678571D01*
X136142857Y-54178571D01*
X140785714Y-54178571D02*
X140071428Y-54178571D01*
X140000000Y-54892857D01*
X140071428Y-54821428D01*
X140214285Y-54750000D01*
X140571428Y-54750000D01*
X140714285Y-54821428D01*
X140785714Y-54892857D01*
X140857142Y-55035714D01*
X140857142Y-55392857D01*
X140785714Y-55535714D01*
X140714285Y-55607142D01*
X140571428Y-55678571D01*
X140214285Y-55678571D01*
X140071428Y-55607142D01*
X140000000Y-55535714D01*
X141285714Y-54178571D02*
X141785714Y-55678571D01*
X142285714Y-54178571D01*
D11*
G04 #@! TO.C,K7*
X171140000Y-114280000D02*
X189340000Y-114280000D01*
X189340000Y-114280000D02*
X189340000Y-124480000D01*
X189340000Y-124480000D02*
X171140000Y-124480000D01*
X171140000Y-124480000D02*
X171140000Y-114280000D01*
D12*
G04 #@! TO.C,U1*
X140195000Y-107635000D02*
X140195000Y-107235000D01*
X140195000Y-107235000D02*
X141595000Y-107235000D01*
X140195000Y-107635000D02*
X135395000Y-107635000D01*
X140195000Y-96835000D02*
X135395000Y-96835000D01*
G04 #@! TO.C,D1*
X166680000Y-47015000D02*
X166680000Y-49875000D01*
X166680000Y-49875000D02*
X168600000Y-49875000D01*
X168600000Y-49875000D02*
X168600000Y-47015000D01*
G04 #@! TO.C,D2*
X168600000Y-61305000D02*
X168600000Y-58445000D01*
X166680000Y-61305000D02*
X168600000Y-61305000D01*
X166680000Y-58445000D02*
X166680000Y-61305000D01*
G04 #@! TO.C,D3*
X168600000Y-72980000D02*
X168600000Y-70120000D01*
X166680000Y-72980000D02*
X168600000Y-72980000D01*
X166680000Y-70120000D02*
X166680000Y-72980000D01*
G04 #@! TO.C,D4*
X166680000Y-81305000D02*
X166680000Y-84165000D01*
X166680000Y-84165000D02*
X168600000Y-84165000D01*
X168600000Y-84165000D02*
X168600000Y-81305000D01*
G04 #@! TO.C,D5*
X168600000Y-95595000D02*
X168600000Y-92735000D01*
X166680000Y-95595000D02*
X168600000Y-95595000D01*
X166680000Y-92735000D02*
X166680000Y-95595000D01*
G04 #@! TO.C,D6*
X166680000Y-104165000D02*
X166680000Y-107025000D01*
X166680000Y-107025000D02*
X168600000Y-107025000D01*
X168600000Y-107025000D02*
X168600000Y-104165000D01*
G04 #@! TO.C,D7*
X168600000Y-118455000D02*
X168600000Y-115595000D01*
X166680000Y-118455000D02*
X168600000Y-118455000D01*
X166680000Y-115595000D02*
X166680000Y-118455000D01*
G04 #@! TO.C,J1*
X132715000Y-46990000D02*
X142875000Y-46990000D01*
X132715000Y-45720000D02*
X132715000Y-53340000D01*
X132715000Y-53340000D02*
X142875000Y-53340000D01*
X142875000Y-53340000D02*
X142875000Y-45720000D01*
X142875000Y-45720000D02*
X132715000Y-45720000D01*
G04 #@! TO.C,J2*
X197540000Y-45720000D02*
X197540000Y-55880000D01*
X198810000Y-45720000D02*
X191190000Y-45720000D01*
X191190000Y-45720000D02*
X191190000Y-55880000D01*
X191190000Y-55880000D02*
X198810000Y-55880000D01*
X198810000Y-55880000D02*
X198810000Y-45720000D01*
G04 #@! TO.C,J3*
X198810000Y-67310000D02*
X198810000Y-57150000D01*
X191190000Y-67310000D02*
X198810000Y-67310000D01*
X191190000Y-57150000D02*
X191190000Y-67310000D01*
X198810000Y-57150000D02*
X191190000Y-57150000D01*
X197540000Y-57150000D02*
X197540000Y-67310000D01*
G04 #@! TO.C,J4*
X197540000Y-68580000D02*
X197540000Y-78740000D01*
X198810000Y-68580000D02*
X191190000Y-68580000D01*
X191190000Y-68580000D02*
X191190000Y-78740000D01*
X191190000Y-78740000D02*
X198810000Y-78740000D01*
X198810000Y-78740000D02*
X198810000Y-68580000D01*
G04 #@! TO.C,J5*
X198810000Y-90170000D02*
X198810000Y-80010000D01*
X191190000Y-90170000D02*
X198810000Y-90170000D01*
X191190000Y-80010000D02*
X191190000Y-90170000D01*
X198810000Y-80010000D02*
X191190000Y-80010000D01*
X197540000Y-80010000D02*
X197540000Y-90170000D01*
G04 #@! TO.C,J6*
X197540000Y-91440000D02*
X197540000Y-101600000D01*
X198810000Y-91440000D02*
X191190000Y-91440000D01*
X191190000Y-91440000D02*
X191190000Y-101600000D01*
X191190000Y-101600000D02*
X198810000Y-101600000D01*
X198810000Y-101600000D02*
X198810000Y-91440000D01*
G04 #@! TO.C,J7*
X198810000Y-113030000D02*
X198810000Y-102870000D01*
X191190000Y-113030000D02*
X198810000Y-113030000D01*
X191190000Y-102870000D02*
X191190000Y-113030000D01*
X198810000Y-102870000D02*
X191190000Y-102870000D01*
X197540000Y-102870000D02*
X197540000Y-113030000D01*
G04 #@! TO.C,J8*
X197540000Y-114300000D02*
X197540000Y-124460000D01*
X198810000Y-114300000D02*
X191190000Y-114300000D01*
X191190000Y-114300000D02*
X191190000Y-124460000D01*
X191190000Y-124460000D02*
X198810000Y-124460000D01*
X198810000Y-124460000D02*
X198810000Y-114300000D01*
D11*
G04 #@! TO.C,K1*
X171140000Y-55900000D02*
X171140000Y-45700000D01*
X189340000Y-55900000D02*
X171140000Y-55900000D01*
X189340000Y-45700000D02*
X189340000Y-55900000D01*
X171140000Y-45700000D02*
X189340000Y-45700000D01*
G04 #@! TO.C,K2*
X171140000Y-57130000D02*
X189340000Y-57130000D01*
X189340000Y-57130000D02*
X189340000Y-67330000D01*
X189340000Y-67330000D02*
X171140000Y-67330000D01*
X171140000Y-67330000D02*
X171140000Y-57130000D01*
G04 #@! TO.C,K3*
X171140000Y-78760000D02*
X171140000Y-68560000D01*
X189340000Y-78760000D02*
X171140000Y-78760000D01*
X189340000Y-68560000D02*
X189340000Y-78760000D01*
X171140000Y-68560000D02*
X189340000Y-68560000D01*
G04 #@! TO.C,K4*
X171140000Y-79990000D02*
X189340000Y-79990000D01*
X189340000Y-79990000D02*
X189340000Y-90190000D01*
X189340000Y-90190000D02*
X171140000Y-90190000D01*
X171140000Y-90190000D02*
X171140000Y-79990000D01*
G04 #@! TO.C,K5*
X171140000Y-91420000D02*
X189340000Y-91420000D01*
X189340000Y-91420000D02*
X189340000Y-101620000D01*
X189340000Y-101620000D02*
X171140000Y-101620000D01*
X171140000Y-101620000D02*
X171140000Y-91420000D01*
G04 #@! TO.C,K6*
X171140000Y-113050000D02*
X171140000Y-102850000D01*
X189340000Y-113050000D02*
X171140000Y-113050000D01*
X189340000Y-102850000D02*
X189340000Y-113050000D01*
X171140000Y-102850000D02*
X189340000Y-102850000D01*
D12*
G04 #@! TO.C,R1*
X134695000Y-78611252D02*
X134695000Y-78088748D01*
X133275000Y-78611252D02*
X133275000Y-78088748D01*
G04 #@! TO.C,R2*
X167623748Y-54050000D02*
X168146252Y-54050000D01*
X167623748Y-52630000D02*
X168146252Y-52630000D01*
G04 #@! TO.C,R3*
X167623748Y-64060000D02*
X168146252Y-64060000D01*
X167623748Y-65480000D02*
X168146252Y-65480000D01*
G04 #@! TO.C,R4*
X167713748Y-75490000D02*
X168236252Y-75490000D01*
X167713748Y-76910000D02*
X168236252Y-76910000D01*
G04 #@! TO.C,R5*
X167623748Y-88340000D02*
X168146252Y-88340000D01*
X167623748Y-86920000D02*
X168146252Y-86920000D01*
G04 #@! TO.C,R6*
X167623748Y-98350000D02*
X168146252Y-98350000D01*
X167623748Y-99770000D02*
X168146252Y-99770000D01*
G04 #@! TO.C,R7*
X167623748Y-109780000D02*
X168146252Y-109780000D01*
X167623748Y-111200000D02*
X168146252Y-111200000D01*
G04 #@! TO.C,R8*
X167623748Y-122630000D02*
X168146252Y-122630000D01*
X167623748Y-121210000D02*
X168146252Y-121210000D01*
G04 #@! TO.C,SW1*
X135280000Y-63610000D02*
X135280000Y-64060000D01*
X135280000Y-64060000D02*
X141580000Y-64060000D01*
X141580000Y-64060000D02*
X141580000Y-63660000D01*
X135280000Y-62310000D02*
X135280000Y-59610000D01*
X141580000Y-59610000D02*
X141580000Y-62310000D01*
X135280000Y-57860000D02*
X141580000Y-57860000D01*
X141580000Y-57860000D02*
X141580000Y-58310000D01*
X135280000Y-58310000D02*
X135280000Y-57860000D01*
G04 #@! TO.C,U2*
X149625000Y-52075000D02*
X150885000Y-52075000D01*
X156445000Y-52075000D02*
X155185000Y-52075000D01*
X149625000Y-48315000D02*
X149625000Y-52075000D01*
X156445000Y-46065000D02*
X156445000Y-52075000D01*
G04 #@! TO.C,U3*
X140470000Y-67255000D02*
X156710000Y-67255000D01*
X156710000Y-67255000D02*
X156710000Y-74875000D01*
X156710000Y-90875000D02*
X156710000Y-91495000D01*
X156710000Y-91495000D02*
X154590000Y-91495000D01*
X142590000Y-91495000D02*
X140470000Y-91495000D01*
X140470000Y-91495000D02*
X140470000Y-90875000D01*
X140470000Y-74875000D02*
X140470000Y-67255000D01*
X140470000Y-74875000D02*
X139860000Y-74875000D01*
D11*
G04 #@! TO.C,U4*
X147000000Y-98190000D02*
X147000000Y-98440000D01*
X154750000Y-98190000D02*
X154750000Y-98535000D01*
X154750000Y-110090000D02*
X154750000Y-109745000D01*
X147000000Y-110090000D02*
X147000000Y-109745000D01*
X147000000Y-98190000D02*
X154750000Y-98190000D01*
X147000000Y-110090000D02*
X154750000Y-110090000D01*
X147000000Y-98440000D02*
X145175000Y-98440000D01*
D12*
G04 #@! TO.C,C1*
X146125000Y-48388748D02*
X146125000Y-48911252D01*
X144705000Y-48388748D02*
X144705000Y-48911252D01*
G04 #@! TO.C,C2*
X143620748Y-95325000D02*
X144143252Y-95325000D01*
X143620748Y-93905000D02*
X144143252Y-93905000D01*
G04 #@! TO.C,J10*
X152841000Y-125790000D02*
X152841000Y-123130000D01*
X145161000Y-125790000D02*
X152841000Y-125790000D01*
X145161000Y-123130000D02*
X152841000Y-123130000D01*
X145161000Y-125790000D02*
X145161000Y-123130000D01*
X143891000Y-125790000D02*
X142561000Y-125790000D01*
X142561000Y-125790000D02*
X142561000Y-124460000D01*
G04 #@! TO.C,R10*
X136196000Y-123841252D02*
X136196000Y-123318748D01*
X137616000Y-123841252D02*
X137616000Y-123318748D01*
G04 #@! TO.C,SW2*
X137353000Y-119331000D02*
X137353000Y-119781000D01*
X137353000Y-119781000D02*
X143653000Y-119781000D01*
X143653000Y-119781000D02*
X143653000Y-119381000D01*
X137353000Y-118031000D02*
X137353000Y-115331000D01*
X143653000Y-115331000D02*
X143653000Y-118031000D01*
X137353000Y-113581000D02*
X143653000Y-113581000D01*
X143653000Y-113581000D02*
X143653000Y-114031000D01*
X137353000Y-114031000D02*
X137353000Y-113581000D01*
G04 #@! TO.C,IN1*
X197612000Y-125730000D02*
X197612000Y-135890000D01*
X198882000Y-125730000D02*
X191262000Y-125730000D01*
X191262000Y-125730000D02*
X191262000Y-135890000D01*
X191262000Y-135890000D02*
X198882000Y-135890000D01*
X198882000Y-135890000D02*
X198882000Y-125730000D01*
G04 #@! TO.C,K7*
D11*
X170759380Y-120118095D02*
X169759380Y-120118095D01*
X170759380Y-119546666D02*
X170187952Y-119975238D01*
X169759380Y-119546666D02*
X170330809Y-120118095D01*
X169759380Y-119213333D02*
X169759380Y-118546666D01*
X170759380Y-118975238D01*
G04 #@! TO.C,U1*
X137033095Y-107887380D02*
X137033095Y-108696904D01*
X137080714Y-108792142D01*
X137128333Y-108839761D01*
X137223571Y-108887380D01*
X137414047Y-108887380D01*
X137509285Y-108839761D01*
X137556904Y-108792142D01*
X137604523Y-108696904D01*
X137604523Y-107887380D01*
X138604523Y-108887380D02*
X138033095Y-108887380D01*
X138318809Y-108887380D02*
X138318809Y-107887380D01*
X138223571Y-108030238D01*
X138128333Y-108125476D01*
X138033095Y-108173095D01*
G04 #@! TO.C,D1*
X166442380Y-48753095D02*
X165442380Y-48753095D01*
X165442380Y-48515000D01*
X165490000Y-48372142D01*
X165585238Y-48276904D01*
X165680476Y-48229285D01*
X165870952Y-48181666D01*
X166013809Y-48181666D01*
X166204285Y-48229285D01*
X166299523Y-48276904D01*
X166394761Y-48372142D01*
X166442380Y-48515000D01*
X166442380Y-48753095D01*
X166442380Y-47229285D02*
X166442380Y-47800714D01*
X166442380Y-47515000D02*
X165442380Y-47515000D01*
X165585238Y-47610238D01*
X165680476Y-47705476D01*
X165728095Y-47800714D01*
G04 #@! TO.C,D2*
X166442380Y-60183095D02*
X165442380Y-60183095D01*
X165442380Y-59945000D01*
X165490000Y-59802142D01*
X165585238Y-59706904D01*
X165680476Y-59659285D01*
X165870952Y-59611666D01*
X166013809Y-59611666D01*
X166204285Y-59659285D01*
X166299523Y-59706904D01*
X166394761Y-59802142D01*
X166442380Y-59945000D01*
X166442380Y-60183095D01*
X165537619Y-59230714D02*
X165490000Y-59183095D01*
X165442380Y-59087857D01*
X165442380Y-58849761D01*
X165490000Y-58754523D01*
X165537619Y-58706904D01*
X165632857Y-58659285D01*
X165728095Y-58659285D01*
X165870952Y-58706904D01*
X166442380Y-59278333D01*
X166442380Y-58659285D01*
G04 #@! TO.C,D3*
X166442380Y-71858095D02*
X165442380Y-71858095D01*
X165442380Y-71620000D01*
X165490000Y-71477142D01*
X165585238Y-71381904D01*
X165680476Y-71334285D01*
X165870952Y-71286666D01*
X166013809Y-71286666D01*
X166204285Y-71334285D01*
X166299523Y-71381904D01*
X166394761Y-71477142D01*
X166442380Y-71620000D01*
X166442380Y-71858095D01*
X165442380Y-70953333D02*
X165442380Y-70334285D01*
X165823333Y-70667619D01*
X165823333Y-70524761D01*
X165870952Y-70429523D01*
X165918571Y-70381904D01*
X166013809Y-70334285D01*
X166251904Y-70334285D01*
X166347142Y-70381904D01*
X166394761Y-70429523D01*
X166442380Y-70524761D01*
X166442380Y-70810476D01*
X166394761Y-70905714D01*
X166347142Y-70953333D01*
G04 #@! TO.C,D4*
X166442380Y-83043095D02*
X165442380Y-83043095D01*
X165442380Y-82805000D01*
X165490000Y-82662142D01*
X165585238Y-82566904D01*
X165680476Y-82519285D01*
X165870952Y-82471666D01*
X166013809Y-82471666D01*
X166204285Y-82519285D01*
X166299523Y-82566904D01*
X166394761Y-82662142D01*
X166442380Y-82805000D01*
X166442380Y-83043095D01*
X165775714Y-81614523D02*
X166442380Y-81614523D01*
X165394761Y-81852619D02*
X166109047Y-82090714D01*
X166109047Y-81471666D01*
G04 #@! TO.C,D5*
X166442380Y-94473095D02*
X165442380Y-94473095D01*
X165442380Y-94235000D01*
X165490000Y-94092142D01*
X165585238Y-93996904D01*
X165680476Y-93949285D01*
X165870952Y-93901666D01*
X166013809Y-93901666D01*
X166204285Y-93949285D01*
X166299523Y-93996904D01*
X166394761Y-94092142D01*
X166442380Y-94235000D01*
X166442380Y-94473095D01*
X165442380Y-92996904D02*
X165442380Y-93473095D01*
X165918571Y-93520714D01*
X165870952Y-93473095D01*
X165823333Y-93377857D01*
X165823333Y-93139761D01*
X165870952Y-93044523D01*
X165918571Y-92996904D01*
X166013809Y-92949285D01*
X166251904Y-92949285D01*
X166347142Y-92996904D01*
X166394761Y-93044523D01*
X166442380Y-93139761D01*
X166442380Y-93377857D01*
X166394761Y-93473095D01*
X166347142Y-93520714D01*
G04 #@! TO.C,D6*
X166442380Y-105903095D02*
X165442380Y-105903095D01*
X165442380Y-105665000D01*
X165490000Y-105522142D01*
X165585238Y-105426904D01*
X165680476Y-105379285D01*
X165870952Y-105331666D01*
X166013809Y-105331666D01*
X166204285Y-105379285D01*
X166299523Y-105426904D01*
X166394761Y-105522142D01*
X166442380Y-105665000D01*
X166442380Y-105903095D01*
X165442380Y-104474523D02*
X165442380Y-104665000D01*
X165490000Y-104760238D01*
X165537619Y-104807857D01*
X165680476Y-104903095D01*
X165870952Y-104950714D01*
X166251904Y-104950714D01*
X166347142Y-104903095D01*
X166394761Y-104855476D01*
X166442380Y-104760238D01*
X166442380Y-104569761D01*
X166394761Y-104474523D01*
X166347142Y-104426904D01*
X166251904Y-104379285D01*
X166013809Y-104379285D01*
X165918571Y-104426904D01*
X165870952Y-104474523D01*
X165823333Y-104569761D01*
X165823333Y-104760238D01*
X165870952Y-104855476D01*
X165918571Y-104903095D01*
X166013809Y-104950714D01*
G04 #@! TO.C,D7*
X166442380Y-117333095D02*
X165442380Y-117333095D01*
X165442380Y-117095000D01*
X165490000Y-116952142D01*
X165585238Y-116856904D01*
X165680476Y-116809285D01*
X165870952Y-116761666D01*
X166013809Y-116761666D01*
X166204285Y-116809285D01*
X166299523Y-116856904D01*
X166394761Y-116952142D01*
X166442380Y-117095000D01*
X166442380Y-117333095D01*
X165442380Y-116428333D02*
X165442380Y-115761666D01*
X166442380Y-116190238D01*
G04 #@! TO.C,J1*
X140666666Y-44452380D02*
X140666666Y-45166666D01*
X140619047Y-45309523D01*
X140523809Y-45404761D01*
X140380952Y-45452380D01*
X140285714Y-45452380D01*
X141666666Y-45452380D02*
X141095238Y-45452380D01*
X141380952Y-45452380D02*
X141380952Y-44452380D01*
X141285714Y-44595238D01*
X141190476Y-44690476D01*
X141095238Y-44738095D01*
G04 #@! TO.C,J2*
X189372380Y-51133333D02*
X190086666Y-51133333D01*
X190229523Y-51180952D01*
X190324761Y-51276190D01*
X190372380Y-51419047D01*
X190372380Y-51514285D01*
X189467619Y-50704761D02*
X189420000Y-50657142D01*
X189372380Y-50561904D01*
X189372380Y-50323809D01*
X189420000Y-50228571D01*
X189467619Y-50180952D01*
X189562857Y-50133333D01*
X189658095Y-50133333D01*
X189800952Y-50180952D01*
X190372380Y-50752380D01*
X190372380Y-50133333D01*
G04 #@! TO.C,J3*
X189372380Y-62563333D02*
X190086666Y-62563333D01*
X190229523Y-62610952D01*
X190324761Y-62706190D01*
X190372380Y-62849047D01*
X190372380Y-62944285D01*
X189372380Y-62182380D02*
X189372380Y-61563333D01*
X189753333Y-61896666D01*
X189753333Y-61753809D01*
X189800952Y-61658571D01*
X189848571Y-61610952D01*
X189943809Y-61563333D01*
X190181904Y-61563333D01*
X190277142Y-61610952D01*
X190324761Y-61658571D01*
X190372380Y-61753809D01*
X190372380Y-62039523D01*
X190324761Y-62134761D01*
X190277142Y-62182380D01*
G04 #@! TO.C,J4*
X189372380Y-73993333D02*
X190086666Y-73993333D01*
X190229523Y-74040952D01*
X190324761Y-74136190D01*
X190372380Y-74279047D01*
X190372380Y-74374285D01*
X189705714Y-73088571D02*
X190372380Y-73088571D01*
X189324761Y-73326666D02*
X190039047Y-73564761D01*
X190039047Y-72945714D01*
G04 #@! TO.C,J5*
X189372380Y-85423333D02*
X190086666Y-85423333D01*
X190229523Y-85470952D01*
X190324761Y-85566190D01*
X190372380Y-85709047D01*
X190372380Y-85804285D01*
X189372380Y-84470952D02*
X189372380Y-84947142D01*
X189848571Y-84994761D01*
X189800952Y-84947142D01*
X189753333Y-84851904D01*
X189753333Y-84613809D01*
X189800952Y-84518571D01*
X189848571Y-84470952D01*
X189943809Y-84423333D01*
X190181904Y-84423333D01*
X190277142Y-84470952D01*
X190324761Y-84518571D01*
X190372380Y-84613809D01*
X190372380Y-84851904D01*
X190324761Y-84947142D01*
X190277142Y-84994761D01*
G04 #@! TO.C,J6*
X189372380Y-96853333D02*
X190086666Y-96853333D01*
X190229523Y-96900952D01*
X190324761Y-96996190D01*
X190372380Y-97139047D01*
X190372380Y-97234285D01*
X189372380Y-95948571D02*
X189372380Y-96139047D01*
X189420000Y-96234285D01*
X189467619Y-96281904D01*
X189610476Y-96377142D01*
X189800952Y-96424761D01*
X190181904Y-96424761D01*
X190277142Y-96377142D01*
X190324761Y-96329523D01*
X190372380Y-96234285D01*
X190372380Y-96043809D01*
X190324761Y-95948571D01*
X190277142Y-95900952D01*
X190181904Y-95853333D01*
X189943809Y-95853333D01*
X189848571Y-95900952D01*
X189800952Y-95948571D01*
X189753333Y-96043809D01*
X189753333Y-96234285D01*
X189800952Y-96329523D01*
X189848571Y-96377142D01*
X189943809Y-96424761D01*
G04 #@! TO.C,J7*
X189372380Y-108283333D02*
X190086666Y-108283333D01*
X190229523Y-108330952D01*
X190324761Y-108426190D01*
X190372380Y-108569047D01*
X190372380Y-108664285D01*
X189372380Y-107902380D02*
X189372380Y-107235714D01*
X190372380Y-107664285D01*
G04 #@! TO.C,J8*
X189372380Y-119713333D02*
X190086666Y-119713333D01*
X190229523Y-119760952D01*
X190324761Y-119856190D01*
X190372380Y-119999047D01*
X190372380Y-120094285D01*
X189800952Y-119094285D02*
X189753333Y-119189523D01*
X189705714Y-119237142D01*
X189610476Y-119284761D01*
X189562857Y-119284761D01*
X189467619Y-119237142D01*
X189420000Y-119189523D01*
X189372380Y-119094285D01*
X189372380Y-118903809D01*
X189420000Y-118808571D01*
X189467619Y-118760952D01*
X189562857Y-118713333D01*
X189610476Y-118713333D01*
X189705714Y-118760952D01*
X189753333Y-118808571D01*
X189800952Y-118903809D01*
X189800952Y-119094285D01*
X189848571Y-119189523D01*
X189896190Y-119237142D01*
X189991428Y-119284761D01*
X190181904Y-119284761D01*
X190277142Y-119237142D01*
X190324761Y-119189523D01*
X190372380Y-119094285D01*
X190372380Y-118903809D01*
X190324761Y-118808571D01*
X190277142Y-118760952D01*
X190181904Y-118713333D01*
X189991428Y-118713333D01*
X189896190Y-118760952D01*
X189848571Y-118808571D01*
X189800952Y-118903809D01*
G04 #@! TO.C,K1*
X170759380Y-51538095D02*
X169759380Y-51538095D01*
X170759380Y-50966666D02*
X170187952Y-51395238D01*
X169759380Y-50966666D02*
X170330809Y-51538095D01*
X170759380Y-50014285D02*
X170759380Y-50585714D01*
X170759380Y-50300000D02*
X169759380Y-50300000D01*
X169902238Y-50395238D01*
X169997476Y-50490476D01*
X170045095Y-50585714D01*
G04 #@! TO.C,K2*
X170759380Y-62968095D02*
X169759380Y-62968095D01*
X170759380Y-62396666D02*
X170187952Y-62825238D01*
X169759380Y-62396666D02*
X170330809Y-62968095D01*
X169854619Y-62015714D02*
X169807000Y-61968095D01*
X169759380Y-61872857D01*
X169759380Y-61634761D01*
X169807000Y-61539523D01*
X169854619Y-61491904D01*
X169949857Y-61444285D01*
X170045095Y-61444285D01*
X170187952Y-61491904D01*
X170759380Y-62063333D01*
X170759380Y-61444285D01*
G04 #@! TO.C,K3*
X170759380Y-74398095D02*
X169759380Y-74398095D01*
X170759380Y-73826666D02*
X170187952Y-74255238D01*
X169759380Y-73826666D02*
X170330809Y-74398095D01*
X169759380Y-73493333D02*
X169759380Y-72874285D01*
X170140333Y-73207619D01*
X170140333Y-73064761D01*
X170187952Y-72969523D01*
X170235571Y-72921904D01*
X170330809Y-72874285D01*
X170568904Y-72874285D01*
X170664142Y-72921904D01*
X170711761Y-72969523D01*
X170759380Y-73064761D01*
X170759380Y-73350476D01*
X170711761Y-73445714D01*
X170664142Y-73493333D01*
G04 #@! TO.C,K4*
X170759380Y-85828095D02*
X169759380Y-85828095D01*
X170759380Y-85256666D02*
X170187952Y-85685238D01*
X169759380Y-85256666D02*
X170330809Y-85828095D01*
X170092714Y-84399523D02*
X170759380Y-84399523D01*
X169711761Y-84637619D02*
X170426047Y-84875714D01*
X170426047Y-84256666D01*
G04 #@! TO.C,K5*
X170759380Y-97258095D02*
X169759380Y-97258095D01*
X170759380Y-96686666D02*
X170187952Y-97115238D01*
X169759380Y-96686666D02*
X170330809Y-97258095D01*
X169759380Y-95781904D02*
X169759380Y-96258095D01*
X170235571Y-96305714D01*
X170187952Y-96258095D01*
X170140333Y-96162857D01*
X170140333Y-95924761D01*
X170187952Y-95829523D01*
X170235571Y-95781904D01*
X170330809Y-95734285D01*
X170568904Y-95734285D01*
X170664142Y-95781904D01*
X170711761Y-95829523D01*
X170759380Y-95924761D01*
X170759380Y-96162857D01*
X170711761Y-96258095D01*
X170664142Y-96305714D01*
G04 #@! TO.C,K6*
X170759380Y-108688095D02*
X169759380Y-108688095D01*
X170759380Y-108116666D02*
X170187952Y-108545238D01*
X169759380Y-108116666D02*
X170330809Y-108688095D01*
X169759380Y-107259523D02*
X169759380Y-107450000D01*
X169807000Y-107545238D01*
X169854619Y-107592857D01*
X169997476Y-107688095D01*
X170187952Y-107735714D01*
X170568904Y-107735714D01*
X170664142Y-107688095D01*
X170711761Y-107640476D01*
X170759380Y-107545238D01*
X170759380Y-107354761D01*
X170711761Y-107259523D01*
X170664142Y-107211904D01*
X170568904Y-107164285D01*
X170330809Y-107164285D01*
X170235571Y-107211904D01*
X170187952Y-107259523D01*
X170140333Y-107354761D01*
X170140333Y-107545238D01*
X170187952Y-107640476D01*
X170235571Y-107688095D01*
X170330809Y-107735714D01*
G04 #@! TO.C,R1*
X132787380Y-78516666D02*
X132311190Y-78850000D01*
X132787380Y-79088095D02*
X131787380Y-79088095D01*
X131787380Y-78707142D01*
X131835000Y-78611904D01*
X131882619Y-78564285D01*
X131977857Y-78516666D01*
X132120714Y-78516666D01*
X132215952Y-78564285D01*
X132263571Y-78611904D01*
X132311190Y-78707142D01*
X132311190Y-79088095D01*
X132787380Y-77564285D02*
X132787380Y-78135714D01*
X132787380Y-77850000D02*
X131787380Y-77850000D01*
X131930238Y-77945238D01*
X132025476Y-78040476D01*
X132073095Y-78135714D01*
G04 #@! TO.C,R2*
X167718333Y-52142380D02*
X167385000Y-51666190D01*
X167146904Y-52142380D02*
X167146904Y-51142380D01*
X167527857Y-51142380D01*
X167623095Y-51190000D01*
X167670714Y-51237619D01*
X167718333Y-51332857D01*
X167718333Y-51475714D01*
X167670714Y-51570952D01*
X167623095Y-51618571D01*
X167527857Y-51666190D01*
X167146904Y-51666190D01*
X168099285Y-51237619D02*
X168146904Y-51190000D01*
X168242142Y-51142380D01*
X168480238Y-51142380D01*
X168575476Y-51190000D01*
X168623095Y-51237619D01*
X168670714Y-51332857D01*
X168670714Y-51428095D01*
X168623095Y-51570952D01*
X168051666Y-52142380D01*
X168670714Y-52142380D01*
G04 #@! TO.C,R3*
X167718333Y-63572380D02*
X167385000Y-63096190D01*
X167146904Y-63572380D02*
X167146904Y-62572380D01*
X167527857Y-62572380D01*
X167623095Y-62620000D01*
X167670714Y-62667619D01*
X167718333Y-62762857D01*
X167718333Y-62905714D01*
X167670714Y-63000952D01*
X167623095Y-63048571D01*
X167527857Y-63096190D01*
X167146904Y-63096190D01*
X168051666Y-62572380D02*
X168670714Y-62572380D01*
X168337380Y-62953333D01*
X168480238Y-62953333D01*
X168575476Y-63000952D01*
X168623095Y-63048571D01*
X168670714Y-63143809D01*
X168670714Y-63381904D01*
X168623095Y-63477142D01*
X168575476Y-63524761D01*
X168480238Y-63572380D01*
X168194523Y-63572380D01*
X168099285Y-63524761D01*
X168051666Y-63477142D01*
G04 #@! TO.C,R4*
X167808333Y-75002380D02*
X167475000Y-74526190D01*
X167236904Y-75002380D02*
X167236904Y-74002380D01*
X167617857Y-74002380D01*
X167713095Y-74050000D01*
X167760714Y-74097619D01*
X167808333Y-74192857D01*
X167808333Y-74335714D01*
X167760714Y-74430952D01*
X167713095Y-74478571D01*
X167617857Y-74526190D01*
X167236904Y-74526190D01*
X168665476Y-74335714D02*
X168665476Y-75002380D01*
X168427380Y-73954761D02*
X168189285Y-74669047D01*
X168808333Y-74669047D01*
G04 #@! TO.C,R5*
X167718333Y-86432380D02*
X167385000Y-85956190D01*
X167146904Y-86432380D02*
X167146904Y-85432380D01*
X167527857Y-85432380D01*
X167623095Y-85480000D01*
X167670714Y-85527619D01*
X167718333Y-85622857D01*
X167718333Y-85765714D01*
X167670714Y-85860952D01*
X167623095Y-85908571D01*
X167527857Y-85956190D01*
X167146904Y-85956190D01*
X168623095Y-85432380D02*
X168146904Y-85432380D01*
X168099285Y-85908571D01*
X168146904Y-85860952D01*
X168242142Y-85813333D01*
X168480238Y-85813333D01*
X168575476Y-85860952D01*
X168623095Y-85908571D01*
X168670714Y-86003809D01*
X168670714Y-86241904D01*
X168623095Y-86337142D01*
X168575476Y-86384761D01*
X168480238Y-86432380D01*
X168242142Y-86432380D01*
X168146904Y-86384761D01*
X168099285Y-86337142D01*
G04 #@! TO.C,R6*
X167718333Y-97862380D02*
X167385000Y-97386190D01*
X167146904Y-97862380D02*
X167146904Y-96862380D01*
X167527857Y-96862380D01*
X167623095Y-96910000D01*
X167670714Y-96957619D01*
X167718333Y-97052857D01*
X167718333Y-97195714D01*
X167670714Y-97290952D01*
X167623095Y-97338571D01*
X167527857Y-97386190D01*
X167146904Y-97386190D01*
X168575476Y-96862380D02*
X168385000Y-96862380D01*
X168289761Y-96910000D01*
X168242142Y-96957619D01*
X168146904Y-97100476D01*
X168099285Y-97290952D01*
X168099285Y-97671904D01*
X168146904Y-97767142D01*
X168194523Y-97814761D01*
X168289761Y-97862380D01*
X168480238Y-97862380D01*
X168575476Y-97814761D01*
X168623095Y-97767142D01*
X168670714Y-97671904D01*
X168670714Y-97433809D01*
X168623095Y-97338571D01*
X168575476Y-97290952D01*
X168480238Y-97243333D01*
X168289761Y-97243333D01*
X168194523Y-97290952D01*
X168146904Y-97338571D01*
X168099285Y-97433809D01*
G04 #@! TO.C,R7*
X167718333Y-109292380D02*
X167385000Y-108816190D01*
X167146904Y-109292380D02*
X167146904Y-108292380D01*
X167527857Y-108292380D01*
X167623095Y-108340000D01*
X167670714Y-108387619D01*
X167718333Y-108482857D01*
X167718333Y-108625714D01*
X167670714Y-108720952D01*
X167623095Y-108768571D01*
X167527857Y-108816190D01*
X167146904Y-108816190D01*
X168051666Y-108292380D02*
X168718333Y-108292380D01*
X168289761Y-109292380D01*
G04 #@! TO.C,R8*
X167718333Y-120722380D02*
X167385000Y-120246190D01*
X167146904Y-120722380D02*
X167146904Y-119722380D01*
X167527857Y-119722380D01*
X167623095Y-119770000D01*
X167670714Y-119817619D01*
X167718333Y-119912857D01*
X167718333Y-120055714D01*
X167670714Y-120150952D01*
X167623095Y-120198571D01*
X167527857Y-120246190D01*
X167146904Y-120246190D01*
X168289761Y-120150952D02*
X168194523Y-120103333D01*
X168146904Y-120055714D01*
X168099285Y-119960476D01*
X168099285Y-119912857D01*
X168146904Y-119817619D01*
X168194523Y-119770000D01*
X168289761Y-119722380D01*
X168480238Y-119722380D01*
X168575476Y-119770000D01*
X168623095Y-119817619D01*
X168670714Y-119912857D01*
X168670714Y-119960476D01*
X168623095Y-120055714D01*
X168575476Y-120103333D01*
X168480238Y-120150952D01*
X168289761Y-120150952D01*
X168194523Y-120198571D01*
X168146904Y-120246190D01*
X168099285Y-120341428D01*
X168099285Y-120531904D01*
X168146904Y-120627142D01*
X168194523Y-120674761D01*
X168289761Y-120722380D01*
X168480238Y-120722380D01*
X168575476Y-120674761D01*
X168623095Y-120627142D01*
X168670714Y-120531904D01*
X168670714Y-120341428D01*
X168623095Y-120246190D01*
X168575476Y-120198571D01*
X168480238Y-120150952D01*
G04 #@! TO.C,SW1*
X137096666Y-57464761D02*
X137239523Y-57512380D01*
X137477619Y-57512380D01*
X137572857Y-57464761D01*
X137620476Y-57417142D01*
X137668095Y-57321904D01*
X137668095Y-57226666D01*
X137620476Y-57131428D01*
X137572857Y-57083809D01*
X137477619Y-57036190D01*
X137287142Y-56988571D01*
X137191904Y-56940952D01*
X137144285Y-56893333D01*
X137096666Y-56798095D01*
X137096666Y-56702857D01*
X137144285Y-56607619D01*
X137191904Y-56560000D01*
X137287142Y-56512380D01*
X137525238Y-56512380D01*
X137668095Y-56560000D01*
X138001428Y-56512380D02*
X138239523Y-57512380D01*
X138430000Y-56798095D01*
X138620476Y-57512380D01*
X138858571Y-56512380D01*
X139763333Y-57512380D02*
X139191904Y-57512380D01*
X139477619Y-57512380D02*
X139477619Y-56512380D01*
X139382380Y-56655238D01*
X139287142Y-56750476D01*
X139191904Y-56798095D01*
G04 #@! TO.C,U2*
X156987380Y-50926904D02*
X157796904Y-50926904D01*
X157892142Y-50879285D01*
X157939761Y-50831666D01*
X157987380Y-50736428D01*
X157987380Y-50545952D01*
X157939761Y-50450714D01*
X157892142Y-50403095D01*
X157796904Y-50355476D01*
X156987380Y-50355476D01*
X157082619Y-49926904D02*
X157035000Y-49879285D01*
X156987380Y-49784047D01*
X156987380Y-49545952D01*
X157035000Y-49450714D01*
X157082619Y-49403095D01*
X157177857Y-49355476D01*
X157273095Y-49355476D01*
X157415952Y-49403095D01*
X157987380Y-49974523D01*
X157987380Y-49355476D01*
G04 #@! TO.C,U3*
X137268095Y-73567380D02*
X137268095Y-74376904D01*
X137315714Y-74472142D01*
X137363333Y-74519761D01*
X137458571Y-74567380D01*
X137649047Y-74567380D01*
X137744285Y-74519761D01*
X137791904Y-74472142D01*
X137839523Y-74376904D01*
X137839523Y-73567380D01*
X138220476Y-73567380D02*
X138839523Y-73567380D01*
X138506190Y-73948333D01*
X138649047Y-73948333D01*
X138744285Y-73995952D01*
X138791904Y-74043571D01*
X138839523Y-74138809D01*
X138839523Y-74376904D01*
X138791904Y-74472142D01*
X138744285Y-74519761D01*
X138649047Y-74567380D01*
X138363333Y-74567380D01*
X138268095Y-74519761D01*
X138220476Y-74472142D01*
G04 #@! TO.C,U4*
X150113095Y-96717380D02*
X150113095Y-97526904D01*
X150160714Y-97622142D01*
X150208333Y-97669761D01*
X150303571Y-97717380D01*
X150494047Y-97717380D01*
X150589285Y-97669761D01*
X150636904Y-97622142D01*
X150684523Y-97526904D01*
X150684523Y-96717380D01*
X151589285Y-97050714D02*
X151589285Y-97717380D01*
X151351190Y-96669761D02*
X151113095Y-97384047D01*
X151732142Y-97384047D01*
G04 #@! TO.C,C1*
X147422142Y-48816666D02*
X147469761Y-48864285D01*
X147517380Y-49007142D01*
X147517380Y-49102380D01*
X147469761Y-49245238D01*
X147374523Y-49340476D01*
X147279285Y-49388095D01*
X147088809Y-49435714D01*
X146945952Y-49435714D01*
X146755476Y-49388095D01*
X146660238Y-49340476D01*
X146565000Y-49245238D01*
X146517380Y-49102380D01*
X146517380Y-49007142D01*
X146565000Y-48864285D01*
X146612619Y-48816666D01*
X147517380Y-47864285D02*
X147517380Y-48435714D01*
X147517380Y-48150000D02*
X146517380Y-48150000D01*
X146660238Y-48245238D01*
X146755476Y-48340476D01*
X146803095Y-48435714D01*
G04 #@! TO.C,C2*
X143715333Y-93322142D02*
X143667714Y-93369761D01*
X143524857Y-93417380D01*
X143429619Y-93417380D01*
X143286761Y-93369761D01*
X143191523Y-93274523D01*
X143143904Y-93179285D01*
X143096285Y-92988809D01*
X143096285Y-92845952D01*
X143143904Y-92655476D01*
X143191523Y-92560238D01*
X143286761Y-92465000D01*
X143429619Y-92417380D01*
X143524857Y-92417380D01*
X143667714Y-92465000D01*
X143715333Y-92512619D01*
X144096285Y-92512619D02*
X144143904Y-92465000D01*
X144239142Y-92417380D01*
X144477238Y-92417380D01*
X144572476Y-92465000D01*
X144620095Y-92512619D01*
X144667714Y-92607857D01*
X144667714Y-92703095D01*
X144620095Y-92845952D01*
X144048666Y-93417380D01*
X144667714Y-93417380D01*
G04 #@! TO.C,J10*
X141013380Y-125269523D02*
X141727666Y-125269523D01*
X141870523Y-125317142D01*
X141965761Y-125412380D01*
X142013380Y-125555238D01*
X142013380Y-125650476D01*
X142013380Y-124269523D02*
X142013380Y-124840952D01*
X142013380Y-124555238D02*
X141013380Y-124555238D01*
X141156238Y-124650476D01*
X141251476Y-124745714D01*
X141299095Y-124840952D01*
X141013380Y-123650476D02*
X141013380Y-123555238D01*
X141061000Y-123460000D01*
X141108619Y-123412380D01*
X141203857Y-123364761D01*
X141394333Y-123317142D01*
X141632428Y-123317142D01*
X141822904Y-123364761D01*
X141918142Y-123412380D01*
X141965761Y-123460000D01*
X142013380Y-123555238D01*
X142013380Y-123650476D01*
X141965761Y-123745714D01*
X141918142Y-123793333D01*
X141822904Y-123840952D01*
X141632428Y-123888571D01*
X141394333Y-123888571D01*
X141203857Y-123840952D01*
X141108619Y-123793333D01*
X141061000Y-123745714D01*
X141013380Y-123650476D01*
G04 #@! TO.C,R10*
X135708380Y-124222857D02*
X135232190Y-124556190D01*
X135708380Y-124794285D02*
X134708380Y-124794285D01*
X134708380Y-124413333D01*
X134756000Y-124318095D01*
X134803619Y-124270476D01*
X134898857Y-124222857D01*
X135041714Y-124222857D01*
X135136952Y-124270476D01*
X135184571Y-124318095D01*
X135232190Y-124413333D01*
X135232190Y-124794285D01*
X135708380Y-123270476D02*
X135708380Y-123841904D01*
X135708380Y-123556190D02*
X134708380Y-123556190D01*
X134851238Y-123651428D01*
X134946476Y-123746666D01*
X134994095Y-123841904D01*
X134708380Y-122651428D02*
X134708380Y-122556190D01*
X134756000Y-122460952D01*
X134803619Y-122413333D01*
X134898857Y-122365714D01*
X135089333Y-122318095D01*
X135327428Y-122318095D01*
X135517904Y-122365714D01*
X135613142Y-122413333D01*
X135660761Y-122460952D01*
X135708380Y-122556190D01*
X135708380Y-122651428D01*
X135660761Y-122746666D01*
X135613142Y-122794285D01*
X135517904Y-122841904D01*
X135327428Y-122889523D01*
X135089333Y-122889523D01*
X134898857Y-122841904D01*
X134803619Y-122794285D01*
X134756000Y-122746666D01*
X134708380Y-122651428D01*
G04 #@! TO.C,SW2*
X139169666Y-113185761D02*
X139312523Y-113233380D01*
X139550619Y-113233380D01*
X139645857Y-113185761D01*
X139693476Y-113138142D01*
X139741095Y-113042904D01*
X139741095Y-112947666D01*
X139693476Y-112852428D01*
X139645857Y-112804809D01*
X139550619Y-112757190D01*
X139360142Y-112709571D01*
X139264904Y-112661952D01*
X139217285Y-112614333D01*
X139169666Y-112519095D01*
X139169666Y-112423857D01*
X139217285Y-112328619D01*
X139264904Y-112281000D01*
X139360142Y-112233380D01*
X139598238Y-112233380D01*
X139741095Y-112281000D01*
X140074428Y-112233380D02*
X140312523Y-113233380D01*
X140503000Y-112519095D01*
X140693476Y-113233380D01*
X140931571Y-112233380D01*
X141264904Y-112328619D02*
X141312523Y-112281000D01*
X141407761Y-112233380D01*
X141645857Y-112233380D01*
X141741095Y-112281000D01*
X141788714Y-112328619D01*
X141836333Y-112423857D01*
X141836333Y-112519095D01*
X141788714Y-112661952D01*
X141217285Y-113233380D01*
X141836333Y-113233380D01*
G04 #@! TO.C,IN1*
X190444380Y-131810000D02*
X189444380Y-131810000D01*
X190444380Y-131333809D02*
X189444380Y-131333809D01*
X190444380Y-130762380D01*
X189444380Y-130762380D01*
X190444380Y-129762380D02*
X190444380Y-130333809D01*
X190444380Y-130048095D02*
X189444380Y-130048095D01*
X189587238Y-130143333D01*
X189682476Y-130238571D01*
X189730095Y-130333809D01*
G04 #@! TD*
M02*
