G04 #@! TF.GenerationSoftware,KiCad,Pcbnew,5.0.0-fee4fd1~66~ubuntu16.04.1*
G04 #@! TF.CreationDate,2018-09-27T11:54:36+02:00*
G04 #@! TF.ProjectId,IN16_optoToESP8266,494E31365F6F70746F546F4553503832,rev?*
G04 #@! TF.SameCoordinates,Original*
G04 #@! TF.FileFunction,Soldermask,Top*
G04 #@! TF.FilePolarity,Negative*
%FSLAX46Y46*%
G04 Gerber Fmt 4.6, Leading zero omitted, Abs format (unit mm)*
G04 Created by KiCad (PCBNEW 5.0.0-fee4fd1~66~ubuntu16.04.1) date Thu Sep 27 11:54:36 2018*
%MOMM*%
%LPD*%
G01*
G04 APERTURE LIST*
%ADD10C,0.381000*%
%ADD11R,2.032000X2.032000*%
%ADD12C,2.032000*%
%ADD13R,3.048000X3.048000*%
%ADD14C,3.048000*%
%ADD15R,4.308000X2.508000*%
%ADD16R,2.008000X2.508000*%
%ADD17R,2.208000X2.508000*%
%ADD18R,1.651000X1.016000*%
%ADD19R,2.208000X2.208000*%
%ADD20O,2.208000X2.208000*%
%ADD21R,3.508000X1.508000*%
%ADD22R,1.208000X1.808000*%
%ADD23R,1.808000X1.208000*%
%ADD24R,2.108000X1.508000*%
%ADD25R,1.508000X3.258000*%
G04 APERTURE END LIST*
D10*
X134000000Y-98000000D02*
X184000000Y-98000000D01*
X134000000Y-48000000D02*
X134000000Y-98000000D01*
X184000000Y-48000000D02*
X134000000Y-48000000D01*
X184000000Y-98000000D02*
X184000000Y-48000000D01*
D11*
G04 #@! TO.C,P1*
X155575000Y-65405000D03*
D12*
X155575000Y-62865000D03*
X158115000Y-65405000D03*
X158115000Y-62865000D03*
X160655000Y-65405000D03*
X160655000Y-62865000D03*
X163195000Y-65405000D03*
X163195000Y-62865000D03*
X165735000Y-65405000D03*
X165735000Y-62865000D03*
G04 #@! TD*
D11*
G04 #@! TO.C,P0*
X172085000Y-80010000D03*
D12*
X172085000Y-82550000D03*
X169545000Y-80010000D03*
X169545000Y-82550000D03*
X167005000Y-80010000D03*
X167005000Y-82550000D03*
X164465000Y-80010000D03*
X164465000Y-82550000D03*
X161925000Y-80010000D03*
X161925000Y-82550000D03*
G04 #@! TD*
D13*
G04 #@! TO.C,P3*
X180000000Y-58540000D03*
D14*
X180000000Y-53460000D03*
G04 #@! TD*
D15*
G04 #@! TO.C,U4*
X177673000Y-64541000D03*
D16*
X177673000Y-70841000D03*
X179973000Y-70841000D03*
X175373000Y-70841000D03*
G04 #@! TD*
D17*
G04 #@! TO.C,C1*
X181610000Y-78200000D03*
X181610000Y-74200000D03*
G04 #@! TD*
D18*
G04 #@! TO.C,U2*
X157861000Y-58928000D03*
X157861000Y-56388000D03*
X157861000Y-55118000D03*
X157861000Y-53848000D03*
X157861000Y-52578000D03*
X157861000Y-51308000D03*
X157861000Y-50038000D03*
X164211000Y-50038000D03*
X164211000Y-51308000D03*
X164211000Y-52578000D03*
X164211000Y-53848000D03*
X164211000Y-55118000D03*
X164211000Y-56388000D03*
X164211000Y-57658000D03*
X164211000Y-58928000D03*
X157861000Y-57658000D03*
G04 #@! TD*
G04 #@! TO.C,U3*
X170180000Y-85725000D03*
X170180000Y-88265000D03*
X170180000Y-89535000D03*
X170180000Y-90805000D03*
X170180000Y-92075000D03*
X170180000Y-93345000D03*
X170180000Y-94615000D03*
X163830000Y-94615000D03*
X163830000Y-93345000D03*
X163830000Y-92075000D03*
X163830000Y-90805000D03*
X163830000Y-89535000D03*
X163830000Y-88265000D03*
X163830000Y-86995000D03*
X163830000Y-85725000D03*
X170180000Y-86995000D03*
G04 #@! TD*
D19*
G04 #@! TO.C,RN1*
X177292000Y-76200000D03*
D20*
X174752000Y-76200000D03*
X172212000Y-76200000D03*
X169672000Y-76200000D03*
X167132000Y-76200000D03*
X164592000Y-76200000D03*
X162052000Y-76200000D03*
X159512000Y-76200000D03*
X156972000Y-76200000D03*
G04 #@! TD*
D19*
G04 #@! TO.C,RN2*
X151130000Y-68199000D03*
D20*
X153670000Y-68199000D03*
X156210000Y-68199000D03*
X158750000Y-68199000D03*
X161290000Y-68199000D03*
X163830000Y-68199000D03*
X166370000Y-68199000D03*
X168910000Y-68199000D03*
X171450000Y-68199000D03*
G04 #@! TD*
D21*
G04 #@! TO.C,U1*
X137034000Y-80757000D03*
X137034000Y-82757000D03*
X137034000Y-84757000D03*
X137034000Y-86757000D03*
X137034000Y-88757000D03*
X137034000Y-90757000D03*
X137034000Y-92757000D03*
X137034000Y-94757000D03*
X153034000Y-94757000D03*
X153034000Y-92757000D03*
X153034000Y-90757000D03*
X153034000Y-88757000D03*
X153034000Y-86757000D03*
X153034000Y-84757000D03*
X153034000Y-82757000D03*
X153034000Y-80757000D03*
G04 #@! TD*
D22*
G04 #@! TO.C,R1*
X137099000Y-68199000D03*
X138999000Y-68199000D03*
G04 #@! TD*
D23*
G04 #@! TO.C,R2*
X156845000Y-86045000D03*
X156845000Y-87945000D03*
G04 #@! TD*
D22*
G04 #@! TO.C,R3*
X156911000Y-90424000D03*
X158811000Y-90424000D03*
G04 #@! TD*
D24*
G04 #@! TO.C,C2*
X157861000Y-96369000D03*
X157861000Y-93369000D03*
G04 #@! TD*
D22*
G04 #@! TO.C,R4*
X137099000Y-65024000D03*
X138999000Y-65024000D03*
G04 #@! TD*
D25*
G04 #@! TO.C,SW1*
X140811000Y-57231000D03*
X140811000Y-51481000D03*
X136811000Y-51481000D03*
X136811000Y-57231000D03*
G04 #@! TD*
M02*
