G04 #@! TF.GenerationSoftware,KiCad,Pcbnew,5.0.0-fee4fd1~66~ubuntu16.04.1*
G04 #@! TF.CreationDate,2018-09-27T11:54:36+02:00*
G04 #@! TF.ProjectId,IN16_optoToESP8266,494E31365F6F70746F546F4553503832,rev?*
G04 #@! TF.SameCoordinates,Original*
G04 #@! TF.FileFunction,Soldermask,Bot*
G04 #@! TF.FilePolarity,Negative*
%FSLAX46Y46*%
G04 Gerber Fmt 4.6, Leading zero omitted, Abs format (unit mm)*
G04 Created by KiCad (PCBNEW 5.0.0-fee4fd1~66~ubuntu16.04.1) date Thu Sep 27 11:54:36 2018*
%MOMM*%
%LPD*%
G01*
G04 APERTURE LIST*
%ADD10C,0.381000*%
%ADD11R,2.032000X2.032000*%
%ADD12C,2.032000*%
%ADD13R,3.048000X3.048000*%
%ADD14C,3.048000*%
%ADD15R,2.208000X2.208000*%
%ADD16O,2.208000X2.208000*%
G04 APERTURE END LIST*
D10*
X134000000Y-98000000D02*
X184000000Y-98000000D01*
X134000000Y-48000000D02*
X134000000Y-98000000D01*
X184000000Y-48000000D02*
X134000000Y-48000000D01*
X184000000Y-98000000D02*
X184000000Y-48000000D01*
D11*
G04 #@! TO.C,P1*
X155575000Y-65405000D03*
D12*
X155575000Y-62865000D03*
X158115000Y-65405000D03*
X158115000Y-62865000D03*
X160655000Y-65405000D03*
X160655000Y-62865000D03*
X163195000Y-65405000D03*
X163195000Y-62865000D03*
X165735000Y-65405000D03*
X165735000Y-62865000D03*
G04 #@! TD*
D11*
G04 #@! TO.C,P0*
X172085000Y-80010000D03*
D12*
X172085000Y-82550000D03*
X169545000Y-80010000D03*
X169545000Y-82550000D03*
X167005000Y-80010000D03*
X167005000Y-82550000D03*
X164465000Y-80010000D03*
X164465000Y-82550000D03*
X161925000Y-80010000D03*
X161925000Y-82550000D03*
G04 #@! TD*
D13*
G04 #@! TO.C,P3*
X180000000Y-58540000D03*
D14*
X180000000Y-53460000D03*
G04 #@! TD*
D15*
G04 #@! TO.C,RN1*
X177292000Y-76200000D03*
D16*
X174752000Y-76200000D03*
X172212000Y-76200000D03*
X169672000Y-76200000D03*
X167132000Y-76200000D03*
X164592000Y-76200000D03*
X162052000Y-76200000D03*
X159512000Y-76200000D03*
X156972000Y-76200000D03*
G04 #@! TD*
D15*
G04 #@! TO.C,RN2*
X151130000Y-68199000D03*
D16*
X153670000Y-68199000D03*
X156210000Y-68199000D03*
X158750000Y-68199000D03*
X161290000Y-68199000D03*
X163830000Y-68199000D03*
X166370000Y-68199000D03*
X168910000Y-68199000D03*
X171450000Y-68199000D03*
G04 #@! TD*
M02*
