G04 #@! TF.GenerationSoftware,KiCad,Pcbnew,5.0.0-fee4fd1~66~ubuntu16.04.1*
G04 #@! TF.CreationDate,2018-10-04T10:54:54+02:00*
G04 #@! TF.ProjectId,8Relays,3852656C6179732E6B696361645F7063,rev?*
G04 #@! TF.SameCoordinates,Original*
G04 #@! TF.FileFunction,Soldermask,Bot*
G04 #@! TF.FilePolarity,Negative*
%FSLAX46Y46*%
G04 Gerber Fmt 4.6, Leading zero omitted, Abs format (unit mm)*
G04 Created by KiCad (PCBNEW 5.0.0-fee4fd1~66~ubuntu16.04.1) date Thu Oct  4 10:54:54 2018*
%MOMM*%
%LPD*%
G01*
G04 APERTURE LIST*
%ADD10C,2.600000*%
%ADD11R,3.400000X3.400000*%
%ADD12C,3.400000*%
%ADD13R,2.100000X2.100000*%
%ADD14O,2.100000X2.100000*%
G04 APERTURE END LIST*
D10*
G04 #@! TO.C,K7*
X172720000Y-123190000D03*
X172720000Y-115570000D03*
X185420000Y-123190000D03*
X187960000Y-115570000D03*
G04 #@! TD*
D11*
G04 #@! TO.C,J1*
X140335000Y-49530000D03*
D12*
X135255000Y-49530000D03*
G04 #@! TD*
D11*
G04 #@! TO.C,J2*
X195000000Y-53340000D03*
D12*
X195000000Y-48260000D03*
G04 #@! TD*
G04 #@! TO.C,J3*
X195000000Y-59690000D03*
D11*
X195000000Y-64770000D03*
G04 #@! TD*
G04 #@! TO.C,J4*
X195000000Y-76200000D03*
D12*
X195000000Y-71120000D03*
G04 #@! TD*
G04 #@! TO.C,J5*
X195000000Y-82550000D03*
D11*
X195000000Y-87630000D03*
G04 #@! TD*
G04 #@! TO.C,J6*
X195000000Y-99060000D03*
D12*
X195000000Y-93980000D03*
G04 #@! TD*
G04 #@! TO.C,J7*
X195000000Y-105410000D03*
D11*
X195000000Y-110490000D03*
G04 #@! TD*
G04 #@! TO.C,J8*
X195000000Y-121920000D03*
D12*
X195000000Y-116840000D03*
G04 #@! TD*
G04 #@! TO.C,J9*
X195000000Y-128270000D03*
D11*
X195000000Y-133350000D03*
G04 #@! TD*
D10*
G04 #@! TO.C,K1*
X187960000Y-46990000D03*
X185420000Y-54610000D03*
X172720000Y-46990000D03*
X172720000Y-54610000D03*
G04 #@! TD*
G04 #@! TO.C,K2*
X172720000Y-66040000D03*
X172720000Y-58420000D03*
X185420000Y-66040000D03*
X187960000Y-58420000D03*
G04 #@! TD*
G04 #@! TO.C,K3*
X187960000Y-69850000D03*
X185420000Y-77470000D03*
X172720000Y-69850000D03*
X172720000Y-77470000D03*
G04 #@! TD*
G04 #@! TO.C,K4*
X172720000Y-88900000D03*
X172720000Y-81280000D03*
X185420000Y-88900000D03*
X187960000Y-81280000D03*
G04 #@! TD*
G04 #@! TO.C,K5*
X172720000Y-100330000D03*
X172720000Y-92710000D03*
X185420000Y-100330000D03*
X187960000Y-92710000D03*
G04 #@! TD*
G04 #@! TO.C,K6*
X187960000Y-104140000D03*
X185420000Y-111760000D03*
X172720000Y-104140000D03*
X172720000Y-111760000D03*
G04 #@! TD*
G04 #@! TO.C,K8*
X187960000Y-127000000D03*
X185420000Y-134620000D03*
X172720000Y-127000000D03*
X172720000Y-134620000D03*
G04 #@! TD*
D13*
G04 #@! TO.C,J10*
X143891000Y-124460000D03*
D14*
X146431000Y-124460000D03*
X148971000Y-124460000D03*
X151511000Y-124460000D03*
G04 #@! TD*
M02*
