G04 #@! TF.GenerationSoftware,KiCad,Pcbnew,5.0.0-fee4fd1~66~ubuntu16.04.1*
G04 #@! TF.CreationDate,2018-09-27T13:50:44+02:00*
G04 #@! TF.ProjectId,LedDimmer_ESP8266,4C656444696D6D65725F455350383236,rev?*
G04 #@! TF.SameCoordinates,Original*
G04 #@! TF.FileFunction,Copper,L2,Bot,Signal*
G04 #@! TF.FilePolarity,Positive*
%FSLAX46Y46*%
G04 Gerber Fmt 4.6, Leading zero omitted, Abs format (unit mm)*
G04 Created by KiCad (PCBNEW 5.0.0-fee4fd1~66~ubuntu16.04.1) date Thu Sep 27 13:50:44 2018*
%MOMM*%
%LPD*%
G01*
G04 APERTURE LIST*
G04 #@! TA.AperFunction,ComponentPad*
%ADD10R,2.540000X2.540000*%
G04 #@! TD*
G04 #@! TA.AperFunction,ComponentPad*
%ADD11C,2.540000*%
G04 #@! TD*
G04 #@! TA.AperFunction,SMDPad,CuDef*
%ADD12R,0.600000X2.000000*%
G04 #@! TD*
G04 #@! TA.AperFunction,SMDPad,CuDef*
%ADD13R,1.500000X0.600000*%
G04 #@! TD*
G04 #@! TA.AperFunction,ViaPad*
%ADD14C,0.600000*%
G04 #@! TD*
G04 #@! TA.AperFunction,Conductor*
%ADD15C,0.250000*%
G04 #@! TD*
G04 #@! TA.AperFunction,Conductor*
%ADD16C,1.000000*%
G04 #@! TD*
G04 #@! TA.AperFunction,Conductor*
%ADD17C,0.254000*%
G04 #@! TD*
G04 APERTURE END LIST*
D10*
G04 #@! TO.P,5VIN1,1*
G04 #@! TO.N,VCC*
X172720000Y-116840000D03*
D11*
G04 #@! TO.P,5VIN1,2*
G04 #@! TO.N,GND*
X177800000Y-116840000D03*
G04 #@! TD*
D10*
G04 #@! TO.P,BT1,1*
G04 #@! TO.N,/BTN1*
X144780000Y-113030000D03*
D11*
G04 #@! TO.P,BT1,2*
G04 #@! TO.N,GND*
X144780000Y-118110000D03*
G04 #@! TD*
D10*
G04 #@! TO.P,BT2,1*
G04 #@! TO.N,/BTN2*
X144780000Y-90170000D03*
D11*
G04 #@! TO.P,BT2,2*
G04 #@! TO.N,GND*
X144780000Y-95250000D03*
G04 #@! TD*
D12*
G04 #@! TO.P,IC1,1*
G04 #@! TO.N,/L1*
X174879000Y-89917000D03*
G04 #@! TO.P,IC1,2*
G04 #@! TO.N,/L2*
X173609000Y-89917000D03*
G04 #@! TO.P,IC1,3*
G04 #@! TO.N,Net-(IC1-Pad3)*
X172339000Y-89917000D03*
G04 #@! TO.P,IC1,4*
G04 #@! TO.N,Net-(IC1-Pad4)*
X171069000Y-89917000D03*
G04 #@! TO.P,IC1,5*
G04 #@! TO.N,Net-(IC1-Pad5)*
X169799000Y-89917000D03*
G04 #@! TO.P,IC1,6*
G04 #@! TO.N,Net-(IC1-Pad6)*
X168529000Y-89917000D03*
G04 #@! TO.P,IC1,7*
G04 #@! TO.N,Net-(IC1-Pad7)*
X167259000Y-89917000D03*
G04 #@! TO.P,IC1,8*
G04 #@! TO.N,Net-(IC1-Pad8)*
X165989000Y-89917000D03*
G04 #@! TO.P,IC1,9*
G04 #@! TO.N,GND*
X164719000Y-89917000D03*
G04 #@! TO.P,IC1,10*
G04 #@! TO.N,VCC*
X164719000Y-80517000D03*
G04 #@! TO.P,IC1,11*
G04 #@! TO.N,Net-(IC1-Pad11)*
X165989000Y-80517000D03*
G04 #@! TO.P,IC1,12*
G04 #@! TO.N,Net-(IC1-Pad12)*
X167259000Y-80517000D03*
G04 #@! TO.P,IC1,13*
G04 #@! TO.N,Net-(IC1-Pad13)*
X168529000Y-80517000D03*
G04 #@! TO.P,IC1,14*
G04 #@! TO.N,Net-(IC1-Pad14)*
X169799000Y-80517000D03*
G04 #@! TO.P,IC1,15*
G04 #@! TO.N,Net-(IC1-Pad15)*
X171069000Y-80517000D03*
G04 #@! TO.P,IC1,16*
G04 #@! TO.N,Net-(IC1-Pad16)*
X172339000Y-80517000D03*
G04 #@! TO.P,IC1,17*
G04 #@! TO.N,/LED2*
X173609000Y-80517000D03*
G04 #@! TO.P,IC1,18*
G04 #@! TO.N,/LED1*
X174879000Y-80517000D03*
G04 #@! TD*
D10*
G04 #@! TO.P,LED_BT1,1*
G04 #@! TO.N,VCC*
X144780000Y-101600000D03*
D11*
G04 #@! TO.P,LED_BT1,2*
G04 #@! TO.N,/LED1*
X144780000Y-106680000D03*
G04 #@! TD*
D10*
G04 #@! TO.P,LED_BT2,1*
G04 #@! TO.N,VCC*
X144780000Y-78740000D03*
D11*
G04 #@! TO.P,LED_BT2,2*
G04 #@! TO.N,/LED2*
X144780000Y-83820000D03*
G04 #@! TD*
D10*
G04 #@! TO.P,LED_STRIP_1,1*
G04 #@! TO.N,VCC*
X186690000Y-92710000D03*
D11*
G04 #@! TO.P,LED_STRIP_1,2*
G04 #@! TO.N,/OUT1*
X186690000Y-87630000D03*
G04 #@! TO.P,LED_STRIP_1,3*
G04 #@! TO.N,GND*
X186690000Y-82550000D03*
G04 #@! TD*
D10*
G04 #@! TO.P,LED_STRIP_2,1*
G04 #@! TO.N,VCC*
X186690000Y-109220000D03*
D11*
G04 #@! TO.P,LED_STRIP_2,2*
G04 #@! TO.N,/OUT2*
X186690000Y-104140000D03*
G04 #@! TO.P,LED_STRIP_2,3*
G04 #@! TO.N,GND*
X186690000Y-99060000D03*
G04 #@! TD*
D13*
G04 #@! TO.P,U3,1*
G04 #@! TO.N,GND*
X171483000Y-97028000D03*
G04 #@! TO.P,U3,2*
G04 #@! TO.N,/O1*
X171483000Y-98298000D03*
G04 #@! TO.P,U3,3*
G04 #@! TO.N,/OUT1*
X171483000Y-99568000D03*
G04 #@! TO.P,U3,4*
G04 #@! TO.N,GND*
X171483000Y-100838000D03*
G04 #@! TO.P,U3,5*
G04 #@! TO.N,/O2*
X171483000Y-102108000D03*
G04 #@! TO.P,U3,6*
G04 #@! TO.N,/OUT2*
X171483000Y-103378000D03*
G04 #@! TO.P,U3,7*
G04 #@! TO.N,GND*
X171483000Y-104648000D03*
G04 #@! TO.P,U3,8*
G04 #@! TO.N,Net-(U3-Pad8)*
X166083000Y-104648000D03*
G04 #@! TO.P,U3,9*
G04 #@! TO.N,Net-(U3-Pad9)*
X166083000Y-103378000D03*
G04 #@! TO.P,U3,10*
G04 #@! TO.N,Net-(U3-Pad10)*
X166083000Y-102108000D03*
G04 #@! TO.P,U3,11*
G04 #@! TO.N,Net-(U3-Pad11)*
X166083000Y-100838000D03*
G04 #@! TO.P,U3,12*
G04 #@! TO.N,Net-(U3-Pad12)*
X166083000Y-99568000D03*
G04 #@! TO.P,U3,13*
G04 #@! TO.N,Net-(U3-Pad13)*
X166083000Y-98298000D03*
G04 #@! TO.P,U3,14*
G04 #@! TO.N,VCC*
X166083000Y-97028000D03*
G04 #@! TD*
D14*
G04 #@! TO.N,/BTN2*
X153416000Y-90170000D03*
G04 #@! TO.N,/L1*
X176022000Y-87757000D03*
G04 #@! TO.N,/L2*
X174371000Y-92837000D03*
G04 #@! TO.N,/LED1*
X150114000Y-99949000D03*
G04 #@! TO.N,/O2*
X180848000Y-98298000D03*
G04 #@! TO.N,/O1*
X171577000Y-94869000D03*
G04 #@! TO.N,VCC*
X155829000Y-80518000D03*
G04 #@! TD*
D15*
G04 #@! TO.N,GND*
X144780000Y-95250000D02*
X144526000Y-95250000D01*
G04 #@! TO.N,/BTN2*
X144780000Y-90170000D02*
X153416000Y-90170000D01*
G04 #@! TO.N,/L1*
X174879000Y-88900000D02*
X174879000Y-89917000D01*
X176022000Y-87757000D02*
X174879000Y-88900000D01*
G04 #@! TO.N,/L2*
X173609000Y-92075000D02*
X173609000Y-89917000D01*
X174371000Y-92837000D02*
X173609000Y-92075000D01*
G04 #@! TO.N,/LED2*
X144780000Y-83820000D02*
X148463000Y-83820000D01*
X173609000Y-79121000D02*
X173609000Y-80517000D01*
X172720000Y-78232000D02*
X173609000Y-79121000D01*
X154051000Y-78232000D02*
X172720000Y-78232000D01*
X148463000Y-83820000D02*
X154051000Y-78232000D01*
G04 #@! TO.N,/LED1*
X174879000Y-80517000D02*
X174879000Y-82042000D01*
X150114000Y-98679000D02*
X150114000Y-99949000D01*
X165354000Y-83439000D02*
X150114000Y-98679000D01*
X173482000Y-83439000D02*
X165354000Y-83439000D01*
X174879000Y-82042000D02*
X173482000Y-83439000D01*
G04 #@! TO.N,/OUT1*
X171483000Y-99568000D02*
X174752000Y-99568000D01*
X174752000Y-99568000D02*
X186690000Y-87630000D01*
G04 #@! TO.N,/OUT2*
X171483000Y-103378000D02*
X182118000Y-103378000D01*
X182880000Y-104140000D02*
X186690000Y-104140000D01*
X182118000Y-103378000D02*
X182880000Y-104140000D01*
G04 #@! TO.N,/O2*
X177038000Y-102108000D02*
X171483000Y-102108000D01*
X180848000Y-98298000D02*
X177038000Y-102108000D01*
G04 #@! TO.N,/O1*
X170307000Y-98298000D02*
X171483000Y-98298000D01*
X169926000Y-97917000D02*
X170307000Y-98298000D01*
X169926000Y-96520000D02*
X169926000Y-97917000D01*
X171577000Y-94869000D02*
X169926000Y-96520000D01*
G04 #@! TO.N,VCC*
X186690000Y-92710000D02*
X187071000Y-92710000D01*
X187071000Y-92710000D02*
X189230000Y-94869000D01*
X189230000Y-94869000D02*
X189230000Y-106680000D01*
X189230000Y-106680000D02*
X186690000Y-109220000D01*
X164719000Y-80517000D02*
X155830000Y-80517000D01*
X155830000Y-80517000D02*
X155829000Y-80518000D01*
X166083000Y-97028000D02*
X158115000Y-97028000D01*
X158115000Y-97028000D02*
X153543000Y-101600000D01*
D16*
X170450000Y-116840000D02*
X170290000Y-117000000D01*
X172720000Y-116840000D02*
X170450000Y-116840000D01*
X168943000Y-117000000D02*
X153543000Y-101600000D01*
X170290000Y-117000000D02*
X168943000Y-117000000D01*
X144780000Y-101600000D02*
X153543000Y-101600000D01*
G04 #@! TD*
D17*
G04 #@! TO.N,GND*
G36*
X190290001Y-120290000D02*
X141710000Y-120290000D01*
X141710000Y-119457777D01*
X143611828Y-119457777D01*
X143743520Y-119752657D01*
X144451036Y-120024261D01*
X145208632Y-120004436D01*
X145816480Y-119752657D01*
X145948172Y-119457777D01*
X144780000Y-118289605D01*
X143611828Y-119457777D01*
X141710000Y-119457777D01*
X141710000Y-117781036D01*
X142865739Y-117781036D01*
X142885564Y-118538632D01*
X143137343Y-119146480D01*
X143432223Y-119278172D01*
X144600395Y-118110000D01*
X144959605Y-118110000D01*
X146127777Y-119278172D01*
X146422657Y-119146480D01*
X146694261Y-118438964D01*
X146674436Y-117681368D01*
X146422657Y-117073520D01*
X146127777Y-116941828D01*
X144959605Y-118110000D01*
X144600395Y-118110000D01*
X143432223Y-116941828D01*
X143137343Y-117073520D01*
X142865739Y-117781036D01*
X141710000Y-117781036D01*
X141710000Y-116762223D01*
X143611828Y-116762223D01*
X144780000Y-117930395D01*
X145948172Y-116762223D01*
X145816480Y-116467343D01*
X145108964Y-116195739D01*
X144351368Y-116215564D01*
X143743520Y-116467343D01*
X143611828Y-116762223D01*
X141710000Y-116762223D01*
X141710000Y-111760000D01*
X142862560Y-111760000D01*
X142862560Y-114300000D01*
X142911843Y-114547765D01*
X143052191Y-114757809D01*
X143262235Y-114898157D01*
X143510000Y-114947440D01*
X146050000Y-114947440D01*
X146297765Y-114898157D01*
X146507809Y-114757809D01*
X146648157Y-114547765D01*
X146697440Y-114300000D01*
X146697440Y-111760000D01*
X146648157Y-111512235D01*
X146507809Y-111302191D01*
X146297765Y-111161843D01*
X146050000Y-111112560D01*
X143510000Y-111112560D01*
X143262235Y-111161843D01*
X143052191Y-111302191D01*
X142911843Y-111512235D01*
X142862560Y-111760000D01*
X141710000Y-111760000D01*
X141710000Y-106301072D01*
X142875000Y-106301072D01*
X142875000Y-107058928D01*
X143165019Y-107759096D01*
X143700904Y-108294981D01*
X144401072Y-108585000D01*
X145158928Y-108585000D01*
X145859096Y-108294981D01*
X146394981Y-107759096D01*
X146685000Y-107058928D01*
X146685000Y-106301072D01*
X146394981Y-105600904D01*
X145859096Y-105065019D01*
X145158928Y-104775000D01*
X144401072Y-104775000D01*
X143700904Y-105065019D01*
X143165019Y-105600904D01*
X142875000Y-106301072D01*
X141710000Y-106301072D01*
X141710000Y-100330000D01*
X142862560Y-100330000D01*
X142862560Y-102870000D01*
X142911843Y-103117765D01*
X143052191Y-103327809D01*
X143262235Y-103468157D01*
X143510000Y-103517440D01*
X146050000Y-103517440D01*
X146297765Y-103468157D01*
X146507809Y-103327809D01*
X146648157Y-103117765D01*
X146697440Y-102870000D01*
X146697440Y-102735000D01*
X153072869Y-102735000D01*
X168061389Y-117723521D01*
X168124711Y-117818289D01*
X168359246Y-117975000D01*
X168500145Y-118069146D01*
X168943000Y-118157235D01*
X169054783Y-118135000D01*
X170178217Y-118135000D01*
X170290000Y-118157235D01*
X170401783Y-118135000D01*
X170732855Y-118069146D01*
X170802560Y-118022571D01*
X170802560Y-118110000D01*
X170851843Y-118357765D01*
X170992191Y-118567809D01*
X171202235Y-118708157D01*
X171450000Y-118757440D01*
X173990000Y-118757440D01*
X174237765Y-118708157D01*
X174447809Y-118567809D01*
X174588157Y-118357765D01*
X174621969Y-118187777D01*
X176631828Y-118187777D01*
X176763520Y-118482657D01*
X177471036Y-118754261D01*
X178228632Y-118734436D01*
X178836480Y-118482657D01*
X178968172Y-118187777D01*
X177800000Y-117019605D01*
X176631828Y-118187777D01*
X174621969Y-118187777D01*
X174637440Y-118110000D01*
X174637440Y-116511036D01*
X175885739Y-116511036D01*
X175905564Y-117268632D01*
X176157343Y-117876480D01*
X176452223Y-118008172D01*
X177620395Y-116840000D01*
X177979605Y-116840000D01*
X179147777Y-118008172D01*
X179442657Y-117876480D01*
X179714261Y-117168964D01*
X179694436Y-116411368D01*
X179442657Y-115803520D01*
X179147777Y-115671828D01*
X177979605Y-116840000D01*
X177620395Y-116840000D01*
X176452223Y-115671828D01*
X176157343Y-115803520D01*
X175885739Y-116511036D01*
X174637440Y-116511036D01*
X174637440Y-115570000D01*
X174621970Y-115492223D01*
X176631828Y-115492223D01*
X177800000Y-116660395D01*
X178968172Y-115492223D01*
X178836480Y-115197343D01*
X178128964Y-114925739D01*
X177371368Y-114945564D01*
X176763520Y-115197343D01*
X176631828Y-115492223D01*
X174621970Y-115492223D01*
X174588157Y-115322235D01*
X174447809Y-115112191D01*
X174237765Y-114971843D01*
X173990000Y-114922560D01*
X171450000Y-114922560D01*
X171202235Y-114971843D01*
X170992191Y-115112191D01*
X170851843Y-115322235D01*
X170802560Y-115570000D01*
X170802560Y-115705000D01*
X170561782Y-115705000D01*
X170449999Y-115682765D01*
X170189480Y-115734585D01*
X170007145Y-115770854D01*
X169866246Y-115865000D01*
X169413132Y-115865000D01*
X154882966Y-101334835D01*
X158429803Y-97788000D01*
X164727331Y-97788000D01*
X164685560Y-97998000D01*
X164685560Y-98598000D01*
X164734843Y-98845765D01*
X164793132Y-98933000D01*
X164734843Y-99020235D01*
X164685560Y-99268000D01*
X164685560Y-99868000D01*
X164734843Y-100115765D01*
X164793132Y-100203000D01*
X164734843Y-100290235D01*
X164685560Y-100538000D01*
X164685560Y-101138000D01*
X164734843Y-101385765D01*
X164793132Y-101473000D01*
X164734843Y-101560235D01*
X164685560Y-101808000D01*
X164685560Y-102408000D01*
X164734843Y-102655765D01*
X164793132Y-102743000D01*
X164734843Y-102830235D01*
X164685560Y-103078000D01*
X164685560Y-103678000D01*
X164734843Y-103925765D01*
X164793132Y-104013000D01*
X164734843Y-104100235D01*
X164685560Y-104348000D01*
X164685560Y-104948000D01*
X164734843Y-105195765D01*
X164875191Y-105405809D01*
X165085235Y-105546157D01*
X165333000Y-105595440D01*
X166833000Y-105595440D01*
X167080765Y-105546157D01*
X167290809Y-105405809D01*
X167431157Y-105195765D01*
X167480440Y-104948000D01*
X167480440Y-104933750D01*
X170098000Y-104933750D01*
X170098000Y-105074310D01*
X170194673Y-105307699D01*
X170373302Y-105486327D01*
X170606691Y-105583000D01*
X171197250Y-105583000D01*
X171356000Y-105424250D01*
X171356000Y-104775000D01*
X171610000Y-104775000D01*
X171610000Y-105424250D01*
X171768750Y-105583000D01*
X172359309Y-105583000D01*
X172592698Y-105486327D01*
X172771327Y-105307699D01*
X172868000Y-105074310D01*
X172868000Y-104933750D01*
X172709250Y-104775000D01*
X171610000Y-104775000D01*
X171356000Y-104775000D01*
X170256750Y-104775000D01*
X170098000Y-104933750D01*
X167480440Y-104933750D01*
X167480440Y-104348000D01*
X167431157Y-104100235D01*
X167372868Y-104013000D01*
X167431157Y-103925765D01*
X167480440Y-103678000D01*
X167480440Y-103078000D01*
X167431157Y-102830235D01*
X167372868Y-102743000D01*
X167431157Y-102655765D01*
X167480440Y-102408000D01*
X167480440Y-101808000D01*
X170085560Y-101808000D01*
X170085560Y-102408000D01*
X170134843Y-102655765D01*
X170193132Y-102743000D01*
X170134843Y-102830235D01*
X170085560Y-103078000D01*
X170085560Y-103678000D01*
X170134843Y-103925765D01*
X170187768Y-104004972D01*
X170098000Y-104221690D01*
X170098000Y-104362250D01*
X170256750Y-104521000D01*
X171356000Y-104521000D01*
X171356000Y-104501000D01*
X171610000Y-104501000D01*
X171610000Y-104521000D01*
X172709250Y-104521000D01*
X172868000Y-104362250D01*
X172868000Y-104221690D01*
X172833334Y-104138000D01*
X181803199Y-104138000D01*
X182289671Y-104624473D01*
X182332071Y-104687929D01*
X182395527Y-104730329D01*
X182583462Y-104855904D01*
X182631605Y-104865480D01*
X182805148Y-104900000D01*
X182805152Y-104900000D01*
X182880000Y-104914888D01*
X182954848Y-104900000D01*
X184942845Y-104900000D01*
X185075019Y-105219096D01*
X185610904Y-105754981D01*
X186311072Y-106045000D01*
X187068928Y-106045000D01*
X187769096Y-105754981D01*
X188304981Y-105219096D01*
X188470001Y-104820703D01*
X188470001Y-106365196D01*
X187532638Y-107302560D01*
X185420000Y-107302560D01*
X185172235Y-107351843D01*
X184962191Y-107492191D01*
X184821843Y-107702235D01*
X184772560Y-107950000D01*
X184772560Y-110490000D01*
X184821843Y-110737765D01*
X184962191Y-110947809D01*
X185172235Y-111088157D01*
X185420000Y-111137440D01*
X187960000Y-111137440D01*
X188207765Y-111088157D01*
X188417809Y-110947809D01*
X188558157Y-110737765D01*
X188607440Y-110490000D01*
X188607440Y-108377362D01*
X189714476Y-107270327D01*
X189777929Y-107227929D01*
X189820327Y-107164476D01*
X189820329Y-107164474D01*
X189945903Y-106976538D01*
X189945904Y-106976537D01*
X189990000Y-106754852D01*
X189990000Y-106754848D01*
X190004888Y-106680001D01*
X189990000Y-106605154D01*
X189990000Y-94943846D01*
X190004888Y-94868999D01*
X189990000Y-94794152D01*
X189990000Y-94794148D01*
X189945904Y-94572463D01*
X189777929Y-94321071D01*
X189714473Y-94278671D01*
X188607440Y-93171639D01*
X188607440Y-91440000D01*
X188558157Y-91192235D01*
X188417809Y-90982191D01*
X188207765Y-90841843D01*
X187960000Y-90792560D01*
X185420000Y-90792560D01*
X185172235Y-90841843D01*
X184962191Y-90982191D01*
X184821843Y-91192235D01*
X184772560Y-91440000D01*
X184772560Y-93980000D01*
X184821843Y-94227765D01*
X184962191Y-94437809D01*
X185172235Y-94578157D01*
X185420000Y-94627440D01*
X187913638Y-94627440D01*
X188470000Y-95183802D01*
X188470000Y-98355096D01*
X188332657Y-98023520D01*
X188037777Y-97891828D01*
X186869605Y-99060000D01*
X188037777Y-100228172D01*
X188332657Y-100096480D01*
X188470000Y-99738707D01*
X188470001Y-103459297D01*
X188304981Y-103060904D01*
X187769096Y-102525019D01*
X187068928Y-102235000D01*
X186311072Y-102235000D01*
X185610904Y-102525019D01*
X185075019Y-103060904D01*
X184942845Y-103380000D01*
X183194802Y-103380000D01*
X182708331Y-102893530D01*
X182665929Y-102830071D01*
X182414537Y-102662096D01*
X182192852Y-102618000D01*
X182192847Y-102618000D01*
X182118000Y-102603112D01*
X182043153Y-102618000D01*
X177611272Y-102618000D01*
X177628331Y-102592470D01*
X179813024Y-100407777D01*
X185521828Y-100407777D01*
X185653520Y-100702657D01*
X186361036Y-100974261D01*
X187118632Y-100954436D01*
X187726480Y-100702657D01*
X187858172Y-100407777D01*
X186690000Y-99239605D01*
X185521828Y-100407777D01*
X179813024Y-100407777D01*
X180987802Y-99233000D01*
X181033983Y-99233000D01*
X181377635Y-99090655D01*
X181640655Y-98827635D01*
X181680667Y-98731036D01*
X184775739Y-98731036D01*
X184795564Y-99488632D01*
X185047343Y-100096480D01*
X185342223Y-100228172D01*
X186510395Y-99060000D01*
X185342223Y-97891828D01*
X185047343Y-98023520D01*
X184775739Y-98731036D01*
X181680667Y-98731036D01*
X181783000Y-98483983D01*
X181783000Y-98112017D01*
X181640655Y-97768365D01*
X181584513Y-97712223D01*
X185521828Y-97712223D01*
X186690000Y-98880395D01*
X187858172Y-97712223D01*
X187726480Y-97417343D01*
X187018964Y-97145739D01*
X186261368Y-97165564D01*
X185653520Y-97417343D01*
X185521828Y-97712223D01*
X181584513Y-97712223D01*
X181377635Y-97505345D01*
X181033983Y-97363000D01*
X180662017Y-97363000D01*
X180318365Y-97505345D01*
X180055345Y-97768365D01*
X179913000Y-98112017D01*
X179913000Y-98158198D01*
X176723199Y-101348000D01*
X172833334Y-101348000D01*
X172868000Y-101264310D01*
X172868000Y-101123750D01*
X172709250Y-100965000D01*
X171610000Y-100965000D01*
X171610000Y-100985000D01*
X171356000Y-100985000D01*
X171356000Y-100965000D01*
X170256750Y-100965000D01*
X170098000Y-101123750D01*
X170098000Y-101264310D01*
X170187768Y-101481028D01*
X170134843Y-101560235D01*
X170085560Y-101808000D01*
X167480440Y-101808000D01*
X167431157Y-101560235D01*
X167372868Y-101473000D01*
X167431157Y-101385765D01*
X167480440Y-101138000D01*
X167480440Y-100538000D01*
X167431157Y-100290235D01*
X167372868Y-100203000D01*
X167431157Y-100115765D01*
X167480440Y-99868000D01*
X167480440Y-99268000D01*
X167431157Y-99020235D01*
X167372868Y-98933000D01*
X167431157Y-98845765D01*
X167480440Y-98598000D01*
X167480440Y-97998000D01*
X167431157Y-97750235D01*
X167372868Y-97663000D01*
X167431157Y-97575765D01*
X167480440Y-97328000D01*
X167480440Y-96728000D01*
X167439067Y-96520000D01*
X169151112Y-96520000D01*
X169166000Y-96594847D01*
X169166001Y-97842149D01*
X169151112Y-97917000D01*
X169210097Y-98213537D01*
X169322971Y-98382464D01*
X169378072Y-98464929D01*
X169441527Y-98507329D01*
X169716671Y-98782472D01*
X169759071Y-98845929D01*
X170010463Y-99013904D01*
X170131320Y-99037944D01*
X170085560Y-99268000D01*
X170085560Y-99868000D01*
X170134843Y-100115765D01*
X170187768Y-100194972D01*
X170098000Y-100411690D01*
X170098000Y-100552250D01*
X170256750Y-100711000D01*
X171356000Y-100711000D01*
X171356000Y-100691000D01*
X171610000Y-100691000D01*
X171610000Y-100711000D01*
X172709250Y-100711000D01*
X172868000Y-100552250D01*
X172868000Y-100411690D01*
X172833334Y-100328000D01*
X174677153Y-100328000D01*
X174752000Y-100342888D01*
X174826847Y-100328000D01*
X174826852Y-100328000D01*
X175048537Y-100283904D01*
X175299929Y-100115929D01*
X175342331Y-100052470D01*
X185991976Y-89402826D01*
X186311072Y-89535000D01*
X187068928Y-89535000D01*
X187769096Y-89244981D01*
X188304981Y-88709096D01*
X188595000Y-88008928D01*
X188595000Y-87251072D01*
X188304981Y-86550904D01*
X187769096Y-86015019D01*
X187068928Y-85725000D01*
X186311072Y-85725000D01*
X185610904Y-86015019D01*
X185075019Y-86550904D01*
X184785000Y-87251072D01*
X184785000Y-88008928D01*
X184917174Y-88328024D01*
X174437199Y-98808000D01*
X172838669Y-98808000D01*
X172880440Y-98598000D01*
X172880440Y-97998000D01*
X172831157Y-97750235D01*
X172778232Y-97671028D01*
X172868000Y-97454310D01*
X172868000Y-97313750D01*
X172709250Y-97155000D01*
X171610000Y-97155000D01*
X171610000Y-97175000D01*
X171356000Y-97175000D01*
X171356000Y-97155000D01*
X171336000Y-97155000D01*
X171336000Y-96901000D01*
X171356000Y-96901000D01*
X171356000Y-96251750D01*
X171610000Y-96251750D01*
X171610000Y-96901000D01*
X172709250Y-96901000D01*
X172868000Y-96742250D01*
X172868000Y-96601690D01*
X172771327Y-96368301D01*
X172592698Y-96189673D01*
X172359309Y-96093000D01*
X171768750Y-96093000D01*
X171610000Y-96251750D01*
X171356000Y-96251750D01*
X171312526Y-96208276D01*
X171716802Y-95804000D01*
X171762983Y-95804000D01*
X172106635Y-95661655D01*
X172369655Y-95398635D01*
X172512000Y-95054983D01*
X172512000Y-94683017D01*
X172369655Y-94339365D01*
X172106635Y-94076345D01*
X171762983Y-93934000D01*
X171391017Y-93934000D01*
X171047365Y-94076345D01*
X170784345Y-94339365D01*
X170642000Y-94683017D01*
X170642000Y-94729198D01*
X169441530Y-95929669D01*
X169378071Y-95972071D01*
X169210096Y-96223464D01*
X169166000Y-96445149D01*
X169166000Y-96445153D01*
X169151112Y-96520000D01*
X167439067Y-96520000D01*
X167431157Y-96480235D01*
X167290809Y-96270191D01*
X167080765Y-96129843D01*
X166833000Y-96080560D01*
X165333000Y-96080560D01*
X165085235Y-96129843D01*
X164878470Y-96268000D01*
X158189846Y-96268000D01*
X158114999Y-96253112D01*
X158040152Y-96268000D01*
X158040148Y-96268000D01*
X157818463Y-96312096D01*
X157818461Y-96312097D01*
X157818462Y-96312097D01*
X157630526Y-96437671D01*
X157630524Y-96437673D01*
X157567071Y-96480071D01*
X157524673Y-96543524D01*
X153611757Y-100456442D01*
X153543000Y-100442765D01*
X153431217Y-100465000D01*
X150912303Y-100465000D01*
X151049000Y-100134983D01*
X151049000Y-99763017D01*
X150906655Y-99419365D01*
X150874000Y-99386710D01*
X150874000Y-98993801D01*
X159665051Y-90202750D01*
X163784000Y-90202750D01*
X163784000Y-91043309D01*
X163880673Y-91276698D01*
X164059301Y-91455327D01*
X164292690Y-91552000D01*
X164433250Y-91552000D01*
X164592000Y-91393250D01*
X164592000Y-90044000D01*
X163942750Y-90044000D01*
X163784000Y-90202750D01*
X159665051Y-90202750D01*
X161077110Y-88790691D01*
X163784000Y-88790691D01*
X163784000Y-89631250D01*
X163942750Y-89790000D01*
X164592000Y-89790000D01*
X164592000Y-88440750D01*
X164846000Y-88440750D01*
X164846000Y-89790000D01*
X164866000Y-89790000D01*
X164866000Y-90044000D01*
X164846000Y-90044000D01*
X164846000Y-91393250D01*
X165004750Y-91552000D01*
X165145310Y-91552000D01*
X165362028Y-91462232D01*
X165441235Y-91515157D01*
X165689000Y-91564440D01*
X166289000Y-91564440D01*
X166536765Y-91515157D01*
X166624000Y-91456868D01*
X166711235Y-91515157D01*
X166959000Y-91564440D01*
X167559000Y-91564440D01*
X167806765Y-91515157D01*
X167894000Y-91456868D01*
X167981235Y-91515157D01*
X168229000Y-91564440D01*
X168829000Y-91564440D01*
X169076765Y-91515157D01*
X169164000Y-91456868D01*
X169251235Y-91515157D01*
X169499000Y-91564440D01*
X170099000Y-91564440D01*
X170346765Y-91515157D01*
X170434000Y-91456868D01*
X170521235Y-91515157D01*
X170769000Y-91564440D01*
X171369000Y-91564440D01*
X171616765Y-91515157D01*
X171704000Y-91456868D01*
X171791235Y-91515157D01*
X172039000Y-91564440D01*
X172639000Y-91564440D01*
X172849000Y-91522669D01*
X172849000Y-92000153D01*
X172834112Y-92075000D01*
X172849000Y-92149847D01*
X172849000Y-92149851D01*
X172893096Y-92371536D01*
X173061071Y-92622929D01*
X173124530Y-92665331D01*
X173436000Y-92976801D01*
X173436000Y-93022983D01*
X173578345Y-93366635D01*
X173841365Y-93629655D01*
X174185017Y-93772000D01*
X174556983Y-93772000D01*
X174900635Y-93629655D01*
X175163655Y-93366635D01*
X175306000Y-93022983D01*
X175306000Y-92651017D01*
X175163655Y-92307365D01*
X174900635Y-92044345D01*
X174556983Y-91902000D01*
X174510801Y-91902000D01*
X174369000Y-91760199D01*
X174369000Y-91522669D01*
X174579000Y-91564440D01*
X175179000Y-91564440D01*
X175426765Y-91515157D01*
X175636809Y-91374809D01*
X175777157Y-91164765D01*
X175826440Y-90917000D01*
X175826440Y-89027361D01*
X176161802Y-88692000D01*
X176207983Y-88692000D01*
X176551635Y-88549655D01*
X176814655Y-88286635D01*
X176957000Y-87942983D01*
X176957000Y-87571017D01*
X176814655Y-87227365D01*
X176551635Y-86964345D01*
X176207983Y-86822000D01*
X175836017Y-86822000D01*
X175492365Y-86964345D01*
X175229345Y-87227365D01*
X175087000Y-87571017D01*
X175087000Y-87617198D01*
X174398794Y-88305405D01*
X174331235Y-88318843D01*
X174244000Y-88377132D01*
X174156765Y-88318843D01*
X173909000Y-88269560D01*
X173309000Y-88269560D01*
X173061235Y-88318843D01*
X172974000Y-88377132D01*
X172886765Y-88318843D01*
X172639000Y-88269560D01*
X172039000Y-88269560D01*
X171791235Y-88318843D01*
X171704000Y-88377132D01*
X171616765Y-88318843D01*
X171369000Y-88269560D01*
X170769000Y-88269560D01*
X170521235Y-88318843D01*
X170434000Y-88377132D01*
X170346765Y-88318843D01*
X170099000Y-88269560D01*
X169499000Y-88269560D01*
X169251235Y-88318843D01*
X169164000Y-88377132D01*
X169076765Y-88318843D01*
X168829000Y-88269560D01*
X168229000Y-88269560D01*
X167981235Y-88318843D01*
X167894000Y-88377132D01*
X167806765Y-88318843D01*
X167559000Y-88269560D01*
X166959000Y-88269560D01*
X166711235Y-88318843D01*
X166624000Y-88377132D01*
X166536765Y-88318843D01*
X166289000Y-88269560D01*
X165689000Y-88269560D01*
X165441235Y-88318843D01*
X165362028Y-88371768D01*
X165145310Y-88282000D01*
X165004750Y-88282000D01*
X164846000Y-88440750D01*
X164592000Y-88440750D01*
X164433250Y-88282000D01*
X164292690Y-88282000D01*
X164059301Y-88378673D01*
X163880673Y-88557302D01*
X163784000Y-88790691D01*
X161077110Y-88790691D01*
X165668802Y-84199000D01*
X173407153Y-84199000D01*
X173482000Y-84213888D01*
X173556847Y-84199000D01*
X173556852Y-84199000D01*
X173778537Y-84154904D01*
X174029929Y-83986929D01*
X174072331Y-83923470D01*
X174098024Y-83897777D01*
X185521828Y-83897777D01*
X185653520Y-84192657D01*
X186361036Y-84464261D01*
X187118632Y-84444436D01*
X187726480Y-84192657D01*
X187858172Y-83897777D01*
X186690000Y-82729605D01*
X185521828Y-83897777D01*
X174098024Y-83897777D01*
X175363476Y-82632327D01*
X175426929Y-82589929D01*
X175469327Y-82526476D01*
X175469329Y-82526474D01*
X175594903Y-82338538D01*
X175594904Y-82338537D01*
X175618276Y-82221036D01*
X184775739Y-82221036D01*
X184795564Y-82978632D01*
X185047343Y-83586480D01*
X185342223Y-83718172D01*
X186510395Y-82550000D01*
X186869605Y-82550000D01*
X188037777Y-83718172D01*
X188332657Y-83586480D01*
X188604261Y-82878964D01*
X188584436Y-82121368D01*
X188332657Y-81513520D01*
X188037777Y-81381828D01*
X186869605Y-82550000D01*
X186510395Y-82550000D01*
X185342223Y-81381828D01*
X185047343Y-81513520D01*
X184775739Y-82221036D01*
X175618276Y-82221036D01*
X175639000Y-82116852D01*
X175639000Y-82116848D01*
X175653888Y-82042001D01*
X175639671Y-81970526D01*
X175777157Y-81764765D01*
X175826440Y-81517000D01*
X175826440Y-81202223D01*
X185521828Y-81202223D01*
X186690000Y-82370395D01*
X187858172Y-81202223D01*
X187726480Y-80907343D01*
X187018964Y-80635739D01*
X186261368Y-80655564D01*
X185653520Y-80907343D01*
X185521828Y-81202223D01*
X175826440Y-81202223D01*
X175826440Y-79517000D01*
X175777157Y-79269235D01*
X175636809Y-79059191D01*
X175426765Y-78918843D01*
X175179000Y-78869560D01*
X174579000Y-78869560D01*
X174343204Y-78916462D01*
X174324904Y-78824463D01*
X174156929Y-78573071D01*
X174093473Y-78530671D01*
X173310331Y-77747530D01*
X173267929Y-77684071D01*
X173016537Y-77516096D01*
X172794852Y-77472000D01*
X172794847Y-77472000D01*
X172720000Y-77457112D01*
X172645153Y-77472000D01*
X154125846Y-77472000D01*
X154050999Y-77457112D01*
X153976152Y-77472000D01*
X153976148Y-77472000D01*
X153754463Y-77516096D01*
X153754461Y-77516097D01*
X153754462Y-77516097D01*
X153566526Y-77641671D01*
X153566524Y-77641673D01*
X153503071Y-77684071D01*
X153460673Y-77747524D01*
X148148199Y-83060000D01*
X146527155Y-83060000D01*
X146394981Y-82740904D01*
X145859096Y-82205019D01*
X145158928Y-81915000D01*
X144401072Y-81915000D01*
X143700904Y-82205019D01*
X143165019Y-82740904D01*
X142875000Y-83441072D01*
X142875000Y-84198928D01*
X143165019Y-84899096D01*
X143700904Y-85434981D01*
X144401072Y-85725000D01*
X145158928Y-85725000D01*
X145859096Y-85434981D01*
X146394981Y-84899096D01*
X146527155Y-84580000D01*
X148388153Y-84580000D01*
X148463000Y-84594888D01*
X148537847Y-84580000D01*
X148537852Y-84580000D01*
X148759537Y-84535904D01*
X149010929Y-84367929D01*
X149053331Y-84304470D01*
X154365803Y-78992000D01*
X164061749Y-78992000D01*
X163961191Y-79059191D01*
X163820843Y-79269235D01*
X163771560Y-79517000D01*
X163771560Y-79757000D01*
X156390290Y-79757000D01*
X156358635Y-79725345D01*
X156014983Y-79583000D01*
X155643017Y-79583000D01*
X155299365Y-79725345D01*
X155036345Y-79988365D01*
X154894000Y-80332017D01*
X154894000Y-80703983D01*
X155036345Y-81047635D01*
X155299365Y-81310655D01*
X155643017Y-81453000D01*
X156014983Y-81453000D01*
X156358635Y-81310655D01*
X156392290Y-81277000D01*
X163771560Y-81277000D01*
X163771560Y-81517000D01*
X163820843Y-81764765D01*
X163961191Y-81974809D01*
X164171235Y-82115157D01*
X164419000Y-82164440D01*
X165019000Y-82164440D01*
X165266765Y-82115157D01*
X165354000Y-82056868D01*
X165441235Y-82115157D01*
X165689000Y-82164440D01*
X166289000Y-82164440D01*
X166536765Y-82115157D01*
X166624000Y-82056868D01*
X166711235Y-82115157D01*
X166959000Y-82164440D01*
X167559000Y-82164440D01*
X167806765Y-82115157D01*
X167894000Y-82056868D01*
X167981235Y-82115157D01*
X168229000Y-82164440D01*
X168829000Y-82164440D01*
X169076765Y-82115157D01*
X169164000Y-82056868D01*
X169251235Y-82115157D01*
X169499000Y-82164440D01*
X170099000Y-82164440D01*
X170346765Y-82115157D01*
X170434000Y-82056868D01*
X170521235Y-82115157D01*
X170769000Y-82164440D01*
X171369000Y-82164440D01*
X171616765Y-82115157D01*
X171704000Y-82056868D01*
X171791235Y-82115157D01*
X172039000Y-82164440D01*
X172639000Y-82164440D01*
X172886765Y-82115157D01*
X172974000Y-82056868D01*
X173061235Y-82115157D01*
X173309000Y-82164440D01*
X173681758Y-82164440D01*
X173167199Y-82679000D01*
X165428848Y-82679000D01*
X165354000Y-82664112D01*
X165279152Y-82679000D01*
X165279148Y-82679000D01*
X165105605Y-82713520D01*
X165057462Y-82723096D01*
X164917092Y-82816889D01*
X164806071Y-82891071D01*
X164763671Y-82954527D01*
X149629530Y-98088669D01*
X149566071Y-98131071D01*
X149398096Y-98382464D01*
X149354000Y-98604149D01*
X149354000Y-98604153D01*
X149339112Y-98679000D01*
X149354000Y-98753847D01*
X149354001Y-99386709D01*
X149321345Y-99419365D01*
X149179000Y-99763017D01*
X149179000Y-100134983D01*
X149315697Y-100465000D01*
X146697440Y-100465000D01*
X146697440Y-100330000D01*
X146648157Y-100082235D01*
X146507809Y-99872191D01*
X146297765Y-99731843D01*
X146050000Y-99682560D01*
X143510000Y-99682560D01*
X143262235Y-99731843D01*
X143052191Y-99872191D01*
X142911843Y-100082235D01*
X142862560Y-100330000D01*
X141710000Y-100330000D01*
X141710000Y-96597777D01*
X143611828Y-96597777D01*
X143743520Y-96892657D01*
X144451036Y-97164261D01*
X145208632Y-97144436D01*
X145816480Y-96892657D01*
X145948172Y-96597777D01*
X144780000Y-95429605D01*
X143611828Y-96597777D01*
X141710000Y-96597777D01*
X141710000Y-94921036D01*
X142865739Y-94921036D01*
X142885564Y-95678632D01*
X143137343Y-96286480D01*
X143432223Y-96418172D01*
X144600395Y-95250000D01*
X144959605Y-95250000D01*
X146127777Y-96418172D01*
X146422657Y-96286480D01*
X146694261Y-95578964D01*
X146674436Y-94821368D01*
X146422657Y-94213520D01*
X146127777Y-94081828D01*
X144959605Y-95250000D01*
X144600395Y-95250000D01*
X143432223Y-94081828D01*
X143137343Y-94213520D01*
X142865739Y-94921036D01*
X141710000Y-94921036D01*
X141710000Y-93902223D01*
X143611828Y-93902223D01*
X144780000Y-95070395D01*
X145948172Y-93902223D01*
X145816480Y-93607343D01*
X145108964Y-93335739D01*
X144351368Y-93355564D01*
X143743520Y-93607343D01*
X143611828Y-93902223D01*
X141710000Y-93902223D01*
X141710000Y-88900000D01*
X142862560Y-88900000D01*
X142862560Y-91440000D01*
X142911843Y-91687765D01*
X143052191Y-91897809D01*
X143262235Y-92038157D01*
X143510000Y-92087440D01*
X146050000Y-92087440D01*
X146297765Y-92038157D01*
X146507809Y-91897809D01*
X146648157Y-91687765D01*
X146697440Y-91440000D01*
X146697440Y-90930000D01*
X152853710Y-90930000D01*
X152886365Y-90962655D01*
X153230017Y-91105000D01*
X153601983Y-91105000D01*
X153945635Y-90962655D01*
X154208655Y-90699635D01*
X154351000Y-90355983D01*
X154351000Y-89984017D01*
X154208655Y-89640365D01*
X153945635Y-89377345D01*
X153601983Y-89235000D01*
X153230017Y-89235000D01*
X152886365Y-89377345D01*
X152853710Y-89410000D01*
X146697440Y-89410000D01*
X146697440Y-88900000D01*
X146648157Y-88652235D01*
X146507809Y-88442191D01*
X146297765Y-88301843D01*
X146050000Y-88252560D01*
X143510000Y-88252560D01*
X143262235Y-88301843D01*
X143052191Y-88442191D01*
X142911843Y-88652235D01*
X142862560Y-88900000D01*
X141710000Y-88900000D01*
X141710000Y-77470000D01*
X142862560Y-77470000D01*
X142862560Y-80010000D01*
X142911843Y-80257765D01*
X143052191Y-80467809D01*
X143262235Y-80608157D01*
X143510000Y-80657440D01*
X146050000Y-80657440D01*
X146297765Y-80608157D01*
X146507809Y-80467809D01*
X146648157Y-80257765D01*
X146697440Y-80010000D01*
X146697440Y-77470000D01*
X146648157Y-77222235D01*
X146507809Y-77012191D01*
X146297765Y-76871843D01*
X146050000Y-76822560D01*
X143510000Y-76822560D01*
X143262235Y-76871843D01*
X143052191Y-77012191D01*
X142911843Y-77222235D01*
X142862560Y-77470000D01*
X141710000Y-77470000D01*
X141710000Y-76710000D01*
X190290000Y-76710000D01*
X190290001Y-120290000D01*
X190290001Y-120290000D01*
G37*
X190290001Y-120290000D02*
X141710000Y-120290000D01*
X141710000Y-119457777D01*
X143611828Y-119457777D01*
X143743520Y-119752657D01*
X144451036Y-120024261D01*
X145208632Y-120004436D01*
X145816480Y-119752657D01*
X145948172Y-119457777D01*
X144780000Y-118289605D01*
X143611828Y-119457777D01*
X141710000Y-119457777D01*
X141710000Y-117781036D01*
X142865739Y-117781036D01*
X142885564Y-118538632D01*
X143137343Y-119146480D01*
X143432223Y-119278172D01*
X144600395Y-118110000D01*
X144959605Y-118110000D01*
X146127777Y-119278172D01*
X146422657Y-119146480D01*
X146694261Y-118438964D01*
X146674436Y-117681368D01*
X146422657Y-117073520D01*
X146127777Y-116941828D01*
X144959605Y-118110000D01*
X144600395Y-118110000D01*
X143432223Y-116941828D01*
X143137343Y-117073520D01*
X142865739Y-117781036D01*
X141710000Y-117781036D01*
X141710000Y-116762223D01*
X143611828Y-116762223D01*
X144780000Y-117930395D01*
X145948172Y-116762223D01*
X145816480Y-116467343D01*
X145108964Y-116195739D01*
X144351368Y-116215564D01*
X143743520Y-116467343D01*
X143611828Y-116762223D01*
X141710000Y-116762223D01*
X141710000Y-111760000D01*
X142862560Y-111760000D01*
X142862560Y-114300000D01*
X142911843Y-114547765D01*
X143052191Y-114757809D01*
X143262235Y-114898157D01*
X143510000Y-114947440D01*
X146050000Y-114947440D01*
X146297765Y-114898157D01*
X146507809Y-114757809D01*
X146648157Y-114547765D01*
X146697440Y-114300000D01*
X146697440Y-111760000D01*
X146648157Y-111512235D01*
X146507809Y-111302191D01*
X146297765Y-111161843D01*
X146050000Y-111112560D01*
X143510000Y-111112560D01*
X143262235Y-111161843D01*
X143052191Y-111302191D01*
X142911843Y-111512235D01*
X142862560Y-111760000D01*
X141710000Y-111760000D01*
X141710000Y-106301072D01*
X142875000Y-106301072D01*
X142875000Y-107058928D01*
X143165019Y-107759096D01*
X143700904Y-108294981D01*
X144401072Y-108585000D01*
X145158928Y-108585000D01*
X145859096Y-108294981D01*
X146394981Y-107759096D01*
X146685000Y-107058928D01*
X146685000Y-106301072D01*
X146394981Y-105600904D01*
X145859096Y-105065019D01*
X145158928Y-104775000D01*
X144401072Y-104775000D01*
X143700904Y-105065019D01*
X143165019Y-105600904D01*
X142875000Y-106301072D01*
X141710000Y-106301072D01*
X141710000Y-100330000D01*
X142862560Y-100330000D01*
X142862560Y-102870000D01*
X142911843Y-103117765D01*
X143052191Y-103327809D01*
X143262235Y-103468157D01*
X143510000Y-103517440D01*
X146050000Y-103517440D01*
X146297765Y-103468157D01*
X146507809Y-103327809D01*
X146648157Y-103117765D01*
X146697440Y-102870000D01*
X146697440Y-102735000D01*
X153072869Y-102735000D01*
X168061389Y-117723521D01*
X168124711Y-117818289D01*
X168359246Y-117975000D01*
X168500145Y-118069146D01*
X168943000Y-118157235D01*
X169054783Y-118135000D01*
X170178217Y-118135000D01*
X170290000Y-118157235D01*
X170401783Y-118135000D01*
X170732855Y-118069146D01*
X170802560Y-118022571D01*
X170802560Y-118110000D01*
X170851843Y-118357765D01*
X170992191Y-118567809D01*
X171202235Y-118708157D01*
X171450000Y-118757440D01*
X173990000Y-118757440D01*
X174237765Y-118708157D01*
X174447809Y-118567809D01*
X174588157Y-118357765D01*
X174621969Y-118187777D01*
X176631828Y-118187777D01*
X176763520Y-118482657D01*
X177471036Y-118754261D01*
X178228632Y-118734436D01*
X178836480Y-118482657D01*
X178968172Y-118187777D01*
X177800000Y-117019605D01*
X176631828Y-118187777D01*
X174621969Y-118187777D01*
X174637440Y-118110000D01*
X174637440Y-116511036D01*
X175885739Y-116511036D01*
X175905564Y-117268632D01*
X176157343Y-117876480D01*
X176452223Y-118008172D01*
X177620395Y-116840000D01*
X177979605Y-116840000D01*
X179147777Y-118008172D01*
X179442657Y-117876480D01*
X179714261Y-117168964D01*
X179694436Y-116411368D01*
X179442657Y-115803520D01*
X179147777Y-115671828D01*
X177979605Y-116840000D01*
X177620395Y-116840000D01*
X176452223Y-115671828D01*
X176157343Y-115803520D01*
X175885739Y-116511036D01*
X174637440Y-116511036D01*
X174637440Y-115570000D01*
X174621970Y-115492223D01*
X176631828Y-115492223D01*
X177800000Y-116660395D01*
X178968172Y-115492223D01*
X178836480Y-115197343D01*
X178128964Y-114925739D01*
X177371368Y-114945564D01*
X176763520Y-115197343D01*
X176631828Y-115492223D01*
X174621970Y-115492223D01*
X174588157Y-115322235D01*
X174447809Y-115112191D01*
X174237765Y-114971843D01*
X173990000Y-114922560D01*
X171450000Y-114922560D01*
X171202235Y-114971843D01*
X170992191Y-115112191D01*
X170851843Y-115322235D01*
X170802560Y-115570000D01*
X170802560Y-115705000D01*
X170561782Y-115705000D01*
X170449999Y-115682765D01*
X170189480Y-115734585D01*
X170007145Y-115770854D01*
X169866246Y-115865000D01*
X169413132Y-115865000D01*
X154882966Y-101334835D01*
X158429803Y-97788000D01*
X164727331Y-97788000D01*
X164685560Y-97998000D01*
X164685560Y-98598000D01*
X164734843Y-98845765D01*
X164793132Y-98933000D01*
X164734843Y-99020235D01*
X164685560Y-99268000D01*
X164685560Y-99868000D01*
X164734843Y-100115765D01*
X164793132Y-100203000D01*
X164734843Y-100290235D01*
X164685560Y-100538000D01*
X164685560Y-101138000D01*
X164734843Y-101385765D01*
X164793132Y-101473000D01*
X164734843Y-101560235D01*
X164685560Y-101808000D01*
X164685560Y-102408000D01*
X164734843Y-102655765D01*
X164793132Y-102743000D01*
X164734843Y-102830235D01*
X164685560Y-103078000D01*
X164685560Y-103678000D01*
X164734843Y-103925765D01*
X164793132Y-104013000D01*
X164734843Y-104100235D01*
X164685560Y-104348000D01*
X164685560Y-104948000D01*
X164734843Y-105195765D01*
X164875191Y-105405809D01*
X165085235Y-105546157D01*
X165333000Y-105595440D01*
X166833000Y-105595440D01*
X167080765Y-105546157D01*
X167290809Y-105405809D01*
X167431157Y-105195765D01*
X167480440Y-104948000D01*
X167480440Y-104933750D01*
X170098000Y-104933750D01*
X170098000Y-105074310D01*
X170194673Y-105307699D01*
X170373302Y-105486327D01*
X170606691Y-105583000D01*
X171197250Y-105583000D01*
X171356000Y-105424250D01*
X171356000Y-104775000D01*
X171610000Y-104775000D01*
X171610000Y-105424250D01*
X171768750Y-105583000D01*
X172359309Y-105583000D01*
X172592698Y-105486327D01*
X172771327Y-105307699D01*
X172868000Y-105074310D01*
X172868000Y-104933750D01*
X172709250Y-104775000D01*
X171610000Y-104775000D01*
X171356000Y-104775000D01*
X170256750Y-104775000D01*
X170098000Y-104933750D01*
X167480440Y-104933750D01*
X167480440Y-104348000D01*
X167431157Y-104100235D01*
X167372868Y-104013000D01*
X167431157Y-103925765D01*
X167480440Y-103678000D01*
X167480440Y-103078000D01*
X167431157Y-102830235D01*
X167372868Y-102743000D01*
X167431157Y-102655765D01*
X167480440Y-102408000D01*
X167480440Y-101808000D01*
X170085560Y-101808000D01*
X170085560Y-102408000D01*
X170134843Y-102655765D01*
X170193132Y-102743000D01*
X170134843Y-102830235D01*
X170085560Y-103078000D01*
X170085560Y-103678000D01*
X170134843Y-103925765D01*
X170187768Y-104004972D01*
X170098000Y-104221690D01*
X170098000Y-104362250D01*
X170256750Y-104521000D01*
X171356000Y-104521000D01*
X171356000Y-104501000D01*
X171610000Y-104501000D01*
X171610000Y-104521000D01*
X172709250Y-104521000D01*
X172868000Y-104362250D01*
X172868000Y-104221690D01*
X172833334Y-104138000D01*
X181803199Y-104138000D01*
X182289671Y-104624473D01*
X182332071Y-104687929D01*
X182395527Y-104730329D01*
X182583462Y-104855904D01*
X182631605Y-104865480D01*
X182805148Y-104900000D01*
X182805152Y-104900000D01*
X182880000Y-104914888D01*
X182954848Y-104900000D01*
X184942845Y-104900000D01*
X185075019Y-105219096D01*
X185610904Y-105754981D01*
X186311072Y-106045000D01*
X187068928Y-106045000D01*
X187769096Y-105754981D01*
X188304981Y-105219096D01*
X188470001Y-104820703D01*
X188470001Y-106365196D01*
X187532638Y-107302560D01*
X185420000Y-107302560D01*
X185172235Y-107351843D01*
X184962191Y-107492191D01*
X184821843Y-107702235D01*
X184772560Y-107950000D01*
X184772560Y-110490000D01*
X184821843Y-110737765D01*
X184962191Y-110947809D01*
X185172235Y-111088157D01*
X185420000Y-111137440D01*
X187960000Y-111137440D01*
X188207765Y-111088157D01*
X188417809Y-110947809D01*
X188558157Y-110737765D01*
X188607440Y-110490000D01*
X188607440Y-108377362D01*
X189714476Y-107270327D01*
X189777929Y-107227929D01*
X189820327Y-107164476D01*
X189820329Y-107164474D01*
X189945903Y-106976538D01*
X189945904Y-106976537D01*
X189990000Y-106754852D01*
X189990000Y-106754848D01*
X190004888Y-106680001D01*
X189990000Y-106605154D01*
X189990000Y-94943846D01*
X190004888Y-94868999D01*
X189990000Y-94794152D01*
X189990000Y-94794148D01*
X189945904Y-94572463D01*
X189777929Y-94321071D01*
X189714473Y-94278671D01*
X188607440Y-93171639D01*
X188607440Y-91440000D01*
X188558157Y-91192235D01*
X188417809Y-90982191D01*
X188207765Y-90841843D01*
X187960000Y-90792560D01*
X185420000Y-90792560D01*
X185172235Y-90841843D01*
X184962191Y-90982191D01*
X184821843Y-91192235D01*
X184772560Y-91440000D01*
X184772560Y-93980000D01*
X184821843Y-94227765D01*
X184962191Y-94437809D01*
X185172235Y-94578157D01*
X185420000Y-94627440D01*
X187913638Y-94627440D01*
X188470000Y-95183802D01*
X188470000Y-98355096D01*
X188332657Y-98023520D01*
X188037777Y-97891828D01*
X186869605Y-99060000D01*
X188037777Y-100228172D01*
X188332657Y-100096480D01*
X188470000Y-99738707D01*
X188470001Y-103459297D01*
X188304981Y-103060904D01*
X187769096Y-102525019D01*
X187068928Y-102235000D01*
X186311072Y-102235000D01*
X185610904Y-102525019D01*
X185075019Y-103060904D01*
X184942845Y-103380000D01*
X183194802Y-103380000D01*
X182708331Y-102893530D01*
X182665929Y-102830071D01*
X182414537Y-102662096D01*
X182192852Y-102618000D01*
X182192847Y-102618000D01*
X182118000Y-102603112D01*
X182043153Y-102618000D01*
X177611272Y-102618000D01*
X177628331Y-102592470D01*
X179813024Y-100407777D01*
X185521828Y-100407777D01*
X185653520Y-100702657D01*
X186361036Y-100974261D01*
X187118632Y-100954436D01*
X187726480Y-100702657D01*
X187858172Y-100407777D01*
X186690000Y-99239605D01*
X185521828Y-100407777D01*
X179813024Y-100407777D01*
X180987802Y-99233000D01*
X181033983Y-99233000D01*
X181377635Y-99090655D01*
X181640655Y-98827635D01*
X181680667Y-98731036D01*
X184775739Y-98731036D01*
X184795564Y-99488632D01*
X185047343Y-100096480D01*
X185342223Y-100228172D01*
X186510395Y-99060000D01*
X185342223Y-97891828D01*
X185047343Y-98023520D01*
X184775739Y-98731036D01*
X181680667Y-98731036D01*
X181783000Y-98483983D01*
X181783000Y-98112017D01*
X181640655Y-97768365D01*
X181584513Y-97712223D01*
X185521828Y-97712223D01*
X186690000Y-98880395D01*
X187858172Y-97712223D01*
X187726480Y-97417343D01*
X187018964Y-97145739D01*
X186261368Y-97165564D01*
X185653520Y-97417343D01*
X185521828Y-97712223D01*
X181584513Y-97712223D01*
X181377635Y-97505345D01*
X181033983Y-97363000D01*
X180662017Y-97363000D01*
X180318365Y-97505345D01*
X180055345Y-97768365D01*
X179913000Y-98112017D01*
X179913000Y-98158198D01*
X176723199Y-101348000D01*
X172833334Y-101348000D01*
X172868000Y-101264310D01*
X172868000Y-101123750D01*
X172709250Y-100965000D01*
X171610000Y-100965000D01*
X171610000Y-100985000D01*
X171356000Y-100985000D01*
X171356000Y-100965000D01*
X170256750Y-100965000D01*
X170098000Y-101123750D01*
X170098000Y-101264310D01*
X170187768Y-101481028D01*
X170134843Y-101560235D01*
X170085560Y-101808000D01*
X167480440Y-101808000D01*
X167431157Y-101560235D01*
X167372868Y-101473000D01*
X167431157Y-101385765D01*
X167480440Y-101138000D01*
X167480440Y-100538000D01*
X167431157Y-100290235D01*
X167372868Y-100203000D01*
X167431157Y-100115765D01*
X167480440Y-99868000D01*
X167480440Y-99268000D01*
X167431157Y-99020235D01*
X167372868Y-98933000D01*
X167431157Y-98845765D01*
X167480440Y-98598000D01*
X167480440Y-97998000D01*
X167431157Y-97750235D01*
X167372868Y-97663000D01*
X167431157Y-97575765D01*
X167480440Y-97328000D01*
X167480440Y-96728000D01*
X167439067Y-96520000D01*
X169151112Y-96520000D01*
X169166000Y-96594847D01*
X169166001Y-97842149D01*
X169151112Y-97917000D01*
X169210097Y-98213537D01*
X169322971Y-98382464D01*
X169378072Y-98464929D01*
X169441527Y-98507329D01*
X169716671Y-98782472D01*
X169759071Y-98845929D01*
X170010463Y-99013904D01*
X170131320Y-99037944D01*
X170085560Y-99268000D01*
X170085560Y-99868000D01*
X170134843Y-100115765D01*
X170187768Y-100194972D01*
X170098000Y-100411690D01*
X170098000Y-100552250D01*
X170256750Y-100711000D01*
X171356000Y-100711000D01*
X171356000Y-100691000D01*
X171610000Y-100691000D01*
X171610000Y-100711000D01*
X172709250Y-100711000D01*
X172868000Y-100552250D01*
X172868000Y-100411690D01*
X172833334Y-100328000D01*
X174677153Y-100328000D01*
X174752000Y-100342888D01*
X174826847Y-100328000D01*
X174826852Y-100328000D01*
X175048537Y-100283904D01*
X175299929Y-100115929D01*
X175342331Y-100052470D01*
X185991976Y-89402826D01*
X186311072Y-89535000D01*
X187068928Y-89535000D01*
X187769096Y-89244981D01*
X188304981Y-88709096D01*
X188595000Y-88008928D01*
X188595000Y-87251072D01*
X188304981Y-86550904D01*
X187769096Y-86015019D01*
X187068928Y-85725000D01*
X186311072Y-85725000D01*
X185610904Y-86015019D01*
X185075019Y-86550904D01*
X184785000Y-87251072D01*
X184785000Y-88008928D01*
X184917174Y-88328024D01*
X174437199Y-98808000D01*
X172838669Y-98808000D01*
X172880440Y-98598000D01*
X172880440Y-97998000D01*
X172831157Y-97750235D01*
X172778232Y-97671028D01*
X172868000Y-97454310D01*
X172868000Y-97313750D01*
X172709250Y-97155000D01*
X171610000Y-97155000D01*
X171610000Y-97175000D01*
X171356000Y-97175000D01*
X171356000Y-97155000D01*
X171336000Y-97155000D01*
X171336000Y-96901000D01*
X171356000Y-96901000D01*
X171356000Y-96251750D01*
X171610000Y-96251750D01*
X171610000Y-96901000D01*
X172709250Y-96901000D01*
X172868000Y-96742250D01*
X172868000Y-96601690D01*
X172771327Y-96368301D01*
X172592698Y-96189673D01*
X172359309Y-96093000D01*
X171768750Y-96093000D01*
X171610000Y-96251750D01*
X171356000Y-96251750D01*
X171312526Y-96208276D01*
X171716802Y-95804000D01*
X171762983Y-95804000D01*
X172106635Y-95661655D01*
X172369655Y-95398635D01*
X172512000Y-95054983D01*
X172512000Y-94683017D01*
X172369655Y-94339365D01*
X172106635Y-94076345D01*
X171762983Y-93934000D01*
X171391017Y-93934000D01*
X171047365Y-94076345D01*
X170784345Y-94339365D01*
X170642000Y-94683017D01*
X170642000Y-94729198D01*
X169441530Y-95929669D01*
X169378071Y-95972071D01*
X169210096Y-96223464D01*
X169166000Y-96445149D01*
X169166000Y-96445153D01*
X169151112Y-96520000D01*
X167439067Y-96520000D01*
X167431157Y-96480235D01*
X167290809Y-96270191D01*
X167080765Y-96129843D01*
X166833000Y-96080560D01*
X165333000Y-96080560D01*
X165085235Y-96129843D01*
X164878470Y-96268000D01*
X158189846Y-96268000D01*
X158114999Y-96253112D01*
X158040152Y-96268000D01*
X158040148Y-96268000D01*
X157818463Y-96312096D01*
X157818461Y-96312097D01*
X157818462Y-96312097D01*
X157630526Y-96437671D01*
X157630524Y-96437673D01*
X157567071Y-96480071D01*
X157524673Y-96543524D01*
X153611757Y-100456442D01*
X153543000Y-100442765D01*
X153431217Y-100465000D01*
X150912303Y-100465000D01*
X151049000Y-100134983D01*
X151049000Y-99763017D01*
X150906655Y-99419365D01*
X150874000Y-99386710D01*
X150874000Y-98993801D01*
X159665051Y-90202750D01*
X163784000Y-90202750D01*
X163784000Y-91043309D01*
X163880673Y-91276698D01*
X164059301Y-91455327D01*
X164292690Y-91552000D01*
X164433250Y-91552000D01*
X164592000Y-91393250D01*
X164592000Y-90044000D01*
X163942750Y-90044000D01*
X163784000Y-90202750D01*
X159665051Y-90202750D01*
X161077110Y-88790691D01*
X163784000Y-88790691D01*
X163784000Y-89631250D01*
X163942750Y-89790000D01*
X164592000Y-89790000D01*
X164592000Y-88440750D01*
X164846000Y-88440750D01*
X164846000Y-89790000D01*
X164866000Y-89790000D01*
X164866000Y-90044000D01*
X164846000Y-90044000D01*
X164846000Y-91393250D01*
X165004750Y-91552000D01*
X165145310Y-91552000D01*
X165362028Y-91462232D01*
X165441235Y-91515157D01*
X165689000Y-91564440D01*
X166289000Y-91564440D01*
X166536765Y-91515157D01*
X166624000Y-91456868D01*
X166711235Y-91515157D01*
X166959000Y-91564440D01*
X167559000Y-91564440D01*
X167806765Y-91515157D01*
X167894000Y-91456868D01*
X167981235Y-91515157D01*
X168229000Y-91564440D01*
X168829000Y-91564440D01*
X169076765Y-91515157D01*
X169164000Y-91456868D01*
X169251235Y-91515157D01*
X169499000Y-91564440D01*
X170099000Y-91564440D01*
X170346765Y-91515157D01*
X170434000Y-91456868D01*
X170521235Y-91515157D01*
X170769000Y-91564440D01*
X171369000Y-91564440D01*
X171616765Y-91515157D01*
X171704000Y-91456868D01*
X171791235Y-91515157D01*
X172039000Y-91564440D01*
X172639000Y-91564440D01*
X172849000Y-91522669D01*
X172849000Y-92000153D01*
X172834112Y-92075000D01*
X172849000Y-92149847D01*
X172849000Y-92149851D01*
X172893096Y-92371536D01*
X173061071Y-92622929D01*
X173124530Y-92665331D01*
X173436000Y-92976801D01*
X173436000Y-93022983D01*
X173578345Y-93366635D01*
X173841365Y-93629655D01*
X174185017Y-93772000D01*
X174556983Y-93772000D01*
X174900635Y-93629655D01*
X175163655Y-93366635D01*
X175306000Y-93022983D01*
X175306000Y-92651017D01*
X175163655Y-92307365D01*
X174900635Y-92044345D01*
X174556983Y-91902000D01*
X174510801Y-91902000D01*
X174369000Y-91760199D01*
X174369000Y-91522669D01*
X174579000Y-91564440D01*
X175179000Y-91564440D01*
X175426765Y-91515157D01*
X175636809Y-91374809D01*
X175777157Y-91164765D01*
X175826440Y-90917000D01*
X175826440Y-89027361D01*
X176161802Y-88692000D01*
X176207983Y-88692000D01*
X176551635Y-88549655D01*
X176814655Y-88286635D01*
X176957000Y-87942983D01*
X176957000Y-87571017D01*
X176814655Y-87227365D01*
X176551635Y-86964345D01*
X176207983Y-86822000D01*
X175836017Y-86822000D01*
X175492365Y-86964345D01*
X175229345Y-87227365D01*
X175087000Y-87571017D01*
X175087000Y-87617198D01*
X174398794Y-88305405D01*
X174331235Y-88318843D01*
X174244000Y-88377132D01*
X174156765Y-88318843D01*
X173909000Y-88269560D01*
X173309000Y-88269560D01*
X173061235Y-88318843D01*
X172974000Y-88377132D01*
X172886765Y-88318843D01*
X172639000Y-88269560D01*
X172039000Y-88269560D01*
X171791235Y-88318843D01*
X171704000Y-88377132D01*
X171616765Y-88318843D01*
X171369000Y-88269560D01*
X170769000Y-88269560D01*
X170521235Y-88318843D01*
X170434000Y-88377132D01*
X170346765Y-88318843D01*
X170099000Y-88269560D01*
X169499000Y-88269560D01*
X169251235Y-88318843D01*
X169164000Y-88377132D01*
X169076765Y-88318843D01*
X168829000Y-88269560D01*
X168229000Y-88269560D01*
X167981235Y-88318843D01*
X167894000Y-88377132D01*
X167806765Y-88318843D01*
X167559000Y-88269560D01*
X166959000Y-88269560D01*
X166711235Y-88318843D01*
X166624000Y-88377132D01*
X166536765Y-88318843D01*
X166289000Y-88269560D01*
X165689000Y-88269560D01*
X165441235Y-88318843D01*
X165362028Y-88371768D01*
X165145310Y-88282000D01*
X165004750Y-88282000D01*
X164846000Y-88440750D01*
X164592000Y-88440750D01*
X164433250Y-88282000D01*
X164292690Y-88282000D01*
X164059301Y-88378673D01*
X163880673Y-88557302D01*
X163784000Y-88790691D01*
X161077110Y-88790691D01*
X165668802Y-84199000D01*
X173407153Y-84199000D01*
X173482000Y-84213888D01*
X173556847Y-84199000D01*
X173556852Y-84199000D01*
X173778537Y-84154904D01*
X174029929Y-83986929D01*
X174072331Y-83923470D01*
X174098024Y-83897777D01*
X185521828Y-83897777D01*
X185653520Y-84192657D01*
X186361036Y-84464261D01*
X187118632Y-84444436D01*
X187726480Y-84192657D01*
X187858172Y-83897777D01*
X186690000Y-82729605D01*
X185521828Y-83897777D01*
X174098024Y-83897777D01*
X175363476Y-82632327D01*
X175426929Y-82589929D01*
X175469327Y-82526476D01*
X175469329Y-82526474D01*
X175594903Y-82338538D01*
X175594904Y-82338537D01*
X175618276Y-82221036D01*
X184775739Y-82221036D01*
X184795564Y-82978632D01*
X185047343Y-83586480D01*
X185342223Y-83718172D01*
X186510395Y-82550000D01*
X186869605Y-82550000D01*
X188037777Y-83718172D01*
X188332657Y-83586480D01*
X188604261Y-82878964D01*
X188584436Y-82121368D01*
X188332657Y-81513520D01*
X188037777Y-81381828D01*
X186869605Y-82550000D01*
X186510395Y-82550000D01*
X185342223Y-81381828D01*
X185047343Y-81513520D01*
X184775739Y-82221036D01*
X175618276Y-82221036D01*
X175639000Y-82116852D01*
X175639000Y-82116848D01*
X175653888Y-82042001D01*
X175639671Y-81970526D01*
X175777157Y-81764765D01*
X175826440Y-81517000D01*
X175826440Y-81202223D01*
X185521828Y-81202223D01*
X186690000Y-82370395D01*
X187858172Y-81202223D01*
X187726480Y-80907343D01*
X187018964Y-80635739D01*
X186261368Y-80655564D01*
X185653520Y-80907343D01*
X185521828Y-81202223D01*
X175826440Y-81202223D01*
X175826440Y-79517000D01*
X175777157Y-79269235D01*
X175636809Y-79059191D01*
X175426765Y-78918843D01*
X175179000Y-78869560D01*
X174579000Y-78869560D01*
X174343204Y-78916462D01*
X174324904Y-78824463D01*
X174156929Y-78573071D01*
X174093473Y-78530671D01*
X173310331Y-77747530D01*
X173267929Y-77684071D01*
X173016537Y-77516096D01*
X172794852Y-77472000D01*
X172794847Y-77472000D01*
X172720000Y-77457112D01*
X172645153Y-77472000D01*
X154125846Y-77472000D01*
X154050999Y-77457112D01*
X153976152Y-77472000D01*
X153976148Y-77472000D01*
X153754463Y-77516096D01*
X153754461Y-77516097D01*
X153754462Y-77516097D01*
X153566526Y-77641671D01*
X153566524Y-77641673D01*
X153503071Y-77684071D01*
X153460673Y-77747524D01*
X148148199Y-83060000D01*
X146527155Y-83060000D01*
X146394981Y-82740904D01*
X145859096Y-82205019D01*
X145158928Y-81915000D01*
X144401072Y-81915000D01*
X143700904Y-82205019D01*
X143165019Y-82740904D01*
X142875000Y-83441072D01*
X142875000Y-84198928D01*
X143165019Y-84899096D01*
X143700904Y-85434981D01*
X144401072Y-85725000D01*
X145158928Y-85725000D01*
X145859096Y-85434981D01*
X146394981Y-84899096D01*
X146527155Y-84580000D01*
X148388153Y-84580000D01*
X148463000Y-84594888D01*
X148537847Y-84580000D01*
X148537852Y-84580000D01*
X148759537Y-84535904D01*
X149010929Y-84367929D01*
X149053331Y-84304470D01*
X154365803Y-78992000D01*
X164061749Y-78992000D01*
X163961191Y-79059191D01*
X163820843Y-79269235D01*
X163771560Y-79517000D01*
X163771560Y-79757000D01*
X156390290Y-79757000D01*
X156358635Y-79725345D01*
X156014983Y-79583000D01*
X155643017Y-79583000D01*
X155299365Y-79725345D01*
X155036345Y-79988365D01*
X154894000Y-80332017D01*
X154894000Y-80703983D01*
X155036345Y-81047635D01*
X155299365Y-81310655D01*
X155643017Y-81453000D01*
X156014983Y-81453000D01*
X156358635Y-81310655D01*
X156392290Y-81277000D01*
X163771560Y-81277000D01*
X163771560Y-81517000D01*
X163820843Y-81764765D01*
X163961191Y-81974809D01*
X164171235Y-82115157D01*
X164419000Y-82164440D01*
X165019000Y-82164440D01*
X165266765Y-82115157D01*
X165354000Y-82056868D01*
X165441235Y-82115157D01*
X165689000Y-82164440D01*
X166289000Y-82164440D01*
X166536765Y-82115157D01*
X166624000Y-82056868D01*
X166711235Y-82115157D01*
X166959000Y-82164440D01*
X167559000Y-82164440D01*
X167806765Y-82115157D01*
X167894000Y-82056868D01*
X167981235Y-82115157D01*
X168229000Y-82164440D01*
X168829000Y-82164440D01*
X169076765Y-82115157D01*
X169164000Y-82056868D01*
X169251235Y-82115157D01*
X169499000Y-82164440D01*
X170099000Y-82164440D01*
X170346765Y-82115157D01*
X170434000Y-82056868D01*
X170521235Y-82115157D01*
X170769000Y-82164440D01*
X171369000Y-82164440D01*
X171616765Y-82115157D01*
X171704000Y-82056868D01*
X171791235Y-82115157D01*
X172039000Y-82164440D01*
X172639000Y-82164440D01*
X172886765Y-82115157D01*
X172974000Y-82056868D01*
X173061235Y-82115157D01*
X173309000Y-82164440D01*
X173681758Y-82164440D01*
X173167199Y-82679000D01*
X165428848Y-82679000D01*
X165354000Y-82664112D01*
X165279152Y-82679000D01*
X165279148Y-82679000D01*
X165105605Y-82713520D01*
X165057462Y-82723096D01*
X164917092Y-82816889D01*
X164806071Y-82891071D01*
X164763671Y-82954527D01*
X149629530Y-98088669D01*
X149566071Y-98131071D01*
X149398096Y-98382464D01*
X149354000Y-98604149D01*
X149354000Y-98604153D01*
X149339112Y-98679000D01*
X149354000Y-98753847D01*
X149354001Y-99386709D01*
X149321345Y-99419365D01*
X149179000Y-99763017D01*
X149179000Y-100134983D01*
X149315697Y-100465000D01*
X146697440Y-100465000D01*
X146697440Y-100330000D01*
X146648157Y-100082235D01*
X146507809Y-99872191D01*
X146297765Y-99731843D01*
X146050000Y-99682560D01*
X143510000Y-99682560D01*
X143262235Y-99731843D01*
X143052191Y-99872191D01*
X142911843Y-100082235D01*
X142862560Y-100330000D01*
X141710000Y-100330000D01*
X141710000Y-96597777D01*
X143611828Y-96597777D01*
X143743520Y-96892657D01*
X144451036Y-97164261D01*
X145208632Y-97144436D01*
X145816480Y-96892657D01*
X145948172Y-96597777D01*
X144780000Y-95429605D01*
X143611828Y-96597777D01*
X141710000Y-96597777D01*
X141710000Y-94921036D01*
X142865739Y-94921036D01*
X142885564Y-95678632D01*
X143137343Y-96286480D01*
X143432223Y-96418172D01*
X144600395Y-95250000D01*
X144959605Y-95250000D01*
X146127777Y-96418172D01*
X146422657Y-96286480D01*
X146694261Y-95578964D01*
X146674436Y-94821368D01*
X146422657Y-94213520D01*
X146127777Y-94081828D01*
X144959605Y-95250000D01*
X144600395Y-95250000D01*
X143432223Y-94081828D01*
X143137343Y-94213520D01*
X142865739Y-94921036D01*
X141710000Y-94921036D01*
X141710000Y-93902223D01*
X143611828Y-93902223D01*
X144780000Y-95070395D01*
X145948172Y-93902223D01*
X145816480Y-93607343D01*
X145108964Y-93335739D01*
X144351368Y-93355564D01*
X143743520Y-93607343D01*
X143611828Y-93902223D01*
X141710000Y-93902223D01*
X141710000Y-88900000D01*
X142862560Y-88900000D01*
X142862560Y-91440000D01*
X142911843Y-91687765D01*
X143052191Y-91897809D01*
X143262235Y-92038157D01*
X143510000Y-92087440D01*
X146050000Y-92087440D01*
X146297765Y-92038157D01*
X146507809Y-91897809D01*
X146648157Y-91687765D01*
X146697440Y-91440000D01*
X146697440Y-90930000D01*
X152853710Y-90930000D01*
X152886365Y-90962655D01*
X153230017Y-91105000D01*
X153601983Y-91105000D01*
X153945635Y-90962655D01*
X154208655Y-90699635D01*
X154351000Y-90355983D01*
X154351000Y-89984017D01*
X154208655Y-89640365D01*
X153945635Y-89377345D01*
X153601983Y-89235000D01*
X153230017Y-89235000D01*
X152886365Y-89377345D01*
X152853710Y-89410000D01*
X146697440Y-89410000D01*
X146697440Y-88900000D01*
X146648157Y-88652235D01*
X146507809Y-88442191D01*
X146297765Y-88301843D01*
X146050000Y-88252560D01*
X143510000Y-88252560D01*
X143262235Y-88301843D01*
X143052191Y-88442191D01*
X142911843Y-88652235D01*
X142862560Y-88900000D01*
X141710000Y-88900000D01*
X141710000Y-77470000D01*
X142862560Y-77470000D01*
X142862560Y-80010000D01*
X142911843Y-80257765D01*
X143052191Y-80467809D01*
X143262235Y-80608157D01*
X143510000Y-80657440D01*
X146050000Y-80657440D01*
X146297765Y-80608157D01*
X146507809Y-80467809D01*
X146648157Y-80257765D01*
X146697440Y-80010000D01*
X146697440Y-77470000D01*
X146648157Y-77222235D01*
X146507809Y-77012191D01*
X146297765Y-76871843D01*
X146050000Y-76822560D01*
X143510000Y-76822560D01*
X143262235Y-76871843D01*
X143052191Y-77012191D01*
X142911843Y-77222235D01*
X142862560Y-77470000D01*
X141710000Y-77470000D01*
X141710000Y-76710000D01*
X190290000Y-76710000D01*
X190290001Y-120290000D01*
G04 #@! TD*
M02*
