G04 #@! TF.GenerationSoftware,KiCad,Pcbnew,5.0.1-33cea8e~68~ubuntu18.04.1*
G04 #@! TF.CreationDate,2018-11-29T08:56:37+01:00*
G04 #@! TF.ProjectId,8RelaisReed,3852656C616973526565642E6B696361,rev?*
G04 #@! TF.SameCoordinates,Original*
G04 #@! TF.FileFunction,Copper,L1,Top,Signal*
G04 #@! TF.FilePolarity,Positive*
%FSLAX46Y46*%
G04 Gerber Fmt 4.6, Leading zero omitted, Abs format (unit mm)*
G04 Created by KiCad (PCBNEW 5.0.1-33cea8e~68~ubuntu18.04.1) date jeu. 29 nov. 2018 08:56:37 CET*
%MOMM*%
%LPD*%
G01*
G04 APERTURE LIST*
G04 #@! TA.AperFunction,ComponentPad*
%ADD10R,2.540000X2.540000*%
G04 #@! TD*
G04 #@! TA.AperFunction,ComponentPad*
%ADD11C,2.540000*%
G04 #@! TD*
G04 #@! TA.AperFunction,ComponentPad*
%ADD12C,1.524000*%
G04 #@! TD*
G04 #@! TA.AperFunction,SMDPad,CuDef*
%ADD13R,2.000000X3.800000*%
G04 #@! TD*
G04 #@! TA.AperFunction,SMDPad,CuDef*
%ADD14R,2.000000X1.500000*%
G04 #@! TD*
G04 #@! TA.AperFunction,Conductor*
%ADD15C,0.100000*%
G04 #@! TD*
G04 #@! TA.AperFunction,SMDPad,CuDef*
%ADD16C,1.150000*%
G04 #@! TD*
G04 #@! TA.AperFunction,SMDPad,CuDef*
%ADD17R,1.000000X2.750000*%
G04 #@! TD*
G04 #@! TA.AperFunction,SMDPad,CuDef*
%ADD18R,1.000000X2.500000*%
G04 #@! TD*
G04 #@! TA.AperFunction,SMDPad,CuDef*
%ADD19R,1.800000X1.000000*%
G04 #@! TD*
G04 #@! TA.AperFunction,SMDPad,CuDef*
%ADD20R,0.600000X2.000000*%
G04 #@! TD*
G04 #@! TA.AperFunction,SMDPad,CuDef*
%ADD21R,0.600000X1.500000*%
G04 #@! TD*
G04 #@! TA.AperFunction,ComponentPad*
%ADD22R,1.700000X1.700000*%
G04 #@! TD*
G04 #@! TA.AperFunction,ComponentPad*
%ADD23O,1.700000X1.700000*%
G04 #@! TD*
G04 #@! TA.AperFunction,SMDPad,CuDef*
%ADD24R,2.750000X1.000000*%
G04 #@! TD*
G04 #@! TA.AperFunction,ViaPad*
%ADD25C,0.600000*%
G04 #@! TD*
G04 #@! TA.AperFunction,Conductor*
%ADD26C,0.250000*%
G04 #@! TD*
G04 APERTURE END LIST*
D10*
G04 #@! TO.P,P1,1*
G04 #@! TO.N,/GND*
X143510000Y-111760000D03*
D11*
G04 #@! TO.P,P1,2*
G04 #@! TO.N,/5V*
X143510000Y-116840000D03*
G04 #@! TD*
D10*
G04 #@! TO.P,P4,1*
G04 #@! TO.N,Net-(P4-Pad1)*
X146050000Y-69850000D03*
D11*
G04 #@! TO.P,P4,2*
G04 #@! TO.N,Net-(P4-Pad2)*
X140970000Y-69850000D03*
G04 #@! TD*
D10*
G04 #@! TO.P,P5,1*
G04 #@! TO.N,Net-(P5-Pad1)*
X156210000Y-69850000D03*
D11*
G04 #@! TO.P,P5,2*
G04 #@! TO.N,Net-(P5-Pad2)*
X151130000Y-69850000D03*
G04 #@! TD*
D10*
G04 #@! TO.P,P6,1*
G04 #@! TO.N,Net-(P6-Pad1)*
X166370000Y-69850000D03*
D11*
G04 #@! TO.P,P6,2*
G04 #@! TO.N,Net-(P6-Pad2)*
X161290000Y-69850000D03*
G04 #@! TD*
D10*
G04 #@! TO.P,P7,1*
G04 #@! TO.N,Net-(P7-Pad1)*
X176530000Y-69850000D03*
D11*
G04 #@! TO.P,P7,2*
G04 #@! TO.N,Net-(P7-Pad2)*
X171450000Y-69850000D03*
G04 #@! TD*
D10*
G04 #@! TO.P,P8,1*
G04 #@! TO.N,Net-(P8-Pad1)*
X186690000Y-69850000D03*
D11*
G04 #@! TO.P,P8,2*
G04 #@! TO.N,Net-(P8-Pad2)*
X181610000Y-69850000D03*
G04 #@! TD*
D10*
G04 #@! TO.P,P9,1*
G04 #@! TO.N,Net-(P9-Pad1)*
X196850000Y-69850000D03*
D11*
G04 #@! TO.P,P9,2*
G04 #@! TO.N,Net-(P9-Pad2)*
X191770000Y-69850000D03*
G04 #@! TD*
D10*
G04 #@! TO.P,P10,1*
G04 #@! TO.N,Net-(P10-Pad1)*
X207010000Y-69850000D03*
D11*
G04 #@! TO.P,P10,2*
G04 #@! TO.N,Net-(P10-Pad2)*
X201930000Y-69850000D03*
G04 #@! TD*
D10*
G04 #@! TO.P,P11,1*
G04 #@! TO.N,Net-(P11-Pad1)*
X217170000Y-69850000D03*
D11*
G04 #@! TO.P,P11,2*
G04 #@! TO.N,Net-(P11-Pad2)*
X212090000Y-69850000D03*
G04 #@! TD*
D12*
G04 #@! TO.P,R1,1*
G04 #@! TO.N,/S0*
X142240000Y-92710000D03*
G04 #@! TO.P,R1,2*
G04 #@! TO.N,Net-(P4-Pad1)*
X142240000Y-87630000D03*
G04 #@! TO.P,R1,3*
G04 #@! TO.N,Net-(P4-Pad2)*
X142240000Y-82550000D03*
G04 #@! TO.P,R1,4*
G04 #@! TO.N,/5V*
X142240000Y-77470000D03*
G04 #@! TD*
G04 #@! TO.P,R2,1*
G04 #@! TO.N,/S1*
X152400000Y-92710000D03*
G04 #@! TO.P,R2,2*
G04 #@! TO.N,Net-(P5-Pad1)*
X152400000Y-87630000D03*
G04 #@! TO.P,R2,3*
G04 #@! TO.N,Net-(P5-Pad2)*
X152400000Y-82550000D03*
G04 #@! TO.P,R2,4*
G04 #@! TO.N,/5V*
X152400000Y-77470000D03*
G04 #@! TD*
G04 #@! TO.P,R3,1*
G04 #@! TO.N,/S2*
X162560000Y-92710000D03*
G04 #@! TO.P,R3,2*
G04 #@! TO.N,Net-(P6-Pad1)*
X162560000Y-87630000D03*
G04 #@! TO.P,R3,3*
G04 #@! TO.N,Net-(P6-Pad2)*
X162560000Y-82550000D03*
G04 #@! TO.P,R3,4*
G04 #@! TO.N,/5V*
X162560000Y-77470000D03*
G04 #@! TD*
G04 #@! TO.P,R4,1*
G04 #@! TO.N,/S3*
X172720000Y-92710000D03*
G04 #@! TO.P,R4,2*
G04 #@! TO.N,Net-(P7-Pad1)*
X172720000Y-87630000D03*
G04 #@! TO.P,R4,3*
G04 #@! TO.N,Net-(P7-Pad2)*
X172720000Y-82550000D03*
G04 #@! TO.P,R4,4*
G04 #@! TO.N,/5V*
X172720000Y-77470000D03*
G04 #@! TD*
G04 #@! TO.P,R5,1*
G04 #@! TO.N,/S4*
X182880000Y-92710000D03*
G04 #@! TO.P,R5,2*
G04 #@! TO.N,Net-(P8-Pad1)*
X182880000Y-87630000D03*
G04 #@! TO.P,R5,3*
G04 #@! TO.N,Net-(P8-Pad2)*
X182880000Y-82550000D03*
G04 #@! TO.P,R5,4*
G04 #@! TO.N,/5V*
X182880000Y-77470000D03*
G04 #@! TD*
G04 #@! TO.P,R6,1*
G04 #@! TO.N,/S5*
X193040000Y-92710000D03*
G04 #@! TO.P,R6,2*
G04 #@! TO.N,Net-(P9-Pad1)*
X193040000Y-87630000D03*
G04 #@! TO.P,R6,3*
G04 #@! TO.N,Net-(P9-Pad2)*
X193040000Y-82550000D03*
G04 #@! TO.P,R6,4*
G04 #@! TO.N,/5V*
X193040000Y-77470000D03*
G04 #@! TD*
G04 #@! TO.P,R7,1*
G04 #@! TO.N,/S6*
X203200000Y-92710000D03*
G04 #@! TO.P,R7,2*
G04 #@! TO.N,Net-(P10-Pad1)*
X203200000Y-87630000D03*
G04 #@! TO.P,R7,3*
G04 #@! TO.N,Net-(P10-Pad2)*
X203200000Y-82550000D03*
G04 #@! TO.P,R7,4*
G04 #@! TO.N,/5V*
X203200000Y-77470000D03*
G04 #@! TD*
G04 #@! TO.P,R8,1*
G04 #@! TO.N,/S7*
X213360000Y-92710000D03*
G04 #@! TO.P,R8,2*
G04 #@! TO.N,Net-(P11-Pad1)*
X213360000Y-87630000D03*
G04 #@! TO.P,R8,3*
G04 #@! TO.N,Net-(P11-Pad2)*
X213360000Y-82550000D03*
G04 #@! TO.P,R8,4*
G04 #@! TO.N,/5V*
X213360000Y-77470000D03*
G04 #@! TD*
D13*
G04 #@! TO.P,U1,4*
G04 #@! TO.N,N/C*
X158090000Y-114300000D03*
D14*
G04 #@! TO.P,U1,2*
G04 #@! TO.N,/3V3*
X151790000Y-114300000D03*
G04 #@! TO.P,U1,3*
G04 #@! TO.N,/5V*
X151790000Y-116600000D03*
G04 #@! TO.P,U1,1*
G04 #@! TO.N,/GND*
X151790000Y-112000000D03*
G04 #@! TD*
D15*
G04 #@! TO.N,/5V*
G04 #@! TO.C,C1*
G36*
X151987505Y-119316204D02*
X152011773Y-119319804D01*
X152035572Y-119325765D01*
X152058671Y-119334030D01*
X152080850Y-119344520D01*
X152101893Y-119357132D01*
X152121599Y-119371747D01*
X152139777Y-119388223D01*
X152156253Y-119406401D01*
X152170868Y-119426107D01*
X152183480Y-119447150D01*
X152193970Y-119469329D01*
X152202235Y-119492428D01*
X152208196Y-119516227D01*
X152211796Y-119540495D01*
X152213000Y-119564999D01*
X152213000Y-120465001D01*
X152211796Y-120489505D01*
X152208196Y-120513773D01*
X152202235Y-120537572D01*
X152193970Y-120560671D01*
X152183480Y-120582850D01*
X152170868Y-120603893D01*
X152156253Y-120623599D01*
X152139777Y-120641777D01*
X152121599Y-120658253D01*
X152101893Y-120672868D01*
X152080850Y-120685480D01*
X152058671Y-120695970D01*
X152035572Y-120704235D01*
X152011773Y-120710196D01*
X151987505Y-120713796D01*
X151963001Y-120715000D01*
X151312999Y-120715000D01*
X151288495Y-120713796D01*
X151264227Y-120710196D01*
X151240428Y-120704235D01*
X151217329Y-120695970D01*
X151195150Y-120685480D01*
X151174107Y-120672868D01*
X151154401Y-120658253D01*
X151136223Y-120641777D01*
X151119747Y-120623599D01*
X151105132Y-120603893D01*
X151092520Y-120582850D01*
X151082030Y-120560671D01*
X151073765Y-120537572D01*
X151067804Y-120513773D01*
X151064204Y-120489505D01*
X151063000Y-120465001D01*
X151063000Y-119564999D01*
X151064204Y-119540495D01*
X151067804Y-119516227D01*
X151073765Y-119492428D01*
X151082030Y-119469329D01*
X151092520Y-119447150D01*
X151105132Y-119426107D01*
X151119747Y-119406401D01*
X151136223Y-119388223D01*
X151154401Y-119371747D01*
X151174107Y-119357132D01*
X151195150Y-119344520D01*
X151217329Y-119334030D01*
X151240428Y-119325765D01*
X151264227Y-119319804D01*
X151288495Y-119316204D01*
X151312999Y-119315000D01*
X151963001Y-119315000D01*
X151987505Y-119316204D01*
X151987505Y-119316204D01*
G37*
D16*
G04 #@! TD*
G04 #@! TO.P,C1,1*
G04 #@! TO.N,/5V*
X151638000Y-120015000D03*
D15*
G04 #@! TO.N,/GND*
G04 #@! TO.C,C1*
G36*
X149937505Y-119316204D02*
X149961773Y-119319804D01*
X149985572Y-119325765D01*
X150008671Y-119334030D01*
X150030850Y-119344520D01*
X150051893Y-119357132D01*
X150071599Y-119371747D01*
X150089777Y-119388223D01*
X150106253Y-119406401D01*
X150120868Y-119426107D01*
X150133480Y-119447150D01*
X150143970Y-119469329D01*
X150152235Y-119492428D01*
X150158196Y-119516227D01*
X150161796Y-119540495D01*
X150163000Y-119564999D01*
X150163000Y-120465001D01*
X150161796Y-120489505D01*
X150158196Y-120513773D01*
X150152235Y-120537572D01*
X150143970Y-120560671D01*
X150133480Y-120582850D01*
X150120868Y-120603893D01*
X150106253Y-120623599D01*
X150089777Y-120641777D01*
X150071599Y-120658253D01*
X150051893Y-120672868D01*
X150030850Y-120685480D01*
X150008671Y-120695970D01*
X149985572Y-120704235D01*
X149961773Y-120710196D01*
X149937505Y-120713796D01*
X149913001Y-120715000D01*
X149262999Y-120715000D01*
X149238495Y-120713796D01*
X149214227Y-120710196D01*
X149190428Y-120704235D01*
X149167329Y-120695970D01*
X149145150Y-120685480D01*
X149124107Y-120672868D01*
X149104401Y-120658253D01*
X149086223Y-120641777D01*
X149069747Y-120623599D01*
X149055132Y-120603893D01*
X149042520Y-120582850D01*
X149032030Y-120560671D01*
X149023765Y-120537572D01*
X149017804Y-120513773D01*
X149014204Y-120489505D01*
X149013000Y-120465001D01*
X149013000Y-119564999D01*
X149014204Y-119540495D01*
X149017804Y-119516227D01*
X149023765Y-119492428D01*
X149032030Y-119469329D01*
X149042520Y-119447150D01*
X149055132Y-119426107D01*
X149069747Y-119406401D01*
X149086223Y-119388223D01*
X149104401Y-119371747D01*
X149124107Y-119357132D01*
X149145150Y-119344520D01*
X149167329Y-119334030D01*
X149190428Y-119325765D01*
X149214227Y-119319804D01*
X149238495Y-119316204D01*
X149262999Y-119315000D01*
X149913001Y-119315000D01*
X149937505Y-119316204D01*
X149937505Y-119316204D01*
G37*
D16*
G04 #@! TD*
G04 #@! TO.P,C1,2*
G04 #@! TO.N,/GND*
X149588000Y-120015000D03*
D15*
G04 #@! TO.N,/GND*
G04 #@! TO.C,C2*
G36*
X183227505Y-119042204D02*
X183251773Y-119045804D01*
X183275572Y-119051765D01*
X183298671Y-119060030D01*
X183320850Y-119070520D01*
X183341893Y-119083132D01*
X183361599Y-119097747D01*
X183379777Y-119114223D01*
X183396253Y-119132401D01*
X183410868Y-119152107D01*
X183423480Y-119173150D01*
X183433970Y-119195329D01*
X183442235Y-119218428D01*
X183448196Y-119242227D01*
X183451796Y-119266495D01*
X183453000Y-119290999D01*
X183453000Y-119941001D01*
X183451796Y-119965505D01*
X183448196Y-119989773D01*
X183442235Y-120013572D01*
X183433970Y-120036671D01*
X183423480Y-120058850D01*
X183410868Y-120079893D01*
X183396253Y-120099599D01*
X183379777Y-120117777D01*
X183361599Y-120134253D01*
X183341893Y-120148868D01*
X183320850Y-120161480D01*
X183298671Y-120171970D01*
X183275572Y-120180235D01*
X183251773Y-120186196D01*
X183227505Y-120189796D01*
X183203001Y-120191000D01*
X182302999Y-120191000D01*
X182278495Y-120189796D01*
X182254227Y-120186196D01*
X182230428Y-120180235D01*
X182207329Y-120171970D01*
X182185150Y-120161480D01*
X182164107Y-120148868D01*
X182144401Y-120134253D01*
X182126223Y-120117777D01*
X182109747Y-120099599D01*
X182095132Y-120079893D01*
X182082520Y-120058850D01*
X182072030Y-120036671D01*
X182063765Y-120013572D01*
X182057804Y-119989773D01*
X182054204Y-119965505D01*
X182053000Y-119941001D01*
X182053000Y-119290999D01*
X182054204Y-119266495D01*
X182057804Y-119242227D01*
X182063765Y-119218428D01*
X182072030Y-119195329D01*
X182082520Y-119173150D01*
X182095132Y-119152107D01*
X182109747Y-119132401D01*
X182126223Y-119114223D01*
X182144401Y-119097747D01*
X182164107Y-119083132D01*
X182185150Y-119070520D01*
X182207329Y-119060030D01*
X182230428Y-119051765D01*
X182254227Y-119045804D01*
X182278495Y-119042204D01*
X182302999Y-119041000D01*
X183203001Y-119041000D01*
X183227505Y-119042204D01*
X183227505Y-119042204D01*
G37*
D16*
G04 #@! TD*
G04 #@! TO.P,C2,2*
G04 #@! TO.N,/GND*
X182753000Y-119616000D03*
D15*
G04 #@! TO.N,/3V3*
G04 #@! TO.C,C2*
G36*
X183227505Y-121092204D02*
X183251773Y-121095804D01*
X183275572Y-121101765D01*
X183298671Y-121110030D01*
X183320850Y-121120520D01*
X183341893Y-121133132D01*
X183361599Y-121147747D01*
X183379777Y-121164223D01*
X183396253Y-121182401D01*
X183410868Y-121202107D01*
X183423480Y-121223150D01*
X183433970Y-121245329D01*
X183442235Y-121268428D01*
X183448196Y-121292227D01*
X183451796Y-121316495D01*
X183453000Y-121340999D01*
X183453000Y-121991001D01*
X183451796Y-122015505D01*
X183448196Y-122039773D01*
X183442235Y-122063572D01*
X183433970Y-122086671D01*
X183423480Y-122108850D01*
X183410868Y-122129893D01*
X183396253Y-122149599D01*
X183379777Y-122167777D01*
X183361599Y-122184253D01*
X183341893Y-122198868D01*
X183320850Y-122211480D01*
X183298671Y-122221970D01*
X183275572Y-122230235D01*
X183251773Y-122236196D01*
X183227505Y-122239796D01*
X183203001Y-122241000D01*
X182302999Y-122241000D01*
X182278495Y-122239796D01*
X182254227Y-122236196D01*
X182230428Y-122230235D01*
X182207329Y-122221970D01*
X182185150Y-122211480D01*
X182164107Y-122198868D01*
X182144401Y-122184253D01*
X182126223Y-122167777D01*
X182109747Y-122149599D01*
X182095132Y-122129893D01*
X182082520Y-122108850D01*
X182072030Y-122086671D01*
X182063765Y-122063572D01*
X182057804Y-122039773D01*
X182054204Y-122015505D01*
X182053000Y-121991001D01*
X182053000Y-121340999D01*
X182054204Y-121316495D01*
X182057804Y-121292227D01*
X182063765Y-121268428D01*
X182072030Y-121245329D01*
X182082520Y-121223150D01*
X182095132Y-121202107D01*
X182109747Y-121182401D01*
X182126223Y-121164223D01*
X182144401Y-121147747D01*
X182164107Y-121133132D01*
X182185150Y-121120520D01*
X182207329Y-121110030D01*
X182230428Y-121101765D01*
X182254227Y-121095804D01*
X182278495Y-121092204D01*
X182302999Y-121091000D01*
X183203001Y-121091000D01*
X183227505Y-121092204D01*
X183227505Y-121092204D01*
G37*
D16*
G04 #@! TD*
G04 #@! TO.P,C2,1*
G04 #@! TO.N,/3V3*
X182753000Y-121666000D03*
D15*
G04 #@! TO.N,/3V3*
G04 #@! TO.C,R9*
G36*
X198850505Y-99631204D02*
X198874773Y-99634804D01*
X198898572Y-99640765D01*
X198921671Y-99649030D01*
X198943850Y-99659520D01*
X198964893Y-99672132D01*
X198984599Y-99686747D01*
X199002777Y-99703223D01*
X199019253Y-99721401D01*
X199033868Y-99741107D01*
X199046480Y-99762150D01*
X199056970Y-99784329D01*
X199065235Y-99807428D01*
X199071196Y-99831227D01*
X199074796Y-99855495D01*
X199076000Y-99879999D01*
X199076000Y-100780001D01*
X199074796Y-100804505D01*
X199071196Y-100828773D01*
X199065235Y-100852572D01*
X199056970Y-100875671D01*
X199046480Y-100897850D01*
X199033868Y-100918893D01*
X199019253Y-100938599D01*
X199002777Y-100956777D01*
X198984599Y-100973253D01*
X198964893Y-100987868D01*
X198943850Y-101000480D01*
X198921671Y-101010970D01*
X198898572Y-101019235D01*
X198874773Y-101025196D01*
X198850505Y-101028796D01*
X198826001Y-101030000D01*
X198175999Y-101030000D01*
X198151495Y-101028796D01*
X198127227Y-101025196D01*
X198103428Y-101019235D01*
X198080329Y-101010970D01*
X198058150Y-101000480D01*
X198037107Y-100987868D01*
X198017401Y-100973253D01*
X197999223Y-100956777D01*
X197982747Y-100938599D01*
X197968132Y-100918893D01*
X197955520Y-100897850D01*
X197945030Y-100875671D01*
X197936765Y-100852572D01*
X197930804Y-100828773D01*
X197927204Y-100804505D01*
X197926000Y-100780001D01*
X197926000Y-99879999D01*
X197927204Y-99855495D01*
X197930804Y-99831227D01*
X197936765Y-99807428D01*
X197945030Y-99784329D01*
X197955520Y-99762150D01*
X197968132Y-99741107D01*
X197982747Y-99721401D01*
X197999223Y-99703223D01*
X198017401Y-99686747D01*
X198037107Y-99672132D01*
X198058150Y-99659520D01*
X198080329Y-99649030D01*
X198103428Y-99640765D01*
X198127227Y-99634804D01*
X198151495Y-99631204D01*
X198175999Y-99630000D01*
X198826001Y-99630000D01*
X198850505Y-99631204D01*
X198850505Y-99631204D01*
G37*
D16*
G04 #@! TD*
G04 #@! TO.P,R9,1*
G04 #@! TO.N,/3V3*
X198501000Y-100330000D03*
D15*
G04 #@! TO.N,Net-(R9-Pad2)*
G04 #@! TO.C,R9*
G36*
X200900505Y-99631204D02*
X200924773Y-99634804D01*
X200948572Y-99640765D01*
X200971671Y-99649030D01*
X200993850Y-99659520D01*
X201014893Y-99672132D01*
X201034599Y-99686747D01*
X201052777Y-99703223D01*
X201069253Y-99721401D01*
X201083868Y-99741107D01*
X201096480Y-99762150D01*
X201106970Y-99784329D01*
X201115235Y-99807428D01*
X201121196Y-99831227D01*
X201124796Y-99855495D01*
X201126000Y-99879999D01*
X201126000Y-100780001D01*
X201124796Y-100804505D01*
X201121196Y-100828773D01*
X201115235Y-100852572D01*
X201106970Y-100875671D01*
X201096480Y-100897850D01*
X201083868Y-100918893D01*
X201069253Y-100938599D01*
X201052777Y-100956777D01*
X201034599Y-100973253D01*
X201014893Y-100987868D01*
X200993850Y-101000480D01*
X200971671Y-101010970D01*
X200948572Y-101019235D01*
X200924773Y-101025196D01*
X200900505Y-101028796D01*
X200876001Y-101030000D01*
X200225999Y-101030000D01*
X200201495Y-101028796D01*
X200177227Y-101025196D01*
X200153428Y-101019235D01*
X200130329Y-101010970D01*
X200108150Y-101000480D01*
X200087107Y-100987868D01*
X200067401Y-100973253D01*
X200049223Y-100956777D01*
X200032747Y-100938599D01*
X200018132Y-100918893D01*
X200005520Y-100897850D01*
X199995030Y-100875671D01*
X199986765Y-100852572D01*
X199980804Y-100828773D01*
X199977204Y-100804505D01*
X199976000Y-100780001D01*
X199976000Y-99879999D01*
X199977204Y-99855495D01*
X199980804Y-99831227D01*
X199986765Y-99807428D01*
X199995030Y-99784329D01*
X200005520Y-99762150D01*
X200018132Y-99741107D01*
X200032747Y-99721401D01*
X200049223Y-99703223D01*
X200067401Y-99686747D01*
X200087107Y-99672132D01*
X200108150Y-99659520D01*
X200130329Y-99649030D01*
X200153428Y-99640765D01*
X200177227Y-99634804D01*
X200201495Y-99631204D01*
X200225999Y-99630000D01*
X200876001Y-99630000D01*
X200900505Y-99631204D01*
X200900505Y-99631204D01*
G37*
D16*
G04 #@! TD*
G04 #@! TO.P,R9,2*
G04 #@! TO.N,Net-(R9-Pad2)*
X200551000Y-100330000D03*
D17*
G04 #@! TO.P,SW1,1*
G04 #@! TO.N,/GND*
X212725000Y-116078000D03*
X212725000Y-121838000D03*
G04 #@! TO.P,SW1,2*
G04 #@! TO.N,Net-(R9-Pad2)*
X216725000Y-121838000D03*
X216725000Y-116078000D03*
G04 #@! TD*
D18*
G04 #@! TO.P,U2,1*
G04 #@! TO.N,Net-(R9-Pad2)*
X201008000Y-104140000D03*
G04 #@! TO.P,U2,2*
G04 #@! TO.N,Net-(U2-Pad2)*
X199008000Y-104140000D03*
G04 #@! TO.P,U2,3*
G04 #@! TO.N,/3V3*
X197008000Y-104140000D03*
G04 #@! TO.P,U2,4*
G04 #@! TO.N,Net-(U2-Pad4)*
X195008000Y-104140000D03*
G04 #@! TO.P,U2,5*
G04 #@! TO.N,/SER*
X193008000Y-104140000D03*
G04 #@! TO.P,U2,6*
G04 #@! TO.N,/SRCLK*
X191008000Y-104140000D03*
G04 #@! TO.P,U2,7*
G04 #@! TO.N,/RCLK*
X189008000Y-104140000D03*
G04 #@! TO.P,U2,8*
G04 #@! TO.N,/3V3*
X187008000Y-104140000D03*
D19*
G04 #@! TO.P,U2,9*
G04 #@! TO.N,Net-(U2-Pad9)*
X185508000Y-106740000D03*
G04 #@! TO.P,U2,10*
G04 #@! TO.N,Net-(U2-Pad10)*
X185508000Y-108740000D03*
G04 #@! TO.P,U2,11*
G04 #@! TO.N,Net-(U2-Pad11)*
X185508000Y-110740000D03*
G04 #@! TO.P,U2,12*
G04 #@! TO.N,Net-(U2-Pad12)*
X185508000Y-112740000D03*
G04 #@! TO.P,U2,13*
G04 #@! TO.N,Net-(U2-Pad13)*
X185508000Y-114740000D03*
G04 #@! TO.P,U2,14*
G04 #@! TO.N,Net-(U2-Pad14)*
X185508000Y-116740000D03*
D18*
G04 #@! TO.P,U2,15*
G04 #@! TO.N,/GND*
X187008000Y-119340000D03*
G04 #@! TO.P,U2,16*
X189008000Y-119340000D03*
G04 #@! TO.P,U2,17*
G04 #@! TO.N,/RXD*
X191008000Y-119340000D03*
G04 #@! TO.P,U2,18*
G04 #@! TO.N,Net-(R10-Pad2)*
X193008000Y-119340000D03*
G04 #@! TO.P,U2,19*
G04 #@! TO.N,Net-(U2-Pad19)*
X195008000Y-119340000D03*
G04 #@! TO.P,U2,20*
G04 #@! TO.N,Net-(U2-Pad20)*
X197008000Y-119340000D03*
G04 #@! TO.P,U2,21*
G04 #@! TO.N,Net-(U2-Pad21)*
X199008000Y-119340000D03*
G04 #@! TO.P,U2,22*
G04 #@! TO.N,/TXD*
X201008000Y-119340000D03*
G04 #@! TD*
D20*
G04 #@! TO.P,U4,1*
G04 #@! TO.N,/O1*
X167513000Y-110619000D03*
G04 #@! TO.P,U4,2*
G04 #@! TO.N,/O2*
X168783000Y-110619000D03*
G04 #@! TO.P,U4,3*
G04 #@! TO.N,/O3*
X170053000Y-110619000D03*
G04 #@! TO.P,U4,4*
G04 #@! TO.N,/O4*
X171323000Y-110619000D03*
G04 #@! TO.P,U4,5*
G04 #@! TO.N,/O5*
X172593000Y-110619000D03*
G04 #@! TO.P,U4,6*
G04 #@! TO.N,/O6*
X173863000Y-110619000D03*
G04 #@! TO.P,U4,7*
G04 #@! TO.N,/O7*
X175133000Y-110619000D03*
G04 #@! TO.P,U4,8*
G04 #@! TO.N,/O8*
X176403000Y-110619000D03*
G04 #@! TO.P,U4,9*
G04 #@! TO.N,/GND*
X177673000Y-110619000D03*
G04 #@! TO.P,U4,10*
G04 #@! TO.N,/5V*
X177673000Y-101219000D03*
G04 #@! TO.P,U4,11*
G04 #@! TO.N,/S7*
X176403000Y-101219000D03*
G04 #@! TO.P,U4,12*
G04 #@! TO.N,/S6*
X175133000Y-101219000D03*
G04 #@! TO.P,U4,13*
G04 #@! TO.N,/S5*
X173863000Y-101219000D03*
G04 #@! TO.P,U4,14*
G04 #@! TO.N,/S4*
X172593000Y-101219000D03*
G04 #@! TO.P,U4,15*
G04 #@! TO.N,/S3*
X171323000Y-101219000D03*
G04 #@! TO.P,U4,16*
G04 #@! TO.N,/S2*
X170053000Y-101219000D03*
G04 #@! TO.P,U4,17*
G04 #@! TO.N,/S1*
X168783000Y-101219000D03*
G04 #@! TO.P,U4,18*
G04 #@! TO.N,/S0*
X167513000Y-101219000D03*
G04 #@! TD*
D21*
G04 #@! TO.P,U3,1*
G04 #@! TO.N,/O7*
X175133000Y-114433000D03*
G04 #@! TO.P,U3,2*
G04 #@! TO.N,/O6*
X173863000Y-114433000D03*
G04 #@! TO.P,U3,3*
G04 #@! TO.N,/O5*
X172593000Y-114433000D03*
G04 #@! TO.P,U3,4*
G04 #@! TO.N,/O4*
X171323000Y-114433000D03*
G04 #@! TO.P,U3,5*
G04 #@! TO.N,/O3*
X170053000Y-114433000D03*
G04 #@! TO.P,U3,6*
G04 #@! TO.N,/O2*
X168783000Y-114433000D03*
G04 #@! TO.P,U3,7*
G04 #@! TO.N,/O1*
X167513000Y-114433000D03*
G04 #@! TO.P,U3,8*
G04 #@! TO.N,/GND*
X166243000Y-114433000D03*
G04 #@! TO.P,U3,9*
G04 #@! TO.N,Net-(U3-Pad9)*
X166243000Y-121533000D03*
G04 #@! TO.P,U3,10*
G04 #@! TO.N,/RCLK*
X167513000Y-121533000D03*
G04 #@! TO.P,U3,11*
G04 #@! TO.N,/SRCLK*
X168783000Y-121533000D03*
G04 #@! TO.P,U3,12*
G04 #@! TO.N,/3V3*
X170053000Y-121533000D03*
G04 #@! TO.P,U3,13*
G04 #@! TO.N,/GND*
X171323000Y-121533000D03*
G04 #@! TO.P,U3,14*
G04 #@! TO.N,/SER*
X172593000Y-121533000D03*
G04 #@! TO.P,U3,15*
G04 #@! TO.N,/O8*
X173863000Y-121533000D03*
G04 #@! TO.P,U3,16*
G04 #@! TO.N,/3V3*
X175133000Y-121533000D03*
G04 #@! TD*
D22*
G04 #@! TO.P,J1,1*
G04 #@! TO.N,/3V3*
X155448000Y-105156000D03*
D23*
G04 #@! TO.P,J1,2*
G04 #@! TO.N,/TXD*
X157988000Y-105156000D03*
G04 #@! TO.P,J1,3*
G04 #@! TO.N,/RXD*
X160528000Y-105156000D03*
G04 #@! TO.P,J1,4*
G04 #@! TO.N,/GND*
X163068000Y-105156000D03*
G04 #@! TD*
D15*
G04 #@! TO.N,/3V3*
G04 #@! TO.C,R10*
G36*
X144258505Y-97345204D02*
X144282773Y-97348804D01*
X144306572Y-97354765D01*
X144329671Y-97363030D01*
X144351850Y-97373520D01*
X144372893Y-97386132D01*
X144392599Y-97400747D01*
X144410777Y-97417223D01*
X144427253Y-97435401D01*
X144441868Y-97455107D01*
X144454480Y-97476150D01*
X144464970Y-97498329D01*
X144473235Y-97521428D01*
X144479196Y-97545227D01*
X144482796Y-97569495D01*
X144484000Y-97593999D01*
X144484000Y-98494001D01*
X144482796Y-98518505D01*
X144479196Y-98542773D01*
X144473235Y-98566572D01*
X144464970Y-98589671D01*
X144454480Y-98611850D01*
X144441868Y-98632893D01*
X144427253Y-98652599D01*
X144410777Y-98670777D01*
X144392599Y-98687253D01*
X144372893Y-98701868D01*
X144351850Y-98714480D01*
X144329671Y-98724970D01*
X144306572Y-98733235D01*
X144282773Y-98739196D01*
X144258505Y-98742796D01*
X144234001Y-98744000D01*
X143583999Y-98744000D01*
X143559495Y-98742796D01*
X143535227Y-98739196D01*
X143511428Y-98733235D01*
X143488329Y-98724970D01*
X143466150Y-98714480D01*
X143445107Y-98701868D01*
X143425401Y-98687253D01*
X143407223Y-98670777D01*
X143390747Y-98652599D01*
X143376132Y-98632893D01*
X143363520Y-98611850D01*
X143353030Y-98589671D01*
X143344765Y-98566572D01*
X143338804Y-98542773D01*
X143335204Y-98518505D01*
X143334000Y-98494001D01*
X143334000Y-97593999D01*
X143335204Y-97569495D01*
X143338804Y-97545227D01*
X143344765Y-97521428D01*
X143353030Y-97498329D01*
X143363520Y-97476150D01*
X143376132Y-97455107D01*
X143390747Y-97435401D01*
X143407223Y-97417223D01*
X143425401Y-97400747D01*
X143445107Y-97386132D01*
X143466150Y-97373520D01*
X143488329Y-97363030D01*
X143511428Y-97354765D01*
X143535227Y-97348804D01*
X143559495Y-97345204D01*
X143583999Y-97344000D01*
X144234001Y-97344000D01*
X144258505Y-97345204D01*
X144258505Y-97345204D01*
G37*
D16*
G04 #@! TD*
G04 #@! TO.P,R10,1*
G04 #@! TO.N,/3V3*
X143909000Y-98044000D03*
D15*
G04 #@! TO.N,Net-(R10-Pad2)*
G04 #@! TO.C,R10*
G36*
X142208505Y-97345204D02*
X142232773Y-97348804D01*
X142256572Y-97354765D01*
X142279671Y-97363030D01*
X142301850Y-97373520D01*
X142322893Y-97386132D01*
X142342599Y-97400747D01*
X142360777Y-97417223D01*
X142377253Y-97435401D01*
X142391868Y-97455107D01*
X142404480Y-97476150D01*
X142414970Y-97498329D01*
X142423235Y-97521428D01*
X142429196Y-97545227D01*
X142432796Y-97569495D01*
X142434000Y-97593999D01*
X142434000Y-98494001D01*
X142432796Y-98518505D01*
X142429196Y-98542773D01*
X142423235Y-98566572D01*
X142414970Y-98589671D01*
X142404480Y-98611850D01*
X142391868Y-98632893D01*
X142377253Y-98652599D01*
X142360777Y-98670777D01*
X142342599Y-98687253D01*
X142322893Y-98701868D01*
X142301850Y-98714480D01*
X142279671Y-98724970D01*
X142256572Y-98733235D01*
X142232773Y-98739196D01*
X142208505Y-98742796D01*
X142184001Y-98744000D01*
X141533999Y-98744000D01*
X141509495Y-98742796D01*
X141485227Y-98739196D01*
X141461428Y-98733235D01*
X141438329Y-98724970D01*
X141416150Y-98714480D01*
X141395107Y-98701868D01*
X141375401Y-98687253D01*
X141357223Y-98670777D01*
X141340747Y-98652599D01*
X141326132Y-98632893D01*
X141313520Y-98611850D01*
X141303030Y-98589671D01*
X141294765Y-98566572D01*
X141288804Y-98542773D01*
X141285204Y-98518505D01*
X141284000Y-98494001D01*
X141284000Y-97593999D01*
X141285204Y-97569495D01*
X141288804Y-97545227D01*
X141294765Y-97521428D01*
X141303030Y-97498329D01*
X141313520Y-97476150D01*
X141326132Y-97455107D01*
X141340747Y-97435401D01*
X141357223Y-97417223D01*
X141375401Y-97400747D01*
X141395107Y-97386132D01*
X141416150Y-97373520D01*
X141438329Y-97363030D01*
X141461428Y-97354765D01*
X141485227Y-97348804D01*
X141509495Y-97345204D01*
X141533999Y-97344000D01*
X142184001Y-97344000D01*
X142208505Y-97345204D01*
X142208505Y-97345204D01*
G37*
D16*
G04 #@! TD*
G04 #@! TO.P,R10,2*
G04 #@! TO.N,Net-(R10-Pad2)*
X141859000Y-98044000D03*
D24*
G04 #@! TO.P,SW2,1*
G04 #@! TO.N,/GND*
X142240000Y-105092000D03*
X148000000Y-105092000D03*
G04 #@! TO.P,SW2,2*
G04 #@! TO.N,Net-(R10-Pad2)*
X148000000Y-101092000D03*
X142240000Y-101092000D03*
G04 #@! TD*
D25*
G04 #@! TO.N,/3V3*
X147955000Y-98044000D03*
G04 #@! TO.N,/SRCLK*
X190881000Y-106934000D03*
X168783000Y-119634000D03*
G04 #@! TO.N,/RCLK*
X188087000Y-106680000D03*
X167513003Y-118745003D03*
G04 #@! TO.N,/SER*
X192786000Y-107569000D03*
X172593000Y-118745000D03*
G04 #@! TO.N,/GND*
X148336000Y-107569000D03*
X151764994Y-108458000D03*
G04 #@! TO.N,/TXD*
X200787000Y-121666000D03*
G04 #@! TO.N,/RXD*
X188595000Y-122174000D03*
G04 #@! TO.N,Net-(R10-Pad2)*
X151130000Y-102362000D03*
X191897000Y-122809000D03*
G04 #@! TD*
D26*
G04 #@! TO.N,/3V3*
X197008000Y-101148000D02*
X197008000Y-102640000D01*
X197008000Y-102640000D02*
X197008000Y-104140000D01*
X197826000Y-100330000D02*
X197008000Y-101148000D01*
X197826000Y-100330000D02*
X198501000Y-100330000D01*
X175266000Y-121666000D02*
X175133000Y-121533000D01*
X170053000Y-122533000D02*
X170053000Y-121533000D01*
X175133000Y-121533000D02*
X175133000Y-122555000D01*
X175133000Y-122555000D02*
X174498000Y-123190000D01*
X174498000Y-123190000D02*
X170710000Y-123190000D01*
X170710000Y-123190000D02*
X170053000Y-122533000D01*
X197064000Y-101092000D02*
X197826000Y-100330000D01*
X188556000Y-101092000D02*
X197064000Y-101092000D01*
X187008000Y-102640000D02*
X188556000Y-101092000D01*
X187008000Y-104140000D02*
X187008000Y-102640000D01*
X143909000Y-98044000D02*
X147955000Y-98044000D01*
X179324000Y-121666000D02*
X175266000Y-121666000D01*
X182753000Y-121666000D02*
X179324000Y-121666000D01*
X186258000Y-104140000D02*
X187008000Y-104140000D01*
X179324000Y-109220000D02*
X184404000Y-104140000D01*
X184404000Y-104140000D02*
X186258000Y-104140000D01*
X179324000Y-121666000D02*
X179324000Y-109220000D01*
X154348000Y-105156000D02*
X155448000Y-105156000D01*
X150540000Y-114300000D02*
X149860000Y-113620000D01*
X153543000Y-105156000D02*
X154348000Y-105156000D01*
X149860000Y-113620000D02*
X149860000Y-108839000D01*
X151790000Y-114300000D02*
X150540000Y-114300000D01*
X149860000Y-108839000D02*
X153543000Y-105156000D01*
X170053000Y-119126000D02*
X170053000Y-121533000D01*
X168529000Y-117602000D02*
X170053000Y-119126000D01*
X155829000Y-117602000D02*
X168529000Y-117602000D01*
X151790000Y-114300000D02*
X153040000Y-114300000D01*
X153040000Y-114300000D02*
X154051000Y-115311000D01*
X154051000Y-115311000D02*
X154051000Y-115824000D01*
X154051000Y-115824000D02*
X155829000Y-117602000D01*
G04 #@! TO.N,/SRCLK*
X191008000Y-104140000D02*
X191008000Y-105640000D01*
X191008000Y-106807000D02*
X190881000Y-106934000D01*
X191008000Y-105640000D02*
X191008000Y-106807000D01*
X168783000Y-121533000D02*
X168783000Y-119634000D01*
G04 #@! TO.N,/RCLK*
X189008000Y-105759000D02*
X188087000Y-106680000D01*
X189008000Y-104140000D02*
X189008000Y-105759000D01*
X167513000Y-118745006D02*
X167513003Y-118745003D01*
X167513000Y-121533000D02*
X167513000Y-118745006D01*
G04 #@! TO.N,/SER*
X193008000Y-105640000D02*
X193040000Y-105672000D01*
X193008000Y-104140000D02*
X193008000Y-105640000D01*
X193040000Y-107315000D02*
X192786000Y-107569000D01*
X193040000Y-105672000D02*
X193040000Y-107315000D01*
X172593000Y-118745000D02*
X172593000Y-121533000D01*
G04 #@! TO.N,/S0*
X148209000Y-92710000D02*
X142240000Y-92710000D01*
X157353000Y-101854000D02*
X148209000Y-92710000D01*
X166878000Y-101854000D02*
X157353000Y-101854000D01*
X167513000Y-101219000D02*
X166878000Y-101854000D01*
G04 #@! TO.N,/S1*
X156591000Y-92710000D02*
X152400000Y-92710000D01*
X168783000Y-101219000D02*
X168783000Y-99969000D01*
X168783000Y-99969000D02*
X167493000Y-98679000D01*
X162560000Y-98679000D02*
X156591000Y-92710000D01*
X167493000Y-98679000D02*
X162560000Y-98679000D01*
G04 #@! TO.N,/S2*
X170053000Y-100203000D02*
X170053000Y-101219000D01*
X162560000Y-92710000D02*
X170053000Y-100203000D01*
G04 #@! TO.N,/S3*
X171323000Y-94107000D02*
X171323000Y-101219000D01*
X172720000Y-92710000D02*
X171323000Y-94107000D01*
G04 #@! TO.N,/S4*
X172593000Y-101219000D02*
X172593000Y-99969000D01*
X179852000Y-92710000D02*
X182880000Y-92710000D01*
X172593000Y-99969000D02*
X179852000Y-92710000D01*
G04 #@! TO.N,/S5*
X173863000Y-99969000D02*
X177820000Y-96012000D01*
X173863000Y-101219000D02*
X173863000Y-99969000D01*
X189738000Y-96012000D02*
X193040000Y-92710000D01*
X177820000Y-96012000D02*
X189738000Y-96012000D01*
G04 #@! TO.N,/S6*
X200152000Y-92710000D02*
X203200000Y-92710000D01*
X175133000Y-101219000D02*
X175133000Y-99822000D01*
X177292000Y-97663000D02*
X195199000Y-97663000D01*
X175133000Y-99822000D02*
X177292000Y-97663000D01*
X195199000Y-97663000D02*
X200152000Y-92710000D01*
G04 #@! TO.N,/S7*
X176403000Y-101219000D02*
X176403000Y-99822000D01*
X202946000Y-98806000D02*
X209042000Y-92710000D01*
X176403000Y-99822000D02*
X177419000Y-98806000D01*
X209042000Y-92710000D02*
X213360000Y-92710000D01*
X177419000Y-98806000D02*
X202946000Y-98806000D01*
G04 #@! TO.N,/5V*
X143750000Y-116600000D02*
X143510000Y-116840000D01*
X149606000Y-116600000D02*
X143750000Y-116600000D01*
X151790000Y-116600000D02*
X149606000Y-116600000D01*
X151638000Y-116752000D02*
X151790000Y-116600000D01*
X151638000Y-120015000D02*
X151638000Y-116752000D01*
X140208000Y-79502000D02*
X142240000Y-77470000D01*
X140208000Y-93091000D02*
X140208000Y-79502000D01*
X142240000Y-77470000D02*
X152400000Y-77470000D01*
X153477630Y-77470000D02*
X162560000Y-77470000D01*
X152400000Y-77470000D02*
X153477630Y-77470000D01*
X163637630Y-77470000D02*
X172720000Y-77470000D01*
X162560000Y-77470000D02*
X163637630Y-77470000D01*
X173797630Y-77470000D02*
X182880000Y-77470000D01*
X172720000Y-77470000D02*
X173797630Y-77470000D01*
X183957630Y-77470000D02*
X193040000Y-77470000D01*
X182880000Y-77470000D02*
X183957630Y-77470000D01*
X193040000Y-77470000D02*
X203200000Y-77470000D01*
X203200000Y-77470000D02*
X213360000Y-77470000D01*
X177673000Y-101219000D02*
X177673000Y-102469000D01*
X177673000Y-102469000D02*
X177566000Y-102469000D01*
X177566000Y-102469000D02*
X177038000Y-102997000D01*
X146939000Y-95123000D02*
X154813000Y-102997000D01*
X142240000Y-95123000D02*
X146939000Y-95123000D01*
X142240000Y-95123000D02*
X140208000Y-93091000D01*
X177038000Y-102997000D02*
X154813000Y-102997000D01*
X154559000Y-102997000D02*
X154813000Y-102997000D01*
X149098000Y-116092000D02*
X149098000Y-107315000D01*
X149098000Y-107315000D02*
X153416000Y-102997000D01*
X149606000Y-116600000D02*
X149098000Y-116092000D01*
X153416000Y-102997000D02*
X154559000Y-102997000D01*
G04 #@! TO.N,/GND*
X212725000Y-117703000D02*
X212725000Y-121838000D01*
X212725000Y-116078000D02*
X212725000Y-117703000D01*
X143510000Y-110240000D02*
X146181000Y-107569000D01*
X146181000Y-107569000D02*
X148336000Y-107569000D01*
X143510000Y-111760000D02*
X143510000Y-110240000D01*
X151790000Y-112000000D02*
X151790000Y-108483000D01*
X149588000Y-122156000D02*
X149588000Y-120015000D01*
X151257000Y-123825000D02*
X149588000Y-122156000D01*
X189008000Y-119340000D02*
X187008000Y-119340000D01*
X183029000Y-119340000D02*
X182753000Y-119616000D01*
X187008000Y-119340000D02*
X183029000Y-119340000D01*
X212725000Y-122713000D02*
X212725000Y-121838000D01*
X211613000Y-123825000D02*
X212725000Y-122713000D01*
X203962000Y-123825000D02*
X211613000Y-123825000D01*
X142240000Y-105092000D02*
X148000000Y-105092000D01*
X148036001Y-107269001D02*
X148336000Y-107569000D01*
X148000000Y-107233000D02*
X148036001Y-107269001D01*
X148000000Y-105092000D02*
X148000000Y-107233000D01*
X163068000Y-106358081D02*
X163068000Y-105156000D01*
X165693000Y-114433000D02*
X163068000Y-111808000D01*
X166243000Y-114433000D02*
X165693000Y-114433000D01*
X163043000Y-108483000D02*
X163068000Y-108458000D01*
X151790000Y-108483000D02*
X163043000Y-108483000D01*
X163068000Y-108458000D02*
X163068000Y-106358081D01*
X163068000Y-111808000D02*
X163068000Y-108458000D01*
X177673000Y-109093000D02*
X177673000Y-110619000D01*
X177038000Y-108458000D02*
X177673000Y-109093000D01*
X163068000Y-108458000D02*
X177038000Y-108458000D01*
X141990000Y-111760000D02*
X140335000Y-113415000D01*
X143510000Y-111760000D02*
X141990000Y-111760000D01*
X140335000Y-113415000D02*
X140335000Y-119634000D01*
X140716000Y-120015000D02*
X149588000Y-120015000D01*
X140335000Y-119634000D02*
X140716000Y-120015000D01*
X187008000Y-123761000D02*
X186944000Y-123825000D01*
X187008000Y-119340000D02*
X187008000Y-123761000D01*
X186944000Y-123825000D02*
X151257000Y-123825000D01*
X203962000Y-123825000D02*
X186944000Y-123825000D01*
X151765000Y-108458000D02*
X151764994Y-108458000D01*
X151790000Y-108483000D02*
X151765000Y-108458000D01*
X166243000Y-115951000D02*
X166243000Y-114433000D01*
X171323000Y-121533000D02*
X171323000Y-118999000D01*
X171323000Y-118999000D02*
X169164000Y-116840000D01*
X169164000Y-116840000D02*
X167132000Y-116840000D01*
X167132000Y-116840000D02*
X166243000Y-115951000D01*
G04 #@! TO.N,Net-(R9-Pad2)*
X201008000Y-100787000D02*
X200551000Y-100330000D01*
X201008000Y-104140000D02*
X201008000Y-100787000D01*
X216725000Y-117703000D02*
X216725000Y-121838000D01*
X216725000Y-116078000D02*
X216725000Y-117703000D01*
X200551000Y-100330000D02*
X212217000Y-100330000D01*
X216725000Y-104838000D02*
X216725000Y-116078000D01*
X212217000Y-100330000D02*
X216725000Y-104838000D01*
G04 #@! TO.N,/O7*
X175133000Y-114433000D02*
X175133000Y-110619000D01*
G04 #@! TO.N,/O6*
X173863000Y-111869000D02*
X173863000Y-114433000D01*
X173863000Y-110619000D02*
X173863000Y-111869000D01*
G04 #@! TO.N,/O5*
X172593000Y-111869000D02*
X172593000Y-114433000D01*
X172593000Y-110619000D02*
X172593000Y-111869000D01*
G04 #@! TO.N,/O4*
X171323000Y-111869000D02*
X171323000Y-114433000D01*
X171323000Y-110619000D02*
X171323000Y-111869000D01*
G04 #@! TO.N,/O3*
X170053000Y-113433000D02*
X170053000Y-110619000D01*
X170053000Y-114433000D02*
X170053000Y-113433000D01*
G04 #@! TO.N,/O2*
X168783000Y-113433000D02*
X168783000Y-110619000D01*
X168783000Y-114433000D02*
X168783000Y-113433000D01*
G04 #@! TO.N,/O1*
X167513000Y-113433000D02*
X167513000Y-110619000D01*
X167513000Y-114433000D02*
X167513000Y-113433000D01*
G04 #@! TO.N,/O8*
X176403000Y-110619000D02*
X176403000Y-116332000D01*
X173863000Y-118872000D02*
X173863000Y-121533000D01*
X176403000Y-116332000D02*
X173863000Y-118872000D01*
G04 #@! TO.N,/TXD*
X201008000Y-121445000D02*
X200787000Y-121666000D01*
X201008000Y-119340000D02*
X201008000Y-121445000D01*
G04 #@! TO.N,/RXD*
X191008000Y-121031000D02*
X189865000Y-122174000D01*
X189865000Y-122174000D02*
X188595000Y-122174000D01*
X191008000Y-119340000D02*
X191008000Y-121031000D01*
G04 #@! TO.N,Net-(R10-Pad2)*
X143865000Y-101092000D02*
X148000000Y-101092000D01*
X142240000Y-101092000D02*
X143865000Y-101092000D01*
X142240000Y-98425000D02*
X141859000Y-98044000D01*
X142240000Y-101092000D02*
X142240000Y-98425000D01*
X150145000Y-102362000D02*
X151130000Y-102362000D01*
X148875000Y-101092000D02*
X150145000Y-102362000D01*
X148000000Y-101092000D02*
X148875000Y-101092000D01*
X193008000Y-121698000D02*
X193008000Y-119340000D01*
X191897000Y-122809000D02*
X193008000Y-121698000D01*
G04 #@! TD*
M02*
