G04 #@! TF.GenerationSoftware,KiCad,Pcbnew,5.0.2-bee76a0~70~ubuntu18.04.1*
G04 #@! TF.CreationDate,2019-03-11T17:23:52+01:00*
G04 #@! TF.ProjectId,8RelaisReed,3852656c-6169-4735-9265-65642e6b6963,rev?*
G04 #@! TF.SameCoordinates,Original*
G04 #@! TF.FileFunction,Copper,L1,Top*
G04 #@! TF.FilePolarity,Positive*
%FSLAX46Y46*%
G04 Gerber Fmt 4.6, Leading zero omitted, Abs format (unit mm)*
G04 Created by KiCad (PCBNEW 5.0.2-bee76a0~70~ubuntu18.04.1) date lun. 11 mars 2019 17:23:52 CET*
%MOMM*%
%LPD*%
G01*
G04 APERTURE LIST*
G04 #@! TA.AperFunction,ComponentPad*
%ADD10R,2.540000X2.540000*%
G04 #@! TD*
G04 #@! TA.AperFunction,ComponentPad*
%ADD11C,2.540000*%
G04 #@! TD*
G04 #@! TA.AperFunction,ComponentPad*
%ADD12C,1.524000*%
G04 #@! TD*
G04 #@! TA.AperFunction,SMDPad,CuDef*
%ADD13R,0.600000X2.000000*%
G04 #@! TD*
G04 #@! TA.AperFunction,SMDPad,CuDef*
%ADD14R,0.600000X1.500000*%
G04 #@! TD*
G04 #@! TA.AperFunction,ComponentPad*
%ADD15R,1.700000X1.700000*%
G04 #@! TD*
G04 #@! TA.AperFunction,ComponentPad*
%ADD16O,1.700000X1.700000*%
G04 #@! TD*
G04 #@! TA.AperFunction,ViaPad*
%ADD17C,0.600000*%
G04 #@! TD*
G04 #@! TA.AperFunction,Conductor*
%ADD18C,0.250000*%
G04 #@! TD*
G04 #@! TA.AperFunction,Conductor*
%ADD19C,0.254000*%
G04 #@! TD*
G04 APERTURE END LIST*
D10*
G04 #@! TO.P,P4,1*
G04 #@! TO.N,Net-(P4-Pad1)*
X146050000Y-69850000D03*
D11*
G04 #@! TO.P,P4,2*
G04 #@! TO.N,Net-(P4-Pad2)*
X140970000Y-69850000D03*
G04 #@! TD*
D10*
G04 #@! TO.P,P5,1*
G04 #@! TO.N,Net-(P5-Pad1)*
X156210000Y-69850000D03*
D11*
G04 #@! TO.P,P5,2*
G04 #@! TO.N,Net-(P5-Pad2)*
X151130000Y-69850000D03*
G04 #@! TD*
D10*
G04 #@! TO.P,P6,1*
G04 #@! TO.N,Net-(P6-Pad1)*
X166370000Y-69850000D03*
D11*
G04 #@! TO.P,P6,2*
G04 #@! TO.N,Net-(P6-Pad2)*
X161290000Y-69850000D03*
G04 #@! TD*
D10*
G04 #@! TO.P,P7,1*
G04 #@! TO.N,Net-(P7-Pad1)*
X176530000Y-69850000D03*
D11*
G04 #@! TO.P,P7,2*
G04 #@! TO.N,Net-(P7-Pad2)*
X171450000Y-69850000D03*
G04 #@! TD*
D10*
G04 #@! TO.P,P8,1*
G04 #@! TO.N,Net-(P8-Pad1)*
X186690000Y-69850000D03*
D11*
G04 #@! TO.P,P8,2*
G04 #@! TO.N,Net-(P8-Pad2)*
X181610000Y-69850000D03*
G04 #@! TD*
D10*
G04 #@! TO.P,P9,1*
G04 #@! TO.N,Net-(P9-Pad1)*
X196850000Y-69850000D03*
D11*
G04 #@! TO.P,P9,2*
G04 #@! TO.N,Net-(P9-Pad2)*
X191770000Y-69850000D03*
G04 #@! TD*
D10*
G04 #@! TO.P,P10,1*
G04 #@! TO.N,Net-(P10-Pad1)*
X207010000Y-69850000D03*
D11*
G04 #@! TO.P,P10,2*
G04 #@! TO.N,Net-(P10-Pad2)*
X201930000Y-69850000D03*
G04 #@! TD*
D10*
G04 #@! TO.P,P11,1*
G04 #@! TO.N,Net-(P11-Pad1)*
X217170000Y-69850000D03*
D11*
G04 #@! TO.P,P11,2*
G04 #@! TO.N,Net-(P11-Pad2)*
X212090000Y-69850000D03*
G04 #@! TD*
D12*
G04 #@! TO.P,R1,1*
G04 #@! TO.N,/S0*
X142240000Y-92710000D03*
G04 #@! TO.P,R1,2*
G04 #@! TO.N,Net-(P4-Pad1)*
X142240000Y-87630000D03*
G04 #@! TO.P,R1,3*
G04 #@! TO.N,Net-(P4-Pad2)*
X142240000Y-82550000D03*
G04 #@! TO.P,R1,4*
G04 #@! TO.N,/5V*
X142240000Y-77470000D03*
G04 #@! TD*
G04 #@! TO.P,R2,1*
G04 #@! TO.N,/S1*
X152400000Y-92710000D03*
G04 #@! TO.P,R2,2*
G04 #@! TO.N,Net-(P5-Pad1)*
X152400000Y-87630000D03*
G04 #@! TO.P,R2,3*
G04 #@! TO.N,Net-(P5-Pad2)*
X152400000Y-82550000D03*
G04 #@! TO.P,R2,4*
G04 #@! TO.N,/5V*
X152400000Y-77470000D03*
G04 #@! TD*
G04 #@! TO.P,R3,1*
G04 #@! TO.N,/S2*
X162560000Y-92710000D03*
G04 #@! TO.P,R3,2*
G04 #@! TO.N,Net-(P6-Pad1)*
X162560000Y-87630000D03*
G04 #@! TO.P,R3,3*
G04 #@! TO.N,Net-(P6-Pad2)*
X162560000Y-82550000D03*
G04 #@! TO.P,R3,4*
G04 #@! TO.N,/5V*
X162560000Y-77470000D03*
G04 #@! TD*
G04 #@! TO.P,R4,1*
G04 #@! TO.N,/S3*
X172720000Y-92710000D03*
G04 #@! TO.P,R4,2*
G04 #@! TO.N,Net-(P7-Pad1)*
X172720000Y-87630000D03*
G04 #@! TO.P,R4,3*
G04 #@! TO.N,Net-(P7-Pad2)*
X172720000Y-82550000D03*
G04 #@! TO.P,R4,4*
G04 #@! TO.N,/5V*
X172720000Y-77470000D03*
G04 #@! TD*
G04 #@! TO.P,R5,1*
G04 #@! TO.N,/S4*
X182880000Y-92710000D03*
G04 #@! TO.P,R5,2*
G04 #@! TO.N,Net-(P8-Pad1)*
X182880000Y-87630000D03*
G04 #@! TO.P,R5,3*
G04 #@! TO.N,Net-(P8-Pad2)*
X182880000Y-82550000D03*
G04 #@! TO.P,R5,4*
G04 #@! TO.N,/5V*
X182880000Y-77470000D03*
G04 #@! TD*
G04 #@! TO.P,R6,1*
G04 #@! TO.N,/S5*
X193040000Y-92710000D03*
G04 #@! TO.P,R6,2*
G04 #@! TO.N,Net-(P9-Pad1)*
X193040000Y-87630000D03*
G04 #@! TO.P,R6,3*
G04 #@! TO.N,Net-(P9-Pad2)*
X193040000Y-82550000D03*
G04 #@! TO.P,R6,4*
G04 #@! TO.N,/5V*
X193040000Y-77470000D03*
G04 #@! TD*
G04 #@! TO.P,R7,1*
G04 #@! TO.N,/S6*
X203200000Y-92710000D03*
G04 #@! TO.P,R7,2*
G04 #@! TO.N,Net-(P10-Pad1)*
X203200000Y-87630000D03*
G04 #@! TO.P,R7,3*
G04 #@! TO.N,Net-(P10-Pad2)*
X203200000Y-82550000D03*
G04 #@! TO.P,R7,4*
G04 #@! TO.N,/5V*
X203200000Y-77470000D03*
G04 #@! TD*
G04 #@! TO.P,R8,1*
G04 #@! TO.N,/S7*
X213360000Y-92710000D03*
G04 #@! TO.P,R8,2*
G04 #@! TO.N,Net-(P11-Pad1)*
X213360000Y-87630000D03*
G04 #@! TO.P,R8,3*
G04 #@! TO.N,Net-(P11-Pad2)*
X213360000Y-82550000D03*
G04 #@! TO.P,R8,4*
G04 #@! TO.N,/5V*
X213360000Y-77470000D03*
G04 #@! TD*
D13*
G04 #@! TO.P,U4,1*
G04 #@! TO.N,/O1*
X167513000Y-110619000D03*
G04 #@! TO.P,U4,2*
G04 #@! TO.N,/O2*
X168783000Y-110619000D03*
G04 #@! TO.P,U4,3*
G04 #@! TO.N,/O3*
X170053000Y-110619000D03*
G04 #@! TO.P,U4,4*
G04 #@! TO.N,/O4*
X171323000Y-110619000D03*
G04 #@! TO.P,U4,5*
G04 #@! TO.N,/O5*
X172593000Y-110619000D03*
G04 #@! TO.P,U4,6*
G04 #@! TO.N,/O6*
X173863000Y-110619000D03*
G04 #@! TO.P,U4,7*
G04 #@! TO.N,/O7*
X175133000Y-110619000D03*
G04 #@! TO.P,U4,8*
G04 #@! TO.N,/O8*
X176403000Y-110619000D03*
G04 #@! TO.P,U4,9*
G04 #@! TO.N,/GND*
X177673000Y-110619000D03*
G04 #@! TO.P,U4,10*
G04 #@! TO.N,/5V*
X177673000Y-101219000D03*
G04 #@! TO.P,U4,11*
G04 #@! TO.N,/S7*
X176403000Y-101219000D03*
G04 #@! TO.P,U4,12*
G04 #@! TO.N,/S6*
X175133000Y-101219000D03*
G04 #@! TO.P,U4,13*
G04 #@! TO.N,/S5*
X173863000Y-101219000D03*
G04 #@! TO.P,U4,14*
G04 #@! TO.N,/S4*
X172593000Y-101219000D03*
G04 #@! TO.P,U4,15*
G04 #@! TO.N,/S3*
X171323000Y-101219000D03*
G04 #@! TO.P,U4,16*
G04 #@! TO.N,/S2*
X170053000Y-101219000D03*
G04 #@! TO.P,U4,17*
G04 #@! TO.N,/S1*
X168783000Y-101219000D03*
G04 #@! TO.P,U4,18*
G04 #@! TO.N,/S0*
X167513000Y-101219000D03*
G04 #@! TD*
D14*
G04 #@! TO.P,U3,1*
G04 #@! TO.N,/O7*
X175133000Y-114433000D03*
G04 #@! TO.P,U3,2*
G04 #@! TO.N,/O6*
X173863000Y-114433000D03*
G04 #@! TO.P,U3,3*
G04 #@! TO.N,/O5*
X172593000Y-114433000D03*
G04 #@! TO.P,U3,4*
G04 #@! TO.N,/O4*
X171323000Y-114433000D03*
G04 #@! TO.P,U3,5*
G04 #@! TO.N,/O3*
X170053000Y-114433000D03*
G04 #@! TO.P,U3,6*
G04 #@! TO.N,/O2*
X168783000Y-114433000D03*
G04 #@! TO.P,U3,7*
G04 #@! TO.N,/O1*
X167513000Y-114433000D03*
G04 #@! TO.P,U3,8*
G04 #@! TO.N,/GND*
X166243000Y-114433000D03*
G04 #@! TO.P,U3,9*
G04 #@! TO.N,N/C*
X166243000Y-121533000D03*
G04 #@! TO.P,U3,10*
G04 #@! TO.N,/RCLK*
X167513000Y-121533000D03*
G04 #@! TO.P,U3,11*
G04 #@! TO.N,/SRCLK*
X168783000Y-121533000D03*
G04 #@! TO.P,U3,12*
G04 #@! TO.N,/3V3*
X170053000Y-121533000D03*
G04 #@! TO.P,U3,13*
G04 #@! TO.N,/GND*
X171323000Y-121533000D03*
G04 #@! TO.P,U3,14*
G04 #@! TO.N,/SER*
X172593000Y-121533000D03*
G04 #@! TO.P,U3,15*
G04 #@! TO.N,/O8*
X173863000Y-121533000D03*
G04 #@! TO.P,U3,16*
G04 #@! TO.N,/3V3*
X175133000Y-121533000D03*
G04 #@! TD*
D15*
G04 #@! TO.P,J1,1*
G04 #@! TO.N,/5V*
X192630000Y-105930000D03*
D16*
G04 #@! TO.P,J1,2*
G04 #@! TO.N,/SER*
X192630000Y-108470000D03*
G04 #@! TO.P,J1,3*
G04 #@! TO.N,/SRCLK*
X190090000Y-105930000D03*
G04 #@! TO.P,J1,4*
G04 #@! TO.N,/RCLK*
X190090000Y-108470000D03*
G04 #@! TO.P,J1,5*
G04 #@! TO.N,/3V3*
X187550000Y-105930000D03*
G04 #@! TO.P,J1,6*
G04 #@! TO.N,/GND*
X187550000Y-108470000D03*
G04 #@! TD*
D17*
G04 #@! TO.N,/SRCLK*
X168783000Y-117855988D03*
G04 #@! TO.N,/RCLK*
X167640000Y-120142000D03*
G04 #@! TO.N,/SER*
X172593000Y-119888000D03*
G04 #@! TD*
D18*
G04 #@! TO.N,/3V3*
X170053000Y-122533000D02*
X170053000Y-121533000D01*
X175133000Y-121533000D02*
X175133000Y-122555000D01*
X175133000Y-122555000D02*
X174498000Y-123190000D01*
X174498000Y-123190000D02*
X170710000Y-123190000D01*
X170710000Y-123190000D02*
X170053000Y-122533000D01*
X175133000Y-119380000D02*
X175133000Y-121533000D01*
X187550000Y-106963000D02*
X187218001Y-107294999D01*
X186374999Y-108138001D02*
X175133000Y-119380000D01*
X187550000Y-105930000D02*
X187550000Y-106963000D01*
X186374999Y-107905999D02*
X186374999Y-108138001D01*
X187218001Y-107294999D02*
X186985999Y-107294999D01*
X186985999Y-107294999D02*
X186374999Y-107905999D01*
G04 #@! TO.N,/SRCLK*
X168783000Y-121533000D02*
X168783000Y-117855988D01*
G04 #@! TO.N,/RCLK*
X167513000Y-121533000D02*
X167513000Y-120269000D01*
X167513000Y-120269000D02*
X167640000Y-120142000D01*
G04 #@! TO.N,/SER*
X172593000Y-121533000D02*
X172593000Y-119888000D01*
G04 #@! TO.N,/S0*
X150749000Y-101219000D02*
X142240000Y-92710000D01*
X167513000Y-101219000D02*
X150749000Y-101219000D01*
G04 #@! TO.N,/S1*
X152400000Y-92964000D02*
X152400000Y-92710000D01*
X156591000Y-97155000D02*
X152400000Y-92964000D01*
X168783000Y-101219000D02*
X168783000Y-98806000D01*
X167132000Y-97155000D02*
X156591000Y-97155000D01*
X168783000Y-98806000D02*
X167132000Y-97155000D01*
G04 #@! TO.N,/S2*
X162560000Y-92710000D02*
X164338000Y-92710000D01*
X170053000Y-98425000D02*
X170053000Y-101219000D01*
X164338000Y-92710000D02*
X170053000Y-98425000D01*
G04 #@! TO.N,/S3*
X171323000Y-94107000D02*
X171323000Y-101219000D01*
X172720000Y-92710000D02*
X171323000Y-94107000D01*
G04 #@! TO.N,/S4*
X172593000Y-101219000D02*
X172593000Y-99969000D01*
X179852000Y-92710000D02*
X182880000Y-92710000D01*
X172593000Y-99969000D02*
X179852000Y-92710000D01*
G04 #@! TO.N,/S5*
X188976000Y-96774000D02*
X193040000Y-92710000D01*
X177058000Y-96774000D02*
X188976000Y-96774000D01*
X173863000Y-101219000D02*
X173863000Y-99969000D01*
X173863000Y-99969000D02*
X177058000Y-96774000D01*
G04 #@! TO.N,/S6*
X198374000Y-97790000D02*
X203200000Y-92964000D01*
X177165000Y-97790000D02*
X198374000Y-97790000D01*
X175133000Y-101219000D02*
X175133000Y-99822000D01*
X203200000Y-92964000D02*
X203200000Y-92710000D01*
X175133000Y-99822000D02*
X177165000Y-97790000D01*
G04 #@! TO.N,/S7*
X213360000Y-92964000D02*
X213360000Y-92710000D01*
X207518000Y-98806000D02*
X213360000Y-92964000D01*
X177419000Y-98806000D02*
X207518000Y-98806000D01*
X176403000Y-101219000D02*
X176403000Y-99822000D01*
X176403000Y-99822000D02*
X177419000Y-98806000D01*
G04 #@! TO.N,/5V*
X142240000Y-77470000D02*
X152400000Y-77470000D01*
X153477630Y-77470000D02*
X162560000Y-77470000D01*
X152400000Y-77470000D02*
X153477630Y-77470000D01*
X163637630Y-77470000D02*
X172720000Y-77470000D01*
X162560000Y-77470000D02*
X163637630Y-77470000D01*
X173797630Y-77470000D02*
X182880000Y-77470000D01*
X172720000Y-77470000D02*
X173797630Y-77470000D01*
X183957630Y-77470000D02*
X193040000Y-77470000D01*
X182880000Y-77470000D02*
X183957630Y-77470000D01*
X193040000Y-77470000D02*
X203200000Y-77470000D01*
X203200000Y-77470000D02*
X213360000Y-77470000D01*
X178223000Y-101219000D02*
X177673000Y-101219000D01*
X192630000Y-105930000D02*
X192630000Y-101219000D01*
X192630000Y-101219000D02*
X178223000Y-101219000D01*
X208915000Y-101219000D02*
X192630000Y-101219000D01*
X216154000Y-93980000D02*
X208915000Y-101219000D01*
X213360000Y-77470000D02*
X216154000Y-80264000D01*
X216154000Y-80264000D02*
X216154000Y-93980000D01*
G04 #@! TO.N,/O7*
X175133000Y-114433000D02*
X175133000Y-110619000D01*
G04 #@! TO.N,/O6*
X173863000Y-111869000D02*
X173863000Y-114433000D01*
X173863000Y-110619000D02*
X173863000Y-111869000D01*
G04 #@! TO.N,/O5*
X172593000Y-111869000D02*
X172593000Y-114433000D01*
X172593000Y-110619000D02*
X172593000Y-111869000D01*
G04 #@! TO.N,/O4*
X171323000Y-111869000D02*
X171323000Y-114433000D01*
X171323000Y-110619000D02*
X171323000Y-111869000D01*
G04 #@! TO.N,/O3*
X170053000Y-113433000D02*
X170053000Y-110619000D01*
X170053000Y-114433000D02*
X170053000Y-113433000D01*
G04 #@! TO.N,/O2*
X168783000Y-113433000D02*
X168783000Y-110619000D01*
X168783000Y-114433000D02*
X168783000Y-113433000D01*
G04 #@! TO.N,/O1*
X167513000Y-113433000D02*
X167513000Y-110619000D01*
X167513000Y-114433000D02*
X167513000Y-113433000D01*
G04 #@! TO.N,/O8*
X176403000Y-110619000D02*
X176403000Y-116332000D01*
X173863000Y-118872000D02*
X173863000Y-121533000D01*
X176403000Y-116332000D02*
X173863000Y-118872000D01*
G04 #@! TD*
D19*
G04 #@! TO.N,/GND*
G36*
X150158671Y-101703473D02*
X150201071Y-101766929D01*
X150452463Y-101934904D01*
X150674148Y-101979000D01*
X150674152Y-101979000D01*
X150748999Y-101993888D01*
X150823846Y-101979000D01*
X166565560Y-101979000D01*
X166565560Y-102219000D01*
X166614843Y-102466765D01*
X166755191Y-102676809D01*
X166965235Y-102817157D01*
X167213000Y-102866440D01*
X167813000Y-102866440D01*
X168060765Y-102817157D01*
X168148000Y-102758868D01*
X168235235Y-102817157D01*
X168483000Y-102866440D01*
X169083000Y-102866440D01*
X169330765Y-102817157D01*
X169418000Y-102758868D01*
X169505235Y-102817157D01*
X169753000Y-102866440D01*
X170353000Y-102866440D01*
X170600765Y-102817157D01*
X170688000Y-102758868D01*
X170775235Y-102817157D01*
X171023000Y-102866440D01*
X171623000Y-102866440D01*
X171870765Y-102817157D01*
X171958000Y-102758868D01*
X172045235Y-102817157D01*
X172293000Y-102866440D01*
X172893000Y-102866440D01*
X173140765Y-102817157D01*
X173228000Y-102758868D01*
X173315235Y-102817157D01*
X173563000Y-102866440D01*
X174163000Y-102866440D01*
X174410765Y-102817157D01*
X174498000Y-102758868D01*
X174585235Y-102817157D01*
X174833000Y-102866440D01*
X175433000Y-102866440D01*
X175680765Y-102817157D01*
X175768000Y-102758868D01*
X175855235Y-102817157D01*
X176103000Y-102866440D01*
X176703000Y-102866440D01*
X176950765Y-102817157D01*
X177038000Y-102758868D01*
X177125235Y-102817157D01*
X177373000Y-102866440D01*
X177973000Y-102866440D01*
X178220765Y-102817157D01*
X178430809Y-102676809D01*
X178571157Y-102466765D01*
X178620440Y-102219000D01*
X178620440Y-101979000D01*
X191870001Y-101979000D01*
X191870000Y-104432560D01*
X191780000Y-104432560D01*
X191532235Y-104481843D01*
X191322191Y-104622191D01*
X191181843Y-104832235D01*
X191172816Y-104877619D01*
X191160625Y-104859375D01*
X190669418Y-104531161D01*
X190236256Y-104445000D01*
X189943744Y-104445000D01*
X189510582Y-104531161D01*
X189019375Y-104859375D01*
X188820000Y-105157761D01*
X188620625Y-104859375D01*
X188129418Y-104531161D01*
X187696256Y-104445000D01*
X187403744Y-104445000D01*
X186970582Y-104531161D01*
X186479375Y-104859375D01*
X186151161Y-105350582D01*
X186035908Y-105930000D01*
X186151161Y-106509418D01*
X186369704Y-106836491D01*
X185890528Y-107315669D01*
X185827070Y-107358070D01*
X185659095Y-107609463D01*
X185616973Y-107821224D01*
X177165994Y-116272205D01*
X177163000Y-116257154D01*
X177163000Y-112219334D01*
X177246690Y-112254000D01*
X177387250Y-112254000D01*
X177546000Y-112095250D01*
X177546000Y-110746000D01*
X177800000Y-110746000D01*
X177800000Y-112095250D01*
X177958750Y-112254000D01*
X178099310Y-112254000D01*
X178332699Y-112157327D01*
X178511327Y-111978698D01*
X178608000Y-111745309D01*
X178608000Y-110904750D01*
X178449250Y-110746000D01*
X177800000Y-110746000D01*
X177546000Y-110746000D01*
X177526000Y-110746000D01*
X177526000Y-110492000D01*
X177546000Y-110492000D01*
X177546000Y-109142750D01*
X177800000Y-109142750D01*
X177800000Y-110492000D01*
X178449250Y-110492000D01*
X178608000Y-110333250D01*
X178608000Y-109492691D01*
X178511327Y-109259302D01*
X178332699Y-109080673D01*
X178099310Y-108984000D01*
X177958750Y-108984000D01*
X177800000Y-109142750D01*
X177546000Y-109142750D01*
X177387250Y-108984000D01*
X177246690Y-108984000D01*
X177029972Y-109073768D01*
X176950765Y-109020843D01*
X176703000Y-108971560D01*
X176103000Y-108971560D01*
X175855235Y-109020843D01*
X175768000Y-109079132D01*
X175680765Y-109020843D01*
X175433000Y-108971560D01*
X174833000Y-108971560D01*
X174585235Y-109020843D01*
X174498000Y-109079132D01*
X174410765Y-109020843D01*
X174163000Y-108971560D01*
X173563000Y-108971560D01*
X173315235Y-109020843D01*
X173228000Y-109079132D01*
X173140765Y-109020843D01*
X172893000Y-108971560D01*
X172293000Y-108971560D01*
X172045235Y-109020843D01*
X171958000Y-109079132D01*
X171870765Y-109020843D01*
X171623000Y-108971560D01*
X171023000Y-108971560D01*
X170775235Y-109020843D01*
X170688000Y-109079132D01*
X170600765Y-109020843D01*
X170353000Y-108971560D01*
X169753000Y-108971560D01*
X169505235Y-109020843D01*
X169418000Y-109079132D01*
X169330765Y-109020843D01*
X169083000Y-108971560D01*
X168483000Y-108971560D01*
X168235235Y-109020843D01*
X168148000Y-109079132D01*
X168060765Y-109020843D01*
X167813000Y-108971560D01*
X167213000Y-108971560D01*
X166965235Y-109020843D01*
X166755191Y-109161191D01*
X166614843Y-109371235D01*
X166565560Y-109619000D01*
X166565560Y-111619000D01*
X166614843Y-111866765D01*
X166753000Y-112073531D01*
X166753000Y-113082666D01*
X166669310Y-113048000D01*
X166528750Y-113048000D01*
X166370000Y-113206750D01*
X166370000Y-114306000D01*
X166390000Y-114306000D01*
X166390000Y-114560000D01*
X166370000Y-114560000D01*
X166370000Y-115659250D01*
X166528750Y-115818000D01*
X166669310Y-115818000D01*
X166886028Y-115728232D01*
X166965235Y-115781157D01*
X167213000Y-115830440D01*
X167813000Y-115830440D01*
X168060765Y-115781157D01*
X168148000Y-115722868D01*
X168235235Y-115781157D01*
X168483000Y-115830440D01*
X169083000Y-115830440D01*
X169330765Y-115781157D01*
X169418000Y-115722868D01*
X169505235Y-115781157D01*
X169753000Y-115830440D01*
X170353000Y-115830440D01*
X170600765Y-115781157D01*
X170688000Y-115722868D01*
X170775235Y-115781157D01*
X171023000Y-115830440D01*
X171623000Y-115830440D01*
X171870765Y-115781157D01*
X171958000Y-115722868D01*
X172045235Y-115781157D01*
X172293000Y-115830440D01*
X172893000Y-115830440D01*
X173140765Y-115781157D01*
X173228000Y-115722868D01*
X173315235Y-115781157D01*
X173563000Y-115830440D01*
X174163000Y-115830440D01*
X174410765Y-115781157D01*
X174498000Y-115722868D01*
X174585235Y-115781157D01*
X174833000Y-115830440D01*
X175433000Y-115830440D01*
X175643001Y-115788669D01*
X175643001Y-116017196D01*
X173378530Y-118281669D01*
X173315071Y-118324071D01*
X173147096Y-118575464D01*
X173103000Y-118797149D01*
X173103000Y-118797153D01*
X173088112Y-118872000D01*
X173103000Y-118946847D01*
X173103000Y-119087212D01*
X172778983Y-118953000D01*
X172407017Y-118953000D01*
X172063365Y-119095345D01*
X171800345Y-119358365D01*
X171658000Y-119702017D01*
X171658000Y-120073983D01*
X171688659Y-120148000D01*
X171608750Y-120148000D01*
X171450000Y-120306750D01*
X171450000Y-121406000D01*
X171470000Y-121406000D01*
X171470000Y-121660000D01*
X171450000Y-121660000D01*
X171450000Y-121680000D01*
X171196000Y-121680000D01*
X171196000Y-121660000D01*
X171176000Y-121660000D01*
X171176000Y-121406000D01*
X171196000Y-121406000D01*
X171196000Y-120306750D01*
X171037250Y-120148000D01*
X170896690Y-120148000D01*
X170679972Y-120237768D01*
X170600765Y-120184843D01*
X170353000Y-120135560D01*
X169753000Y-120135560D01*
X169543000Y-120177331D01*
X169543000Y-118418278D01*
X169575655Y-118385623D01*
X169718000Y-118041971D01*
X169718000Y-117670005D01*
X169575655Y-117326353D01*
X169312635Y-117063333D01*
X168968983Y-116920988D01*
X168597017Y-116920988D01*
X168253365Y-117063333D01*
X167990345Y-117326353D01*
X167848000Y-117670005D01*
X167848000Y-118041971D01*
X167990345Y-118385623D01*
X168023001Y-118418279D01*
X168023001Y-119288607D01*
X167825983Y-119207000D01*
X167454017Y-119207000D01*
X167110365Y-119349345D01*
X166847345Y-119612365D01*
X166705000Y-119956017D01*
X166705000Y-120167783D01*
X166543000Y-120135560D01*
X165943000Y-120135560D01*
X165695235Y-120184843D01*
X165485191Y-120325191D01*
X165344843Y-120535235D01*
X165295560Y-120783000D01*
X165295560Y-122283000D01*
X165344843Y-122530765D01*
X165485191Y-122740809D01*
X165695235Y-122881157D01*
X165943000Y-122930440D01*
X166543000Y-122930440D01*
X166790765Y-122881157D01*
X166878000Y-122822868D01*
X166965235Y-122881157D01*
X167213000Y-122930440D01*
X167813000Y-122930440D01*
X168060765Y-122881157D01*
X168148000Y-122822868D01*
X168235235Y-122881157D01*
X168483000Y-122930440D01*
X169083000Y-122930440D01*
X169330765Y-122881157D01*
X169358988Y-122862299D01*
X169505071Y-123080929D01*
X169568529Y-123123330D01*
X170119672Y-123674475D01*
X170162071Y-123737929D01*
X170225524Y-123780327D01*
X170225526Y-123780329D01*
X170350902Y-123864102D01*
X170413463Y-123905904D01*
X170635148Y-123950000D01*
X170635152Y-123950000D01*
X170709999Y-123964888D01*
X170784846Y-123950000D01*
X174423153Y-123950000D01*
X174498000Y-123964888D01*
X174572847Y-123950000D01*
X174572852Y-123950000D01*
X174794537Y-123905904D01*
X175045929Y-123737929D01*
X175088331Y-123674470D01*
X175617473Y-123145329D01*
X175680929Y-123102929D01*
X175848904Y-122851537D01*
X175867882Y-122756128D01*
X175890809Y-122740809D01*
X176031157Y-122530765D01*
X176080440Y-122283000D01*
X176080440Y-120783000D01*
X176031157Y-120535235D01*
X175893000Y-120328470D01*
X175893000Y-119694801D01*
X186316991Y-109270812D01*
X186354817Y-109351358D01*
X186783076Y-109741645D01*
X187193110Y-109911476D01*
X187423000Y-109790155D01*
X187423000Y-108597000D01*
X187403000Y-108597000D01*
X187403000Y-108343000D01*
X187423000Y-108343000D01*
X187423000Y-108323000D01*
X187677000Y-108323000D01*
X187677000Y-108343000D01*
X187697000Y-108343000D01*
X187697000Y-108597000D01*
X187677000Y-108597000D01*
X187677000Y-109790155D01*
X187906890Y-109911476D01*
X188316924Y-109741645D01*
X188745183Y-109351358D01*
X188806157Y-109221522D01*
X189019375Y-109540625D01*
X189510582Y-109868839D01*
X189943744Y-109955000D01*
X190236256Y-109955000D01*
X190669418Y-109868839D01*
X191160625Y-109540625D01*
X191360000Y-109242239D01*
X191559375Y-109540625D01*
X192050582Y-109868839D01*
X192483744Y-109955000D01*
X192776256Y-109955000D01*
X193209418Y-109868839D01*
X193700625Y-109540625D01*
X194028839Y-109049418D01*
X194144092Y-108470000D01*
X194028839Y-107890582D01*
X193700625Y-107399375D01*
X193682381Y-107387184D01*
X193727765Y-107378157D01*
X193937809Y-107237809D01*
X194078157Y-107027765D01*
X194127440Y-106780000D01*
X194127440Y-105080000D01*
X194078157Y-104832235D01*
X193937809Y-104622191D01*
X193727765Y-104481843D01*
X193480000Y-104432560D01*
X193390000Y-104432560D01*
X193390000Y-101979000D01*
X208840153Y-101979000D01*
X208915000Y-101993888D01*
X208989847Y-101979000D01*
X208989852Y-101979000D01*
X209211537Y-101934904D01*
X209462929Y-101766929D01*
X209505331Y-101703470D01*
X214815802Y-96393000D01*
X219000001Y-96393000D01*
X219000001Y-125020000D01*
X139140000Y-125020000D01*
X139140000Y-114718750D01*
X165308000Y-114718750D01*
X165308000Y-115309309D01*
X165404673Y-115542698D01*
X165583301Y-115721327D01*
X165816690Y-115818000D01*
X165957250Y-115818000D01*
X166116000Y-115659250D01*
X166116000Y-114560000D01*
X165466750Y-114560000D01*
X165308000Y-114718750D01*
X139140000Y-114718750D01*
X139140000Y-113556691D01*
X165308000Y-113556691D01*
X165308000Y-114147250D01*
X165466750Y-114306000D01*
X166116000Y-114306000D01*
X166116000Y-113206750D01*
X165957250Y-113048000D01*
X165816690Y-113048000D01*
X165583301Y-113144673D01*
X165404673Y-113323302D01*
X165308000Y-113556691D01*
X139140000Y-113556691D01*
X139140000Y-96393000D01*
X144848199Y-96393000D01*
X150158671Y-101703473D01*
X150158671Y-101703473D01*
G37*
X150158671Y-101703473D02*
X150201071Y-101766929D01*
X150452463Y-101934904D01*
X150674148Y-101979000D01*
X150674152Y-101979000D01*
X150748999Y-101993888D01*
X150823846Y-101979000D01*
X166565560Y-101979000D01*
X166565560Y-102219000D01*
X166614843Y-102466765D01*
X166755191Y-102676809D01*
X166965235Y-102817157D01*
X167213000Y-102866440D01*
X167813000Y-102866440D01*
X168060765Y-102817157D01*
X168148000Y-102758868D01*
X168235235Y-102817157D01*
X168483000Y-102866440D01*
X169083000Y-102866440D01*
X169330765Y-102817157D01*
X169418000Y-102758868D01*
X169505235Y-102817157D01*
X169753000Y-102866440D01*
X170353000Y-102866440D01*
X170600765Y-102817157D01*
X170688000Y-102758868D01*
X170775235Y-102817157D01*
X171023000Y-102866440D01*
X171623000Y-102866440D01*
X171870765Y-102817157D01*
X171958000Y-102758868D01*
X172045235Y-102817157D01*
X172293000Y-102866440D01*
X172893000Y-102866440D01*
X173140765Y-102817157D01*
X173228000Y-102758868D01*
X173315235Y-102817157D01*
X173563000Y-102866440D01*
X174163000Y-102866440D01*
X174410765Y-102817157D01*
X174498000Y-102758868D01*
X174585235Y-102817157D01*
X174833000Y-102866440D01*
X175433000Y-102866440D01*
X175680765Y-102817157D01*
X175768000Y-102758868D01*
X175855235Y-102817157D01*
X176103000Y-102866440D01*
X176703000Y-102866440D01*
X176950765Y-102817157D01*
X177038000Y-102758868D01*
X177125235Y-102817157D01*
X177373000Y-102866440D01*
X177973000Y-102866440D01*
X178220765Y-102817157D01*
X178430809Y-102676809D01*
X178571157Y-102466765D01*
X178620440Y-102219000D01*
X178620440Y-101979000D01*
X191870001Y-101979000D01*
X191870000Y-104432560D01*
X191780000Y-104432560D01*
X191532235Y-104481843D01*
X191322191Y-104622191D01*
X191181843Y-104832235D01*
X191172816Y-104877619D01*
X191160625Y-104859375D01*
X190669418Y-104531161D01*
X190236256Y-104445000D01*
X189943744Y-104445000D01*
X189510582Y-104531161D01*
X189019375Y-104859375D01*
X188820000Y-105157761D01*
X188620625Y-104859375D01*
X188129418Y-104531161D01*
X187696256Y-104445000D01*
X187403744Y-104445000D01*
X186970582Y-104531161D01*
X186479375Y-104859375D01*
X186151161Y-105350582D01*
X186035908Y-105930000D01*
X186151161Y-106509418D01*
X186369704Y-106836491D01*
X185890528Y-107315669D01*
X185827070Y-107358070D01*
X185659095Y-107609463D01*
X185616973Y-107821224D01*
X177165994Y-116272205D01*
X177163000Y-116257154D01*
X177163000Y-112219334D01*
X177246690Y-112254000D01*
X177387250Y-112254000D01*
X177546000Y-112095250D01*
X177546000Y-110746000D01*
X177800000Y-110746000D01*
X177800000Y-112095250D01*
X177958750Y-112254000D01*
X178099310Y-112254000D01*
X178332699Y-112157327D01*
X178511327Y-111978698D01*
X178608000Y-111745309D01*
X178608000Y-110904750D01*
X178449250Y-110746000D01*
X177800000Y-110746000D01*
X177546000Y-110746000D01*
X177526000Y-110746000D01*
X177526000Y-110492000D01*
X177546000Y-110492000D01*
X177546000Y-109142750D01*
X177800000Y-109142750D01*
X177800000Y-110492000D01*
X178449250Y-110492000D01*
X178608000Y-110333250D01*
X178608000Y-109492691D01*
X178511327Y-109259302D01*
X178332699Y-109080673D01*
X178099310Y-108984000D01*
X177958750Y-108984000D01*
X177800000Y-109142750D01*
X177546000Y-109142750D01*
X177387250Y-108984000D01*
X177246690Y-108984000D01*
X177029972Y-109073768D01*
X176950765Y-109020843D01*
X176703000Y-108971560D01*
X176103000Y-108971560D01*
X175855235Y-109020843D01*
X175768000Y-109079132D01*
X175680765Y-109020843D01*
X175433000Y-108971560D01*
X174833000Y-108971560D01*
X174585235Y-109020843D01*
X174498000Y-109079132D01*
X174410765Y-109020843D01*
X174163000Y-108971560D01*
X173563000Y-108971560D01*
X173315235Y-109020843D01*
X173228000Y-109079132D01*
X173140765Y-109020843D01*
X172893000Y-108971560D01*
X172293000Y-108971560D01*
X172045235Y-109020843D01*
X171958000Y-109079132D01*
X171870765Y-109020843D01*
X171623000Y-108971560D01*
X171023000Y-108971560D01*
X170775235Y-109020843D01*
X170688000Y-109079132D01*
X170600765Y-109020843D01*
X170353000Y-108971560D01*
X169753000Y-108971560D01*
X169505235Y-109020843D01*
X169418000Y-109079132D01*
X169330765Y-109020843D01*
X169083000Y-108971560D01*
X168483000Y-108971560D01*
X168235235Y-109020843D01*
X168148000Y-109079132D01*
X168060765Y-109020843D01*
X167813000Y-108971560D01*
X167213000Y-108971560D01*
X166965235Y-109020843D01*
X166755191Y-109161191D01*
X166614843Y-109371235D01*
X166565560Y-109619000D01*
X166565560Y-111619000D01*
X166614843Y-111866765D01*
X166753000Y-112073531D01*
X166753000Y-113082666D01*
X166669310Y-113048000D01*
X166528750Y-113048000D01*
X166370000Y-113206750D01*
X166370000Y-114306000D01*
X166390000Y-114306000D01*
X166390000Y-114560000D01*
X166370000Y-114560000D01*
X166370000Y-115659250D01*
X166528750Y-115818000D01*
X166669310Y-115818000D01*
X166886028Y-115728232D01*
X166965235Y-115781157D01*
X167213000Y-115830440D01*
X167813000Y-115830440D01*
X168060765Y-115781157D01*
X168148000Y-115722868D01*
X168235235Y-115781157D01*
X168483000Y-115830440D01*
X169083000Y-115830440D01*
X169330765Y-115781157D01*
X169418000Y-115722868D01*
X169505235Y-115781157D01*
X169753000Y-115830440D01*
X170353000Y-115830440D01*
X170600765Y-115781157D01*
X170688000Y-115722868D01*
X170775235Y-115781157D01*
X171023000Y-115830440D01*
X171623000Y-115830440D01*
X171870765Y-115781157D01*
X171958000Y-115722868D01*
X172045235Y-115781157D01*
X172293000Y-115830440D01*
X172893000Y-115830440D01*
X173140765Y-115781157D01*
X173228000Y-115722868D01*
X173315235Y-115781157D01*
X173563000Y-115830440D01*
X174163000Y-115830440D01*
X174410765Y-115781157D01*
X174498000Y-115722868D01*
X174585235Y-115781157D01*
X174833000Y-115830440D01*
X175433000Y-115830440D01*
X175643001Y-115788669D01*
X175643001Y-116017196D01*
X173378530Y-118281669D01*
X173315071Y-118324071D01*
X173147096Y-118575464D01*
X173103000Y-118797149D01*
X173103000Y-118797153D01*
X173088112Y-118872000D01*
X173103000Y-118946847D01*
X173103000Y-119087212D01*
X172778983Y-118953000D01*
X172407017Y-118953000D01*
X172063365Y-119095345D01*
X171800345Y-119358365D01*
X171658000Y-119702017D01*
X171658000Y-120073983D01*
X171688659Y-120148000D01*
X171608750Y-120148000D01*
X171450000Y-120306750D01*
X171450000Y-121406000D01*
X171470000Y-121406000D01*
X171470000Y-121660000D01*
X171450000Y-121660000D01*
X171450000Y-121680000D01*
X171196000Y-121680000D01*
X171196000Y-121660000D01*
X171176000Y-121660000D01*
X171176000Y-121406000D01*
X171196000Y-121406000D01*
X171196000Y-120306750D01*
X171037250Y-120148000D01*
X170896690Y-120148000D01*
X170679972Y-120237768D01*
X170600765Y-120184843D01*
X170353000Y-120135560D01*
X169753000Y-120135560D01*
X169543000Y-120177331D01*
X169543000Y-118418278D01*
X169575655Y-118385623D01*
X169718000Y-118041971D01*
X169718000Y-117670005D01*
X169575655Y-117326353D01*
X169312635Y-117063333D01*
X168968983Y-116920988D01*
X168597017Y-116920988D01*
X168253365Y-117063333D01*
X167990345Y-117326353D01*
X167848000Y-117670005D01*
X167848000Y-118041971D01*
X167990345Y-118385623D01*
X168023001Y-118418279D01*
X168023001Y-119288607D01*
X167825983Y-119207000D01*
X167454017Y-119207000D01*
X167110365Y-119349345D01*
X166847345Y-119612365D01*
X166705000Y-119956017D01*
X166705000Y-120167783D01*
X166543000Y-120135560D01*
X165943000Y-120135560D01*
X165695235Y-120184843D01*
X165485191Y-120325191D01*
X165344843Y-120535235D01*
X165295560Y-120783000D01*
X165295560Y-122283000D01*
X165344843Y-122530765D01*
X165485191Y-122740809D01*
X165695235Y-122881157D01*
X165943000Y-122930440D01*
X166543000Y-122930440D01*
X166790765Y-122881157D01*
X166878000Y-122822868D01*
X166965235Y-122881157D01*
X167213000Y-122930440D01*
X167813000Y-122930440D01*
X168060765Y-122881157D01*
X168148000Y-122822868D01*
X168235235Y-122881157D01*
X168483000Y-122930440D01*
X169083000Y-122930440D01*
X169330765Y-122881157D01*
X169358988Y-122862299D01*
X169505071Y-123080929D01*
X169568529Y-123123330D01*
X170119672Y-123674475D01*
X170162071Y-123737929D01*
X170225524Y-123780327D01*
X170225526Y-123780329D01*
X170350902Y-123864102D01*
X170413463Y-123905904D01*
X170635148Y-123950000D01*
X170635152Y-123950000D01*
X170709999Y-123964888D01*
X170784846Y-123950000D01*
X174423153Y-123950000D01*
X174498000Y-123964888D01*
X174572847Y-123950000D01*
X174572852Y-123950000D01*
X174794537Y-123905904D01*
X175045929Y-123737929D01*
X175088331Y-123674470D01*
X175617473Y-123145329D01*
X175680929Y-123102929D01*
X175848904Y-122851537D01*
X175867882Y-122756128D01*
X175890809Y-122740809D01*
X176031157Y-122530765D01*
X176080440Y-122283000D01*
X176080440Y-120783000D01*
X176031157Y-120535235D01*
X175893000Y-120328470D01*
X175893000Y-119694801D01*
X186316991Y-109270812D01*
X186354817Y-109351358D01*
X186783076Y-109741645D01*
X187193110Y-109911476D01*
X187423000Y-109790155D01*
X187423000Y-108597000D01*
X187403000Y-108597000D01*
X187403000Y-108343000D01*
X187423000Y-108343000D01*
X187423000Y-108323000D01*
X187677000Y-108323000D01*
X187677000Y-108343000D01*
X187697000Y-108343000D01*
X187697000Y-108597000D01*
X187677000Y-108597000D01*
X187677000Y-109790155D01*
X187906890Y-109911476D01*
X188316924Y-109741645D01*
X188745183Y-109351358D01*
X188806157Y-109221522D01*
X189019375Y-109540625D01*
X189510582Y-109868839D01*
X189943744Y-109955000D01*
X190236256Y-109955000D01*
X190669418Y-109868839D01*
X191160625Y-109540625D01*
X191360000Y-109242239D01*
X191559375Y-109540625D01*
X192050582Y-109868839D01*
X192483744Y-109955000D01*
X192776256Y-109955000D01*
X193209418Y-109868839D01*
X193700625Y-109540625D01*
X194028839Y-109049418D01*
X194144092Y-108470000D01*
X194028839Y-107890582D01*
X193700625Y-107399375D01*
X193682381Y-107387184D01*
X193727765Y-107378157D01*
X193937809Y-107237809D01*
X194078157Y-107027765D01*
X194127440Y-106780000D01*
X194127440Y-105080000D01*
X194078157Y-104832235D01*
X193937809Y-104622191D01*
X193727765Y-104481843D01*
X193480000Y-104432560D01*
X193390000Y-104432560D01*
X193390000Y-101979000D01*
X208840153Y-101979000D01*
X208915000Y-101993888D01*
X208989847Y-101979000D01*
X208989852Y-101979000D01*
X209211537Y-101934904D01*
X209462929Y-101766929D01*
X209505331Y-101703470D01*
X214815802Y-96393000D01*
X219000001Y-96393000D01*
X219000001Y-125020000D01*
X139140000Y-125020000D01*
X139140000Y-114718750D01*
X165308000Y-114718750D01*
X165308000Y-115309309D01*
X165404673Y-115542698D01*
X165583301Y-115721327D01*
X165816690Y-115818000D01*
X165957250Y-115818000D01*
X166116000Y-115659250D01*
X166116000Y-114560000D01*
X165466750Y-114560000D01*
X165308000Y-114718750D01*
X139140000Y-114718750D01*
X139140000Y-113556691D01*
X165308000Y-113556691D01*
X165308000Y-114147250D01*
X165466750Y-114306000D01*
X166116000Y-114306000D01*
X166116000Y-113206750D01*
X165957250Y-113048000D01*
X165816690Y-113048000D01*
X165583301Y-113144673D01*
X165404673Y-113323302D01*
X165308000Y-113556691D01*
X139140000Y-113556691D01*
X139140000Y-96393000D01*
X144848199Y-96393000D01*
X150158671Y-101703473D01*
G04 #@! TD*
M02*
