M48
;DRILL file {KiCad 5.0.2-bee76a0~70~ubuntu18.04.1} date lun. 11 mars 2019 17:23:50 CET
;FORMAT={-:-/ absolute / metric / decimal}
FMAT,2
METRIC,TZ
T1C0.400
T2C0.762
T3C1.000
T4C1.524
%
G90
G05
T1
X167.64Y-120.142
X168.783Y-117.856
X172.593Y-119.888
T2
X213.36Y-77.47
X213.36Y-82.55
X213.36Y-87.63
X213.36Y-92.71
X193.04Y-77.47
X193.04Y-82.55
X193.04Y-87.63
X193.04Y-92.71
X152.4Y-77.47
X152.4Y-82.55
X152.4Y-87.63
X152.4Y-92.71
X142.24Y-77.47
X142.24Y-82.55
X142.24Y-87.63
X142.24Y-92.71
X162.56Y-77.47
X162.56Y-82.55
X162.56Y-87.63
X162.56Y-92.71
X172.72Y-77.47
X172.72Y-82.55
X172.72Y-87.63
X172.72Y-92.71
X203.2Y-77.47
X203.2Y-82.55
X203.2Y-87.63
X203.2Y-92.71
X182.88Y-77.47
X182.88Y-82.55
X182.88Y-87.63
X182.88Y-92.71
T3
X187.55Y-105.93
X187.55Y-108.47
X190.09Y-105.93
X190.09Y-108.47
X192.63Y-105.93
X192.63Y-108.47
T4
X140.97Y-69.85
X146.05Y-69.85
X201.93Y-69.85
X207.01Y-69.85
X181.61Y-69.85
X186.69Y-69.85
X171.45Y-69.85
X176.53Y-69.85
X151.13Y-69.85
X156.21Y-69.85
X191.77Y-69.85
X196.85Y-69.85
X161.29Y-69.85
X166.37Y-69.85
X212.09Y-69.85
X217.17Y-69.85
T0
M30
