G04 #@! TF.GenerationSoftware,KiCad,Pcbnew,5.0.2-bee76a0~70~ubuntu18.04.1*
G04 #@! TF.CreationDate,2019-03-11T17:23:52+01:00*
G04 #@! TF.ProjectId,8RelaisReed,3852656c-6169-4735-9265-65642e6b6963,rev?*
G04 #@! TF.SameCoordinates,Original*
G04 #@! TF.FileFunction,Legend,Top*
G04 #@! TF.FilePolarity,Positive*
%FSLAX46Y46*%
G04 Gerber Fmt 4.6, Leading zero omitted, Abs format (unit mm)*
G04 Created by KiCad (PCBNEW 5.0.2-bee76a0~70~ubuntu18.04.1) date lun. 11 mars 2019 17:23:52 CET*
%MOMM*%
%LPD*%
G01*
G04 APERTURE LIST*
%ADD10C,0.150000*%
%ADD11C,0.120000*%
G04 APERTURE END LIST*
D10*
G04 #@! TO.C,P4*
X138430000Y-67310000D02*
X148590000Y-67310000D01*
X138430000Y-66040000D02*
X138430000Y-73660000D01*
X138430000Y-73660000D02*
X148590000Y-73660000D01*
X148590000Y-73660000D02*
X148590000Y-66040000D01*
X148590000Y-66040000D02*
X138430000Y-66040000D01*
G04 #@! TO.C,P5*
X148590000Y-67310000D02*
X158750000Y-67310000D01*
X148590000Y-66040000D02*
X148590000Y-73660000D01*
X148590000Y-73660000D02*
X158750000Y-73660000D01*
X158750000Y-73660000D02*
X158750000Y-66040000D01*
X158750000Y-66040000D02*
X148590000Y-66040000D01*
G04 #@! TO.C,P6*
X158750000Y-67310000D02*
X168910000Y-67310000D01*
X158750000Y-66040000D02*
X158750000Y-73660000D01*
X158750000Y-73660000D02*
X168910000Y-73660000D01*
X168910000Y-73660000D02*
X168910000Y-66040000D01*
X168910000Y-66040000D02*
X158750000Y-66040000D01*
G04 #@! TO.C,P7*
X168910000Y-67310000D02*
X179070000Y-67310000D01*
X168910000Y-66040000D02*
X168910000Y-73660000D01*
X168910000Y-73660000D02*
X179070000Y-73660000D01*
X179070000Y-73660000D02*
X179070000Y-66040000D01*
X179070000Y-66040000D02*
X168910000Y-66040000D01*
G04 #@! TO.C,P8*
X179070000Y-67310000D02*
X189230000Y-67310000D01*
X179070000Y-66040000D02*
X179070000Y-73660000D01*
X179070000Y-73660000D02*
X189230000Y-73660000D01*
X189230000Y-73660000D02*
X189230000Y-66040000D01*
X189230000Y-66040000D02*
X179070000Y-66040000D01*
G04 #@! TO.C,P9*
X189230000Y-67310000D02*
X199390000Y-67310000D01*
X189230000Y-66040000D02*
X189230000Y-73660000D01*
X189230000Y-73660000D02*
X199390000Y-73660000D01*
X199390000Y-73660000D02*
X199390000Y-66040000D01*
X199390000Y-66040000D02*
X189230000Y-66040000D01*
G04 #@! TO.C,P10*
X199390000Y-67310000D02*
X209550000Y-67310000D01*
X199390000Y-66040000D02*
X199390000Y-73660000D01*
X199390000Y-73660000D02*
X209550000Y-73660000D01*
X209550000Y-73660000D02*
X209550000Y-66040000D01*
X209550000Y-66040000D02*
X199390000Y-66040000D01*
G04 #@! TO.C,P11*
X209550000Y-67310000D02*
X219710000Y-67310000D01*
X209550000Y-66040000D02*
X209550000Y-73660000D01*
X209550000Y-73660000D02*
X219710000Y-73660000D01*
X219710000Y-73660000D02*
X219710000Y-66040000D01*
X219710000Y-66040000D02*
X209550000Y-66040000D01*
G04 #@! TO.C,R1*
X139340000Y-75210000D02*
X139340000Y-93710000D01*
X139340000Y-93710000D02*
X140440000Y-95110000D01*
X140440000Y-95110000D02*
X144740000Y-95110000D01*
X144740000Y-95110000D02*
X144740000Y-75210000D01*
X144740000Y-75210000D02*
X139340000Y-75210000D01*
G04 #@! TO.C,R2*
X149500000Y-75210000D02*
X149500000Y-93710000D01*
X149500000Y-93710000D02*
X150600000Y-95110000D01*
X150600000Y-95110000D02*
X154900000Y-95110000D01*
X154900000Y-95110000D02*
X154900000Y-75210000D01*
X154900000Y-75210000D02*
X149500000Y-75210000D01*
G04 #@! TO.C,R3*
X159660000Y-75210000D02*
X159660000Y-93710000D01*
X159660000Y-93710000D02*
X160760000Y-95110000D01*
X160760000Y-95110000D02*
X165060000Y-95110000D01*
X165060000Y-95110000D02*
X165060000Y-75210000D01*
X165060000Y-75210000D02*
X159660000Y-75210000D01*
G04 #@! TO.C,R4*
X169820000Y-75210000D02*
X169820000Y-93710000D01*
X169820000Y-93710000D02*
X170920000Y-95110000D01*
X170920000Y-95110000D02*
X175220000Y-95110000D01*
X175220000Y-95110000D02*
X175220000Y-75210000D01*
X175220000Y-75210000D02*
X169820000Y-75210000D01*
G04 #@! TO.C,R5*
X179980000Y-75210000D02*
X179980000Y-93710000D01*
X179980000Y-93710000D02*
X181080000Y-95110000D01*
X181080000Y-95110000D02*
X185380000Y-95110000D01*
X185380000Y-95110000D02*
X185380000Y-75210000D01*
X185380000Y-75210000D02*
X179980000Y-75210000D01*
G04 #@! TO.C,R6*
X190140000Y-75210000D02*
X190140000Y-93710000D01*
X190140000Y-93710000D02*
X191240000Y-95110000D01*
X191240000Y-95110000D02*
X195540000Y-95110000D01*
X195540000Y-95110000D02*
X195540000Y-75210000D01*
X195540000Y-75210000D02*
X190140000Y-75210000D01*
G04 #@! TO.C,R7*
X200300000Y-75210000D02*
X200300000Y-93710000D01*
X200300000Y-93710000D02*
X201400000Y-95110000D01*
X201400000Y-95110000D02*
X205700000Y-95110000D01*
X205700000Y-95110000D02*
X205700000Y-75210000D01*
X205700000Y-75210000D02*
X200300000Y-75210000D01*
G04 #@! TO.C,R8*
X210460000Y-75210000D02*
X210460000Y-93710000D01*
X210460000Y-93710000D02*
X211560000Y-95110000D01*
X211560000Y-95110000D02*
X215860000Y-95110000D01*
X215860000Y-95110000D02*
X215860000Y-75210000D01*
X215860000Y-75210000D02*
X210460000Y-75210000D01*
G04 #@! TO.C,U4*
X166643000Y-109794000D02*
X166893000Y-109794000D01*
X166643000Y-102044000D02*
X166988000Y-102044000D01*
X178543000Y-102044000D02*
X178198000Y-102044000D01*
X178543000Y-109794000D02*
X178198000Y-109794000D01*
X166643000Y-109794000D02*
X166643000Y-102044000D01*
X178543000Y-109794000D02*
X178543000Y-102044000D01*
X166893000Y-109794000D02*
X166893000Y-111619000D01*
G04 #@! TO.C,U3*
X175963000Y-115208000D02*
X175688000Y-115208000D01*
X175963000Y-120758000D02*
X175608000Y-120758000D01*
X165413000Y-120758000D02*
X165768000Y-120758000D01*
X165413000Y-115208000D02*
X165768000Y-115208000D01*
X175963000Y-115208000D02*
X175963000Y-120758000D01*
X165413000Y-115208000D02*
X165413000Y-120758000D01*
X175688000Y-115208000D02*
X175688000Y-113683000D01*
D11*
G04 #@! TO.C,J1*
X186220000Y-104600000D02*
X186220000Y-109800000D01*
X191360000Y-104600000D02*
X186220000Y-104600000D01*
X193960000Y-109800000D02*
X186220000Y-109800000D01*
X191360000Y-104600000D02*
X191360000Y-107200000D01*
X191360000Y-107200000D02*
X193960000Y-107200000D01*
X193960000Y-107200000D02*
X193960000Y-109800000D01*
X192630000Y-104600000D02*
X193960000Y-104600000D01*
X193960000Y-104600000D02*
X193960000Y-105930000D01*
G04 #@! TO.C,P4*
D10*
X142898904Y-74874380D02*
X142898904Y-73874380D01*
X143279857Y-73874380D01*
X143375095Y-73922000D01*
X143422714Y-73969619D01*
X143470333Y-74064857D01*
X143470333Y-74207714D01*
X143422714Y-74302952D01*
X143375095Y-74350571D01*
X143279857Y-74398190D01*
X142898904Y-74398190D01*
X144327476Y-74207714D02*
X144327476Y-74874380D01*
X144089380Y-73826761D02*
X143851285Y-74541047D01*
X144470333Y-74541047D01*
G04 #@! TO.C,P5*
X152931904Y-74874380D02*
X152931904Y-73874380D01*
X153312857Y-73874380D01*
X153408095Y-73922000D01*
X153455714Y-73969619D01*
X153503333Y-74064857D01*
X153503333Y-74207714D01*
X153455714Y-74302952D01*
X153408095Y-74350571D01*
X153312857Y-74398190D01*
X152931904Y-74398190D01*
X154408095Y-73874380D02*
X153931904Y-73874380D01*
X153884285Y-74350571D01*
X153931904Y-74302952D01*
X154027142Y-74255333D01*
X154265238Y-74255333D01*
X154360476Y-74302952D01*
X154408095Y-74350571D01*
X154455714Y-74445809D01*
X154455714Y-74683904D01*
X154408095Y-74779142D01*
X154360476Y-74826761D01*
X154265238Y-74874380D01*
X154027142Y-74874380D01*
X153931904Y-74826761D01*
X153884285Y-74779142D01*
G04 #@! TO.C,P6*
X163091904Y-74747380D02*
X163091904Y-73747380D01*
X163472857Y-73747380D01*
X163568095Y-73795000D01*
X163615714Y-73842619D01*
X163663333Y-73937857D01*
X163663333Y-74080714D01*
X163615714Y-74175952D01*
X163568095Y-74223571D01*
X163472857Y-74271190D01*
X163091904Y-74271190D01*
X164520476Y-73747380D02*
X164330000Y-73747380D01*
X164234761Y-73795000D01*
X164187142Y-73842619D01*
X164091904Y-73985476D01*
X164044285Y-74175952D01*
X164044285Y-74556904D01*
X164091904Y-74652142D01*
X164139523Y-74699761D01*
X164234761Y-74747380D01*
X164425238Y-74747380D01*
X164520476Y-74699761D01*
X164568095Y-74652142D01*
X164615714Y-74556904D01*
X164615714Y-74318809D01*
X164568095Y-74223571D01*
X164520476Y-74175952D01*
X164425238Y-74128333D01*
X164234761Y-74128333D01*
X164139523Y-74175952D01*
X164091904Y-74223571D01*
X164044285Y-74318809D01*
G04 #@! TO.C,P7*
X173251904Y-74874380D02*
X173251904Y-73874380D01*
X173632857Y-73874380D01*
X173728095Y-73922000D01*
X173775714Y-73969619D01*
X173823333Y-74064857D01*
X173823333Y-74207714D01*
X173775714Y-74302952D01*
X173728095Y-74350571D01*
X173632857Y-74398190D01*
X173251904Y-74398190D01*
X174156666Y-73874380D02*
X174823333Y-73874380D01*
X174394761Y-74874380D01*
G04 #@! TO.C,P8*
X183411904Y-74874380D02*
X183411904Y-73874380D01*
X183792857Y-73874380D01*
X183888095Y-73922000D01*
X183935714Y-73969619D01*
X183983333Y-74064857D01*
X183983333Y-74207714D01*
X183935714Y-74302952D01*
X183888095Y-74350571D01*
X183792857Y-74398190D01*
X183411904Y-74398190D01*
X184554761Y-74302952D02*
X184459523Y-74255333D01*
X184411904Y-74207714D01*
X184364285Y-74112476D01*
X184364285Y-74064857D01*
X184411904Y-73969619D01*
X184459523Y-73922000D01*
X184554761Y-73874380D01*
X184745238Y-73874380D01*
X184840476Y-73922000D01*
X184888095Y-73969619D01*
X184935714Y-74064857D01*
X184935714Y-74112476D01*
X184888095Y-74207714D01*
X184840476Y-74255333D01*
X184745238Y-74302952D01*
X184554761Y-74302952D01*
X184459523Y-74350571D01*
X184411904Y-74398190D01*
X184364285Y-74493428D01*
X184364285Y-74683904D01*
X184411904Y-74779142D01*
X184459523Y-74826761D01*
X184554761Y-74874380D01*
X184745238Y-74874380D01*
X184840476Y-74826761D01*
X184888095Y-74779142D01*
X184935714Y-74683904D01*
X184935714Y-74493428D01*
X184888095Y-74398190D01*
X184840476Y-74350571D01*
X184745238Y-74302952D01*
G04 #@! TO.C,P9*
X193571904Y-74874380D02*
X193571904Y-73874380D01*
X193952857Y-73874380D01*
X194048095Y-73922000D01*
X194095714Y-73969619D01*
X194143333Y-74064857D01*
X194143333Y-74207714D01*
X194095714Y-74302952D01*
X194048095Y-74350571D01*
X193952857Y-74398190D01*
X193571904Y-74398190D01*
X194619523Y-74874380D02*
X194810000Y-74874380D01*
X194905238Y-74826761D01*
X194952857Y-74779142D01*
X195048095Y-74636285D01*
X195095714Y-74445809D01*
X195095714Y-74064857D01*
X195048095Y-73969619D01*
X195000476Y-73922000D01*
X194905238Y-73874380D01*
X194714761Y-73874380D01*
X194619523Y-73922000D01*
X194571904Y-73969619D01*
X194524285Y-74064857D01*
X194524285Y-74302952D01*
X194571904Y-74398190D01*
X194619523Y-74445809D01*
X194714761Y-74493428D01*
X194905238Y-74493428D01*
X195000476Y-74445809D01*
X195048095Y-74398190D01*
X195095714Y-74302952D01*
G04 #@! TO.C,P10*
X203255714Y-74874380D02*
X203255714Y-73874380D01*
X203636666Y-73874380D01*
X203731904Y-73922000D01*
X203779523Y-73969619D01*
X203827142Y-74064857D01*
X203827142Y-74207714D01*
X203779523Y-74302952D01*
X203731904Y-74350571D01*
X203636666Y-74398190D01*
X203255714Y-74398190D01*
X204779523Y-74874380D02*
X204208095Y-74874380D01*
X204493809Y-74874380D02*
X204493809Y-73874380D01*
X204398571Y-74017238D01*
X204303333Y-74112476D01*
X204208095Y-74160095D01*
X205398571Y-73874380D02*
X205493809Y-73874380D01*
X205589047Y-73922000D01*
X205636666Y-73969619D01*
X205684285Y-74064857D01*
X205731904Y-74255333D01*
X205731904Y-74493428D01*
X205684285Y-74683904D01*
X205636666Y-74779142D01*
X205589047Y-74826761D01*
X205493809Y-74874380D01*
X205398571Y-74874380D01*
X205303333Y-74826761D01*
X205255714Y-74779142D01*
X205208095Y-74683904D01*
X205160476Y-74493428D01*
X205160476Y-74255333D01*
X205208095Y-74064857D01*
X205255714Y-73969619D01*
X205303333Y-73922000D01*
X205398571Y-73874380D01*
G04 #@! TO.C,P11*
X213415714Y-74874380D02*
X213415714Y-73874380D01*
X213796666Y-73874380D01*
X213891904Y-73922000D01*
X213939523Y-73969619D01*
X213987142Y-74064857D01*
X213987142Y-74207714D01*
X213939523Y-74302952D01*
X213891904Y-74350571D01*
X213796666Y-74398190D01*
X213415714Y-74398190D01*
X214939523Y-74874380D02*
X214368095Y-74874380D01*
X214653809Y-74874380D02*
X214653809Y-73874380D01*
X214558571Y-74017238D01*
X214463333Y-74112476D01*
X214368095Y-74160095D01*
X215891904Y-74874380D02*
X215320476Y-74874380D01*
X215606190Y-74874380D02*
X215606190Y-73874380D01*
X215510952Y-74017238D01*
X215415714Y-74112476D01*
X215320476Y-74160095D01*
G04 #@! TO.C,R1*
X146502380Y-87796666D02*
X146026190Y-88130000D01*
X146502380Y-88368095D02*
X145502380Y-88368095D01*
X145502380Y-87987142D01*
X145550000Y-87891904D01*
X145597619Y-87844285D01*
X145692857Y-87796666D01*
X145835714Y-87796666D01*
X145930952Y-87844285D01*
X145978571Y-87891904D01*
X146026190Y-87987142D01*
X146026190Y-88368095D01*
X146502380Y-86844285D02*
X146502380Y-87415714D01*
X146502380Y-87130000D02*
X145502380Y-87130000D01*
X145645238Y-87225238D01*
X145740476Y-87320476D01*
X145788095Y-87415714D01*
G04 #@! TO.C,R2*
X156662380Y-87796666D02*
X156186190Y-88130000D01*
X156662380Y-88368095D02*
X155662380Y-88368095D01*
X155662380Y-87987142D01*
X155710000Y-87891904D01*
X155757619Y-87844285D01*
X155852857Y-87796666D01*
X155995714Y-87796666D01*
X156090952Y-87844285D01*
X156138571Y-87891904D01*
X156186190Y-87987142D01*
X156186190Y-88368095D01*
X155757619Y-87415714D02*
X155710000Y-87368095D01*
X155662380Y-87272857D01*
X155662380Y-87034761D01*
X155710000Y-86939523D01*
X155757619Y-86891904D01*
X155852857Y-86844285D01*
X155948095Y-86844285D01*
X156090952Y-86891904D01*
X156662380Y-87463333D01*
X156662380Y-86844285D01*
G04 #@! TO.C,R3*
X166822380Y-87796666D02*
X166346190Y-88130000D01*
X166822380Y-88368095D02*
X165822380Y-88368095D01*
X165822380Y-87987142D01*
X165870000Y-87891904D01*
X165917619Y-87844285D01*
X166012857Y-87796666D01*
X166155714Y-87796666D01*
X166250952Y-87844285D01*
X166298571Y-87891904D01*
X166346190Y-87987142D01*
X166346190Y-88368095D01*
X165822380Y-87463333D02*
X165822380Y-86844285D01*
X166203333Y-87177619D01*
X166203333Y-87034761D01*
X166250952Y-86939523D01*
X166298571Y-86891904D01*
X166393809Y-86844285D01*
X166631904Y-86844285D01*
X166727142Y-86891904D01*
X166774761Y-86939523D01*
X166822380Y-87034761D01*
X166822380Y-87320476D01*
X166774761Y-87415714D01*
X166727142Y-87463333D01*
G04 #@! TO.C,R4*
X176982380Y-87796666D02*
X176506190Y-88130000D01*
X176982380Y-88368095D02*
X175982380Y-88368095D01*
X175982380Y-87987142D01*
X176030000Y-87891904D01*
X176077619Y-87844285D01*
X176172857Y-87796666D01*
X176315714Y-87796666D01*
X176410952Y-87844285D01*
X176458571Y-87891904D01*
X176506190Y-87987142D01*
X176506190Y-88368095D01*
X176315714Y-86939523D02*
X176982380Y-86939523D01*
X175934761Y-87177619D02*
X176649047Y-87415714D01*
X176649047Y-86796666D01*
G04 #@! TO.C,R5*
X187142380Y-87796666D02*
X186666190Y-88130000D01*
X187142380Y-88368095D02*
X186142380Y-88368095D01*
X186142380Y-87987142D01*
X186190000Y-87891904D01*
X186237619Y-87844285D01*
X186332857Y-87796666D01*
X186475714Y-87796666D01*
X186570952Y-87844285D01*
X186618571Y-87891904D01*
X186666190Y-87987142D01*
X186666190Y-88368095D01*
X186142380Y-86891904D02*
X186142380Y-87368095D01*
X186618571Y-87415714D01*
X186570952Y-87368095D01*
X186523333Y-87272857D01*
X186523333Y-87034761D01*
X186570952Y-86939523D01*
X186618571Y-86891904D01*
X186713809Y-86844285D01*
X186951904Y-86844285D01*
X187047142Y-86891904D01*
X187094761Y-86939523D01*
X187142380Y-87034761D01*
X187142380Y-87272857D01*
X187094761Y-87368095D01*
X187047142Y-87415714D01*
G04 #@! TO.C,R6*
X197302380Y-87796666D02*
X196826190Y-88130000D01*
X197302380Y-88368095D02*
X196302380Y-88368095D01*
X196302380Y-87987142D01*
X196350000Y-87891904D01*
X196397619Y-87844285D01*
X196492857Y-87796666D01*
X196635714Y-87796666D01*
X196730952Y-87844285D01*
X196778571Y-87891904D01*
X196826190Y-87987142D01*
X196826190Y-88368095D01*
X196302380Y-86939523D02*
X196302380Y-87130000D01*
X196350000Y-87225238D01*
X196397619Y-87272857D01*
X196540476Y-87368095D01*
X196730952Y-87415714D01*
X197111904Y-87415714D01*
X197207142Y-87368095D01*
X197254761Y-87320476D01*
X197302380Y-87225238D01*
X197302380Y-87034761D01*
X197254761Y-86939523D01*
X197207142Y-86891904D01*
X197111904Y-86844285D01*
X196873809Y-86844285D01*
X196778571Y-86891904D01*
X196730952Y-86939523D01*
X196683333Y-87034761D01*
X196683333Y-87225238D01*
X196730952Y-87320476D01*
X196778571Y-87368095D01*
X196873809Y-87415714D01*
G04 #@! TO.C,R7*
X207462380Y-87796666D02*
X206986190Y-88130000D01*
X207462380Y-88368095D02*
X206462380Y-88368095D01*
X206462380Y-87987142D01*
X206510000Y-87891904D01*
X206557619Y-87844285D01*
X206652857Y-87796666D01*
X206795714Y-87796666D01*
X206890952Y-87844285D01*
X206938571Y-87891904D01*
X206986190Y-87987142D01*
X206986190Y-88368095D01*
X206462380Y-87463333D02*
X206462380Y-86796666D01*
X207462380Y-87225238D01*
G04 #@! TO.C,R8*
X217622380Y-87796666D02*
X217146190Y-88130000D01*
X217622380Y-88368095D02*
X216622380Y-88368095D01*
X216622380Y-87987142D01*
X216670000Y-87891904D01*
X216717619Y-87844285D01*
X216812857Y-87796666D01*
X216955714Y-87796666D01*
X217050952Y-87844285D01*
X217098571Y-87891904D01*
X217146190Y-87987142D01*
X217146190Y-88368095D01*
X217050952Y-87225238D02*
X217003333Y-87320476D01*
X216955714Y-87368095D01*
X216860476Y-87415714D01*
X216812857Y-87415714D01*
X216717619Y-87368095D01*
X216670000Y-87320476D01*
X216622380Y-87225238D01*
X216622380Y-87034761D01*
X216670000Y-86939523D01*
X216717619Y-86891904D01*
X216812857Y-86844285D01*
X216860476Y-86844285D01*
X216955714Y-86891904D01*
X217003333Y-86939523D01*
X217050952Y-87034761D01*
X217050952Y-87225238D01*
X217098571Y-87320476D01*
X217146190Y-87368095D01*
X217241428Y-87415714D01*
X217431904Y-87415714D01*
X217527142Y-87368095D01*
X217574761Y-87320476D01*
X217622380Y-87225238D01*
X217622380Y-87034761D01*
X217574761Y-86939523D01*
X217527142Y-86891904D01*
X217431904Y-86844285D01*
X217241428Y-86844285D01*
X217146190Y-86891904D01*
X217098571Y-86939523D01*
X217050952Y-87034761D01*
G04 #@! TO.C,U4*
X165170380Y-106680904D02*
X165979904Y-106680904D01*
X166075142Y-106633285D01*
X166122761Y-106585666D01*
X166170380Y-106490428D01*
X166170380Y-106299952D01*
X166122761Y-106204714D01*
X166075142Y-106157095D01*
X165979904Y-106109476D01*
X165170380Y-106109476D01*
X165503714Y-105204714D02*
X166170380Y-105204714D01*
X165122761Y-105442809D02*
X165837047Y-105680904D01*
X165837047Y-105061857D01*
G04 #@! TO.C,U3*
X176340380Y-118744904D02*
X177149904Y-118744904D01*
X177245142Y-118697285D01*
X177292761Y-118649666D01*
X177340380Y-118554428D01*
X177340380Y-118363952D01*
X177292761Y-118268714D01*
X177245142Y-118221095D01*
X177149904Y-118173476D01*
X176340380Y-118173476D01*
X176340380Y-117792523D02*
X176340380Y-117173476D01*
X176721333Y-117506809D01*
X176721333Y-117363952D01*
X176768952Y-117268714D01*
X176816571Y-117221095D01*
X176911809Y-117173476D01*
X177149904Y-117173476D01*
X177245142Y-117221095D01*
X177292761Y-117268714D01*
X177340380Y-117363952D01*
X177340380Y-117649666D01*
X177292761Y-117744904D01*
X177245142Y-117792523D01*
G04 #@! TO.C,J1*
X194412380Y-107533333D02*
X195126666Y-107533333D01*
X195269523Y-107580952D01*
X195364761Y-107676190D01*
X195412380Y-107819047D01*
X195412380Y-107914285D01*
X195412380Y-106533333D02*
X195412380Y-107104761D01*
X195412380Y-106819047D02*
X194412380Y-106819047D01*
X194555238Y-106914285D01*
X194650476Y-107009523D01*
X194698095Y-107104761D01*
G04 #@! TD*
M02*
