G04 #@! TF.GenerationSoftware,KiCad,Pcbnew,5.0.2-bee76a0~70~ubuntu18.04.1*
G04 #@! TF.CreationDate,2019-03-11T17:23:52+01:00*
G04 #@! TF.ProjectId,8RelaisReed,3852656c-6169-4735-9265-65642e6b6963,rev?*
G04 #@! TF.SameCoordinates,Original*
G04 #@! TF.FileFunction,Copper,L2,Bot*
G04 #@! TF.FilePolarity,Positive*
%FSLAX46Y46*%
G04 Gerber Fmt 4.6, Leading zero omitted, Abs format (unit mm)*
G04 Created by KiCad (PCBNEW 5.0.2-bee76a0~70~ubuntu18.04.1) date lun. 11 mars 2019 17:23:52 CET*
%MOMM*%
%LPD*%
G01*
G04 APERTURE LIST*
G04 #@! TA.AperFunction,ComponentPad*
%ADD10R,2.540000X2.540000*%
G04 #@! TD*
G04 #@! TA.AperFunction,ComponentPad*
%ADD11C,2.540000*%
G04 #@! TD*
G04 #@! TA.AperFunction,ComponentPad*
%ADD12C,1.524000*%
G04 #@! TD*
G04 #@! TA.AperFunction,ComponentPad*
%ADD13R,1.700000X1.700000*%
G04 #@! TD*
G04 #@! TA.AperFunction,ComponentPad*
%ADD14O,1.700000X1.700000*%
G04 #@! TD*
G04 #@! TA.AperFunction,ViaPad*
%ADD15C,0.600000*%
G04 #@! TD*
G04 #@! TA.AperFunction,Conductor*
%ADD16C,0.250000*%
G04 #@! TD*
G04 #@! TA.AperFunction,Conductor*
%ADD17C,0.500000*%
G04 #@! TD*
G04 APERTURE END LIST*
D10*
G04 #@! TO.P,P4,1*
G04 #@! TO.N,Net-(P4-Pad1)*
X146050000Y-69850000D03*
D11*
G04 #@! TO.P,P4,2*
G04 #@! TO.N,Net-(P4-Pad2)*
X140970000Y-69850000D03*
G04 #@! TD*
D10*
G04 #@! TO.P,P5,1*
G04 #@! TO.N,Net-(P5-Pad1)*
X156210000Y-69850000D03*
D11*
G04 #@! TO.P,P5,2*
G04 #@! TO.N,Net-(P5-Pad2)*
X151130000Y-69850000D03*
G04 #@! TD*
D10*
G04 #@! TO.P,P6,1*
G04 #@! TO.N,Net-(P6-Pad1)*
X166370000Y-69850000D03*
D11*
G04 #@! TO.P,P6,2*
G04 #@! TO.N,Net-(P6-Pad2)*
X161290000Y-69850000D03*
G04 #@! TD*
D10*
G04 #@! TO.P,P7,1*
G04 #@! TO.N,Net-(P7-Pad1)*
X176530000Y-69850000D03*
D11*
G04 #@! TO.P,P7,2*
G04 #@! TO.N,Net-(P7-Pad2)*
X171450000Y-69850000D03*
G04 #@! TD*
D10*
G04 #@! TO.P,P8,1*
G04 #@! TO.N,Net-(P8-Pad1)*
X186690000Y-69850000D03*
D11*
G04 #@! TO.P,P8,2*
G04 #@! TO.N,Net-(P8-Pad2)*
X181610000Y-69850000D03*
G04 #@! TD*
D10*
G04 #@! TO.P,P9,1*
G04 #@! TO.N,Net-(P9-Pad1)*
X196850000Y-69850000D03*
D11*
G04 #@! TO.P,P9,2*
G04 #@! TO.N,Net-(P9-Pad2)*
X191770000Y-69850000D03*
G04 #@! TD*
D10*
G04 #@! TO.P,P10,1*
G04 #@! TO.N,Net-(P10-Pad1)*
X207010000Y-69850000D03*
D11*
G04 #@! TO.P,P10,2*
G04 #@! TO.N,Net-(P10-Pad2)*
X201930000Y-69850000D03*
G04 #@! TD*
D10*
G04 #@! TO.P,P11,1*
G04 #@! TO.N,Net-(P11-Pad1)*
X217170000Y-69850000D03*
D11*
G04 #@! TO.P,P11,2*
G04 #@! TO.N,Net-(P11-Pad2)*
X212090000Y-69850000D03*
G04 #@! TD*
D12*
G04 #@! TO.P,R1,1*
G04 #@! TO.N,/S0*
X142240000Y-92710000D03*
G04 #@! TO.P,R1,2*
G04 #@! TO.N,Net-(P4-Pad1)*
X142240000Y-87630000D03*
G04 #@! TO.P,R1,3*
G04 #@! TO.N,Net-(P4-Pad2)*
X142240000Y-82550000D03*
G04 #@! TO.P,R1,4*
G04 #@! TO.N,/5V*
X142240000Y-77470000D03*
G04 #@! TD*
G04 #@! TO.P,R2,1*
G04 #@! TO.N,/S1*
X152400000Y-92710000D03*
G04 #@! TO.P,R2,2*
G04 #@! TO.N,Net-(P5-Pad1)*
X152400000Y-87630000D03*
G04 #@! TO.P,R2,3*
G04 #@! TO.N,Net-(P5-Pad2)*
X152400000Y-82550000D03*
G04 #@! TO.P,R2,4*
G04 #@! TO.N,/5V*
X152400000Y-77470000D03*
G04 #@! TD*
G04 #@! TO.P,R3,1*
G04 #@! TO.N,/S2*
X162560000Y-92710000D03*
G04 #@! TO.P,R3,2*
G04 #@! TO.N,Net-(P6-Pad1)*
X162560000Y-87630000D03*
G04 #@! TO.P,R3,3*
G04 #@! TO.N,Net-(P6-Pad2)*
X162560000Y-82550000D03*
G04 #@! TO.P,R3,4*
G04 #@! TO.N,/5V*
X162560000Y-77470000D03*
G04 #@! TD*
G04 #@! TO.P,R4,1*
G04 #@! TO.N,/S3*
X172720000Y-92710000D03*
G04 #@! TO.P,R4,2*
G04 #@! TO.N,Net-(P7-Pad1)*
X172720000Y-87630000D03*
G04 #@! TO.P,R4,3*
G04 #@! TO.N,Net-(P7-Pad2)*
X172720000Y-82550000D03*
G04 #@! TO.P,R4,4*
G04 #@! TO.N,/5V*
X172720000Y-77470000D03*
G04 #@! TD*
G04 #@! TO.P,R5,1*
G04 #@! TO.N,/S4*
X182880000Y-92710000D03*
G04 #@! TO.P,R5,2*
G04 #@! TO.N,Net-(P8-Pad1)*
X182880000Y-87630000D03*
G04 #@! TO.P,R5,3*
G04 #@! TO.N,Net-(P8-Pad2)*
X182880000Y-82550000D03*
G04 #@! TO.P,R5,4*
G04 #@! TO.N,/5V*
X182880000Y-77470000D03*
G04 #@! TD*
G04 #@! TO.P,R6,1*
G04 #@! TO.N,/S5*
X193040000Y-92710000D03*
G04 #@! TO.P,R6,2*
G04 #@! TO.N,Net-(P9-Pad1)*
X193040000Y-87630000D03*
G04 #@! TO.P,R6,3*
G04 #@! TO.N,Net-(P9-Pad2)*
X193040000Y-82550000D03*
G04 #@! TO.P,R6,4*
G04 #@! TO.N,/5V*
X193040000Y-77470000D03*
G04 #@! TD*
G04 #@! TO.P,R7,1*
G04 #@! TO.N,/S6*
X203200000Y-92710000D03*
G04 #@! TO.P,R7,2*
G04 #@! TO.N,Net-(P10-Pad1)*
X203200000Y-87630000D03*
G04 #@! TO.P,R7,3*
G04 #@! TO.N,Net-(P10-Pad2)*
X203200000Y-82550000D03*
G04 #@! TO.P,R7,4*
G04 #@! TO.N,/5V*
X203200000Y-77470000D03*
G04 #@! TD*
G04 #@! TO.P,R8,1*
G04 #@! TO.N,/S7*
X213360000Y-92710000D03*
G04 #@! TO.P,R8,2*
G04 #@! TO.N,Net-(P11-Pad1)*
X213360000Y-87630000D03*
G04 #@! TO.P,R8,3*
G04 #@! TO.N,Net-(P11-Pad2)*
X213360000Y-82550000D03*
G04 #@! TO.P,R8,4*
G04 #@! TO.N,/5V*
X213360000Y-77470000D03*
G04 #@! TD*
D13*
G04 #@! TO.P,J1,1*
G04 #@! TO.N,/5V*
X192630000Y-105930000D03*
D14*
G04 #@! TO.P,J1,2*
G04 #@! TO.N,/SER*
X192630000Y-108470000D03*
G04 #@! TO.P,J1,3*
G04 #@! TO.N,/SRCLK*
X190090000Y-105930000D03*
G04 #@! TO.P,J1,4*
G04 #@! TO.N,/RCLK*
X190090000Y-108470000D03*
G04 #@! TO.P,J1,5*
G04 #@! TO.N,/3V3*
X187550000Y-105930000D03*
G04 #@! TO.P,J1,6*
G04 #@! TO.N,/GND*
X187550000Y-108470000D03*
G04 #@! TD*
D15*
G04 #@! TO.N,/SRCLK*
X168783000Y-117855988D03*
G04 #@! TO.N,/RCLK*
X167640000Y-120142000D03*
G04 #@! TO.N,/SER*
X172593000Y-119888000D03*
G04 #@! TD*
D16*
G04 #@! TO.N,/SRCLK*
X190090000Y-105930000D02*
X188914999Y-104754999D01*
X188914999Y-104754999D02*
X181883989Y-104754999D01*
X169082999Y-117555989D02*
X168783000Y-117855988D01*
X181883989Y-104754999D02*
X169082999Y-117555989D01*
G04 #@! TO.N,/RCLK*
X190090000Y-113186000D02*
X190090000Y-108470000D01*
X184404000Y-118872000D02*
X190090000Y-113186000D01*
X168402000Y-118872000D02*
X184404000Y-118872000D01*
X167640000Y-120142000D02*
X167640000Y-119634000D01*
X167640000Y-119634000D02*
X168402000Y-118872000D01*
G04 #@! TO.N,/SER*
X173017264Y-119888000D02*
X172593000Y-119888000D01*
X184024410Y-119888000D02*
X173017264Y-119888000D01*
X192630000Y-111282410D02*
X184024410Y-119888000D01*
X192630000Y-108470000D02*
X192630000Y-111282410D01*
D17*
G04 #@! TO.N,Net-(P4-Pad1)*
X146050000Y-83820000D02*
X146050000Y-69850000D01*
X142240000Y-87630000D02*
X146050000Y-83820000D01*
G04 #@! TO.N,Net-(P4-Pad2)*
X140714000Y-70105900D02*
X140970000Y-69850000D01*
X140714000Y-81024100D02*
X140714000Y-70105900D01*
X142240000Y-82550000D02*
X140714000Y-81024100D01*
G04 #@! TO.N,Net-(P5-Pad1)*
X156210000Y-83820000D02*
X156210000Y-69850000D01*
X152400000Y-87630000D02*
X156210000Y-83820000D01*
G04 #@! TO.N,Net-(P5-Pad2)*
X150843000Y-70136800D02*
X151130000Y-69850000D01*
X150843000Y-80993200D02*
X150843000Y-70136800D01*
X152400000Y-82550000D02*
X150843000Y-80993200D01*
G04 #@! TO.N,Net-(P6-Pad1)*
X166370000Y-83820000D02*
X166370000Y-69850000D01*
X162560000Y-87630000D02*
X166370000Y-83820000D01*
G04 #@! TO.N,Net-(P6-Pad2)*
X161003000Y-70136800D02*
X161290000Y-69850000D01*
X161003000Y-80993200D02*
X161003000Y-70136800D01*
X162560000Y-82550000D02*
X161003000Y-80993200D01*
G04 #@! TO.N,Net-(P7-Pad1)*
X176530000Y-83820000D02*
X176530000Y-69850000D01*
X172720000Y-87630000D02*
X176530000Y-83820000D01*
G04 #@! TO.N,Net-(P7-Pad2)*
X171163000Y-70136800D02*
X171450000Y-69850000D01*
X171163000Y-80993200D02*
X171163000Y-70136800D01*
X172720000Y-82550000D02*
X171163000Y-80993200D01*
G04 #@! TO.N,Net-(P8-Pad1)*
X186690000Y-83820000D02*
X186690000Y-69850000D01*
X182880000Y-87630000D02*
X186690000Y-83820000D01*
G04 #@! TO.N,Net-(P8-Pad2)*
X181323000Y-70136800D02*
X181610000Y-69850000D01*
X181323000Y-80993200D02*
X181323000Y-70136800D01*
X182880000Y-82550000D02*
X181323000Y-80993200D01*
G04 #@! TO.N,Net-(P9-Pad1)*
X196850000Y-83820000D02*
X196850000Y-69850000D01*
X193040000Y-87630000D02*
X196850000Y-83820000D01*
G04 #@! TO.N,Net-(P9-Pad2)*
X191483000Y-70136800D02*
X191770000Y-69850000D01*
X191483000Y-80993200D02*
X191483000Y-70136800D01*
X193040000Y-82550000D02*
X191483000Y-80993200D01*
G04 #@! TO.N,Net-(P10-Pad1)*
X207010000Y-83820000D02*
X207010000Y-69850000D01*
X203200000Y-87630000D02*
X207010000Y-83820000D01*
G04 #@! TO.N,Net-(P10-Pad2)*
X201643000Y-70136800D02*
X201930000Y-69850000D01*
X201643000Y-80993200D02*
X201643000Y-70136800D01*
X203200000Y-82550000D02*
X201643000Y-80993200D01*
G04 #@! TO.N,Net-(P11-Pad1)*
X217170000Y-83820000D02*
X217170000Y-69850000D01*
X213360000Y-87630000D02*
X217170000Y-83820000D01*
G04 #@! TO.N,Net-(P11-Pad2)*
X211803000Y-70136800D02*
X212090000Y-69850000D01*
X211803000Y-80993200D02*
X211803000Y-70136800D01*
X213360000Y-82550000D02*
X211803000Y-80993200D01*
G04 #@! TD*
M02*
