M48
;DRILL file {KiCad 5.0.1-33cea8e~68~ubuntu18.04.1} date jeu. 29 nov. 2018 08:34:39 CET
;FORMAT={-:-/ absolute / inch / decimal}
FMAT,2
INCH,TZ
T1C0.0157
T2C0.0394
T3C0.0551
T4C0.0598
%
G90
G05
M72
T1
X5.375Y-4.2
X5.4Y-4.06
X5.4454Y-3.4596
X5.67Y-3.4782
X5.97Y-2.99
X6.Y-3.075
X6.03Y-4.645
X6.045Y-3.305
X6.225Y-1.9
X6.235Y-4.385
T2
X5.665Y-4.9
X5.765Y-4.9
X5.865Y-4.9
X5.965Y-4.9
T3
X6.8Y-3.2
X6.8Y-3.5
X7.3Y-3.5
X7.4Y-3.2
X6.8Y-2.3
X6.8Y-2.6
X7.3Y-2.6
X7.4Y-2.3
X6.8Y-3.65
X6.8Y-3.95
X7.3Y-3.95
X7.4Y-3.65
X6.8Y-1.85
X6.8Y-2.15
X7.3Y-2.15
X7.4Y-1.85
X6.8Y-4.55
X6.8Y-4.85
X7.3Y-4.85
X7.4Y-4.55
X6.8Y-2.75
X6.8Y-3.05
X7.3Y-3.05
X7.4Y-2.75
X6.8Y-4.1
X6.8Y-4.4
X7.3Y-4.4
X7.4Y-4.1
T4
X7.6772Y-1.9
X7.6772Y-2.1
X7.6772Y-3.7
X7.6772Y-3.9
X5.325Y-1.95
X5.525Y-1.95
X7.6772Y-4.6
X7.6772Y-4.8
X7.68Y-5.05
X7.68Y-5.25
X7.6772Y-2.8
X7.6772Y-3.
X7.6772Y-2.35
X7.6772Y-2.55
X7.6772Y-4.15
X7.6772Y-4.35
X7.6772Y-3.25
X7.6772Y-3.45
T0
M30
