G04 #@! TF.GenerationSoftware,KiCad,Pcbnew,5.0.1-33cea8e~68~ubuntu18.04.1*
G04 #@! TF.CreationDate,2018-11-29T08:35:32+01:00*
G04 #@! TF.ProjectId,7RelaysEtCommun,3752656C6179734574436F6D6D756E2E,rev?*
G04 #@! TF.SameCoordinates,Original*
G04 #@! TF.FileFunction,Soldermask,Bot*
G04 #@! TF.FilePolarity,Negative*
%FSLAX46Y46*%
G04 Gerber Fmt 4.6, Leading zero omitted, Abs format (unit mm)*
G04 Created by KiCad (PCBNEW 5.0.1-33cea8e~68~ubuntu18.04.1) date jeu. 29 nov. 2018 08:35:32 CET*
%MOMM*%
%LPD*%
G01*
G04 APERTURE LIST*
%ADD10C,0.100000*%
G04 APERTURE END LIST*
D10*
G36*
X196772000Y-135050000D02*
X193372000Y-135050000D01*
X193372000Y-131650000D01*
X196772000Y-131650000D01*
X196772000Y-135050000D01*
X196772000Y-135050000D01*
G37*
G36*
X195458393Y-126613553D02*
X195567872Y-126635330D01*
X195877252Y-126763479D01*
X196155687Y-126949523D01*
X196392477Y-127186313D01*
X196578521Y-127464748D01*
X196706670Y-127774128D01*
X196772000Y-128102565D01*
X196772000Y-128437435D01*
X196706670Y-128765872D01*
X196578521Y-129075252D01*
X196392477Y-129353687D01*
X196155687Y-129590477D01*
X195877252Y-129776521D01*
X195567872Y-129904670D01*
X195458393Y-129926447D01*
X195239437Y-129970000D01*
X194904563Y-129970000D01*
X194685607Y-129926447D01*
X194576128Y-129904670D01*
X194266748Y-129776521D01*
X193988313Y-129590477D01*
X193751523Y-129353687D01*
X193565479Y-129075252D01*
X193437330Y-128765872D01*
X193372000Y-128437435D01*
X193372000Y-128102565D01*
X193437330Y-127774128D01*
X193565479Y-127464748D01*
X193751523Y-127186313D01*
X193988313Y-126949523D01*
X194266748Y-126763479D01*
X194576128Y-126635330D01*
X194685607Y-126613553D01*
X194904563Y-126570000D01*
X195239437Y-126570000D01*
X195458393Y-126613553D01*
X195458393Y-126613553D01*
G37*
G36*
X151639707Y-123417596D02*
X151716836Y-123425193D01*
X151848787Y-123465220D01*
X151914763Y-123485233D01*
X152097172Y-123582733D01*
X152257054Y-123713946D01*
X152388267Y-123873828D01*
X152485767Y-124056237D01*
X152485767Y-124056238D01*
X152545807Y-124254164D01*
X152566080Y-124460000D01*
X152545807Y-124665836D01*
X152505780Y-124797787D01*
X152485767Y-124863763D01*
X152388267Y-125046172D01*
X152257054Y-125206054D01*
X152097172Y-125337267D01*
X151914763Y-125434767D01*
X151848787Y-125454780D01*
X151716836Y-125494807D01*
X151639707Y-125502403D01*
X151562580Y-125510000D01*
X151459420Y-125510000D01*
X151382293Y-125502403D01*
X151305164Y-125494807D01*
X151173213Y-125454780D01*
X151107237Y-125434767D01*
X150924828Y-125337267D01*
X150764946Y-125206054D01*
X150633733Y-125046172D01*
X150536233Y-124863763D01*
X150516220Y-124797787D01*
X150476193Y-124665836D01*
X150455920Y-124460000D01*
X150476193Y-124254164D01*
X150536233Y-124056238D01*
X150536233Y-124056237D01*
X150633733Y-123873828D01*
X150764946Y-123713946D01*
X150924828Y-123582733D01*
X151107237Y-123485233D01*
X151173213Y-123465220D01*
X151305164Y-123425193D01*
X151382293Y-123417596D01*
X151459420Y-123410000D01*
X151562580Y-123410000D01*
X151639707Y-123417596D01*
X151639707Y-123417596D01*
G37*
G36*
X149099707Y-123417596D02*
X149176836Y-123425193D01*
X149308787Y-123465220D01*
X149374763Y-123485233D01*
X149557172Y-123582733D01*
X149717054Y-123713946D01*
X149848267Y-123873828D01*
X149945767Y-124056237D01*
X149945767Y-124056238D01*
X150005807Y-124254164D01*
X150026080Y-124460000D01*
X150005807Y-124665836D01*
X149965780Y-124797787D01*
X149945767Y-124863763D01*
X149848267Y-125046172D01*
X149717054Y-125206054D01*
X149557172Y-125337267D01*
X149374763Y-125434767D01*
X149308787Y-125454780D01*
X149176836Y-125494807D01*
X149099707Y-125502403D01*
X149022580Y-125510000D01*
X148919420Y-125510000D01*
X148842293Y-125502403D01*
X148765164Y-125494807D01*
X148633213Y-125454780D01*
X148567237Y-125434767D01*
X148384828Y-125337267D01*
X148224946Y-125206054D01*
X148093733Y-125046172D01*
X147996233Y-124863763D01*
X147976220Y-124797787D01*
X147936193Y-124665836D01*
X147915920Y-124460000D01*
X147936193Y-124254164D01*
X147996233Y-124056238D01*
X147996233Y-124056237D01*
X148093733Y-123873828D01*
X148224946Y-123713946D01*
X148384828Y-123582733D01*
X148567237Y-123485233D01*
X148633213Y-123465220D01*
X148765164Y-123425193D01*
X148842293Y-123417596D01*
X148919420Y-123410000D01*
X149022580Y-123410000D01*
X149099707Y-123417596D01*
X149099707Y-123417596D01*
G37*
G36*
X146559707Y-123417596D02*
X146636836Y-123425193D01*
X146768787Y-123465220D01*
X146834763Y-123485233D01*
X147017172Y-123582733D01*
X147177054Y-123713946D01*
X147308267Y-123873828D01*
X147405767Y-124056237D01*
X147405767Y-124056238D01*
X147465807Y-124254164D01*
X147486080Y-124460000D01*
X147465807Y-124665836D01*
X147425780Y-124797787D01*
X147405767Y-124863763D01*
X147308267Y-125046172D01*
X147177054Y-125206054D01*
X147017172Y-125337267D01*
X146834763Y-125434767D01*
X146768787Y-125454780D01*
X146636836Y-125494807D01*
X146559707Y-125502403D01*
X146482580Y-125510000D01*
X146379420Y-125510000D01*
X146302293Y-125502403D01*
X146225164Y-125494807D01*
X146093213Y-125454780D01*
X146027237Y-125434767D01*
X145844828Y-125337267D01*
X145684946Y-125206054D01*
X145553733Y-125046172D01*
X145456233Y-124863763D01*
X145436220Y-124797787D01*
X145396193Y-124665836D01*
X145375920Y-124460000D01*
X145396193Y-124254164D01*
X145456233Y-124056238D01*
X145456233Y-124056237D01*
X145553733Y-123873828D01*
X145684946Y-123713946D01*
X145844828Y-123582733D01*
X146027237Y-123485233D01*
X146093213Y-123465220D01*
X146225164Y-123425193D01*
X146302293Y-123417596D01*
X146379420Y-123410000D01*
X146482580Y-123410000D01*
X146559707Y-123417596D01*
X146559707Y-123417596D01*
G37*
G36*
X144941000Y-125510000D02*
X142841000Y-125510000D01*
X142841000Y-123410000D01*
X144941000Y-123410000D01*
X144941000Y-125510000D01*
X144941000Y-125510000D01*
G37*
G36*
X185799196Y-121939958D02*
X186035780Y-122037954D01*
X186248705Y-122180226D01*
X186429774Y-122361295D01*
X186572046Y-122574220D01*
X186670042Y-122810804D01*
X186720000Y-123061960D01*
X186720000Y-123318040D01*
X186670042Y-123569196D01*
X186572046Y-123805780D01*
X186429774Y-124018705D01*
X186248705Y-124199774D01*
X186035780Y-124342046D01*
X185799196Y-124440042D01*
X185548040Y-124490000D01*
X185291960Y-124490000D01*
X185040804Y-124440042D01*
X184804220Y-124342046D01*
X184591295Y-124199774D01*
X184410226Y-124018705D01*
X184267954Y-123805780D01*
X184169958Y-123569196D01*
X184120000Y-123318040D01*
X184120000Y-123061960D01*
X184169958Y-122810804D01*
X184267954Y-122574220D01*
X184410226Y-122361295D01*
X184591295Y-122180226D01*
X184804220Y-122037954D01*
X185040804Y-121939958D01*
X185291960Y-121890000D01*
X185548040Y-121890000D01*
X185799196Y-121939958D01*
X185799196Y-121939958D01*
G37*
G36*
X173099196Y-121939958D02*
X173335780Y-122037954D01*
X173548705Y-122180226D01*
X173729774Y-122361295D01*
X173872046Y-122574220D01*
X173970042Y-122810804D01*
X174020000Y-123061960D01*
X174020000Y-123318040D01*
X173970042Y-123569196D01*
X173872046Y-123805780D01*
X173729774Y-124018705D01*
X173548705Y-124199774D01*
X173335780Y-124342046D01*
X173099196Y-124440042D01*
X172848040Y-124490000D01*
X172591960Y-124490000D01*
X172340804Y-124440042D01*
X172104220Y-124342046D01*
X171891295Y-124199774D01*
X171710226Y-124018705D01*
X171567954Y-123805780D01*
X171469958Y-123569196D01*
X171420000Y-123318040D01*
X171420000Y-123061960D01*
X171469958Y-122810804D01*
X171567954Y-122574220D01*
X171710226Y-122361295D01*
X171891295Y-122180226D01*
X172104220Y-122037954D01*
X172340804Y-121939958D01*
X172591960Y-121890000D01*
X172848040Y-121890000D01*
X173099196Y-121939958D01*
X173099196Y-121939958D01*
G37*
G36*
X196700000Y-123620000D02*
X193300000Y-123620000D01*
X193300000Y-120220000D01*
X196700000Y-120220000D01*
X196700000Y-123620000D01*
X196700000Y-123620000D01*
G37*
G36*
X195386393Y-115183553D02*
X195495872Y-115205330D01*
X195805252Y-115333479D01*
X196083687Y-115519523D01*
X196320477Y-115756313D01*
X196506521Y-116034748D01*
X196634670Y-116344128D01*
X196700000Y-116672565D01*
X196700000Y-117007435D01*
X196634670Y-117335872D01*
X196506521Y-117645252D01*
X196320477Y-117923687D01*
X196083687Y-118160477D01*
X195805252Y-118346521D01*
X195495872Y-118474670D01*
X195386393Y-118496447D01*
X195167437Y-118540000D01*
X194832563Y-118540000D01*
X194613607Y-118496447D01*
X194504128Y-118474670D01*
X194194748Y-118346521D01*
X193916313Y-118160477D01*
X193679523Y-117923687D01*
X193493479Y-117645252D01*
X193365330Y-117335872D01*
X193300000Y-117007435D01*
X193300000Y-116672565D01*
X193365330Y-116344128D01*
X193493479Y-116034748D01*
X193679523Y-115756313D01*
X193916313Y-115519523D01*
X194194748Y-115333479D01*
X194504128Y-115205330D01*
X194613607Y-115183553D01*
X194832563Y-115140000D01*
X195167437Y-115140000D01*
X195386393Y-115183553D01*
X195386393Y-115183553D01*
G37*
G36*
X173099196Y-114319958D02*
X173335780Y-114417954D01*
X173548705Y-114560226D01*
X173729774Y-114741295D01*
X173872046Y-114954220D01*
X173970042Y-115190804D01*
X174020000Y-115441960D01*
X174020000Y-115698040D01*
X173970042Y-115949196D01*
X173872046Y-116185780D01*
X173729774Y-116398705D01*
X173548705Y-116579774D01*
X173335780Y-116722046D01*
X173099196Y-116820042D01*
X172848040Y-116870000D01*
X172591960Y-116870000D01*
X172340804Y-116820042D01*
X172104220Y-116722046D01*
X171891295Y-116579774D01*
X171710226Y-116398705D01*
X171567954Y-116185780D01*
X171469958Y-115949196D01*
X171420000Y-115698040D01*
X171420000Y-115441960D01*
X171469958Y-115190804D01*
X171567954Y-114954220D01*
X171710226Y-114741295D01*
X171891295Y-114560226D01*
X172104220Y-114417954D01*
X172340804Y-114319958D01*
X172591960Y-114270000D01*
X172848040Y-114270000D01*
X173099196Y-114319958D01*
X173099196Y-114319958D01*
G37*
G36*
X188339196Y-114319958D02*
X188575780Y-114417954D01*
X188788705Y-114560226D01*
X188969774Y-114741295D01*
X189112046Y-114954220D01*
X189210042Y-115190804D01*
X189260000Y-115441960D01*
X189260000Y-115698040D01*
X189210042Y-115949196D01*
X189112046Y-116185780D01*
X188969774Y-116398705D01*
X188788705Y-116579774D01*
X188575780Y-116722046D01*
X188339196Y-116820042D01*
X188088040Y-116870000D01*
X187831960Y-116870000D01*
X187580804Y-116820042D01*
X187344220Y-116722046D01*
X187131295Y-116579774D01*
X186950226Y-116398705D01*
X186807954Y-116185780D01*
X186709958Y-115949196D01*
X186660000Y-115698040D01*
X186660000Y-115441960D01*
X186709958Y-115190804D01*
X186807954Y-114954220D01*
X186950226Y-114741295D01*
X187131295Y-114560226D01*
X187344220Y-114417954D01*
X187580804Y-114319958D01*
X187831960Y-114270000D01*
X188088040Y-114270000D01*
X188339196Y-114319958D01*
X188339196Y-114319958D01*
G37*
G36*
X173099196Y-110509958D02*
X173335780Y-110607954D01*
X173548705Y-110750226D01*
X173729774Y-110931295D01*
X173872046Y-111144220D01*
X173970042Y-111380804D01*
X174020000Y-111631960D01*
X174020000Y-111888040D01*
X173970042Y-112139196D01*
X173872046Y-112375780D01*
X173729774Y-112588705D01*
X173548705Y-112769774D01*
X173335780Y-112912046D01*
X173099196Y-113010042D01*
X172848040Y-113060000D01*
X172591960Y-113060000D01*
X172340804Y-113010042D01*
X172104220Y-112912046D01*
X171891295Y-112769774D01*
X171710226Y-112588705D01*
X171567954Y-112375780D01*
X171469958Y-112139196D01*
X171420000Y-111888040D01*
X171420000Y-111631960D01*
X171469958Y-111380804D01*
X171567954Y-111144220D01*
X171710226Y-110931295D01*
X171891295Y-110750226D01*
X172104220Y-110607954D01*
X172340804Y-110509958D01*
X172591960Y-110460000D01*
X172848040Y-110460000D01*
X173099196Y-110509958D01*
X173099196Y-110509958D01*
G37*
G36*
X185799196Y-110509958D02*
X186035780Y-110607954D01*
X186248705Y-110750226D01*
X186429774Y-110931295D01*
X186572046Y-111144220D01*
X186670042Y-111380804D01*
X186720000Y-111631960D01*
X186720000Y-111888040D01*
X186670042Y-112139196D01*
X186572046Y-112375780D01*
X186429774Y-112588705D01*
X186248705Y-112769774D01*
X186035780Y-112912046D01*
X185799196Y-113010042D01*
X185548040Y-113060000D01*
X185291960Y-113060000D01*
X185040804Y-113010042D01*
X184804220Y-112912046D01*
X184591295Y-112769774D01*
X184410226Y-112588705D01*
X184267954Y-112375780D01*
X184169958Y-112139196D01*
X184120000Y-111888040D01*
X184120000Y-111631960D01*
X184169958Y-111380804D01*
X184267954Y-111144220D01*
X184410226Y-110931295D01*
X184591295Y-110750226D01*
X184804220Y-110607954D01*
X185040804Y-110509958D01*
X185291960Y-110460000D01*
X185548040Y-110460000D01*
X185799196Y-110509958D01*
X185799196Y-110509958D01*
G37*
G36*
X196700000Y-112190000D02*
X193300000Y-112190000D01*
X193300000Y-108790000D01*
X196700000Y-108790000D01*
X196700000Y-112190000D01*
X196700000Y-112190000D01*
G37*
G36*
X195386393Y-103753553D02*
X195495872Y-103775330D01*
X195805252Y-103903479D01*
X196083687Y-104089523D01*
X196320477Y-104326313D01*
X196506521Y-104604748D01*
X196634670Y-104914128D01*
X196700000Y-105242565D01*
X196700000Y-105577435D01*
X196634670Y-105905872D01*
X196506521Y-106215252D01*
X196320477Y-106493687D01*
X196083687Y-106730477D01*
X195805252Y-106916521D01*
X195495872Y-107044670D01*
X195386393Y-107066447D01*
X195167437Y-107110000D01*
X194832563Y-107110000D01*
X194613607Y-107066447D01*
X194504128Y-107044670D01*
X194194748Y-106916521D01*
X193916313Y-106730477D01*
X193679523Y-106493687D01*
X193493479Y-106215252D01*
X193365330Y-105905872D01*
X193300000Y-105577435D01*
X193300000Y-105242565D01*
X193365330Y-104914128D01*
X193493479Y-104604748D01*
X193679523Y-104326313D01*
X193916313Y-104089523D01*
X194194748Y-103903479D01*
X194504128Y-103775330D01*
X194613607Y-103753553D01*
X194832563Y-103710000D01*
X195167437Y-103710000D01*
X195386393Y-103753553D01*
X195386393Y-103753553D01*
G37*
G36*
X188339196Y-102889958D02*
X188575780Y-102987954D01*
X188788705Y-103130226D01*
X188969774Y-103311295D01*
X189112046Y-103524220D01*
X189210042Y-103760804D01*
X189260000Y-104011960D01*
X189260000Y-104268040D01*
X189210042Y-104519196D01*
X189112046Y-104755780D01*
X188969774Y-104968705D01*
X188788705Y-105149774D01*
X188575780Y-105292046D01*
X188339196Y-105390042D01*
X188088040Y-105440000D01*
X187831960Y-105440000D01*
X187580804Y-105390042D01*
X187344220Y-105292046D01*
X187131295Y-105149774D01*
X186950226Y-104968705D01*
X186807954Y-104755780D01*
X186709958Y-104519196D01*
X186660000Y-104268040D01*
X186660000Y-104011960D01*
X186709958Y-103760804D01*
X186807954Y-103524220D01*
X186950226Y-103311295D01*
X187131295Y-103130226D01*
X187344220Y-102987954D01*
X187580804Y-102889958D01*
X187831960Y-102840000D01*
X188088040Y-102840000D01*
X188339196Y-102889958D01*
X188339196Y-102889958D01*
G37*
G36*
X173099196Y-102889958D02*
X173335780Y-102987954D01*
X173548705Y-103130226D01*
X173729774Y-103311295D01*
X173872046Y-103524220D01*
X173970042Y-103760804D01*
X174020000Y-104011960D01*
X174020000Y-104268040D01*
X173970042Y-104519196D01*
X173872046Y-104755780D01*
X173729774Y-104968705D01*
X173548705Y-105149774D01*
X173335780Y-105292046D01*
X173099196Y-105390042D01*
X172848040Y-105440000D01*
X172591960Y-105440000D01*
X172340804Y-105390042D01*
X172104220Y-105292046D01*
X171891295Y-105149774D01*
X171710226Y-104968705D01*
X171567954Y-104755780D01*
X171469958Y-104519196D01*
X171420000Y-104268040D01*
X171420000Y-104011960D01*
X171469958Y-103760804D01*
X171567954Y-103524220D01*
X171710226Y-103311295D01*
X171891295Y-103130226D01*
X172104220Y-102987954D01*
X172340804Y-102889958D01*
X172591960Y-102840000D01*
X172848040Y-102840000D01*
X173099196Y-102889958D01*
X173099196Y-102889958D01*
G37*
G36*
X173099196Y-99079958D02*
X173335780Y-99177954D01*
X173548705Y-99320226D01*
X173729774Y-99501295D01*
X173872046Y-99714220D01*
X173970042Y-99950804D01*
X174020000Y-100201960D01*
X174020000Y-100458040D01*
X173970042Y-100709196D01*
X173872046Y-100945780D01*
X173729774Y-101158705D01*
X173548705Y-101339774D01*
X173335780Y-101482046D01*
X173099196Y-101580042D01*
X172848040Y-101630000D01*
X172591960Y-101630000D01*
X172340804Y-101580042D01*
X172104220Y-101482046D01*
X171891295Y-101339774D01*
X171710226Y-101158705D01*
X171567954Y-100945780D01*
X171469958Y-100709196D01*
X171420000Y-100458040D01*
X171420000Y-100201960D01*
X171469958Y-99950804D01*
X171567954Y-99714220D01*
X171710226Y-99501295D01*
X171891295Y-99320226D01*
X172104220Y-99177954D01*
X172340804Y-99079958D01*
X172591960Y-99030000D01*
X172848040Y-99030000D01*
X173099196Y-99079958D01*
X173099196Y-99079958D01*
G37*
G36*
X185799196Y-99079958D02*
X186035780Y-99177954D01*
X186248705Y-99320226D01*
X186429774Y-99501295D01*
X186572046Y-99714220D01*
X186670042Y-99950804D01*
X186720000Y-100201960D01*
X186720000Y-100458040D01*
X186670042Y-100709196D01*
X186572046Y-100945780D01*
X186429774Y-101158705D01*
X186248705Y-101339774D01*
X186035780Y-101482046D01*
X185799196Y-101580042D01*
X185548040Y-101630000D01*
X185291960Y-101630000D01*
X185040804Y-101580042D01*
X184804220Y-101482046D01*
X184591295Y-101339774D01*
X184410226Y-101158705D01*
X184267954Y-100945780D01*
X184169958Y-100709196D01*
X184120000Y-100458040D01*
X184120000Y-100201960D01*
X184169958Y-99950804D01*
X184267954Y-99714220D01*
X184410226Y-99501295D01*
X184591295Y-99320226D01*
X184804220Y-99177954D01*
X185040804Y-99079958D01*
X185291960Y-99030000D01*
X185548040Y-99030000D01*
X185799196Y-99079958D01*
X185799196Y-99079958D01*
G37*
G36*
X196700000Y-100760000D02*
X193300000Y-100760000D01*
X193300000Y-97360000D01*
X196700000Y-97360000D01*
X196700000Y-100760000D01*
X196700000Y-100760000D01*
G37*
G36*
X195386393Y-92323553D02*
X195495872Y-92345330D01*
X195805252Y-92473479D01*
X196083687Y-92659523D01*
X196320477Y-92896313D01*
X196506521Y-93174748D01*
X196634670Y-93484128D01*
X196700000Y-93812565D01*
X196700000Y-94147435D01*
X196634670Y-94475872D01*
X196506521Y-94785252D01*
X196320477Y-95063687D01*
X196083687Y-95300477D01*
X195805252Y-95486521D01*
X195495872Y-95614670D01*
X195386393Y-95636447D01*
X195167437Y-95680000D01*
X194832563Y-95680000D01*
X194613607Y-95636447D01*
X194504128Y-95614670D01*
X194194748Y-95486521D01*
X193916313Y-95300477D01*
X193679523Y-95063687D01*
X193493479Y-94785252D01*
X193365330Y-94475872D01*
X193300000Y-94147435D01*
X193300000Y-93812565D01*
X193365330Y-93484128D01*
X193493479Y-93174748D01*
X193679523Y-92896313D01*
X193916313Y-92659523D01*
X194194748Y-92473479D01*
X194504128Y-92345330D01*
X194613607Y-92323553D01*
X194832563Y-92280000D01*
X195167437Y-92280000D01*
X195386393Y-92323553D01*
X195386393Y-92323553D01*
G37*
G36*
X173099196Y-91459958D02*
X173335780Y-91557954D01*
X173548705Y-91700226D01*
X173729774Y-91881295D01*
X173872046Y-92094220D01*
X173970042Y-92330804D01*
X174020000Y-92581960D01*
X174020000Y-92838040D01*
X173970042Y-93089196D01*
X173872046Y-93325780D01*
X173729774Y-93538705D01*
X173548705Y-93719774D01*
X173335780Y-93862046D01*
X173099196Y-93960042D01*
X172848040Y-94010000D01*
X172591960Y-94010000D01*
X172340804Y-93960042D01*
X172104220Y-93862046D01*
X171891295Y-93719774D01*
X171710226Y-93538705D01*
X171567954Y-93325780D01*
X171469958Y-93089196D01*
X171420000Y-92838040D01*
X171420000Y-92581960D01*
X171469958Y-92330804D01*
X171567954Y-92094220D01*
X171710226Y-91881295D01*
X171891295Y-91700226D01*
X172104220Y-91557954D01*
X172340804Y-91459958D01*
X172591960Y-91410000D01*
X172848040Y-91410000D01*
X173099196Y-91459958D01*
X173099196Y-91459958D01*
G37*
G36*
X188339196Y-91459958D02*
X188575780Y-91557954D01*
X188788705Y-91700226D01*
X188969774Y-91881295D01*
X189112046Y-92094220D01*
X189210042Y-92330804D01*
X189260000Y-92581960D01*
X189260000Y-92838040D01*
X189210042Y-93089196D01*
X189112046Y-93325780D01*
X188969774Y-93538705D01*
X188788705Y-93719774D01*
X188575780Y-93862046D01*
X188339196Y-93960042D01*
X188088040Y-94010000D01*
X187831960Y-94010000D01*
X187580804Y-93960042D01*
X187344220Y-93862046D01*
X187131295Y-93719774D01*
X186950226Y-93538705D01*
X186807954Y-93325780D01*
X186709958Y-93089196D01*
X186660000Y-92838040D01*
X186660000Y-92581960D01*
X186709958Y-92330804D01*
X186807954Y-92094220D01*
X186950226Y-91881295D01*
X187131295Y-91700226D01*
X187344220Y-91557954D01*
X187580804Y-91459958D01*
X187831960Y-91410000D01*
X188088040Y-91410000D01*
X188339196Y-91459958D01*
X188339196Y-91459958D01*
G37*
G36*
X185799196Y-87649958D02*
X186035780Y-87747954D01*
X186248705Y-87890226D01*
X186429774Y-88071295D01*
X186572046Y-88284220D01*
X186670042Y-88520804D01*
X186720000Y-88771960D01*
X186720000Y-89028040D01*
X186670042Y-89279196D01*
X186572046Y-89515780D01*
X186429774Y-89728705D01*
X186248705Y-89909774D01*
X186035780Y-90052046D01*
X185799196Y-90150042D01*
X185548040Y-90200000D01*
X185291960Y-90200000D01*
X185040804Y-90150042D01*
X184804220Y-90052046D01*
X184591295Y-89909774D01*
X184410226Y-89728705D01*
X184267954Y-89515780D01*
X184169958Y-89279196D01*
X184120000Y-89028040D01*
X184120000Y-88771960D01*
X184169958Y-88520804D01*
X184267954Y-88284220D01*
X184410226Y-88071295D01*
X184591295Y-87890226D01*
X184804220Y-87747954D01*
X185040804Y-87649958D01*
X185291960Y-87600000D01*
X185548040Y-87600000D01*
X185799196Y-87649958D01*
X185799196Y-87649958D01*
G37*
G36*
X173099196Y-87649958D02*
X173335780Y-87747954D01*
X173548705Y-87890226D01*
X173729774Y-88071295D01*
X173872046Y-88284220D01*
X173970042Y-88520804D01*
X174020000Y-88771960D01*
X174020000Y-89028040D01*
X173970042Y-89279196D01*
X173872046Y-89515780D01*
X173729774Y-89728705D01*
X173548705Y-89909774D01*
X173335780Y-90052046D01*
X173099196Y-90150042D01*
X172848040Y-90200000D01*
X172591960Y-90200000D01*
X172340804Y-90150042D01*
X172104220Y-90052046D01*
X171891295Y-89909774D01*
X171710226Y-89728705D01*
X171567954Y-89515780D01*
X171469958Y-89279196D01*
X171420000Y-89028040D01*
X171420000Y-88771960D01*
X171469958Y-88520804D01*
X171567954Y-88284220D01*
X171710226Y-88071295D01*
X171891295Y-87890226D01*
X172104220Y-87747954D01*
X172340804Y-87649958D01*
X172591960Y-87600000D01*
X172848040Y-87600000D01*
X173099196Y-87649958D01*
X173099196Y-87649958D01*
G37*
G36*
X196700000Y-89330000D02*
X193300000Y-89330000D01*
X193300000Y-85930000D01*
X196700000Y-85930000D01*
X196700000Y-89330000D01*
X196700000Y-89330000D01*
G37*
G36*
X195386393Y-80893553D02*
X195495872Y-80915330D01*
X195805252Y-81043479D01*
X196083687Y-81229523D01*
X196320477Y-81466313D01*
X196506521Y-81744748D01*
X196634670Y-82054128D01*
X196700000Y-82382565D01*
X196700000Y-82717435D01*
X196634670Y-83045872D01*
X196506521Y-83355252D01*
X196320477Y-83633687D01*
X196083687Y-83870477D01*
X195805252Y-84056521D01*
X195495872Y-84184670D01*
X195386393Y-84206447D01*
X195167437Y-84250000D01*
X194832563Y-84250000D01*
X194613607Y-84206447D01*
X194504128Y-84184670D01*
X194194748Y-84056521D01*
X193916313Y-83870477D01*
X193679523Y-83633687D01*
X193493479Y-83355252D01*
X193365330Y-83045872D01*
X193300000Y-82717435D01*
X193300000Y-82382565D01*
X193365330Y-82054128D01*
X193493479Y-81744748D01*
X193679523Y-81466313D01*
X193916313Y-81229523D01*
X194194748Y-81043479D01*
X194504128Y-80915330D01*
X194613607Y-80893553D01*
X194832563Y-80850000D01*
X195167437Y-80850000D01*
X195386393Y-80893553D01*
X195386393Y-80893553D01*
G37*
G36*
X188339196Y-80029958D02*
X188575780Y-80127954D01*
X188788705Y-80270226D01*
X188969774Y-80451295D01*
X189112046Y-80664220D01*
X189210042Y-80900804D01*
X189260000Y-81151960D01*
X189260000Y-81408040D01*
X189210042Y-81659196D01*
X189112046Y-81895780D01*
X188969774Y-82108705D01*
X188788705Y-82289774D01*
X188575780Y-82432046D01*
X188339196Y-82530042D01*
X188088040Y-82580000D01*
X187831960Y-82580000D01*
X187580804Y-82530042D01*
X187344220Y-82432046D01*
X187131295Y-82289774D01*
X186950226Y-82108705D01*
X186807954Y-81895780D01*
X186709958Y-81659196D01*
X186660000Y-81408040D01*
X186660000Y-81151960D01*
X186709958Y-80900804D01*
X186807954Y-80664220D01*
X186950226Y-80451295D01*
X187131295Y-80270226D01*
X187344220Y-80127954D01*
X187580804Y-80029958D01*
X187831960Y-79980000D01*
X188088040Y-79980000D01*
X188339196Y-80029958D01*
X188339196Y-80029958D01*
G37*
G36*
X173099196Y-80029958D02*
X173335780Y-80127954D01*
X173548705Y-80270226D01*
X173729774Y-80451295D01*
X173872046Y-80664220D01*
X173970042Y-80900804D01*
X174020000Y-81151960D01*
X174020000Y-81408040D01*
X173970042Y-81659196D01*
X173872046Y-81895780D01*
X173729774Y-82108705D01*
X173548705Y-82289774D01*
X173335780Y-82432046D01*
X173099196Y-82530042D01*
X172848040Y-82580000D01*
X172591960Y-82580000D01*
X172340804Y-82530042D01*
X172104220Y-82432046D01*
X171891295Y-82289774D01*
X171710226Y-82108705D01*
X171567954Y-81895780D01*
X171469958Y-81659196D01*
X171420000Y-81408040D01*
X171420000Y-81151960D01*
X171469958Y-80900804D01*
X171567954Y-80664220D01*
X171710226Y-80451295D01*
X171891295Y-80270226D01*
X172104220Y-80127954D01*
X172340804Y-80029958D01*
X172591960Y-79980000D01*
X172848040Y-79980000D01*
X173099196Y-80029958D01*
X173099196Y-80029958D01*
G37*
G36*
X173099196Y-76219958D02*
X173335780Y-76317954D01*
X173548705Y-76460226D01*
X173729774Y-76641295D01*
X173872046Y-76854220D01*
X173970042Y-77090804D01*
X174020000Y-77341960D01*
X174020000Y-77598040D01*
X173970042Y-77849196D01*
X173872046Y-78085780D01*
X173729774Y-78298705D01*
X173548705Y-78479774D01*
X173335780Y-78622046D01*
X173099196Y-78720042D01*
X172848040Y-78770000D01*
X172591960Y-78770000D01*
X172340804Y-78720042D01*
X172104220Y-78622046D01*
X171891295Y-78479774D01*
X171710226Y-78298705D01*
X171567954Y-78085780D01*
X171469958Y-77849196D01*
X171420000Y-77598040D01*
X171420000Y-77341960D01*
X171469958Y-77090804D01*
X171567954Y-76854220D01*
X171710226Y-76641295D01*
X171891295Y-76460226D01*
X172104220Y-76317954D01*
X172340804Y-76219958D01*
X172591960Y-76170000D01*
X172848040Y-76170000D01*
X173099196Y-76219958D01*
X173099196Y-76219958D01*
G37*
G36*
X185799196Y-76219958D02*
X186035780Y-76317954D01*
X186248705Y-76460226D01*
X186429774Y-76641295D01*
X186572046Y-76854220D01*
X186670042Y-77090804D01*
X186720000Y-77341960D01*
X186720000Y-77598040D01*
X186670042Y-77849196D01*
X186572046Y-78085780D01*
X186429774Y-78298705D01*
X186248705Y-78479774D01*
X186035780Y-78622046D01*
X185799196Y-78720042D01*
X185548040Y-78770000D01*
X185291960Y-78770000D01*
X185040804Y-78720042D01*
X184804220Y-78622046D01*
X184591295Y-78479774D01*
X184410226Y-78298705D01*
X184267954Y-78085780D01*
X184169958Y-77849196D01*
X184120000Y-77598040D01*
X184120000Y-77341960D01*
X184169958Y-77090804D01*
X184267954Y-76854220D01*
X184410226Y-76641295D01*
X184591295Y-76460226D01*
X184804220Y-76317954D01*
X185040804Y-76219958D01*
X185291960Y-76170000D01*
X185548040Y-76170000D01*
X185799196Y-76219958D01*
X185799196Y-76219958D01*
G37*
G36*
X196700000Y-77900000D02*
X193300000Y-77900000D01*
X193300000Y-74500000D01*
X196700000Y-74500000D01*
X196700000Y-77900000D01*
X196700000Y-77900000D01*
G37*
G36*
X195386393Y-69463553D02*
X195495872Y-69485330D01*
X195805252Y-69613479D01*
X196083687Y-69799523D01*
X196320477Y-70036313D01*
X196506521Y-70314748D01*
X196634670Y-70624128D01*
X196700000Y-70952565D01*
X196700000Y-71287435D01*
X196634670Y-71615872D01*
X196506521Y-71925252D01*
X196320477Y-72203687D01*
X196083687Y-72440477D01*
X195805252Y-72626521D01*
X195495872Y-72754670D01*
X195386393Y-72776447D01*
X195167437Y-72820000D01*
X194832563Y-72820000D01*
X194613607Y-72776447D01*
X194504128Y-72754670D01*
X194194748Y-72626521D01*
X193916313Y-72440477D01*
X193679523Y-72203687D01*
X193493479Y-71925252D01*
X193365330Y-71615872D01*
X193300000Y-71287435D01*
X193300000Y-70952565D01*
X193365330Y-70624128D01*
X193493479Y-70314748D01*
X193679523Y-70036313D01*
X193916313Y-69799523D01*
X194194748Y-69613479D01*
X194504128Y-69485330D01*
X194613607Y-69463553D01*
X194832563Y-69420000D01*
X195167437Y-69420000D01*
X195386393Y-69463553D01*
X195386393Y-69463553D01*
G37*
G36*
X188339196Y-68599958D02*
X188575780Y-68697954D01*
X188788705Y-68840226D01*
X188969774Y-69021295D01*
X189112046Y-69234220D01*
X189210042Y-69470804D01*
X189260000Y-69721960D01*
X189260000Y-69978040D01*
X189210042Y-70229196D01*
X189112046Y-70465780D01*
X188969774Y-70678705D01*
X188788705Y-70859774D01*
X188575780Y-71002046D01*
X188339196Y-71100042D01*
X188088040Y-71150000D01*
X187831960Y-71150000D01*
X187580804Y-71100042D01*
X187344220Y-71002046D01*
X187131295Y-70859774D01*
X186950226Y-70678705D01*
X186807954Y-70465780D01*
X186709958Y-70229196D01*
X186660000Y-69978040D01*
X186660000Y-69721960D01*
X186709958Y-69470804D01*
X186807954Y-69234220D01*
X186950226Y-69021295D01*
X187131295Y-68840226D01*
X187344220Y-68697954D01*
X187580804Y-68599958D01*
X187831960Y-68550000D01*
X188088040Y-68550000D01*
X188339196Y-68599958D01*
X188339196Y-68599958D01*
G37*
G36*
X173099196Y-68599958D02*
X173335780Y-68697954D01*
X173548705Y-68840226D01*
X173729774Y-69021295D01*
X173872046Y-69234220D01*
X173970042Y-69470804D01*
X174020000Y-69721960D01*
X174020000Y-69978040D01*
X173970042Y-70229196D01*
X173872046Y-70465780D01*
X173729774Y-70678705D01*
X173548705Y-70859774D01*
X173335780Y-71002046D01*
X173099196Y-71100042D01*
X172848040Y-71150000D01*
X172591960Y-71150000D01*
X172340804Y-71100042D01*
X172104220Y-71002046D01*
X171891295Y-70859774D01*
X171710226Y-70678705D01*
X171567954Y-70465780D01*
X171469958Y-70229196D01*
X171420000Y-69978040D01*
X171420000Y-69721960D01*
X171469958Y-69470804D01*
X171567954Y-69234220D01*
X171710226Y-69021295D01*
X171891295Y-68840226D01*
X172104220Y-68697954D01*
X172340804Y-68599958D01*
X172591960Y-68550000D01*
X172848040Y-68550000D01*
X173099196Y-68599958D01*
X173099196Y-68599958D01*
G37*
G36*
X173099196Y-64789958D02*
X173335780Y-64887954D01*
X173548705Y-65030226D01*
X173729774Y-65211295D01*
X173872046Y-65424220D01*
X173970042Y-65660804D01*
X174020000Y-65911960D01*
X174020000Y-66168040D01*
X173970042Y-66419196D01*
X173872046Y-66655780D01*
X173729774Y-66868705D01*
X173548705Y-67049774D01*
X173335780Y-67192046D01*
X173099196Y-67290042D01*
X172848040Y-67340000D01*
X172591960Y-67340000D01*
X172340804Y-67290042D01*
X172104220Y-67192046D01*
X171891295Y-67049774D01*
X171710226Y-66868705D01*
X171567954Y-66655780D01*
X171469958Y-66419196D01*
X171420000Y-66168040D01*
X171420000Y-65911960D01*
X171469958Y-65660804D01*
X171567954Y-65424220D01*
X171710226Y-65211295D01*
X171891295Y-65030226D01*
X172104220Y-64887954D01*
X172340804Y-64789958D01*
X172591960Y-64740000D01*
X172848040Y-64740000D01*
X173099196Y-64789958D01*
X173099196Y-64789958D01*
G37*
G36*
X185799196Y-64789958D02*
X186035780Y-64887954D01*
X186248705Y-65030226D01*
X186429774Y-65211295D01*
X186572046Y-65424220D01*
X186670042Y-65660804D01*
X186720000Y-65911960D01*
X186720000Y-66168040D01*
X186670042Y-66419196D01*
X186572046Y-66655780D01*
X186429774Y-66868705D01*
X186248705Y-67049774D01*
X186035780Y-67192046D01*
X185799196Y-67290042D01*
X185548040Y-67340000D01*
X185291960Y-67340000D01*
X185040804Y-67290042D01*
X184804220Y-67192046D01*
X184591295Y-67049774D01*
X184410226Y-66868705D01*
X184267954Y-66655780D01*
X184169958Y-66419196D01*
X184120000Y-66168040D01*
X184120000Y-65911960D01*
X184169958Y-65660804D01*
X184267954Y-65424220D01*
X184410226Y-65211295D01*
X184591295Y-65030226D01*
X184804220Y-64887954D01*
X185040804Y-64789958D01*
X185291960Y-64740000D01*
X185548040Y-64740000D01*
X185799196Y-64789958D01*
X185799196Y-64789958D01*
G37*
G36*
X196700000Y-66470000D02*
X193300000Y-66470000D01*
X193300000Y-63070000D01*
X196700000Y-63070000D01*
X196700000Y-66470000D01*
X196700000Y-66470000D01*
G37*
G36*
X195386393Y-58033553D02*
X195495872Y-58055330D01*
X195805252Y-58183479D01*
X196083687Y-58369523D01*
X196320477Y-58606313D01*
X196506521Y-58884748D01*
X196634670Y-59194128D01*
X196700000Y-59522565D01*
X196700000Y-59857435D01*
X196634670Y-60185872D01*
X196506521Y-60495252D01*
X196320477Y-60773687D01*
X196083687Y-61010477D01*
X195805252Y-61196521D01*
X195495872Y-61324670D01*
X195386393Y-61346447D01*
X195167437Y-61390000D01*
X194832563Y-61390000D01*
X194613607Y-61346447D01*
X194504128Y-61324670D01*
X194194748Y-61196521D01*
X193916313Y-61010477D01*
X193679523Y-60773687D01*
X193493479Y-60495252D01*
X193365330Y-60185872D01*
X193300000Y-59857435D01*
X193300000Y-59522565D01*
X193365330Y-59194128D01*
X193493479Y-58884748D01*
X193679523Y-58606313D01*
X193916313Y-58369523D01*
X194194748Y-58183479D01*
X194504128Y-58055330D01*
X194613607Y-58033553D01*
X194832563Y-57990000D01*
X195167437Y-57990000D01*
X195386393Y-58033553D01*
X195386393Y-58033553D01*
G37*
G36*
X188339196Y-57169958D02*
X188575780Y-57267954D01*
X188788705Y-57410226D01*
X188969774Y-57591295D01*
X189112046Y-57804220D01*
X189210042Y-58040804D01*
X189260000Y-58291960D01*
X189260000Y-58548040D01*
X189210042Y-58799196D01*
X189112046Y-59035780D01*
X188969774Y-59248705D01*
X188788705Y-59429774D01*
X188575780Y-59572046D01*
X188339196Y-59670042D01*
X188088040Y-59720000D01*
X187831960Y-59720000D01*
X187580804Y-59670042D01*
X187344220Y-59572046D01*
X187131295Y-59429774D01*
X186950226Y-59248705D01*
X186807954Y-59035780D01*
X186709958Y-58799196D01*
X186660000Y-58548040D01*
X186660000Y-58291960D01*
X186709958Y-58040804D01*
X186807954Y-57804220D01*
X186950226Y-57591295D01*
X187131295Y-57410226D01*
X187344220Y-57267954D01*
X187580804Y-57169958D01*
X187831960Y-57120000D01*
X188088040Y-57120000D01*
X188339196Y-57169958D01*
X188339196Y-57169958D01*
G37*
G36*
X173099196Y-57169958D02*
X173335780Y-57267954D01*
X173548705Y-57410226D01*
X173729774Y-57591295D01*
X173872046Y-57804220D01*
X173970042Y-58040804D01*
X174020000Y-58291960D01*
X174020000Y-58548040D01*
X173970042Y-58799196D01*
X173872046Y-59035780D01*
X173729774Y-59248705D01*
X173548705Y-59429774D01*
X173335780Y-59572046D01*
X173099196Y-59670042D01*
X172848040Y-59720000D01*
X172591960Y-59720000D01*
X172340804Y-59670042D01*
X172104220Y-59572046D01*
X171891295Y-59429774D01*
X171710226Y-59248705D01*
X171567954Y-59035780D01*
X171469958Y-58799196D01*
X171420000Y-58548040D01*
X171420000Y-58291960D01*
X171469958Y-58040804D01*
X171567954Y-57804220D01*
X171710226Y-57591295D01*
X171891295Y-57410226D01*
X172104220Y-57267954D01*
X172340804Y-57169958D01*
X172591960Y-57120000D01*
X172848040Y-57120000D01*
X173099196Y-57169958D01*
X173099196Y-57169958D01*
G37*
G36*
X185799196Y-53359958D02*
X186035780Y-53457954D01*
X186248705Y-53600226D01*
X186429774Y-53781295D01*
X186572046Y-53994220D01*
X186670042Y-54230804D01*
X186720000Y-54481960D01*
X186720000Y-54738040D01*
X186670042Y-54989196D01*
X186572046Y-55225780D01*
X186429774Y-55438705D01*
X186248705Y-55619774D01*
X186035780Y-55762046D01*
X185799196Y-55860042D01*
X185548040Y-55910000D01*
X185291960Y-55910000D01*
X185040804Y-55860042D01*
X184804220Y-55762046D01*
X184591295Y-55619774D01*
X184410226Y-55438705D01*
X184267954Y-55225780D01*
X184169958Y-54989196D01*
X184120000Y-54738040D01*
X184120000Y-54481960D01*
X184169958Y-54230804D01*
X184267954Y-53994220D01*
X184410226Y-53781295D01*
X184591295Y-53600226D01*
X184804220Y-53457954D01*
X185040804Y-53359958D01*
X185291960Y-53310000D01*
X185548040Y-53310000D01*
X185799196Y-53359958D01*
X185799196Y-53359958D01*
G37*
G36*
X173099196Y-53359958D02*
X173335780Y-53457954D01*
X173548705Y-53600226D01*
X173729774Y-53781295D01*
X173872046Y-53994220D01*
X173970042Y-54230804D01*
X174020000Y-54481960D01*
X174020000Y-54738040D01*
X173970042Y-54989196D01*
X173872046Y-55225780D01*
X173729774Y-55438705D01*
X173548705Y-55619774D01*
X173335780Y-55762046D01*
X173099196Y-55860042D01*
X172848040Y-55910000D01*
X172591960Y-55910000D01*
X172340804Y-55860042D01*
X172104220Y-55762046D01*
X171891295Y-55619774D01*
X171710226Y-55438705D01*
X171567954Y-55225780D01*
X171469958Y-54989196D01*
X171420000Y-54738040D01*
X171420000Y-54481960D01*
X171469958Y-54230804D01*
X171567954Y-53994220D01*
X171710226Y-53781295D01*
X171891295Y-53600226D01*
X172104220Y-53457954D01*
X172340804Y-53359958D01*
X172591960Y-53310000D01*
X172848040Y-53310000D01*
X173099196Y-53359958D01*
X173099196Y-53359958D01*
G37*
G36*
X196700000Y-55040000D02*
X193300000Y-55040000D01*
X193300000Y-51640000D01*
X196700000Y-51640000D01*
X196700000Y-55040000D01*
X196700000Y-55040000D01*
G37*
G36*
X142035000Y-51230000D02*
X138635000Y-51230000D01*
X138635000Y-47830000D01*
X142035000Y-47830000D01*
X142035000Y-51230000D01*
X142035000Y-51230000D01*
G37*
G36*
X135641393Y-47873553D02*
X135750872Y-47895330D01*
X136060252Y-48023479D01*
X136338687Y-48209523D01*
X136575477Y-48446313D01*
X136761521Y-48724748D01*
X136889670Y-49034128D01*
X136895861Y-49065252D01*
X136951246Y-49343689D01*
X136955000Y-49362565D01*
X136955000Y-49697435D01*
X136889670Y-50025872D01*
X136761521Y-50335252D01*
X136575477Y-50613687D01*
X136338687Y-50850477D01*
X136060252Y-51036521D01*
X135750872Y-51164670D01*
X135641393Y-51186447D01*
X135422437Y-51230000D01*
X135087563Y-51230000D01*
X134868607Y-51186447D01*
X134759128Y-51164670D01*
X134449748Y-51036521D01*
X134171313Y-50850477D01*
X133934523Y-50613687D01*
X133748479Y-50335252D01*
X133620330Y-50025872D01*
X133555000Y-49697435D01*
X133555000Y-49362565D01*
X133558755Y-49343689D01*
X133614139Y-49065252D01*
X133620330Y-49034128D01*
X133748479Y-48724748D01*
X133934523Y-48446313D01*
X134171313Y-48209523D01*
X134449748Y-48023479D01*
X134759128Y-47895330D01*
X134868607Y-47873553D01*
X135087563Y-47830000D01*
X135422437Y-47830000D01*
X135641393Y-47873553D01*
X135641393Y-47873553D01*
G37*
G36*
X195386393Y-46603553D02*
X195495872Y-46625330D01*
X195805252Y-46753479D01*
X196083687Y-46939523D01*
X196320477Y-47176313D01*
X196506521Y-47454748D01*
X196634670Y-47764128D01*
X196634670Y-47764129D01*
X196700000Y-48092563D01*
X196700000Y-48427437D01*
X196696245Y-48446313D01*
X196634670Y-48755872D01*
X196506521Y-49065252D01*
X196320477Y-49343687D01*
X196083687Y-49580477D01*
X195805252Y-49766521D01*
X195495872Y-49894670D01*
X195386393Y-49916447D01*
X195167437Y-49960000D01*
X194832563Y-49960000D01*
X194613607Y-49916447D01*
X194504128Y-49894670D01*
X194194748Y-49766521D01*
X193916313Y-49580477D01*
X193679523Y-49343687D01*
X193493479Y-49065252D01*
X193365330Y-48755872D01*
X193303755Y-48446313D01*
X193300000Y-48427437D01*
X193300000Y-48092563D01*
X193365330Y-47764129D01*
X193365330Y-47764128D01*
X193493479Y-47454748D01*
X193679523Y-47176313D01*
X193916313Y-46939523D01*
X194194748Y-46753479D01*
X194504128Y-46625330D01*
X194613607Y-46603553D01*
X194832563Y-46560000D01*
X195167437Y-46560000D01*
X195386393Y-46603553D01*
X195386393Y-46603553D01*
G37*
G36*
X188339196Y-45739958D02*
X188575780Y-45837954D01*
X188788705Y-45980226D01*
X188969774Y-46161295D01*
X189112046Y-46374220D01*
X189210042Y-46610804D01*
X189260000Y-46861960D01*
X189260000Y-47118040D01*
X189210042Y-47369196D01*
X189112046Y-47605780D01*
X188969774Y-47818705D01*
X188788705Y-47999774D01*
X188575780Y-48142046D01*
X188339196Y-48240042D01*
X188088040Y-48290000D01*
X187831960Y-48290000D01*
X187580804Y-48240042D01*
X187344220Y-48142046D01*
X187131295Y-47999774D01*
X186950226Y-47818705D01*
X186807954Y-47605780D01*
X186709958Y-47369196D01*
X186660000Y-47118040D01*
X186660000Y-46861960D01*
X186709958Y-46610804D01*
X186807954Y-46374220D01*
X186950226Y-46161295D01*
X187131295Y-45980226D01*
X187344220Y-45837954D01*
X187580804Y-45739958D01*
X187831960Y-45690000D01*
X188088040Y-45690000D01*
X188339196Y-45739958D01*
X188339196Y-45739958D01*
G37*
G36*
X173099196Y-45739958D02*
X173335780Y-45837954D01*
X173548705Y-45980226D01*
X173729774Y-46161295D01*
X173872046Y-46374220D01*
X173970042Y-46610804D01*
X174020000Y-46861960D01*
X174020000Y-47118040D01*
X173970042Y-47369196D01*
X173872046Y-47605780D01*
X173729774Y-47818705D01*
X173548705Y-47999774D01*
X173335780Y-48142046D01*
X173099196Y-48240042D01*
X172848040Y-48290000D01*
X172591960Y-48290000D01*
X172340804Y-48240042D01*
X172104220Y-48142046D01*
X171891295Y-47999774D01*
X171710226Y-47818705D01*
X171567954Y-47605780D01*
X171469958Y-47369196D01*
X171420000Y-47118040D01*
X171420000Y-46861960D01*
X171469958Y-46610804D01*
X171567954Y-46374220D01*
X171710226Y-46161295D01*
X171891295Y-45980226D01*
X172104220Y-45837954D01*
X172340804Y-45739958D01*
X172591960Y-45690000D01*
X172848040Y-45690000D01*
X173099196Y-45739958D01*
X173099196Y-45739958D01*
G37*
M02*
