G04 #@! TF.GenerationSoftware,KiCad,Pcbnew,5.0.1-33cea8e~68~ubuntu18.04.1*
G04 #@! TF.CreationDate,2018-11-29T08:35:32+01:00*
G04 #@! TF.ProjectId,7RelaysEtCommun,3752656C6179734574436F6D6D756E2E,rev?*
G04 #@! TF.SameCoordinates,Original*
G04 #@! TF.FileFunction,Copper,L2,Bot,Signal*
G04 #@! TF.FilePolarity,Positive*
%FSLAX46Y46*%
G04 Gerber Fmt 4.6, Leading zero omitted, Abs format (unit mm)*
G04 Created by KiCad (PCBNEW 5.0.1-33cea8e~68~ubuntu18.04.1) date jeu. 29 nov. 2018 08:35:32 CET*
%MOMM*%
%LPD*%
G01*
G04 APERTURE LIST*
G04 #@! TA.AperFunction,ComponentPad*
%ADD10C,2.200000*%
G04 #@! TD*
G04 #@! TA.AperFunction,ComponentPad*
%ADD11R,3.000000X3.000000*%
G04 #@! TD*
G04 #@! TA.AperFunction,ComponentPad*
%ADD12C,3.000000*%
G04 #@! TD*
G04 #@! TA.AperFunction,ComponentPad*
%ADD13R,1.700000X1.700000*%
G04 #@! TD*
G04 #@! TA.AperFunction,ComponentPad*
%ADD14O,1.700000X1.700000*%
G04 #@! TD*
G04 #@! TA.AperFunction,ViaPad*
%ADD15C,0.800000*%
G04 #@! TD*
G04 #@! TA.AperFunction,Conductor*
%ADD16C,0.250000*%
G04 #@! TD*
G04 #@! TA.AperFunction,Conductor*
%ADD17C,2.500000*%
G04 #@! TD*
G04 #@! TA.AperFunction,Conductor*
%ADD18C,2.000000*%
G04 #@! TD*
G04 APERTURE END LIST*
D10*
G04 #@! TO.P,K7,1*
G04 #@! TO.N,/OUT7*
X172720000Y-123190000D03*
G04 #@! TO.P,K7,2*
G04 #@! TO.N,/5V*
X172720000Y-115570000D03*
G04 #@! TO.P,K7,4*
G04 #@! TO.N,/PH*
X185420000Y-123190000D03*
G04 #@! TO.P,K7,3*
G04 #@! TO.N,Net-(J8-Pad2)*
X187960000Y-115570000D03*
G04 #@! TD*
D11*
G04 #@! TO.P,J1,1*
G04 #@! TO.N,/5V*
X140335000Y-49530000D03*
D12*
G04 #@! TO.P,J1,2*
G04 #@! TO.N,/GND*
X135255000Y-49530000D03*
G04 #@! TD*
D11*
G04 #@! TO.P,J2,1*
G04 #@! TO.N,/NE*
X195000000Y-53340000D03*
D12*
G04 #@! TO.P,J2,2*
G04 #@! TO.N,Net-(J2-Pad2)*
X195000000Y-48260000D03*
G04 #@! TD*
G04 #@! TO.P,J3,2*
G04 #@! TO.N,Net-(J3-Pad2)*
X195000000Y-59690000D03*
D11*
G04 #@! TO.P,J3,1*
G04 #@! TO.N,/NE*
X195000000Y-64770000D03*
G04 #@! TD*
G04 #@! TO.P,J4,1*
G04 #@! TO.N,/NE*
X195000000Y-76200000D03*
D12*
G04 #@! TO.P,J4,2*
G04 #@! TO.N,Net-(J4-Pad2)*
X195000000Y-71120000D03*
G04 #@! TD*
G04 #@! TO.P,J5,2*
G04 #@! TO.N,Net-(J5-Pad2)*
X195000000Y-82550000D03*
D11*
G04 #@! TO.P,J5,1*
G04 #@! TO.N,/NE*
X195000000Y-87630000D03*
G04 #@! TD*
G04 #@! TO.P,J6,1*
G04 #@! TO.N,/NE*
X195000000Y-99060000D03*
D12*
G04 #@! TO.P,J6,2*
G04 #@! TO.N,Net-(J6-Pad2)*
X195000000Y-93980000D03*
G04 #@! TD*
G04 #@! TO.P,J7,2*
G04 #@! TO.N,Net-(J7-Pad2)*
X195000000Y-105410000D03*
D11*
G04 #@! TO.P,J7,1*
G04 #@! TO.N,/NE*
X195000000Y-110490000D03*
G04 #@! TD*
G04 #@! TO.P,J8,1*
G04 #@! TO.N,/NE*
X195000000Y-121920000D03*
D12*
G04 #@! TO.P,J8,2*
G04 #@! TO.N,Net-(J8-Pad2)*
X195000000Y-116840000D03*
G04 #@! TD*
D10*
G04 #@! TO.P,K1,3*
G04 #@! TO.N,Net-(J2-Pad2)*
X187960000Y-46990000D03*
G04 #@! TO.P,K1,4*
G04 #@! TO.N,/PH*
X185420000Y-54610000D03*
G04 #@! TO.P,K1,2*
G04 #@! TO.N,/5V*
X172720000Y-46990000D03*
G04 #@! TO.P,K1,1*
G04 #@! TO.N,/OUT1*
X172720000Y-54610000D03*
G04 #@! TD*
G04 #@! TO.P,K2,1*
G04 #@! TO.N,/OUT2*
X172720000Y-66040000D03*
G04 #@! TO.P,K2,2*
G04 #@! TO.N,/5V*
X172720000Y-58420000D03*
G04 #@! TO.P,K2,4*
G04 #@! TO.N,/PH*
X185420000Y-66040000D03*
G04 #@! TO.P,K2,3*
G04 #@! TO.N,Net-(J3-Pad2)*
X187960000Y-58420000D03*
G04 #@! TD*
G04 #@! TO.P,K3,3*
G04 #@! TO.N,Net-(J4-Pad2)*
X187960000Y-69850000D03*
G04 #@! TO.P,K3,4*
G04 #@! TO.N,/PH*
X185420000Y-77470000D03*
G04 #@! TO.P,K3,2*
G04 #@! TO.N,/5V*
X172720000Y-69850000D03*
G04 #@! TO.P,K3,1*
G04 #@! TO.N,/OUT3*
X172720000Y-77470000D03*
G04 #@! TD*
G04 #@! TO.P,K4,1*
G04 #@! TO.N,/OUT4*
X172720000Y-88900000D03*
G04 #@! TO.P,K4,2*
G04 #@! TO.N,/5V*
X172720000Y-81280000D03*
G04 #@! TO.P,K4,4*
G04 #@! TO.N,/PH*
X185420000Y-88900000D03*
G04 #@! TO.P,K4,3*
G04 #@! TO.N,Net-(J5-Pad2)*
X187960000Y-81280000D03*
G04 #@! TD*
G04 #@! TO.P,K5,1*
G04 #@! TO.N,/OUT5*
X172720000Y-100330000D03*
G04 #@! TO.P,K5,2*
G04 #@! TO.N,/5V*
X172720000Y-92710000D03*
G04 #@! TO.P,K5,4*
G04 #@! TO.N,/PH*
X185420000Y-100330000D03*
G04 #@! TO.P,K5,3*
G04 #@! TO.N,Net-(J6-Pad2)*
X187960000Y-92710000D03*
G04 #@! TD*
G04 #@! TO.P,K6,3*
G04 #@! TO.N,Net-(J7-Pad2)*
X187960000Y-104140000D03*
G04 #@! TO.P,K6,4*
G04 #@! TO.N,/PH*
X185420000Y-111760000D03*
G04 #@! TO.P,K6,2*
G04 #@! TO.N,/5V*
X172720000Y-104140000D03*
G04 #@! TO.P,K6,1*
G04 #@! TO.N,/OUT6*
X172720000Y-111760000D03*
G04 #@! TD*
D13*
G04 #@! TO.P,J10,1*
G04 #@! TO.N,/3V3*
X143891000Y-124460000D03*
D14*
G04 #@! TO.P,J10,2*
G04 #@! TO.N,/TXD*
X146431000Y-124460000D03*
G04 #@! TO.P,J10,3*
G04 #@! TO.N,/RXD*
X148971000Y-124460000D03*
G04 #@! TO.P,J10,4*
G04 #@! TO.N,/GND*
X151511000Y-124460000D03*
G04 #@! TD*
D11*
G04 #@! TO.P,IN1,1*
G04 #@! TO.N,/PH*
X195072000Y-133350000D03*
D12*
G04 #@! TO.P,IN1,2*
G04 #@! TO.N,/NE*
X195072000Y-128270000D03*
G04 #@! TD*
D15*
G04 #@! TO.N,/5V*
X158369000Y-111379004D03*
G04 #@! TO.N,/GND*
X158115000Y-48260000D03*
G04 #@! TO.N,/3V3*
X136524994Y-106680000D03*
X144018000Y-88347000D03*
G04 #@! TO.N,/SER*
X138312000Y-87875000D03*
X137160000Y-103124000D03*
G04 #@! TO.N,/TXD*
X151638000Y-75946000D03*
G04 #@! TO.N,/RXD*
X152400000Y-78105000D03*
G04 #@! TO.N,Net-(R10-Pad2)*
X153543000Y-83947000D03*
X153162000Y-117983000D03*
G04 #@! TD*
D16*
G04 #@! TO.N,/5V*
X158369000Y-111506000D02*
X158369000Y-111379004D01*
X162433000Y-115570000D02*
X158369000Y-111506000D01*
X172720000Y-115570000D02*
X162433000Y-115570000D01*
G04 #@! TO.N,/GND*
X158115000Y-50165000D02*
X158115000Y-48260000D01*
X155956000Y-52324000D02*
X158115000Y-50165000D01*
X138049000Y-52324000D02*
X155956000Y-52324000D01*
X135255000Y-49530000D02*
X138049000Y-52324000D01*
G04 #@! TO.N,/3V3*
X143891000Y-113480321D02*
X143891000Y-123360000D01*
X143891000Y-123360000D02*
X143891000Y-124460000D01*
X137090679Y-106680000D02*
X143891000Y-113480321D01*
X136524994Y-106680000D02*
X137090679Y-106680000D01*
X136924993Y-106280001D02*
X136924999Y-106280001D01*
X136524994Y-106680000D02*
X136924993Y-106280001D01*
X144018000Y-99187000D02*
X144018000Y-88347000D01*
X136924999Y-106280001D02*
X144018000Y-99187000D01*
D17*
G04 #@! TO.N,Net-(J2-Pad2)*
X189230000Y-48260000D02*
X187960000Y-46990000D01*
X195000000Y-48260000D02*
X189230000Y-48260000D01*
G04 #@! TO.N,Net-(J3-Pad2)*
X189230000Y-59690000D02*
X187960000Y-58420000D01*
X195000000Y-59690000D02*
X189230000Y-59690000D01*
G04 #@! TO.N,Net-(J4-Pad2)*
X189230000Y-71120000D02*
X187960000Y-69850000D01*
X195000000Y-71120000D02*
X189230000Y-71120000D01*
G04 #@! TO.N,Net-(J5-Pad2)*
X189230000Y-82550000D02*
X187960000Y-81280000D01*
X195000000Y-82550000D02*
X189230000Y-82550000D01*
G04 #@! TO.N,Net-(J6-Pad2)*
X195000000Y-93980000D02*
X189230000Y-93980000D01*
X189230000Y-93980000D02*
X187960000Y-92710000D01*
G04 #@! TO.N,Net-(J7-Pad2)*
X195000000Y-105410000D02*
X189230000Y-105410000D01*
X189230000Y-105410000D02*
X187960000Y-104140000D01*
G04 #@! TO.N,Net-(J8-Pad2)*
X195000000Y-116840000D02*
X189230000Y-116840000D01*
X189230000Y-116840000D02*
X187960000Y-115570000D01*
D16*
G04 #@! TO.N,/SER*
X137160000Y-102324002D02*
X137160000Y-103124000D01*
X137160000Y-89027000D02*
X137160000Y-102324002D01*
X138312000Y-87875000D02*
X137160000Y-89027000D01*
G04 #@! TO.N,/TXD*
X146431000Y-123257919D02*
X150114000Y-119574919D01*
X146431000Y-124460000D02*
X146431000Y-123257919D01*
X150114000Y-77470000D02*
X151638000Y-75946000D01*
X150114000Y-119574919D02*
X150114000Y-77470000D01*
G04 #@! TO.N,/RXD*
X148971000Y-122809000D02*
X148971000Y-124460000D01*
X152400000Y-78670685D02*
X152146000Y-78924685D01*
X152146000Y-78924685D02*
X152146000Y-119634000D01*
X152400000Y-78105000D02*
X152400000Y-78670685D01*
X152146000Y-119634000D02*
X148971000Y-122809000D01*
G04 #@! TO.N,Net-(R10-Pad2)*
X153543000Y-84512685D02*
X153289000Y-84766685D01*
X153543000Y-83947000D02*
X153543000Y-84512685D01*
X153289000Y-117856000D02*
X153162000Y-117983000D01*
X153289000Y-84766685D02*
X153289000Y-117856000D01*
D18*
G04 #@! TO.N,/PH*
X185420000Y-127198000D02*
X185420000Y-123190000D01*
X195072000Y-133350000D02*
X191572000Y-133350000D01*
X191572000Y-133350000D02*
X185420000Y-127198000D01*
X182880000Y-54610000D02*
X185420000Y-54610000D01*
X181864000Y-55626000D02*
X182880000Y-54610000D01*
X183864366Y-66040000D02*
X181864000Y-66040000D01*
X185420000Y-66040000D02*
X183864366Y-66040000D01*
X181864000Y-66040000D02*
X181864000Y-55626000D01*
X185420000Y-77470000D02*
X183864366Y-77470000D01*
X183864366Y-77470000D02*
X181864000Y-77470000D01*
X181864000Y-77470000D02*
X181864000Y-66040000D01*
X183864366Y-88900000D02*
X181864000Y-88900000D01*
X185420000Y-88900000D02*
X183864366Y-88900000D01*
X181864000Y-88900000D02*
X181864000Y-77470000D01*
X183864366Y-100330000D02*
X181864000Y-100330000D01*
X185420000Y-100330000D02*
X183864366Y-100330000D01*
X181864000Y-100330000D02*
X181864000Y-88900000D01*
X181991000Y-111760000D02*
X181864000Y-111633000D01*
X185420000Y-111760000D02*
X181991000Y-111760000D01*
X181864000Y-111633000D02*
X181864000Y-100330000D01*
X181864000Y-119634000D02*
X181864000Y-118237000D01*
X185420000Y-123190000D02*
X181864000Y-119634000D01*
X181864000Y-118237000D02*
X181864000Y-111633000D01*
G04 #@! TD*
M02*
