M48
;DRILL file {KiCad 5.0.0-fee4fd1~66~ubuntu16.04.1} date Thu Sep 27 13:50:41 2018
;FORMAT={-:-/ absolute / metric / decimal}
FMAT,2
METRIC,TZ
T1C0.400
T2C1.524
%
G90
G05
M71
T1
X150.114Y-99.949
X153.416Y-90.17
X155.829Y-80.518
X171.577Y-94.869
X174.371Y-92.837
X176.022Y-87.757
X180.848Y-98.298
T2
X144.78Y-113.03
X144.78Y-118.11
X144.78Y-101.6
X144.78Y-106.68
X172.72Y-116.84
X177.8Y-116.84
X144.78Y-90.17
X144.78Y-95.25
X186.69Y-99.06
X186.69Y-104.14
X186.69Y-109.22
X144.78Y-78.74
X144.78Y-83.82
X186.69Y-82.55
X186.69Y-87.63
X186.69Y-92.71
T0
M30
