G04 #@! TF.GenerationSoftware,KiCad,Pcbnew,5.0.0-fee4fd1~66~ubuntu16.04.1*
G04 #@! TF.CreationDate,2018-09-27T13:50:44+02:00*
G04 #@! TF.ProjectId,LedDimmer_ESP8266,4C656444696D6D65725F455350383236,rev?*
G04 #@! TF.SameCoordinates,Original*
G04 #@! TF.FileFunction,Copper,L1,Top,Signal*
G04 #@! TF.FilePolarity,Positive*
%FSLAX46Y46*%
G04 Gerber Fmt 4.6, Leading zero omitted, Abs format (unit mm)*
G04 Created by KiCad (PCBNEW 5.0.0-fee4fd1~66~ubuntu16.04.1) date Thu Sep 27 13:50:44 2018*
%MOMM*%
%LPD*%
G01*
G04 APERTURE LIST*
G04 #@! TA.AperFunction,ComponentPad*
%ADD10R,2.540000X2.540000*%
G04 #@! TD*
G04 #@! TA.AperFunction,ComponentPad*
%ADD11C,2.540000*%
G04 #@! TD*
G04 #@! TA.AperFunction,SMDPad,CuDef*
%ADD12R,1.000000X1.250000*%
G04 #@! TD*
G04 #@! TA.AperFunction,SMDPad,CuDef*
%ADD13R,0.700000X1.300000*%
G04 #@! TD*
G04 #@! TA.AperFunction,SMDPad,CuDef*
%ADD14R,2.032000X3.657600*%
G04 #@! TD*
G04 #@! TA.AperFunction,SMDPad,CuDef*
%ADD15R,2.032000X1.016000*%
G04 #@! TD*
G04 #@! TA.AperFunction,SMDPad,CuDef*
%ADD16R,3.000000X1.000000*%
G04 #@! TD*
G04 #@! TA.AperFunction,ViaPad*
%ADD17C,0.600000*%
G04 #@! TD*
G04 #@! TA.AperFunction,Conductor*
%ADD18C,0.250000*%
G04 #@! TD*
G04 #@! TA.AperFunction,Conductor*
%ADD19C,2.000000*%
G04 #@! TD*
G04 #@! TA.AperFunction,Conductor*
%ADD20C,1.000000*%
G04 #@! TD*
G04 #@! TA.AperFunction,Conductor*
%ADD21C,0.254000*%
G04 #@! TD*
G04 APERTURE END LIST*
D10*
G04 #@! TO.P,5VIN1,1*
G04 #@! TO.N,VCC*
X172720000Y-116840000D03*
D11*
G04 #@! TO.P,5VIN1,2*
G04 #@! TO.N,GND*
X177800000Y-116840000D03*
G04 #@! TD*
D10*
G04 #@! TO.P,BT1,1*
G04 #@! TO.N,/BTN1*
X144780000Y-113030000D03*
D11*
G04 #@! TO.P,BT1,2*
G04 #@! TO.N,GND*
X144780000Y-118110000D03*
G04 #@! TD*
D10*
G04 #@! TO.P,BT2,1*
G04 #@! TO.N,/BTN2*
X144780000Y-90170000D03*
D11*
G04 #@! TO.P,BT2,2*
G04 #@! TO.N,GND*
X144780000Y-95250000D03*
G04 #@! TD*
D12*
G04 #@! TO.P,C1,1*
G04 #@! TO.N,/3V3*
X164100000Y-110490000D03*
G04 #@! TO.P,C1,2*
G04 #@! TO.N,GND*
X166100000Y-110490000D03*
G04 #@! TD*
D10*
G04 #@! TO.P,LED_BT1,1*
G04 #@! TO.N,VCC*
X144780000Y-101600000D03*
D11*
G04 #@! TO.P,LED_BT1,2*
G04 #@! TO.N,/LED1*
X144780000Y-106680000D03*
G04 #@! TD*
D10*
G04 #@! TO.P,LED_BT2,1*
G04 #@! TO.N,VCC*
X144780000Y-78740000D03*
D11*
G04 #@! TO.P,LED_BT2,2*
G04 #@! TO.N,/LED2*
X144780000Y-83820000D03*
G04 #@! TD*
D10*
G04 #@! TO.P,LED_STRIP_1,1*
G04 #@! TO.N,VCC*
X186690000Y-92710000D03*
D11*
G04 #@! TO.P,LED_STRIP_1,2*
G04 #@! TO.N,/OUT1*
X186690000Y-87630000D03*
G04 #@! TO.P,LED_STRIP_1,3*
G04 #@! TO.N,GND*
X186690000Y-82550000D03*
G04 #@! TD*
D10*
G04 #@! TO.P,LED_STRIP_2,1*
G04 #@! TO.N,VCC*
X186690000Y-109220000D03*
D11*
G04 #@! TO.P,LED_STRIP_2,2*
G04 #@! TO.N,/OUT2*
X186690000Y-104140000D03*
G04 #@! TO.P,LED_STRIP_2,3*
G04 #@! TO.N,GND*
X186690000Y-99060000D03*
G04 #@! TD*
D13*
G04 #@! TO.P,R1,1*
G04 #@! TO.N,/3V3*
X154620000Y-110490000D03*
G04 #@! TO.P,R1,2*
G04 #@! TO.N,/BTN1*
X152720000Y-110490000D03*
G04 #@! TD*
G04 #@! TO.P,R2,1*
G04 #@! TO.N,/3V3*
X157160000Y-90170000D03*
G04 #@! TO.P,R2,2*
G04 #@! TO.N,/BTN2*
X155260000Y-90170000D03*
G04 #@! TD*
D14*
G04 #@! TO.P,U1,4*
G04 #@! TO.N,N/C*
X154178000Y-116840000D03*
D15*
G04 #@! TO.P,U1,2*
G04 #@! TO.N,/3V3*
X160782000Y-116840000D03*
G04 #@! TO.P,U1,3*
G04 #@! TO.N,VCC*
X160782000Y-114554000D03*
G04 #@! TO.P,U1,1*
G04 #@! TO.N,GND*
X160782000Y-119126000D03*
G04 #@! TD*
D16*
G04 #@! TO.P,U2,1*
G04 #@! TO.N,/3V3*
X162180000Y-89520000D03*
G04 #@! TO.P,U2,2*
G04 #@! TO.N,Net-(U2-Pad2)*
X162180000Y-91520000D03*
G04 #@! TO.P,U2,3*
G04 #@! TO.N,/3V3*
X162180000Y-93520000D03*
G04 #@! TO.P,U2,4*
G04 #@! TO.N,Net-(U2-Pad4)*
X162180000Y-95520000D03*
G04 #@! TO.P,U2,5*
G04 #@! TO.N,/BTN2*
X162180000Y-97520000D03*
G04 #@! TO.P,U2,6*
G04 #@! TO.N,/BTN1*
X162180000Y-99520000D03*
G04 #@! TO.P,U2,7*
G04 #@! TO.N,Net-(U2-Pad7)*
X162180000Y-101520000D03*
G04 #@! TO.P,U2,8*
G04 #@! TO.N,/3V3*
X162180000Y-103520000D03*
G04 #@! TO.P,U2,9*
G04 #@! TO.N,GND*
X178180000Y-103520000D03*
G04 #@! TO.P,U2,10*
X178180000Y-101520000D03*
G04 #@! TO.P,U2,11*
G04 #@! TO.N,Net-(U2-Pad11)*
X178180000Y-99520000D03*
G04 #@! TO.P,U2,12*
G04 #@! TO.N,/3V3*
X178180000Y-97520000D03*
G04 #@! TO.P,U2,13*
G04 #@! TO.N,/O2*
X178180000Y-95520000D03*
G04 #@! TO.P,U2,14*
G04 #@! TO.N,/O1*
X178180000Y-93520000D03*
G04 #@! TO.P,U2,15*
G04 #@! TO.N,/L2*
X178180000Y-91520000D03*
G04 #@! TO.P,U2,16*
G04 #@! TO.N,/L1*
X178180000Y-89520000D03*
G04 #@! TD*
D17*
G04 #@! TO.N,/BTN2*
X153416000Y-90170000D03*
G04 #@! TO.N,/L1*
X176022000Y-87757000D03*
G04 #@! TO.N,/L2*
X174371000Y-92837000D03*
G04 #@! TO.N,/LED1*
X150114000Y-99949000D03*
G04 #@! TO.N,/O2*
X180848000Y-98298000D03*
G04 #@! TO.N,/O1*
X171577000Y-94869000D03*
G04 #@! TO.N,VCC*
X155829000Y-80518000D03*
G04 #@! TD*
D18*
G04 #@! TO.N,/BTN1*
X152720000Y-110490000D02*
X152720000Y-106741000D01*
X159941000Y-99520000D02*
X162180000Y-99520000D01*
X152720000Y-106741000D02*
X159941000Y-99520000D01*
X144780000Y-113030000D02*
X148971000Y-113030000D01*
X151511000Y-110490000D02*
X152720000Y-110490000D01*
X148971000Y-113030000D02*
X151511000Y-110490000D01*
G04 #@! TO.N,/BTN2*
X155260000Y-90170000D02*
X155260000Y-92903000D01*
X159877000Y-97520000D02*
X162180000Y-97520000D01*
X155260000Y-92903000D02*
X159877000Y-97520000D01*
X153416000Y-90170000D02*
X155260000Y-90170000D01*
G04 #@! TO.N,/3V3*
X154620000Y-110490000D02*
X164100000Y-110490000D01*
X157160000Y-90170000D02*
X158369000Y-90170000D01*
X159019000Y-89520000D02*
X162180000Y-89520000D01*
X158369000Y-90170000D02*
X159019000Y-89520000D01*
X162180000Y-89520000D02*
X164323000Y-89520000D01*
X165529000Y-90726000D02*
X165529000Y-93520000D01*
X164323000Y-89520000D02*
X165529000Y-90726000D01*
X162180000Y-93520000D02*
X165529000Y-93520000D01*
X169529000Y-97520000D02*
X171847000Y-97520000D01*
X165529000Y-93520000D02*
X169529000Y-97520000D01*
X162180000Y-103520000D02*
X165847000Y-103520000D01*
X171847000Y-97520000D02*
X178180000Y-97520000D01*
X165847000Y-103520000D02*
X171847000Y-97520000D01*
X160782000Y-116840000D02*
X162306000Y-116840000D01*
X164100000Y-115046000D02*
X164100000Y-110490000D01*
X162306000Y-116840000D02*
X164100000Y-115046000D01*
X164100000Y-110490000D02*
X164100000Y-110379000D01*
X164100000Y-110379000D02*
X162180000Y-108459000D01*
X162180000Y-108459000D02*
X162180000Y-103520000D01*
G04 #@! TO.N,/L1*
X178180000Y-89520000D02*
X178180000Y-89153000D01*
X178180000Y-89153000D02*
X176784000Y-87757000D01*
X176784000Y-87757000D02*
X176022000Y-87757000D01*
X178450000Y-89790000D02*
X178180000Y-89520000D01*
G04 #@! TO.N,/L2*
X178180000Y-91520000D02*
X175688000Y-91520000D01*
X175688000Y-91520000D02*
X174371000Y-92837000D01*
G04 #@! TO.N,/LED1*
X147574000Y-106680000D02*
X144780000Y-106680000D01*
X150114000Y-104140000D02*
X147574000Y-106680000D01*
X150114000Y-99949000D02*
X150114000Y-104140000D01*
X146050000Y-106680000D02*
X144780000Y-106680000D01*
G04 #@! TO.N,/O2*
X178180000Y-95520000D02*
X180356000Y-95520000D01*
X180848000Y-96012000D02*
X180848000Y-98298000D01*
X180356000Y-95520000D02*
X180848000Y-96012000D01*
G04 #@! TO.N,/O1*
X178180000Y-93520000D02*
X176355000Y-93520000D01*
X175006000Y-94869000D02*
X171577000Y-94869000D01*
X176355000Y-93520000D02*
X175006000Y-94869000D01*
G04 #@! TO.N,VCC*
X154051000Y-78740000D02*
X144780000Y-78740000D01*
X155829000Y-80518000D02*
X154051000Y-78740000D01*
X144780000Y-78740000D02*
X143002000Y-78740000D01*
X141986000Y-114935000D02*
X142748000Y-115697000D01*
X141986000Y-79756000D02*
X141986000Y-101727000D01*
X141986000Y-101727000D02*
X141986000Y-114935000D01*
X143002000Y-78740000D02*
X141986000Y-79756000D01*
D19*
X172720000Y-116840000D02*
X180340000Y-109220000D01*
X186690000Y-109220000D02*
X187780000Y-109220000D01*
X183420000Y-92710000D02*
X186690000Y-92710000D01*
X183000000Y-93130000D02*
X183420000Y-92710000D01*
X183000000Y-109220000D02*
X183000000Y-93130000D01*
X183000000Y-109220000D02*
X186690000Y-109220000D01*
X180340000Y-109220000D02*
X183000000Y-109220000D01*
D20*
X142510000Y-101600000D02*
X142383000Y-101727000D01*
X144780000Y-101600000D02*
X142510000Y-101600000D01*
X142383000Y-115332000D02*
X142748000Y-115697000D01*
X142383000Y-101727000D02*
X142383000Y-115332000D01*
X150622000Y-115697000D02*
X152908000Y-113411000D01*
X142748000Y-115697000D02*
X150622000Y-115697000D01*
X158766000Y-114554000D02*
X160782000Y-114554000D01*
X157623000Y-113411000D02*
X158766000Y-114554000D01*
X152908000Y-113411000D02*
X157623000Y-113411000D01*
X142510000Y-78740000D02*
X144780000Y-78740000D01*
X142383000Y-78867000D02*
X142510000Y-78740000D01*
X142383000Y-101727000D02*
X142383000Y-78867000D01*
G04 #@! TD*
D21*
G04 #@! TO.N,GND*
G36*
X190290001Y-120290000D02*
X141710000Y-120290000D01*
X141710000Y-119457777D01*
X143611828Y-119457777D01*
X143743520Y-119752657D01*
X144451036Y-120024261D01*
X145208632Y-120004436D01*
X145816480Y-119752657D01*
X145948172Y-119457777D01*
X145902145Y-119411750D01*
X159131000Y-119411750D01*
X159131000Y-119760309D01*
X159227673Y-119993698D01*
X159406301Y-120172327D01*
X159639690Y-120269000D01*
X160496250Y-120269000D01*
X160655000Y-120110250D01*
X160655000Y-119253000D01*
X160909000Y-119253000D01*
X160909000Y-120110250D01*
X161067750Y-120269000D01*
X161924310Y-120269000D01*
X162157699Y-120172327D01*
X162336327Y-119993698D01*
X162433000Y-119760309D01*
X162433000Y-119411750D01*
X162274250Y-119253000D01*
X160909000Y-119253000D01*
X160655000Y-119253000D01*
X159289750Y-119253000D01*
X159131000Y-119411750D01*
X145902145Y-119411750D01*
X144780000Y-118289605D01*
X143611828Y-119457777D01*
X141710000Y-119457777D01*
X141710000Y-116264131D01*
X141866387Y-116420518D01*
X141929711Y-116515289D01*
X142305145Y-116766146D01*
X142636217Y-116832000D01*
X142748000Y-116854235D01*
X142859783Y-116832000D01*
X143322392Y-116832000D01*
X143432221Y-116941829D01*
X143137343Y-117073520D01*
X142865739Y-117781036D01*
X142885564Y-118538632D01*
X143137343Y-119146480D01*
X143432223Y-119278172D01*
X144600395Y-118110000D01*
X144586253Y-118095858D01*
X144765858Y-117916253D01*
X144780000Y-117930395D01*
X144794143Y-117916253D01*
X144973748Y-118095858D01*
X144959605Y-118110000D01*
X146127777Y-119278172D01*
X146422657Y-119146480D01*
X146694261Y-118438964D01*
X146674436Y-117681368D01*
X146422657Y-117073520D01*
X146127779Y-116941829D01*
X146237608Y-116832000D01*
X150510217Y-116832000D01*
X150622000Y-116854235D01*
X150733783Y-116832000D01*
X151064855Y-116766146D01*
X151440289Y-116515289D01*
X151503613Y-116420518D01*
X152514560Y-115409571D01*
X152514560Y-118668800D01*
X152563843Y-118916565D01*
X152704191Y-119126609D01*
X152914235Y-119266957D01*
X153162000Y-119316240D01*
X155194000Y-119316240D01*
X155441765Y-119266957D01*
X155651809Y-119126609D01*
X155792157Y-118916565D01*
X155841440Y-118668800D01*
X155841440Y-115011200D01*
X155792157Y-114763435D01*
X155651809Y-114553391D01*
X155640748Y-114546000D01*
X157152869Y-114546000D01*
X157884389Y-115277521D01*
X157947711Y-115372289D01*
X158279419Y-115593929D01*
X158323145Y-115623146D01*
X158765999Y-115711235D01*
X158877782Y-115689000D01*
X159663240Y-115689000D01*
X159703459Y-115697000D01*
X159518235Y-115733843D01*
X159308191Y-115874191D01*
X159167843Y-116084235D01*
X159118560Y-116332000D01*
X159118560Y-117348000D01*
X159167843Y-117595765D01*
X159308191Y-117805809D01*
X159518235Y-117946157D01*
X159703459Y-117983000D01*
X159639690Y-117983000D01*
X159406301Y-118079673D01*
X159227673Y-118258302D01*
X159131000Y-118491691D01*
X159131000Y-118840250D01*
X159289750Y-118999000D01*
X160655000Y-118999000D01*
X160655000Y-118979000D01*
X160909000Y-118979000D01*
X160909000Y-118999000D01*
X162274250Y-118999000D01*
X162433000Y-118840250D01*
X162433000Y-118491691D01*
X162336327Y-118258302D01*
X162157699Y-118079673D01*
X161924310Y-117983000D01*
X161860541Y-117983000D01*
X162045765Y-117946157D01*
X162255809Y-117805809D01*
X162395239Y-117597138D01*
X162602537Y-117555904D01*
X162853929Y-117387929D01*
X162896331Y-117324470D01*
X164584473Y-115636329D01*
X164647929Y-115593929D01*
X164815904Y-115342537D01*
X164860000Y-115120852D01*
X164860000Y-115120848D01*
X164874888Y-115046001D01*
X164860000Y-114971154D01*
X164860000Y-111704982D01*
X165057809Y-111572809D01*
X165098654Y-111511680D01*
X165240302Y-111653327D01*
X165473691Y-111750000D01*
X165814250Y-111750000D01*
X165973000Y-111591250D01*
X165973000Y-110617000D01*
X166227000Y-110617000D01*
X166227000Y-111591250D01*
X166385750Y-111750000D01*
X166726309Y-111750000D01*
X166959698Y-111653327D01*
X167138327Y-111474699D01*
X167235000Y-111241310D01*
X167235000Y-110775750D01*
X167076250Y-110617000D01*
X166227000Y-110617000D01*
X165973000Y-110617000D01*
X165953000Y-110617000D01*
X165953000Y-110363000D01*
X165973000Y-110363000D01*
X165973000Y-109388750D01*
X166227000Y-109388750D01*
X166227000Y-110363000D01*
X167076250Y-110363000D01*
X167235000Y-110204250D01*
X167235000Y-109738690D01*
X167138327Y-109505301D01*
X166959698Y-109326673D01*
X166726309Y-109230000D01*
X166385750Y-109230000D01*
X166227000Y-109388750D01*
X165973000Y-109388750D01*
X165814250Y-109230000D01*
X165473691Y-109230000D01*
X165240302Y-109326673D01*
X165098654Y-109468320D01*
X165057809Y-109407191D01*
X164847765Y-109266843D01*
X164600000Y-109217560D01*
X164013362Y-109217560D01*
X162940000Y-108144199D01*
X162940000Y-104667440D01*
X163680000Y-104667440D01*
X163927765Y-104618157D01*
X164137809Y-104477809D01*
X164269982Y-104280000D01*
X165772153Y-104280000D01*
X165847000Y-104294888D01*
X165921847Y-104280000D01*
X165921852Y-104280000D01*
X166143537Y-104235904D01*
X166394929Y-104067929D01*
X166437331Y-104004470D01*
X166636051Y-103805750D01*
X176045000Y-103805750D01*
X176045000Y-104146310D01*
X176141673Y-104379699D01*
X176320302Y-104558327D01*
X176553691Y-104655000D01*
X177894250Y-104655000D01*
X178053000Y-104496250D01*
X178053000Y-103647000D01*
X178307000Y-103647000D01*
X178307000Y-104496250D01*
X178465750Y-104655000D01*
X179806309Y-104655000D01*
X180039698Y-104558327D01*
X180218327Y-104379699D01*
X180315000Y-104146310D01*
X180315000Y-103805750D01*
X180156250Y-103647000D01*
X178307000Y-103647000D01*
X178053000Y-103647000D01*
X176203750Y-103647000D01*
X176045000Y-103805750D01*
X166636051Y-103805750D01*
X168636051Y-101805750D01*
X176045000Y-101805750D01*
X176045000Y-102146310D01*
X176141673Y-102379699D01*
X176281975Y-102520000D01*
X176141673Y-102660301D01*
X176045000Y-102893690D01*
X176045000Y-103234250D01*
X176203750Y-103393000D01*
X178053000Y-103393000D01*
X178053000Y-102543750D01*
X178029250Y-102520000D01*
X178053000Y-102496250D01*
X178053000Y-101647000D01*
X178307000Y-101647000D01*
X178307000Y-102496250D01*
X178330750Y-102520000D01*
X178307000Y-102543750D01*
X178307000Y-103393000D01*
X180156250Y-103393000D01*
X180315000Y-103234250D01*
X180315000Y-102893690D01*
X180218327Y-102660301D01*
X180078025Y-102520000D01*
X180218327Y-102379699D01*
X180315000Y-102146310D01*
X180315000Y-101805750D01*
X180156250Y-101647000D01*
X178307000Y-101647000D01*
X178053000Y-101647000D01*
X176203750Y-101647000D01*
X176045000Y-101805750D01*
X168636051Y-101805750D01*
X172161803Y-98280000D01*
X176090018Y-98280000D01*
X176222191Y-98477809D01*
X176285334Y-98520000D01*
X176222191Y-98562191D01*
X176081843Y-98772235D01*
X176032560Y-99020000D01*
X176032560Y-100020000D01*
X176081843Y-100267765D01*
X176222191Y-100477809D01*
X176283320Y-100518655D01*
X176141673Y-100660301D01*
X176045000Y-100893690D01*
X176045000Y-101234250D01*
X176203750Y-101393000D01*
X178053000Y-101393000D01*
X178053000Y-101373000D01*
X178307000Y-101373000D01*
X178307000Y-101393000D01*
X180156250Y-101393000D01*
X180315000Y-101234250D01*
X180315000Y-100893690D01*
X180218327Y-100660301D01*
X180076680Y-100518655D01*
X180137809Y-100477809D01*
X180278157Y-100267765D01*
X180327440Y-100020000D01*
X180327440Y-99094414D01*
X180662017Y-99233000D01*
X181033983Y-99233000D01*
X181365001Y-99095888D01*
X181365000Y-107585000D01*
X180501025Y-107585000D01*
X180339999Y-107552970D01*
X180178973Y-107585000D01*
X180178969Y-107585000D01*
X179702055Y-107679864D01*
X179161231Y-108041231D01*
X179070014Y-108177747D01*
X172325202Y-114922560D01*
X171450000Y-114922560D01*
X171202235Y-114971843D01*
X170992191Y-115112191D01*
X170851843Y-115322235D01*
X170802560Y-115570000D01*
X170802560Y-118110000D01*
X170851843Y-118357765D01*
X170992191Y-118567809D01*
X171202235Y-118708157D01*
X171450000Y-118757440D01*
X173990000Y-118757440D01*
X174237765Y-118708157D01*
X174447809Y-118567809D01*
X174588157Y-118357765D01*
X174621969Y-118187777D01*
X176631828Y-118187777D01*
X176763520Y-118482657D01*
X177471036Y-118754261D01*
X178228632Y-118734436D01*
X178836480Y-118482657D01*
X178968172Y-118187777D01*
X177800000Y-117019605D01*
X176631828Y-118187777D01*
X174621969Y-118187777D01*
X174637440Y-118110000D01*
X174637440Y-117234798D01*
X175361202Y-116511036D01*
X175885739Y-116511036D01*
X175905564Y-117268632D01*
X176157343Y-117876480D01*
X176452223Y-118008172D01*
X177620395Y-116840000D01*
X177979605Y-116840000D01*
X179147777Y-118008172D01*
X179442657Y-117876480D01*
X179714261Y-117168964D01*
X179694436Y-116411368D01*
X179442657Y-115803520D01*
X179147777Y-115671828D01*
X177979605Y-116840000D01*
X177620395Y-116840000D01*
X176452223Y-115671828D01*
X176157343Y-115803520D01*
X175885739Y-116511036D01*
X175361202Y-116511036D01*
X176380015Y-115492223D01*
X176631828Y-115492223D01*
X177800000Y-116660395D01*
X178968172Y-115492223D01*
X178836480Y-115197343D01*
X178128964Y-114925739D01*
X177371368Y-114945564D01*
X176763520Y-115197343D01*
X176631828Y-115492223D01*
X176380015Y-115492223D01*
X181017239Y-110855000D01*
X182838969Y-110855000D01*
X183000000Y-110887031D01*
X183161031Y-110855000D01*
X184900178Y-110855000D01*
X184962191Y-110947809D01*
X185172235Y-111088157D01*
X185420000Y-111137440D01*
X187960000Y-111137440D01*
X188207765Y-111088157D01*
X188417809Y-110947809D01*
X188558157Y-110737765D01*
X188574517Y-110655518D01*
X188958769Y-110398769D01*
X189320136Y-109857945D01*
X189447031Y-109220000D01*
X189320136Y-108582055D01*
X188958769Y-108041231D01*
X188574517Y-107784482D01*
X188558157Y-107702235D01*
X188417809Y-107492191D01*
X188207765Y-107351843D01*
X187960000Y-107302560D01*
X185420000Y-107302560D01*
X185172235Y-107351843D01*
X184962191Y-107492191D01*
X184900178Y-107585000D01*
X184635000Y-107585000D01*
X184635000Y-103761072D01*
X184785000Y-103761072D01*
X184785000Y-104518928D01*
X185075019Y-105219096D01*
X185610904Y-105754981D01*
X186311072Y-106045000D01*
X187068928Y-106045000D01*
X187769096Y-105754981D01*
X188304981Y-105219096D01*
X188595000Y-104518928D01*
X188595000Y-103761072D01*
X188304981Y-103060904D01*
X187769096Y-102525019D01*
X187068928Y-102235000D01*
X186311072Y-102235000D01*
X185610904Y-102525019D01*
X185075019Y-103060904D01*
X184785000Y-103761072D01*
X184635000Y-103761072D01*
X184635000Y-100407777D01*
X185521828Y-100407777D01*
X185653520Y-100702657D01*
X186361036Y-100974261D01*
X187118632Y-100954436D01*
X187726480Y-100702657D01*
X187858172Y-100407777D01*
X186690000Y-99239605D01*
X185521828Y-100407777D01*
X184635000Y-100407777D01*
X184635000Y-98731036D01*
X184775739Y-98731036D01*
X184795564Y-99488632D01*
X185047343Y-100096480D01*
X185342223Y-100228172D01*
X186510395Y-99060000D01*
X186869605Y-99060000D01*
X188037777Y-100228172D01*
X188332657Y-100096480D01*
X188604261Y-99388964D01*
X188584436Y-98631368D01*
X188332657Y-98023520D01*
X188037777Y-97891828D01*
X186869605Y-99060000D01*
X186510395Y-99060000D01*
X185342223Y-97891828D01*
X185047343Y-98023520D01*
X184775739Y-98731036D01*
X184635000Y-98731036D01*
X184635000Y-97712223D01*
X185521828Y-97712223D01*
X186690000Y-98880395D01*
X187858172Y-97712223D01*
X187726480Y-97417343D01*
X187018964Y-97145739D01*
X186261368Y-97165564D01*
X185653520Y-97417343D01*
X185521828Y-97712223D01*
X184635000Y-97712223D01*
X184635000Y-94345000D01*
X184900178Y-94345000D01*
X184962191Y-94437809D01*
X185172235Y-94578157D01*
X185420000Y-94627440D01*
X187960000Y-94627440D01*
X188207765Y-94578157D01*
X188417809Y-94437809D01*
X188558157Y-94227765D01*
X188607440Y-93980000D01*
X188607440Y-91440000D01*
X188558157Y-91192235D01*
X188417809Y-90982191D01*
X188207765Y-90841843D01*
X187960000Y-90792560D01*
X185420000Y-90792560D01*
X185172235Y-90841843D01*
X184962191Y-90982191D01*
X184900178Y-91075000D01*
X183581031Y-91075000D01*
X183420000Y-91042969D01*
X183258969Y-91075000D01*
X182782055Y-91169864D01*
X182241231Y-91531231D01*
X182150012Y-91667750D01*
X181957748Y-91860014D01*
X181821232Y-91951231D01*
X181730015Y-92087747D01*
X181459865Y-92492055D01*
X181332969Y-93130000D01*
X181365001Y-93291035D01*
X181365001Y-95443406D01*
X181332473Y-95421671D01*
X180946331Y-95035529D01*
X180903929Y-94972071D01*
X180652537Y-94804096D01*
X180430852Y-94760000D01*
X180430847Y-94760000D01*
X180356000Y-94745112D01*
X180281153Y-94760000D01*
X180269982Y-94760000D01*
X180137809Y-94562191D01*
X180074666Y-94520000D01*
X180137809Y-94477809D01*
X180278157Y-94267765D01*
X180327440Y-94020000D01*
X180327440Y-93020000D01*
X180278157Y-92772235D01*
X180137809Y-92562191D01*
X180074666Y-92520000D01*
X180137809Y-92477809D01*
X180278157Y-92267765D01*
X180327440Y-92020000D01*
X180327440Y-91020000D01*
X180278157Y-90772235D01*
X180137809Y-90562191D01*
X180074666Y-90520000D01*
X180137809Y-90477809D01*
X180278157Y-90267765D01*
X180327440Y-90020000D01*
X180327440Y-89020000D01*
X180278157Y-88772235D01*
X180137809Y-88562191D01*
X179927765Y-88421843D01*
X179680000Y-88372560D01*
X178474362Y-88372560D01*
X177374331Y-87272530D01*
X177359994Y-87251072D01*
X184785000Y-87251072D01*
X184785000Y-88008928D01*
X185075019Y-88709096D01*
X185610904Y-89244981D01*
X186311072Y-89535000D01*
X187068928Y-89535000D01*
X187769096Y-89244981D01*
X188304981Y-88709096D01*
X188595000Y-88008928D01*
X188595000Y-87251072D01*
X188304981Y-86550904D01*
X187769096Y-86015019D01*
X187068928Y-85725000D01*
X186311072Y-85725000D01*
X185610904Y-86015019D01*
X185075019Y-86550904D01*
X184785000Y-87251072D01*
X177359994Y-87251072D01*
X177331929Y-87209071D01*
X177080537Y-87041096D01*
X176858852Y-86997000D01*
X176858847Y-86997000D01*
X176784000Y-86982112D01*
X176709153Y-86997000D01*
X176584290Y-86997000D01*
X176551635Y-86964345D01*
X176207983Y-86822000D01*
X175836017Y-86822000D01*
X175492365Y-86964345D01*
X175229345Y-87227365D01*
X175087000Y-87571017D01*
X175087000Y-87942983D01*
X175229345Y-88286635D01*
X175492365Y-88549655D01*
X175836017Y-88692000D01*
X176135455Y-88692000D01*
X176081843Y-88772235D01*
X176032560Y-89020000D01*
X176032560Y-90020000D01*
X176081843Y-90267765D01*
X176222191Y-90477809D01*
X176285334Y-90520000D01*
X176222191Y-90562191D01*
X176090018Y-90760000D01*
X175762846Y-90760000D01*
X175687999Y-90745112D01*
X175613152Y-90760000D01*
X175613148Y-90760000D01*
X175391463Y-90804096D01*
X175140071Y-90972071D01*
X175097671Y-91035527D01*
X174231199Y-91902000D01*
X174185017Y-91902000D01*
X173841365Y-92044345D01*
X173578345Y-92307365D01*
X173436000Y-92651017D01*
X173436000Y-93022983D01*
X173578345Y-93366635D01*
X173841365Y-93629655D01*
X174185017Y-93772000D01*
X174556983Y-93772000D01*
X174900635Y-93629655D01*
X175163655Y-93366635D01*
X175306000Y-93022983D01*
X175306000Y-92976801D01*
X176002802Y-92280000D01*
X176090018Y-92280000D01*
X176222191Y-92477809D01*
X176285334Y-92520000D01*
X176222191Y-92562191D01*
X176081843Y-92772235D01*
X176076208Y-92800566D01*
X176058463Y-92804096D01*
X175807071Y-92972071D01*
X175764671Y-93035527D01*
X174691199Y-94109000D01*
X172139290Y-94109000D01*
X172106635Y-94076345D01*
X171762983Y-93934000D01*
X171391017Y-93934000D01*
X171047365Y-94076345D01*
X170784345Y-94339365D01*
X170642000Y-94683017D01*
X170642000Y-95054983D01*
X170784345Y-95398635D01*
X171047365Y-95661655D01*
X171391017Y-95804000D01*
X171762983Y-95804000D01*
X172106635Y-95661655D01*
X172139290Y-95629000D01*
X174931153Y-95629000D01*
X175006000Y-95643888D01*
X175080847Y-95629000D01*
X175080852Y-95629000D01*
X175302537Y-95584904D01*
X175553929Y-95416929D01*
X175596331Y-95353470D01*
X176058075Y-94891726D01*
X176032560Y-95020000D01*
X176032560Y-96020000D01*
X176081843Y-96267765D01*
X176222191Y-96477809D01*
X176285334Y-96520000D01*
X176222191Y-96562191D01*
X176090018Y-96760000D01*
X171921846Y-96760000D01*
X171846999Y-96745112D01*
X171772152Y-96760000D01*
X169843802Y-96760000D01*
X166289000Y-93205199D01*
X166289000Y-90800848D01*
X166303888Y-90726000D01*
X166289000Y-90651152D01*
X166289000Y-90651148D01*
X166244904Y-90429463D01*
X166076929Y-90178071D01*
X166013473Y-90135671D01*
X164913331Y-89035530D01*
X164870929Y-88972071D01*
X164619537Y-88804096D01*
X164397852Y-88760000D01*
X164397847Y-88760000D01*
X164323000Y-88745112D01*
X164267421Y-88756167D01*
X164137809Y-88562191D01*
X163927765Y-88421843D01*
X163680000Y-88372560D01*
X160680000Y-88372560D01*
X160432235Y-88421843D01*
X160222191Y-88562191D01*
X160090018Y-88760000D01*
X159093848Y-88760000D01*
X159019000Y-88745112D01*
X158944152Y-88760000D01*
X158944148Y-88760000D01*
X158770605Y-88794520D01*
X158722462Y-88804096D01*
X158546242Y-88921843D01*
X158471071Y-88972071D01*
X158428671Y-89035527D01*
X158122061Y-89342137D01*
X158108157Y-89272235D01*
X157967809Y-89062191D01*
X157757765Y-88921843D01*
X157510000Y-88872560D01*
X156810000Y-88872560D01*
X156562235Y-88921843D01*
X156352191Y-89062191D01*
X156211843Y-89272235D01*
X156210000Y-89281500D01*
X156208157Y-89272235D01*
X156067809Y-89062191D01*
X155857765Y-88921843D01*
X155610000Y-88872560D01*
X154910000Y-88872560D01*
X154662235Y-88921843D01*
X154452191Y-89062191D01*
X154311843Y-89272235D01*
X154284440Y-89410000D01*
X153978290Y-89410000D01*
X153945635Y-89377345D01*
X153601983Y-89235000D01*
X153230017Y-89235000D01*
X152886365Y-89377345D01*
X152623345Y-89640365D01*
X152481000Y-89984017D01*
X152481000Y-90355983D01*
X152623345Y-90699635D01*
X152886365Y-90962655D01*
X153230017Y-91105000D01*
X153601983Y-91105000D01*
X153945635Y-90962655D01*
X153978290Y-90930000D01*
X154284440Y-90930000D01*
X154311843Y-91067765D01*
X154452191Y-91277809D01*
X154500000Y-91309754D01*
X154500001Y-92828148D01*
X154485112Y-92903000D01*
X154500001Y-92977852D01*
X154544097Y-93199537D01*
X154712072Y-93450929D01*
X154775528Y-93493329D01*
X159286671Y-98004473D01*
X159329071Y-98067929D01*
X159580463Y-98235904D01*
X159802148Y-98280000D01*
X159802152Y-98280000D01*
X159876999Y-98294888D01*
X159951846Y-98280000D01*
X160090018Y-98280000D01*
X160222191Y-98477809D01*
X160285334Y-98520000D01*
X160222191Y-98562191D01*
X160090018Y-98760000D01*
X160015846Y-98760000D01*
X159940999Y-98745112D01*
X159866152Y-98760000D01*
X159866148Y-98760000D01*
X159644463Y-98804096D01*
X159393071Y-98972071D01*
X159350671Y-99035527D01*
X152235528Y-106150671D01*
X152172072Y-106193071D01*
X152129672Y-106256527D01*
X152129671Y-106256528D01*
X152004097Y-106444463D01*
X151945112Y-106741000D01*
X151960001Y-106815852D01*
X151960000Y-109350246D01*
X151912191Y-109382191D01*
X151771843Y-109592235D01*
X151744440Y-109730000D01*
X151585846Y-109730000D01*
X151510999Y-109715112D01*
X151436152Y-109730000D01*
X151436148Y-109730000D01*
X151214463Y-109774096D01*
X151214461Y-109774097D01*
X151214462Y-109774097D01*
X151026526Y-109899671D01*
X151026524Y-109899673D01*
X150963071Y-109942071D01*
X150920673Y-110005524D01*
X148656199Y-112270000D01*
X146697440Y-112270000D01*
X146697440Y-111760000D01*
X146648157Y-111512235D01*
X146507809Y-111302191D01*
X146297765Y-111161843D01*
X146050000Y-111112560D01*
X143518000Y-111112560D01*
X143518000Y-108112077D01*
X143700904Y-108294981D01*
X144401072Y-108585000D01*
X145158928Y-108585000D01*
X145859096Y-108294981D01*
X146394981Y-107759096D01*
X146527155Y-107440000D01*
X147499153Y-107440000D01*
X147574000Y-107454888D01*
X147648847Y-107440000D01*
X147648852Y-107440000D01*
X147870537Y-107395904D01*
X148121929Y-107227929D01*
X148164331Y-107164470D01*
X150598476Y-104730327D01*
X150661929Y-104687929D01*
X150704327Y-104624476D01*
X150704329Y-104624474D01*
X150829903Y-104436538D01*
X150829904Y-104436537D01*
X150874000Y-104214852D01*
X150874000Y-104214848D01*
X150888888Y-104140001D01*
X150874000Y-104065154D01*
X150874000Y-100511290D01*
X150906655Y-100478635D01*
X151049000Y-100134983D01*
X151049000Y-99763017D01*
X150906655Y-99419365D01*
X150643635Y-99156345D01*
X150299983Y-99014000D01*
X149928017Y-99014000D01*
X149584365Y-99156345D01*
X149321345Y-99419365D01*
X149179000Y-99763017D01*
X149179000Y-100134983D01*
X149321345Y-100478635D01*
X149354000Y-100511290D01*
X149354001Y-103825196D01*
X147259199Y-105920000D01*
X146527155Y-105920000D01*
X146394981Y-105600904D01*
X145859096Y-105065019D01*
X145158928Y-104775000D01*
X144401072Y-104775000D01*
X143700904Y-105065019D01*
X143518000Y-105247923D01*
X143518000Y-103517440D01*
X146050000Y-103517440D01*
X146297765Y-103468157D01*
X146507809Y-103327809D01*
X146648157Y-103117765D01*
X146697440Y-102870000D01*
X146697440Y-100330000D01*
X146648157Y-100082235D01*
X146507809Y-99872191D01*
X146297765Y-99731843D01*
X146050000Y-99682560D01*
X143518000Y-99682560D01*
X143518000Y-96691608D01*
X143611829Y-96597779D01*
X143743520Y-96892657D01*
X144451036Y-97164261D01*
X145208632Y-97144436D01*
X145816480Y-96892657D01*
X145948172Y-96597777D01*
X144780000Y-95429605D01*
X144765858Y-95443748D01*
X144586253Y-95264143D01*
X144600395Y-95250000D01*
X144959605Y-95250000D01*
X146127777Y-96418172D01*
X146422657Y-96286480D01*
X146694261Y-95578964D01*
X146674436Y-94821368D01*
X146422657Y-94213520D01*
X146127777Y-94081828D01*
X144959605Y-95250000D01*
X144600395Y-95250000D01*
X144586253Y-95235858D01*
X144765858Y-95056253D01*
X144780000Y-95070395D01*
X145948172Y-93902223D01*
X145816480Y-93607343D01*
X145108964Y-93335739D01*
X144351368Y-93355564D01*
X143743520Y-93607343D01*
X143611829Y-93902221D01*
X143518000Y-93808392D01*
X143518000Y-92087440D01*
X146050000Y-92087440D01*
X146297765Y-92038157D01*
X146507809Y-91897809D01*
X146648157Y-91687765D01*
X146697440Y-91440000D01*
X146697440Y-88900000D01*
X146648157Y-88652235D01*
X146507809Y-88442191D01*
X146297765Y-88301843D01*
X146050000Y-88252560D01*
X143518000Y-88252560D01*
X143518000Y-85252077D01*
X143700904Y-85434981D01*
X144401072Y-85725000D01*
X145158928Y-85725000D01*
X145859096Y-85434981D01*
X146394981Y-84899096D01*
X146685000Y-84198928D01*
X146685000Y-83897777D01*
X185521828Y-83897777D01*
X185653520Y-84192657D01*
X186361036Y-84464261D01*
X187118632Y-84444436D01*
X187726480Y-84192657D01*
X187858172Y-83897777D01*
X186690000Y-82729605D01*
X185521828Y-83897777D01*
X146685000Y-83897777D01*
X146685000Y-83441072D01*
X146394981Y-82740904D01*
X145875113Y-82221036D01*
X184775739Y-82221036D01*
X184795564Y-82978632D01*
X185047343Y-83586480D01*
X185342223Y-83718172D01*
X186510395Y-82550000D01*
X186869605Y-82550000D01*
X188037777Y-83718172D01*
X188332657Y-83586480D01*
X188604261Y-82878964D01*
X188584436Y-82121368D01*
X188332657Y-81513520D01*
X188037777Y-81381828D01*
X186869605Y-82550000D01*
X186510395Y-82550000D01*
X185342223Y-81381828D01*
X185047343Y-81513520D01*
X184775739Y-82221036D01*
X145875113Y-82221036D01*
X145859096Y-82205019D01*
X145158928Y-81915000D01*
X144401072Y-81915000D01*
X143700904Y-82205019D01*
X143518000Y-82387923D01*
X143518000Y-80657440D01*
X146050000Y-80657440D01*
X146297765Y-80608157D01*
X146507809Y-80467809D01*
X146648157Y-80257765D01*
X146697440Y-80010000D01*
X146697440Y-79500000D01*
X153736199Y-79500000D01*
X154894000Y-80657802D01*
X154894000Y-80703983D01*
X155036345Y-81047635D01*
X155299365Y-81310655D01*
X155643017Y-81453000D01*
X156014983Y-81453000D01*
X156358635Y-81310655D01*
X156467067Y-81202223D01*
X185521828Y-81202223D01*
X186690000Y-82370395D01*
X187858172Y-81202223D01*
X187726480Y-80907343D01*
X187018964Y-80635739D01*
X186261368Y-80655564D01*
X185653520Y-80907343D01*
X185521828Y-81202223D01*
X156467067Y-81202223D01*
X156621655Y-81047635D01*
X156764000Y-80703983D01*
X156764000Y-80332017D01*
X156621655Y-79988365D01*
X156358635Y-79725345D01*
X156014983Y-79583000D01*
X155968802Y-79583000D01*
X154641331Y-78255530D01*
X154598929Y-78192071D01*
X154347537Y-78024096D01*
X154125852Y-77980000D01*
X154125847Y-77980000D01*
X154051000Y-77965112D01*
X153976153Y-77980000D01*
X146697440Y-77980000D01*
X146697440Y-77470000D01*
X146648157Y-77222235D01*
X146507809Y-77012191D01*
X146297765Y-76871843D01*
X146050000Y-76822560D01*
X143510000Y-76822560D01*
X143262235Y-76871843D01*
X143052191Y-77012191D01*
X142911843Y-77222235D01*
X142862560Y-77470000D01*
X142862560Y-77605000D01*
X142621782Y-77605000D01*
X142509999Y-77582765D01*
X142249480Y-77634585D01*
X142067145Y-77670854D01*
X141710000Y-77909491D01*
X141710000Y-76710000D01*
X190290000Y-76710000D01*
X190290001Y-120290000D01*
X190290001Y-120290000D01*
G37*
X190290001Y-120290000D02*
X141710000Y-120290000D01*
X141710000Y-119457777D01*
X143611828Y-119457777D01*
X143743520Y-119752657D01*
X144451036Y-120024261D01*
X145208632Y-120004436D01*
X145816480Y-119752657D01*
X145948172Y-119457777D01*
X145902145Y-119411750D01*
X159131000Y-119411750D01*
X159131000Y-119760309D01*
X159227673Y-119993698D01*
X159406301Y-120172327D01*
X159639690Y-120269000D01*
X160496250Y-120269000D01*
X160655000Y-120110250D01*
X160655000Y-119253000D01*
X160909000Y-119253000D01*
X160909000Y-120110250D01*
X161067750Y-120269000D01*
X161924310Y-120269000D01*
X162157699Y-120172327D01*
X162336327Y-119993698D01*
X162433000Y-119760309D01*
X162433000Y-119411750D01*
X162274250Y-119253000D01*
X160909000Y-119253000D01*
X160655000Y-119253000D01*
X159289750Y-119253000D01*
X159131000Y-119411750D01*
X145902145Y-119411750D01*
X144780000Y-118289605D01*
X143611828Y-119457777D01*
X141710000Y-119457777D01*
X141710000Y-116264131D01*
X141866387Y-116420518D01*
X141929711Y-116515289D01*
X142305145Y-116766146D01*
X142636217Y-116832000D01*
X142748000Y-116854235D01*
X142859783Y-116832000D01*
X143322392Y-116832000D01*
X143432221Y-116941829D01*
X143137343Y-117073520D01*
X142865739Y-117781036D01*
X142885564Y-118538632D01*
X143137343Y-119146480D01*
X143432223Y-119278172D01*
X144600395Y-118110000D01*
X144586253Y-118095858D01*
X144765858Y-117916253D01*
X144780000Y-117930395D01*
X144794143Y-117916253D01*
X144973748Y-118095858D01*
X144959605Y-118110000D01*
X146127777Y-119278172D01*
X146422657Y-119146480D01*
X146694261Y-118438964D01*
X146674436Y-117681368D01*
X146422657Y-117073520D01*
X146127779Y-116941829D01*
X146237608Y-116832000D01*
X150510217Y-116832000D01*
X150622000Y-116854235D01*
X150733783Y-116832000D01*
X151064855Y-116766146D01*
X151440289Y-116515289D01*
X151503613Y-116420518D01*
X152514560Y-115409571D01*
X152514560Y-118668800D01*
X152563843Y-118916565D01*
X152704191Y-119126609D01*
X152914235Y-119266957D01*
X153162000Y-119316240D01*
X155194000Y-119316240D01*
X155441765Y-119266957D01*
X155651809Y-119126609D01*
X155792157Y-118916565D01*
X155841440Y-118668800D01*
X155841440Y-115011200D01*
X155792157Y-114763435D01*
X155651809Y-114553391D01*
X155640748Y-114546000D01*
X157152869Y-114546000D01*
X157884389Y-115277521D01*
X157947711Y-115372289D01*
X158279419Y-115593929D01*
X158323145Y-115623146D01*
X158765999Y-115711235D01*
X158877782Y-115689000D01*
X159663240Y-115689000D01*
X159703459Y-115697000D01*
X159518235Y-115733843D01*
X159308191Y-115874191D01*
X159167843Y-116084235D01*
X159118560Y-116332000D01*
X159118560Y-117348000D01*
X159167843Y-117595765D01*
X159308191Y-117805809D01*
X159518235Y-117946157D01*
X159703459Y-117983000D01*
X159639690Y-117983000D01*
X159406301Y-118079673D01*
X159227673Y-118258302D01*
X159131000Y-118491691D01*
X159131000Y-118840250D01*
X159289750Y-118999000D01*
X160655000Y-118999000D01*
X160655000Y-118979000D01*
X160909000Y-118979000D01*
X160909000Y-118999000D01*
X162274250Y-118999000D01*
X162433000Y-118840250D01*
X162433000Y-118491691D01*
X162336327Y-118258302D01*
X162157699Y-118079673D01*
X161924310Y-117983000D01*
X161860541Y-117983000D01*
X162045765Y-117946157D01*
X162255809Y-117805809D01*
X162395239Y-117597138D01*
X162602537Y-117555904D01*
X162853929Y-117387929D01*
X162896331Y-117324470D01*
X164584473Y-115636329D01*
X164647929Y-115593929D01*
X164815904Y-115342537D01*
X164860000Y-115120852D01*
X164860000Y-115120848D01*
X164874888Y-115046001D01*
X164860000Y-114971154D01*
X164860000Y-111704982D01*
X165057809Y-111572809D01*
X165098654Y-111511680D01*
X165240302Y-111653327D01*
X165473691Y-111750000D01*
X165814250Y-111750000D01*
X165973000Y-111591250D01*
X165973000Y-110617000D01*
X166227000Y-110617000D01*
X166227000Y-111591250D01*
X166385750Y-111750000D01*
X166726309Y-111750000D01*
X166959698Y-111653327D01*
X167138327Y-111474699D01*
X167235000Y-111241310D01*
X167235000Y-110775750D01*
X167076250Y-110617000D01*
X166227000Y-110617000D01*
X165973000Y-110617000D01*
X165953000Y-110617000D01*
X165953000Y-110363000D01*
X165973000Y-110363000D01*
X165973000Y-109388750D01*
X166227000Y-109388750D01*
X166227000Y-110363000D01*
X167076250Y-110363000D01*
X167235000Y-110204250D01*
X167235000Y-109738690D01*
X167138327Y-109505301D01*
X166959698Y-109326673D01*
X166726309Y-109230000D01*
X166385750Y-109230000D01*
X166227000Y-109388750D01*
X165973000Y-109388750D01*
X165814250Y-109230000D01*
X165473691Y-109230000D01*
X165240302Y-109326673D01*
X165098654Y-109468320D01*
X165057809Y-109407191D01*
X164847765Y-109266843D01*
X164600000Y-109217560D01*
X164013362Y-109217560D01*
X162940000Y-108144199D01*
X162940000Y-104667440D01*
X163680000Y-104667440D01*
X163927765Y-104618157D01*
X164137809Y-104477809D01*
X164269982Y-104280000D01*
X165772153Y-104280000D01*
X165847000Y-104294888D01*
X165921847Y-104280000D01*
X165921852Y-104280000D01*
X166143537Y-104235904D01*
X166394929Y-104067929D01*
X166437331Y-104004470D01*
X166636051Y-103805750D01*
X176045000Y-103805750D01*
X176045000Y-104146310D01*
X176141673Y-104379699D01*
X176320302Y-104558327D01*
X176553691Y-104655000D01*
X177894250Y-104655000D01*
X178053000Y-104496250D01*
X178053000Y-103647000D01*
X178307000Y-103647000D01*
X178307000Y-104496250D01*
X178465750Y-104655000D01*
X179806309Y-104655000D01*
X180039698Y-104558327D01*
X180218327Y-104379699D01*
X180315000Y-104146310D01*
X180315000Y-103805750D01*
X180156250Y-103647000D01*
X178307000Y-103647000D01*
X178053000Y-103647000D01*
X176203750Y-103647000D01*
X176045000Y-103805750D01*
X166636051Y-103805750D01*
X168636051Y-101805750D01*
X176045000Y-101805750D01*
X176045000Y-102146310D01*
X176141673Y-102379699D01*
X176281975Y-102520000D01*
X176141673Y-102660301D01*
X176045000Y-102893690D01*
X176045000Y-103234250D01*
X176203750Y-103393000D01*
X178053000Y-103393000D01*
X178053000Y-102543750D01*
X178029250Y-102520000D01*
X178053000Y-102496250D01*
X178053000Y-101647000D01*
X178307000Y-101647000D01*
X178307000Y-102496250D01*
X178330750Y-102520000D01*
X178307000Y-102543750D01*
X178307000Y-103393000D01*
X180156250Y-103393000D01*
X180315000Y-103234250D01*
X180315000Y-102893690D01*
X180218327Y-102660301D01*
X180078025Y-102520000D01*
X180218327Y-102379699D01*
X180315000Y-102146310D01*
X180315000Y-101805750D01*
X180156250Y-101647000D01*
X178307000Y-101647000D01*
X178053000Y-101647000D01*
X176203750Y-101647000D01*
X176045000Y-101805750D01*
X168636051Y-101805750D01*
X172161803Y-98280000D01*
X176090018Y-98280000D01*
X176222191Y-98477809D01*
X176285334Y-98520000D01*
X176222191Y-98562191D01*
X176081843Y-98772235D01*
X176032560Y-99020000D01*
X176032560Y-100020000D01*
X176081843Y-100267765D01*
X176222191Y-100477809D01*
X176283320Y-100518655D01*
X176141673Y-100660301D01*
X176045000Y-100893690D01*
X176045000Y-101234250D01*
X176203750Y-101393000D01*
X178053000Y-101393000D01*
X178053000Y-101373000D01*
X178307000Y-101373000D01*
X178307000Y-101393000D01*
X180156250Y-101393000D01*
X180315000Y-101234250D01*
X180315000Y-100893690D01*
X180218327Y-100660301D01*
X180076680Y-100518655D01*
X180137809Y-100477809D01*
X180278157Y-100267765D01*
X180327440Y-100020000D01*
X180327440Y-99094414D01*
X180662017Y-99233000D01*
X181033983Y-99233000D01*
X181365001Y-99095888D01*
X181365000Y-107585000D01*
X180501025Y-107585000D01*
X180339999Y-107552970D01*
X180178973Y-107585000D01*
X180178969Y-107585000D01*
X179702055Y-107679864D01*
X179161231Y-108041231D01*
X179070014Y-108177747D01*
X172325202Y-114922560D01*
X171450000Y-114922560D01*
X171202235Y-114971843D01*
X170992191Y-115112191D01*
X170851843Y-115322235D01*
X170802560Y-115570000D01*
X170802560Y-118110000D01*
X170851843Y-118357765D01*
X170992191Y-118567809D01*
X171202235Y-118708157D01*
X171450000Y-118757440D01*
X173990000Y-118757440D01*
X174237765Y-118708157D01*
X174447809Y-118567809D01*
X174588157Y-118357765D01*
X174621969Y-118187777D01*
X176631828Y-118187777D01*
X176763520Y-118482657D01*
X177471036Y-118754261D01*
X178228632Y-118734436D01*
X178836480Y-118482657D01*
X178968172Y-118187777D01*
X177800000Y-117019605D01*
X176631828Y-118187777D01*
X174621969Y-118187777D01*
X174637440Y-118110000D01*
X174637440Y-117234798D01*
X175361202Y-116511036D01*
X175885739Y-116511036D01*
X175905564Y-117268632D01*
X176157343Y-117876480D01*
X176452223Y-118008172D01*
X177620395Y-116840000D01*
X177979605Y-116840000D01*
X179147777Y-118008172D01*
X179442657Y-117876480D01*
X179714261Y-117168964D01*
X179694436Y-116411368D01*
X179442657Y-115803520D01*
X179147777Y-115671828D01*
X177979605Y-116840000D01*
X177620395Y-116840000D01*
X176452223Y-115671828D01*
X176157343Y-115803520D01*
X175885739Y-116511036D01*
X175361202Y-116511036D01*
X176380015Y-115492223D01*
X176631828Y-115492223D01*
X177800000Y-116660395D01*
X178968172Y-115492223D01*
X178836480Y-115197343D01*
X178128964Y-114925739D01*
X177371368Y-114945564D01*
X176763520Y-115197343D01*
X176631828Y-115492223D01*
X176380015Y-115492223D01*
X181017239Y-110855000D01*
X182838969Y-110855000D01*
X183000000Y-110887031D01*
X183161031Y-110855000D01*
X184900178Y-110855000D01*
X184962191Y-110947809D01*
X185172235Y-111088157D01*
X185420000Y-111137440D01*
X187960000Y-111137440D01*
X188207765Y-111088157D01*
X188417809Y-110947809D01*
X188558157Y-110737765D01*
X188574517Y-110655518D01*
X188958769Y-110398769D01*
X189320136Y-109857945D01*
X189447031Y-109220000D01*
X189320136Y-108582055D01*
X188958769Y-108041231D01*
X188574517Y-107784482D01*
X188558157Y-107702235D01*
X188417809Y-107492191D01*
X188207765Y-107351843D01*
X187960000Y-107302560D01*
X185420000Y-107302560D01*
X185172235Y-107351843D01*
X184962191Y-107492191D01*
X184900178Y-107585000D01*
X184635000Y-107585000D01*
X184635000Y-103761072D01*
X184785000Y-103761072D01*
X184785000Y-104518928D01*
X185075019Y-105219096D01*
X185610904Y-105754981D01*
X186311072Y-106045000D01*
X187068928Y-106045000D01*
X187769096Y-105754981D01*
X188304981Y-105219096D01*
X188595000Y-104518928D01*
X188595000Y-103761072D01*
X188304981Y-103060904D01*
X187769096Y-102525019D01*
X187068928Y-102235000D01*
X186311072Y-102235000D01*
X185610904Y-102525019D01*
X185075019Y-103060904D01*
X184785000Y-103761072D01*
X184635000Y-103761072D01*
X184635000Y-100407777D01*
X185521828Y-100407777D01*
X185653520Y-100702657D01*
X186361036Y-100974261D01*
X187118632Y-100954436D01*
X187726480Y-100702657D01*
X187858172Y-100407777D01*
X186690000Y-99239605D01*
X185521828Y-100407777D01*
X184635000Y-100407777D01*
X184635000Y-98731036D01*
X184775739Y-98731036D01*
X184795564Y-99488632D01*
X185047343Y-100096480D01*
X185342223Y-100228172D01*
X186510395Y-99060000D01*
X186869605Y-99060000D01*
X188037777Y-100228172D01*
X188332657Y-100096480D01*
X188604261Y-99388964D01*
X188584436Y-98631368D01*
X188332657Y-98023520D01*
X188037777Y-97891828D01*
X186869605Y-99060000D01*
X186510395Y-99060000D01*
X185342223Y-97891828D01*
X185047343Y-98023520D01*
X184775739Y-98731036D01*
X184635000Y-98731036D01*
X184635000Y-97712223D01*
X185521828Y-97712223D01*
X186690000Y-98880395D01*
X187858172Y-97712223D01*
X187726480Y-97417343D01*
X187018964Y-97145739D01*
X186261368Y-97165564D01*
X185653520Y-97417343D01*
X185521828Y-97712223D01*
X184635000Y-97712223D01*
X184635000Y-94345000D01*
X184900178Y-94345000D01*
X184962191Y-94437809D01*
X185172235Y-94578157D01*
X185420000Y-94627440D01*
X187960000Y-94627440D01*
X188207765Y-94578157D01*
X188417809Y-94437809D01*
X188558157Y-94227765D01*
X188607440Y-93980000D01*
X188607440Y-91440000D01*
X188558157Y-91192235D01*
X188417809Y-90982191D01*
X188207765Y-90841843D01*
X187960000Y-90792560D01*
X185420000Y-90792560D01*
X185172235Y-90841843D01*
X184962191Y-90982191D01*
X184900178Y-91075000D01*
X183581031Y-91075000D01*
X183420000Y-91042969D01*
X183258969Y-91075000D01*
X182782055Y-91169864D01*
X182241231Y-91531231D01*
X182150012Y-91667750D01*
X181957748Y-91860014D01*
X181821232Y-91951231D01*
X181730015Y-92087747D01*
X181459865Y-92492055D01*
X181332969Y-93130000D01*
X181365001Y-93291035D01*
X181365001Y-95443406D01*
X181332473Y-95421671D01*
X180946331Y-95035529D01*
X180903929Y-94972071D01*
X180652537Y-94804096D01*
X180430852Y-94760000D01*
X180430847Y-94760000D01*
X180356000Y-94745112D01*
X180281153Y-94760000D01*
X180269982Y-94760000D01*
X180137809Y-94562191D01*
X180074666Y-94520000D01*
X180137809Y-94477809D01*
X180278157Y-94267765D01*
X180327440Y-94020000D01*
X180327440Y-93020000D01*
X180278157Y-92772235D01*
X180137809Y-92562191D01*
X180074666Y-92520000D01*
X180137809Y-92477809D01*
X180278157Y-92267765D01*
X180327440Y-92020000D01*
X180327440Y-91020000D01*
X180278157Y-90772235D01*
X180137809Y-90562191D01*
X180074666Y-90520000D01*
X180137809Y-90477809D01*
X180278157Y-90267765D01*
X180327440Y-90020000D01*
X180327440Y-89020000D01*
X180278157Y-88772235D01*
X180137809Y-88562191D01*
X179927765Y-88421843D01*
X179680000Y-88372560D01*
X178474362Y-88372560D01*
X177374331Y-87272530D01*
X177359994Y-87251072D01*
X184785000Y-87251072D01*
X184785000Y-88008928D01*
X185075019Y-88709096D01*
X185610904Y-89244981D01*
X186311072Y-89535000D01*
X187068928Y-89535000D01*
X187769096Y-89244981D01*
X188304981Y-88709096D01*
X188595000Y-88008928D01*
X188595000Y-87251072D01*
X188304981Y-86550904D01*
X187769096Y-86015019D01*
X187068928Y-85725000D01*
X186311072Y-85725000D01*
X185610904Y-86015019D01*
X185075019Y-86550904D01*
X184785000Y-87251072D01*
X177359994Y-87251072D01*
X177331929Y-87209071D01*
X177080537Y-87041096D01*
X176858852Y-86997000D01*
X176858847Y-86997000D01*
X176784000Y-86982112D01*
X176709153Y-86997000D01*
X176584290Y-86997000D01*
X176551635Y-86964345D01*
X176207983Y-86822000D01*
X175836017Y-86822000D01*
X175492365Y-86964345D01*
X175229345Y-87227365D01*
X175087000Y-87571017D01*
X175087000Y-87942983D01*
X175229345Y-88286635D01*
X175492365Y-88549655D01*
X175836017Y-88692000D01*
X176135455Y-88692000D01*
X176081843Y-88772235D01*
X176032560Y-89020000D01*
X176032560Y-90020000D01*
X176081843Y-90267765D01*
X176222191Y-90477809D01*
X176285334Y-90520000D01*
X176222191Y-90562191D01*
X176090018Y-90760000D01*
X175762846Y-90760000D01*
X175687999Y-90745112D01*
X175613152Y-90760000D01*
X175613148Y-90760000D01*
X175391463Y-90804096D01*
X175140071Y-90972071D01*
X175097671Y-91035527D01*
X174231199Y-91902000D01*
X174185017Y-91902000D01*
X173841365Y-92044345D01*
X173578345Y-92307365D01*
X173436000Y-92651017D01*
X173436000Y-93022983D01*
X173578345Y-93366635D01*
X173841365Y-93629655D01*
X174185017Y-93772000D01*
X174556983Y-93772000D01*
X174900635Y-93629655D01*
X175163655Y-93366635D01*
X175306000Y-93022983D01*
X175306000Y-92976801D01*
X176002802Y-92280000D01*
X176090018Y-92280000D01*
X176222191Y-92477809D01*
X176285334Y-92520000D01*
X176222191Y-92562191D01*
X176081843Y-92772235D01*
X176076208Y-92800566D01*
X176058463Y-92804096D01*
X175807071Y-92972071D01*
X175764671Y-93035527D01*
X174691199Y-94109000D01*
X172139290Y-94109000D01*
X172106635Y-94076345D01*
X171762983Y-93934000D01*
X171391017Y-93934000D01*
X171047365Y-94076345D01*
X170784345Y-94339365D01*
X170642000Y-94683017D01*
X170642000Y-95054983D01*
X170784345Y-95398635D01*
X171047365Y-95661655D01*
X171391017Y-95804000D01*
X171762983Y-95804000D01*
X172106635Y-95661655D01*
X172139290Y-95629000D01*
X174931153Y-95629000D01*
X175006000Y-95643888D01*
X175080847Y-95629000D01*
X175080852Y-95629000D01*
X175302537Y-95584904D01*
X175553929Y-95416929D01*
X175596331Y-95353470D01*
X176058075Y-94891726D01*
X176032560Y-95020000D01*
X176032560Y-96020000D01*
X176081843Y-96267765D01*
X176222191Y-96477809D01*
X176285334Y-96520000D01*
X176222191Y-96562191D01*
X176090018Y-96760000D01*
X171921846Y-96760000D01*
X171846999Y-96745112D01*
X171772152Y-96760000D01*
X169843802Y-96760000D01*
X166289000Y-93205199D01*
X166289000Y-90800848D01*
X166303888Y-90726000D01*
X166289000Y-90651152D01*
X166289000Y-90651148D01*
X166244904Y-90429463D01*
X166076929Y-90178071D01*
X166013473Y-90135671D01*
X164913331Y-89035530D01*
X164870929Y-88972071D01*
X164619537Y-88804096D01*
X164397852Y-88760000D01*
X164397847Y-88760000D01*
X164323000Y-88745112D01*
X164267421Y-88756167D01*
X164137809Y-88562191D01*
X163927765Y-88421843D01*
X163680000Y-88372560D01*
X160680000Y-88372560D01*
X160432235Y-88421843D01*
X160222191Y-88562191D01*
X160090018Y-88760000D01*
X159093848Y-88760000D01*
X159019000Y-88745112D01*
X158944152Y-88760000D01*
X158944148Y-88760000D01*
X158770605Y-88794520D01*
X158722462Y-88804096D01*
X158546242Y-88921843D01*
X158471071Y-88972071D01*
X158428671Y-89035527D01*
X158122061Y-89342137D01*
X158108157Y-89272235D01*
X157967809Y-89062191D01*
X157757765Y-88921843D01*
X157510000Y-88872560D01*
X156810000Y-88872560D01*
X156562235Y-88921843D01*
X156352191Y-89062191D01*
X156211843Y-89272235D01*
X156210000Y-89281500D01*
X156208157Y-89272235D01*
X156067809Y-89062191D01*
X155857765Y-88921843D01*
X155610000Y-88872560D01*
X154910000Y-88872560D01*
X154662235Y-88921843D01*
X154452191Y-89062191D01*
X154311843Y-89272235D01*
X154284440Y-89410000D01*
X153978290Y-89410000D01*
X153945635Y-89377345D01*
X153601983Y-89235000D01*
X153230017Y-89235000D01*
X152886365Y-89377345D01*
X152623345Y-89640365D01*
X152481000Y-89984017D01*
X152481000Y-90355983D01*
X152623345Y-90699635D01*
X152886365Y-90962655D01*
X153230017Y-91105000D01*
X153601983Y-91105000D01*
X153945635Y-90962655D01*
X153978290Y-90930000D01*
X154284440Y-90930000D01*
X154311843Y-91067765D01*
X154452191Y-91277809D01*
X154500000Y-91309754D01*
X154500001Y-92828148D01*
X154485112Y-92903000D01*
X154500001Y-92977852D01*
X154544097Y-93199537D01*
X154712072Y-93450929D01*
X154775528Y-93493329D01*
X159286671Y-98004473D01*
X159329071Y-98067929D01*
X159580463Y-98235904D01*
X159802148Y-98280000D01*
X159802152Y-98280000D01*
X159876999Y-98294888D01*
X159951846Y-98280000D01*
X160090018Y-98280000D01*
X160222191Y-98477809D01*
X160285334Y-98520000D01*
X160222191Y-98562191D01*
X160090018Y-98760000D01*
X160015846Y-98760000D01*
X159940999Y-98745112D01*
X159866152Y-98760000D01*
X159866148Y-98760000D01*
X159644463Y-98804096D01*
X159393071Y-98972071D01*
X159350671Y-99035527D01*
X152235528Y-106150671D01*
X152172072Y-106193071D01*
X152129672Y-106256527D01*
X152129671Y-106256528D01*
X152004097Y-106444463D01*
X151945112Y-106741000D01*
X151960001Y-106815852D01*
X151960000Y-109350246D01*
X151912191Y-109382191D01*
X151771843Y-109592235D01*
X151744440Y-109730000D01*
X151585846Y-109730000D01*
X151510999Y-109715112D01*
X151436152Y-109730000D01*
X151436148Y-109730000D01*
X151214463Y-109774096D01*
X151214461Y-109774097D01*
X151214462Y-109774097D01*
X151026526Y-109899671D01*
X151026524Y-109899673D01*
X150963071Y-109942071D01*
X150920673Y-110005524D01*
X148656199Y-112270000D01*
X146697440Y-112270000D01*
X146697440Y-111760000D01*
X146648157Y-111512235D01*
X146507809Y-111302191D01*
X146297765Y-111161843D01*
X146050000Y-111112560D01*
X143518000Y-111112560D01*
X143518000Y-108112077D01*
X143700904Y-108294981D01*
X144401072Y-108585000D01*
X145158928Y-108585000D01*
X145859096Y-108294981D01*
X146394981Y-107759096D01*
X146527155Y-107440000D01*
X147499153Y-107440000D01*
X147574000Y-107454888D01*
X147648847Y-107440000D01*
X147648852Y-107440000D01*
X147870537Y-107395904D01*
X148121929Y-107227929D01*
X148164331Y-107164470D01*
X150598476Y-104730327D01*
X150661929Y-104687929D01*
X150704327Y-104624476D01*
X150704329Y-104624474D01*
X150829903Y-104436538D01*
X150829904Y-104436537D01*
X150874000Y-104214852D01*
X150874000Y-104214848D01*
X150888888Y-104140001D01*
X150874000Y-104065154D01*
X150874000Y-100511290D01*
X150906655Y-100478635D01*
X151049000Y-100134983D01*
X151049000Y-99763017D01*
X150906655Y-99419365D01*
X150643635Y-99156345D01*
X150299983Y-99014000D01*
X149928017Y-99014000D01*
X149584365Y-99156345D01*
X149321345Y-99419365D01*
X149179000Y-99763017D01*
X149179000Y-100134983D01*
X149321345Y-100478635D01*
X149354000Y-100511290D01*
X149354001Y-103825196D01*
X147259199Y-105920000D01*
X146527155Y-105920000D01*
X146394981Y-105600904D01*
X145859096Y-105065019D01*
X145158928Y-104775000D01*
X144401072Y-104775000D01*
X143700904Y-105065019D01*
X143518000Y-105247923D01*
X143518000Y-103517440D01*
X146050000Y-103517440D01*
X146297765Y-103468157D01*
X146507809Y-103327809D01*
X146648157Y-103117765D01*
X146697440Y-102870000D01*
X146697440Y-100330000D01*
X146648157Y-100082235D01*
X146507809Y-99872191D01*
X146297765Y-99731843D01*
X146050000Y-99682560D01*
X143518000Y-99682560D01*
X143518000Y-96691608D01*
X143611829Y-96597779D01*
X143743520Y-96892657D01*
X144451036Y-97164261D01*
X145208632Y-97144436D01*
X145816480Y-96892657D01*
X145948172Y-96597777D01*
X144780000Y-95429605D01*
X144765858Y-95443748D01*
X144586253Y-95264143D01*
X144600395Y-95250000D01*
X144959605Y-95250000D01*
X146127777Y-96418172D01*
X146422657Y-96286480D01*
X146694261Y-95578964D01*
X146674436Y-94821368D01*
X146422657Y-94213520D01*
X146127777Y-94081828D01*
X144959605Y-95250000D01*
X144600395Y-95250000D01*
X144586253Y-95235858D01*
X144765858Y-95056253D01*
X144780000Y-95070395D01*
X145948172Y-93902223D01*
X145816480Y-93607343D01*
X145108964Y-93335739D01*
X144351368Y-93355564D01*
X143743520Y-93607343D01*
X143611829Y-93902221D01*
X143518000Y-93808392D01*
X143518000Y-92087440D01*
X146050000Y-92087440D01*
X146297765Y-92038157D01*
X146507809Y-91897809D01*
X146648157Y-91687765D01*
X146697440Y-91440000D01*
X146697440Y-88900000D01*
X146648157Y-88652235D01*
X146507809Y-88442191D01*
X146297765Y-88301843D01*
X146050000Y-88252560D01*
X143518000Y-88252560D01*
X143518000Y-85252077D01*
X143700904Y-85434981D01*
X144401072Y-85725000D01*
X145158928Y-85725000D01*
X145859096Y-85434981D01*
X146394981Y-84899096D01*
X146685000Y-84198928D01*
X146685000Y-83897777D01*
X185521828Y-83897777D01*
X185653520Y-84192657D01*
X186361036Y-84464261D01*
X187118632Y-84444436D01*
X187726480Y-84192657D01*
X187858172Y-83897777D01*
X186690000Y-82729605D01*
X185521828Y-83897777D01*
X146685000Y-83897777D01*
X146685000Y-83441072D01*
X146394981Y-82740904D01*
X145875113Y-82221036D01*
X184775739Y-82221036D01*
X184795564Y-82978632D01*
X185047343Y-83586480D01*
X185342223Y-83718172D01*
X186510395Y-82550000D01*
X186869605Y-82550000D01*
X188037777Y-83718172D01*
X188332657Y-83586480D01*
X188604261Y-82878964D01*
X188584436Y-82121368D01*
X188332657Y-81513520D01*
X188037777Y-81381828D01*
X186869605Y-82550000D01*
X186510395Y-82550000D01*
X185342223Y-81381828D01*
X185047343Y-81513520D01*
X184775739Y-82221036D01*
X145875113Y-82221036D01*
X145859096Y-82205019D01*
X145158928Y-81915000D01*
X144401072Y-81915000D01*
X143700904Y-82205019D01*
X143518000Y-82387923D01*
X143518000Y-80657440D01*
X146050000Y-80657440D01*
X146297765Y-80608157D01*
X146507809Y-80467809D01*
X146648157Y-80257765D01*
X146697440Y-80010000D01*
X146697440Y-79500000D01*
X153736199Y-79500000D01*
X154894000Y-80657802D01*
X154894000Y-80703983D01*
X155036345Y-81047635D01*
X155299365Y-81310655D01*
X155643017Y-81453000D01*
X156014983Y-81453000D01*
X156358635Y-81310655D01*
X156467067Y-81202223D01*
X185521828Y-81202223D01*
X186690000Y-82370395D01*
X187858172Y-81202223D01*
X187726480Y-80907343D01*
X187018964Y-80635739D01*
X186261368Y-80655564D01*
X185653520Y-80907343D01*
X185521828Y-81202223D01*
X156467067Y-81202223D01*
X156621655Y-81047635D01*
X156764000Y-80703983D01*
X156764000Y-80332017D01*
X156621655Y-79988365D01*
X156358635Y-79725345D01*
X156014983Y-79583000D01*
X155968802Y-79583000D01*
X154641331Y-78255530D01*
X154598929Y-78192071D01*
X154347537Y-78024096D01*
X154125852Y-77980000D01*
X154125847Y-77980000D01*
X154051000Y-77965112D01*
X153976153Y-77980000D01*
X146697440Y-77980000D01*
X146697440Y-77470000D01*
X146648157Y-77222235D01*
X146507809Y-77012191D01*
X146297765Y-76871843D01*
X146050000Y-76822560D01*
X143510000Y-76822560D01*
X143262235Y-76871843D01*
X143052191Y-77012191D01*
X142911843Y-77222235D01*
X142862560Y-77470000D01*
X142862560Y-77605000D01*
X142621782Y-77605000D01*
X142509999Y-77582765D01*
X142249480Y-77634585D01*
X142067145Y-77670854D01*
X141710000Y-77909491D01*
X141710000Y-76710000D01*
X190290000Y-76710000D01*
X190290001Y-120290000D01*
G04 #@! TD*
M02*
