G04 #@! TF.GenerationSoftware,KiCad,Pcbnew,5.0.1-33cea8e~68~ubuntu18.04.1*
G04 #@! TF.CreationDate,2018-11-29T08:56:37+01:00*
G04 #@! TF.ProjectId,8RelaisReed,3852656C616973526565642E6B696361,rev?*
G04 #@! TF.SameCoordinates,Original*
G04 #@! TF.FileFunction,Soldermask,Top*
G04 #@! TF.FilePolarity,Negative*
%FSLAX46Y46*%
G04 Gerber Fmt 4.6, Leading zero omitted, Abs format (unit mm)*
G04 Created by KiCad (PCBNEW 5.0.1-33cea8e~68~ubuntu18.04.1) date jeu. 29 nov. 2018 08:56:37 CET*
%MOMM*%
%LPD*%
G01*
G04 APERTURE LIST*
%ADD10C,0.100000*%
G04 APERTURE END LIST*
D10*
G36*
X217425000Y-123413000D02*
X216025000Y-123413000D01*
X216025000Y-120263000D01*
X217425000Y-120263000D01*
X217425000Y-123413000D01*
X217425000Y-123413000D01*
G37*
G36*
X213425000Y-123413000D02*
X212025000Y-123413000D01*
X212025000Y-120263000D01*
X213425000Y-120263000D01*
X213425000Y-123413000D01*
X213425000Y-123413000D01*
G37*
G36*
X170553000Y-122483000D02*
X169553000Y-122483000D01*
X169553000Y-120583000D01*
X170553000Y-120583000D01*
X170553000Y-122483000D01*
X170553000Y-122483000D01*
G37*
G36*
X173093000Y-122483000D02*
X172093000Y-122483000D01*
X172093000Y-120583000D01*
X173093000Y-120583000D01*
X173093000Y-122483000D01*
X173093000Y-122483000D01*
G37*
G36*
X169283000Y-122483000D02*
X168283000Y-122483000D01*
X168283000Y-120583000D01*
X169283000Y-120583000D01*
X169283000Y-122483000D01*
X169283000Y-122483000D01*
G37*
G36*
X168013000Y-122483000D02*
X167013000Y-122483000D01*
X167013000Y-120583000D01*
X168013000Y-120583000D01*
X168013000Y-122483000D01*
X168013000Y-122483000D01*
G37*
G36*
X166743000Y-122483000D02*
X165743000Y-122483000D01*
X165743000Y-120583000D01*
X166743000Y-120583000D01*
X166743000Y-122483000D01*
X166743000Y-122483000D01*
G37*
G36*
X174363000Y-122483000D02*
X173363000Y-122483000D01*
X173363000Y-120583000D01*
X174363000Y-120583000D01*
X174363000Y-122483000D01*
X174363000Y-122483000D01*
G37*
G36*
X175633000Y-122483000D02*
X174633000Y-122483000D01*
X174633000Y-120583000D01*
X175633000Y-120583000D01*
X175633000Y-122483000D01*
X175633000Y-122483000D01*
G37*
G36*
X171823000Y-122483000D02*
X170823000Y-122483000D01*
X170823000Y-120583000D01*
X171823000Y-120583000D01*
X171823000Y-122483000D01*
X171823000Y-122483000D01*
G37*
G36*
X183438530Y-120896710D02*
X183488379Y-120911831D01*
X183534311Y-120936382D01*
X183574574Y-120969426D01*
X183607618Y-121009689D01*
X183632169Y-121055621D01*
X183647290Y-121105470D01*
X183653000Y-121163444D01*
X183653000Y-122168556D01*
X183647290Y-122226530D01*
X183632169Y-122276379D01*
X183607618Y-122322311D01*
X183574574Y-122362574D01*
X183534311Y-122395618D01*
X183488379Y-122420169D01*
X183438530Y-122435290D01*
X183380556Y-122441000D01*
X182125444Y-122441000D01*
X182067470Y-122435290D01*
X182017621Y-122420169D01*
X181971689Y-122395618D01*
X181931426Y-122362574D01*
X181898382Y-122322311D01*
X181873831Y-122276379D01*
X181858710Y-122226530D01*
X181853000Y-122168556D01*
X181853000Y-121163444D01*
X181858710Y-121105470D01*
X181873831Y-121055621D01*
X181898382Y-121009689D01*
X181931426Y-120969426D01*
X181971689Y-120936382D01*
X182017621Y-120911831D01*
X182067470Y-120896710D01*
X182125444Y-120891000D01*
X183380556Y-120891000D01*
X183438530Y-120896710D01*
X183438530Y-120896710D01*
G37*
G36*
X150148530Y-119120710D02*
X150198379Y-119135831D01*
X150244311Y-119160382D01*
X150284574Y-119193426D01*
X150317618Y-119233689D01*
X150342169Y-119279621D01*
X150357290Y-119329470D01*
X150363000Y-119387444D01*
X150363000Y-120642556D01*
X150357290Y-120700530D01*
X150342169Y-120750379D01*
X150317618Y-120796311D01*
X150284574Y-120836574D01*
X150244311Y-120869618D01*
X150198379Y-120894169D01*
X150148530Y-120909290D01*
X150090556Y-120915000D01*
X149085444Y-120915000D01*
X149027470Y-120909290D01*
X148977621Y-120894169D01*
X148931689Y-120869618D01*
X148891426Y-120836574D01*
X148858382Y-120796311D01*
X148833831Y-120750379D01*
X148818710Y-120700530D01*
X148813000Y-120642556D01*
X148813000Y-119387444D01*
X148818710Y-119329470D01*
X148833831Y-119279621D01*
X148858382Y-119233689D01*
X148891426Y-119193426D01*
X148931689Y-119160382D01*
X148977621Y-119135831D01*
X149027470Y-119120710D01*
X149085444Y-119115000D01*
X150090556Y-119115000D01*
X150148530Y-119120710D01*
X150148530Y-119120710D01*
G37*
G36*
X152198530Y-119120710D02*
X152248379Y-119135831D01*
X152294311Y-119160382D01*
X152334574Y-119193426D01*
X152367618Y-119233689D01*
X152392169Y-119279621D01*
X152407290Y-119329470D01*
X152413000Y-119387444D01*
X152413000Y-120642556D01*
X152407290Y-120700530D01*
X152392169Y-120750379D01*
X152367618Y-120796311D01*
X152334574Y-120836574D01*
X152294311Y-120869618D01*
X152248379Y-120894169D01*
X152198530Y-120909290D01*
X152140556Y-120915000D01*
X151135444Y-120915000D01*
X151077470Y-120909290D01*
X151027621Y-120894169D01*
X150981689Y-120869618D01*
X150941426Y-120836574D01*
X150908382Y-120796311D01*
X150883831Y-120750379D01*
X150868710Y-120700530D01*
X150863000Y-120642556D01*
X150863000Y-119387444D01*
X150868710Y-119329470D01*
X150883831Y-119279621D01*
X150908382Y-119233689D01*
X150941426Y-119193426D01*
X150981689Y-119160382D01*
X151027621Y-119135831D01*
X151077470Y-119120710D01*
X151135444Y-119115000D01*
X152140556Y-119115000D01*
X152198530Y-119120710D01*
X152198530Y-119120710D01*
G37*
G36*
X201708000Y-120790000D02*
X200308000Y-120790000D01*
X200308000Y-117890000D01*
X201708000Y-117890000D01*
X201708000Y-120790000D01*
X201708000Y-120790000D01*
G37*
G36*
X189708000Y-120790000D02*
X188308000Y-120790000D01*
X188308000Y-117890000D01*
X189708000Y-117890000D01*
X189708000Y-120790000D01*
X189708000Y-120790000D01*
G37*
G36*
X187708000Y-120790000D02*
X186308000Y-120790000D01*
X186308000Y-117890000D01*
X187708000Y-117890000D01*
X187708000Y-120790000D01*
X187708000Y-120790000D01*
G37*
G36*
X193708000Y-120790000D02*
X192308000Y-120790000D01*
X192308000Y-117890000D01*
X193708000Y-117890000D01*
X193708000Y-120790000D01*
X193708000Y-120790000D01*
G37*
G36*
X195708000Y-120790000D02*
X194308000Y-120790000D01*
X194308000Y-117890000D01*
X195708000Y-117890000D01*
X195708000Y-120790000D01*
X195708000Y-120790000D01*
G37*
G36*
X199708000Y-120790000D02*
X198308000Y-120790000D01*
X198308000Y-117890000D01*
X199708000Y-117890000D01*
X199708000Y-120790000D01*
X199708000Y-120790000D01*
G37*
G36*
X191708000Y-120790000D02*
X190308000Y-120790000D01*
X190308000Y-117890000D01*
X191708000Y-117890000D01*
X191708000Y-120790000D01*
X191708000Y-120790000D01*
G37*
G36*
X197708000Y-120790000D02*
X196308000Y-120790000D01*
X196308000Y-117890000D01*
X197708000Y-117890000D01*
X197708000Y-120790000D01*
X197708000Y-120790000D01*
G37*
G36*
X183438530Y-118846710D02*
X183488379Y-118861831D01*
X183534311Y-118886382D01*
X183574574Y-118919426D01*
X183607618Y-118959689D01*
X183632169Y-119005621D01*
X183647290Y-119055470D01*
X183653000Y-119113444D01*
X183653000Y-120118556D01*
X183647290Y-120176530D01*
X183632169Y-120226379D01*
X183607618Y-120272311D01*
X183574574Y-120312574D01*
X183534311Y-120345618D01*
X183488379Y-120370169D01*
X183438530Y-120385290D01*
X183380556Y-120391000D01*
X182125444Y-120391000D01*
X182067470Y-120385290D01*
X182017621Y-120370169D01*
X181971689Y-120345618D01*
X181931426Y-120312574D01*
X181898382Y-120272311D01*
X181873831Y-120226379D01*
X181858710Y-120176530D01*
X181853000Y-120118556D01*
X181853000Y-119113444D01*
X181858710Y-119055470D01*
X181873831Y-119005621D01*
X181898382Y-118959689D01*
X181931426Y-118919426D01*
X181971689Y-118886382D01*
X182017621Y-118861831D01*
X182067470Y-118846710D01*
X182125444Y-118841000D01*
X183380556Y-118841000D01*
X183438530Y-118846710D01*
X183438530Y-118846710D01*
G37*
G36*
X143938781Y-115426490D02*
X144206307Y-115537303D01*
X144447074Y-115698178D01*
X144651822Y-115902926D01*
X144812697Y-116143693D01*
X144923510Y-116411219D01*
X144980000Y-116695216D01*
X144980000Y-116984784D01*
X144923510Y-117268781D01*
X144812697Y-117536307D01*
X144651822Y-117777074D01*
X144447074Y-117981822D01*
X144206307Y-118142697D01*
X143938781Y-118253510D01*
X143654784Y-118310000D01*
X143365216Y-118310000D01*
X143081219Y-118253510D01*
X142813693Y-118142697D01*
X142572926Y-117981822D01*
X142368178Y-117777074D01*
X142207303Y-117536307D01*
X142096490Y-117268781D01*
X142040000Y-116984784D01*
X142040000Y-116695216D01*
X142096490Y-116411219D01*
X142207303Y-116143693D01*
X142368178Y-115902926D01*
X142572926Y-115698178D01*
X142813693Y-115537303D01*
X143081219Y-115426490D01*
X143365216Y-115370000D01*
X143654784Y-115370000D01*
X143938781Y-115426490D01*
X143938781Y-115426490D01*
G37*
G36*
X217425000Y-117653000D02*
X216025000Y-117653000D01*
X216025000Y-114503000D01*
X217425000Y-114503000D01*
X217425000Y-117653000D01*
X217425000Y-117653000D01*
G37*
G36*
X213425000Y-117653000D02*
X212025000Y-117653000D01*
X212025000Y-114503000D01*
X213425000Y-114503000D01*
X213425000Y-117653000D01*
X213425000Y-117653000D01*
G37*
G36*
X152990000Y-117550000D02*
X150590000Y-117550000D01*
X150590000Y-115650000D01*
X152990000Y-115650000D01*
X152990000Y-117550000D01*
X152990000Y-117550000D01*
G37*
G36*
X186608000Y-117440000D02*
X184408000Y-117440000D01*
X184408000Y-116040000D01*
X186608000Y-116040000D01*
X186608000Y-117440000D01*
X186608000Y-117440000D01*
G37*
G36*
X159290000Y-116400000D02*
X156890000Y-116400000D01*
X156890000Y-112200000D01*
X159290000Y-112200000D01*
X159290000Y-116400000D01*
X159290000Y-116400000D01*
G37*
G36*
X186608000Y-115440000D02*
X184408000Y-115440000D01*
X184408000Y-114040000D01*
X186608000Y-114040000D01*
X186608000Y-115440000D01*
X186608000Y-115440000D01*
G37*
G36*
X175633000Y-115383000D02*
X174633000Y-115383000D01*
X174633000Y-113483000D01*
X175633000Y-113483000D01*
X175633000Y-115383000D01*
X175633000Y-115383000D01*
G37*
G36*
X168013000Y-115383000D02*
X167013000Y-115383000D01*
X167013000Y-113483000D01*
X168013000Y-113483000D01*
X168013000Y-115383000D01*
X168013000Y-115383000D01*
G37*
G36*
X169283000Y-115383000D02*
X168283000Y-115383000D01*
X168283000Y-113483000D01*
X169283000Y-113483000D01*
X169283000Y-115383000D01*
X169283000Y-115383000D01*
G37*
G36*
X170553000Y-115383000D02*
X169553000Y-115383000D01*
X169553000Y-113483000D01*
X170553000Y-113483000D01*
X170553000Y-115383000D01*
X170553000Y-115383000D01*
G37*
G36*
X173093000Y-115383000D02*
X172093000Y-115383000D01*
X172093000Y-113483000D01*
X173093000Y-113483000D01*
X173093000Y-115383000D01*
X173093000Y-115383000D01*
G37*
G36*
X166743000Y-115383000D02*
X165743000Y-115383000D01*
X165743000Y-113483000D01*
X166743000Y-113483000D01*
X166743000Y-115383000D01*
X166743000Y-115383000D01*
G37*
G36*
X174363000Y-115383000D02*
X173363000Y-115383000D01*
X173363000Y-113483000D01*
X174363000Y-113483000D01*
X174363000Y-115383000D01*
X174363000Y-115383000D01*
G37*
G36*
X171823000Y-115383000D02*
X170823000Y-115383000D01*
X170823000Y-113483000D01*
X171823000Y-113483000D01*
X171823000Y-115383000D01*
X171823000Y-115383000D01*
G37*
G36*
X152990000Y-115250000D02*
X150590000Y-115250000D01*
X150590000Y-113350000D01*
X152990000Y-113350000D01*
X152990000Y-115250000D01*
X152990000Y-115250000D01*
G37*
G36*
X186608000Y-113440000D02*
X184408000Y-113440000D01*
X184408000Y-112040000D01*
X186608000Y-112040000D01*
X186608000Y-113440000D01*
X186608000Y-113440000D01*
G37*
G36*
X144980000Y-113230000D02*
X142040000Y-113230000D01*
X142040000Y-110290000D01*
X144980000Y-110290000D01*
X144980000Y-113230000D01*
X144980000Y-113230000D01*
G37*
G36*
X152990000Y-112950000D02*
X150590000Y-112950000D01*
X150590000Y-111050000D01*
X152990000Y-111050000D01*
X152990000Y-112950000D01*
X152990000Y-112950000D01*
G37*
G36*
X176903000Y-111819000D02*
X175903000Y-111819000D01*
X175903000Y-109419000D01*
X176903000Y-109419000D01*
X176903000Y-111819000D01*
X176903000Y-111819000D01*
G37*
G36*
X178173000Y-111819000D02*
X177173000Y-111819000D01*
X177173000Y-109419000D01*
X178173000Y-109419000D01*
X178173000Y-111819000D01*
X178173000Y-111819000D01*
G37*
G36*
X175633000Y-111819000D02*
X174633000Y-111819000D01*
X174633000Y-109419000D01*
X175633000Y-109419000D01*
X175633000Y-111819000D01*
X175633000Y-111819000D01*
G37*
G36*
X174363000Y-111819000D02*
X173363000Y-111819000D01*
X173363000Y-109419000D01*
X174363000Y-109419000D01*
X174363000Y-111819000D01*
X174363000Y-111819000D01*
G37*
G36*
X171823000Y-111819000D02*
X170823000Y-111819000D01*
X170823000Y-109419000D01*
X171823000Y-109419000D01*
X171823000Y-111819000D01*
X171823000Y-111819000D01*
G37*
G36*
X170553000Y-111819000D02*
X169553000Y-111819000D01*
X169553000Y-109419000D01*
X170553000Y-109419000D01*
X170553000Y-111819000D01*
X170553000Y-111819000D01*
G37*
G36*
X169283000Y-111819000D02*
X168283000Y-111819000D01*
X168283000Y-109419000D01*
X169283000Y-109419000D01*
X169283000Y-111819000D01*
X169283000Y-111819000D01*
G37*
G36*
X168013000Y-111819000D02*
X167013000Y-111819000D01*
X167013000Y-109419000D01*
X168013000Y-109419000D01*
X168013000Y-111819000D01*
X168013000Y-111819000D01*
G37*
G36*
X173093000Y-111819000D02*
X172093000Y-111819000D01*
X172093000Y-109419000D01*
X173093000Y-109419000D01*
X173093000Y-111819000D01*
X173093000Y-111819000D01*
G37*
G36*
X186608000Y-111440000D02*
X184408000Y-111440000D01*
X184408000Y-110040000D01*
X186608000Y-110040000D01*
X186608000Y-111440000D01*
X186608000Y-111440000D01*
G37*
G36*
X186608000Y-109440000D02*
X184408000Y-109440000D01*
X184408000Y-108040000D01*
X186608000Y-108040000D01*
X186608000Y-109440000D01*
X186608000Y-109440000D01*
G37*
G36*
X186608000Y-107440000D02*
X184408000Y-107440000D01*
X184408000Y-106040000D01*
X186608000Y-106040000D01*
X186608000Y-107440000D01*
X186608000Y-107440000D01*
G37*
G36*
X156498000Y-106206000D02*
X154398000Y-106206000D01*
X154398000Y-104106000D01*
X156498000Y-104106000D01*
X156498000Y-106206000D01*
X156498000Y-106206000D01*
G37*
G36*
X163196707Y-104113596D02*
X163273836Y-104121193D01*
X163405787Y-104161220D01*
X163471763Y-104181233D01*
X163654172Y-104278733D01*
X163814054Y-104409946D01*
X163945267Y-104569828D01*
X164042767Y-104752237D01*
X164042767Y-104752238D01*
X164102807Y-104950164D01*
X164123080Y-105156000D01*
X164102807Y-105361836D01*
X164062780Y-105493787D01*
X164042767Y-105559763D01*
X163945267Y-105742172D01*
X163814054Y-105902054D01*
X163654172Y-106033267D01*
X163471763Y-106130767D01*
X163405787Y-106150780D01*
X163273836Y-106190807D01*
X163196707Y-106198404D01*
X163119580Y-106206000D01*
X163016420Y-106206000D01*
X162939293Y-106198404D01*
X162862164Y-106190807D01*
X162730213Y-106150780D01*
X162664237Y-106130767D01*
X162481828Y-106033267D01*
X162321946Y-105902054D01*
X162190733Y-105742172D01*
X162093233Y-105559763D01*
X162073220Y-105493787D01*
X162033193Y-105361836D01*
X162012920Y-105156000D01*
X162033193Y-104950164D01*
X162093233Y-104752238D01*
X162093233Y-104752237D01*
X162190733Y-104569828D01*
X162321946Y-104409946D01*
X162481828Y-104278733D01*
X162664237Y-104181233D01*
X162730213Y-104161220D01*
X162862164Y-104121193D01*
X162939293Y-104113596D01*
X163016420Y-104106000D01*
X163119580Y-104106000D01*
X163196707Y-104113596D01*
X163196707Y-104113596D01*
G37*
G36*
X160656707Y-104113596D02*
X160733836Y-104121193D01*
X160865787Y-104161220D01*
X160931763Y-104181233D01*
X161114172Y-104278733D01*
X161274054Y-104409946D01*
X161405267Y-104569828D01*
X161502767Y-104752237D01*
X161502767Y-104752238D01*
X161562807Y-104950164D01*
X161583080Y-105156000D01*
X161562807Y-105361836D01*
X161522780Y-105493787D01*
X161502767Y-105559763D01*
X161405267Y-105742172D01*
X161274054Y-105902054D01*
X161114172Y-106033267D01*
X160931763Y-106130767D01*
X160865787Y-106150780D01*
X160733836Y-106190807D01*
X160656707Y-106198404D01*
X160579580Y-106206000D01*
X160476420Y-106206000D01*
X160399293Y-106198404D01*
X160322164Y-106190807D01*
X160190213Y-106150780D01*
X160124237Y-106130767D01*
X159941828Y-106033267D01*
X159781946Y-105902054D01*
X159650733Y-105742172D01*
X159553233Y-105559763D01*
X159533220Y-105493787D01*
X159493193Y-105361836D01*
X159472920Y-105156000D01*
X159493193Y-104950164D01*
X159553233Y-104752238D01*
X159553233Y-104752237D01*
X159650733Y-104569828D01*
X159781946Y-104409946D01*
X159941828Y-104278733D01*
X160124237Y-104181233D01*
X160190213Y-104161220D01*
X160322164Y-104121193D01*
X160399293Y-104113596D01*
X160476420Y-104106000D01*
X160579580Y-104106000D01*
X160656707Y-104113596D01*
X160656707Y-104113596D01*
G37*
G36*
X158116707Y-104113596D02*
X158193836Y-104121193D01*
X158325787Y-104161220D01*
X158391763Y-104181233D01*
X158574172Y-104278733D01*
X158734054Y-104409946D01*
X158865267Y-104569828D01*
X158962767Y-104752237D01*
X158962767Y-104752238D01*
X159022807Y-104950164D01*
X159043080Y-105156000D01*
X159022807Y-105361836D01*
X158982780Y-105493787D01*
X158962767Y-105559763D01*
X158865267Y-105742172D01*
X158734054Y-105902054D01*
X158574172Y-106033267D01*
X158391763Y-106130767D01*
X158325787Y-106150780D01*
X158193836Y-106190807D01*
X158116707Y-106198404D01*
X158039580Y-106206000D01*
X157936420Y-106206000D01*
X157859293Y-106198404D01*
X157782164Y-106190807D01*
X157650213Y-106150780D01*
X157584237Y-106130767D01*
X157401828Y-106033267D01*
X157241946Y-105902054D01*
X157110733Y-105742172D01*
X157013233Y-105559763D01*
X156993220Y-105493787D01*
X156953193Y-105361836D01*
X156932920Y-105156000D01*
X156953193Y-104950164D01*
X157013233Y-104752238D01*
X157013233Y-104752237D01*
X157110733Y-104569828D01*
X157241946Y-104409946D01*
X157401828Y-104278733D01*
X157584237Y-104181233D01*
X157650213Y-104161220D01*
X157782164Y-104121193D01*
X157859293Y-104113596D01*
X157936420Y-104106000D01*
X158039580Y-104106000D01*
X158116707Y-104113596D01*
X158116707Y-104113596D01*
G37*
G36*
X143815000Y-105792000D02*
X140665000Y-105792000D01*
X140665000Y-104392000D01*
X143815000Y-104392000D01*
X143815000Y-105792000D01*
X143815000Y-105792000D01*
G37*
G36*
X149575000Y-105792000D02*
X146425000Y-105792000D01*
X146425000Y-104392000D01*
X149575000Y-104392000D01*
X149575000Y-105792000D01*
X149575000Y-105792000D01*
G37*
G36*
X187708000Y-105590000D02*
X186308000Y-105590000D01*
X186308000Y-102690000D01*
X187708000Y-102690000D01*
X187708000Y-105590000D01*
X187708000Y-105590000D01*
G37*
G36*
X199708000Y-105590000D02*
X198308000Y-105590000D01*
X198308000Y-102690000D01*
X199708000Y-102690000D01*
X199708000Y-105590000D01*
X199708000Y-105590000D01*
G37*
G36*
X201708000Y-105590000D02*
X200308000Y-105590000D01*
X200308000Y-102690000D01*
X201708000Y-102690000D01*
X201708000Y-105590000D01*
X201708000Y-105590000D01*
G37*
G36*
X195708000Y-105590000D02*
X194308000Y-105590000D01*
X194308000Y-102690000D01*
X195708000Y-102690000D01*
X195708000Y-105590000D01*
X195708000Y-105590000D01*
G37*
G36*
X191708000Y-105590000D02*
X190308000Y-105590000D01*
X190308000Y-102690000D01*
X191708000Y-102690000D01*
X191708000Y-105590000D01*
X191708000Y-105590000D01*
G37*
G36*
X189708000Y-105590000D02*
X188308000Y-105590000D01*
X188308000Y-102690000D01*
X189708000Y-102690000D01*
X189708000Y-105590000D01*
X189708000Y-105590000D01*
G37*
G36*
X197708000Y-105590000D02*
X196308000Y-105590000D01*
X196308000Y-102690000D01*
X197708000Y-102690000D01*
X197708000Y-105590000D01*
X197708000Y-105590000D01*
G37*
G36*
X193708000Y-105590000D02*
X192308000Y-105590000D01*
X192308000Y-102690000D01*
X193708000Y-102690000D01*
X193708000Y-105590000D01*
X193708000Y-105590000D01*
G37*
G36*
X175633000Y-102419000D02*
X174633000Y-102419000D01*
X174633000Y-100019000D01*
X175633000Y-100019000D01*
X175633000Y-102419000D01*
X175633000Y-102419000D01*
G37*
G36*
X178173000Y-102419000D02*
X177173000Y-102419000D01*
X177173000Y-100019000D01*
X178173000Y-100019000D01*
X178173000Y-102419000D01*
X178173000Y-102419000D01*
G37*
G36*
X176903000Y-102419000D02*
X175903000Y-102419000D01*
X175903000Y-100019000D01*
X176903000Y-100019000D01*
X176903000Y-102419000D01*
X176903000Y-102419000D01*
G37*
G36*
X174363000Y-102419000D02*
X173363000Y-102419000D01*
X173363000Y-100019000D01*
X174363000Y-100019000D01*
X174363000Y-102419000D01*
X174363000Y-102419000D01*
G37*
G36*
X173093000Y-102419000D02*
X172093000Y-102419000D01*
X172093000Y-100019000D01*
X173093000Y-100019000D01*
X173093000Y-102419000D01*
X173093000Y-102419000D01*
G37*
G36*
X171823000Y-102419000D02*
X170823000Y-102419000D01*
X170823000Y-100019000D01*
X171823000Y-100019000D01*
X171823000Y-102419000D01*
X171823000Y-102419000D01*
G37*
G36*
X170553000Y-102419000D02*
X169553000Y-102419000D01*
X169553000Y-100019000D01*
X170553000Y-100019000D01*
X170553000Y-102419000D01*
X170553000Y-102419000D01*
G37*
G36*
X169283000Y-102419000D02*
X168283000Y-102419000D01*
X168283000Y-100019000D01*
X169283000Y-100019000D01*
X169283000Y-102419000D01*
X169283000Y-102419000D01*
G37*
G36*
X168013000Y-102419000D02*
X167013000Y-102419000D01*
X167013000Y-100019000D01*
X168013000Y-100019000D01*
X168013000Y-102419000D01*
X168013000Y-102419000D01*
G37*
G36*
X149575000Y-101792000D02*
X146425000Y-101792000D01*
X146425000Y-100392000D01*
X149575000Y-100392000D01*
X149575000Y-101792000D01*
X149575000Y-101792000D01*
G37*
G36*
X143815000Y-101792000D02*
X140665000Y-101792000D01*
X140665000Y-100392000D01*
X143815000Y-100392000D01*
X143815000Y-101792000D01*
X143815000Y-101792000D01*
G37*
G36*
X201111530Y-99435710D02*
X201161379Y-99450831D01*
X201207311Y-99475382D01*
X201247574Y-99508426D01*
X201280618Y-99548689D01*
X201305169Y-99594621D01*
X201320290Y-99644470D01*
X201326000Y-99702444D01*
X201326000Y-100957556D01*
X201320290Y-101015530D01*
X201305169Y-101065379D01*
X201280618Y-101111311D01*
X201247574Y-101151574D01*
X201207311Y-101184618D01*
X201161379Y-101209169D01*
X201111530Y-101224290D01*
X201053556Y-101230000D01*
X200048444Y-101230000D01*
X199990470Y-101224290D01*
X199940621Y-101209169D01*
X199894689Y-101184618D01*
X199854426Y-101151574D01*
X199821382Y-101111311D01*
X199796831Y-101065379D01*
X199781710Y-101015530D01*
X199776000Y-100957556D01*
X199776000Y-99702444D01*
X199781710Y-99644470D01*
X199796831Y-99594621D01*
X199821382Y-99548689D01*
X199854426Y-99508426D01*
X199894689Y-99475382D01*
X199940621Y-99450831D01*
X199990470Y-99435710D01*
X200048444Y-99430000D01*
X201053556Y-99430000D01*
X201111530Y-99435710D01*
X201111530Y-99435710D01*
G37*
G36*
X199061530Y-99435710D02*
X199111379Y-99450831D01*
X199157311Y-99475382D01*
X199197574Y-99508426D01*
X199230618Y-99548689D01*
X199255169Y-99594621D01*
X199270290Y-99644470D01*
X199276000Y-99702444D01*
X199276000Y-100957556D01*
X199270290Y-101015530D01*
X199255169Y-101065379D01*
X199230618Y-101111311D01*
X199197574Y-101151574D01*
X199157311Y-101184618D01*
X199111379Y-101209169D01*
X199061530Y-101224290D01*
X199003556Y-101230000D01*
X197998444Y-101230000D01*
X197940470Y-101224290D01*
X197890621Y-101209169D01*
X197844689Y-101184618D01*
X197804426Y-101151574D01*
X197771382Y-101111311D01*
X197746831Y-101065379D01*
X197731710Y-101015530D01*
X197726000Y-100957556D01*
X197726000Y-99702444D01*
X197731710Y-99644470D01*
X197746831Y-99594621D01*
X197771382Y-99548689D01*
X197804426Y-99508426D01*
X197844689Y-99475382D01*
X197890621Y-99450831D01*
X197940470Y-99435710D01*
X197998444Y-99430000D01*
X199003556Y-99430000D01*
X199061530Y-99435710D01*
X199061530Y-99435710D01*
G37*
G36*
X144469530Y-97149710D02*
X144519379Y-97164831D01*
X144565311Y-97189382D01*
X144605574Y-97222426D01*
X144638618Y-97262689D01*
X144663169Y-97308621D01*
X144678290Y-97358470D01*
X144684000Y-97416444D01*
X144684000Y-98671556D01*
X144678290Y-98729530D01*
X144663169Y-98779379D01*
X144638618Y-98825311D01*
X144605574Y-98865574D01*
X144565311Y-98898618D01*
X144519379Y-98923169D01*
X144469530Y-98938290D01*
X144411556Y-98944000D01*
X143406444Y-98944000D01*
X143348470Y-98938290D01*
X143298621Y-98923169D01*
X143252689Y-98898618D01*
X143212426Y-98865574D01*
X143179382Y-98825311D01*
X143154831Y-98779379D01*
X143139710Y-98729530D01*
X143134000Y-98671556D01*
X143134000Y-97416444D01*
X143139710Y-97358470D01*
X143154831Y-97308621D01*
X143179382Y-97262689D01*
X143212426Y-97222426D01*
X143252689Y-97189382D01*
X143298621Y-97164831D01*
X143348470Y-97149710D01*
X143406444Y-97144000D01*
X144411556Y-97144000D01*
X144469530Y-97149710D01*
X144469530Y-97149710D01*
G37*
G36*
X142419530Y-97149710D02*
X142469379Y-97164831D01*
X142515311Y-97189382D01*
X142555574Y-97222426D01*
X142588618Y-97262689D01*
X142613169Y-97308621D01*
X142628290Y-97358470D01*
X142634000Y-97416444D01*
X142634000Y-98671556D01*
X142628290Y-98729530D01*
X142613169Y-98779379D01*
X142588618Y-98825311D01*
X142555574Y-98865574D01*
X142515311Y-98898618D01*
X142469379Y-98923169D01*
X142419530Y-98938290D01*
X142361556Y-98944000D01*
X141356444Y-98944000D01*
X141298470Y-98938290D01*
X141248621Y-98923169D01*
X141202689Y-98898618D01*
X141162426Y-98865574D01*
X141129382Y-98825311D01*
X141104831Y-98779379D01*
X141089710Y-98729530D01*
X141084000Y-98671556D01*
X141084000Y-97416444D01*
X141089710Y-97358470D01*
X141104831Y-97308621D01*
X141129382Y-97262689D01*
X141162426Y-97222426D01*
X141202689Y-97189382D01*
X141248621Y-97164831D01*
X141298470Y-97149710D01*
X141356444Y-97144000D01*
X142361556Y-97144000D01*
X142419530Y-97149710D01*
X142419530Y-97149710D01*
G37*
G36*
X183160603Y-91784968D02*
X183160606Y-91784969D01*
X183160605Y-91784969D01*
X183335678Y-91857486D01*
X183335679Y-91857487D01*
X183493241Y-91962767D01*
X183627233Y-92096759D01*
X183627234Y-92096761D01*
X183732514Y-92254322D01*
X183788603Y-92389734D01*
X183805032Y-92429397D01*
X183842000Y-92615250D01*
X183842000Y-92804750D01*
X183805032Y-92990603D01*
X183805031Y-92990605D01*
X183732514Y-93165678D01*
X183732513Y-93165679D01*
X183627233Y-93323241D01*
X183493241Y-93457233D01*
X183413923Y-93510232D01*
X183335678Y-93562514D01*
X183200266Y-93618603D01*
X183160603Y-93635032D01*
X182974750Y-93672000D01*
X182785250Y-93672000D01*
X182599397Y-93635032D01*
X182559734Y-93618603D01*
X182424322Y-93562514D01*
X182346077Y-93510232D01*
X182266759Y-93457233D01*
X182132767Y-93323241D01*
X182027487Y-93165679D01*
X182027486Y-93165678D01*
X181954969Y-92990605D01*
X181954968Y-92990603D01*
X181918000Y-92804750D01*
X181918000Y-92615250D01*
X181954968Y-92429397D01*
X181971397Y-92389734D01*
X182027486Y-92254322D01*
X182132766Y-92096761D01*
X182132767Y-92096759D01*
X182266759Y-91962767D01*
X182424321Y-91857487D01*
X182424322Y-91857486D01*
X182599395Y-91784969D01*
X182599394Y-91784969D01*
X182599397Y-91784968D01*
X182785250Y-91748000D01*
X182974750Y-91748000D01*
X183160603Y-91784968D01*
X183160603Y-91784968D01*
G37*
G36*
X213640603Y-91784968D02*
X213640606Y-91784969D01*
X213640605Y-91784969D01*
X213815678Y-91857486D01*
X213815679Y-91857487D01*
X213973241Y-91962767D01*
X214107233Y-92096759D01*
X214107234Y-92096761D01*
X214212514Y-92254322D01*
X214268603Y-92389734D01*
X214285032Y-92429397D01*
X214322000Y-92615250D01*
X214322000Y-92804750D01*
X214285032Y-92990603D01*
X214285031Y-92990605D01*
X214212514Y-93165678D01*
X214212513Y-93165679D01*
X214107233Y-93323241D01*
X213973241Y-93457233D01*
X213893923Y-93510232D01*
X213815678Y-93562514D01*
X213680266Y-93618603D01*
X213640603Y-93635032D01*
X213454750Y-93672000D01*
X213265250Y-93672000D01*
X213079397Y-93635032D01*
X213039734Y-93618603D01*
X212904322Y-93562514D01*
X212826077Y-93510232D01*
X212746759Y-93457233D01*
X212612767Y-93323241D01*
X212507487Y-93165679D01*
X212507486Y-93165678D01*
X212434969Y-92990605D01*
X212434968Y-92990603D01*
X212398000Y-92804750D01*
X212398000Y-92615250D01*
X212434968Y-92429397D01*
X212451397Y-92389734D01*
X212507486Y-92254322D01*
X212612766Y-92096761D01*
X212612767Y-92096759D01*
X212746759Y-91962767D01*
X212904321Y-91857487D01*
X212904322Y-91857486D01*
X213079395Y-91784969D01*
X213079394Y-91784969D01*
X213079397Y-91784968D01*
X213265250Y-91748000D01*
X213454750Y-91748000D01*
X213640603Y-91784968D01*
X213640603Y-91784968D01*
G37*
G36*
X203480603Y-91784968D02*
X203480606Y-91784969D01*
X203480605Y-91784969D01*
X203655678Y-91857486D01*
X203655679Y-91857487D01*
X203813241Y-91962767D01*
X203947233Y-92096759D01*
X203947234Y-92096761D01*
X204052514Y-92254322D01*
X204108603Y-92389734D01*
X204125032Y-92429397D01*
X204162000Y-92615250D01*
X204162000Y-92804750D01*
X204125032Y-92990603D01*
X204125031Y-92990605D01*
X204052514Y-93165678D01*
X204052513Y-93165679D01*
X203947233Y-93323241D01*
X203813241Y-93457233D01*
X203733923Y-93510232D01*
X203655678Y-93562514D01*
X203520266Y-93618603D01*
X203480603Y-93635032D01*
X203294750Y-93672000D01*
X203105250Y-93672000D01*
X202919397Y-93635032D01*
X202879734Y-93618603D01*
X202744322Y-93562514D01*
X202666077Y-93510232D01*
X202586759Y-93457233D01*
X202452767Y-93323241D01*
X202347487Y-93165679D01*
X202347486Y-93165678D01*
X202274969Y-92990605D01*
X202274968Y-92990603D01*
X202238000Y-92804750D01*
X202238000Y-92615250D01*
X202274968Y-92429397D01*
X202291397Y-92389734D01*
X202347486Y-92254322D01*
X202452766Y-92096761D01*
X202452767Y-92096759D01*
X202586759Y-91962767D01*
X202744321Y-91857487D01*
X202744322Y-91857486D01*
X202919395Y-91784969D01*
X202919394Y-91784969D01*
X202919397Y-91784968D01*
X203105250Y-91748000D01*
X203294750Y-91748000D01*
X203480603Y-91784968D01*
X203480603Y-91784968D01*
G37*
G36*
X193320603Y-91784968D02*
X193320606Y-91784969D01*
X193320605Y-91784969D01*
X193495678Y-91857486D01*
X193495679Y-91857487D01*
X193653241Y-91962767D01*
X193787233Y-92096759D01*
X193787234Y-92096761D01*
X193892514Y-92254322D01*
X193948603Y-92389734D01*
X193965032Y-92429397D01*
X194002000Y-92615250D01*
X194002000Y-92804750D01*
X193965032Y-92990603D01*
X193965031Y-92990605D01*
X193892514Y-93165678D01*
X193892513Y-93165679D01*
X193787233Y-93323241D01*
X193653241Y-93457233D01*
X193573923Y-93510232D01*
X193495678Y-93562514D01*
X193360266Y-93618603D01*
X193320603Y-93635032D01*
X193134750Y-93672000D01*
X192945250Y-93672000D01*
X192759397Y-93635032D01*
X192719734Y-93618603D01*
X192584322Y-93562514D01*
X192506077Y-93510232D01*
X192426759Y-93457233D01*
X192292767Y-93323241D01*
X192187487Y-93165679D01*
X192187486Y-93165678D01*
X192114969Y-92990605D01*
X192114968Y-92990603D01*
X192078000Y-92804750D01*
X192078000Y-92615250D01*
X192114968Y-92429397D01*
X192131397Y-92389734D01*
X192187486Y-92254322D01*
X192292766Y-92096761D01*
X192292767Y-92096759D01*
X192426759Y-91962767D01*
X192584321Y-91857487D01*
X192584322Y-91857486D01*
X192759395Y-91784969D01*
X192759394Y-91784969D01*
X192759397Y-91784968D01*
X192945250Y-91748000D01*
X193134750Y-91748000D01*
X193320603Y-91784968D01*
X193320603Y-91784968D01*
G37*
G36*
X173000603Y-91784968D02*
X173000606Y-91784969D01*
X173000605Y-91784969D01*
X173175678Y-91857486D01*
X173175679Y-91857487D01*
X173333241Y-91962767D01*
X173467233Y-92096759D01*
X173467234Y-92096761D01*
X173572514Y-92254322D01*
X173628603Y-92389734D01*
X173645032Y-92429397D01*
X173682000Y-92615250D01*
X173682000Y-92804750D01*
X173645032Y-92990603D01*
X173645031Y-92990605D01*
X173572514Y-93165678D01*
X173572513Y-93165679D01*
X173467233Y-93323241D01*
X173333241Y-93457233D01*
X173253923Y-93510232D01*
X173175678Y-93562514D01*
X173040266Y-93618603D01*
X173000603Y-93635032D01*
X172814750Y-93672000D01*
X172625250Y-93672000D01*
X172439397Y-93635032D01*
X172399734Y-93618603D01*
X172264322Y-93562514D01*
X172186077Y-93510232D01*
X172106759Y-93457233D01*
X171972767Y-93323241D01*
X171867487Y-93165679D01*
X171867486Y-93165678D01*
X171794969Y-92990605D01*
X171794968Y-92990603D01*
X171758000Y-92804750D01*
X171758000Y-92615250D01*
X171794968Y-92429397D01*
X171811397Y-92389734D01*
X171867486Y-92254322D01*
X171972766Y-92096761D01*
X171972767Y-92096759D01*
X172106759Y-91962767D01*
X172264321Y-91857487D01*
X172264322Y-91857486D01*
X172439395Y-91784969D01*
X172439394Y-91784969D01*
X172439397Y-91784968D01*
X172625250Y-91748000D01*
X172814750Y-91748000D01*
X173000603Y-91784968D01*
X173000603Y-91784968D01*
G37*
G36*
X162840603Y-91784968D02*
X162840606Y-91784969D01*
X162840605Y-91784969D01*
X163015678Y-91857486D01*
X163015679Y-91857487D01*
X163173241Y-91962767D01*
X163307233Y-92096759D01*
X163307234Y-92096761D01*
X163412514Y-92254322D01*
X163468603Y-92389734D01*
X163485032Y-92429397D01*
X163522000Y-92615250D01*
X163522000Y-92804750D01*
X163485032Y-92990603D01*
X163485031Y-92990605D01*
X163412514Y-93165678D01*
X163412513Y-93165679D01*
X163307233Y-93323241D01*
X163173241Y-93457233D01*
X163093923Y-93510232D01*
X163015678Y-93562514D01*
X162880266Y-93618603D01*
X162840603Y-93635032D01*
X162654750Y-93672000D01*
X162465250Y-93672000D01*
X162279397Y-93635032D01*
X162239734Y-93618603D01*
X162104322Y-93562514D01*
X162026077Y-93510232D01*
X161946759Y-93457233D01*
X161812767Y-93323241D01*
X161707487Y-93165679D01*
X161707486Y-93165678D01*
X161634969Y-92990605D01*
X161634968Y-92990603D01*
X161598000Y-92804750D01*
X161598000Y-92615250D01*
X161634968Y-92429397D01*
X161651397Y-92389734D01*
X161707486Y-92254322D01*
X161812766Y-92096761D01*
X161812767Y-92096759D01*
X161946759Y-91962767D01*
X162104321Y-91857487D01*
X162104322Y-91857486D01*
X162279395Y-91784969D01*
X162279394Y-91784969D01*
X162279397Y-91784968D01*
X162465250Y-91748000D01*
X162654750Y-91748000D01*
X162840603Y-91784968D01*
X162840603Y-91784968D01*
G37*
G36*
X152680603Y-91784968D02*
X152680606Y-91784969D01*
X152680605Y-91784969D01*
X152855678Y-91857486D01*
X152855679Y-91857487D01*
X153013241Y-91962767D01*
X153147233Y-92096759D01*
X153147234Y-92096761D01*
X153252514Y-92254322D01*
X153308603Y-92389734D01*
X153325032Y-92429397D01*
X153362000Y-92615250D01*
X153362000Y-92804750D01*
X153325032Y-92990603D01*
X153325031Y-92990605D01*
X153252514Y-93165678D01*
X153252513Y-93165679D01*
X153147233Y-93323241D01*
X153013241Y-93457233D01*
X152933923Y-93510232D01*
X152855678Y-93562514D01*
X152720266Y-93618603D01*
X152680603Y-93635032D01*
X152494750Y-93672000D01*
X152305250Y-93672000D01*
X152119397Y-93635032D01*
X152079734Y-93618603D01*
X151944322Y-93562514D01*
X151866077Y-93510232D01*
X151786759Y-93457233D01*
X151652767Y-93323241D01*
X151547487Y-93165679D01*
X151547486Y-93165678D01*
X151474969Y-92990605D01*
X151474968Y-92990603D01*
X151438000Y-92804750D01*
X151438000Y-92615250D01*
X151474968Y-92429397D01*
X151491397Y-92389734D01*
X151547486Y-92254322D01*
X151652766Y-92096761D01*
X151652767Y-92096759D01*
X151786759Y-91962767D01*
X151944321Y-91857487D01*
X151944322Y-91857486D01*
X152119395Y-91784969D01*
X152119394Y-91784969D01*
X152119397Y-91784968D01*
X152305250Y-91748000D01*
X152494750Y-91748000D01*
X152680603Y-91784968D01*
X152680603Y-91784968D01*
G37*
G36*
X142520603Y-91784968D02*
X142520606Y-91784969D01*
X142520605Y-91784969D01*
X142695678Y-91857486D01*
X142695679Y-91857487D01*
X142853241Y-91962767D01*
X142987233Y-92096759D01*
X142987234Y-92096761D01*
X143092514Y-92254322D01*
X143148603Y-92389734D01*
X143165032Y-92429397D01*
X143202000Y-92615250D01*
X143202000Y-92804750D01*
X143165032Y-92990603D01*
X143165031Y-92990605D01*
X143092514Y-93165678D01*
X143092513Y-93165679D01*
X142987233Y-93323241D01*
X142853241Y-93457233D01*
X142773923Y-93510232D01*
X142695678Y-93562514D01*
X142560266Y-93618603D01*
X142520603Y-93635032D01*
X142334750Y-93672000D01*
X142145250Y-93672000D01*
X141959397Y-93635032D01*
X141919734Y-93618603D01*
X141784322Y-93562514D01*
X141706077Y-93510232D01*
X141626759Y-93457233D01*
X141492767Y-93323241D01*
X141387487Y-93165679D01*
X141387486Y-93165678D01*
X141314969Y-92990605D01*
X141314968Y-92990603D01*
X141278000Y-92804750D01*
X141278000Y-92615250D01*
X141314968Y-92429397D01*
X141331397Y-92389734D01*
X141387486Y-92254322D01*
X141492766Y-92096761D01*
X141492767Y-92096759D01*
X141626759Y-91962767D01*
X141784321Y-91857487D01*
X141784322Y-91857486D01*
X141959395Y-91784969D01*
X141959394Y-91784969D01*
X141959397Y-91784968D01*
X142145250Y-91748000D01*
X142334750Y-91748000D01*
X142520603Y-91784968D01*
X142520603Y-91784968D01*
G37*
G36*
X142520603Y-86704968D02*
X142520606Y-86704969D01*
X142520605Y-86704969D01*
X142695678Y-86777486D01*
X142695679Y-86777487D01*
X142853241Y-86882767D01*
X142987233Y-87016759D01*
X142987234Y-87016761D01*
X143092514Y-87174322D01*
X143148603Y-87309734D01*
X143165032Y-87349397D01*
X143202000Y-87535250D01*
X143202000Y-87724750D01*
X143165032Y-87910603D01*
X143165031Y-87910605D01*
X143092514Y-88085678D01*
X143092513Y-88085679D01*
X142987233Y-88243241D01*
X142853241Y-88377233D01*
X142773923Y-88430232D01*
X142695678Y-88482514D01*
X142560266Y-88538603D01*
X142520603Y-88555032D01*
X142334750Y-88592000D01*
X142145250Y-88592000D01*
X141959397Y-88555032D01*
X141919734Y-88538603D01*
X141784322Y-88482514D01*
X141706077Y-88430232D01*
X141626759Y-88377233D01*
X141492767Y-88243241D01*
X141387487Y-88085679D01*
X141387486Y-88085678D01*
X141314969Y-87910605D01*
X141314968Y-87910603D01*
X141278000Y-87724750D01*
X141278000Y-87535250D01*
X141314968Y-87349397D01*
X141331397Y-87309734D01*
X141387486Y-87174322D01*
X141492766Y-87016761D01*
X141492767Y-87016759D01*
X141626759Y-86882767D01*
X141784321Y-86777487D01*
X141784322Y-86777486D01*
X141959395Y-86704969D01*
X141959394Y-86704969D01*
X141959397Y-86704968D01*
X142145250Y-86668000D01*
X142334750Y-86668000D01*
X142520603Y-86704968D01*
X142520603Y-86704968D01*
G37*
G36*
X152680603Y-86704968D02*
X152680606Y-86704969D01*
X152680605Y-86704969D01*
X152855678Y-86777486D01*
X152855679Y-86777487D01*
X153013241Y-86882767D01*
X153147233Y-87016759D01*
X153147234Y-87016761D01*
X153252514Y-87174322D01*
X153308603Y-87309734D01*
X153325032Y-87349397D01*
X153362000Y-87535250D01*
X153362000Y-87724750D01*
X153325032Y-87910603D01*
X153325031Y-87910605D01*
X153252514Y-88085678D01*
X153252513Y-88085679D01*
X153147233Y-88243241D01*
X153013241Y-88377233D01*
X152933923Y-88430232D01*
X152855678Y-88482514D01*
X152720266Y-88538603D01*
X152680603Y-88555032D01*
X152494750Y-88592000D01*
X152305250Y-88592000D01*
X152119397Y-88555032D01*
X152079734Y-88538603D01*
X151944322Y-88482514D01*
X151866077Y-88430232D01*
X151786759Y-88377233D01*
X151652767Y-88243241D01*
X151547487Y-88085679D01*
X151547486Y-88085678D01*
X151474969Y-87910605D01*
X151474968Y-87910603D01*
X151438000Y-87724750D01*
X151438000Y-87535250D01*
X151474968Y-87349397D01*
X151491397Y-87309734D01*
X151547486Y-87174322D01*
X151652766Y-87016761D01*
X151652767Y-87016759D01*
X151786759Y-86882767D01*
X151944321Y-86777487D01*
X151944322Y-86777486D01*
X152119395Y-86704969D01*
X152119394Y-86704969D01*
X152119397Y-86704968D01*
X152305250Y-86668000D01*
X152494750Y-86668000D01*
X152680603Y-86704968D01*
X152680603Y-86704968D01*
G37*
G36*
X213640603Y-86704968D02*
X213640606Y-86704969D01*
X213640605Y-86704969D01*
X213815678Y-86777486D01*
X213815679Y-86777487D01*
X213973241Y-86882767D01*
X214107233Y-87016759D01*
X214107234Y-87016761D01*
X214212514Y-87174322D01*
X214268603Y-87309734D01*
X214285032Y-87349397D01*
X214322000Y-87535250D01*
X214322000Y-87724750D01*
X214285032Y-87910603D01*
X214285031Y-87910605D01*
X214212514Y-88085678D01*
X214212513Y-88085679D01*
X214107233Y-88243241D01*
X213973241Y-88377233D01*
X213893923Y-88430232D01*
X213815678Y-88482514D01*
X213680266Y-88538603D01*
X213640603Y-88555032D01*
X213454750Y-88592000D01*
X213265250Y-88592000D01*
X213079397Y-88555032D01*
X213039734Y-88538603D01*
X212904322Y-88482514D01*
X212826077Y-88430232D01*
X212746759Y-88377233D01*
X212612767Y-88243241D01*
X212507487Y-88085679D01*
X212507486Y-88085678D01*
X212434969Y-87910605D01*
X212434968Y-87910603D01*
X212398000Y-87724750D01*
X212398000Y-87535250D01*
X212434968Y-87349397D01*
X212451397Y-87309734D01*
X212507486Y-87174322D01*
X212612766Y-87016761D01*
X212612767Y-87016759D01*
X212746759Y-86882767D01*
X212904321Y-86777487D01*
X212904322Y-86777486D01*
X213079395Y-86704969D01*
X213079394Y-86704969D01*
X213079397Y-86704968D01*
X213265250Y-86668000D01*
X213454750Y-86668000D01*
X213640603Y-86704968D01*
X213640603Y-86704968D01*
G37*
G36*
X203480603Y-86704968D02*
X203480606Y-86704969D01*
X203480605Y-86704969D01*
X203655678Y-86777486D01*
X203655679Y-86777487D01*
X203813241Y-86882767D01*
X203947233Y-87016759D01*
X203947234Y-87016761D01*
X204052514Y-87174322D01*
X204108603Y-87309734D01*
X204125032Y-87349397D01*
X204162000Y-87535250D01*
X204162000Y-87724750D01*
X204125032Y-87910603D01*
X204125031Y-87910605D01*
X204052514Y-88085678D01*
X204052513Y-88085679D01*
X203947233Y-88243241D01*
X203813241Y-88377233D01*
X203733923Y-88430232D01*
X203655678Y-88482514D01*
X203520266Y-88538603D01*
X203480603Y-88555032D01*
X203294750Y-88592000D01*
X203105250Y-88592000D01*
X202919397Y-88555032D01*
X202879734Y-88538603D01*
X202744322Y-88482514D01*
X202666077Y-88430232D01*
X202586759Y-88377233D01*
X202452767Y-88243241D01*
X202347487Y-88085679D01*
X202347486Y-88085678D01*
X202274969Y-87910605D01*
X202274968Y-87910603D01*
X202238000Y-87724750D01*
X202238000Y-87535250D01*
X202274968Y-87349397D01*
X202291397Y-87309734D01*
X202347486Y-87174322D01*
X202452766Y-87016761D01*
X202452767Y-87016759D01*
X202586759Y-86882767D01*
X202744321Y-86777487D01*
X202744322Y-86777486D01*
X202919395Y-86704969D01*
X202919394Y-86704969D01*
X202919397Y-86704968D01*
X203105250Y-86668000D01*
X203294750Y-86668000D01*
X203480603Y-86704968D01*
X203480603Y-86704968D01*
G37*
G36*
X183160603Y-86704968D02*
X183160606Y-86704969D01*
X183160605Y-86704969D01*
X183335678Y-86777486D01*
X183335679Y-86777487D01*
X183493241Y-86882767D01*
X183627233Y-87016759D01*
X183627234Y-87016761D01*
X183732514Y-87174322D01*
X183788603Y-87309734D01*
X183805032Y-87349397D01*
X183842000Y-87535250D01*
X183842000Y-87724750D01*
X183805032Y-87910603D01*
X183805031Y-87910605D01*
X183732514Y-88085678D01*
X183732513Y-88085679D01*
X183627233Y-88243241D01*
X183493241Y-88377233D01*
X183413923Y-88430232D01*
X183335678Y-88482514D01*
X183200266Y-88538603D01*
X183160603Y-88555032D01*
X182974750Y-88592000D01*
X182785250Y-88592000D01*
X182599397Y-88555032D01*
X182559734Y-88538603D01*
X182424322Y-88482514D01*
X182346077Y-88430232D01*
X182266759Y-88377233D01*
X182132767Y-88243241D01*
X182027487Y-88085679D01*
X182027486Y-88085678D01*
X181954969Y-87910605D01*
X181954968Y-87910603D01*
X181918000Y-87724750D01*
X181918000Y-87535250D01*
X181954968Y-87349397D01*
X181971397Y-87309734D01*
X182027486Y-87174322D01*
X182132766Y-87016761D01*
X182132767Y-87016759D01*
X182266759Y-86882767D01*
X182424321Y-86777487D01*
X182424322Y-86777486D01*
X182599395Y-86704969D01*
X182599394Y-86704969D01*
X182599397Y-86704968D01*
X182785250Y-86668000D01*
X182974750Y-86668000D01*
X183160603Y-86704968D01*
X183160603Y-86704968D01*
G37*
G36*
X173000603Y-86704968D02*
X173000606Y-86704969D01*
X173000605Y-86704969D01*
X173175678Y-86777486D01*
X173175679Y-86777487D01*
X173333241Y-86882767D01*
X173467233Y-87016759D01*
X173467234Y-87016761D01*
X173572514Y-87174322D01*
X173628603Y-87309734D01*
X173645032Y-87349397D01*
X173682000Y-87535250D01*
X173682000Y-87724750D01*
X173645032Y-87910603D01*
X173645031Y-87910605D01*
X173572514Y-88085678D01*
X173572513Y-88085679D01*
X173467233Y-88243241D01*
X173333241Y-88377233D01*
X173253923Y-88430232D01*
X173175678Y-88482514D01*
X173040266Y-88538603D01*
X173000603Y-88555032D01*
X172814750Y-88592000D01*
X172625250Y-88592000D01*
X172439397Y-88555032D01*
X172399734Y-88538603D01*
X172264322Y-88482514D01*
X172186077Y-88430232D01*
X172106759Y-88377233D01*
X171972767Y-88243241D01*
X171867487Y-88085679D01*
X171867486Y-88085678D01*
X171794969Y-87910605D01*
X171794968Y-87910603D01*
X171758000Y-87724750D01*
X171758000Y-87535250D01*
X171794968Y-87349397D01*
X171811397Y-87309734D01*
X171867486Y-87174322D01*
X171972766Y-87016761D01*
X171972767Y-87016759D01*
X172106759Y-86882767D01*
X172264321Y-86777487D01*
X172264322Y-86777486D01*
X172439395Y-86704969D01*
X172439394Y-86704969D01*
X172439397Y-86704968D01*
X172625250Y-86668000D01*
X172814750Y-86668000D01*
X173000603Y-86704968D01*
X173000603Y-86704968D01*
G37*
G36*
X162840603Y-86704968D02*
X162840606Y-86704969D01*
X162840605Y-86704969D01*
X163015678Y-86777486D01*
X163015679Y-86777487D01*
X163173241Y-86882767D01*
X163307233Y-87016759D01*
X163307234Y-87016761D01*
X163412514Y-87174322D01*
X163468603Y-87309734D01*
X163485032Y-87349397D01*
X163522000Y-87535250D01*
X163522000Y-87724750D01*
X163485032Y-87910603D01*
X163485031Y-87910605D01*
X163412514Y-88085678D01*
X163412513Y-88085679D01*
X163307233Y-88243241D01*
X163173241Y-88377233D01*
X163093923Y-88430232D01*
X163015678Y-88482514D01*
X162880266Y-88538603D01*
X162840603Y-88555032D01*
X162654750Y-88592000D01*
X162465250Y-88592000D01*
X162279397Y-88555032D01*
X162239734Y-88538603D01*
X162104322Y-88482514D01*
X162026077Y-88430232D01*
X161946759Y-88377233D01*
X161812767Y-88243241D01*
X161707487Y-88085679D01*
X161707486Y-88085678D01*
X161634969Y-87910605D01*
X161634968Y-87910603D01*
X161598000Y-87724750D01*
X161598000Y-87535250D01*
X161634968Y-87349397D01*
X161651397Y-87309734D01*
X161707486Y-87174322D01*
X161812766Y-87016761D01*
X161812767Y-87016759D01*
X161946759Y-86882767D01*
X162104321Y-86777487D01*
X162104322Y-86777486D01*
X162279395Y-86704969D01*
X162279394Y-86704969D01*
X162279397Y-86704968D01*
X162465250Y-86668000D01*
X162654750Y-86668000D01*
X162840603Y-86704968D01*
X162840603Y-86704968D01*
G37*
G36*
X193320603Y-86704968D02*
X193320606Y-86704969D01*
X193320605Y-86704969D01*
X193495678Y-86777486D01*
X193495679Y-86777487D01*
X193653241Y-86882767D01*
X193787233Y-87016759D01*
X193787234Y-87016761D01*
X193892514Y-87174322D01*
X193948603Y-87309734D01*
X193965032Y-87349397D01*
X194002000Y-87535250D01*
X194002000Y-87724750D01*
X193965032Y-87910603D01*
X193965031Y-87910605D01*
X193892514Y-88085678D01*
X193892513Y-88085679D01*
X193787233Y-88243241D01*
X193653241Y-88377233D01*
X193573923Y-88430232D01*
X193495678Y-88482514D01*
X193360266Y-88538603D01*
X193320603Y-88555032D01*
X193134750Y-88592000D01*
X192945250Y-88592000D01*
X192759397Y-88555032D01*
X192719734Y-88538603D01*
X192584322Y-88482514D01*
X192506077Y-88430232D01*
X192426759Y-88377233D01*
X192292767Y-88243241D01*
X192187487Y-88085679D01*
X192187486Y-88085678D01*
X192114969Y-87910605D01*
X192114968Y-87910603D01*
X192078000Y-87724750D01*
X192078000Y-87535250D01*
X192114968Y-87349397D01*
X192131397Y-87309734D01*
X192187486Y-87174322D01*
X192292766Y-87016761D01*
X192292767Y-87016759D01*
X192426759Y-86882767D01*
X192584321Y-86777487D01*
X192584322Y-86777486D01*
X192759395Y-86704969D01*
X192759394Y-86704969D01*
X192759397Y-86704968D01*
X192945250Y-86668000D01*
X193134750Y-86668000D01*
X193320603Y-86704968D01*
X193320603Y-86704968D01*
G37*
G36*
X203480603Y-81624968D02*
X203480606Y-81624969D01*
X203480605Y-81624969D01*
X203655678Y-81697486D01*
X203655679Y-81697487D01*
X203813241Y-81802767D01*
X203947233Y-81936759D01*
X203947234Y-81936761D01*
X204052514Y-82094322D01*
X204108603Y-82229734D01*
X204125032Y-82269397D01*
X204162000Y-82455250D01*
X204162000Y-82644750D01*
X204125032Y-82830603D01*
X204125031Y-82830605D01*
X204052514Y-83005678D01*
X204052513Y-83005679D01*
X203947233Y-83163241D01*
X203813241Y-83297233D01*
X203733923Y-83350232D01*
X203655678Y-83402514D01*
X203520266Y-83458603D01*
X203480603Y-83475032D01*
X203294750Y-83512000D01*
X203105250Y-83512000D01*
X202919397Y-83475032D01*
X202879734Y-83458603D01*
X202744322Y-83402514D01*
X202666077Y-83350232D01*
X202586759Y-83297233D01*
X202452767Y-83163241D01*
X202347487Y-83005679D01*
X202347486Y-83005678D01*
X202274969Y-82830605D01*
X202274968Y-82830603D01*
X202238000Y-82644750D01*
X202238000Y-82455250D01*
X202274968Y-82269397D01*
X202291397Y-82229734D01*
X202347486Y-82094322D01*
X202452766Y-81936761D01*
X202452767Y-81936759D01*
X202586759Y-81802767D01*
X202744321Y-81697487D01*
X202744322Y-81697486D01*
X202919395Y-81624969D01*
X202919394Y-81624969D01*
X202919397Y-81624968D01*
X203105250Y-81588000D01*
X203294750Y-81588000D01*
X203480603Y-81624968D01*
X203480603Y-81624968D01*
G37*
G36*
X213640603Y-81624968D02*
X213640606Y-81624969D01*
X213640605Y-81624969D01*
X213815678Y-81697486D01*
X213815679Y-81697487D01*
X213973241Y-81802767D01*
X214107233Y-81936759D01*
X214107234Y-81936761D01*
X214212514Y-82094322D01*
X214268603Y-82229734D01*
X214285032Y-82269397D01*
X214322000Y-82455250D01*
X214322000Y-82644750D01*
X214285032Y-82830603D01*
X214285031Y-82830605D01*
X214212514Y-83005678D01*
X214212513Y-83005679D01*
X214107233Y-83163241D01*
X213973241Y-83297233D01*
X213893923Y-83350232D01*
X213815678Y-83402514D01*
X213680266Y-83458603D01*
X213640603Y-83475032D01*
X213454750Y-83512000D01*
X213265250Y-83512000D01*
X213079397Y-83475032D01*
X213039734Y-83458603D01*
X212904322Y-83402514D01*
X212826077Y-83350232D01*
X212746759Y-83297233D01*
X212612767Y-83163241D01*
X212507487Y-83005679D01*
X212507486Y-83005678D01*
X212434969Y-82830605D01*
X212434968Y-82830603D01*
X212398000Y-82644750D01*
X212398000Y-82455250D01*
X212434968Y-82269397D01*
X212451397Y-82229734D01*
X212507486Y-82094322D01*
X212612766Y-81936761D01*
X212612767Y-81936759D01*
X212746759Y-81802767D01*
X212904321Y-81697487D01*
X212904322Y-81697486D01*
X213079395Y-81624969D01*
X213079394Y-81624969D01*
X213079397Y-81624968D01*
X213265250Y-81588000D01*
X213454750Y-81588000D01*
X213640603Y-81624968D01*
X213640603Y-81624968D01*
G37*
G36*
X193320603Y-81624968D02*
X193320606Y-81624969D01*
X193320605Y-81624969D01*
X193495678Y-81697486D01*
X193495679Y-81697487D01*
X193653241Y-81802767D01*
X193787233Y-81936759D01*
X193787234Y-81936761D01*
X193892514Y-82094322D01*
X193948603Y-82229734D01*
X193965032Y-82269397D01*
X194002000Y-82455250D01*
X194002000Y-82644750D01*
X193965032Y-82830603D01*
X193965031Y-82830605D01*
X193892514Y-83005678D01*
X193892513Y-83005679D01*
X193787233Y-83163241D01*
X193653241Y-83297233D01*
X193573923Y-83350232D01*
X193495678Y-83402514D01*
X193360266Y-83458603D01*
X193320603Y-83475032D01*
X193134750Y-83512000D01*
X192945250Y-83512000D01*
X192759397Y-83475032D01*
X192719734Y-83458603D01*
X192584322Y-83402514D01*
X192506077Y-83350232D01*
X192426759Y-83297233D01*
X192292767Y-83163241D01*
X192187487Y-83005679D01*
X192187486Y-83005678D01*
X192114969Y-82830605D01*
X192114968Y-82830603D01*
X192078000Y-82644750D01*
X192078000Y-82455250D01*
X192114968Y-82269397D01*
X192131397Y-82229734D01*
X192187486Y-82094322D01*
X192292766Y-81936761D01*
X192292767Y-81936759D01*
X192426759Y-81802767D01*
X192584321Y-81697487D01*
X192584322Y-81697486D01*
X192759395Y-81624969D01*
X192759394Y-81624969D01*
X192759397Y-81624968D01*
X192945250Y-81588000D01*
X193134750Y-81588000D01*
X193320603Y-81624968D01*
X193320603Y-81624968D01*
G37*
G36*
X183160603Y-81624968D02*
X183160606Y-81624969D01*
X183160605Y-81624969D01*
X183335678Y-81697486D01*
X183335679Y-81697487D01*
X183493241Y-81802767D01*
X183627233Y-81936759D01*
X183627234Y-81936761D01*
X183732514Y-82094322D01*
X183788603Y-82229734D01*
X183805032Y-82269397D01*
X183842000Y-82455250D01*
X183842000Y-82644750D01*
X183805032Y-82830603D01*
X183805031Y-82830605D01*
X183732514Y-83005678D01*
X183732513Y-83005679D01*
X183627233Y-83163241D01*
X183493241Y-83297233D01*
X183413923Y-83350232D01*
X183335678Y-83402514D01*
X183200266Y-83458603D01*
X183160603Y-83475032D01*
X182974750Y-83512000D01*
X182785250Y-83512000D01*
X182599397Y-83475032D01*
X182559734Y-83458603D01*
X182424322Y-83402514D01*
X182346077Y-83350232D01*
X182266759Y-83297233D01*
X182132767Y-83163241D01*
X182027487Y-83005679D01*
X182027486Y-83005678D01*
X181954969Y-82830605D01*
X181954968Y-82830603D01*
X181918000Y-82644750D01*
X181918000Y-82455250D01*
X181954968Y-82269397D01*
X181971397Y-82229734D01*
X182027486Y-82094322D01*
X182132766Y-81936761D01*
X182132767Y-81936759D01*
X182266759Y-81802767D01*
X182424321Y-81697487D01*
X182424322Y-81697486D01*
X182599395Y-81624969D01*
X182599394Y-81624969D01*
X182599397Y-81624968D01*
X182785250Y-81588000D01*
X182974750Y-81588000D01*
X183160603Y-81624968D01*
X183160603Y-81624968D01*
G37*
G36*
X173000603Y-81624968D02*
X173000606Y-81624969D01*
X173000605Y-81624969D01*
X173175678Y-81697486D01*
X173175679Y-81697487D01*
X173333241Y-81802767D01*
X173467233Y-81936759D01*
X173467234Y-81936761D01*
X173572514Y-82094322D01*
X173628603Y-82229734D01*
X173645032Y-82269397D01*
X173682000Y-82455250D01*
X173682000Y-82644750D01*
X173645032Y-82830603D01*
X173645031Y-82830605D01*
X173572514Y-83005678D01*
X173572513Y-83005679D01*
X173467233Y-83163241D01*
X173333241Y-83297233D01*
X173253923Y-83350232D01*
X173175678Y-83402514D01*
X173040266Y-83458603D01*
X173000603Y-83475032D01*
X172814750Y-83512000D01*
X172625250Y-83512000D01*
X172439397Y-83475032D01*
X172399734Y-83458603D01*
X172264322Y-83402514D01*
X172186077Y-83350232D01*
X172106759Y-83297233D01*
X171972767Y-83163241D01*
X171867487Y-83005679D01*
X171867486Y-83005678D01*
X171794969Y-82830605D01*
X171794968Y-82830603D01*
X171758000Y-82644750D01*
X171758000Y-82455250D01*
X171794968Y-82269397D01*
X171811397Y-82229734D01*
X171867486Y-82094322D01*
X171972766Y-81936761D01*
X171972767Y-81936759D01*
X172106759Y-81802767D01*
X172264321Y-81697487D01*
X172264322Y-81697486D01*
X172439395Y-81624969D01*
X172439394Y-81624969D01*
X172439397Y-81624968D01*
X172625250Y-81588000D01*
X172814750Y-81588000D01*
X173000603Y-81624968D01*
X173000603Y-81624968D01*
G37*
G36*
X162840603Y-81624968D02*
X162840606Y-81624969D01*
X162840605Y-81624969D01*
X163015678Y-81697486D01*
X163015679Y-81697487D01*
X163173241Y-81802767D01*
X163307233Y-81936759D01*
X163307234Y-81936761D01*
X163412514Y-82094322D01*
X163468603Y-82229734D01*
X163485032Y-82269397D01*
X163522000Y-82455250D01*
X163522000Y-82644750D01*
X163485032Y-82830603D01*
X163485031Y-82830605D01*
X163412514Y-83005678D01*
X163412513Y-83005679D01*
X163307233Y-83163241D01*
X163173241Y-83297233D01*
X163093923Y-83350232D01*
X163015678Y-83402514D01*
X162880266Y-83458603D01*
X162840603Y-83475032D01*
X162654750Y-83512000D01*
X162465250Y-83512000D01*
X162279397Y-83475032D01*
X162239734Y-83458603D01*
X162104322Y-83402514D01*
X162026077Y-83350232D01*
X161946759Y-83297233D01*
X161812767Y-83163241D01*
X161707487Y-83005679D01*
X161707486Y-83005678D01*
X161634969Y-82830605D01*
X161634968Y-82830603D01*
X161598000Y-82644750D01*
X161598000Y-82455250D01*
X161634968Y-82269397D01*
X161651397Y-82229734D01*
X161707486Y-82094322D01*
X161812766Y-81936761D01*
X161812767Y-81936759D01*
X161946759Y-81802767D01*
X162104321Y-81697487D01*
X162104322Y-81697486D01*
X162279395Y-81624969D01*
X162279394Y-81624969D01*
X162279397Y-81624968D01*
X162465250Y-81588000D01*
X162654750Y-81588000D01*
X162840603Y-81624968D01*
X162840603Y-81624968D01*
G37*
G36*
X152680603Y-81624968D02*
X152680606Y-81624969D01*
X152680605Y-81624969D01*
X152855678Y-81697486D01*
X152855679Y-81697487D01*
X153013241Y-81802767D01*
X153147233Y-81936759D01*
X153147234Y-81936761D01*
X153252514Y-82094322D01*
X153308603Y-82229734D01*
X153325032Y-82269397D01*
X153362000Y-82455250D01*
X153362000Y-82644750D01*
X153325032Y-82830603D01*
X153325031Y-82830605D01*
X153252514Y-83005678D01*
X153252513Y-83005679D01*
X153147233Y-83163241D01*
X153013241Y-83297233D01*
X152933923Y-83350232D01*
X152855678Y-83402514D01*
X152720266Y-83458603D01*
X152680603Y-83475032D01*
X152494750Y-83512000D01*
X152305250Y-83512000D01*
X152119397Y-83475032D01*
X152079734Y-83458603D01*
X151944322Y-83402514D01*
X151866077Y-83350232D01*
X151786759Y-83297233D01*
X151652767Y-83163241D01*
X151547487Y-83005679D01*
X151547486Y-83005678D01*
X151474969Y-82830605D01*
X151474968Y-82830603D01*
X151438000Y-82644750D01*
X151438000Y-82455250D01*
X151474968Y-82269397D01*
X151491397Y-82229734D01*
X151547486Y-82094322D01*
X151652766Y-81936761D01*
X151652767Y-81936759D01*
X151786759Y-81802767D01*
X151944321Y-81697487D01*
X151944322Y-81697486D01*
X152119395Y-81624969D01*
X152119394Y-81624969D01*
X152119397Y-81624968D01*
X152305250Y-81588000D01*
X152494750Y-81588000D01*
X152680603Y-81624968D01*
X152680603Y-81624968D01*
G37*
G36*
X142520603Y-81624968D02*
X142520606Y-81624969D01*
X142520605Y-81624969D01*
X142695678Y-81697486D01*
X142695679Y-81697487D01*
X142853241Y-81802767D01*
X142987233Y-81936759D01*
X142987234Y-81936761D01*
X143092514Y-82094322D01*
X143148603Y-82229734D01*
X143165032Y-82269397D01*
X143202000Y-82455250D01*
X143202000Y-82644750D01*
X143165032Y-82830603D01*
X143165031Y-82830605D01*
X143092514Y-83005678D01*
X143092513Y-83005679D01*
X142987233Y-83163241D01*
X142853241Y-83297233D01*
X142773923Y-83350232D01*
X142695678Y-83402514D01*
X142560266Y-83458603D01*
X142520603Y-83475032D01*
X142334750Y-83512000D01*
X142145250Y-83512000D01*
X141959397Y-83475032D01*
X141919734Y-83458603D01*
X141784322Y-83402514D01*
X141706077Y-83350232D01*
X141626759Y-83297233D01*
X141492767Y-83163241D01*
X141387487Y-83005679D01*
X141387486Y-83005678D01*
X141314969Y-82830605D01*
X141314968Y-82830603D01*
X141278000Y-82644750D01*
X141278000Y-82455250D01*
X141314968Y-82269397D01*
X141331397Y-82229734D01*
X141387486Y-82094322D01*
X141492766Y-81936761D01*
X141492767Y-81936759D01*
X141626759Y-81802767D01*
X141784321Y-81697487D01*
X141784322Y-81697486D01*
X141959395Y-81624969D01*
X141959394Y-81624969D01*
X141959397Y-81624968D01*
X142145250Y-81588000D01*
X142334750Y-81588000D01*
X142520603Y-81624968D01*
X142520603Y-81624968D01*
G37*
G36*
X203480603Y-76544968D02*
X203480606Y-76544969D01*
X203480605Y-76544969D01*
X203655678Y-76617486D01*
X203655679Y-76617487D01*
X203813241Y-76722767D01*
X203947233Y-76856759D01*
X203947234Y-76856761D01*
X204052514Y-77014322D01*
X204108603Y-77149734D01*
X204125032Y-77189397D01*
X204162000Y-77375250D01*
X204162000Y-77564750D01*
X204125032Y-77750603D01*
X204125031Y-77750605D01*
X204052514Y-77925678D01*
X204052513Y-77925679D01*
X203947233Y-78083241D01*
X203813241Y-78217233D01*
X203733923Y-78270232D01*
X203655678Y-78322514D01*
X203520266Y-78378603D01*
X203480603Y-78395032D01*
X203294750Y-78432000D01*
X203105250Y-78432000D01*
X202919397Y-78395032D01*
X202879734Y-78378603D01*
X202744322Y-78322514D01*
X202666077Y-78270232D01*
X202586759Y-78217233D01*
X202452767Y-78083241D01*
X202347487Y-77925679D01*
X202347486Y-77925678D01*
X202274969Y-77750605D01*
X202274968Y-77750603D01*
X202238000Y-77564750D01*
X202238000Y-77375250D01*
X202274968Y-77189397D01*
X202291397Y-77149734D01*
X202347486Y-77014322D01*
X202452766Y-76856761D01*
X202452767Y-76856759D01*
X202586759Y-76722767D01*
X202744321Y-76617487D01*
X202744322Y-76617486D01*
X202919395Y-76544969D01*
X202919394Y-76544969D01*
X202919397Y-76544968D01*
X203105250Y-76508000D01*
X203294750Y-76508000D01*
X203480603Y-76544968D01*
X203480603Y-76544968D01*
G37*
G36*
X213640603Y-76544968D02*
X213640606Y-76544969D01*
X213640605Y-76544969D01*
X213815678Y-76617486D01*
X213815679Y-76617487D01*
X213973241Y-76722767D01*
X214107233Y-76856759D01*
X214107234Y-76856761D01*
X214212514Y-77014322D01*
X214268603Y-77149734D01*
X214285032Y-77189397D01*
X214322000Y-77375250D01*
X214322000Y-77564750D01*
X214285032Y-77750603D01*
X214285031Y-77750605D01*
X214212514Y-77925678D01*
X214212513Y-77925679D01*
X214107233Y-78083241D01*
X213973241Y-78217233D01*
X213893923Y-78270232D01*
X213815678Y-78322514D01*
X213680266Y-78378603D01*
X213640603Y-78395032D01*
X213454750Y-78432000D01*
X213265250Y-78432000D01*
X213079397Y-78395032D01*
X213039734Y-78378603D01*
X212904322Y-78322514D01*
X212826077Y-78270232D01*
X212746759Y-78217233D01*
X212612767Y-78083241D01*
X212507487Y-77925679D01*
X212507486Y-77925678D01*
X212434969Y-77750605D01*
X212434968Y-77750603D01*
X212398000Y-77564750D01*
X212398000Y-77375250D01*
X212434968Y-77189397D01*
X212451397Y-77149734D01*
X212507486Y-77014322D01*
X212612766Y-76856761D01*
X212612767Y-76856759D01*
X212746759Y-76722767D01*
X212904321Y-76617487D01*
X212904322Y-76617486D01*
X213079395Y-76544969D01*
X213079394Y-76544969D01*
X213079397Y-76544968D01*
X213265250Y-76508000D01*
X213454750Y-76508000D01*
X213640603Y-76544968D01*
X213640603Y-76544968D01*
G37*
G36*
X183160603Y-76544968D02*
X183160606Y-76544969D01*
X183160605Y-76544969D01*
X183335678Y-76617486D01*
X183335679Y-76617487D01*
X183493241Y-76722767D01*
X183627233Y-76856759D01*
X183627234Y-76856761D01*
X183732514Y-77014322D01*
X183788603Y-77149734D01*
X183805032Y-77189397D01*
X183842000Y-77375250D01*
X183842000Y-77564750D01*
X183805032Y-77750603D01*
X183805031Y-77750605D01*
X183732514Y-77925678D01*
X183732513Y-77925679D01*
X183627233Y-78083241D01*
X183493241Y-78217233D01*
X183413923Y-78270232D01*
X183335678Y-78322514D01*
X183200266Y-78378603D01*
X183160603Y-78395032D01*
X182974750Y-78432000D01*
X182785250Y-78432000D01*
X182599397Y-78395032D01*
X182559734Y-78378603D01*
X182424322Y-78322514D01*
X182346077Y-78270232D01*
X182266759Y-78217233D01*
X182132767Y-78083241D01*
X182027487Y-77925679D01*
X182027486Y-77925678D01*
X181954969Y-77750605D01*
X181954968Y-77750603D01*
X181918000Y-77564750D01*
X181918000Y-77375250D01*
X181954968Y-77189397D01*
X181971397Y-77149734D01*
X182027486Y-77014322D01*
X182132766Y-76856761D01*
X182132767Y-76856759D01*
X182266759Y-76722767D01*
X182424321Y-76617487D01*
X182424322Y-76617486D01*
X182599395Y-76544969D01*
X182599394Y-76544969D01*
X182599397Y-76544968D01*
X182785250Y-76508000D01*
X182974750Y-76508000D01*
X183160603Y-76544968D01*
X183160603Y-76544968D01*
G37*
G36*
X173000603Y-76544968D02*
X173000606Y-76544969D01*
X173000605Y-76544969D01*
X173175678Y-76617486D01*
X173175679Y-76617487D01*
X173333241Y-76722767D01*
X173467233Y-76856759D01*
X173467234Y-76856761D01*
X173572514Y-77014322D01*
X173628603Y-77149734D01*
X173645032Y-77189397D01*
X173682000Y-77375250D01*
X173682000Y-77564750D01*
X173645032Y-77750603D01*
X173645031Y-77750605D01*
X173572514Y-77925678D01*
X173572513Y-77925679D01*
X173467233Y-78083241D01*
X173333241Y-78217233D01*
X173253923Y-78270232D01*
X173175678Y-78322514D01*
X173040266Y-78378603D01*
X173000603Y-78395032D01*
X172814750Y-78432000D01*
X172625250Y-78432000D01*
X172439397Y-78395032D01*
X172399734Y-78378603D01*
X172264322Y-78322514D01*
X172186077Y-78270232D01*
X172106759Y-78217233D01*
X171972767Y-78083241D01*
X171867487Y-77925679D01*
X171867486Y-77925678D01*
X171794969Y-77750605D01*
X171794968Y-77750603D01*
X171758000Y-77564750D01*
X171758000Y-77375250D01*
X171794968Y-77189397D01*
X171811397Y-77149734D01*
X171867486Y-77014322D01*
X171972766Y-76856761D01*
X171972767Y-76856759D01*
X172106759Y-76722767D01*
X172264321Y-76617487D01*
X172264322Y-76617486D01*
X172439395Y-76544969D01*
X172439394Y-76544969D01*
X172439397Y-76544968D01*
X172625250Y-76508000D01*
X172814750Y-76508000D01*
X173000603Y-76544968D01*
X173000603Y-76544968D01*
G37*
G36*
X152680603Y-76544968D02*
X152680606Y-76544969D01*
X152680605Y-76544969D01*
X152855678Y-76617486D01*
X152855679Y-76617487D01*
X153013241Y-76722767D01*
X153147233Y-76856759D01*
X153147234Y-76856761D01*
X153252514Y-77014322D01*
X153308603Y-77149734D01*
X153325032Y-77189397D01*
X153362000Y-77375250D01*
X153362000Y-77564750D01*
X153325032Y-77750603D01*
X153325031Y-77750605D01*
X153252514Y-77925678D01*
X153252513Y-77925679D01*
X153147233Y-78083241D01*
X153013241Y-78217233D01*
X152933923Y-78270232D01*
X152855678Y-78322514D01*
X152720266Y-78378603D01*
X152680603Y-78395032D01*
X152494750Y-78432000D01*
X152305250Y-78432000D01*
X152119397Y-78395032D01*
X152079734Y-78378603D01*
X151944322Y-78322514D01*
X151866077Y-78270232D01*
X151786759Y-78217233D01*
X151652767Y-78083241D01*
X151547487Y-77925679D01*
X151547486Y-77925678D01*
X151474969Y-77750605D01*
X151474968Y-77750603D01*
X151438000Y-77564750D01*
X151438000Y-77375250D01*
X151474968Y-77189397D01*
X151491397Y-77149734D01*
X151547486Y-77014322D01*
X151652766Y-76856761D01*
X151652767Y-76856759D01*
X151786759Y-76722767D01*
X151944321Y-76617487D01*
X151944322Y-76617486D01*
X152119395Y-76544969D01*
X152119394Y-76544969D01*
X152119397Y-76544968D01*
X152305250Y-76508000D01*
X152494750Y-76508000D01*
X152680603Y-76544968D01*
X152680603Y-76544968D01*
G37*
G36*
X193320603Y-76544968D02*
X193320606Y-76544969D01*
X193320605Y-76544969D01*
X193495678Y-76617486D01*
X193495679Y-76617487D01*
X193653241Y-76722767D01*
X193787233Y-76856759D01*
X193787234Y-76856761D01*
X193892514Y-77014322D01*
X193948603Y-77149734D01*
X193965032Y-77189397D01*
X194002000Y-77375250D01*
X194002000Y-77564750D01*
X193965032Y-77750603D01*
X193965031Y-77750605D01*
X193892514Y-77925678D01*
X193892513Y-77925679D01*
X193787233Y-78083241D01*
X193653241Y-78217233D01*
X193573923Y-78270232D01*
X193495678Y-78322514D01*
X193360266Y-78378603D01*
X193320603Y-78395032D01*
X193134750Y-78432000D01*
X192945250Y-78432000D01*
X192759397Y-78395032D01*
X192719734Y-78378603D01*
X192584322Y-78322514D01*
X192506077Y-78270232D01*
X192426759Y-78217233D01*
X192292767Y-78083241D01*
X192187487Y-77925679D01*
X192187486Y-77925678D01*
X192114969Y-77750605D01*
X192114968Y-77750603D01*
X192078000Y-77564750D01*
X192078000Y-77375250D01*
X192114968Y-77189397D01*
X192131397Y-77149734D01*
X192187486Y-77014322D01*
X192292766Y-76856761D01*
X192292767Y-76856759D01*
X192426759Y-76722767D01*
X192584321Y-76617487D01*
X192584322Y-76617486D01*
X192759395Y-76544969D01*
X192759394Y-76544969D01*
X192759397Y-76544968D01*
X192945250Y-76508000D01*
X193134750Y-76508000D01*
X193320603Y-76544968D01*
X193320603Y-76544968D01*
G37*
G36*
X142520603Y-76544968D02*
X142520606Y-76544969D01*
X142520605Y-76544969D01*
X142695678Y-76617486D01*
X142695679Y-76617487D01*
X142853241Y-76722767D01*
X142987233Y-76856759D01*
X142987234Y-76856761D01*
X143092514Y-77014322D01*
X143148603Y-77149734D01*
X143165032Y-77189397D01*
X143202000Y-77375250D01*
X143202000Y-77564750D01*
X143165032Y-77750603D01*
X143165031Y-77750605D01*
X143092514Y-77925678D01*
X143092513Y-77925679D01*
X142987233Y-78083241D01*
X142853241Y-78217233D01*
X142773923Y-78270232D01*
X142695678Y-78322514D01*
X142560266Y-78378603D01*
X142520603Y-78395032D01*
X142334750Y-78432000D01*
X142145250Y-78432000D01*
X141959397Y-78395032D01*
X141919734Y-78378603D01*
X141784322Y-78322514D01*
X141706077Y-78270232D01*
X141626759Y-78217233D01*
X141492767Y-78083241D01*
X141387487Y-77925679D01*
X141387486Y-77925678D01*
X141314969Y-77750605D01*
X141314968Y-77750603D01*
X141278000Y-77564750D01*
X141278000Y-77375250D01*
X141314968Y-77189397D01*
X141331397Y-77149734D01*
X141387486Y-77014322D01*
X141492766Y-76856761D01*
X141492767Y-76856759D01*
X141626759Y-76722767D01*
X141784321Y-76617487D01*
X141784322Y-76617486D01*
X141959395Y-76544969D01*
X141959394Y-76544969D01*
X141959397Y-76544968D01*
X142145250Y-76508000D01*
X142334750Y-76508000D01*
X142520603Y-76544968D01*
X142520603Y-76544968D01*
G37*
G36*
X162840603Y-76544968D02*
X162840606Y-76544969D01*
X162840605Y-76544969D01*
X163015678Y-76617486D01*
X163015679Y-76617487D01*
X163173241Y-76722767D01*
X163307233Y-76856759D01*
X163307234Y-76856761D01*
X163412514Y-77014322D01*
X163468603Y-77149734D01*
X163485032Y-77189397D01*
X163522000Y-77375250D01*
X163522000Y-77564750D01*
X163485032Y-77750603D01*
X163485031Y-77750605D01*
X163412514Y-77925678D01*
X163412513Y-77925679D01*
X163307233Y-78083241D01*
X163173241Y-78217233D01*
X163093923Y-78270232D01*
X163015678Y-78322514D01*
X162880266Y-78378603D01*
X162840603Y-78395032D01*
X162654750Y-78432000D01*
X162465250Y-78432000D01*
X162279397Y-78395032D01*
X162239734Y-78378603D01*
X162104322Y-78322514D01*
X162026077Y-78270232D01*
X161946759Y-78217233D01*
X161812767Y-78083241D01*
X161707487Y-77925679D01*
X161707486Y-77925678D01*
X161634969Y-77750605D01*
X161634968Y-77750603D01*
X161598000Y-77564750D01*
X161598000Y-77375250D01*
X161634968Y-77189397D01*
X161651397Y-77149734D01*
X161707486Y-77014322D01*
X161812766Y-76856761D01*
X161812767Y-76856759D01*
X161946759Y-76722767D01*
X162104321Y-76617487D01*
X162104322Y-76617486D01*
X162279395Y-76544969D01*
X162279394Y-76544969D01*
X162279397Y-76544968D01*
X162465250Y-76508000D01*
X162654750Y-76508000D01*
X162840603Y-76544968D01*
X162840603Y-76544968D01*
G37*
G36*
X141398781Y-68436490D02*
X141666307Y-68547303D01*
X141907074Y-68708178D01*
X142111822Y-68912926D01*
X142272697Y-69153693D01*
X142383510Y-69421219D01*
X142440000Y-69705216D01*
X142440000Y-69994784D01*
X142383510Y-70278781D01*
X142272697Y-70546307D01*
X142111822Y-70787074D01*
X141907074Y-70991822D01*
X141666307Y-71152697D01*
X141398781Y-71263510D01*
X141114784Y-71320000D01*
X140825216Y-71320000D01*
X140541219Y-71263510D01*
X140273693Y-71152697D01*
X140032926Y-70991822D01*
X139828178Y-70787074D01*
X139667303Y-70546307D01*
X139556490Y-70278781D01*
X139500000Y-69994784D01*
X139500000Y-69705216D01*
X139556490Y-69421219D01*
X139667303Y-69153693D01*
X139828178Y-68912926D01*
X140032926Y-68708178D01*
X140273693Y-68547303D01*
X140541219Y-68436490D01*
X140825216Y-68380000D01*
X141114784Y-68380000D01*
X141398781Y-68436490D01*
X141398781Y-68436490D01*
G37*
G36*
X147520000Y-71320000D02*
X144580000Y-71320000D01*
X144580000Y-68380000D01*
X147520000Y-68380000D01*
X147520000Y-71320000D01*
X147520000Y-71320000D01*
G37*
G36*
X212518781Y-68436490D02*
X212786307Y-68547303D01*
X213027074Y-68708178D01*
X213231822Y-68912926D01*
X213392697Y-69153693D01*
X213503510Y-69421219D01*
X213560000Y-69705216D01*
X213560000Y-69994784D01*
X213503510Y-70278781D01*
X213392697Y-70546307D01*
X213231822Y-70787074D01*
X213027074Y-70991822D01*
X212786307Y-71152697D01*
X212518781Y-71263510D01*
X212234784Y-71320000D01*
X211945216Y-71320000D01*
X211661219Y-71263510D01*
X211393693Y-71152697D01*
X211152926Y-70991822D01*
X210948178Y-70787074D01*
X210787303Y-70546307D01*
X210676490Y-70278781D01*
X210620000Y-69994784D01*
X210620000Y-69705216D01*
X210676490Y-69421219D01*
X210787303Y-69153693D01*
X210948178Y-68912926D01*
X211152926Y-68708178D01*
X211393693Y-68547303D01*
X211661219Y-68436490D01*
X211945216Y-68380000D01*
X212234784Y-68380000D01*
X212518781Y-68436490D01*
X212518781Y-68436490D01*
G37*
G36*
X218640000Y-71320000D02*
X215700000Y-71320000D01*
X215700000Y-68380000D01*
X218640000Y-68380000D01*
X218640000Y-71320000D01*
X218640000Y-71320000D01*
G37*
G36*
X202358781Y-68436490D02*
X202626307Y-68547303D01*
X202867074Y-68708178D01*
X203071822Y-68912926D01*
X203232697Y-69153693D01*
X203343510Y-69421219D01*
X203400000Y-69705216D01*
X203400000Y-69994784D01*
X203343510Y-70278781D01*
X203232697Y-70546307D01*
X203071822Y-70787074D01*
X202867074Y-70991822D01*
X202626307Y-71152697D01*
X202358781Y-71263510D01*
X202074784Y-71320000D01*
X201785216Y-71320000D01*
X201501219Y-71263510D01*
X201233693Y-71152697D01*
X200992926Y-70991822D01*
X200788178Y-70787074D01*
X200627303Y-70546307D01*
X200516490Y-70278781D01*
X200460000Y-69994784D01*
X200460000Y-69705216D01*
X200516490Y-69421219D01*
X200627303Y-69153693D01*
X200788178Y-68912926D01*
X200992926Y-68708178D01*
X201233693Y-68547303D01*
X201501219Y-68436490D01*
X201785216Y-68380000D01*
X202074784Y-68380000D01*
X202358781Y-68436490D01*
X202358781Y-68436490D01*
G37*
G36*
X208480000Y-71320000D02*
X205540000Y-71320000D01*
X205540000Y-68380000D01*
X208480000Y-68380000D01*
X208480000Y-71320000D01*
X208480000Y-71320000D01*
G37*
G36*
X192198781Y-68436490D02*
X192466307Y-68547303D01*
X192707074Y-68708178D01*
X192911822Y-68912926D01*
X193072697Y-69153693D01*
X193183510Y-69421219D01*
X193240000Y-69705216D01*
X193240000Y-69994784D01*
X193183510Y-70278781D01*
X193072697Y-70546307D01*
X192911822Y-70787074D01*
X192707074Y-70991822D01*
X192466307Y-71152697D01*
X192198781Y-71263510D01*
X191914784Y-71320000D01*
X191625216Y-71320000D01*
X191341219Y-71263510D01*
X191073693Y-71152697D01*
X190832926Y-70991822D01*
X190628178Y-70787074D01*
X190467303Y-70546307D01*
X190356490Y-70278781D01*
X190300000Y-69994784D01*
X190300000Y-69705216D01*
X190356490Y-69421219D01*
X190467303Y-69153693D01*
X190628178Y-68912926D01*
X190832926Y-68708178D01*
X191073693Y-68547303D01*
X191341219Y-68436490D01*
X191625216Y-68380000D01*
X191914784Y-68380000D01*
X192198781Y-68436490D01*
X192198781Y-68436490D01*
G37*
G36*
X198320000Y-71320000D02*
X195380000Y-71320000D01*
X195380000Y-68380000D01*
X198320000Y-68380000D01*
X198320000Y-71320000D01*
X198320000Y-71320000D01*
G37*
G36*
X182038781Y-68436490D02*
X182306307Y-68547303D01*
X182547074Y-68708178D01*
X182751822Y-68912926D01*
X182912697Y-69153693D01*
X183023510Y-69421219D01*
X183080000Y-69705216D01*
X183080000Y-69994784D01*
X183023510Y-70278781D01*
X182912697Y-70546307D01*
X182751822Y-70787074D01*
X182547074Y-70991822D01*
X182306307Y-71152697D01*
X182038781Y-71263510D01*
X181754784Y-71320000D01*
X181465216Y-71320000D01*
X181181219Y-71263510D01*
X180913693Y-71152697D01*
X180672926Y-70991822D01*
X180468178Y-70787074D01*
X180307303Y-70546307D01*
X180196490Y-70278781D01*
X180140000Y-69994784D01*
X180140000Y-69705216D01*
X180196490Y-69421219D01*
X180307303Y-69153693D01*
X180468178Y-68912926D01*
X180672926Y-68708178D01*
X180913693Y-68547303D01*
X181181219Y-68436490D01*
X181465216Y-68380000D01*
X181754784Y-68380000D01*
X182038781Y-68436490D01*
X182038781Y-68436490D01*
G37*
G36*
X188160000Y-71320000D02*
X185220000Y-71320000D01*
X185220000Y-68380000D01*
X188160000Y-68380000D01*
X188160000Y-71320000D01*
X188160000Y-71320000D01*
G37*
G36*
X171878781Y-68436490D02*
X172146307Y-68547303D01*
X172387074Y-68708178D01*
X172591822Y-68912926D01*
X172752697Y-69153693D01*
X172863510Y-69421219D01*
X172920000Y-69705216D01*
X172920000Y-69994784D01*
X172863510Y-70278781D01*
X172752697Y-70546307D01*
X172591822Y-70787074D01*
X172387074Y-70991822D01*
X172146307Y-71152697D01*
X171878781Y-71263510D01*
X171594784Y-71320000D01*
X171305216Y-71320000D01*
X171021219Y-71263510D01*
X170753693Y-71152697D01*
X170512926Y-70991822D01*
X170308178Y-70787074D01*
X170147303Y-70546307D01*
X170036490Y-70278781D01*
X169980000Y-69994784D01*
X169980000Y-69705216D01*
X170036490Y-69421219D01*
X170147303Y-69153693D01*
X170308178Y-68912926D01*
X170512926Y-68708178D01*
X170753693Y-68547303D01*
X171021219Y-68436490D01*
X171305216Y-68380000D01*
X171594784Y-68380000D01*
X171878781Y-68436490D01*
X171878781Y-68436490D01*
G37*
G36*
X178000000Y-71320000D02*
X175060000Y-71320000D01*
X175060000Y-68380000D01*
X178000000Y-68380000D01*
X178000000Y-71320000D01*
X178000000Y-71320000D01*
G37*
G36*
X161718781Y-68436490D02*
X161986307Y-68547303D01*
X162227074Y-68708178D01*
X162431822Y-68912926D01*
X162592697Y-69153693D01*
X162703510Y-69421219D01*
X162760000Y-69705216D01*
X162760000Y-69994784D01*
X162703510Y-70278781D01*
X162592697Y-70546307D01*
X162431822Y-70787074D01*
X162227074Y-70991822D01*
X161986307Y-71152697D01*
X161718781Y-71263510D01*
X161434784Y-71320000D01*
X161145216Y-71320000D01*
X160861219Y-71263510D01*
X160593693Y-71152697D01*
X160352926Y-70991822D01*
X160148178Y-70787074D01*
X159987303Y-70546307D01*
X159876490Y-70278781D01*
X159820000Y-69994784D01*
X159820000Y-69705216D01*
X159876490Y-69421219D01*
X159987303Y-69153693D01*
X160148178Y-68912926D01*
X160352926Y-68708178D01*
X160593693Y-68547303D01*
X160861219Y-68436490D01*
X161145216Y-68380000D01*
X161434784Y-68380000D01*
X161718781Y-68436490D01*
X161718781Y-68436490D01*
G37*
G36*
X167840000Y-71320000D02*
X164900000Y-71320000D01*
X164900000Y-68380000D01*
X167840000Y-68380000D01*
X167840000Y-71320000D01*
X167840000Y-71320000D01*
G37*
G36*
X157680000Y-71320000D02*
X154740000Y-71320000D01*
X154740000Y-68380000D01*
X157680000Y-68380000D01*
X157680000Y-71320000D01*
X157680000Y-71320000D01*
G37*
G36*
X151558781Y-68436490D02*
X151826307Y-68547303D01*
X152067074Y-68708178D01*
X152271822Y-68912926D01*
X152432697Y-69153693D01*
X152543510Y-69421219D01*
X152600000Y-69705216D01*
X152600000Y-69994784D01*
X152543510Y-70278781D01*
X152432697Y-70546307D01*
X152271822Y-70787074D01*
X152067074Y-70991822D01*
X151826307Y-71152697D01*
X151558781Y-71263510D01*
X151274784Y-71320000D01*
X150985216Y-71320000D01*
X150701219Y-71263510D01*
X150433693Y-71152697D01*
X150192926Y-70991822D01*
X149988178Y-70787074D01*
X149827303Y-70546307D01*
X149716490Y-70278781D01*
X149660000Y-69994784D01*
X149660000Y-69705216D01*
X149716490Y-69421219D01*
X149827303Y-69153693D01*
X149988178Y-68912926D01*
X150192926Y-68708178D01*
X150433693Y-68547303D01*
X150701219Y-68436490D01*
X150985216Y-68380000D01*
X151274784Y-68380000D01*
X151558781Y-68436490D01*
X151558781Y-68436490D01*
G37*
M02*
