M48
;DRILL file {KiCad 5.0.1-33cea8e~68~ubuntu18.04.1} date jeu. 29 nov. 2018 08:56:35 CET
;FORMAT={-:-/ absolute / inch / decimal}
FMAT,2
INCH,TZ
T1C0.0157
T2C0.0300
T3C0.0394
T4C0.0600
%
G90
G05
M72
T1
X5.825Y-3.86
X5.84Y-4.235
X5.95Y-4.03
X5.975Y-4.27
X6.595Y-4.675
X6.645Y-4.71
X6.795Y-4.675
X7.405Y-4.2
X7.425Y-4.81
X7.515Y-4.21
X7.555Y-4.835
X7.59Y-4.235
X7.905Y-4.79
T2
X8.4Y-3.05
X8.4Y-3.25
X8.4Y-3.45
X8.4Y-3.65
X6.Y-3.05
X6.Y-3.25
X6.Y-3.45
X6.Y-3.65
X7.6Y-3.05
X7.6Y-3.25
X7.6Y-3.45
X7.6Y-3.65
X6.8Y-3.05
X6.8Y-3.25
X6.8Y-3.45
X6.8Y-3.65
X7.2Y-3.05
X7.2Y-3.25
X7.2Y-3.45
X7.2Y-3.65
X8.Y-3.05
X8.Y-3.25
X8.Y-3.45
X8.Y-3.65
X5.6Y-3.05
X5.6Y-3.25
X5.6Y-3.45
X5.6Y-3.65
X6.4Y-3.05
X6.4Y-3.25
X6.4Y-3.45
X6.4Y-3.65
T3
X6.12Y-4.14
X6.22Y-4.14
X6.32Y-4.14
X6.42Y-4.14
T4
X8.35Y-2.75
X8.55Y-2.75
X6.35Y-2.75
X6.55Y-2.75
X5.95Y-2.75
X6.15Y-2.75
X7.55Y-2.75
X7.75Y-2.75
X7.95Y-2.75
X8.15Y-2.75
X6.75Y-2.75
X6.95Y-2.75
X5.55Y-2.75
X5.75Y-2.75
X7.15Y-2.75
X7.35Y-2.75
X5.65Y-4.4
X5.65Y-4.6
T0
M30
