M48
;DRILL file {KiCad 5.0.1-33cea8e~68~ubuntu18.04.1} date jeu. 29 nov. 2018 09:05:54 CET
;FORMAT={-:-/ absolute / inch / decimal}
FMAT,2
INCH,TZ
T1C0.0157
T2C0.0394
T3C0.0512
T4C0.0551
T5C0.0598
%
G90
G05
M72
T1
X5.46Y-3.98
X5.49Y-3.83
X5.4948Y-3.8798
X5.57Y-3.38
X5.605Y-3.305
X5.695Y-3.46
X5.83Y-3.38
X6.135Y-2.515
X6.17Y-3.3
X6.3Y-1.975
T2
X6.8218Y-2.4107
X6.8218Y-2.8832
X6.8218Y-3.0557
X6.8218Y-3.5282
X6.25Y-2.885
X6.25Y-2.985
X6.25Y-3.085
X6.25Y-3.185
T3
X6.745Y-2.645
X7.3021Y-2.8832
X7.3041Y-2.4088
X6.745Y-3.29
X7.3021Y-3.5282
X7.3041Y-3.0538
T4
X6.8Y-1.85
X6.8Y-2.15
X7.3Y-2.15
X7.4Y-1.85
T5
X7.66Y-2.435
X7.66Y-2.635
X7.65Y-2.915
X7.65Y-3.115
X7.6772Y-1.9
X7.6772Y-2.1
X5.325Y-1.95
X5.525Y-1.95
T0
M30
