G04 #@! TF.GenerationSoftware,KiCad,Pcbnew,5.0.1-33cea8e~68~ubuntu18.04.1*
G04 #@! TF.CreationDate,2018-11-29T09:05:56+01:00*
G04 #@! TF.ProjectId,Velux,56656C75782E6B696361645F70636200,rev?*
G04 #@! TF.SameCoordinates,Original*
G04 #@! TF.FileFunction,Soldermask,Bot*
G04 #@! TF.FilePolarity,Negative*
%FSLAX46Y46*%
G04 Gerber Fmt 4.6, Leading zero omitted, Abs format (unit mm)*
G04 Created by KiCad (PCBNEW 5.0.1-33cea8e~68~ubuntu18.04.1) date jeu. 29 nov. 2018 09:05:56 CET*
%MOMM*%
%LPD*%
G01*
G04 APERTURE LIST*
%ADD10C,0.100000*%
G04 APERTURE END LIST*
D10*
G36*
X185859393Y-87959553D02*
X185968872Y-87981330D01*
X186278252Y-88109479D01*
X186556687Y-88295523D01*
X186793477Y-88532313D01*
X186979521Y-88810748D01*
X187107670Y-89120128D01*
X187173000Y-89448565D01*
X187173000Y-89783435D01*
X187107670Y-90111872D01*
X186979521Y-90421252D01*
X186793477Y-90699687D01*
X186556687Y-90936477D01*
X186278252Y-91122521D01*
X185968872Y-91250670D01*
X185859393Y-91272447D01*
X185640437Y-91316000D01*
X185305563Y-91316000D01*
X185086607Y-91272447D01*
X184977128Y-91250670D01*
X184667748Y-91122521D01*
X184389313Y-90936477D01*
X184152523Y-90699687D01*
X183966479Y-90421252D01*
X183838330Y-90111872D01*
X183773000Y-89783435D01*
X183773000Y-89448565D01*
X183838330Y-89120128D01*
X183966479Y-88810748D01*
X184152523Y-88532313D01*
X184389313Y-88295523D01*
X184667748Y-88109479D01*
X184977128Y-87981330D01*
X185086607Y-87959553D01*
X185305563Y-87916000D01*
X185640437Y-87916000D01*
X185859393Y-87959553D01*
X185859393Y-87959553D01*
G37*
G36*
X173695947Y-88221722D02*
X173959833Y-88331027D01*
X174197324Y-88489713D01*
X174399287Y-88691676D01*
X174557973Y-88929167D01*
X174667278Y-89193053D01*
X174723000Y-89473186D01*
X174723000Y-89758814D01*
X174667278Y-90038947D01*
X174557973Y-90302833D01*
X174399287Y-90540324D01*
X174197324Y-90742287D01*
X173959833Y-90900973D01*
X173695947Y-91010278D01*
X173415814Y-91066000D01*
X173130186Y-91066000D01*
X172850053Y-91010278D01*
X172586167Y-90900973D01*
X172348676Y-90742287D01*
X172146713Y-90540324D01*
X171988027Y-90302833D01*
X171878722Y-90038947D01*
X171823000Y-89758814D01*
X171823000Y-89473186D01*
X171878722Y-89193053D01*
X171988027Y-88929167D01*
X172146713Y-88691676D01*
X172348676Y-88489713D01*
X172586167Y-88331027D01*
X172850053Y-88221722D01*
X173130186Y-88166000D01*
X173415814Y-88166000D01*
X173695947Y-88221722D01*
X173695947Y-88221722D01*
G37*
G36*
X171709393Y-81909553D02*
X171818872Y-81931330D01*
X172128252Y-82059479D01*
X172406687Y-82245523D01*
X172643477Y-82482313D01*
X172829521Y-82760748D01*
X172957670Y-83070128D01*
X173023000Y-83398565D01*
X173023000Y-83733435D01*
X172957670Y-84061872D01*
X172829521Y-84371252D01*
X172643477Y-84649687D01*
X172406687Y-84886477D01*
X172128252Y-85072521D01*
X171818872Y-85200670D01*
X171709393Y-85222447D01*
X171490437Y-85266000D01*
X171155563Y-85266000D01*
X170936607Y-85222447D01*
X170827128Y-85200670D01*
X170517748Y-85072521D01*
X170239313Y-84886477D01*
X170002523Y-84649687D01*
X169816479Y-84371252D01*
X169688330Y-84061872D01*
X169623000Y-83733435D01*
X169623000Y-83398565D01*
X169688330Y-83070128D01*
X169816479Y-82760748D01*
X170002523Y-82482313D01*
X170239313Y-82245523D01*
X170517748Y-82059479D01*
X170827128Y-81931330D01*
X170936607Y-81909553D01*
X171155563Y-81866000D01*
X171490437Y-81866000D01*
X171709393Y-81909553D01*
X171709393Y-81909553D01*
G37*
G36*
X158878707Y-79856597D02*
X158955836Y-79864193D01*
X159087787Y-79904220D01*
X159153763Y-79924233D01*
X159336172Y-80021733D01*
X159496054Y-80152946D01*
X159627267Y-80312828D01*
X159724767Y-80495237D01*
X159724767Y-80495238D01*
X159784807Y-80693164D01*
X159805080Y-80899000D01*
X159784807Y-81104836D01*
X159744780Y-81236787D01*
X159724767Y-81302763D01*
X159627267Y-81485172D01*
X159496054Y-81645054D01*
X159336172Y-81776267D01*
X159153763Y-81873767D01*
X159087787Y-81893780D01*
X158955836Y-81933807D01*
X158878707Y-81941404D01*
X158801580Y-81949000D01*
X158698420Y-81949000D01*
X158621293Y-81941404D01*
X158544164Y-81933807D01*
X158412213Y-81893780D01*
X158346237Y-81873767D01*
X158163828Y-81776267D01*
X158003946Y-81645054D01*
X157872733Y-81485172D01*
X157775233Y-81302763D01*
X157755220Y-81236787D01*
X157715193Y-81104836D01*
X157694920Y-80899000D01*
X157715193Y-80693164D01*
X157775233Y-80495238D01*
X157775233Y-80495237D01*
X157872733Y-80312828D01*
X158003946Y-80152946D01*
X158163828Y-80021733D01*
X158346237Y-79924233D01*
X158412213Y-79904220D01*
X158544164Y-79864193D01*
X158621293Y-79856597D01*
X158698420Y-79849000D01*
X158801580Y-79849000D01*
X158878707Y-79856597D01*
X158878707Y-79856597D01*
G37*
G36*
X196010000Y-80821000D02*
X192610000Y-80821000D01*
X192610000Y-77421000D01*
X196010000Y-77421000D01*
X196010000Y-80821000D01*
X196010000Y-80821000D01*
G37*
G36*
X158878707Y-77316597D02*
X158955836Y-77324193D01*
X159087787Y-77364220D01*
X159153763Y-77384233D01*
X159336172Y-77481733D01*
X159496054Y-77612946D01*
X159627267Y-77772828D01*
X159724767Y-77955237D01*
X159724767Y-77955238D01*
X159784807Y-78153164D01*
X159805080Y-78359000D01*
X159784807Y-78564836D01*
X159759068Y-78649687D01*
X159724767Y-78762763D01*
X159627267Y-78945172D01*
X159496054Y-79105054D01*
X159336172Y-79236267D01*
X159153763Y-79333767D01*
X159087787Y-79353780D01*
X158955836Y-79393807D01*
X158878707Y-79401403D01*
X158801580Y-79409000D01*
X158698420Y-79409000D01*
X158621293Y-79401403D01*
X158544164Y-79393807D01*
X158412213Y-79353780D01*
X158346237Y-79333767D01*
X158163828Y-79236267D01*
X158003946Y-79105054D01*
X157872733Y-78945172D01*
X157775233Y-78762763D01*
X157740932Y-78649687D01*
X157715193Y-78564836D01*
X157694920Y-78359000D01*
X157715193Y-78153164D01*
X157775233Y-77955238D01*
X157775233Y-77955237D01*
X157872733Y-77772828D01*
X158003946Y-77612946D01*
X158163828Y-77481733D01*
X158346237Y-77384233D01*
X158412213Y-77364220D01*
X158544164Y-77324193D01*
X158621293Y-77316597D01*
X158698420Y-77309000D01*
X158801580Y-77309000D01*
X158878707Y-77316597D01*
X158878707Y-77316597D01*
G37*
G36*
X185909393Y-75909553D02*
X186018872Y-75931330D01*
X186328252Y-76059479D01*
X186606687Y-76245523D01*
X186843477Y-76482313D01*
X187029521Y-76760748D01*
X187074360Y-76869000D01*
X187157670Y-77070129D01*
X187223000Y-77398563D01*
X187223000Y-77733437D01*
X187215164Y-77772829D01*
X187157670Y-78061872D01*
X187029521Y-78371252D01*
X186843477Y-78649687D01*
X186606687Y-78886477D01*
X186328252Y-79072521D01*
X186018872Y-79200670D01*
X185909393Y-79222447D01*
X185690437Y-79266000D01*
X185355563Y-79266000D01*
X185136607Y-79222447D01*
X185027128Y-79200670D01*
X184717748Y-79072521D01*
X184439313Y-78886477D01*
X184202523Y-78649687D01*
X184016479Y-78371252D01*
X183888330Y-78061872D01*
X183830836Y-77772829D01*
X183823000Y-77733437D01*
X183823000Y-77398563D01*
X183888330Y-77070129D01*
X183971640Y-76869000D01*
X184016479Y-76760748D01*
X184202523Y-76482313D01*
X184439313Y-76245523D01*
X184717748Y-76059479D01*
X185027128Y-75931330D01*
X185136607Y-75909553D01*
X185355563Y-75866000D01*
X185690437Y-75866000D01*
X185909393Y-75909553D01*
X185909393Y-75909553D01*
G37*
G36*
X173695947Y-76221722D02*
X173959833Y-76331027D01*
X174197324Y-76489713D01*
X174399287Y-76691676D01*
X174557973Y-76929167D01*
X174667278Y-77193053D01*
X174723000Y-77473186D01*
X174723000Y-77758814D01*
X174667278Y-78038947D01*
X174557973Y-78302833D01*
X174399287Y-78540324D01*
X174197324Y-78742287D01*
X173959833Y-78900973D01*
X173695947Y-79010278D01*
X173415814Y-79066000D01*
X173130186Y-79066000D01*
X172850053Y-79010278D01*
X172586167Y-78900973D01*
X172348676Y-78742287D01*
X172146713Y-78540324D01*
X171988027Y-78302833D01*
X171878722Y-78038947D01*
X171823000Y-77758814D01*
X171823000Y-77473186D01*
X171878722Y-77193053D01*
X171988027Y-76929167D01*
X172146713Y-76691676D01*
X172348676Y-76489713D01*
X172586167Y-76331027D01*
X172850053Y-76221722D01*
X173130186Y-76166000D01*
X173415814Y-76166000D01*
X173695947Y-76221722D01*
X173695947Y-76221722D01*
G37*
G36*
X158878707Y-74776597D02*
X158955836Y-74784193D01*
X159087787Y-74824220D01*
X159153763Y-74844233D01*
X159336172Y-74941733D01*
X159496054Y-75072946D01*
X159627267Y-75232828D01*
X159724767Y-75415237D01*
X159724767Y-75415238D01*
X159784807Y-75613164D01*
X159805080Y-75819000D01*
X159784807Y-76024836D01*
X159774298Y-76059479D01*
X159724767Y-76222763D01*
X159627267Y-76405172D01*
X159496054Y-76565054D01*
X159336172Y-76696267D01*
X159153763Y-76793767D01*
X159087787Y-76813780D01*
X158955836Y-76853807D01*
X158878707Y-76861404D01*
X158801580Y-76869000D01*
X158698420Y-76869000D01*
X158621293Y-76861404D01*
X158544164Y-76853807D01*
X158412213Y-76813780D01*
X158346237Y-76793767D01*
X158163828Y-76696267D01*
X158003946Y-76565054D01*
X157872733Y-76405172D01*
X157775233Y-76222763D01*
X157725702Y-76059479D01*
X157715193Y-76024836D01*
X157694920Y-75819000D01*
X157715193Y-75613164D01*
X157775233Y-75415238D01*
X157775233Y-75415237D01*
X157872733Y-75232828D01*
X158003946Y-75072946D01*
X158163828Y-74941733D01*
X158346237Y-74844233D01*
X158412213Y-74824220D01*
X158544164Y-74784193D01*
X158621293Y-74776597D01*
X158698420Y-74769000D01*
X158801580Y-74769000D01*
X158878707Y-74776597D01*
X158878707Y-74776597D01*
G37*
G36*
X194696393Y-72384553D02*
X194805872Y-72406330D01*
X195115252Y-72534479D01*
X195393687Y-72720523D01*
X195630477Y-72957313D01*
X195816521Y-73235748D01*
X195884736Y-73400435D01*
X195944670Y-73545129D01*
X196010000Y-73873563D01*
X196010000Y-74208437D01*
X195988467Y-74316689D01*
X195944670Y-74536872D01*
X195816521Y-74846252D01*
X195630477Y-75124687D01*
X195393687Y-75361477D01*
X195115252Y-75547521D01*
X194805872Y-75675670D01*
X194696393Y-75697447D01*
X194477437Y-75741000D01*
X194142563Y-75741000D01*
X193923607Y-75697447D01*
X193814128Y-75675670D01*
X193504748Y-75547521D01*
X193226313Y-75361477D01*
X192989523Y-75124687D01*
X192803479Y-74846252D01*
X192675330Y-74536872D01*
X192631533Y-74316689D01*
X192610000Y-74208437D01*
X192610000Y-73873563D01*
X192675330Y-73545129D01*
X192735264Y-73400435D01*
X192803479Y-73235748D01*
X192989523Y-72957313D01*
X193226313Y-72720523D01*
X193504748Y-72534479D01*
X193814128Y-72406330D01*
X193923607Y-72384553D01*
X194142563Y-72341000D01*
X194477437Y-72341000D01*
X194696393Y-72384553D01*
X194696393Y-72384553D01*
G37*
G36*
X185859393Y-71576553D02*
X185968872Y-71598330D01*
X186278252Y-71726479D01*
X186556687Y-71912523D01*
X186793477Y-72149313D01*
X186979521Y-72427748D01*
X187100792Y-72720523D01*
X187107670Y-72737129D01*
X187151468Y-72957313D01*
X187173000Y-73065565D01*
X187173000Y-73400435D01*
X187107670Y-73728872D01*
X186979521Y-74038252D01*
X186793477Y-74316687D01*
X186556687Y-74553477D01*
X186278252Y-74739521D01*
X185968872Y-74867670D01*
X185859393Y-74889447D01*
X185640437Y-74933000D01*
X185305563Y-74933000D01*
X185086607Y-74889447D01*
X184977128Y-74867670D01*
X184667748Y-74739521D01*
X184389313Y-74553477D01*
X184152523Y-74316687D01*
X183966479Y-74038252D01*
X183838330Y-73728872D01*
X183773000Y-73400435D01*
X183773000Y-73065565D01*
X183794533Y-72957313D01*
X183838330Y-72737129D01*
X183845208Y-72720523D01*
X183966479Y-72427748D01*
X184152523Y-72149313D01*
X184389313Y-71912523D01*
X184667748Y-71726479D01*
X184977128Y-71598330D01*
X185086607Y-71576553D01*
X185305563Y-71533000D01*
X185640437Y-71533000D01*
X185859393Y-71576553D01*
X185859393Y-71576553D01*
G37*
G36*
X173695947Y-71838722D02*
X173959833Y-71948027D01*
X174197324Y-72106713D01*
X174399287Y-72308676D01*
X174557973Y-72546167D01*
X174667278Y-72810053D01*
X174723000Y-73090186D01*
X174723000Y-73375814D01*
X174667278Y-73655947D01*
X174557973Y-73919833D01*
X174399287Y-74157324D01*
X174197324Y-74359287D01*
X173959833Y-74517973D01*
X173695947Y-74627278D01*
X173415814Y-74683000D01*
X173130186Y-74683000D01*
X172850053Y-74627278D01*
X172586167Y-74517973D01*
X172348676Y-74359287D01*
X172146713Y-74157324D01*
X171988027Y-73919833D01*
X171878722Y-73655947D01*
X171823000Y-73375814D01*
X171823000Y-73090186D01*
X171878722Y-72810053D01*
X171988027Y-72546167D01*
X172146713Y-72308676D01*
X172348676Y-72106713D01*
X172586167Y-71948027D01*
X172850053Y-71838722D01*
X173130186Y-71783000D01*
X173415814Y-71783000D01*
X173695947Y-71838722D01*
X173695947Y-71838722D01*
G37*
G36*
X159800000Y-74329000D02*
X157700000Y-74329000D01*
X157700000Y-72229000D01*
X159800000Y-72229000D01*
X159800000Y-74329000D01*
X159800000Y-74329000D01*
G37*
G36*
X171709393Y-65526553D02*
X171818872Y-65548330D01*
X172128252Y-65676479D01*
X172406687Y-65862523D01*
X172643477Y-66099313D01*
X172829521Y-66377748D01*
X172957670Y-66687128D01*
X173023000Y-67015565D01*
X173023000Y-67350435D01*
X172957670Y-67678872D01*
X172829521Y-67988252D01*
X172643477Y-68266687D01*
X172406687Y-68503477D01*
X172128252Y-68689521D01*
X171818872Y-68817670D01*
X171709393Y-68839447D01*
X171490437Y-68883000D01*
X171155563Y-68883000D01*
X170936607Y-68839447D01*
X170827128Y-68817670D01*
X170517748Y-68689521D01*
X170239313Y-68503477D01*
X170002523Y-68266687D01*
X169816479Y-67988252D01*
X169688330Y-67678872D01*
X169623000Y-67350435D01*
X169623000Y-67015565D01*
X169688330Y-66687128D01*
X169816479Y-66377748D01*
X170002523Y-66099313D01*
X170239313Y-65862523D01*
X170517748Y-65676479D01*
X170827128Y-65548330D01*
X170936607Y-65526553D01*
X171155563Y-65483000D01*
X171490437Y-65483000D01*
X171709393Y-65526553D01*
X171709393Y-65526553D01*
G37*
G36*
X196264000Y-68629000D02*
X192864000Y-68629000D01*
X192864000Y-65229000D01*
X196264000Y-65229000D01*
X196264000Y-68629000D01*
X196264000Y-68629000D01*
G37*
G36*
X194950393Y-60192553D02*
X195059872Y-60214330D01*
X195369252Y-60342479D01*
X195647687Y-60528523D01*
X195884477Y-60765313D01*
X196070521Y-61043748D01*
X196198670Y-61353128D01*
X196220447Y-61462607D01*
X196263465Y-61678872D01*
X196264000Y-61681565D01*
X196264000Y-62016435D01*
X196198670Y-62344872D01*
X196070521Y-62654252D01*
X195884477Y-62932687D01*
X195647687Y-63169477D01*
X195369252Y-63355521D01*
X195059872Y-63483670D01*
X194950393Y-63505447D01*
X194731437Y-63549000D01*
X194396563Y-63549000D01*
X194177607Y-63505447D01*
X194068128Y-63483670D01*
X193758748Y-63355521D01*
X193480313Y-63169477D01*
X193243523Y-62932687D01*
X193057479Y-62654252D01*
X192929330Y-62344872D01*
X192864000Y-62016435D01*
X192864000Y-61681565D01*
X192864536Y-61678872D01*
X192907553Y-61462607D01*
X192929330Y-61353128D01*
X193057479Y-61043748D01*
X193243523Y-60765313D01*
X193480313Y-60528523D01*
X193758748Y-60342479D01*
X194068128Y-60214330D01*
X194177607Y-60192553D01*
X194396563Y-60149000D01*
X194731437Y-60149000D01*
X194950393Y-60192553D01*
X194950393Y-60192553D01*
G37*
G36*
X185909393Y-59526553D02*
X186018872Y-59548330D01*
X186328252Y-59676479D01*
X186606687Y-59862523D01*
X186843477Y-60099313D01*
X187029521Y-60377748D01*
X187157670Y-60687128D01*
X187173222Y-60765313D01*
X187223000Y-61015563D01*
X187223000Y-61350437D01*
X187217952Y-61375813D01*
X187157670Y-61678872D01*
X187029521Y-61988252D01*
X186843477Y-62266687D01*
X186606687Y-62503477D01*
X186328252Y-62689521D01*
X186018872Y-62817670D01*
X185909393Y-62839447D01*
X185690437Y-62883000D01*
X185355563Y-62883000D01*
X185136607Y-62839447D01*
X185027128Y-62817670D01*
X184717748Y-62689521D01*
X184439313Y-62503477D01*
X184202523Y-62266687D01*
X184016479Y-61988252D01*
X183888330Y-61678872D01*
X183828048Y-61375813D01*
X183823000Y-61350437D01*
X183823000Y-61015563D01*
X183872778Y-60765313D01*
X183888330Y-60687128D01*
X184016479Y-60377748D01*
X184202523Y-60099313D01*
X184439313Y-59862523D01*
X184717748Y-59676479D01*
X185027128Y-59548330D01*
X185136607Y-59526553D01*
X185355563Y-59483000D01*
X185690437Y-59483000D01*
X185909393Y-59526553D01*
X185909393Y-59526553D01*
G37*
G36*
X173695947Y-59838722D02*
X173959833Y-59948027D01*
X174197324Y-60106713D01*
X174399287Y-60308676D01*
X174557973Y-60546167D01*
X174667278Y-60810053D01*
X174723000Y-61090186D01*
X174723000Y-61375814D01*
X174667278Y-61655947D01*
X174557973Y-61919833D01*
X174399287Y-62157324D01*
X174197324Y-62359287D01*
X173959833Y-62517973D01*
X173695947Y-62627278D01*
X173415814Y-62683000D01*
X173130186Y-62683000D01*
X172850053Y-62627278D01*
X172586167Y-62517973D01*
X172348676Y-62359287D01*
X172146713Y-62157324D01*
X171988027Y-61919833D01*
X171878722Y-61655947D01*
X171823000Y-61375814D01*
X171823000Y-61090186D01*
X171878722Y-60810053D01*
X171988027Y-60546167D01*
X172146713Y-60308676D01*
X172348676Y-60106713D01*
X172586167Y-59948027D01*
X172850053Y-59838722D01*
X173130186Y-59783000D01*
X173415814Y-59783000D01*
X173695947Y-59838722D01*
X173695947Y-59838722D01*
G37*
G36*
X185799196Y-53359958D02*
X186035780Y-53457954D01*
X186248705Y-53600226D01*
X186429774Y-53781295D01*
X186572046Y-53994220D01*
X186670042Y-54230804D01*
X186720000Y-54481960D01*
X186720000Y-54738040D01*
X186670042Y-54989196D01*
X186572046Y-55225780D01*
X186429774Y-55438705D01*
X186248705Y-55619774D01*
X186035780Y-55762046D01*
X185799196Y-55860042D01*
X185548040Y-55910000D01*
X185291960Y-55910000D01*
X185040804Y-55860042D01*
X184804220Y-55762046D01*
X184591295Y-55619774D01*
X184410226Y-55438705D01*
X184267954Y-55225780D01*
X184169958Y-54989196D01*
X184120000Y-54738040D01*
X184120000Y-54481960D01*
X184169958Y-54230804D01*
X184267954Y-53994220D01*
X184410226Y-53781295D01*
X184591295Y-53600226D01*
X184804220Y-53457954D01*
X185040804Y-53359958D01*
X185291960Y-53310000D01*
X185548040Y-53310000D01*
X185799196Y-53359958D01*
X185799196Y-53359958D01*
G37*
G36*
X173099196Y-53359958D02*
X173335780Y-53457954D01*
X173548705Y-53600226D01*
X173729774Y-53781295D01*
X173872046Y-53994220D01*
X173970042Y-54230804D01*
X174020000Y-54481960D01*
X174020000Y-54738040D01*
X173970042Y-54989196D01*
X173872046Y-55225780D01*
X173729774Y-55438705D01*
X173548705Y-55619774D01*
X173335780Y-55762046D01*
X173099196Y-55860042D01*
X172848040Y-55910000D01*
X172591960Y-55910000D01*
X172340804Y-55860042D01*
X172104220Y-55762046D01*
X171891295Y-55619774D01*
X171710226Y-55438705D01*
X171567954Y-55225780D01*
X171469958Y-54989196D01*
X171420000Y-54738040D01*
X171420000Y-54481960D01*
X171469958Y-54230804D01*
X171567954Y-53994220D01*
X171710226Y-53781295D01*
X171891295Y-53600226D01*
X172104220Y-53457954D01*
X172340804Y-53359958D01*
X172591960Y-53310000D01*
X172848040Y-53310000D01*
X173099196Y-53359958D01*
X173099196Y-53359958D01*
G37*
G36*
X196700000Y-55040000D02*
X193300000Y-55040000D01*
X193300000Y-51640000D01*
X196700000Y-51640000D01*
X196700000Y-55040000D01*
X196700000Y-55040000D01*
G37*
G36*
X135641393Y-47873553D02*
X135750872Y-47895330D01*
X136060252Y-48023479D01*
X136338687Y-48209523D01*
X136575477Y-48446313D01*
X136761521Y-48724748D01*
X136889670Y-49034128D01*
X136895861Y-49065252D01*
X136951246Y-49343689D01*
X136955000Y-49362565D01*
X136955000Y-49697435D01*
X136889670Y-50025872D01*
X136761521Y-50335252D01*
X136575477Y-50613687D01*
X136338687Y-50850477D01*
X136060252Y-51036521D01*
X135750872Y-51164670D01*
X135641393Y-51186447D01*
X135422437Y-51230000D01*
X135087563Y-51230000D01*
X134868607Y-51186447D01*
X134759128Y-51164670D01*
X134449748Y-51036521D01*
X134171313Y-50850477D01*
X133934523Y-50613687D01*
X133748479Y-50335252D01*
X133620330Y-50025872D01*
X133555000Y-49697435D01*
X133555000Y-49362565D01*
X133558755Y-49343689D01*
X133614139Y-49065252D01*
X133620330Y-49034128D01*
X133748479Y-48724748D01*
X133934523Y-48446313D01*
X134171313Y-48209523D01*
X134449748Y-48023479D01*
X134759128Y-47895330D01*
X134868607Y-47873553D01*
X135087563Y-47830000D01*
X135422437Y-47830000D01*
X135641393Y-47873553D01*
X135641393Y-47873553D01*
G37*
G36*
X142035000Y-51230000D02*
X138635000Y-51230000D01*
X138635000Y-47830000D01*
X142035000Y-47830000D01*
X142035000Y-51230000D01*
X142035000Y-51230000D01*
G37*
G36*
X195386393Y-46603553D02*
X195495872Y-46625330D01*
X195805252Y-46753479D01*
X196083687Y-46939523D01*
X196320477Y-47176313D01*
X196506521Y-47454748D01*
X196634670Y-47764128D01*
X196634670Y-47764129D01*
X196700000Y-48092563D01*
X196700000Y-48427437D01*
X196696245Y-48446313D01*
X196634670Y-48755872D01*
X196506521Y-49065252D01*
X196320477Y-49343687D01*
X196083687Y-49580477D01*
X195805252Y-49766521D01*
X195495872Y-49894670D01*
X195386393Y-49916447D01*
X195167437Y-49960000D01*
X194832563Y-49960000D01*
X194613607Y-49916447D01*
X194504128Y-49894670D01*
X194194748Y-49766521D01*
X193916313Y-49580477D01*
X193679523Y-49343687D01*
X193493479Y-49065252D01*
X193365330Y-48755872D01*
X193303755Y-48446313D01*
X193300000Y-48427437D01*
X193300000Y-48092563D01*
X193365330Y-47764129D01*
X193365330Y-47764128D01*
X193493479Y-47454748D01*
X193679523Y-47176313D01*
X193916313Y-46939523D01*
X194194748Y-46753479D01*
X194504128Y-46625330D01*
X194613607Y-46603553D01*
X194832563Y-46560000D01*
X195167437Y-46560000D01*
X195386393Y-46603553D01*
X195386393Y-46603553D01*
G37*
G36*
X173099196Y-45739958D02*
X173335780Y-45837954D01*
X173548705Y-45980226D01*
X173729774Y-46161295D01*
X173872046Y-46374220D01*
X173970042Y-46610804D01*
X174020000Y-46861960D01*
X174020000Y-47118040D01*
X173970042Y-47369196D01*
X173872046Y-47605780D01*
X173729774Y-47818705D01*
X173548705Y-47999774D01*
X173335780Y-48142046D01*
X173099196Y-48240042D01*
X172848040Y-48290000D01*
X172591960Y-48290000D01*
X172340804Y-48240042D01*
X172104220Y-48142046D01*
X171891295Y-47999774D01*
X171710226Y-47818705D01*
X171567954Y-47605780D01*
X171469958Y-47369196D01*
X171420000Y-47118040D01*
X171420000Y-46861960D01*
X171469958Y-46610804D01*
X171567954Y-46374220D01*
X171710226Y-46161295D01*
X171891295Y-45980226D01*
X172104220Y-45837954D01*
X172340804Y-45739958D01*
X172591960Y-45690000D01*
X172848040Y-45690000D01*
X173099196Y-45739958D01*
X173099196Y-45739958D01*
G37*
G36*
X188339196Y-45739958D02*
X188575780Y-45837954D01*
X188788705Y-45980226D01*
X188969774Y-46161295D01*
X189112046Y-46374220D01*
X189210042Y-46610804D01*
X189260000Y-46861960D01*
X189260000Y-47118040D01*
X189210042Y-47369196D01*
X189112046Y-47605780D01*
X188969774Y-47818705D01*
X188788705Y-47999774D01*
X188575780Y-48142046D01*
X188339196Y-48240042D01*
X188088040Y-48290000D01*
X187831960Y-48290000D01*
X187580804Y-48240042D01*
X187344220Y-48142046D01*
X187131295Y-47999774D01*
X186950226Y-47818705D01*
X186807954Y-47605780D01*
X186709958Y-47369196D01*
X186660000Y-47118040D01*
X186660000Y-46861960D01*
X186709958Y-46610804D01*
X186807954Y-46374220D01*
X186950226Y-46161295D01*
X187131295Y-45980226D01*
X187344220Y-45837954D01*
X187580804Y-45739958D01*
X187831960Y-45690000D01*
X188088040Y-45690000D01*
X188339196Y-45739958D01*
X188339196Y-45739958D01*
G37*
M02*
