G04 #@! TF.GenerationSoftware,KiCad,Pcbnew,5.0.1-33cea8e~68~ubuntu18.04.1*
G04 #@! TF.CreationDate,2018-11-29T09:05:56+01:00*
G04 #@! TF.ProjectId,Velux,56656C75782E6B696361645F70636200,rev?*
G04 #@! TF.SameCoordinates,Original*
G04 #@! TF.FileFunction,Copper,L1,Top,Signal*
G04 #@! TF.FilePolarity,Positive*
%FSLAX46Y46*%
G04 Gerber Fmt 4.6, Leading zero omitted, Abs format (unit mm)*
G04 Created by KiCad (PCBNEW 5.0.1-33cea8e~68~ubuntu18.04.1) date jeu. 29 nov. 2018 09:05:56 CET*
%MOMM*%
%LPD*%
G01*
G04 APERTURE LIST*
G04 #@! TA.AperFunction,SMDPad,CuDef*
%ADD10R,2.500000X1.000000*%
G04 #@! TD*
G04 #@! TA.AperFunction,SMDPad,CuDef*
%ADD11R,1.000000X1.800000*%
G04 #@! TD*
G04 #@! TA.AperFunction,SMDPad,CuDef*
%ADD12R,1.300000X0.800000*%
G04 #@! TD*
G04 #@! TA.AperFunction,Conductor*
%ADD13C,0.100000*%
G04 #@! TD*
G04 #@! TA.AperFunction,SMDPad,CuDef*
%ADD14C,1.150000*%
G04 #@! TD*
G04 #@! TA.AperFunction,ComponentPad*
%ADD15R,3.000000X3.000000*%
G04 #@! TD*
G04 #@! TA.AperFunction,ComponentPad*
%ADD16C,3.000000*%
G04 #@! TD*
G04 #@! TA.AperFunction,ComponentPad*
%ADD17C,2.200000*%
G04 #@! TD*
G04 #@! TA.AperFunction,SMDPad,CuDef*
%ADD18R,2.750000X1.000000*%
G04 #@! TD*
G04 #@! TA.AperFunction,SMDPad,CuDef*
%ADD19R,3.800000X2.000000*%
G04 #@! TD*
G04 #@! TA.AperFunction,SMDPad,CuDef*
%ADD20R,1.500000X2.000000*%
G04 #@! TD*
G04 #@! TA.AperFunction,SMDPad,CuDef*
%ADD21R,2.000000X0.600000*%
G04 #@! TD*
G04 #@! TA.AperFunction,ComponentPad*
%ADD22C,2.500000*%
G04 #@! TD*
G04 #@! TA.AperFunction,ComponentPad*
%ADD23R,1.700000X1.700000*%
G04 #@! TD*
G04 #@! TA.AperFunction,ComponentPad*
%ADD24O,1.700000X1.700000*%
G04 #@! TD*
G04 #@! TA.AperFunction,ViaPad*
%ADD25C,0.800000*%
G04 #@! TD*
G04 #@! TA.AperFunction,Conductor*
%ADD26C,0.250000*%
G04 #@! TD*
G04 #@! TA.AperFunction,Conductor*
%ADD27C,1.000000*%
G04 #@! TD*
G04 APERTURE END LIST*
D10*
G04 #@! TO.P,U3,1*
G04 #@! TO.N,Net-(R1-Pad2)*
X139065000Y-75819000D03*
G04 #@! TO.P,U3,2*
G04 #@! TO.N,Net-(U3-Pad2)*
X139065000Y-77819000D03*
G04 #@! TO.P,U3,3*
G04 #@! TO.N,/3V3*
X139065000Y-79819000D03*
G04 #@! TO.P,U3,4*
G04 #@! TO.N,Net-(U3-Pad4)*
X139065000Y-81819000D03*
G04 #@! TO.P,U3,5*
G04 #@! TO.N,/RCLK*
X139065000Y-83819000D03*
G04 #@! TO.P,U3,6*
G04 #@! TO.N,/SRCLK*
X139065000Y-85819000D03*
G04 #@! TO.P,U3,7*
G04 #@! TO.N,/SER*
X139065000Y-87819000D03*
G04 #@! TO.P,U3,8*
G04 #@! TO.N,/3V3*
X139065000Y-89819000D03*
D11*
G04 #@! TO.P,U3,9*
G04 #@! TO.N,Net-(U3-Pad9)*
X141665000Y-91319000D03*
G04 #@! TO.P,U3,10*
G04 #@! TO.N,Net-(U3-Pad10)*
X143665000Y-91319000D03*
G04 #@! TO.P,U3,11*
G04 #@! TO.N,Net-(U3-Pad11)*
X145665000Y-91319000D03*
G04 #@! TO.P,U3,12*
G04 #@! TO.N,Net-(U3-Pad12)*
X147665000Y-91319000D03*
G04 #@! TO.P,U3,13*
G04 #@! TO.N,Net-(U3-Pad13)*
X149665000Y-91319000D03*
G04 #@! TO.P,U3,14*
G04 #@! TO.N,Net-(U3-Pad14)*
X151665000Y-91319000D03*
D10*
G04 #@! TO.P,U3,15*
G04 #@! TO.N,/GND*
X154265000Y-89819000D03*
G04 #@! TO.P,U3,16*
X154265000Y-87819000D03*
G04 #@! TO.P,U3,17*
G04 #@! TO.N,Net-(U3-Pad17)*
X154265000Y-85819000D03*
G04 #@! TO.P,U3,18*
G04 #@! TO.N,/GPIO0*
X154265000Y-83819000D03*
G04 #@! TO.P,U3,19*
G04 #@! TO.N,Net-(U3-Pad19)*
X154265000Y-81819000D03*
G04 #@! TO.P,U3,20*
G04 #@! TO.N,Net-(U3-Pad20)*
X154265000Y-79819000D03*
G04 #@! TO.P,U3,21*
G04 #@! TO.N,/RXD*
X154265000Y-77819000D03*
G04 #@! TO.P,U3,22*
G04 #@! TO.N,/TXD*
X154265000Y-75819000D03*
G04 #@! TD*
D12*
G04 #@! TO.P,U1,1*
G04 #@! TO.N,/L7*
X143002000Y-103642000D03*
G04 #@! TO.P,U1,2*
G04 #@! TO.N,/L6*
X143002000Y-102362000D03*
G04 #@! TO.P,U1,3*
G04 #@! TO.N,/L5*
X143002000Y-101102000D03*
G04 #@! TO.P,U1,4*
G04 #@! TO.N,/L4*
X143002000Y-99832000D03*
G04 #@! TO.P,U1,5*
G04 #@! TO.N,/L3*
X143002000Y-98552000D03*
G04 #@! TO.P,U1,6*
G04 #@! TO.N,/L2*
X143002000Y-97282000D03*
G04 #@! TO.P,U1,7*
G04 #@! TO.N,/L1*
X143002000Y-96022000D03*
G04 #@! TO.P,U1,8*
G04 #@! TO.N,/GND*
X143002000Y-94742000D03*
G04 #@! TO.P,U1,9*
G04 #@! TO.N,Net-(U1-Pad9)*
X136702000Y-94742000D03*
G04 #@! TO.P,U1,10*
G04 #@! TO.N,/3V3*
X136702000Y-96022000D03*
G04 #@! TO.P,U1,11*
G04 #@! TO.N,/SRCLK*
X136702000Y-97282000D03*
G04 #@! TO.P,U1,12*
G04 #@! TO.N,/RCLK*
X136702000Y-98552000D03*
G04 #@! TO.P,U1,13*
G04 #@! TO.N,/GND*
X136702000Y-99832000D03*
G04 #@! TO.P,U1,14*
G04 #@! TO.N,/SER*
X136702000Y-101102000D03*
G04 #@! TO.P,U1,15*
G04 #@! TO.N,/L8*
X136702000Y-102362000D03*
G04 #@! TO.P,U1,16*
G04 #@! TO.N,/3V3*
X136702000Y-103642000D03*
G04 #@! TD*
D13*
G04 #@! TO.N,/5V*
G04 #@! TO.C,D3*
G36*
X167606505Y-69793204D02*
X167630773Y-69796804D01*
X167654572Y-69802765D01*
X167677671Y-69811030D01*
X167699850Y-69821520D01*
X167720893Y-69834132D01*
X167740599Y-69848747D01*
X167758777Y-69865223D01*
X167775253Y-69883401D01*
X167789868Y-69903107D01*
X167802480Y-69924150D01*
X167812970Y-69946329D01*
X167821235Y-69969428D01*
X167827196Y-69993227D01*
X167830796Y-70017495D01*
X167832000Y-70041999D01*
X167832000Y-70692001D01*
X167830796Y-70716505D01*
X167827196Y-70740773D01*
X167821235Y-70764572D01*
X167812970Y-70787671D01*
X167802480Y-70809850D01*
X167789868Y-70830893D01*
X167775253Y-70850599D01*
X167758777Y-70868777D01*
X167740599Y-70885253D01*
X167720893Y-70899868D01*
X167699850Y-70912480D01*
X167677671Y-70922970D01*
X167654572Y-70931235D01*
X167630773Y-70937196D01*
X167606505Y-70940796D01*
X167582001Y-70942000D01*
X166681999Y-70942000D01*
X166657495Y-70940796D01*
X166633227Y-70937196D01*
X166609428Y-70931235D01*
X166586329Y-70922970D01*
X166564150Y-70912480D01*
X166543107Y-70899868D01*
X166523401Y-70885253D01*
X166505223Y-70868777D01*
X166488747Y-70850599D01*
X166474132Y-70830893D01*
X166461520Y-70809850D01*
X166451030Y-70787671D01*
X166442765Y-70764572D01*
X166436804Y-70740773D01*
X166433204Y-70716505D01*
X166432000Y-70692001D01*
X166432000Y-70041999D01*
X166433204Y-70017495D01*
X166436804Y-69993227D01*
X166442765Y-69969428D01*
X166451030Y-69946329D01*
X166461520Y-69924150D01*
X166474132Y-69903107D01*
X166488747Y-69883401D01*
X166505223Y-69865223D01*
X166523401Y-69848747D01*
X166543107Y-69834132D01*
X166564150Y-69821520D01*
X166586329Y-69811030D01*
X166609428Y-69802765D01*
X166633227Y-69796804D01*
X166657495Y-69793204D01*
X166681999Y-69792000D01*
X167582001Y-69792000D01*
X167606505Y-69793204D01*
X167606505Y-69793204D01*
G37*
D14*
G04 #@! TD*
G04 #@! TO.P,D3,2*
G04 #@! TO.N,/5V*
X167132000Y-70367000D03*
D13*
G04 #@! TO.N,Net-(D3-Pad1)*
G04 #@! TO.C,D3*
G36*
X167606505Y-67743204D02*
X167630773Y-67746804D01*
X167654572Y-67752765D01*
X167677671Y-67761030D01*
X167699850Y-67771520D01*
X167720893Y-67784132D01*
X167740599Y-67798747D01*
X167758777Y-67815223D01*
X167775253Y-67833401D01*
X167789868Y-67853107D01*
X167802480Y-67874150D01*
X167812970Y-67896329D01*
X167821235Y-67919428D01*
X167827196Y-67943227D01*
X167830796Y-67967495D01*
X167832000Y-67991999D01*
X167832000Y-68642001D01*
X167830796Y-68666505D01*
X167827196Y-68690773D01*
X167821235Y-68714572D01*
X167812970Y-68737671D01*
X167802480Y-68759850D01*
X167789868Y-68780893D01*
X167775253Y-68800599D01*
X167758777Y-68818777D01*
X167740599Y-68835253D01*
X167720893Y-68849868D01*
X167699850Y-68862480D01*
X167677671Y-68872970D01*
X167654572Y-68881235D01*
X167630773Y-68887196D01*
X167606505Y-68890796D01*
X167582001Y-68892000D01*
X166681999Y-68892000D01*
X166657495Y-68890796D01*
X166633227Y-68887196D01*
X166609428Y-68881235D01*
X166586329Y-68872970D01*
X166564150Y-68862480D01*
X166543107Y-68849868D01*
X166523401Y-68835253D01*
X166505223Y-68818777D01*
X166488747Y-68800599D01*
X166474132Y-68780893D01*
X166461520Y-68759850D01*
X166451030Y-68737671D01*
X166442765Y-68714572D01*
X166436804Y-68690773D01*
X166433204Y-68666505D01*
X166432000Y-68642001D01*
X166432000Y-67991999D01*
X166433204Y-67967495D01*
X166436804Y-67943227D01*
X166442765Y-67919428D01*
X166451030Y-67896329D01*
X166461520Y-67874150D01*
X166474132Y-67853107D01*
X166488747Y-67833401D01*
X166505223Y-67815223D01*
X166523401Y-67798747D01*
X166543107Y-67784132D01*
X166564150Y-67771520D01*
X166586329Y-67761030D01*
X166609428Y-67752765D01*
X166633227Y-67746804D01*
X166657495Y-67743204D01*
X166681999Y-67742000D01*
X167582001Y-67742000D01*
X167606505Y-67743204D01*
X167606505Y-67743204D01*
G37*
D14*
G04 #@! TD*
G04 #@! TO.P,D3,1*
G04 #@! TO.N,Net-(D3-Pad1)*
X167132000Y-68317000D03*
D13*
G04 #@! TO.N,Net-(D1-Pad1)*
G04 #@! TO.C,D1*
G36*
X168114505Y-48466204D02*
X168138773Y-48469804D01*
X168162572Y-48475765D01*
X168185671Y-48484030D01*
X168207850Y-48494520D01*
X168228893Y-48507132D01*
X168248599Y-48521747D01*
X168266777Y-48538223D01*
X168283253Y-48556401D01*
X168297868Y-48576107D01*
X168310480Y-48597150D01*
X168320970Y-48619329D01*
X168329235Y-48642428D01*
X168335196Y-48666227D01*
X168338796Y-48690495D01*
X168340000Y-48714999D01*
X168340000Y-49365001D01*
X168338796Y-49389505D01*
X168335196Y-49413773D01*
X168329235Y-49437572D01*
X168320970Y-49460671D01*
X168310480Y-49482850D01*
X168297868Y-49503893D01*
X168283253Y-49523599D01*
X168266777Y-49541777D01*
X168248599Y-49558253D01*
X168228893Y-49572868D01*
X168207850Y-49585480D01*
X168185671Y-49595970D01*
X168162572Y-49604235D01*
X168138773Y-49610196D01*
X168114505Y-49613796D01*
X168090001Y-49615000D01*
X167189999Y-49615000D01*
X167165495Y-49613796D01*
X167141227Y-49610196D01*
X167117428Y-49604235D01*
X167094329Y-49595970D01*
X167072150Y-49585480D01*
X167051107Y-49572868D01*
X167031401Y-49558253D01*
X167013223Y-49541777D01*
X166996747Y-49523599D01*
X166982132Y-49503893D01*
X166969520Y-49482850D01*
X166959030Y-49460671D01*
X166950765Y-49437572D01*
X166944804Y-49413773D01*
X166941204Y-49389505D01*
X166940000Y-49365001D01*
X166940000Y-48714999D01*
X166941204Y-48690495D01*
X166944804Y-48666227D01*
X166950765Y-48642428D01*
X166959030Y-48619329D01*
X166969520Y-48597150D01*
X166982132Y-48576107D01*
X166996747Y-48556401D01*
X167013223Y-48538223D01*
X167031401Y-48521747D01*
X167051107Y-48507132D01*
X167072150Y-48494520D01*
X167094329Y-48484030D01*
X167117428Y-48475765D01*
X167141227Y-48469804D01*
X167165495Y-48466204D01*
X167189999Y-48465000D01*
X168090001Y-48465000D01*
X168114505Y-48466204D01*
X168114505Y-48466204D01*
G37*
D14*
G04 #@! TD*
G04 #@! TO.P,D1,1*
G04 #@! TO.N,Net-(D1-Pad1)*
X167640000Y-49040000D03*
D13*
G04 #@! TO.N,/5V*
G04 #@! TO.C,D1*
G36*
X168114505Y-46416204D02*
X168138773Y-46419804D01*
X168162572Y-46425765D01*
X168185671Y-46434030D01*
X168207850Y-46444520D01*
X168228893Y-46457132D01*
X168248599Y-46471747D01*
X168266777Y-46488223D01*
X168283253Y-46506401D01*
X168297868Y-46526107D01*
X168310480Y-46547150D01*
X168320970Y-46569329D01*
X168329235Y-46592428D01*
X168335196Y-46616227D01*
X168338796Y-46640495D01*
X168340000Y-46664999D01*
X168340000Y-47315001D01*
X168338796Y-47339505D01*
X168335196Y-47363773D01*
X168329235Y-47387572D01*
X168320970Y-47410671D01*
X168310480Y-47432850D01*
X168297868Y-47453893D01*
X168283253Y-47473599D01*
X168266777Y-47491777D01*
X168248599Y-47508253D01*
X168228893Y-47522868D01*
X168207850Y-47535480D01*
X168185671Y-47545970D01*
X168162572Y-47554235D01*
X168138773Y-47560196D01*
X168114505Y-47563796D01*
X168090001Y-47565000D01*
X167189999Y-47565000D01*
X167165495Y-47563796D01*
X167141227Y-47560196D01*
X167117428Y-47554235D01*
X167094329Y-47545970D01*
X167072150Y-47535480D01*
X167051107Y-47522868D01*
X167031401Y-47508253D01*
X167013223Y-47491777D01*
X166996747Y-47473599D01*
X166982132Y-47453893D01*
X166969520Y-47432850D01*
X166959030Y-47410671D01*
X166950765Y-47387572D01*
X166944804Y-47363773D01*
X166941204Y-47339505D01*
X166940000Y-47315001D01*
X166940000Y-46664999D01*
X166941204Y-46640495D01*
X166944804Y-46616227D01*
X166950765Y-46592428D01*
X166959030Y-46569329D01*
X166969520Y-46547150D01*
X166982132Y-46526107D01*
X166996747Y-46506401D01*
X167013223Y-46488223D01*
X167031401Y-46471747D01*
X167051107Y-46457132D01*
X167072150Y-46444520D01*
X167094329Y-46434030D01*
X167117428Y-46425765D01*
X167141227Y-46419804D01*
X167165495Y-46416204D01*
X167189999Y-46415000D01*
X168090001Y-46415000D01*
X168114505Y-46416204D01*
X168114505Y-46416204D01*
G37*
D14*
G04 #@! TD*
G04 #@! TO.P,D1,2*
G04 #@! TO.N,/5V*
X167640000Y-46990000D03*
D13*
G04 #@! TO.N,/5V*
G04 #@! TO.C,D2*
G36*
X167352505Y-79690204D02*
X167376773Y-79693804D01*
X167400572Y-79699765D01*
X167423671Y-79708030D01*
X167445850Y-79718520D01*
X167466893Y-79731132D01*
X167486599Y-79745747D01*
X167504777Y-79762223D01*
X167521253Y-79780401D01*
X167535868Y-79800107D01*
X167548480Y-79821150D01*
X167558970Y-79843329D01*
X167567235Y-79866428D01*
X167573196Y-79890227D01*
X167576796Y-79914495D01*
X167578000Y-79938999D01*
X167578000Y-80589001D01*
X167576796Y-80613505D01*
X167573196Y-80637773D01*
X167567235Y-80661572D01*
X167558970Y-80684671D01*
X167548480Y-80706850D01*
X167535868Y-80727893D01*
X167521253Y-80747599D01*
X167504777Y-80765777D01*
X167486599Y-80782253D01*
X167466893Y-80796868D01*
X167445850Y-80809480D01*
X167423671Y-80819970D01*
X167400572Y-80828235D01*
X167376773Y-80834196D01*
X167352505Y-80837796D01*
X167328001Y-80839000D01*
X166427999Y-80839000D01*
X166403495Y-80837796D01*
X166379227Y-80834196D01*
X166355428Y-80828235D01*
X166332329Y-80819970D01*
X166310150Y-80809480D01*
X166289107Y-80796868D01*
X166269401Y-80782253D01*
X166251223Y-80765777D01*
X166234747Y-80747599D01*
X166220132Y-80727893D01*
X166207520Y-80706850D01*
X166197030Y-80684671D01*
X166188765Y-80661572D01*
X166182804Y-80637773D01*
X166179204Y-80613505D01*
X166178000Y-80589001D01*
X166178000Y-79938999D01*
X166179204Y-79914495D01*
X166182804Y-79890227D01*
X166188765Y-79866428D01*
X166197030Y-79843329D01*
X166207520Y-79821150D01*
X166220132Y-79800107D01*
X166234747Y-79780401D01*
X166251223Y-79762223D01*
X166269401Y-79745747D01*
X166289107Y-79731132D01*
X166310150Y-79718520D01*
X166332329Y-79708030D01*
X166355428Y-79699765D01*
X166379227Y-79693804D01*
X166403495Y-79690204D01*
X166427999Y-79689000D01*
X167328001Y-79689000D01*
X167352505Y-79690204D01*
X167352505Y-79690204D01*
G37*
D14*
G04 #@! TD*
G04 #@! TO.P,D2,2*
G04 #@! TO.N,/5V*
X166878000Y-80264000D03*
D13*
G04 #@! TO.N,Net-(D2-Pad1)*
G04 #@! TO.C,D2*
G36*
X167352505Y-81740204D02*
X167376773Y-81743804D01*
X167400572Y-81749765D01*
X167423671Y-81758030D01*
X167445850Y-81768520D01*
X167466893Y-81781132D01*
X167486599Y-81795747D01*
X167504777Y-81812223D01*
X167521253Y-81830401D01*
X167535868Y-81850107D01*
X167548480Y-81871150D01*
X167558970Y-81893329D01*
X167567235Y-81916428D01*
X167573196Y-81940227D01*
X167576796Y-81964495D01*
X167578000Y-81988999D01*
X167578000Y-82639001D01*
X167576796Y-82663505D01*
X167573196Y-82687773D01*
X167567235Y-82711572D01*
X167558970Y-82734671D01*
X167548480Y-82756850D01*
X167535868Y-82777893D01*
X167521253Y-82797599D01*
X167504777Y-82815777D01*
X167486599Y-82832253D01*
X167466893Y-82846868D01*
X167445850Y-82859480D01*
X167423671Y-82869970D01*
X167400572Y-82878235D01*
X167376773Y-82884196D01*
X167352505Y-82887796D01*
X167328001Y-82889000D01*
X166427999Y-82889000D01*
X166403495Y-82887796D01*
X166379227Y-82884196D01*
X166355428Y-82878235D01*
X166332329Y-82869970D01*
X166310150Y-82859480D01*
X166289107Y-82846868D01*
X166269401Y-82832253D01*
X166251223Y-82815777D01*
X166234747Y-82797599D01*
X166220132Y-82777893D01*
X166207520Y-82756850D01*
X166197030Y-82734671D01*
X166188765Y-82711572D01*
X166182804Y-82687773D01*
X166179204Y-82663505D01*
X166178000Y-82639001D01*
X166178000Y-81988999D01*
X166179204Y-81964495D01*
X166182804Y-81940227D01*
X166188765Y-81916428D01*
X166197030Y-81893329D01*
X166207520Y-81871150D01*
X166220132Y-81850107D01*
X166234747Y-81830401D01*
X166251223Y-81812223D01*
X166269401Y-81795747D01*
X166289107Y-81781132D01*
X166310150Y-81768520D01*
X166332329Y-81758030D01*
X166355428Y-81749765D01*
X166379227Y-81743804D01*
X166403495Y-81740204D01*
X166427999Y-81739000D01*
X167328001Y-81739000D01*
X167352505Y-81740204D01*
X167352505Y-81740204D01*
G37*
D14*
G04 #@! TD*
G04 #@! TO.P,D2,1*
G04 #@! TO.N,Net-(D2-Pad1)*
X166878000Y-82314000D03*
D15*
G04 #@! TO.P,J1,1*
G04 #@! TO.N,/5V*
X140335000Y-49530000D03*
D16*
G04 #@! TO.P,J1,2*
G04 #@! TO.N,/GND*
X135255000Y-49530000D03*
G04 #@! TD*
D15*
G04 #@! TO.P,J2,1*
G04 #@! TO.N,Net-(J2-Pad1)*
X195000000Y-53340000D03*
D16*
G04 #@! TO.P,J2,2*
G04 #@! TO.N,Net-(J2-Pad2)*
X195000000Y-48260000D03*
G04 #@! TD*
G04 #@! TO.P,J3,2*
G04 #@! TO.N,Net-(J3-Pad2)*
X194310000Y-74041000D03*
D15*
G04 #@! TO.P,J3,1*
G04 #@! TO.N,Net-(J3-Pad1)*
X194310000Y-79121000D03*
G04 #@! TD*
G04 #@! TO.P,J4,1*
G04 #@! TO.N,/24+*
X194564000Y-66929000D03*
D16*
G04 #@! TO.P,J4,2*
G04 #@! TO.N,/24-*
X194564000Y-61849000D03*
G04 #@! TD*
D17*
G04 #@! TO.P,K1,3*
G04 #@! TO.N,Net-(J2-Pad2)*
X187960000Y-46990000D03*
G04 #@! TO.P,K1,4*
G04 #@! TO.N,Net-(J2-Pad1)*
X185420000Y-54610000D03*
G04 #@! TO.P,K1,2*
G04 #@! TO.N,/5V*
X172720000Y-46990000D03*
G04 #@! TO.P,K1,1*
G04 #@! TO.N,/OUT1*
X172720000Y-54610000D03*
G04 #@! TD*
D13*
G04 #@! TO.N,Net-(R1-Pad2)*
G04 #@! TO.C,R1*
G36*
X135983505Y-75245204D02*
X136007773Y-75248804D01*
X136031572Y-75254765D01*
X136054671Y-75263030D01*
X136076850Y-75273520D01*
X136097893Y-75286132D01*
X136117599Y-75300747D01*
X136135777Y-75317223D01*
X136152253Y-75335401D01*
X136166868Y-75355107D01*
X136179480Y-75376150D01*
X136189970Y-75398329D01*
X136198235Y-75421428D01*
X136204196Y-75445227D01*
X136207796Y-75469495D01*
X136209000Y-75493999D01*
X136209000Y-76144001D01*
X136207796Y-76168505D01*
X136204196Y-76192773D01*
X136198235Y-76216572D01*
X136189970Y-76239671D01*
X136179480Y-76261850D01*
X136166868Y-76282893D01*
X136152253Y-76302599D01*
X136135777Y-76320777D01*
X136117599Y-76337253D01*
X136097893Y-76351868D01*
X136076850Y-76364480D01*
X136054671Y-76374970D01*
X136031572Y-76383235D01*
X136007773Y-76389196D01*
X135983505Y-76392796D01*
X135959001Y-76394000D01*
X135058999Y-76394000D01*
X135034495Y-76392796D01*
X135010227Y-76389196D01*
X134986428Y-76383235D01*
X134963329Y-76374970D01*
X134941150Y-76364480D01*
X134920107Y-76351868D01*
X134900401Y-76337253D01*
X134882223Y-76320777D01*
X134865747Y-76302599D01*
X134851132Y-76282893D01*
X134838520Y-76261850D01*
X134828030Y-76239671D01*
X134819765Y-76216572D01*
X134813804Y-76192773D01*
X134810204Y-76168505D01*
X134809000Y-76144001D01*
X134809000Y-75493999D01*
X134810204Y-75469495D01*
X134813804Y-75445227D01*
X134819765Y-75421428D01*
X134828030Y-75398329D01*
X134838520Y-75376150D01*
X134851132Y-75355107D01*
X134865747Y-75335401D01*
X134882223Y-75317223D01*
X134900401Y-75300747D01*
X134920107Y-75286132D01*
X134941150Y-75273520D01*
X134963329Y-75263030D01*
X134986428Y-75254765D01*
X135010227Y-75248804D01*
X135034495Y-75245204D01*
X135058999Y-75244000D01*
X135959001Y-75244000D01*
X135983505Y-75245204D01*
X135983505Y-75245204D01*
G37*
D14*
G04 #@! TD*
G04 #@! TO.P,R1,2*
G04 #@! TO.N,Net-(R1-Pad2)*
X135509000Y-75819000D03*
D13*
G04 #@! TO.N,/3V3*
G04 #@! TO.C,R1*
G36*
X135983505Y-77295204D02*
X136007773Y-77298804D01*
X136031572Y-77304765D01*
X136054671Y-77313030D01*
X136076850Y-77323520D01*
X136097893Y-77336132D01*
X136117599Y-77350747D01*
X136135777Y-77367223D01*
X136152253Y-77385401D01*
X136166868Y-77405107D01*
X136179480Y-77426150D01*
X136189970Y-77448329D01*
X136198235Y-77471428D01*
X136204196Y-77495227D01*
X136207796Y-77519495D01*
X136209000Y-77543999D01*
X136209000Y-78194001D01*
X136207796Y-78218505D01*
X136204196Y-78242773D01*
X136198235Y-78266572D01*
X136189970Y-78289671D01*
X136179480Y-78311850D01*
X136166868Y-78332893D01*
X136152253Y-78352599D01*
X136135777Y-78370777D01*
X136117599Y-78387253D01*
X136097893Y-78401868D01*
X136076850Y-78414480D01*
X136054671Y-78424970D01*
X136031572Y-78433235D01*
X136007773Y-78439196D01*
X135983505Y-78442796D01*
X135959001Y-78444000D01*
X135058999Y-78444000D01*
X135034495Y-78442796D01*
X135010227Y-78439196D01*
X134986428Y-78433235D01*
X134963329Y-78424970D01*
X134941150Y-78414480D01*
X134920107Y-78401868D01*
X134900401Y-78387253D01*
X134882223Y-78370777D01*
X134865747Y-78352599D01*
X134851132Y-78332893D01*
X134838520Y-78311850D01*
X134828030Y-78289671D01*
X134819765Y-78266572D01*
X134813804Y-78242773D01*
X134810204Y-78218505D01*
X134809000Y-78194001D01*
X134809000Y-77543999D01*
X134810204Y-77519495D01*
X134813804Y-77495227D01*
X134819765Y-77471428D01*
X134828030Y-77448329D01*
X134838520Y-77426150D01*
X134851132Y-77405107D01*
X134865747Y-77385401D01*
X134882223Y-77367223D01*
X134900401Y-77350747D01*
X134920107Y-77336132D01*
X134941150Y-77323520D01*
X134963329Y-77313030D01*
X134986428Y-77304765D01*
X135010227Y-77298804D01*
X135034495Y-77295204D01*
X135058999Y-77294000D01*
X135959001Y-77294000D01*
X135983505Y-77295204D01*
X135983505Y-77295204D01*
G37*
D14*
G04 #@! TD*
G04 #@! TO.P,R1,1*
G04 #@! TO.N,/3V3*
X135509000Y-77869000D03*
D13*
G04 #@! TO.N,/OUT1*
G04 #@! TO.C,R2*
G36*
X169259505Y-52641204D02*
X169283773Y-52644804D01*
X169307572Y-52650765D01*
X169330671Y-52659030D01*
X169352850Y-52669520D01*
X169373893Y-52682132D01*
X169393599Y-52696747D01*
X169411777Y-52713223D01*
X169428253Y-52731401D01*
X169442868Y-52751107D01*
X169455480Y-52772150D01*
X169465970Y-52794329D01*
X169474235Y-52817428D01*
X169480196Y-52841227D01*
X169483796Y-52865495D01*
X169485000Y-52889999D01*
X169485000Y-53790001D01*
X169483796Y-53814505D01*
X169480196Y-53838773D01*
X169474235Y-53862572D01*
X169465970Y-53885671D01*
X169455480Y-53907850D01*
X169442868Y-53928893D01*
X169428253Y-53948599D01*
X169411777Y-53966777D01*
X169393599Y-53983253D01*
X169373893Y-53997868D01*
X169352850Y-54010480D01*
X169330671Y-54020970D01*
X169307572Y-54029235D01*
X169283773Y-54035196D01*
X169259505Y-54038796D01*
X169235001Y-54040000D01*
X168584999Y-54040000D01*
X168560495Y-54038796D01*
X168536227Y-54035196D01*
X168512428Y-54029235D01*
X168489329Y-54020970D01*
X168467150Y-54010480D01*
X168446107Y-53997868D01*
X168426401Y-53983253D01*
X168408223Y-53966777D01*
X168391747Y-53948599D01*
X168377132Y-53928893D01*
X168364520Y-53907850D01*
X168354030Y-53885671D01*
X168345765Y-53862572D01*
X168339804Y-53838773D01*
X168336204Y-53814505D01*
X168335000Y-53790001D01*
X168335000Y-52889999D01*
X168336204Y-52865495D01*
X168339804Y-52841227D01*
X168345765Y-52817428D01*
X168354030Y-52794329D01*
X168364520Y-52772150D01*
X168377132Y-52751107D01*
X168391747Y-52731401D01*
X168408223Y-52713223D01*
X168426401Y-52696747D01*
X168446107Y-52682132D01*
X168467150Y-52669520D01*
X168489329Y-52659030D01*
X168512428Y-52650765D01*
X168536227Y-52644804D01*
X168560495Y-52641204D01*
X168584999Y-52640000D01*
X169235001Y-52640000D01*
X169259505Y-52641204D01*
X169259505Y-52641204D01*
G37*
D14*
G04 #@! TD*
G04 #@! TO.P,R2,2*
G04 #@! TO.N,/OUT1*
X168910000Y-53340000D03*
D13*
G04 #@! TO.N,Net-(D1-Pad1)*
G04 #@! TO.C,R2*
G36*
X167209505Y-52641204D02*
X167233773Y-52644804D01*
X167257572Y-52650765D01*
X167280671Y-52659030D01*
X167302850Y-52669520D01*
X167323893Y-52682132D01*
X167343599Y-52696747D01*
X167361777Y-52713223D01*
X167378253Y-52731401D01*
X167392868Y-52751107D01*
X167405480Y-52772150D01*
X167415970Y-52794329D01*
X167424235Y-52817428D01*
X167430196Y-52841227D01*
X167433796Y-52865495D01*
X167435000Y-52889999D01*
X167435000Y-53790001D01*
X167433796Y-53814505D01*
X167430196Y-53838773D01*
X167424235Y-53862572D01*
X167415970Y-53885671D01*
X167405480Y-53907850D01*
X167392868Y-53928893D01*
X167378253Y-53948599D01*
X167361777Y-53966777D01*
X167343599Y-53983253D01*
X167323893Y-53997868D01*
X167302850Y-54010480D01*
X167280671Y-54020970D01*
X167257572Y-54029235D01*
X167233773Y-54035196D01*
X167209505Y-54038796D01*
X167185001Y-54040000D01*
X166534999Y-54040000D01*
X166510495Y-54038796D01*
X166486227Y-54035196D01*
X166462428Y-54029235D01*
X166439329Y-54020970D01*
X166417150Y-54010480D01*
X166396107Y-53997868D01*
X166376401Y-53983253D01*
X166358223Y-53966777D01*
X166341747Y-53948599D01*
X166327132Y-53928893D01*
X166314520Y-53907850D01*
X166304030Y-53885671D01*
X166295765Y-53862572D01*
X166289804Y-53838773D01*
X166286204Y-53814505D01*
X166285000Y-53790001D01*
X166285000Y-52889999D01*
X166286204Y-52865495D01*
X166289804Y-52841227D01*
X166295765Y-52817428D01*
X166304030Y-52794329D01*
X166314520Y-52772150D01*
X166327132Y-52751107D01*
X166341747Y-52731401D01*
X166358223Y-52713223D01*
X166376401Y-52696747D01*
X166396107Y-52682132D01*
X166417150Y-52669520D01*
X166439329Y-52659030D01*
X166462428Y-52650765D01*
X166486227Y-52644804D01*
X166510495Y-52641204D01*
X166534999Y-52640000D01*
X167185001Y-52640000D01*
X167209505Y-52641204D01*
X167209505Y-52641204D01*
G37*
D14*
G04 #@! TD*
G04 #@! TO.P,R2,1*
G04 #@! TO.N,Net-(D1-Pad1)*
X166860000Y-53340000D03*
D13*
G04 #@! TO.N,Net-(D2-Pad1)*
G04 #@! TO.C,R3*
G36*
X167352505Y-85641204D02*
X167376773Y-85644804D01*
X167400572Y-85650765D01*
X167423671Y-85659030D01*
X167445850Y-85669520D01*
X167466893Y-85682132D01*
X167486599Y-85696747D01*
X167504777Y-85713223D01*
X167521253Y-85731401D01*
X167535868Y-85751107D01*
X167548480Y-85772150D01*
X167558970Y-85794329D01*
X167567235Y-85817428D01*
X167573196Y-85841227D01*
X167576796Y-85865495D01*
X167578000Y-85889999D01*
X167578000Y-86540001D01*
X167576796Y-86564505D01*
X167573196Y-86588773D01*
X167567235Y-86612572D01*
X167558970Y-86635671D01*
X167548480Y-86657850D01*
X167535868Y-86678893D01*
X167521253Y-86698599D01*
X167504777Y-86716777D01*
X167486599Y-86733253D01*
X167466893Y-86747868D01*
X167445850Y-86760480D01*
X167423671Y-86770970D01*
X167400572Y-86779235D01*
X167376773Y-86785196D01*
X167352505Y-86788796D01*
X167328001Y-86790000D01*
X166427999Y-86790000D01*
X166403495Y-86788796D01*
X166379227Y-86785196D01*
X166355428Y-86779235D01*
X166332329Y-86770970D01*
X166310150Y-86760480D01*
X166289107Y-86747868D01*
X166269401Y-86733253D01*
X166251223Y-86716777D01*
X166234747Y-86698599D01*
X166220132Y-86678893D01*
X166207520Y-86657850D01*
X166197030Y-86635671D01*
X166188765Y-86612572D01*
X166182804Y-86588773D01*
X166179204Y-86564505D01*
X166178000Y-86540001D01*
X166178000Y-85889999D01*
X166179204Y-85865495D01*
X166182804Y-85841227D01*
X166188765Y-85817428D01*
X166197030Y-85794329D01*
X166207520Y-85772150D01*
X166220132Y-85751107D01*
X166234747Y-85731401D01*
X166251223Y-85713223D01*
X166269401Y-85696747D01*
X166289107Y-85682132D01*
X166310150Y-85669520D01*
X166332329Y-85659030D01*
X166355428Y-85650765D01*
X166379227Y-85644804D01*
X166403495Y-85641204D01*
X166427999Y-85640000D01*
X167328001Y-85640000D01*
X167352505Y-85641204D01*
X167352505Y-85641204D01*
G37*
D14*
G04 #@! TD*
G04 #@! TO.P,R3,1*
G04 #@! TO.N,Net-(D2-Pad1)*
X166878000Y-86215000D03*
D13*
G04 #@! TO.N,/OUT3*
G04 #@! TO.C,R3*
G36*
X167352505Y-87691204D02*
X167376773Y-87694804D01*
X167400572Y-87700765D01*
X167423671Y-87709030D01*
X167445850Y-87719520D01*
X167466893Y-87732132D01*
X167486599Y-87746747D01*
X167504777Y-87763223D01*
X167521253Y-87781401D01*
X167535868Y-87801107D01*
X167548480Y-87822150D01*
X167558970Y-87844329D01*
X167567235Y-87867428D01*
X167573196Y-87891227D01*
X167576796Y-87915495D01*
X167578000Y-87939999D01*
X167578000Y-88590001D01*
X167576796Y-88614505D01*
X167573196Y-88638773D01*
X167567235Y-88662572D01*
X167558970Y-88685671D01*
X167548480Y-88707850D01*
X167535868Y-88728893D01*
X167521253Y-88748599D01*
X167504777Y-88766777D01*
X167486599Y-88783253D01*
X167466893Y-88797868D01*
X167445850Y-88810480D01*
X167423671Y-88820970D01*
X167400572Y-88829235D01*
X167376773Y-88835196D01*
X167352505Y-88838796D01*
X167328001Y-88840000D01*
X166427999Y-88840000D01*
X166403495Y-88838796D01*
X166379227Y-88835196D01*
X166355428Y-88829235D01*
X166332329Y-88820970D01*
X166310150Y-88810480D01*
X166289107Y-88797868D01*
X166269401Y-88783253D01*
X166251223Y-88766777D01*
X166234747Y-88748599D01*
X166220132Y-88728893D01*
X166207520Y-88707850D01*
X166197030Y-88685671D01*
X166188765Y-88662572D01*
X166182804Y-88638773D01*
X166179204Y-88614505D01*
X166178000Y-88590001D01*
X166178000Y-87939999D01*
X166179204Y-87915495D01*
X166182804Y-87891227D01*
X166188765Y-87867428D01*
X166197030Y-87844329D01*
X166207520Y-87822150D01*
X166220132Y-87801107D01*
X166234747Y-87781401D01*
X166251223Y-87763223D01*
X166269401Y-87746747D01*
X166289107Y-87732132D01*
X166310150Y-87719520D01*
X166332329Y-87709030D01*
X166355428Y-87700765D01*
X166379227Y-87694804D01*
X166403495Y-87691204D01*
X166427999Y-87690000D01*
X167328001Y-87690000D01*
X167352505Y-87691204D01*
X167352505Y-87691204D01*
G37*
D14*
G04 #@! TD*
G04 #@! TO.P,R3,2*
G04 #@! TO.N,/OUT3*
X166878000Y-88265000D03*
D13*
G04 #@! TO.N,Net-(D3-Pad1)*
G04 #@! TO.C,R4*
G36*
X167606505Y-64450204D02*
X167630773Y-64453804D01*
X167654572Y-64459765D01*
X167677671Y-64468030D01*
X167699850Y-64478520D01*
X167720893Y-64491132D01*
X167740599Y-64505747D01*
X167758777Y-64522223D01*
X167775253Y-64540401D01*
X167789868Y-64560107D01*
X167802480Y-64581150D01*
X167812970Y-64603329D01*
X167821235Y-64626428D01*
X167827196Y-64650227D01*
X167830796Y-64674495D01*
X167832000Y-64698999D01*
X167832000Y-65349001D01*
X167830796Y-65373505D01*
X167827196Y-65397773D01*
X167821235Y-65421572D01*
X167812970Y-65444671D01*
X167802480Y-65466850D01*
X167789868Y-65487893D01*
X167775253Y-65507599D01*
X167758777Y-65525777D01*
X167740599Y-65542253D01*
X167720893Y-65556868D01*
X167699850Y-65569480D01*
X167677671Y-65579970D01*
X167654572Y-65588235D01*
X167630773Y-65594196D01*
X167606505Y-65597796D01*
X167582001Y-65599000D01*
X166681999Y-65599000D01*
X166657495Y-65597796D01*
X166633227Y-65594196D01*
X166609428Y-65588235D01*
X166586329Y-65579970D01*
X166564150Y-65569480D01*
X166543107Y-65556868D01*
X166523401Y-65542253D01*
X166505223Y-65525777D01*
X166488747Y-65507599D01*
X166474132Y-65487893D01*
X166461520Y-65466850D01*
X166451030Y-65444671D01*
X166442765Y-65421572D01*
X166436804Y-65397773D01*
X166433204Y-65373505D01*
X166432000Y-65349001D01*
X166432000Y-64698999D01*
X166433204Y-64674495D01*
X166436804Y-64650227D01*
X166442765Y-64626428D01*
X166451030Y-64603329D01*
X166461520Y-64581150D01*
X166474132Y-64560107D01*
X166488747Y-64540401D01*
X166505223Y-64522223D01*
X166523401Y-64505747D01*
X166543107Y-64491132D01*
X166564150Y-64478520D01*
X166586329Y-64468030D01*
X166609428Y-64459765D01*
X166633227Y-64453804D01*
X166657495Y-64450204D01*
X166681999Y-64449000D01*
X167582001Y-64449000D01*
X167606505Y-64450204D01*
X167606505Y-64450204D01*
G37*
D14*
G04 #@! TD*
G04 #@! TO.P,R4,1*
G04 #@! TO.N,Net-(D3-Pad1)*
X167132000Y-65024000D03*
D13*
G04 #@! TO.N,/OUT2*
G04 #@! TO.C,R4*
G36*
X167606505Y-62400204D02*
X167630773Y-62403804D01*
X167654572Y-62409765D01*
X167677671Y-62418030D01*
X167699850Y-62428520D01*
X167720893Y-62441132D01*
X167740599Y-62455747D01*
X167758777Y-62472223D01*
X167775253Y-62490401D01*
X167789868Y-62510107D01*
X167802480Y-62531150D01*
X167812970Y-62553329D01*
X167821235Y-62576428D01*
X167827196Y-62600227D01*
X167830796Y-62624495D01*
X167832000Y-62648999D01*
X167832000Y-63299001D01*
X167830796Y-63323505D01*
X167827196Y-63347773D01*
X167821235Y-63371572D01*
X167812970Y-63394671D01*
X167802480Y-63416850D01*
X167789868Y-63437893D01*
X167775253Y-63457599D01*
X167758777Y-63475777D01*
X167740599Y-63492253D01*
X167720893Y-63506868D01*
X167699850Y-63519480D01*
X167677671Y-63529970D01*
X167654572Y-63538235D01*
X167630773Y-63544196D01*
X167606505Y-63547796D01*
X167582001Y-63549000D01*
X166681999Y-63549000D01*
X166657495Y-63547796D01*
X166633227Y-63544196D01*
X166609428Y-63538235D01*
X166586329Y-63529970D01*
X166564150Y-63519480D01*
X166543107Y-63506868D01*
X166523401Y-63492253D01*
X166505223Y-63475777D01*
X166488747Y-63457599D01*
X166474132Y-63437893D01*
X166461520Y-63416850D01*
X166451030Y-63394671D01*
X166442765Y-63371572D01*
X166436804Y-63347773D01*
X166433204Y-63323505D01*
X166432000Y-63299001D01*
X166432000Y-62648999D01*
X166433204Y-62624495D01*
X166436804Y-62600227D01*
X166442765Y-62576428D01*
X166451030Y-62553329D01*
X166461520Y-62531150D01*
X166474132Y-62510107D01*
X166488747Y-62490401D01*
X166505223Y-62472223D01*
X166523401Y-62455747D01*
X166543107Y-62441132D01*
X166564150Y-62428520D01*
X166586329Y-62418030D01*
X166609428Y-62409765D01*
X166633227Y-62403804D01*
X166657495Y-62400204D01*
X166681999Y-62399000D01*
X167582001Y-62399000D01*
X167606505Y-62400204D01*
X167606505Y-62400204D01*
G37*
D14*
G04 #@! TD*
G04 #@! TO.P,R4,2*
G04 #@! TO.N,/OUT2*
X167132000Y-62974000D03*
D18*
G04 #@! TO.P,SW1,1*
G04 #@! TO.N,/GND*
X141310000Y-58960000D03*
X135550000Y-58960000D03*
G04 #@! TO.P,SW1,2*
G04 #@! TO.N,Net-(R1-Pad2)*
X135550000Y-62960000D03*
X141310000Y-62960000D03*
G04 #@! TD*
D19*
G04 #@! TO.P,U2,2*
G04 #@! TO.N,/3V3*
X153035000Y-53315000D03*
D20*
X153035000Y-47015000D03*
G04 #@! TO.P,U2,3*
G04 #@! TO.N,/5V*
X150735000Y-47015000D03*
G04 #@! TO.P,U2,1*
G04 #@! TO.N,/GND*
X155335000Y-47015000D03*
G04 #@! TD*
D21*
G04 #@! TO.P,U4,1*
G04 #@! TO.N,/L1*
X148462000Y-94361000D03*
G04 #@! TO.P,U4,2*
G04 #@! TO.N,/L2*
X148462000Y-95631000D03*
G04 #@! TO.P,U4,3*
G04 #@! TO.N,/L3*
X148462000Y-96901000D03*
G04 #@! TO.P,U4,4*
G04 #@! TO.N,/L4*
X148462000Y-98171000D03*
G04 #@! TO.P,U4,5*
G04 #@! TO.N,/L5*
X148462000Y-99441000D03*
G04 #@! TO.P,U4,6*
G04 #@! TO.N,/L6*
X148462000Y-100711000D03*
G04 #@! TO.P,U4,7*
G04 #@! TO.N,/L7*
X148462000Y-101981000D03*
G04 #@! TO.P,U4,8*
G04 #@! TO.N,/L8*
X148462000Y-103251000D03*
G04 #@! TO.P,U4,9*
G04 #@! TO.N,/GND*
X148462000Y-104521000D03*
G04 #@! TO.P,U4,10*
G04 #@! TO.N,/5V*
X157862000Y-104521000D03*
G04 #@! TO.P,U4,11*
G04 #@! TO.N,Net-(U4-Pad11)*
X157862000Y-103251000D03*
G04 #@! TO.P,U4,12*
G04 #@! TO.N,Net-(U4-Pad12)*
X157862000Y-101981000D03*
G04 #@! TO.P,U4,13*
G04 #@! TO.N,Net-(U4-Pad13)*
X157862000Y-100711000D03*
G04 #@! TO.P,U4,14*
G04 #@! TO.N,Net-(U4-Pad14)*
X157862000Y-99441000D03*
G04 #@! TO.P,U4,15*
G04 #@! TO.N,Net-(U4-Pad15)*
X157862000Y-98171000D03*
G04 #@! TO.P,U4,16*
G04 #@! TO.N,/OUT3*
X157862000Y-96901000D03*
G04 #@! TO.P,U4,17*
G04 #@! TO.N,/OUT2*
X157862000Y-95631000D03*
G04 #@! TO.P,U4,18*
G04 #@! TO.N,/OUT1*
X157862000Y-94361000D03*
G04 #@! TD*
D13*
G04 #@! TO.N,/5V*
G04 #@! TO.C,C1*
G36*
X145889505Y-47051204D02*
X145913773Y-47054804D01*
X145937572Y-47060765D01*
X145960671Y-47069030D01*
X145982850Y-47079520D01*
X146003893Y-47092132D01*
X146023599Y-47106747D01*
X146041777Y-47123223D01*
X146058253Y-47141401D01*
X146072868Y-47161107D01*
X146085480Y-47182150D01*
X146095970Y-47204329D01*
X146104235Y-47227428D01*
X146110196Y-47251227D01*
X146113796Y-47275495D01*
X146115000Y-47299999D01*
X146115000Y-47950001D01*
X146113796Y-47974505D01*
X146110196Y-47998773D01*
X146104235Y-48022572D01*
X146095970Y-48045671D01*
X146085480Y-48067850D01*
X146072868Y-48088893D01*
X146058253Y-48108599D01*
X146041777Y-48126777D01*
X146023599Y-48143253D01*
X146003893Y-48157868D01*
X145982850Y-48170480D01*
X145960671Y-48180970D01*
X145937572Y-48189235D01*
X145913773Y-48195196D01*
X145889505Y-48198796D01*
X145865001Y-48200000D01*
X144964999Y-48200000D01*
X144940495Y-48198796D01*
X144916227Y-48195196D01*
X144892428Y-48189235D01*
X144869329Y-48180970D01*
X144847150Y-48170480D01*
X144826107Y-48157868D01*
X144806401Y-48143253D01*
X144788223Y-48126777D01*
X144771747Y-48108599D01*
X144757132Y-48088893D01*
X144744520Y-48067850D01*
X144734030Y-48045671D01*
X144725765Y-48022572D01*
X144719804Y-47998773D01*
X144716204Y-47974505D01*
X144715000Y-47950001D01*
X144715000Y-47299999D01*
X144716204Y-47275495D01*
X144719804Y-47251227D01*
X144725765Y-47227428D01*
X144734030Y-47204329D01*
X144744520Y-47182150D01*
X144757132Y-47161107D01*
X144771747Y-47141401D01*
X144788223Y-47123223D01*
X144806401Y-47106747D01*
X144826107Y-47092132D01*
X144847150Y-47079520D01*
X144869329Y-47069030D01*
X144892428Y-47060765D01*
X144916227Y-47054804D01*
X144940495Y-47051204D01*
X144964999Y-47050000D01*
X145865001Y-47050000D01*
X145889505Y-47051204D01*
X145889505Y-47051204D01*
G37*
D14*
G04 #@! TD*
G04 #@! TO.P,C1,1*
G04 #@! TO.N,/5V*
X145415000Y-47625000D03*
D13*
G04 #@! TO.N,/GND*
G04 #@! TO.C,C1*
G36*
X145889505Y-49101204D02*
X145913773Y-49104804D01*
X145937572Y-49110765D01*
X145960671Y-49119030D01*
X145982850Y-49129520D01*
X146003893Y-49142132D01*
X146023599Y-49156747D01*
X146041777Y-49173223D01*
X146058253Y-49191401D01*
X146072868Y-49211107D01*
X146085480Y-49232150D01*
X146095970Y-49254329D01*
X146104235Y-49277428D01*
X146110196Y-49301227D01*
X146113796Y-49325495D01*
X146115000Y-49349999D01*
X146115000Y-50000001D01*
X146113796Y-50024505D01*
X146110196Y-50048773D01*
X146104235Y-50072572D01*
X146095970Y-50095671D01*
X146085480Y-50117850D01*
X146072868Y-50138893D01*
X146058253Y-50158599D01*
X146041777Y-50176777D01*
X146023599Y-50193253D01*
X146003893Y-50207868D01*
X145982850Y-50220480D01*
X145960671Y-50230970D01*
X145937572Y-50239235D01*
X145913773Y-50245196D01*
X145889505Y-50248796D01*
X145865001Y-50250000D01*
X144964999Y-50250000D01*
X144940495Y-50248796D01*
X144916227Y-50245196D01*
X144892428Y-50239235D01*
X144869329Y-50230970D01*
X144847150Y-50220480D01*
X144826107Y-50207868D01*
X144806401Y-50193253D01*
X144788223Y-50176777D01*
X144771747Y-50158599D01*
X144757132Y-50138893D01*
X144744520Y-50117850D01*
X144734030Y-50095671D01*
X144725765Y-50072572D01*
X144719804Y-50048773D01*
X144716204Y-50024505D01*
X144715000Y-50000001D01*
X144715000Y-49349999D01*
X144716204Y-49325495D01*
X144719804Y-49301227D01*
X144725765Y-49277428D01*
X144734030Y-49254329D01*
X144744520Y-49232150D01*
X144757132Y-49211107D01*
X144771747Y-49191401D01*
X144788223Y-49173223D01*
X144806401Y-49156747D01*
X144826107Y-49142132D01*
X144847150Y-49129520D01*
X144869329Y-49119030D01*
X144892428Y-49110765D01*
X144916227Y-49104804D01*
X144940495Y-49101204D01*
X144964999Y-49100000D01*
X145865001Y-49100000D01*
X145889505Y-49101204D01*
X145889505Y-49101204D01*
G37*
D14*
G04 #@! TD*
G04 #@! TO.P,C1,2*
G04 #@! TO.N,/GND*
X145415000Y-49675000D03*
D13*
G04 #@! TO.N,/GND*
G04 #@! TO.C,C2*
G36*
X135983505Y-87310204D02*
X136007773Y-87313804D01*
X136031572Y-87319765D01*
X136054671Y-87328030D01*
X136076850Y-87338520D01*
X136097893Y-87351132D01*
X136117599Y-87365747D01*
X136135777Y-87382223D01*
X136152253Y-87400401D01*
X136166868Y-87420107D01*
X136179480Y-87441150D01*
X136189970Y-87463329D01*
X136198235Y-87486428D01*
X136204196Y-87510227D01*
X136207796Y-87534495D01*
X136209000Y-87558999D01*
X136209000Y-88209001D01*
X136207796Y-88233505D01*
X136204196Y-88257773D01*
X136198235Y-88281572D01*
X136189970Y-88304671D01*
X136179480Y-88326850D01*
X136166868Y-88347893D01*
X136152253Y-88367599D01*
X136135777Y-88385777D01*
X136117599Y-88402253D01*
X136097893Y-88416868D01*
X136076850Y-88429480D01*
X136054671Y-88439970D01*
X136031572Y-88448235D01*
X136007773Y-88454196D01*
X135983505Y-88457796D01*
X135959001Y-88459000D01*
X135058999Y-88459000D01*
X135034495Y-88457796D01*
X135010227Y-88454196D01*
X134986428Y-88448235D01*
X134963329Y-88439970D01*
X134941150Y-88429480D01*
X134920107Y-88416868D01*
X134900401Y-88402253D01*
X134882223Y-88385777D01*
X134865747Y-88367599D01*
X134851132Y-88347893D01*
X134838520Y-88326850D01*
X134828030Y-88304671D01*
X134819765Y-88281572D01*
X134813804Y-88257773D01*
X134810204Y-88233505D01*
X134809000Y-88209001D01*
X134809000Y-87558999D01*
X134810204Y-87534495D01*
X134813804Y-87510227D01*
X134819765Y-87486428D01*
X134828030Y-87463329D01*
X134838520Y-87441150D01*
X134851132Y-87420107D01*
X134865747Y-87400401D01*
X134882223Y-87382223D01*
X134900401Y-87365747D01*
X134920107Y-87351132D01*
X134941150Y-87338520D01*
X134963329Y-87328030D01*
X134986428Y-87319765D01*
X135010227Y-87313804D01*
X135034495Y-87310204D01*
X135058999Y-87309000D01*
X135959001Y-87309000D01*
X135983505Y-87310204D01*
X135983505Y-87310204D01*
G37*
D14*
G04 #@! TD*
G04 #@! TO.P,C2,2*
G04 #@! TO.N,/GND*
X135509000Y-87884000D03*
D13*
G04 #@! TO.N,/3V3*
G04 #@! TO.C,C2*
G36*
X135983505Y-89360204D02*
X136007773Y-89363804D01*
X136031572Y-89369765D01*
X136054671Y-89378030D01*
X136076850Y-89388520D01*
X136097893Y-89401132D01*
X136117599Y-89415747D01*
X136135777Y-89432223D01*
X136152253Y-89450401D01*
X136166868Y-89470107D01*
X136179480Y-89491150D01*
X136189970Y-89513329D01*
X136198235Y-89536428D01*
X136204196Y-89560227D01*
X136207796Y-89584495D01*
X136209000Y-89608999D01*
X136209000Y-90259001D01*
X136207796Y-90283505D01*
X136204196Y-90307773D01*
X136198235Y-90331572D01*
X136189970Y-90354671D01*
X136179480Y-90376850D01*
X136166868Y-90397893D01*
X136152253Y-90417599D01*
X136135777Y-90435777D01*
X136117599Y-90452253D01*
X136097893Y-90466868D01*
X136076850Y-90479480D01*
X136054671Y-90489970D01*
X136031572Y-90498235D01*
X136007773Y-90504196D01*
X135983505Y-90507796D01*
X135959001Y-90509000D01*
X135058999Y-90509000D01*
X135034495Y-90507796D01*
X135010227Y-90504196D01*
X134986428Y-90498235D01*
X134963329Y-90489970D01*
X134941150Y-90479480D01*
X134920107Y-90466868D01*
X134900401Y-90452253D01*
X134882223Y-90435777D01*
X134865747Y-90417599D01*
X134851132Y-90397893D01*
X134838520Y-90376850D01*
X134828030Y-90354671D01*
X134819765Y-90331572D01*
X134813804Y-90307773D01*
X134810204Y-90283505D01*
X134809000Y-90259001D01*
X134809000Y-89608999D01*
X134810204Y-89584495D01*
X134813804Y-89560227D01*
X134819765Y-89536428D01*
X134828030Y-89513329D01*
X134838520Y-89491150D01*
X134851132Y-89470107D01*
X134865747Y-89450401D01*
X134882223Y-89432223D01*
X134900401Y-89415747D01*
X134920107Y-89401132D01*
X134941150Y-89388520D01*
X134963329Y-89378030D01*
X134986428Y-89369765D01*
X135010227Y-89363804D01*
X135034495Y-89360204D01*
X135058999Y-89359000D01*
X135959001Y-89359000D01*
X135983505Y-89360204D01*
X135983505Y-89360204D01*
G37*
D14*
G04 #@! TD*
G04 #@! TO.P,C2,1*
G04 #@! TO.N,/3V3*
X135509000Y-89934000D03*
D22*
G04 #@! TO.P,K2,2*
G04 #@! TO.N,/OUT3*
X173273000Y-89616000D03*
D16*
G04 #@! TO.P,K2,3*
G04 #@! TO.N,/24-*
X185473000Y-89616000D03*
G04 #@! TO.P,K2,4*
G04 #@! TO.N,/24+*
X185523000Y-77566000D03*
D22*
G04 #@! TO.P,K2,5*
G04 #@! TO.N,/5V*
X173273000Y-77616000D03*
D16*
G04 #@! TO.P,K2,1*
G04 #@! TO.N,Net-(J3-Pad1)*
X171323000Y-83566000D03*
G04 #@! TD*
G04 #@! TO.P,K3,1*
G04 #@! TO.N,Net-(J3-Pad2)*
X171323000Y-67183000D03*
D22*
G04 #@! TO.P,K3,5*
G04 #@! TO.N,/OUT2*
X173273000Y-61233000D03*
D16*
G04 #@! TO.P,K3,4*
G04 #@! TO.N,/24-*
X185523000Y-61183000D03*
G04 #@! TO.P,K3,3*
G04 #@! TO.N,/24+*
X185473000Y-73233000D03*
D22*
G04 #@! TO.P,K3,2*
G04 #@! TO.N,/5V*
X173273000Y-73233000D03*
G04 #@! TD*
D23*
G04 #@! TO.P,J5,1*
G04 #@! TO.N,/3V3*
X158750000Y-73279000D03*
D24*
G04 #@! TO.P,J5,2*
G04 #@! TO.N,/TXD*
X158750000Y-75819000D03*
G04 #@! TO.P,J5,3*
G04 #@! TO.N,/RXD*
X158750000Y-78359000D03*
G04 #@! TO.P,J5,4*
G04 #@! TO.N,/GND*
X158750000Y-80899000D03*
G04 #@! TD*
D13*
G04 #@! TO.N,/3V3*
G04 #@! TO.C,R5*
G36*
X158349505Y-61301204D02*
X158373773Y-61304804D01*
X158397572Y-61310765D01*
X158420671Y-61319030D01*
X158442850Y-61329520D01*
X158463893Y-61342132D01*
X158483599Y-61356747D01*
X158501777Y-61373223D01*
X158518253Y-61391401D01*
X158532868Y-61411107D01*
X158545480Y-61432150D01*
X158555970Y-61454329D01*
X158564235Y-61477428D01*
X158570196Y-61501227D01*
X158573796Y-61525495D01*
X158575000Y-61549999D01*
X158575000Y-62450001D01*
X158573796Y-62474505D01*
X158570196Y-62498773D01*
X158564235Y-62522572D01*
X158555970Y-62545671D01*
X158545480Y-62567850D01*
X158532868Y-62588893D01*
X158518253Y-62608599D01*
X158501777Y-62626777D01*
X158483599Y-62643253D01*
X158463893Y-62657868D01*
X158442850Y-62670480D01*
X158420671Y-62680970D01*
X158397572Y-62689235D01*
X158373773Y-62695196D01*
X158349505Y-62698796D01*
X158325001Y-62700000D01*
X157674999Y-62700000D01*
X157650495Y-62698796D01*
X157626227Y-62695196D01*
X157602428Y-62689235D01*
X157579329Y-62680970D01*
X157557150Y-62670480D01*
X157536107Y-62657868D01*
X157516401Y-62643253D01*
X157498223Y-62626777D01*
X157481747Y-62608599D01*
X157467132Y-62588893D01*
X157454520Y-62567850D01*
X157444030Y-62545671D01*
X157435765Y-62522572D01*
X157429804Y-62498773D01*
X157426204Y-62474505D01*
X157425000Y-62450001D01*
X157425000Y-61549999D01*
X157426204Y-61525495D01*
X157429804Y-61501227D01*
X157435765Y-61477428D01*
X157444030Y-61454329D01*
X157454520Y-61432150D01*
X157467132Y-61411107D01*
X157481747Y-61391401D01*
X157498223Y-61373223D01*
X157516401Y-61356747D01*
X157536107Y-61342132D01*
X157557150Y-61329520D01*
X157579329Y-61319030D01*
X157602428Y-61310765D01*
X157626227Y-61304804D01*
X157650495Y-61301204D01*
X157674999Y-61300000D01*
X158325001Y-61300000D01*
X158349505Y-61301204D01*
X158349505Y-61301204D01*
G37*
D14*
G04 #@! TD*
G04 #@! TO.P,R5,1*
G04 #@! TO.N,/3V3*
X158000000Y-62000000D03*
D13*
G04 #@! TO.N,/GPIO0*
G04 #@! TO.C,R5*
G36*
X156299505Y-61301204D02*
X156323773Y-61304804D01*
X156347572Y-61310765D01*
X156370671Y-61319030D01*
X156392850Y-61329520D01*
X156413893Y-61342132D01*
X156433599Y-61356747D01*
X156451777Y-61373223D01*
X156468253Y-61391401D01*
X156482868Y-61411107D01*
X156495480Y-61432150D01*
X156505970Y-61454329D01*
X156514235Y-61477428D01*
X156520196Y-61501227D01*
X156523796Y-61525495D01*
X156525000Y-61549999D01*
X156525000Y-62450001D01*
X156523796Y-62474505D01*
X156520196Y-62498773D01*
X156514235Y-62522572D01*
X156505970Y-62545671D01*
X156495480Y-62567850D01*
X156482868Y-62588893D01*
X156468253Y-62608599D01*
X156451777Y-62626777D01*
X156433599Y-62643253D01*
X156413893Y-62657868D01*
X156392850Y-62670480D01*
X156370671Y-62680970D01*
X156347572Y-62689235D01*
X156323773Y-62695196D01*
X156299505Y-62698796D01*
X156275001Y-62700000D01*
X155624999Y-62700000D01*
X155600495Y-62698796D01*
X155576227Y-62695196D01*
X155552428Y-62689235D01*
X155529329Y-62680970D01*
X155507150Y-62670480D01*
X155486107Y-62657868D01*
X155466401Y-62643253D01*
X155448223Y-62626777D01*
X155431747Y-62608599D01*
X155417132Y-62588893D01*
X155404520Y-62567850D01*
X155394030Y-62545671D01*
X155385765Y-62522572D01*
X155379804Y-62498773D01*
X155376204Y-62474505D01*
X155375000Y-62450001D01*
X155375000Y-61549999D01*
X155376204Y-61525495D01*
X155379804Y-61501227D01*
X155385765Y-61477428D01*
X155394030Y-61454329D01*
X155404520Y-61432150D01*
X155417132Y-61411107D01*
X155431747Y-61391401D01*
X155448223Y-61373223D01*
X155466401Y-61356747D01*
X155486107Y-61342132D01*
X155507150Y-61329520D01*
X155529329Y-61319030D01*
X155552428Y-61310765D01*
X155576227Y-61304804D01*
X155600495Y-61301204D01*
X155624999Y-61300000D01*
X156275001Y-61300000D01*
X156299505Y-61301204D01*
X156299505Y-61301204D01*
G37*
D14*
G04 #@! TD*
G04 #@! TO.P,R5,2*
G04 #@! TO.N,/GPIO0*
X155950000Y-62000000D03*
D18*
G04 #@! TO.P,SW2,1*
G04 #@! TO.N,/GND*
X152000000Y-59000000D03*
X146240000Y-59000000D03*
G04 #@! TO.P,SW2,2*
G04 #@! TO.N,/GPIO0*
X146240000Y-63000000D03*
X152000000Y-63000000D03*
G04 #@! TD*
D25*
G04 #@! TO.N,/GND*
X160020000Y-50165000D03*
G04 #@! TO.N,/3V3*
X148082000Y-85852000D03*
G04 #@! TO.N,/SRCLK*
X141478000Y-85852000D03*
X139446000Y-97282000D03*
G04 #@! TO.N,/RCLK*
X139568347Y-98547347D03*
X142367000Y-83947000D03*
G04 #@! TO.N,/SER*
X138684000Y-101092000D03*
X144653000Y-87884000D03*
G04 #@! TO.N,/GPIO0*
X156718000Y-83820000D03*
X155829000Y-63881000D03*
G04 #@! TD*
D26*
G04 #@! TO.N,/5V*
X172720000Y-46990000D02*
X167640000Y-46990000D01*
X150735000Y-46242000D02*
X150735000Y-47015000D01*
X163195000Y-46990000D02*
X161290000Y-45085000D01*
X167640000Y-46990000D02*
X163195000Y-46990000D01*
X161290000Y-45085000D02*
X151892000Y-45085000D01*
X151892000Y-45085000D02*
X150735000Y-46242000D01*
X150125000Y-47625000D02*
X145415000Y-47625000D01*
X150735000Y-47015000D02*
X150125000Y-47625000D01*
X141605000Y-48260000D02*
X140335000Y-49530000D01*
X142240000Y-47625000D02*
X141605000Y-48260000D01*
X145415000Y-47625000D02*
X142240000Y-47625000D01*
X169526000Y-77616000D02*
X166878000Y-80264000D01*
X173273000Y-77616000D02*
X169526000Y-77616000D01*
X173273000Y-73233000D02*
X173273000Y-77616000D01*
X170407000Y-70367000D02*
X173273000Y-73233000D01*
X167132000Y-70367000D02*
X170407000Y-70367000D01*
X175387000Y-71119000D02*
X173273000Y-73233000D01*
X175387000Y-49657000D02*
X175387000Y-71119000D01*
X172720000Y-46990000D02*
X175387000Y-49657000D01*
X174522999Y-78865999D02*
X173273000Y-77616000D01*
X175387000Y-92329000D02*
X175387000Y-79730000D01*
X175387000Y-79730000D02*
X174522999Y-78865999D01*
X159112000Y-104521000D02*
X159239000Y-104648000D01*
X159239000Y-104648000D02*
X163068000Y-104648000D01*
X157862000Y-104521000D02*
X159112000Y-104521000D01*
X163068000Y-104648000D02*
X175387000Y-92329000D01*
G04 #@! TO.N,/GND*
X135255000Y-58665000D02*
X135550000Y-58960000D01*
X135255000Y-49530000D02*
X135255000Y-58665000D01*
X135550000Y-58960000D02*
X141310000Y-58960000D01*
X160020000Y-50165000D02*
X158115000Y-48260000D01*
X145415000Y-54864000D02*
X145415000Y-49675000D01*
X141310000Y-58960000D02*
X141319000Y-58960000D01*
X155437000Y-47117000D02*
X155335000Y-47015000D01*
X156972000Y-47117000D02*
X155437000Y-47117000D01*
X158115000Y-48260000D02*
X156972000Y-47117000D01*
X146323000Y-105410000D02*
X147212000Y-104521000D01*
X135001000Y-105410000D02*
X146323000Y-105410000D01*
X133858000Y-104267000D02*
X135001000Y-105410000D01*
X147212000Y-104521000D02*
X148462000Y-104521000D01*
X148462000Y-104521000D02*
X149712000Y-104521000D01*
X149712000Y-104521000D02*
X155702000Y-98531000D01*
X143002000Y-94092000D02*
X143876000Y-93218000D01*
X143002000Y-94742000D02*
X143002000Y-94092000D01*
X155575000Y-93218000D02*
X155702000Y-93345000D01*
X143876000Y-93218000D02*
X155575000Y-93218000D01*
X133858000Y-91313000D02*
X133858000Y-104267000D01*
X133858000Y-87884000D02*
X133858000Y-91313000D01*
X136702000Y-99832000D02*
X139309000Y-99832000D01*
X139309000Y-99832000D02*
X140716000Y-98425000D01*
X141912002Y-94742000D02*
X143002000Y-94742000D01*
X140716000Y-95938002D02*
X141912002Y-94742000D01*
X140716000Y-98425000D02*
X140716000Y-95938002D01*
X133096000Y-87122000D02*
X133858000Y-87884000D01*
X133096000Y-59789000D02*
X133096000Y-87122000D01*
X135550000Y-58960000D02*
X133925000Y-58960000D01*
X133925000Y-58960000D02*
X133096000Y-59789000D01*
X158750000Y-82101081D02*
X158369000Y-82482081D01*
X158750000Y-80899000D02*
X158750000Y-82101081D01*
X158369000Y-82482081D02*
X158369000Y-86106000D01*
X156656000Y-87819000D02*
X154265000Y-87819000D01*
X158369000Y-86106000D02*
X156656000Y-87819000D01*
X145288000Y-57298000D02*
X145288000Y-54991000D01*
X146240000Y-58250000D02*
X145288000Y-57298000D01*
X146240000Y-59000000D02*
X146240000Y-58250000D01*
X141319000Y-58960000D02*
X145288000Y-54991000D01*
X145288000Y-54991000D02*
X145415000Y-54864000D01*
X146240000Y-59000000D02*
X152000000Y-59000000D01*
X135509000Y-87884000D02*
X133858000Y-87884000D01*
X154265000Y-87819000D02*
X154265000Y-89819000D01*
X154265000Y-90569000D02*
X155575000Y-91879000D01*
X154265000Y-89819000D02*
X154265000Y-90569000D01*
X155575000Y-91879000D02*
X155575000Y-93980000D01*
X155575000Y-93980000D02*
X155702000Y-94107000D01*
X155702000Y-98531000D02*
X155702000Y-94107000D01*
X155702000Y-94107000D02*
X155702000Y-93345000D01*
G04 #@! TO.N,/3V3*
X153035000Y-47015000D02*
X153035000Y-53315000D01*
X135001000Y-102997000D02*
X135646000Y-103642000D01*
X135001000Y-96774000D02*
X135001000Y-102997000D01*
X135646000Y-103642000D02*
X136702000Y-103642000D01*
X136702000Y-96022000D02*
X136452000Y-96022000D01*
X136335000Y-96139000D02*
X135636000Y-96139000D01*
X136452000Y-96022000D02*
X136335000Y-96139000D01*
X135636000Y-96139000D02*
X135001000Y-96774000D01*
X158750000Y-62750000D02*
X158000000Y-62000000D01*
X158750000Y-73279000D02*
X158750000Y-62750000D01*
X153935000Y-53315000D02*
X153035000Y-53315000D01*
X158000000Y-57380000D02*
X153935000Y-53315000D01*
X158000000Y-62000000D02*
X158000000Y-57380000D01*
X137565000Y-79819000D02*
X139065000Y-79819000D01*
X135509000Y-78544000D02*
X136784000Y-79819000D01*
X135509000Y-77869000D02*
X135509000Y-78544000D01*
X138950000Y-89934000D02*
X139065000Y-89819000D01*
X135509000Y-89934000D02*
X135509000Y-93345000D01*
X135001000Y-93853000D02*
X135001000Y-96774000D01*
X135509000Y-93345000D02*
X135001000Y-93853000D01*
X136784000Y-79819000D02*
X137033000Y-79819000D01*
X137033000Y-89934000D02*
X138950000Y-89934000D01*
X137033000Y-89934000D02*
X137033000Y-79819000D01*
X137033000Y-79819000D02*
X137565000Y-79819000D01*
X135509000Y-89934000D02*
X137033000Y-89934000D01*
X139065000Y-79819000D02*
X142049000Y-79819000D01*
X142049000Y-79819000D02*
X148082000Y-85852000D01*
G04 #@! TO.N,Net-(D1-Pad1)*
X166860000Y-49820000D02*
X167640000Y-49040000D01*
X166860000Y-53340000D02*
X166860000Y-49820000D01*
G04 #@! TO.N,Net-(D2-Pad1)*
X166878000Y-82989000D02*
X166878000Y-86215000D01*
X166878000Y-82314000D02*
X166878000Y-82989000D01*
G04 #@! TO.N,Net-(D3-Pad1)*
X167132000Y-65024000D02*
X167132000Y-68317000D01*
G04 #@! TO.N,/OUT1*
X168910000Y-53340000D02*
X168910000Y-54610000D01*
X168910000Y-54610000D02*
X172720000Y-54610000D01*
X161417000Y-62103000D02*
X168910000Y-54610000D01*
X161417000Y-92837000D02*
X161417000Y-62103000D01*
X159893000Y-94361000D02*
X161417000Y-92837000D01*
X157862000Y-94361000D02*
X159893000Y-94361000D01*
G04 #@! TO.N,/OUT2*
X167132000Y-62974000D02*
X165880000Y-62974000D01*
X161163000Y-95631000D02*
X157862000Y-95631000D01*
X165880000Y-62974000D02*
X163957000Y-64897000D01*
X163957000Y-64897000D02*
X163957000Y-92837000D01*
X163957000Y-92837000D02*
X161163000Y-95631000D01*
X168873000Y-61233000D02*
X173273000Y-61233000D01*
X167132000Y-62974000D02*
X168873000Y-61233000D01*
G04 #@! TO.N,/OUT3*
X159112000Y-96901000D02*
X157862000Y-96901000D01*
X161925000Y-96901000D02*
X159112000Y-96901000D01*
X166878000Y-91948000D02*
X161925000Y-96901000D01*
X166878000Y-88265000D02*
X166878000Y-91948000D01*
X171922000Y-88265000D02*
X173273000Y-89616000D01*
X166878000Y-88265000D02*
X171922000Y-88265000D01*
G04 #@! TO.N,Net-(R1-Pad2)*
X135550000Y-75760000D02*
X135550000Y-62960000D01*
X135550000Y-62960000D02*
X141310000Y-62960000D01*
X135509000Y-75819000D02*
X139065000Y-75819000D01*
G04 #@! TO.N,/SRCLK*
X139065000Y-85819000D02*
X141445000Y-85819000D01*
X141445000Y-85819000D02*
X141478000Y-85852000D01*
X138880315Y-97282000D02*
X136702000Y-97282000D01*
X139446000Y-97282000D02*
X138880315Y-97282000D01*
G04 #@! TO.N,/RCLK*
X136702000Y-98552000D02*
X139563694Y-98552000D01*
X139563694Y-98552000D02*
X139568347Y-98547347D01*
X139193000Y-83947000D02*
X139065000Y-83819000D01*
X142367000Y-83947000D02*
X139193000Y-83947000D01*
G04 #@! TO.N,/SER*
X136702000Y-101102000D02*
X138674000Y-101102000D01*
X138674000Y-101102000D02*
X138684000Y-101092000D01*
X139065000Y-87819000D02*
X144588000Y-87819000D01*
X144588000Y-87819000D02*
X144653000Y-87884000D01*
G04 #@! TO.N,/L7*
X147762000Y-101981000D02*
X148462000Y-101981000D01*
X146304000Y-101981000D02*
X147762000Y-101981000D01*
X144643000Y-103642000D02*
X146304000Y-101981000D01*
X143002000Y-103642000D02*
X144643000Y-103642000D01*
G04 #@! TO.N,/L6*
X146304000Y-100711000D02*
X147212000Y-100711000D01*
X147212000Y-100711000D02*
X148462000Y-100711000D01*
X144653000Y-102362000D02*
X146304000Y-100711000D01*
X143002000Y-102362000D02*
X144653000Y-102362000D01*
G04 #@! TO.N,/L5*
X147212000Y-99441000D02*
X148462000Y-99441000D01*
X146177000Y-99441000D02*
X147212000Y-99441000D01*
X144516000Y-101102000D02*
X146177000Y-99441000D01*
X143002000Y-101102000D02*
X144516000Y-101102000D01*
G04 #@! TO.N,/L4*
X147212000Y-98171000D02*
X148462000Y-98171000D01*
X146196590Y-98171000D02*
X147212000Y-98171000D01*
X144535590Y-99832000D02*
X146196590Y-98171000D01*
X143002000Y-99832000D02*
X144535590Y-99832000D01*
G04 #@! TO.N,/L3*
X146177000Y-96901000D02*
X147212000Y-96901000D01*
X144526000Y-98552000D02*
X146177000Y-96901000D01*
X147212000Y-96901000D02*
X148462000Y-96901000D01*
X143002000Y-98552000D02*
X144526000Y-98552000D01*
G04 #@! TO.N,/L2*
X147212000Y-95631000D02*
X148462000Y-95631000D01*
X146177000Y-95631000D02*
X147212000Y-95631000D01*
X144526000Y-97282000D02*
X146177000Y-95631000D01*
X143002000Y-97282000D02*
X144526000Y-97282000D01*
G04 #@! TO.N,/L1*
X147762000Y-94361000D02*
X148462000Y-94361000D01*
X146050000Y-94361000D02*
X147762000Y-94361000D01*
X144389000Y-96022000D02*
X146050000Y-94361000D01*
X143002000Y-96022000D02*
X144389000Y-96022000D01*
G04 #@! TO.N,/L8*
X138303000Y-102362000D02*
X136702000Y-102362000D01*
X146431000Y-103251000D02*
X144886592Y-104795408D01*
X148462000Y-103251000D02*
X146431000Y-103251000D01*
X144886592Y-104795408D02*
X140736408Y-104795408D01*
X140736408Y-104795408D02*
X138303000Y-102362000D01*
D27*
G04 #@! TO.N,/24+*
X185523000Y-73283000D02*
X185473000Y-73233000D01*
X185523000Y-77566000D02*
X185523000Y-73283000D01*
X190373000Y-66929000D02*
X194564000Y-66929000D01*
X185473000Y-71829000D02*
X190373000Y-66929000D01*
X185473000Y-73233000D02*
X185473000Y-71829000D01*
G04 #@! TO.N,/24-*
X185554000Y-61214000D02*
X185523000Y-61183000D01*
X193929000Y-61214000D02*
X185554000Y-61214000D01*
X194564000Y-61849000D02*
X193929000Y-61214000D01*
X181864000Y-64770000D02*
X181864000Y-86007000D01*
X185451000Y-61183000D02*
X181864000Y-64770000D01*
X181864000Y-86007000D02*
X185473000Y-89616000D01*
X185523000Y-61183000D02*
X185451000Y-61183000D01*
D26*
G04 #@! TO.N,/TXD*
X155765000Y-75819000D02*
X158750000Y-75819000D01*
X154265000Y-75819000D02*
X155765000Y-75819000D01*
G04 #@! TO.N,/RXD*
X158210000Y-77819000D02*
X158750000Y-78359000D01*
X154265000Y-77819000D02*
X158210000Y-77819000D01*
G04 #@! TO.N,/GPIO0*
X147865000Y-63000000D02*
X152000000Y-63000000D01*
X146240000Y-63000000D02*
X147865000Y-63000000D01*
X154950000Y-63000000D02*
X155950000Y-62000000D01*
X152000000Y-63000000D02*
X154950000Y-63000000D01*
X154265000Y-83819000D02*
X156717000Y-83819000D01*
X156717000Y-83819000D02*
X156718000Y-83820000D01*
X155829000Y-62121000D02*
X155950000Y-62000000D01*
X155829000Y-63881000D02*
X155829000Y-62121000D01*
G04 #@! TD*
M02*
